<?xml version="1.0" encoding="utf-8"?>
<!-- Generator: Adobe Illustrator 27.3.1, SVG Export Plug-In . SVG Version: 6.00 Build 0)  -->
<svg version="1.1" id="Layer_1" xmlns="http://www.w3.org/2000/svg" xmlns:xlink="http://www.w3.org/1999/xlink" x="0px" y="0px"
	 viewBox="0 0 240.94 155.91" style="enable-background:new 0 0 240.94 155.91;" xml:space="preserve">
<style type="text/css">
	.st0{fill:#FF1256;}
	.st1{fill:#390A66;}
</style>
<path class="st0" d="M7.55,12.43c1.1,1.12,2.18,2.25,3.3,3.34c4.08,3.97,8.17,7.93,12.28,11.87c1.41,1.35,1.35,2.83-0.31,3.87
	c-5.57,3.49-11.16,6.95-16.74,10.43c-0.58,0.36-1.15,0.74-1.74,1.1c-0.52,0.31-0.95,0.18-1.24-0.34c-0.45-0.83-0.95-1.65-1.29-2.53
	c-0.78-2.03-0.19-4.05,1.61-5.26c2.06-1.39,4.2-2.65,6.3-3.98c0.52-0.33,1.05-0.67,1.52-1.07c1.15-0.96,1.16-2.38,0.07-3.4
	c-1.75-1.63-3.48-3.27-5.25-4.87c-1.74-1.58-2.69-3.43-1.78-5.75c0.33-0.84,1.07-1.53,1.63-2.28c0.28-0.38,0.56-0.75,0.84-1.13
	C7.03,12.43,7.29,12.43,7.55,12.43z"/>
<path class="st0" d="M61.34,100.2c-1.23,6.33-3.49,12.3-6.77,17.86c-1.96,3.32-4.24,6.41-6.83,9.3
	c-5.42,6.04-12.04,10.31-19.35,13.62c-0.98,0.44-2.02,0.76-3.02,1.14c-4.08,1.56-8.41-1.5-9.05-5.39c-0.21-1.3,0.02-2.72,0.3-4.03
	c1.58-7.3,3.32-14.56,4.84-21.87c0.68-3.28,1.26-6.63,1.4-9.97c0.19-4.7-0.98-9.19-3.98-12.94c-2.92-3.65-6.1-7.09-9.14-10.64
	C7.86,75.1,5.85,73,4.23,70.65C1.7,66.96,1.2,62.83,2.19,58.47c1.04-4.58,3.85-7.75,7.69-10.2c5.93-3.78,11.85-7.57,17.77-11.36
	c2.15-1.37,3.07-1.32,4.98,0.39c5.75,5.18,10.99,10.82,15.69,16.97c3.22,4.22,6.1,8.64,8.55,13.35c2.92,5.61,4.84,11.54,5.67,17.81
	C62.54,85.43,63.3,91.23,61.34,100.2z M52.68,87.81c0.13-3.57-1.02-8.09-2.54-12.52c-1.84-5.37-4.83-10.13-8.1-14.71
	c-3.3-4.62-7.28-8.65-11.32-12.62c-1.58-1.55-2.19-1.63-4.18-0.68c-0.32,0.15-0.62,0.36-0.93,0.55c-3.93,2.48-7.83,5-11.79,7.42
	c-3.38,2.07-4.25,6.73-1.72,9.78c0.81,0.98,1.66,1.94,2.49,2.9c3.41,3.96,6.76,7.97,10.25,11.86c2.17,2.42,3.82,5.13,5.15,8.05
	c2.7,5.95,3.29,12.2,2.19,18.58c-0.59,3.43-1.52,6.81-2.27,10.22c-0.48,2.18,0.18,3.76,1.93,4.79c1.69,1,3.72,0.74,5.34-0.71
	c5.26-4.74,9.51-10.21,12.38-16.72C51.66,99.21,52.68,94.21,52.68,87.81z"/>
<path class="st1" d="M127.91,68.34c2.02-0.76,3.91-1.76,5.92-2.17c5.16-1.07,10.02-0.27,14.04,3.37c1.25,1.13,2.2,2.67,3.06,4.16
	c1.65,2.88,2.12,6.1,2.16,9.35c0.07,5.46,0.02,10.92,0.02,16.38c0,1.8-0.64,2.44-2.4,2.44c-2.03,0-4.06,0-6.1,0
	c-1.39,0-1.89-0.46-1.92-1.87c-0.04-1.93-0.02-3.86-0.02-5.79c0-3.73,0.02-7.45,0-11.18c-0.01-2.04-0.53-3.9-1.86-5.54
	c-2.48-3.05-7.61-2.65-9.83-0.81c-2.08,1.72-3.22,3.81-3.16,6.62c0.11,5.46,0.03,10.92,0.04,16.37c0,1.76-0.43,2.18-2.22,2.19
	c-2.13,0-4.26,0-6.39,0c-1.28,0-1.86-0.49-1.99-1.77c-0.08-0.81-0.1-1.63-0.1-2.45c-0.01-18.11-0.01-36.22-0.01-54.32
	c0-1.93,0.34-2.29,2.27-2.31c2.1-0.02,4.2-0.02,6.29,0c1.73,0.02,2.12,0.41,2.12,2.17c0.02,6.11,0.02,12.22,0.03,18.34
	c0,1.96-0.02,3.92-0.02,5.88C127.84,67.77,127.89,68.12,127.91,68.34z"/>
<path class="st1" d="M98.35,65.77c5.34,0,9.61,1.97,12.88,6.02c0.92,1.14,0.91,1.61-0.13,2.6c-1.33,1.26-2.73,2.44-4.04,3.71
	c-0.79,0.76-1.44,0.65-2.19-0.04c-1.21-1.1-2.44-2.14-4.12-2.54c-3.74-0.9-6.69,0.39-8.92,3.27c-2.1,2.7-2.5,5.81-1.14,8.98
	c1.98,4.61,6.39,6.61,11.13,4.96c1.27-0.44,2.3-1.56,3.43-2.37c0.37-0.27,0.69-0.7,1.09-0.8c0.47-0.11,1.14-0.12,1.5,0.14
	c1.29,0.95,2.48,2.03,3.7,3.07c1.28,1.1,1.34,1.79,0.34,3.19c-2.54,3.56-5.99,5.76-10.27,6.48c-7.12,1.2-13.05-1.11-17.7-6.55
	c-3.73-4.37-4.94-9.52-3.93-15.12c0.57-3.16,2.01-5.95,4.16-8.42c3.13-3.6,7.07-5.63,11.7-6.42C96.7,65.78,97.6,65.81,98.35,65.77z"
	/>
<path class="st1" d="M189.14,71.48c0,9.28,0,18.56,0,27.85c0,2.19-0.35,2.54-2.58,2.54c-2,0-4,0-6,0c-1.35,0-1.83-0.42-1.93-1.78
	c-0.07-1.01-0.09-2.02-0.09-3.04c-0.01-17.88-0.01-35.75,0-53.63c0-0.42,0.01-0.85,0.1-1.26c0.14-0.68,0.56-1.11,1.29-1.12
	c2.59-0.01,5.18-0.03,7.77-0.01c0.84,0.01,1.33,0.5,1.41,1.34c0.04,0.42,0.03,0.85,0.03,1.27C189.13,52.92,189.13,62.2,189.14,71.48
	z"/>
<path class="st1" d="M225.3,75.97c-0.61,0-0.99,0-1.37,0c-2.85,0-5.7,0-8.55,0c-1.37,0-1.84-0.43-1.87-1.8
	c-0.04-1.86-0.05-3.73-0.01-5.59c0.03-1.48,0.53-1.93,1.99-1.93c7.31,0,14.61-0.01,21.92,0.02c2.62,0.01,3.15,0.93,1.89,3.28
	c-2.31,4.28-4.64,8.55-6.98,12.81c-1.6,2.91-3.26,5.8-4.87,8.71c-0.55,0.99-0.39,1.21,0.77,1.21c2.75-0.01,5.5-0.02,8.26-0.02
	c1.29,0,1.79,0.48,1.8,1.78c0.03,1.83,0.03,3.66,0.01,5.49c-0.01,1.3-0.61,1.93-1.94,1.93c-7.37,0.02-14.75,0.02-22.12,0
	c-1.31,0-2.03-1.67-1.35-2.92c2.07-3.81,4.11-7.64,6.18-11.45c1.8-3.3,3.63-6.58,5.44-9.87C224.75,77.15,224.96,76.66,225.3,75.97z"
	/>
<path class="st1" d="M197.02,84.23c0-5.13,0-10.26,0-15.39c0-1.73,0.38-2.14,2.11-2.17c2.23-0.03,4.45-0.02,6.68,0
	c1.11,0.01,1.7,0.56,1.75,1.67c0.04,0.98,0,1.96,0,2.94c0.01,9.31,0.01,18.62,0.02,27.93c0,2.17-0.47,2.65-2.63,2.65
	c-2.03,0-4.06,0.01-6.09,0c-1.25,0-1.84-0.59-1.85-1.86C197.02,94.75,197.02,89.49,197.02,84.23z"/>
<path class="st1" d="M160.18,84.13c0-5.07-0.01-10.13,0.01-15.2c0.01-1.7,0.32-2.15,2-2.23c2.32-0.12,4.65-0.08,6.98-0.02
	c1.01,0.03,1.51,0.61,1.56,1.66c0.06,1.04,0.03,2.09,0.03,3.14c0.01,9.28,0.01,18.57,0.02,27.85c0,0.29,0.01,0.59-0.03,0.88
	c-0.12,1.13-0.72,1.66-1.88,1.67c-2.1,0.01-4.2,0.01-6.29,0c-1.76-0.01-2.36-0.57-2.36-2.34c-0.02-5.13-0.01-10.26-0.01-15.4
	C160.2,84.13,160.19,84.13,160.18,84.13z"/>
<path class="st1" d="M171.48,56.32c-0.08,3.44-2.84,6.18-6.14,6.09c-3.32-0.09-6.01-2.91-5.92-6.19c0.09-3.3,2.72-5.94,5.85-5.89
	C168.78,50.4,171.56,53.08,171.48,56.32z"/>
<path class="st1" d="M202.16,40.9c3.41,0.02,6.26,2.84,6.22,6.14c-0.04,2.99-3.1,5.95-6.12,5.92c-3.37-0.04-6.03-2.72-6.02-6.08
	C196.25,43.69,199.02,40.88,202.16,40.9z"/>
</svg>
