<?xml version="1.0" encoding="utf-8"?>
<!-- Generator: Adobe Illustrator 27.3.1, SVG Export Plug-In . SVG Version: 6.00 Build 0)  -->
<svg version="1.1" id="Layer_1" xmlns="http://www.w3.org/2000/svg" xmlns:xlink="http://www.w3.org/1999/xlink" x="0px" y="0px"
	 viewBox="0 0 1080 1080" style="enable-background:new 0 0 1080 1080;" xml:space="preserve">
<style type="text/css">
	.st0{fill:#472681;}
</style>
<path d="M122.6,633.2c-1.27,2.01-2.53,4.02-3.81,6.03c-7.14,11.19-17.3,18.22-30,21.7c-9.84,2.7-19.9,2.85-29.75,0.85
	c-16.9-3.43-30.8-12.03-41.01-26.17C9.9,624.36,5.13,611.76,2.76,598.14c-1.89-10.87-2.11-21.8-0.6-32.64
	c3.74-26.83,17-47.47,41-60.7c6.49-3.57,13.48-5.71,20.77-7.11c7.96-1.52,15.93-1.35,23.85-0.41c8.67,1.02,16.89,3.83,24.78,7.59
	c0.26,0.12,0.51,0.24,1.28,0.61c0-14.88,0-29.48,0-44.08c0-14.6,0-29.19,0-43.92c15.49,0,30.75,0,46.29,0c0,0.73,0,1.51,0,2.29
	c0,62.69-0.01,125.38,0.01,188.07c0,4.77,0.08,9.55,1.52,14.18c1.24,3.97,4.41,6.55,8.56,6.91c1.03,0.09,2.07,0.17,3.1,0.16
	c1.47-0.01,2.03,0.66,2.01,2.12c-0.05,4.14-0.03,8.28-0.01,12.42c0.02,4.54,0.05,9.09,0.12,13.63c0.02,1.19-0.29,2-1.56,2.25
	c-9.5,1.92-19.04,3.48-28.73,1.77c-9.12-1.61-16.63-5.63-20.42-14.72c-1.6-3.84-2.06-7.87-1.83-11.99c0.02-0.42,0-0.85,0-1.27
	C122.8,633.26,122.7,633.23,122.6,633.2z M115.02,568.16C115.02,568.16,115.02,568.16,115.02,568.16
	c0.01-6.55-0.12-13.11,0.07-19.66c0.08-2.73-0.67-4.18-3.24-5.53c-10.27-5.4-21.03-7.97-32.57-6.26
	c-14.61,2.17-24.3,10.55-29.21,24.32c-2.83,7.94-3.65,16.24-2.71,24.64c0.79,7.07,2.46,13.91,5.92,20.2
	c4.66,8.46,11.86,13.36,21.31,15.08c7.17,1.31,14.26,1.2,20.89-2.09c12.86-6.36,18.71-17.33,19.48-31.22
	C115.31,581.17,115.02,574.65,115.02,568.16z"/>
<path d="M912.14,564.47c0-4.3,0.31-8.4-0.07-12.42c-0.59-6.21-4.21-10.69-9.35-13.95c-5.88-3.73-12.52-5.08-19.31-5.73
	c-16.33-1.57-32.07,0.96-47.24,7.14c-1.9,0.77-3.72,1.76-5.74,2.73c-0.4-0.61-0.89-1.23-1.24-1.92c-4.6-9-9.15-18.02-13.79-27
	c-0.75-1.45-0.33-2,0.97-2.74c11.59-6.56,24.08-10.47,37.09-12.92c17.18-3.23,34.42-3.48,51.63-0.53
	c12.23,2.1,23.51,6.62,33.15,14.74c8.43,7.11,13.67,16.14,16.44,26.71c1.44,5.48,2.09,11.04,2.07,16.71
	c-0.06,19.56-0.06,39.11,0.01,58.67c0.01,3.61,0.25,7.25,0.77,10.82c0.78,5.32,3.59,7.81,8.93,8.42c1.75,0.2,3.53,0.26,5.45,0.39
	c0,0.62-0.01,1.18,0,1.74c0.08,6.96,0.15,13.91,0.27,20.87c0.05,2.82,0.01,2.95-2.74,3.52c-8.66,1.81-17.38,2.74-26.19,1.32
	c-12.99-2.1-21.5-10.38-21.72-24.3c0-0.26-0.07-0.53-0.16-1.11c-0.5,0.55-0.85,0.82-1.05,1.17c-5.81,10.06-14.81,16.2-25.35,20.26
	c-11.44,4.4-23.37,6.17-35.55,4.89c-16.47-1.73-30.6-8.33-41.14-21.55c-5.78-7.26-8.86-15.61-9.92-24.78
	c-1.13-9.74,0.12-19.24,3.61-28.29c4.14-10.74,11.63-18.74,21.75-24.27c11.88-6.5,24.68-8.91,38.06-8.37
	c6.3,0.25,12.61,0.9,18.85,1.85c7.32,1.12,14.16,3.86,20.57,7.59C911.43,564.24,911.7,564.3,912.14,564.47z M911.21,598.84
	c0-0.75-0.11-1.52,0.02-2.24c0.47-2.54-0.84-3.7-2.97-4.84c-7.52-4.04-15.55-6.16-23.98-6.95c-7.68-0.72-15,0.29-21.7,4.44
	c-9.63,5.97-12.29,20.74-5.21,29.58c3.58,4.47,8.61,6.51,14.07,7.19c9.66,1.2,18.7-1.14,27.17-5.77
	C907.07,615.63,911.58,608.66,911.21,598.84z"/>
<path d="M613.92,579.1c0.26,18.41-4.22,33.91-13.45,47.88c-9.4,14.22-22.5,23.86-38.41,29.86c-13.04,4.91-26.54,6.86-40.3,5.42
	c-30.59-3.2-54.53-16.96-68.7-45.22c-4.69-9.34-7-19.4-7.82-29.82c-0.59-7.48-0.55-14.97,0.51-22.37
	c2.17-15.14,7.61-28.9,17.73-40.65c9.05-10.5,20.01-18.24,32.93-23.15c12.87-4.89,26.21-6.67,39.95-5.75
	c12.38,0.83,24.09,3.97,35.1,9.72c18.94,9.9,31.96,24.86,38.51,45.23C613.13,560.14,614.6,570.3,613.92,579.1z M490.87,577.93
	c0.56,10.47,1.27,14.63,3.92,20.97c6.04,14.42,17.19,21.88,32.52,23.14c8.4,0.69,16.09-1.77,23.14-6.41
	c7.37-4.84,12.32-11.49,14.94-19.81c2.59-8.22,3.27-16.62,2.03-25.21c-1.79-12.41-6.96-22.71-18.12-29.2
	c-12.39-7.21-25.27-7.54-37.82-0.89C496.17,548.62,491.48,562.84,490.87,577.93z"/>
<path d="M786.53,523.85c-10.86,9.21-21.59,18.31-32.09,27.22c-2.64-2.73-4.85-5.6-7.6-7.77c-9.66-7.6-20.6-9.3-32.41-6.43
	c-17.42,4.23-28.84,18.55-30.38,36.29c-0.71,8.16-0.1,16.2,2.92,23.92c5.99,15.34,21.16,26.08,38.2,25.47
	c11.53-0.41,20.62-5.26,27.44-14.5c0.51-0.69,0.9-1.46,1.44-2.34c2.08,1.7,4.18,3.36,6.22,5.09c8.32,7.08,16.6,14.21,24.96,21.24
	c1.21,1.01,1.22,1.61,0.25,2.73c-8.81,10.16-19.57,17.48-32.18,22.12c-18.54,6.82-37.37,7.75-56.36,2.29
	c-12.52-3.6-23.88-9.53-33.6-18.35c-9.29-8.43-15.94-18.64-20.31-30.36c-3.55-9.53-4.89-19.44-5.24-29.55
	c-0.43-12.77,1.6-25.09,6.5-36.87c6.43-15.47,17.21-27.28,31.24-36.25c7.38-4.72,15.41-7.84,23.85-10.08
	c8.17-2.17,16.48-3.21,24.9-3.03c22.76,0.5,42.56,8.17,58.53,24.78c0.44,0.46,0.87,0.92,1.27,1.41
	C784.84,521.79,785.6,522.72,786.53,523.85z"/>
<path d="M396.89,511.87c0,29.97-0.06,59.94,0.08,89.91c0.02,3.85,0.75,7.78,1.71,11.54c1.84,7.16,6.87,11.05,14.08,11.73
	c4.14,0.39,8.36-0.04,12.55-0.12c0.57-0.01,1.15-0.06,1.71-0.17c1.2-0.24,1.62,0.22,1.67,1.44c0.17,4.71,0.43,9.42,0.64,14.13
	c0.26,5.8,0.47,11.61,0.76,17.41c0.05,1.02-0.07,1.58-1.24,1.76c-9.32,1.46-18.67,2.84-28.13,2.42c-9.5-0.43-18.72-2.23-27.04-7.2
	c-7.64-4.56-12.85-11.22-16.39-19.25c-4.21-9.56-6.02-19.7-6.06-30.05c-0.27-61.89-0.37-123.78-0.53-185.67
	c-0.01-2.71,0-2.74,2.69-2.75c13.86-0.02,27.73,0,41.59-0.05c1.46,0,1.85,0.5,1.85,1.91c-0.03,31.01-0.03,62.01-0.03,93.02
	C396.82,511.87,396.85,511.87,396.89,511.87z"/>
<path d="M1000.95,416.96c1.5,0,2.75,0,4,0c13.11,0,26.23,0,39.34,0.01c2.23,0,2.23,0.02,2.23,2.33
	c0.03,57.92,0.08,115.85,0.05,173.77c0,5.94-0.01,11.85,1.29,17.67c1.05,4.71,2.94,8.95,7.15,11.79c2.92,1.96,6.2,2.82,9.62,2.83
	c3.96,0.01,7.92-0.29,11.87-0.64c1.62-0.14,2.06,0.29,2.11,1.9c0.32,10.4,0.74,20.79,1.15,31.19c0.03,0.84-0.06,1.44-1.06,1.61
	c-14.12,2.46-28.28,4.04-42.44,0.53c-14.83-3.68-24.79-12.95-30.18-27.21c-2.81-7.43-4.05-15.19-4.75-23.05
	c-0.31-3.43-0.36-6.89-0.37-10.33c-0.02-60.05-0.01-120.11-0.02-180.16C1000.95,418.59,1000.95,417.96,1000.95,416.96z"/>
<path class="st0" d="M234.75,544.36c1.43-0.08,2.63-0.2,3.83-0.2c12.35-0.01,24.71,0.04,37.06,0c5.26-0.02,5.27-0.09,5.27,5.08
	c0.01,13.1-0.01,26.21,0.05,39.31c0.01,1.55-0.45,1.9-1.95,1.9c-13.85-0.07-27.7-0.06-41.55-0.07c-2.75,0-2.75,0-2.75-2.69
	c0.01-13.74,0.02-27.47,0.03-41.21C234.75,545.84,234.75,545.22,234.75,544.36z"/>
</svg>
