<?xml version="1.0" encoding="utf-8"?>
<!-- Generator: Adobe Illustrator 27.3.1, SVG Export Plug-In . SVG Version: 6.00 Build 0)  -->
<svg version="1.1" id="Layer_1" xmlns="http://www.w3.org/2000/svg" xmlns:xlink="http://www.w3.org/1999/xlink" x="0px" y="0px"
	 viewBox="0 0 1080 1080" style="enable-background:new 0 0 1080 1080;" xml:space="preserve">
<style type="text/css">
	.st0{fill:#FFFFFF;}
	.st1{fill:#832081;}
	.st2{fill:#E96092;}
	.st3{fill:#63B6E6;}
	.st4{fill:#FFDB14;}
	.st5{fill:#F4A300;}
	.st6{fill:#E54F35;}
</style>
<path d="M974.5,565.01c-15.45,7.54-10.15,21.48-11.34,33.65c-6.52,0-12.92,0-19.64,0c0-36.98,0-73.87,0-111.14
	c6.32,0,12.55,0,19.32,0c0,19.64,0,39.36,0,60.46c1.99-1.73,3.08-2.54,4-3.51c8.61-9.05,17.28-18.04,25.74-27.24
	c2.6-2.82,5.39-4.05,9.19-3.94c6.75,0.2,13.51,0.06,21.72,0.06c-12.31,12.69-23.6,24.34-35.2,36.3
	c11.8,16.27,23.48,32.38,35.81,49.37c-8.35,0-15.75,0.2-23.12-0.16c-1.54-0.08-3.3-1.99-4.39-3.47
	c-6.52-8.84-12.87-17.81-19.3-26.72C976.34,567.36,975.32,566.08,974.5,565.01z"/>
<path d="M789.71,542.9c-6.2-1.42-11.85-2.72-17.8-4.08c0.07-6.14,2.69-10.97,6.26-15.43c14.2-17.79,45.01-14.59,56.28-4.09
	c6.2,5.78,9.33,12.92,9.45,21.28c0.2,13.15,0.14,26.31,0.17,39.47c0.02,6.12,0,12.25,0,18.7c-5.71,0-11.79,0-18.02,0
	c-0.39-2.91-0.76-5.7-1.19-8.9c-0.72,0.5-1.27,0.76-1.65,1.18c-9.69,10.78-21.68,13-35.04,8.97c-12.26-3.71-19.01-13.58-18.33-25.91
	c0.62-11.2,9.01-20.62,20.91-22.96c8.32-1.63,16.73-2.84,25.11-4.12c8.06-1.23,10.37-5.92,6.28-13.06
	c-3.27-5.71-8.58-6.78-14.6-6.46c-7.63,0.41-13.47,3.41-16.39,10.84C790.63,539.69,790.27,541.13,789.71,542.9z M823.56,559.48
	c-8.77,1.63-17.33,2.85-25.69,4.91c-5.44,1.34-8.09,5.89-7.7,10.87c0.4,5.14,3.52,8.64,8.92,10.03
	C813.82,589.1,825.99,576.83,823.56,559.48z"/>
<path d="M435.06,542.91c-6.31-1.45-12.1-2.77-17.81-4.08c0.42-11.87,10.7-23.44,23.86-26.61c10.27-2.48,20.57-2.13,30.4,2.02
	c10.58,4.47,17.04,12.69,17.36,24.16c0.55,19.96,0.15,39.95,0.15,60.29c-5.3,0-11.36,0-17.69,0c-0.34-2.76-0.69-5.51-1.1-8.84
	c-1.04,0.8-1.69,1.18-2.19,1.69c-10.69,10.93-26.34,13.41-39.87,6.31c-9.01-4.74-14.27-14.82-13.05-25.02
	c1.27-10.56,9.5-19.41,20.68-21.68c7.99-1.62,16.08-2.73,24.13-4.05c3.72-0.61,7.99-0.35,9.1-5.31c0.97-4.29-1.74-9.84-5.86-12.39
	c-9.46-5.86-23.87-0.46-27.12,10.17C435.75,540.52,435.48,541.46,435.06,542.91z M468.72,559.48c-8.73,1.68-17.55,3.04-26.18,5.18
	c-4.82,1.19-7.22,5.13-7.04,10.25c0.19,5.31,3.13,8.82,8.51,10.29C458.69,589.24,471.99,575.95,468.72,559.48z"/>
<path d="M935.3,539c-6.1,2.22-11.82,4.31-17.62,6.42c-0.54-0.91-0.92-1.44-1.2-2.02c-5.05-10.66-11.89-14.67-22.97-13.45
	c-9.87,1.09-18.63,8.63-19.86,18.88c-0.75,6.24-0.19,13.06,1.58,19.09c2.72,9.25,9.73,14.54,19.62,15.09
	c10.32,0.57,18.11-3.46,22.43-13.23c0.26-0.59,0.65-1.13,1.29-2.22c5.7,2.03,11.4,4.06,17.53,6.25
	c-4.86,14.69-14.76,23.4-29.21,26.8c-25.22,5.93-48.7-9.55-53.68-35.08c-5.18-26.58,10.69-50.14,36.52-54.23
	c19.62-3.11,38.63,7.33,44.83,24.62C934.84,536.7,934.95,537.53,935.3,539z"/>
<path d="M497.85,575.97c6.07-1.68,11.64-3.23,17.18-4.77c4.91,11.93,11.93,16.25,22.11,13.79c5.26-1.27,8.75-4.7,8.85-8.87
	c0.14-5.36-3.4-7.66-7.85-8.92c-6.24-1.77-12.53-3.34-18.81-4.98c-9.91-2.59-16.23-8.73-18.58-18.8
	c-2.35-10.06,1.57-18.04,8.68-24.62c13.39-12.4,39.17-10.19,50.23,4.32c2.42,3.17,3.74,7.18,5.83,11.31
	c-5.82,1.7-10.53,3.34-15.38,4.3c-1.08,0.21-3.13-1.67-3.88-3.06c-4.35-8.02-13.44-11.25-21.27-7.29c-3.79,1.91-5.93,4.92-5.47,9.23
	c0.44,4.11,3.01,6.53,7.01,7.45c5.84,1.34,11.74,2.46,17.51,4.04c10.25,2.8,18.16,8.42,20.91,19.31
	c3.33,13.19-3.71,25.74-17.47,30.8c-12.41,4.56-24.58,3.58-36.05-3.17C503.97,591.68,499.55,585.1,497.85,575.97z"/>
<path d="M390.01,513.25c7.41,0,13.37,0,19.78,0c0,5.89,0,11.45,0,17.64c-5.97,0-12.2,0-19.13,0c0,22.98,0,45.36,0,67.94
	c-7.15,0-13.59,0-20.49,0c0-22.38,0-44.63,0-67.52c-5.16,0-9.88,0-14.86,0c0-6.21,0-11.79,0-17.86c4.74,0,9.34,0,14.16,0
	c0.5-3.52,0.79-6.63,1.41-9.67c3.86-19.06,21.09-25.2,37.14-21.55c1.08,0.25,2.42,2.2,2.51,3.44c0.31,4.3,0.12,8.64,0.12,13.45
	c-6.12,1.45-13.71-1.68-17.88,4.99C391.29,506.48,391.06,509.61,390.01,513.25z"/>
<path d="M606.51,513.33c6.12,0,11.69,0,17.46,0c0,6.26,0,11.87,0,18.01c-5.57,0-11,0-17.02,0c-0.12,2.06-0.28,3.65-0.28,5.24
	c-0.02,10.99-0.04,21.99,0,32.98c0.04,9.88,2.94,12.62,12.99,12.42c1.32-0.03,2.64,0,4.7,0c0,4.97,0.1,9.86-0.1,14.74
	c-0.03,0.8-1.3,2.06-2.18,2.25c-9.92,2.17-19.6,2.12-27.99-4.64c-4.62-3.72-7.25-8.81-7.39-14.74c-0.33-13.65-0.35-27.3-0.49-40.95
	c-0.02-2.13,0-4.25,0-7.04c-5.36,0-10.26,0-15.47,0c0-6.25,0-11.83,0-17.91c2.31-0.15,4.57-0.29,6.83-0.46
	c6.91-0.53,10.21-3.85,10.44-10.82c0.16-4.8,0.03-9.62,0.03-15.09c5.87,1.97,11.26,3.59,16.47,5.66c1.02,0.41,1.87,2.51,1.92,3.87
	C606.64,502.12,606.51,507.41,606.51,513.33z"/>
<path d="M665.91,531.63c-5.46,0-10.38,0-15.6,0c0-6.3,0-12.02,0-18.05c2.32-0.12,4.45-0.2,6.58-0.35c7-0.48,10.2-3.46,10.7-10.64
	c0.33-4.78,0.06-9.6,0.06-15.31c6.07,2.04,11.42,3.7,16.63,5.74c0.9,0.35,1.63,2.27,1.67,3.48c0.18,5.31,0.08,10.63,0.08,16.68
	c5.96,0,11.66,0,17.61,0c0,6.34,0,11.95,0,18.16c-5.57,0-11.16,0-17.55,0c0,3.5,0,6.42,0,9.33c0,9.5-0.01,19,0,28.5
	c0.02,10.16,2.99,13.02,13.24,12.8c1.33-0.03,2.66,0,4.66,0c0,4.74,0.13,9.52-0.11,14.28c-0.05,0.96-1.31,2.47-2.25,2.68
	c-9.55,2.16-18.93,2.16-27.21-4.01c-5.71-4.26-8.33-10.3-8.39-17.36c-0.11-13.33-0.09-26.66-0.12-39.99
	C665.91,535.78,665.91,533.99,665.91,531.63z"/>
<path d="M715.39,513.92c6.43,0,12.65,0,19.28,0c0,3.57,0,6.84,0,10.05c4.73-3.27,8.86-7.21,13.78-9.21
	c4.86-1.97,10.52-1.98,16.32-2.94c0,7.87,0,14.44,0,21.28c-3.62,0.2-7.23,0.27-10.82,0.62c-10.88,1.06-17.43,7.42-17.9,18.39
	c-0.57,13.29-0.45,26.61-0.62,39.92c-0.03,2.13,0,4.26,0,6.7c-6.88,0-13.29,0-20.04,0C715.39,570.53,715.39,542.36,715.39,513.92z"
	/>
<path class="st0" d="M823.56,559.48c2.43,17.35-9.74,29.62-24.48,25.81c-5.4-1.4-8.51-4.9-8.92-10.03
	c-0.39-4.97,2.26-9.52,7.7-10.87C806.22,562.33,814.79,561.11,823.56,559.48z"/>
<path class="st0" d="M468.72,559.48c3.27,16.47-10.03,29.76-24.71,25.73c-5.38-1.48-8.32-4.98-8.51-10.29
	c-0.18-5.12,2.22-9.06,7.04-10.25C451.17,562.52,460,561.16,468.72,559.48z"/>
<g id="XMLID_00000013894336124689707900000017062967109459221926_">
	<g>
		<polygon class="st1" points="268.16,478.54 268.16,601.38 161.78,539.96 		"/>
		<polygon class="st2" points="268.16,478.54 161.78,539.96 161.78,417.12 		"/>
		<polygon class="st3" points="268.16,601.38 161.78,662.8 161.78,539.96 		"/>
		<polygon class="st4" points="161.78,539.96 161.78,662.8 55.4,601.38 		"/>
		<polygon class="st5" points="161.78,417.12 161.78,539.96 55.4,478.54 		"/>
		<polygon class="st6" points="161.78,539.96 55.4,601.38 55.4,478.54 		"/>
	</g>
	<g>
	</g>
</g>
</svg>
