<?xml version="1.0" encoding="UTF-8" standalone="no"?>
<!DOCTYPE svg PUBLIC "-//W3C//DTD SVG 1.1//EN" "http://www.w3.org/Graphics/SVG/1.1/DTD/svg11.dtd">
<svg width="100%" height="100%" viewBox="0 0 2367 537" version="1.1" xmlns="http://www.w3.org/2000/svg" xmlns:xlink="http://www.w3.org/1999/xlink" xml:space="preserve" xmlns:serif="http://www.serif.com/" style="fill-rule:evenodd;clip-rule:evenodd;stroke-linejoin:round;stroke-miterlimit:2;">
    <g>
        <g>
            <g>
                <path d="M204.6,409.2C91.8,409.2 0,317.4 0,204.6C0,91.8 91.8,0 204.6,0C317.4,0 409.2,91.8 409.2,204.6C409.2,317.4 317.4,409.2 204.6,409.2ZM204.6,32.5C109.7,32.5 32.6,109.7 32.6,204.6C32.6,299.5 109.7,376.7 204.6,376.7C299.5,376.7 376.7,299.5 376.7,204.6C376.7,109.7 299.5,32.6 204.6,32.5Z" style="fill-rule:nonzero;"/>
                <path d="M123.7,284.9L94.2,270.8L94.6,265.6L131.4,266.1C131.4,266.1 149.5,240.9 159.1,228.8C168.8,216.7 181.2,201.8 181.2,201.8L79.7,156.9L86,150.7L214.7,168C214.7,168 251.9,129.3 265.2,118.1C270.6,113.6 289.6,101.5 297.5,109.3L298.4,110.2C306.3,118.1 294.3,137.2 289.9,142.6C278.7,156 240.4,193.5 240.4,193.5L258.8,322.1L252.5,328.4L206.9,227C206.9,227 192.2,239.6 180.1,249.4C168,259.2 143,277.4 143,277.4L143.8,314.2L138.6,314.6L124.3,285.3L123.7,284.9Z" style="fill-rule:nonzero;"/>
                <path d="M204.6,536.7C184,536.7 163.4,534.7 143.1,530.7C138.9,529.8 135.2,527.3 132.9,523.8C130.5,520.2 129.7,515.9 130.5,511.7C131.3,507.5 133.8,503.8 137.3,501.4C140.8,499 145.2,498.1 149.4,498.8C185.9,505.9 223.5,505.9 260,498.8C262.1,498.4 264.3,498.4 266.3,498.8C268.4,499.2 270.4,500.1 272.2,501.3C274,502.5 275.5,504 276.7,505.8C277.9,507.6 278.7,509.6 279.1,511.7C279.5,513.8 279.5,516 279.1,518C278.7,520.1 277.8,522.1 276.6,523.9C275.4,525.7 273.9,527.2 272.1,528.4C270.3,529.6 268.3,530.4 266.2,530.8C245.8,534.7 225.2,536.7 204.6,536.7Z" style="fill-rule:nonzero;"/>
                <path d="M204.6,473C176.7,473 148.9,468.5 122.3,459.8C118.2,458.5 114.8,455.5 112.9,451.7C111,447.8 110.6,443.4 112,439.3C113.3,435.2 116.3,431.8 120.1,429.9C123.9,428 128.4,427.6 132.5,429C179.3,444.4 229.9,444.4 276.7,429C278.7,428.3 280.9,428.1 283,428.2C285.1,428.4 287.2,428.9 289.1,429.9C291,430.9 292.7,432.2 294.1,433.8C295.5,435.4 296.6,437.3 297.2,439.3C297.9,441.3 298.1,443.5 298,445.6C297.8,447.7 297.3,449.8 296.3,451.7C295.3,453.6 294,455.3 292.4,456.7C290.8,458.1 288.9,459.2 286.9,459.8C260.3,468.5 232.6,472.9 204.6,473Z" style="fill-rule:nonzero;"/>
                <path d="M567.5,159.5L567.5,124L771.2,124L771.2,159.6L689.2,159.6L689.2,399.4L649.4,399.4L649.4,159.5L567.5,159.5Z" style="fill-rule:nonzero;"/>
                <path d="M776.1,399.3L776.1,205.1L813.6,205.1L813.6,232.5C825.1,213.3 842.3,203.7 865.1,203.6C869.6,203.6 874.1,204 878.6,204.8L878.6,243C874.9,242.5 871.7,242.1 869,241.8C866.3,241.5 864.1,241.4 862.5,241.4C843.9,241.4 830.3,248.5 821.5,262.6C820.3,264.9 819.3,267.2 818.4,269.6C817.5,272.1 816.7,274.7 816.1,277.3C815.5,279.8 815,282.3 814.7,284.8C814.4,287.2 814.2,289.3 814,291.2C813.9,293.1 813.8,295.2 813.7,297.8C813.6,300.4 813.6,303.4 813.6,306.7L813.6,399.2L776.1,399.3Z" style="fill-rule:nonzero;"/>
                <path d="M898.1,301.6C898.1,288.7 900,275.9 903.8,263.6C907.4,251.9 913,240.8 920.4,231C927.8,221.3 937.2,213.5 948.1,208.1C959.8,202.3 972.6,199.4 985.6,199.6C1014.2,199.6 1035.7,209.1 1050.2,228L1050.2,204.9L1087.1,204.9L1087.1,399.1L1050.2,399.1L1050.2,376.6C1041.7,386.9 1032.3,394.1 1021.9,398.3C1011.5,402.5 999.4,404.6 985.6,404.6C971.4,404.6 958.8,401.7 948,395.8C937.3,390 928,382.1 920.6,372.4C913,362.5 907.3,351.3 903.8,339.3C900.1,327.3 898.1,314.5 898.1,301.6ZM939.8,277.4C938,283.5 936.9,289.8 936.6,296.1C936.2,302.5 936.4,308.9 937.3,315.2C938.1,321.4 939.6,327.4 941.6,333.3C943.5,338.8 946.2,344 949.7,348.7C954.1,355.2 960.1,360.4 967.1,363.9C974.8,367.7 983.4,369.6 992,369.5C1010.7,369.5 1025.1,363.1 1035.3,350.3C1045.5,337.5 1050.4,321.6 1050.3,302.7C1050.5,293.9 1049.3,285.1 1046.8,276.6C1044.6,268.8 1040.8,261.6 1035.7,255.3C1030.7,249.2 1024.4,244.2 1017.3,240.8C1009.4,237.1 1000.7,235.2 991.9,235.4C985.2,235.3 978.6,236.4 972.4,238.7C966.9,240.7 961.9,243.8 957.5,247.6C953.2,251.4 949.6,256 946.7,261C943.8,266 941.5,271.6 939.8,277.4Z" style="fill-rule:nonzero;"/>
                <path d="M1120.6,205.1L1160.4,205.1L1208.5,344.1L1255.2,205.1L1293.8,205.1L1224.2,399.3L1191.5,399.3L1120.6,205.1Z" style="fill-rule:nonzero;"/>
                <path d="M1311.5,300.5C1311.4,291.2 1312.4,281.9 1314.5,272.8C1316.3,264.6 1319.2,256.7 1323,249.2C1326.5,242.3 1330.8,235.9 1335.9,230.2C1340.7,224.7 1346.2,219.9 1352.3,215.9C1360.1,210.4 1368.7,206.2 1377.9,203.6C1387,201 1396.4,199.7 1405.8,199.8C1414.6,199.8 1423.3,201 1431.8,203.4C1440.6,205.9 1448.9,209.8 1456.5,214.8C1465,220.5 1472.2,227.8 1477.8,236.3C1484.3,246.1 1488.9,257.1 1491.5,268.6C1493.9,278.9 1495.1,291.4 1495.1,306.1L1495.1,310.3L1351.7,310.3C1352.1,328.5 1357.7,343.7 1368.6,355.7C1377.7,366 1391,371.1 1408.4,371.1C1413.3,371.1 1418.2,370.5 1422.9,369.2C1427.4,368 1431.8,366.1 1435.8,363.6C1439.7,361.2 1443.2,358.2 1446.2,354.8C1449.3,351.4 1451.8,347.5 1453.7,343.4L1493.1,343.4C1487.1,358.5 1479.9,370.4 1471.4,379.1C1463.7,387.2 1454.4,393.6 1444,397.8C1437.9,400.4 1431.4,402.3 1424.9,403.5C1418.9,404.5 1412.8,405 1406.7,404.9C1377.5,404.9 1354.3,395.5 1337.1,376.8C1320,358.1 1311.4,332.7 1311.5,300.5ZM1454.2,282C1453.3,267.2 1448.1,255.4 1438.6,246.6C1429.4,238 1417.2,233.3 1404.6,233.6C1391.1,233.6 1379.7,238 1370.4,246.9C1360.8,255.9 1355,267.6 1352.9,282.1L1454.2,282Z" style="fill-rule:nonzero;"/>
                <path d="M1621.8,399.3L1621.8,124L1732,124C1740.1,124 1748.1,124.9 1755.9,126.8C1763.5,128.6 1770.8,131.4 1777.6,135.1C1784.3,138.8 1790.6,143.3 1796.2,148.5C1802,153.9 1807,160 1811.1,166.7C1819.5,180.7 1823.8,196.7 1823.6,213C1823.8,229.3 1819.5,245.4 1811.1,259.3C1803,272.7 1791.4,283.7 1777.7,291.2C1763.6,298.7 1747.9,302.5 1732,302.4L1661.1,302.4L1661.1,399.3L1621.8,399.3ZM1661.3,266.8L1731.4,266.8C1747.5,266.8 1760.6,261.8 1770.6,251.8C1780.6,241.8 1785.6,228.9 1785.6,213.1C1785.6,197.5 1780.6,184.7 1770.6,174.8C1760.6,164.9 1747.6,159.9 1731.4,160L1661.3,160L1661.3,266.8Z" style="fill-rule:nonzero;"/>
                <path d="M1835.8,300.5C1835.7,291.2 1836.7,281.9 1838.8,272.8C1840.6,264.6 1843.5,256.7 1847.3,249.2C1850.8,242.3 1855.1,235.9 1860.2,230.2C1865,224.7 1870.5,219.9 1876.6,215.9C1884.4,210.4 1893,206.2 1902.2,203.6C1911.3,201 1920.7,199.7 1930.1,199.8C1938.9,199.8 1947.6,201 1956.1,203.4C1964.9,205.9 1973.2,209.8 1980.8,214.8C1989.3,220.5 1996.5,227.8 2002.1,236.3C2008.6,246.1 2013.2,257.1 2015.8,268.6C2018.2,278.9 2019.5,291.4 2019.4,306.1L2019.4,310.3L1876,310.3C1876.4,328.5 1882,343.7 1892.9,355.7C1902,366 1915.3,371.1 1932.7,371.1C1937.6,371.1 1942.5,370.5 1947.2,369.2C1951.7,368 1956.1,366.1 1960.1,363.6C1964,361.2 1967.5,358.2 1970.5,354.8C1973.6,351.4 1976.1,347.5 1978,343.4L2017.4,343.4C2011.4,358.5 2004.2,370.4 1995.7,379.1C1988,387.2 1978.7,393.6 1968.3,397.8C1962.2,400.4 1955.7,402.3 1949.2,403.5C1943.2,404.5 1937.1,405 1931,404.9C1901.8,404.9 1878.6,395.5 1861.4,376.8C1844.3,358.1 1835.8,332.7 1835.8,300.5ZM1978.5,282C1977.6,267.2 1972.4,255.4 1962.9,246.6C1953.7,238 1941.5,233.3 1928.9,233.6C1915.4,233.6 1904,238 1894.7,246.9C1885.1,255.9 1879.3,267.6 1877.2,282.1L1978.5,282Z" style="fill-rule:nonzero;"/>
                <path d="M2064.2,399.3L2064.2,205.1L2101.7,205.1L2101.7,232.5C2113.2,213.3 2130.4,203.7 2153.2,203.6C2157.7,203.6 2162.2,204 2166.7,204.8L2166.7,243C2163,242.5 2159.8,242.1 2157.1,241.8C2154.4,241.5 2152.2,241.4 2150.6,241.4C2132,241.4 2118.4,248.5 2109.6,262.6C2108.4,264.9 2107.4,267.2 2106.5,269.6C2105.6,272.1 2104.8,274.7 2104.2,277.3C2103.6,279.8 2103.1,282.3 2102.8,284.8C2102.5,287.2 2102.3,289.3 2102.1,291.2C2102,293.1 2101.9,295.2 2101.8,297.8C2101.7,300.4 2101.7,303.4 2101.7,306.7L2101.7,399.2L2064.2,399.3Z" style="fill-rule:nonzero;"/>
                <path d="M2202.1,399.3L2202.1,124L2239.6,124L2239.6,282.5L2316.3,205.2L2365.1,205.2L2274.5,294.6L2366.6,399.4L2314.7,399.4L2239.5,311.1L2239.5,399.4L2202.1,399.3Z" style="fill-rule:nonzero;"/>
                <path d="M1539.9,360.8C1539.9,373.5 1543.5,383.3 1550.8,390.2C1557.4,396.4 1566.2,399.8 1577.4,400.4L1577.4,124L1539.9,124L1539.9,360.8Z" style="fill-rule:nonzero;"/>
            </g>
        </g>
    </g>
</svg>
