<?xml version="1.0" encoding="UTF-8"?>
<svg xmlns="http://www.w3.org/2000/svg" viewBox="0 0 650 100.11">
  <defs>
    <style>
      .cls-1 {
        fill: #fff;
      }

      .cls-2 {
        fill: #702dbd;
      }

      .cls-3, .cls-4 {
        font-size: 4px;
      }

      .cls-4, .cls-5, .cls-6 {
        font-family: Poppins-Regular, Poppins;
      }

      .cls-7 {
        font-family: Poppins-SemiBold, Poppins;
        font-weight: 600;
      }

      .cls-6 {
        font-size: 7px;
      }

      .cls-8 {
        fill: #1d1d1b;
      }
    </style>
  </defs>
  <g id="Laag_1" data-name="Laag 1">
    <rect class="cls-8" y="18.2" width="650" height="2.5"/>
    <g>
      <g>
        <path class="cls-2" d="m190.5,37.4c-9.9,0-17.9-8-17.9-17.9S180.6,1.6,190.5,1.6s17.9,8,17.9,17.9-8,17.9-17.9,17.9Z"/>
        <path class="cls-1" d="m190.5,3c9.1,0,16.4,7.4,16.4,16.4s-7.4,16.4-16.4,16.4-16.4-7.4-16.4-16.4,7.3-16.4,16.4-16.4m0-3c-10.7,0-19.4,8.7-19.4,19.4s8.7,19.4,19.4,19.4,19.4-8.7,19.4-19.4S201.2,0,190.5,0h0Z"/>
      </g>
      <g>
        <path class="cls-1" d="m198.5,9.9c-.1-.1-.2-.1-.3-.1h-15.4c-.3,0-.5.2-.5.5v18.3c0,.3.2.5.5.5h15.4c.3,0,.5-.2.5-.5V10.3c-.1-.1-.1-.3-.2-.4Zm-15.2,18.3V10.7h14.4v17.4h-14.4v.1Z"/>
        <path class="cls-1" d="m196,11.9h-11.1c-.3,0-.5.2-.5.5v3.4c0,.3.2.5.5.5h11.1c.3,0,.5-.2.5-.5v-3.4c0-.1,0-.2-.1-.3s-.3-.2-.4-.2Zm-.4,1v2.5h-10.2v-2.5h10.2Z"/>
        <path class="cls-1" d="m189.2,23.9h-4.3c-.3,0-.5.2-.5.5v2.1c0,.3.2.5.5.5h4.3c.3,0,.5-.2.5-.5v-2.1c0-.3-.3-.5-.5-.5Zm-.5.9v1.2h-3.4v-1.2h3.4Z"/>
        <path class="cls-1" d="m189.4,17.5h-.9c-.3,0-.5.2-.5.5s.2.5.5.5h.9c.3,0,.5-.2.5-.5s-.2-.5-.5-.5Z"/>
        <path class="cls-1" d="m185.6,18.4h.9c.3,0,.5-.2.5-.5s-.2-.5-.5-.5h-.9c-.3,0-.5.2-.5.5s.2.5.5.5Z"/>
        <path class="cls-1" d="m192.4,17.5h-.9c-.3,0-.5.2-.5.5s.2.5.5.5h.9c.3,0,.5-.2.5-.5s-.3-.5-.5-.5Z"/>
        <path class="cls-1" d="m195.4,17.5h-.9c-.3,0-.5.2-.5.5s.2.5.5.5h.9c.3,0,.5-.2.5-.5-.1-.3-.3-.5-.5-.5Z"/>
        <path class="cls-1" d="m189.4,19.6h-.9c-.3,0-.5.2-.5.5s.2.5.5.5h.9c.3,0,.5-.2.5-.5s-.2-.5-.5-.5Z"/>
        <path class="cls-1" d="m185.6,20.5h.9c.3,0,.5-.2.5-.5s-.2-.5-.5-.5h-.9c-.3,0-.5.2-.5.5s.2.5.5.5Z"/>
        <path class="cls-1" d="m192.4,19.6h-.9c-.3,0-.5.2-.5.5s.2.5.5.5h.9c.3,0,.5-.2.5-.5s-.3-.5-.5-.5Z"/>
        <path class="cls-1" d="m195.4,19.6h-.9c-.3,0-.5.2-.5.5s.2.5.5.5h.9c.3,0,.5-.2.5-.5-.1-.3-.3-.5-.5-.5Z"/>
        <path class="cls-1" d="m189.4,21.8h-.9c-.3,0-.5.2-.5.5s.2.5.5.5h.9c.3,0,.5-.2.5-.5s-.2-.5-.5-.5Z"/>
        <path class="cls-1" d="m185.6,22.7h.9c.3,0,.5-.2.5-.5s-.2-.5-.5-.5h-.9c-.3,0-.5.2-.5.5s.2.5.5.5Z"/>
        <path class="cls-1" d="m192.4,21.8h-.9c-.3,0-.5.2-.5.5s.2.5.5.5h.9c.3,0,.5-.2.5-.5s-.3-.5-.5-.5Z"/>
        <path class="cls-1" d="m195.4,21.8h-.9c-.3,0-.5.2-.5.5s.2.5.5.5h.9c.3,0,.5-.2.5-.5-.1-.3-.3-.5-.5-.5Z"/>
        <path class="cls-1" d="m192.4,23.9h-.9c-.3,0-.5.2-.5.5s.2.5.5.5h.9c.3,0,.5-.2.5-.5s-.3-.5-.5-.5Z"/>
        <path class="cls-1" d="m195.4,23.9h-.9c-.3,0-.5.2-.5.5s.2.5.5.5h.9c.3,0,.5-.2.5-.5-.1-.3-.3-.5-.5-.5Z"/>
        <path class="cls-1" d="m192.4,26h-.9c-.3,0-.5.2-.5.5s.2.5.5.5h.9c.3,0,.5-.2.5-.5s-.3-.5-.5-.5Z"/>
        <path class="cls-1" d="m195.4,26h-.9c-.3,0-.5.2-.5.5s.2.5.5.5h.9c.3,0,.5-.2.5-.5-.1-.3-.3-.5-.5-.5Z"/>
      </g>
    </g>
    <g>
      <g>
        <path class="cls-2" d="m325,37.4c-9.9,0-17.9-8-17.9-17.9s8-17.9,17.9-17.9,17.9,8,17.9,17.9-8,17.9-17.9,17.9Z"/>
        <path class="cls-1" d="m325,3c9.1,0,16.4,7.4,16.4,16.4s-7.4,16.4-16.4,16.4-16.4-7.4-16.4-16.4,7.3-16.4,16.4-16.4m0-3c-10.7,0-19.4,8.7-19.4,19.4s8.7,19.4,19.4,19.4,19.4-8.7,19.4-19.4S335.7,0,325,0h0Z"/>
      </g>
      <path class="cls-1" d="m334.6,24l-5.2-5.2,4.4-4.4c.7-.7.9-1.7.7-2.6-.2-.9-1-1.7-1.9-1.9s-1.9,0-2.6.7l-4.4,4.4-5.2-5.2c-.1-.1-.2-.1-.3-.1s-.2,0-.3.1l-4.4,4.4c-.1.1-.1.2-.1.3s0,.2.1.3l5.2,5.2c-4.6,4.6-4.4,4.5-4.4,4.4-.1.1,0-.2-.9,4.2,0,.1,0,.2.1.3.1.1.2.1.3.1,0,0,4.1-.8,4.3-.9.1-.1,1.2-1.1,4.4-4.4,5.6,5.6,5.2,5.3,5.5,5.3.2,0-.1.3,4.7-4.6.1-.1.1-.2.1-.3s0,0-.1-.1h0Zm-14.6,3.1h0c-.1-.5-.4-1-.7-1.4l10.1-10.1,1,1.1-10.4,10.4Zm7.8-13.1l1,1-10,10.1h0c-.4-.3-.9-.6-1.4-.7l10.4-10.4Zm-11.4,13.2c.3.2.6.5.8.8l-1.1.2.3-1h0Zm1.7.6c-.3-.7-.9-1.2-1.5-1.5l.2-1.2c.6.1,1.2.4,1.7.8.5.5.7,1.1.8,1.7l-1.2.2Zm12.4-16.6c.4-.4.8-.5,1.3-.5s1,.2,1.3.5c.4.4.6.8.6,1.3,0,.9-.6,1.3-1.3,2.1l-2.6-2.6.7-.8Zm-1.2,1.3l2.7,2.7-.8.8-2.7-2.7.8-.8Zm-13,2.1l3.9-3.9.6.6-.5.5h0c-.2.2-.2.4,0,.6.2.2.4.2.6,0l.5-.5,1,1-1.3,1.3c-.2.2-.2.4,0,.6.2.2.4.2.6,0l1.3-1.3.8.8-.5.5h0c-.2.2-.2.4,0,.6.2.2.4.2.6,0l.5-.5.6.6-3.9,3.9-4.8-4.8h0Zm13.6,13.6l-4.9-4.9,3.9-3.9.6.6-1.3,1.3c-.1.1-.2.3-.1.4.1.2.2.2.4.2s.2,0,1.6-1.4l.8.8-.5.5h0c-.1.1-.2.3-.1.4.1.2.2.2.4.2s.3-.1.8-.6l1,1-1.3,1.3c-.1.1-.2.3-.1.4.1.2.2.2.4.2s.2,0,1.6-1.4l.6.6-3.8,4.3Z"/>
    </g>
    <g>
      <g>
        <path class="cls-2" d="m459.5,37.4c-9.9,0-17.9-8-17.9-17.9s8-17.9,17.9-17.9,17.9,8,17.9,17.9-8,17.9-17.9,17.9Z"/>
        <path class="cls-1" d="m459.5,3c9.1,0,16.4,7.4,16.4,16.4s-7.4,16.4-16.4,16.4-16.4-7.4-16.4-16.4,7.4-16.4,16.4-16.4m0-3c-10.7,0-19.4,8.7-19.4,19.4s8.7,19.4,19.4,19.4,19.4-8.7,19.4-19.4S470.3,0,459.5,0h0Z"/>
      </g>
      <g>
        <path class="cls-1" d="m466.1,15.7h1.2c.2,0,.4-.2.4-.4v-2.3c0-.2-.2-.4-.4-.4h-10.8c-.2,0-.4.2-.4.4v2.3c0,.2.2.4.4.4h1.2v10.1h-1.2c-.2,0-.4.2-.4.4v2.3c0,.2.2.4.4.4h10.8c.2,0,.4-.2.4-.4v-2.3c0-.2-.2-.4-.4-.4h-1.2v-10.1Zm-.8,4.7v.8h-7v-.8h7Zm-6.9-.8v-.8h7v.8h-7Zm6.9,2.3v.8h-7v-.8h7Zm0-3.8h-7v-.8h7v.8Zm-6.9,5.4h7v.8h-7v-.8Zm-1.6-10.1h10.1v1.6h-10.1v-1.6Zm8.5,2.3v.8h-7v-.8h7Zm1.6,12.4h-10.1v-1.5h10.1v1.5Zm-8.5-2.3v-.8h7v.8h-7Z"/>
        <path class="cls-1" d="m453.4,8c-1.1,0-1.9.9-1.9,1.9,0,.9,1.5,17.9,1.5,18.6,0,.2.2.4.4.4s.4-.2.4-.4c.1-.7,1.5-17.7,1.5-18.6,0-1-.9-1.9-1.9-1.9h0Zm0,16c-.5-6.1-1.2-13.6-1.2-14.1,0-.6.5-1.2,1.2-1.2s1.2.5,1.2,1.2c-.1.5-.7,8-1.2,14.1Z"/>
        <path class="cls-1" d="m453.4,9.5c-.2,0-.4.2-.4.4v1.5c0,.2.2.4.4.4s.4-.2.4-.4v-1.5c-.1-.2-.2-.4-.4-.4Z"/>
      </g>
    </g>
    <g>
      <g>
        <path class="cls-2" d="m594.1,37.4c-9.9,0-17.9-8-17.9-17.9s8-17.9,17.9-17.9,17.9,8,17.9,17.9-8,17.9-17.9,17.9Z"/>
        <path class="cls-1" d="m594.1,3c9.1,0,16.4,7.4,16.4,16.4s-7.4,16.4-16.4,16.4-16.4-7.4-16.4-16.4,7.3-16.4,16.4-16.4m0-3c-10.7,0-19.4,8.7-19.4,19.4s8.7,19.4,19.4,19.4,19.4-8.7,19.4-19.4-8.7-19.4-19.4-19.4h0Z"/>
      </g>
      <path class="cls-1" d="m603.5,10h-14.2c-.2,0-.3.1-.4.2l-4.7,4.7c-.1.1-.2.2-.2.4v13.1c0,.3.2.5.5.5h14.3c.1,0,.3-.1.4-.2l4.7-4.7c.1-.1.2-.2.2-.4v-13.1c-.1-.3-.3-.5-.6-.5h0Zm-4.9,4.7h-3.8l3.7-3.7h3.8l-3.7,3.7Zm-8.2,1.1h2.6v2.1h-2.6v-2.1Zm.7-1.1l3.7-3.7h2.2l-3.7,3.7h-2.2Zm-1.5-3.7h3.8l-3.7,3.7h-3.8l3.7-3.7Zm-4.4,4.8h4.2v2.6c0,.3.2.5.5.5h3.7c.3,0,.5-.2.5-.5v-2.6h4.2v12.1h-13.1v-12.1h0Zm14.1,11.3v-11.6l3.7-3.7v11.6l-3.7,3.7Z"/>
    </g>
    <g>
      <g>
        <path class="cls-2" d="m55.9,37.4c-9.9,0-17.9-8-17.9-17.9S46,1.6,55.9,1.6s17.9,8,17.9,17.9-8,17.9-17.9,17.9Z"/>
        <path class="cls-1" d="m55.9,3c9.1,0,16.4,7.4,16.4,16.4s-7.4,16.4-16.4,16.4-16.4-7.4-16.4-16.4S46.9,3,55.9,3m0-3c-10.7,0-19.4,8.7-19.4,19.4s8.7,19.4,19.4,19.4,19.4-8.7,19.4-19.4S66.7,0,55.9,0h0Z"/>
      </g>
      <path class="cls-1" d="m48.3,8.9c-.5,0-.9.5-.9,1v17.4c0,.5.4,1,.9,1h7.6l-.2,1.1c0,.2,0,.3.1.4s.3.2.4.1l2.8-.6c.1,0,.2-.1.2-.1l.9-.9h2.4c.5,0,.9-.5.9-1v-2.3l2.8-2.8c.4-.4.4-.9,0-1.3l-1.5-1.5c-.2-.2-.4-.3-.6-.3s-.5.1-.6.3l-7,7c-.07.07-.1.13-.1.2l-.2.8h-7.8V9.9h14.1v8c0,.1,0,.3.1.3.1.1.2.1.3.1s.3-.1.3-.1c.1-.1.1-.2.1-.3v-8c0-.5-.4-1-.9-1h-14.1Zm1.1,2.3c-.1,0-.2.1-.3.2-.1.1-.1.2-.1.3s.1.2.2.3c.1.1.2.1.3.1h3.7c.1,0,.3,0,.3-.1.1-.1.1-.2.1-.3s-.1-.3-.1-.3c-.1-.1-.2-.1-.3-.1l-3.8-.1c.1,0,0,0,0,0h0Zm0,2c-.1,0-.2.1-.3.2-.1.1-.1.2-.1.3s.1.2.2.3c.1.1.2.1.3.1h11.9c.1,0,.3,0,.3-.1.1-.1.1-.2.1-.3s-.1-.3-.1-.3c-.1-.1-.2-.1-.3-.1l-12-.1c.1,0,0,0,0,0h0Zm0,1.9c-.1,0-.2.1-.3.2-.1.1-.1.2-.1.3s.1.2.2.3c.1.1.2.1.3.1h11.9c.1,0,.3,0,.3-.1.1-.1.1-.2.1-.3s-.1-.3-.1-.3c-.1-.1-.2-.1-.3-.1l-12-.1c.1,0,0,0,0,0h0Zm0,2c-.1,0-.2.1-.3.2s-.1.2-.1.3.1.2.2.3c.1.1.2.1.3.1h11.9c.1,0,.3,0,.3-.1.1-.1.1-.2.1-.3s-.1-.3-.1-.3c-.1-.1-.2-.1-.3-.1l-12-.1c.1,0,0,0,0,0h0Zm0,2c-.1,0-.2.1-.3.2s-.1.2-.1.3.1.2.2.3c.1.1.2.1.3.1h11.9c.1,0,.3,0,.3-.1.1-.1.1-.2.1-.3s-.1-.3-.1-.3c-.1-.1-.2-.1-.3-.1l-12-.1c.1,0,0,0,0,0h0Zm14.7,1l1.5,1.5-6.6,6.5-1.5-1.5,6.6-6.5Zm-14.7.9c-.1,0-.2.1-.3.2s-.1.2-.1.3.1.2.2.3c.1.1.2.1.3.1h9.2c.1,0,.3,0,.3-.1.1-.1.1-.2.1-.3s-.1-.3-.1-.3c-.1-.1-.2-.2-.4-.2h-9.2c.1,0,0,0,0,0h0Zm0,2c-.1,0-.2.1-.3.2s-.1.2-.1.3.1.2.2.3c.1.1.2.1.3.1h8.2c.1,0,.3,0,.3-.1.1-.1.1-.2.1-.3s-.1-.3-.1-.3c-.1-.2-.2-.2-.4-.2h-8.2c.1,0,0,0,0,0h0Zm0,2c-.1,0-.2.1-.3.2s-.1.2-.1.3.1.2.2.3c.1.1.2.1.3.1h3.7c.1,0,.3,0,.3-.1.1-.1.1-.2.1-.3s-.1-.3-.1-.3c-.1-.2-.3-.2-.4-.2h-3.7c.1,0,0,0,0,0h0Zm13.1.9v1.5h-1.4l1.4-1.5Zm-5.5,1.6l1,1-1.4.3.4-1.3Z"/>
    </g>
  </g>
  <g id="Layer_2" data-name="Layer 2">
    <text class="cls-6" transform="translate(33.25 59.34)"><tspan x="0" y="0">MELDET EUCH</tspan></text>
    <text class="cls-6" transform="translate(141.98 59.34)"><tspan x="0" y="0">EIN RICHTIG GUTES ANGEBOT</tspan></text>
    <text class="cls-6" transform="translate(271.84 59.34)"><tspan x="0" y="0">DEINE MARKE, UNSERE DESIGNER</tspan></text>
    <text class="cls-6" transform="translate(527.37 59.34)"><tspan x="0" y="0">ENDLICH FERTIG: DIE AUSLIEFERUNG</tspan></text>
    <text class="cls-6" transform="translate(416.26 59.34)"><tspan x="0" y="0">DIE PRODUKTION BEGINNT</tspan></text>
    <text class="cls-3" transform="translate(14.47 73.82)"><tspan class="cls-5"><tspan x="0" y="0">Wir sind immer wieder begeistert von den </tspan></tspan><tspan class="cls-5"><tspan x="-2.69" y="4.8">großartigen Ideen unserer Kund:innen - was </tspan></tspan><tspan class="cls-5"><tspan x="-7.43" y="9.6">können wir für euch und eure Company tun? Teilt </tspan></tspan><tspan class="cls-5" x="-4.58" y="14.4">es uns mit, </tspan><tspan class="cls-7" x="17.75" y="14.4">unser Team meldet sich binnen 24 </tspan><tspan class="cls-7" x="-9.04" y="19.2">Stunden bei euch</tspan><tspan class="cls-5" x="26.42" y="19.2" xml:space="preserve"> zurück und wir planen ein erstes, </tspan><tspan class="cls-5"><tspan x="18.14" y="24">persönliches Gespräch.</tspan></tspan></text>
    <text class="cls-4" transform="translate(140.79 73.82)"><tspan x="0" y="0">Sobald wir wissen, was euch in Sachen Company </tspan><tspan x="2.84" y="4.8">Fashion vorschwebt, kalkulieren wir die Kosten. </tspan><tspan x="4.41" y="9.6">Unser Ansatz: Fairness first. Sowohl in Sachen </tspan><tspan x=".42" y="14.4">Sourcing und Produktion als auch in puncto Preis </tspan><tspan x="35.96" y="19.2">und Leistung.</tspan></text>
    <text class="cls-4" transform="translate(274.96 73.82)"><tspan x="0" y="0">Basierend auf eurem Corporate Design beginnen </tspan><tspan x="4.09" y="4.8">wir mit dem individuellen Design eurer neuen </tspan><tspan x="3.67" y="9.6">Company Fashion. Das Ergebnis bekommt ihr </tspan><tspan x="-1.01" y="14.4">schon nach kurzer Zeit in 3D zu sehen - schließlich </tspan><tspan x="31.76" y="19.2">zählt jedes Detail.</tspan></text>
    <text class="cls-4" transform="translate(419.02 73.82)"><tspan x="0" y="0">Unsere Qualitätssicherung arbeitet nach </tspan><tspan x="-1.34" y="4.8">strengsten Standards und überwacht den </tspan><tspan x="-9.46" y="9.6">gesamten Produktionsprozess. Unsere langjährige </tspan><tspan x="-10.38" y="14.4">Erfahrung und unsere Liebe zu Textilien garantieren </tspan><tspan x="-6.2" y="19.2">ein exzellentes Endprodukt, das auch in puncto </tspan><tspan x="14.96" y="24">Nachhaltigkeit überzeugt.</tspan></text>
    <text class="cls-4" transform="translate(544.31 73.82)"><tspan x="0" y="0">Nachdem wir sichergestellt haben, dass alle eure </tspan><tspan x="4.96" y="4.8">Kleidungsstücke einwandfrei hergestellt und </tspan><tspan x=".77" y="9.6">verpackt sind, bringen wir die Ware auf den Weg </tspan><tspan x="-1.09" y="14.4">zu euch. Dank Trackingnummer seid ihr immer auf </tspan><tspan x="-1.65" y="19.2">dem letzten Stand und haltet eure Kollektion schon </tspan><tspan x="28.99" y="24">bald in den Händen.</tspan></text>
  </g>
</svg>