<svg id="Group_113" data-name="Group 113" xmlns="http://www.w3.org/2000/svg" xmlns:xlink="http://www.w3.org/1999/xlink" width="81.045" height="76.509" viewBox="0 0 81.045 76.509">
  <defs>
    <clipPath id="clip-path">
      <rect id="Rectangle_451" data-name="Rectangle 451" width="81.045" height="76.509" fill="none"/>
    </clipPath>
  </defs>
  <g id="Group_112" data-name="Group 112" clip-path="url(#clip-path)">
    <path id="Path_56" data-name="Path 56" d="M0,62.521a31.852,31.852,0,0,1,1.178-3.738,10.818,10.818,0,0,1,4.745-4.924q6.244-3.567,12.461-7.181a3.6,3.6,0,0,0,1-.863Q29.464,33.03,39.51,20.217c1.266-1.619,2.768-2.582,4.87-2.276a4.758,4.758,0,0,1,3.535,2.52c1.746,3.034,3.521,6.051,5.234,9.1a1.222,1.222,0,0,0,1.364.728c1.629-.141,3.264-.2,4.895-.321a1.886,1.886,0,0,1,1.937,1.069q1.4,2.475,2.847,4.92a1.869,1.869,0,0,1-.085,2.205c-.921,1.348-1.783,2.736-2.721,4.071a1.149,1.149,0,0,0-.062,1.458c1.64,2.76,3.264,5.531,4.827,8.335A4.733,4.733,0,0,1,62.7,59.124c-2.05.359-4.089.775-6.132,1.174Q44.7,62.613,32.839,64.934c-.231.045-.458.111-.8.195.581,1.011,1.139,1.985,1.7,2.957.872,1.515.688,2.2-.832,3.076l-3.519,2.033c1.546,2.675,3.058,5.294,4.573,7.909a6.274,6.274,0,0,1,.5,5.895,6.01,6.01,0,0,1-4.894,3.782,6.063,6.063,0,0,1-5.876-2.347,10.508,10.508,0,0,1-.87-1.315q-3.586-6.18-7.159-12.368c-.143-.248-.3-.491-.4-.671a29.621,29.621,0,0,1-3.618.593A10.96,10.96,0,0,1,.147,65.4,1.7,1.7,0,0,0,0,65.049V62.521m39.638-37.4c-.1.166-.153.262-.218.345q-8.571,10.9-17.155,21.8a.717.717,0,0,0-.008.967q3.885,6.691,7.74,13.4a.766.766,0,0,0,.983.454C37.337,60.827,43.7,59.6,50.059,58.355c2.606-.509,5.21-1.028,7.9-1.559L39.638,25.125M19.46,49.719c-.891.512-1.691.968-2.487,1.43-3.437,1.994-6.924,3.908-10.294,6.009a7.7,7.7,0,0,0-3.147,8.86,7.921,7.921,0,0,0,11.622,4.414c3.758-2.122,7.482-4.3,11.221-6.46.317-.183.631-.372.991-.584L19.46,49.719m44.178,4.494a8.326,8.326,0,0,0-.427-.95Q54.249,37.744,45.272,22.234a4.087,4.087,0,0,0-.487-.715,1.541,1.541,0,0,0-2.078-.168c-.851.665-.954,1.1-.465,1.946q1.6,2.769,3.2,5.537,7.706,13.327,15.415,26.651c.128.221.262.52.466.6a1.915,1.915,0,0,0,2.317-1.875M17.991,72.457c1.995,3.448,3.929,6.794,5.866,10.138.712,1.229,1.392,2.477,2.153,3.675a3.091,3.091,0,0,0,3.368,1.357,3.191,3.191,0,0,0,2.39-2.563,3.561,3.561,0,0,0-.6-2.471q-3.363-5.8-6.716-11.607c-.314-.544-.633-1.085-.983-1.685l-5.48,3.157M59.153,39.9c.643-.972,1.236-1.833,1.781-2.724a.763.763,0,0,0-.072-.622c-.545-.989-1.115-1.965-1.692-2.936-.1-.167-.28-.415-.417-.411-1.083.032-2.165.116-3.363.191l3.763,6.5m-30.2,26.233-2.733,1.586L27.8,70.446l2.732-1.578-1.582-2.733" transform="translate(0 -14.346)"/>
    <path id="Path_57" data-name="Path 57" d="M361.044,35.73a8.083,8.083,0,0,1-1.351,1.253c-2.572,1.481-5.18,2.9-7.776,4.342a4.844,4.844,0,0,1-.706.347,1.559,1.559,0,0,1-1.918-.659,1.45,1.45,0,0,1,.446-2.02c3.029-1.739,6.078-3.444,9.159-5.089.826-.441,1.525-.011,2.146,1.035Z" transform="translate(-279.999 -27.059)"/>
    <path id="Path_58" data-name="Path 58" d="M354.055,109.284l1.659.441c1.447.384,2.9.747,4.338,1.158a1.574,1.574,0,1,1-.808,3.031c-1.934-.492-3.864-1-5.786-1.535a1.593,1.593,0,0,1-1.32-1.854c.162-.8.807-1.282,1.918-1.242" transform="translate(-282.436 -87.658)"/>
    <path id="Path_59" data-name="Path 59" d="M310,0a1.549,1.549,0,0,1,1.694,1.773c-.507,2.141-1.079,4.269-1.7,6.382a1.479,1.479,0,0,1-1.883,1.008,1.432,1.432,0,0,1-1.087-1.754c.515-2.164,1.116-4.309,1.726-6.449A1.4,1.4,0,0,1,310,0" transform="translate(-246.242 0)"/>
    <path id="Path_60" data-name="Path 60" d="M38.922,252.449a4.88,4.88,0,0,1-4.33-2.2,1.561,1.561,0,0,1,2.482-1.895c1.037,1.126,1.475,1.2,2.8.436.685-.393,1.36-.8,2.056-1.178a1.613,1.613,0,0,1,2.337.513,1.59,1.59,0,0,1-.751,2.208c-.971.579-1.95,1.156-2.97,1.64a8.8,8.8,0,0,1-1.624.481" transform="translate(-27.496 -198.391)"/>
    <path id="Path_61" data-name="Path 61" d="M99.264,231.371a1.538,1.538,0,1,1-1.594,1.508,1.536,1.536,0,0,1,1.594-1.508" transform="translate(-78.344 -185.591)"/>
  </g>
</svg>
