<svg xmlns="http://www.w3.org/2000/svg" xmlns:xlink="http://www.w3.org/1999/xlink" width="69" height="76" viewBox="0 0 69 76">
  <defs>
    <clipPath id="clip-path">
      <rect id="Rectangle_453" data-name="Rectangle 453" width="69" height="76" transform="translate(-0.036 0)" fill="none"/>
    </clipPath>
  </defs>
  <g id="Group_117" data-name="Group 117" transform="translate(-0.018 0.184)">
    <g id="Group_116" data-name="Group 116" transform="translate(0.055 -0.184)" clip-path="url(#clip-path)">
      <path id="Path_65" data-name="Path 65" d="M.892,143.492c-.558-.347-1-.765-.78-1.5.226-.765.826-.88,1.523-.88,15.858.007,48.175,0,64.032,0h.923v-3.57H1.781c-1.224,0-1.77-.361-1.78-1.174s.541-1.2,1.748-1.205H26.213V100.695H19.133v.854c0,5.552,0,28.357,0,33.909a3.7,3.7,0,0,1-.026.741,1.156,1.156,0,0,1-1.136.991,1.176,1.176,0,0,1-1.192-1.013,4.333,4.333,0,0,1-.019-.668c0-6.1,0-29.448,0-35.545,0-1.327.352-1.684,1.657-1.685q4.231,0,8.461,0c1.425,0,1.757.328,1.757,1.735q0,17.1,0,34.2v.909h4.751V134.2q0-20.634,0-41.269c0-1.471.317-1.79,1.776-1.79q4.23,0,8.461,0c1.265,0,1.637.37,1.637,1.631q0,20.709,0,41.417v.928H50.01V85.82c0-1.517.3-1.82,1.82-1.82q4.193,0,8.386,0c1.312,0,1.668.358,1.668,1.675q0,24.2,0,48.407c0,.321,0,.642,0,1.081H63.06c1.41,0,2.821.033,4.23-.014a1.819,1.819,0,0,1,1.721.757v7.585Zm51.547-8.364h7.033V86.411H52.438Zm-9.6-41.551H35.8v41.551h7.038Z" transform="translate(-0.05 -67.173)"/>
      <path id="Path_66" data-name="Path 66" d="M76.145,0A2,2,0,0,1,76.9,1.8c-.031,3.172-.013,6.345-.013,9.518,0,.05,0,.1,0,.149,0,1.058-.43,1.626-1.208,1.612-.755-.014-1.165-.563-1.166-1.578q0-3.272,0-6.544V4.1c-.284.247-.466.4-.637.555A115.528,115.528,0,0,1,49.507,22.494a61.316,61.316,0,0,1-18.028,6.577c-1.748.315-3.526.474-5.3.652-.931.094-1.5-.364-1.543-1.1s.492-1.208,1.412-1.265a49.59,49.59,0,0,0,16.916-4.388A96.751,96.751,0,0,0,64.8,9.325c2.691-2.173,5.276-4.477,7.909-6.721l-.087-.179c-.205-.015-.411-.044-.616-.044-2.177,0-4.354-.012-6.531,0-.686,0-1.3-.074-1.574-.82-.263-.721.2-1.15.668-1.565Z" transform="translate(-19.802 0.169)"/>
      <path id="Path_67" data-name="Path 67" d="M10.156,188.4H3.029v.808c0,2.229,0,25.676,0,27.9,0,.93-.449,1.486-1.179,1.491s-1.191-.552-1.193-1.476c0-2.823-.006-26.865,0-29.687,0-1.019.426-1.443,1.444-1.445q4.485-.009,8.971,0c1.021,0,1.452.425,1.455,1.436.007,2.848.007,26.914,0,29.762,0,.864-.474,1.409-1.184,1.41s-1.183-.545-1.185-1.408c-.007-2.5,0-26.216,0-28.8" transform="translate(-0.573 -148.937)"/>
    </g>
  </g>
</svg>
