<svg width="28" height="29" viewBox="0 0 28 29" fill="none" xmlns="http://www.w3.org/2000/svg">
<path d="M7.875 7.40625C8.35825 7.40625 8.75 7.0145 8.75 6.53125C8.75 6.048 8.35825 5.65625 7.875 5.65625C7.39175 5.65625 7 6.048 7 6.53125C7 7.0145 7.39175 7.40625 7.875 7.40625Z" fill="#FF6192"/>
<path d="M23.625 19.7788V16.1563C23.625 15.6921 23.4406 15.247 23.1124 14.9188C22.7843 14.5906 22.3391 14.4063 21.875 14.4063H14.875V10.9063H22.75C23.2141 10.9063 23.6593 10.7219 23.9874 10.3937C24.3156 10.0655 24.5 9.62038 24.5 9.15625V3.90625C24.5 3.44212 24.3156 2.997 23.9874 2.66881C23.6593 2.34062 23.2141 2.15625 22.75 2.15625H5.25001C4.78588 2.15625 4.34076 2.34062 4.01257 2.66881C3.68438 2.997 3.50001 3.44212 3.50001 3.90625V9.15625C3.50001 9.62038 3.68438 10.0655 4.01257 10.3937C4.34076 10.7219 4.78588 10.9063 5.25001 10.9063H13.125V14.4063H6.12501C5.66088 14.4063 5.21576 14.5906 4.88757 14.9188C4.55938 15.247 4.37501 15.6921 4.37501 16.1563V19.7788C3.55018 19.9917 2.83134 20.4982 2.35323 21.2033C1.87512 21.9083 1.67056 22.7635 1.7779 23.6086C1.88524 24.4537 2.29711 25.2306 2.9363 25.7938C3.5755 26.3569 4.39813 26.6676 5.25001 26.6676C6.10188 26.6676 6.92452 26.3569 7.56371 25.7938C8.2029 25.2306 8.61477 24.4537 8.72211 23.6086C8.82945 22.7635 8.6249 21.9083 8.14678 21.2033C7.66867 20.4982 6.94983 19.9917 6.12501 19.7788V16.1563H13.125V19.6563H10.5V26.6563H17.5V19.6563H14.875V16.1563H21.875V19.7788C21.0502 19.9917 20.3313 20.4982 19.8532 21.2033C19.3751 21.9083 19.1706 22.7635 19.2779 23.6086C19.3852 24.4537 19.7971 25.2306 20.4363 25.7938C21.0755 26.3569 21.8981 26.6676 22.75 26.6676C23.6019 26.6676 24.4245 26.3569 25.0637 25.7938C25.7029 25.2306 26.1148 24.4537 26.2221 23.6086C26.3295 22.7635 26.1249 21.9083 25.6468 21.2033C25.1687 20.4982 24.4498 19.9917 23.625 19.7788ZM7.00001 23.1563C7.00001 23.5024 6.89737 23.8407 6.70508 24.1285C6.51279 24.4163 6.23947 24.6406 5.9197 24.773C5.59993 24.9055 5.24807 24.9401 4.9086 24.8726C4.56913 24.8051 4.25731 24.6384 4.01257 24.3937C3.76783 24.1489 3.60116 23.8371 3.53363 23.4977C3.46611 23.1582 3.50077 22.8063 3.63322 22.4866C3.76567 22.1668 3.98997 21.8935 4.27776 21.7012C4.56555 21.5089 4.90389 21.4063 5.25001 21.4063C5.71414 21.4063 6.15926 21.5906 6.48744 21.9188C6.81563 22.247 7.00001 22.6921 7.00001 23.1563ZM15.75 21.4063V24.9063H12.25V21.4063H15.75ZM5.25001 9.15625V3.90625H22.75V9.15625H5.25001ZM22.75 24.9063C22.4039 24.9063 22.0655 24.8036 21.7778 24.6113C21.49 24.419 21.2657 24.1457 21.1332 23.8259C21.0008 23.5062 20.9661 23.1543 21.0336 22.8148C21.1012 22.4754 21.2678 22.1636 21.5126 21.9188C21.7573 21.6741 22.0691 21.5074 22.4086 21.4399C22.7481 21.3724 23.0999 21.407 23.4197 21.5395C23.7395 21.6719 24.0128 21.8962 24.2051 22.184C24.3974 22.4718 24.5 22.8101 24.5 23.1563C24.5 23.6204 24.3156 24.0655 23.9874 24.3937C23.6593 24.7219 23.2141 24.9063 22.75 24.9063Z" fill="#FF6192"/>
</svg>
