<svg width="28" height="29" viewBox="0 0 28 29" fill="none" xmlns="http://www.w3.org/2000/svg">
<path d="M5.25 4.88623C5.25 4.65417 5.15781 4.43161 4.99372 4.26751C4.82962 4.10342 4.60706 4.01123 4.375 4.01123C4.14294 4.01123 3.92038 4.10342 3.75628 4.26751C3.59219 4.43161 3.5 4.65417 3.5 4.88623V21.2196C3.5 22.2252 3.89948 23.1896 4.61055 23.9007C5.32163 24.6118 6.28605 25.0112 7.29167 25.0112H23.625C23.8571 25.0112 24.0796 24.919 24.2437 24.755C24.4078 24.5909 24.5 24.3683 24.5 24.1362C24.5 23.9042 24.4078 23.6816 24.2437 23.5175C24.0796 23.3534 23.8571 23.2612 23.625 23.2612H7.29167C6.75018 23.2612 6.23088 23.0461 5.84799 22.6632C5.4651 22.2804 5.25 21.761 5.25 21.2196V4.88623ZM17.2083 7.51123C16.9763 7.51123 16.7537 7.60342 16.5896 7.76751C16.4255 7.93161 16.3333 8.15417 16.3333 8.38623C16.3333 8.6183 16.4255 8.84086 16.5896 9.00495C16.7537 9.16904 16.9763 9.26123 17.2083 9.26123H20.93L15.4583 14.7329L13.16 12.4346C12.9959 12.2707 12.7735 12.1787 12.5417 12.1787C12.3098 12.1787 12.0874 12.2707 11.9233 12.4346L7.54833 16.8096C7.46237 16.8897 7.39341 16.9863 7.34559 17.0936C7.29777 17.2009 7.27205 17.3168 7.26998 17.4343C7.2679 17.5518 7.28952 17.6685 7.33352 17.7774C7.37753 17.8864 7.44303 17.9854 7.52612 18.0684C7.60921 18.1515 7.70818 18.217 7.81714 18.261C7.92609 18.305 8.04279 18.3267 8.16028 18.3246C8.27776 18.3225 8.39363 18.2968 8.50096 18.249C8.60829 18.2012 8.7049 18.1322 8.785 18.0462L12.5417 14.2896L14.84 16.5879C15.0041 16.7518 15.2265 16.8438 15.4583 16.8438C15.6902 16.8438 15.9126 16.7518 16.0767 16.5879L22.169 10.4979V14.2254C22.169 14.4575 22.2612 14.68 22.4253 14.8441C22.5894 15.0082 22.8119 15.1004 23.044 15.1004C23.2761 15.1004 23.4986 15.0082 23.6627 14.8441C23.8268 14.68 23.919 14.4575 23.919 14.2254V8.38623C23.919 8.15417 23.8268 7.93161 23.6627 7.76751C23.4986 7.60342 23.2761 7.51123 23.044 7.51123H17.2083Z" fill="#FF6192"/>
</svg>
