<svg width="28" height="27" viewBox="0 0 28 27" fill="none" xmlns="http://www.w3.org/2000/svg">
<path d="M21.5 21.0112C24.2614 21.0112 26.5 16.5341 26.5 11.0112C26.5 5.48838 24.2614 1.01123 21.5 1.01123C18.7386 1.01123 16.5 5.48838 16.5 11.0112C16.5 16.5341 18.7386 21.0112 21.5 21.0112Z" stroke="#FF6192" stroke-width="1.8" stroke-linecap="round" stroke-linejoin="round"/>
<path d="M21.5 1.01123C17.6213 1.01123 9.58125 3.98373 4.96375 5.82873C2.84875 6.67373 1.5 8.73373 1.5 11.0112C1.5 13.2887 2.85 15.3487 4.96375 16.1937C9.58125 18.0387 17.6213 21.0112 21.5 21.0112M12.75 26.0112L10.3213 24.6737C9.0246 23.9561 7.97283 22.8663 7.3017 21.545C6.63058 20.2237 6.37092 18.7316 6.55625 17.2612" stroke="#FF6192" stroke-width="1.8" stroke-linecap="round" stroke-linejoin="round"/>
</svg>
