<svg width="28" height="29" viewBox="0 0 28 29" fill="none" xmlns="http://www.w3.org/2000/svg">
<path d="M27.7436 17.2876L25.1186 14.6626C24.9545 14.4986 24.732 14.4064 24.5 14.4064C24.268 14.4064 24.0455 14.4986 23.8814 14.6626L15.75 22.794V26.6562H19.6122L27.7436 18.5249C27.9077 18.3608 27.9998 18.1383 27.9998 17.9062C27.9998 17.6742 27.9077 17.4517 27.7436 17.2876ZM18.8878 24.9062H17.5V23.5185L21.875 19.1435L23.2628 20.5312L18.8878 24.9062ZM24.5 19.294L23.1122 17.9062L24.5 16.5185L25.8878 17.9062L24.5 19.294ZM14 19.6562C11.0565 19.6562 8.75 17.3498 8.75 14.4062C8.75 11.4627 11.0565 9.15625 14 9.15625C16.9435 9.15625 19.25 11.4627 19.25 14.4062C19.25 17.3498 16.9435 19.6562 14 19.6562ZM14 10.9062C12.005 10.9062 10.5 12.4113 10.5 14.4062C10.5 16.4012 12.005 17.9062 14 17.9062C15.995 17.9062 17.5 16.4012 17.5 14.4062C17.5 12.4113 15.995 10.9062 14 10.9062Z" fill="#FF6192"/>
<path d="M24.1038 10.9062L25.6202 10.0312L23.5762 6.49275C23.3738 6.14247 23.0564 5.87311 22.6778 5.73049C22.2993 5.58787 21.883 5.58081 21.4998 5.7105L19.3701 6.43063C19.0031 6.18342 18.6195 5.96181 18.2221 5.76738L17.7819 3.56238C17.7024 3.16567 17.4879 2.80878 17.1749 2.55241C16.8619 2.29604 16.4698 2.15605 16.0652 2.15625H11.9352C11.5305 2.15609 11.1382 2.29621 10.8252 2.55275C10.5122 2.80929 10.2978 3.16639 10.2184 3.56325L9.77832 5.76738C9.37582 5.96338 8.98557 6.17775 8.61719 6.42625L6.49969 5.7105C6.11652 5.58081 5.70024 5.58787 5.32169 5.73049C4.94313 5.87311 4.62567 6.14247 4.42332 6.49275L2.35832 10.0697C2.15613 10.4201 2.08156 10.8297 2.14728 11.2288C2.21301 11.6279 2.41497 11.992 2.71882 12.259L4.40844 13.7439C4.39357 13.9644 4.37519 14.1831 4.37519 14.4062C4.37519 14.632 4.38336 14.8554 4.39969 15.0765L2.71969 16.5535C2.4157 16.8204 2.21357 17.1844 2.14769 17.5835C2.0818 17.9827 2.15623 18.3923 2.35832 18.7428L4.42332 22.3197C4.6257 22.6702 4.94331 22.9397 5.32206 23.0823C5.7008 23.225 6.11728 23.2319 6.50057 23.102L8.63032 22.3819C8.99607 22.6286 9.37874 22.8497 9.77832 23.0451L10.2184 25.2493C10.2978 25.6461 10.5122 26.0032 10.8252 26.2598C11.1382 26.5163 11.5305 26.6564 11.9352 26.6562H14.0002V24.9062H11.9352L11.3139 21.8C10.4546 21.4807 9.65681 21.0153 8.95582 20.4245L5.93969 21.4447L3.87469 17.8677L6.25907 15.7721C6.09546 14.8673 6.09339 13.9407 6.25294 13.0351L3.87382 10.9439L5.93969 7.36775L8.93832 8.38275C9.64395 7.79057 10.448 7.32679 11.3139 7.0125L11.9352 3.90625H16.0661L16.6873 7.0125C17.5467 7.33183 18.3444 7.79717 19.0454 8.388L22.0616 7.36775L24.1038 10.9062Z" fill="#FF6192"/>
</svg>
