<svg width="28" height="29" viewBox="0 0 28 29" fill="none" xmlns="http://www.w3.org/2000/svg">
<path d="M24.5612 11.7605C23.3439 11.0977 21.7077 10.6208 19.9062 10.3966V9.59375C19.9062 8.26813 18.8584 7.06719 16.9531 6.21078C15.2206 5.42984 12.9281 5 10.5 5C8.07188 5 5.77938 5.42984 4.04688 6.21078C2.14156 7.06719 1.09375 8.26813 1.09375 9.59375V13.9688C1.09375 15.2944 2.14156 16.4953 4.04688 17.3517C5.19422 17.868 6.58547 18.2267 8.09375 18.4159V19.2188C8.09375 20.5444 9.14156 21.7453 11.0469 22.6017C12.7794 23.3827 15.0719 23.8125 17.5 23.8125C19.9281 23.8125 22.2206 23.3827 23.9531 22.6017C25.8552 21.7453 26.9062 20.5444 26.9062 19.2188V14.8438C26.9062 13.6789 26.0739 12.5841 24.5612 11.7605ZM23.9334 12.9133C25.0042 13.4963 25.5938 14.1875 25.5938 14.8438C25.5938 16.3958 22.2698 18.125 17.5 18.125C16.7244 18.1255 15.9495 18.0765 15.1802 17.9784C15.7865 17.8157 16.3792 17.6061 16.9531 17.3517C18.8552 16.4953 19.9062 15.2944 19.9062 13.9688V11.7189C21.4813 11.93 22.8922 12.3456 23.9334 12.9133ZM11.83 17.2041C11.4013 17.2336 10.955 17.25 10.5 17.25C9.92031 17.25 9.3625 17.2238 8.82875 17.1767C8.81529 17.1755 8.80174 17.1755 8.78828 17.1767C8.39672 17.1406 8.02266 17.0925 7.65625 17.0345V13.9819C8.59787 14.1198 9.54833 14.1886 10.5 14.1875C11.4517 14.1886 12.4021 14.1198 13.3438 13.9819V17.0313C12.8691 17.1067 12.3692 17.1647 11.8464 17.2019L11.83 17.2041ZM18.5938 11.988V13.9688C18.5938 15.0122 17.0898 16.1344 14.6562 16.7589V13.7336C15.4444 13.5557 16.2136 13.3022 16.9531 12.9767C17.5414 12.7212 18.0931 12.3888 18.5938 11.988ZM10.5 6.3125C15.2698 6.3125 18.5938 8.04172 18.5938 9.59375C18.5938 11.1458 15.2698 12.875 10.5 12.875C5.73016 12.875 2.40625 11.1458 2.40625 9.59375C2.40625 8.04172 5.73016 6.3125 10.5 6.3125ZM2.40625 13.9688V11.988C2.90717 12.3872 3.45886 12.7182 4.04688 12.9723C4.78641 13.2978 5.55559 13.5513 6.34375 13.7292V16.7545C3.91016 16.1344 2.40625 15.0122 2.40625 13.9688ZM9.40625 19.2188V18.5319C9.76719 18.5516 10.1314 18.5625 10.5 18.5625C10.9309 18.5625 11.356 18.549 11.7753 18.522C12.2883 18.7072 12.8121 18.8609 13.3438 18.9825V22.0089C10.9102 21.3844 9.40625 20.2622 9.40625 19.2188ZM14.6562 22.2813V19.2297C15.5978 19.3684 16.5483 19.4378 17.5 19.4375C18.4517 19.4386 19.4021 19.3698 20.3438 19.2319V22.2813C18.4591 22.5729 16.5409 22.5729 14.6562 22.2813ZM21.6562 22.0089V18.9836C22.4444 18.8057 23.2136 18.5522 23.9531 18.2267C24.5411 17.9726 25.0928 17.6416 25.5938 17.2423V19.2188C25.5938 20.2622 24.0898 21.3844 21.6562 22.0089Z" fill="#FF6192"/>
</svg>
