<svg id="Group_109" data-name="Group 109" xmlns="http://www.w3.org/2000/svg" xmlns:xlink="http://www.w3.org/1999/xlink" width="127.642" height="69.319" viewBox="0 0 127.642 69.319">
  <defs>
    <clipPath id="clip-path">
      <rect id="Rectangle_442" data-name="Rectangle 442" width="127.642" height="69.319" fill="none"/>
    </clipPath>
  </defs>
  <g id="Group_108" data-name="Group 108" clip-path="url(#clip-path)">
    <path id="Path_42" data-name="Path 42" d="M20.078,44.98H17.439q-5.807,0-11.613,0c-.375,0-.751.014-1.124-.015a2,2,0,0,1-2.084-2.014A2.033,2.033,0,0,1,4.81,40.9c1.247-.04,2.5-.01,3.746-.01q10.239,0,20.477.005a5.509,5.509,0,0,1,1.479.129,1.879,1.879,0,0,1,1.471,2.051A1.791,1.791,0,0,1,30.26,44.9c-1.45.089-2.909.062-4.364.081-.572.007-1.146,0-1.735,0V56.311h6.654c2.5,0,4.995-.022,7.491.014a1.1,1.1,0,0,0,1.306-.931,10.965,10.965,0,0,1,21.125-.033c.2.672.4.966,1.143.964q13.734-.034,27.468-.019c.2,0,.4-.041.715-.076V4.214h-65.9v6h1.3q4.745,0,9.489,0a5.625,5.625,0,0,1,1.241.089,1.885,1.885,0,0,1,1.636,1.909A1.913,1.913,0,0,1,36.2,14.257a5.121,5.121,0,0,1-1.239.081q-11.3.005-22.6,0c-.208,0-.416.007-.624,0a2.184,2.184,0,0,1-2.323-2.1,2.125,2.125,0,0,1,2.285-2c2.289-.046,4.577-.015,6.866-.017h1.515c0-2.046-.005-3.99,0-5.931.012-2.9,1.364-4.275,4.289-4.277q32.777-.013,65.551,0c2.947,0,4.331,1.436,4.335,4.4.005,4.361,0,8.723,0,13.249h1.412c4.287,0,8.574.014,12.86-.005a5.3,5.3,0,0,1,5.007,2.883q5.307,9.526,10.623,19.046a12.46,12.46,0,0,1,1.6,6.325c-.043,3.577,0,7.156-.015,10.735-.009,2.261-1.407,3.794-3.634,3.651-2.2-.143-3.507.218-4.411,2.679-1.543,4.2-6.1,6.629-10.508,6.323a10.99,10.99,0,0,1-9.826-7.948c-.235-.82-.553-1.026-1.345-1.024q-16.979.031-33.961,0c-.773,0-1.113.165-1.354,1.007A10.945,10.945,0,0,1,39.62,61.28a1.092,1.092,0,0,0-1.271-.964c-5.244.031-10.488.019-15.732.014-1.878,0-2.533-.656-2.536-2.553-.009-4.2,0-8.4,0-12.8M121.752,56.2c0-3.311-.019-6.551.007-9.792a10.308,10.308,0,0,0-1.347-5.235Q115.33,32.1,110.292,23a2.161,2.161,0,0,0-2.153-1.3c-4.242.05-8.484.019-12.728.024-.357,0-.716.05-1.039.074V56.33a6.281,6.281,0,0,1,.962.007c1.266.215,1.826-.266,2.227-1.552a10.731,10.731,0,0,1,9.656-7.424A10.979,10.979,0,0,1,118.125,54.3c.828,2.1.828,2.1,3.115,2a4.2,4.2,0,0,0,.512-.1m-6.983,2.192a6.878,6.878,0,1,0-6.792,6.847,6.84,6.84,0,0,0,6.792-6.847m-57.7-.031a6.959,6.959,0,0,0-6.943-7,6.941,6.941,0,1,0,6.943,7" transform="translate(1.88 0)" fill="#161615"/>
    <path id="Path_43" data-name="Path 43" d="M15.822,24.178c0-3.905.007-7.606,0-11.307A1.942,1.942,0,0,1,17.4,10.778a1.806,1.806,0,0,1,2.167,1.058,3.471,3.471,0,0,1,.249,1.443c.021,3.161.01,6.325.01,9.488v1.411h1.383c8.074,0,16.147.038,24.221-.029,1.725-.015,2.471,1.021,2.507,1.988.046,1.228-.926,2.031-2.448,2.033q-17.293.005-34.585,0c-1.5,0-2.338-.713-2.357-1.966-.019-1.306.825-2.017,2.412-2.022,1.572-.005,3.144,0,4.861,0" transform="translate(6.139 7.695)" fill="#161615"/>
    <path id="Path_44" data-name="Path 44" d="M8.637,16.461c-2.161,0-4.325.014-6.486-.005C.548,16.442,0,15.908,0,14.426c0-1.541.452-2.01,2.136-2.019q6.549-.034,13.1,0c1.488.007,2.344.78,2.342,2,0,1.254-.919,2.036-2.452,2.046-2.161.014-4.325,0-6.486,0" transform="translate(0 8.899)" fill="#161615"/>
  </g>
</svg>
