<svg xmlns="http://www.w3.org/2000/svg" xmlns:xlink="http://www.w3.org/1999/xlink" width="77.032" height="69.319" viewBox="0 0 77.032 69.319">
  <defs>
    <clipPath id="clip-path">
      <rect id="Rectangle_438" data-name="Rectangle 438" width="77.032" height="69.319" fill="none"/>
    </clipPath>
  </defs>
  <g id="Group_97" data-name="Group 97" transform="translate(0 0)">
    <g id="Group_96" data-name="Group 96" transform="translate(0 0)" clip-path="url(#clip-path)">
      <path id="Path_33" data-name="Path 33" d="M77.032,22.616V32.844a7.309,7.309,0,0,1-3.913,3.514c-1.042.478-2.12.886-3.2,1.268a.7.7,0,0,0-.573.787c.022,2.48.156,4.974-.05,7.438a1.951,1.951,0,0,0,1.363,2.28,4.239,4.239,0,0,1,2.585,4.344,62.664,62.664,0,0,0,0,6.69,4.558,4.558,0,0,1-2.626,4.661A31.244,31.244,0,0,1,65.4,66.05C58.16,68.237,50.683,68.9,43.173,69.219a118.973,118.973,0,0,1-17.261-.562,77.263,77.263,0,0,1-14.291-2.592,18.217,18.217,0,0,1-5.84-2.66,3.832,3.832,0,0,1-1.9-3c-.021-3.13.022-6.26.074-9.39a.708.708,0,0,0-.413-.752,16.077,16.077,0,0,1-2.006-1.313A3.741,3.741,0,0,1,.012,45.77C.073,43.214.1,40.655,0,38.1a4.019,4.019,0,0,1,2.117-3.848,11.825,11.825,0,0,1,1.865-.958c1.2-.471,2.436-.872,3.738-1.332V22.439c-.252-.084-.559-.182-.862-.29a16.6,16.6,0,0,1-5.322-2.7,3.907,3.907,0,0,1-1.529-3.26c.062-2.681.039-5.363.009-8.044a3.343,3.343,0,0,1,1.231-2.7A8.932,8.932,0,0,1,2.722,4.415,23.892,23.892,0,0,1,9.294,2.17,79.389,79.389,0,0,1,22,.5C26.4.257,30.809.027,35.216,0A141.813,141.813,0,0,1,52.46.953,60.415,60.415,0,0,1,62.983,2.926a13.763,13.763,0,0,1,4.973,2.381A3.385,3.385,0,0,1,69.35,7.939c.014,3.3.005,6.6.005,9.945,1.035.346,2.237.686,3.391,1.145,1.808.723,3.524,1.6,4.287,3.586M35.115,2.447c-4.6.213-8.776.362-12.952.61A71.03,71.03,0,0,0,7.869,5.192,24.26,24.26,0,0,0,3.613,6.8C2.341,7.42,2.35,8.09,3.558,8.846A15.433,15.433,0,0,0,6.171,10.14a46.342,46.342,0,0,0,11.49,2.725c4.422.5,8.864.965,13.308,1.142a109.66,109.66,0,0,0,20.012-1A59.016,59.016,0,0,0,62.51,10.4a18.892,18.892,0,0,0,3.485-1.714c.989-.605.936-1.184-.072-1.8A11.019,11.019,0,0,0,63.9,5.93,55.8,55.8,0,0,0,49.641,3.249c-4.966-.4-9.95-.559-14.525-.8M10.451,23.2l-.12.175a4.5,4.5,0,0,0,.936.878,28.712,28.712,0,0,0,3.67,1.673,75.121,75.121,0,0,0,18.934,3.286,122.778,122.778,0,0,0,18.245-.1,89.549,89.549,0,0,0,13.566-2,25.773,25.773,0,0,0,7.525-2.677c1.582-.95,1.61-1.63-.089-2.359-1.87-.8-3.86-1.33-5.806-1.952a1.071,1.071,0,0,0-.617.141,53.041,53.041,0,0,1-5.172,2.155A85.857,85.857,0,0,1,38.25,25.59c-4.253.077-8.523-.01-12.763-.312C21.529,25,17.6,24.35,13.656,23.829c-1.076-.142-2.138-.417-3.205-.629M64.169,39.308l-.041-.13a1.887,1.887,0,0,0-.369,0,108.232,108.232,0,0,1-18.953,1.882,121.9,121.9,0,0,1-15.758-.684,76.2,76.2,0,0,1-12.676-2.29,18.515,18.515,0,0,1-7.352-3.42.586.586,0,0,0-.463-.142c-1.706.629-3.444,1.193-5.084,1.963-1.1.514-1.092,1.159-.022,1.783a20.07,20.07,0,0,0,3.785,1.772c7.292,2.395,14.853,3.161,22.467,3.463a119.794,119.794,0,0,0,19.28-.715,72.27,72.27,0,0,0,12.337-2.456c.965-.293,1.9-.682,2.849-1.028M6.7,51.732c-.043.043-.087.084-.13.127a9.527,9.527,0,0,0,1.7,1.131,50.145,50.145,0,0,0,5.415,1.952,86.681,86.681,0,0,0,19.959,2.691,113.726,113.726,0,0,0,25.064-1.616,42.181,42.181,0,0,0,9.21-2.6,13.353,13.353,0,0,0,2.24-1.344c.511-.358.538-.866-.036-1.2-.836-.489-1.709-.922-2.585-1.337-.153-.072-.42.029-.609.11A52.706,52.706,0,0,1,61.634,51.9c-7.237,2.184-14.7,2.881-22.22,3.2a104.614,104.614,0,0,1-14.568-.322q-5.669-.553-11.3-1.464c-2.305-.369-4.561-1.047-6.839-1.586M33.348,16.68H28.355v6.3h4.993Zm2.676,6.26h5.012V16.68H36.024Zm8.84,37.4H39.911v6.255h4.952ZM32.189,66.593h4.968V60.307H32.189Zm8.865-20.4H36.012v6.267h5.043Zm-5.031-7.839h5.009V32.035H36.024Zm-2.683,7.822H28.329V52.46h5.012ZM43.7,38.3H48.71V32.067H43.7ZM33.353,31.822,29.615,31.5v6.342l3.738.315ZM47.445,51.951V45.617l-3.737.326V52.29l3.737-.339M43.7,16.417v6.349l3.737-.334V16.111l-3.737.307m-21.817,29.2v6.332l3.737.322V45.94l-3.737-.321m33.3-14.112c-1.3.11-2.518.211-3.742.315V38.17l3.742-.35Zm-33.3-9.078c1.272.108,2.5.214,3.73.321V16.409c-1.262-.1-2.472-.2-3.73-.295ZM60.376,64.69c1.171-.3,2.227-.588,3.3-.819.418-.091.513-.293.507-.672-.014-1.328-.005-2.657,0-3.984V57.594l-3.8.879ZM12.893,57.6c0,2.016,0,3.937.007,5.857,0,.1.087.283.166.3,1.186.314,2.379.607,3.6.912V58.453c-1.253-.283-2.463-.554-3.774-.85m38.384,8.473V59.738l-3.7.319V66.4l3.7-.329m-25.516-.01c1.282.117,2.487.228,3.72.339V60.049l-3.72-.3Zm1.15-28.54V31.214c-1.248-.171-2.451-.336-3.74-.514,0,2.031-.009,3.977.019,5.922,0,.139.259.363.425.393,1.078.192,2.165.341,3.3.511M50.143,51.649l3.713-.583V44.827l-3.713.514ZM15.5,21.563c1.265.189,2.487.369,3.747.555v-6.3c-1.248-.171-2.473-.339-3.747-.513Zm3.8,43.623c1.255.19,2.475.375,3.74.566v-6.3l-3.74-.519Zm34.73-5.734v6.306c1.3-.2,2.513-.393,3.7-.579V58.936l-3.7.516m3.783-21.925c1.152-.171,2.263-.314,3.36-.523a.746.746,0,0,0,.4-.564c.048-.746.021-1.5.021-2.247V30.7l-3.781.535ZM19.249,45.338c-1.286-.175-2.5-.338-3.783-.511,0,2.033-.014,3.929.022,5.823,0,.171.293.451.487.487,1.071.2,2.156.339,3.274.506Zm34.6-23.785V15.3l-3.711.525v6.281l3.711-.555M6.215,19.307c.069-.065.139-.129.207-.194v-4.62c0-1.316,0-1.311-1.174-1.8-.55-.231-1.09-.49-1.634-.744-.319-.147-.634-.309-1.02-.5,0,1.75-.024,3.375.021,5a1.347,1.347,0,0,0,.449.963c1.016.681,2.095,1.272,3.151,1.9m6.579,25.024L9.076,43.5v6.157l3.718.9ZM2.6,41.024c0,1.714-.019,3.406.017,5.1a1.269,1.269,0,0,0,.4.768,8.679,8.679,0,0,0,3.4,1.82c0-2.006.007-3.894-.015-5.785,0-.139-.2-.334-.348-.4-1.111-.5-2.233-.97-3.454-1.5M12.8,14.813c-1.262-.281-2.482-.555-3.762-.842,0,1.97-.005,3.819.009,5.667,0,.173.094.466.2.5,1.159.324,2.328.605,3.552.914ZM60.309,43.482l-3.735.859v6.207l3.735-.908Zm7.676-7.954V29.371c-1.107.255-2.167.535-3.241.73-.429.077-.521.252-.516.636.015,1.376.005,2.753.005,4.128v1.6c1.334-.333,2.537-.631,3.752-.932m2.657-.766c1.131-.609,2.084-1.088,3-1.632a1.653,1.653,0,0,0,.836-1.637c-.053-.972-.012-1.951-.012-2.926V26.9c-1.222.53-2.345,1-3.452,1.512a.683.683,0,0,0-.358.465c-.024,1.87-.015,3.74-.015,5.883M56.584,14.825v6.2c1.2-.3,2.333-.571,3.457-.879a.56.56,0,0,0,.285-.435c.021-1.9.014-3.793.014-5.756l-3.756.867M20.523,36.435c0-2.05.007-3.949-.017-5.847a.6.6,0,0,0-.351-.442c-1.109-.279-2.23-.516-3.392-.776V35.5c1.232.307,2.437.607,3.761.934M62.916,48.716a10.187,10.187,0,0,0,3.54-1.994.83.83,0,0,0,.264-.513c.019-1.718.01-3.433.01-5.177-1.222.535-2.383,1.03-3.529,1.556a.583.583,0,0,0-.273.437c-.019,1.85-.012,3.7-.012,5.689m3.826-37.2c-1.212.525-2.314.989-3.4,1.483-.17.077-.4.285-.4.434-.027,1.889-.017,3.778-.017,5.951,1.27-.759,2.364-1.387,3.423-2.066a.959.959,0,0,0,.384-.682c.033-1.694.017-3.389.017-5.12M10.308,26.909c0,1.678-.015,3.281.015,4.884a1.293,1.293,0,0,0,.322.8,8.9,8.9,0,0,0,3.5,1.983c0-1.987.005-3.857-.01-5.727a.52.52,0,0,0-.254-.382c-1.154-.521-2.319-1.016-3.571-1.558M6.483,55.158c0,1.719-.009,3.418.012,5.115a.969.969,0,0,0,.243.6,8.97,8.97,0,0,0,3.528,1.982c0-2,.012-3.848-.015-5.7a.742.742,0,0,0-.379-.528c-1.085-.5-2.189-.956-3.389-1.471M66.8,63.017c1.178-.657,2.168-1.169,3.111-1.757a1.347,1.347,0,0,0,.634-.867c.06-1.74.029-3.481.029-5.231-1.2.519-2.341,1-3.471,1.517a.584.584,0,0,0-.29.434c-.021,1.875-.014,3.75-.014,5.905" transform="translate(0 0.001)" fill="#161615"/>
    </g>
  </g>
</svg>
