<svg id="Group_99" data-name="Group 99" xmlns="http://www.w3.org/2000/svg" xmlns:xlink="http://www.w3.org/1999/xlink" width="70.959" height="69.319" viewBox="0 0 70.959 69.319">
  <defs>
    <clipPath id="clip-path">
      <rect id="Rectangle_439" data-name="Rectangle 439" width="70.959" height="69.319" fill="none"/>
    </clipPath>
  </defs>
  <g id="Group_98" data-name="Group 98" transform="translate(0 0)" clip-path="url(#clip-path)">
    <path id="Path_34" data-name="Path 34" d="M11.81,56.471c0-.377.009-.755,0-1.132-.044-1.68-.165-1.825-1.8-2.25-1.357-.351-2.744-.62-4.063-1.082a3.611,3.611,0,0,1-2.449-5.019c.467-1.37,1.152-2.667,1.733-4,.627-1.438.564-1.684-.644-2.7C3.523,39.4,2.4,38.579,1.428,37.6c-1.905-1.917-1.905-3.979,0-5.895C2.439,30.7,3.606,29.845,4.7,28.92c1.057-.895,1.138-1.184.583-2.463-.37-.85-.806-1.674-1.183-2.52a14.592,14.592,0,0,1-.642-1.685,3.651,3.651,0,0,1,2.415-4.932c1.268-.457,2.606-.716,3.913-1.063.218-.058.44-.1.656-.167,1.149-.337,1.305-.552,1.363-1.743a45.394,45.394,0,0,1,.3-5.106,3.573,3.573,0,0,1,4.359-3.047c1.587.233,3.158.571,4.729.9a1.308,1.308,0,0,0,1.616-.75c.45-.9.876-1.808,1.353-2.689a16.007,16.007,0,0,1,1.288-2.12A3.488,3.488,0,0,1,30.081.462a23.588,23.588,0,0,1,2.677,1.812c.654.465,1.283.968,1.929,1.445a1.236,1.236,0,0,0,1.6,0c.884-.663,1.743-1.362,2.643-2A13.838,13.838,0,0,1,41.032.4,3.416,3.416,0,0,1,45.42,1.428,22.057,22.057,0,0,1,47.078,4.2c.4.723.748,1.478,1.126,2.212a1.241,1.241,0,0,0,1.5.7c1.547-.315,3.093-.651,4.652-.895A3.792,3.792,0,0,1,59.019,9.9c.112,1.478.1,2.964.155,4.446.039,1.19.2,1.425,1.362,1.737,1.21.325,2.435.593,3.649.9a7.568,7.568,0,0,1,1.132.4,3.6,3.6,0,0,1,2.21,4.785c-.467,1.4-1.152,2.722-1.743,4.076-.673,1.541-.634,1.731.668,2.808.7.576,1.42,1.123,2.111,1.708a11.564,11.564,0,0,1,1.147,1.091c1.646,1.827,1.689,3.8-.017,5.578A42.405,42.405,0,0,1,66.387,40.3c-1.2,1.014-1.273,1.261-.639,2.7.537,1.215,1.167,2.4,1.622,3.64.988,2.7.1,4.574-2.621,5.5-1.348.458-2.766.709-4.145,1.08-1.256.339-1.379.532-1.438,1.83a43.685,43.685,0,0,1-.3,5.031A3.579,3.579,0,0,1,54.5,63.119c-1.585-.24-3.158-.576-4.727-.907a1.31,1.31,0,0,0-1.614.757c-.462.92-.89,1.859-1.387,2.757a14.691,14.691,0,0,1-1.406,2.222,3.346,3.346,0,0,1-4.267.982,22.84,22.84,0,0,1-2.882-1.9c-.658-.458-1.287-.965-1.934-1.44a1.234,1.234,0,0,0-1.6,0c-.866.648-1.706,1.328-2.584,1.956a14.524,14.524,0,0,1-2.089,1.338A3.458,3.458,0,0,1,25.5,67.825a22.254,22.254,0,0,1-1.61-2.713c-.389-.7-.724-1.432-1.086-2.149a1.311,1.311,0,0,0-1.617-.75c-1.52.32-3.044.642-4.579.881a3.8,3.8,0,0,1-4.666-3.684c-.085-.975-.116-1.956-.172-2.935l.037,0m44-43.774.116-.009c-.058-.876-.126-1.752-.174-2.628-.027-.532-.319-.714-.8-.629-1.135.2-2.272.4-3.4.648-3.644.818-5.225.066-6.854-3.284-.46-.948-.912-1.9-1.428-2.819-.472-.84-.69-.89-1.462-.334-1.062.762-2.06,1.61-3.119,2.376-2.379,1.72-4.017,1.713-6.4.022-.2-.145-.4-.3-.6-.455C30.877,4.957,30.079,4.3,29.239,3.7c-.884-.629-1.077-.591-1.607.38-.661,1.21-1.213,2.481-1.892,3.683-1.3,2.3-2.887,2.991-5.493,2.478-1.4-.276-2.8-.55-4.206-.815-.525-.1-.815.124-.83.678-.036,1.357-.087,2.711-.114,4.068-.058,2.88-1.133,4.312-3.891,5.073-1.256.348-2.538.6-3.794.946-1.026.286-1.142.532-.723,1.517.532,1.246,1.171,2.446,1.682,3.7,1,2.447.637,3.949-1.3,5.748-.276.257-.573.493-.862.735-.772.644-1.57,1.259-2.313,1.936-.784.714-.791.93-.017,1.631.82.741,1.692,1.423,2.553,2.118C9.09,39.726,9.511,41.473,8.1,44.569c-.46,1.005-.965,1.989-1.4,3s-.317,1.259.762,1.554c1.28.353,2.59.6,3.867.959,2.589.736,3.686,2.178,3.759,4.871.029,1.057,0,2.113.019,3.17.007.375.09.748.109,1.123.027.53.319.716.8.629,1.133-.2,2.27-.4,3.395-.649,3.662-.808,5.23-.06,6.858,3.284.482.992,1,1.968,1.5,2.952.305.595.724.707,1.266.29.936-.721,1.878-1.435,2.81-2.161,2.689-2.094,4.566-2.1,7.262-.014.078.061.155.128.233.191.651.513,1.3,1.038,1.956,1.539,1.322,1,1.535.956,2.313-.54.556-1.07,1.031-2.181,1.622-3.229,1.3-2.3,2.9-2.993,5.493-2.478,1.4.278,2.8.554,4.206.816.523.1.815-.123.828-.68.036-1.355.09-2.71.116-4.066.056-2.866,1.145-4.315,3.891-5.073,1.256-.348,2.539-.6,3.794-.948,1.029-.286,1.142-.527.721-1.515-.532-1.246-1.171-2.447-1.682-3.7-1-2.446-.636-3.952,1.3-5.748.295-.274.615-.52.922-.781.825-.7,1.653-1.392,2.471-2.1a.713.713,0,0,0,.019-1.213c-.45-.4-.9-.808-1.35-1.2-.925-.813-1.907-1.566-2.768-2.442a3.469,3.469,0,0,1-.973-3.673c.51-1.489,1.171-2.926,1.8-4.373.767-1.769.716-1.88-1.157-2.369-1.428-.373-2.875-.7-4.267-1.186a3.772,3.772,0,0,1-2.567-3.337c-.114-.92-.145-1.851-.215-2.776" transform="translate(0 0)" fill="#161615"/>
    <path id="Path_35" data-name="Path 35" d="M14.737,38.778c-.5-.407-1.1-.671-1.3-1.115a2.929,2.929,0,0,1,.056-1.622c.053-.254.37-.46.583-.673q10.856-10.862,21.716-21.72l.213-.213a1.651,1.651,0,1,1,2.311,2.3Q31.255,22.816,24.18,29.883c-2.65,2.65-5.29,5.309-7.962,7.938a9.2,9.2,0,0,1-1.481.958" transform="translate(9.394 8.995)" fill="#161615"/>
    <path id="Path_36" data-name="Path 36" d="M22.242,27.38a5.6,5.6,0,0,1,5.646-5.626A5.669,5.669,0,0,1,33.546,27.4a5.739,5.739,0,0,1-5.678,5.658,5.674,5.674,0,0,1-5.626-5.678m5.634,2.389A2.382,2.382,0,1,0,25.5,27.388a2.358,2.358,0,0,0,2.379,2.381" transform="translate(15.662 15.319)" fill="#161615"/>
    <path id="Path_37" data-name="Path 37" d="M18.4,23.588a5.672,5.672,0,0,1-5.624-5.68,5.731,5.731,0,0,1,5.709-5.624,5.673,5.673,0,0,1,5.595,5.709,5.6,5.6,0,0,1-5.68,5.595m.041-8.015a2.382,2.382,0,1,0,2.384,2.376,2.349,2.349,0,0,0-2.384-2.376" transform="translate(8.994 8.65)" fill="#161615"/>
  </g>
</svg>
