<svg xmlns="http://www.w3.org/2000/svg" xmlns:xlink="http://www.w3.org/1999/xlink" width="78.856" height="69.319" viewBox="0 0 78.856 69.319">
  <defs>
    <clipPath id="clip-path">
      <rect id="Rectangle_443" data-name="Rectangle 443" width="78.856" height="69.319" fill="none"/>
    </clipPath>
  </defs>
  <g id="Group_111" data-name="Group 111" transform="translate(0 0)">
    <g id="Group_110" data-name="Group 110" transform="translate(0 0)" clip-path="url(#clip-path)">
      <path id="Path_45" data-name="Path 45" d="M72.9,65.943a12.96,12.96,0,0,1-.581,1.228A4.282,4.282,0,0,1,68.4,69.314q-8.971,0-17.941,0-17.36,0-34.724,0a3.707,3.707,0,0,1-.917-.049,1.086,1.086,0,0,1-.907-1.166,1.047,1.047,0,0,1,.968-1.1,6.891,6.891,0,0,1,1.072-.051l51.742,0c.332,0,.668.01,1-.016a1.938,1.938,0,0,0,1.883-1.871c.023-.254.011-.512.011-.77V17.319h-.974c-2.258,0-4.517,0-6.775,0-.984,0-1.488-.409-1.488-1.161s.524-1.184,1.478-1.187c2.284,0,4.568,0,6.852,0h.907V13.147q0-4.118,0-8.239c0-1.837-.666-2.508-2.5-2.508l-56.668,0c-.334,0-.668,0-1-.034A1.114,1.114,0,0,1,9.352,1.248a1.19,1.19,0,0,1,1.074-1.2,6.63,6.63,0,0,1,.846-.015C30.007.029,48.744.054,67.479,0,70.119-.008,72,.822,72.9,3.4Z" transform="translate(5.957 0)" fill="#161615"/>
      <path id="Path_46" data-name="Path 46" d="M2.309,14.957H62.353a5.836,5.836,0,0,1,.846.021A1.134,1.134,0,0,1,64.221,16.2a1.071,1.071,0,0,1-1.074,1.085,9.129,9.129,0,0,1-.923.018H2.309V64.464c0,1.781.683,2.469,2.464,2.472q4.966.007,9.933,0c.2,0,.409,0,.616,0,.968.029,1.477.45,1.46,1.2s-.539,1.161-1.5,1.162c-3.618,0-7.237.011-10.855,0A4.275,4.275,0,0,1,0,64.817V4.522A4.282,4.282,0,0,1,4.484.022C6.641.014,8.8.01,10.952.025a1.234,1.234,0,0,1,1.316,1.136A1.208,1.208,0,0,1,11.04,2.374c-.229.021-.462.013-.693.013-1.822,0-3.644,0-5.467,0-1.938,0-2.572.642-2.572,2.6v9.972" transform="translate(0 0.009)" fill="#161615"/>
      <path id="Path_47" data-name="Path 47" d="M40.733,10.379H22.88c-1.239,0-1.609-.363-1.611-1.588q0-2.08,0-4.157c0-1.143.388-1.564,1.5-1.564q18.046-.007,36.091,0c1.076,0,1.493.429,1.5,1.488q.012,2.2,0,4.388c-.007,1.018-.434,1.431-1.462,1.431q-9.082,0-18.162,0M57.95,5.494H23.668V8.021H57.95Z" transform="translate(13.552 1.954)" fill="#161615"/>
      <path id="Path_48" data-name="Path 48" d="M41.3,35.742c.788,1.37,1.549,2.7,2.312,4.026.141.244.291.483.424.732a1.2,1.2,0,0,1-.481,1.827q-2.016,1.2-4.06,2.343a1.183,1.183,0,0,1-1.808-.535c-.822-1.39-1.621-2.793-2.431-4.19-.088-.152-.19-.3-.331-.516-.676.383-1.329.766-2,1.128-1.1.6-1.963.115-1.966-1.131q-.015-5.968,0-11.937c0-1.287.886-1.788,2.014-1.141q5.133,2.947,10.251,5.917c1.176.683,1.162,1.657-.01,2.358-.612.365-1.233.72-1.917,1.12m-.748-2.317-7.217-4.16v8.32c.313-.167.555-.288.789-.422,1.475-.848,1.8-.76,2.664.733.806,1.392,1.608,2.783,2.436,4.219.781-.45,1.5-.869,2.272-1.313-.927-1.608-1.827-3.153-2.71-4.709-.494-.871-.344-1.392.517-1.917.386-.236.776-.468,1.248-.751" transform="translate(19.724 16.61)" fill="#161615"/>
      <path id="Path_49" data-name="Path 49" d="M39.254,23.851c.4-2.006.765-3.807,1.128-5.608a3.272,3.272,0,0,1,.149-.593,1.109,1.109,0,0,1,1.344-.75,1.154,1.154,0,0,1,.894,1.336q-.953,4.895-1.948,9.781a1.322,1.322,0,0,1-1.285,1.13A1.35,1.35,0,0,1,38.1,28.1c-.535-1.68-1.041-3.369-1.562-5.054-.074-.242-.154-.481-.3-.948-.151.427-.244.668-.321.912-.511,1.636-1.013,3.273-1.528,4.907-.265.846-.766,1.264-1.449,1.239s-1.176-.48-1.346-1.334q-.943-4.7-1.86-9.408a1.186,1.186,0,0,1,.861-1.544c.693-.147,1.277.306,1.444,1.148.324,1.629.634,3.263.953,4.894.049.246.124.485.224.861.617-1.979,1.207-3.826,1.763-5.683.2-.658.452-1.231,1.248-1.23s1.053.571,1.251,1.231c.555,1.857,1.143,3.7,1.781,5.755" transform="translate(18.92 10.735)" fill="#161615"/>
      <path id="Path_50" data-name="Path 50" d="M29.659,23.865c.408-2.051.779-3.879,1.13-5.709.128-.658.391-1.18,1.118-1.28a1.161,1.161,0,0,1,1.257,1.37q-.943,4.9-1.942,9.784a1.319,1.319,0,0,1-1.3,1.118A1.355,1.355,0,0,1,28.5,28.094c-.571-1.8-1.122-3.613-1.68-5.419-.036-.118-.077-.234-.192-.584-.151.445-.237.688-.314.935C25.8,24.661,25.3,26.3,24.783,27.93c-.264.84-.774,1.261-1.457,1.23s-1.164-.48-1.338-1.346q-.946-4.7-1.862-9.408A1.188,1.188,0,0,1,21,16.872a1.218,1.218,0,0,1,1.419,1.085c.336,1.654.645,3.314.969,4.971.047.241.124.475.224.85.624-2.012,1.212-3.887,1.781-5.768.193-.637.481-1.154,1.236-1.146s1.031.534,1.225,1.167c.566,1.876,1.153,3.746,1.8,5.833" transform="translate(12.803 10.736)" fill="#161615"/>
      <path id="Path_51" data-name="Path 51" d="M20.062,23.855c.406-2.038.774-3.867,1.136-5.7.18-.915.722-1.411,1.415-1.282.722.136,1.069.747.891,1.667q-.916,4.705-1.86,9.406A1.4,1.4,0,0,1,18.9,28.1c-.6-1.92-1.189-3.848-1.942-5.806-.082.242-.167.485-.244.729-.509,1.634-1.013,3.271-1.528,4.905-.265.84-.771,1.261-1.454,1.233s-1.167-.473-1.343-1.339q-.946-4.7-1.865-9.4a1.193,1.193,0,0,1,.869-1.541,1.213,1.213,0,0,1,1.426,1.076c.337,1.627.643,3.261.964,4.892.054.267.121.53.221.961.629-2.019,1.22-3.866,1.776-5.724.2-.663.462-1.226,1.257-1.215s1.043.589,1.239,1.246c.557,1.853,1.143,3.7,1.78,5.745" transform="translate(6.686 10.736)" fill="#161615"/>
      <path id="Path_52" data-name="Path 52" d="M6.662,10.377A3.685,3.685,0,0,1,3.021,6.693a3.677,3.677,0,0,1,7.353.07,3.689,3.689,0,0,1-3.712,3.613m.064-4.94A1.255,1.255,0,0,0,5.407,6.72a1.288,1.288,0,1,0,2.575.061A1.251,1.251,0,0,0,6.726,5.438" transform="translate(1.925 1.956)" fill="#161615"/>
      <path id="Path_53" data-name="Path 53" d="M22.506,6.759a3.657,3.657,0,0,1-7.314-.018,3.657,3.657,0,1,1,7.314.018M18.848,5.437a1.25,1.25,0,0,0-1.284,1.32,1.319,1.319,0,0,0,1.262,1.3,1.384,1.384,0,0,0,1.354-1.31,1.327,1.327,0,0,0-1.333-1.3" transform="translate(9.681 1.956)" fill="#161615"/>
      <path id="Path_54" data-name="Path 54" d="M12.776,10.377A3.608,3.608,0,0,1,9.125,6.723a3.645,3.645,0,1,1,3.651,3.654m1.287-3.64a1.264,1.264,0,0,0-1.31-1.3,1.326,1.326,0,0,0-1.315,1.323,1.4,1.4,0,0,0,1.3,1.293,1.34,1.34,0,0,0,1.328-1.315" transform="translate(5.815 1.956)" fill="#161615"/>
      <path id="Path_55" data-name="Path 55" d="M42.321,23.993a1.547,1.547,0,1,1-3.094-.046,1.547,1.547,0,1,1,3.094.046" transform="translate(24.997 14.277)" fill="#161615"/>
    </g>
  </g>
</svg>
