<?xml version="1.0" encoding="utf-8"?>
<!-- Generator: Adobe Illustrator 27.3.1, SVG Export Plug-In . SVG Version: 6.00 Build 0)  -->
<svg version="1.1" id="LOGOS" xmlns="http://www.w3.org/2000/svg" xmlns:xlink="http://www.w3.org/1999/xlink" x="0px" y="0px"
	 viewBox="0 0 1729.2 411.8" style="enable-background:new 0 0 1729.2 411.8;" xml:space="preserve">
<g>
	<path d="M305.5,82.6C283.3,68.1,267.3,45,262.3,18c-1.1-5.8-1.7-11.8-1.7-18h-70.8l-0.1,283.8c-1.2,31.8-27.3,57.3-59.4,57.3
		c-10,0-19.3-2.5-27.6-6.8c-18.9-10-31.9-29.8-31.9-52.7c0-32.8,26.7-59.5,59.5-59.5c6.1,0,12,1,17.6,2.8v-55.5v-16.8
		c-5.8-0.8-11.6-1.3-17.6-1.3C58.5,151.2,0,209.7,0,281.5c0,44.1,22,83.1,55.6,106.7c21.2,14.9,46.9,23.6,74.7,23.6
		c71.9,0,130.3-58.5,130.3-130.3V137.6c27.8,19.9,61.8,31.7,98.5,31.7v-55V98.5C339.4,98.5,321,92.6,305.5,82.6z"/>
</g>
<g>
	<path d="M426.8,98.9H650l-20.5,63.9h-57.9V399h-72.2V162.7l-72.6,0.1L426.8,98.9z"/>
	<path d="M1015.8,98.9h228.4l-20.5,63.9h-63V399h-72.3V162.7l-72.6,0.1L1015.8,98.9z"/>
	<polygon points="663.7,194.3 735.2,194.3 735.2,398.9 664.1,398.9 	"/>
	<path d="M763.6,98h71.5v139.7l70.9-69.5h85.4l-89.6,87l100.4,143.7h-78.8l-67-99.6l-21.2,20.6v79h-71.5V98H763.6z"/>
	<path d="M1490.7,98h71.5v139.7l70.9-69.5h85.4l-89.6,87l100.4,143.7h-78.8l-67-99.6l-21.2,20.6v79h-71.5V98H1490.7z"/>
	<circle cx="699.4" cy="134.9" r="36"/>
	<path d="M1339.2,153.9c-67.6,0-122.5,54.8-122.5,122.5c0,67.6,54.8,122.5,122.5,122.5s122.5-54.8,122.5-122.5
		C1461.6,208.8,1406.8,153.9,1339.2,153.9z M1339.2,335.9c-32.9,0-59.5-26.7-59.5-59.5c0-32.9,26.7-59.5,59.5-59.5
		s59.5,26.7,59.5,59.5C1398.7,309.3,1372,335.9,1339.2,335.9z"/>
</g>
</svg>
