<?xml version="1.0" encoding="utf-8"?>
<!-- Generator: Adobe Illustrator 27.3.1, SVG Export Plug-In . SVG Version: 6.00 Build 0)  -->
<svg version="1.1" xmlns="http://www.w3.org/2000/svg" xmlns:xlink="http://www.w3.org/1999/xlink" x="0px" y="0px"
	 viewBox="0 0 1080 1080" style="enable-background:new 0 0 1080 1080;" xml:space="preserve">
<style type="text/css">
	.st0{display:none;}
	.st1{display:none;fill:none;stroke:#231F20;stroke-width:0.75;stroke-miterlimit:10;}
	.st2{fill:none;stroke:#702DBD;stroke-width:42;stroke-linecap:round;stroke-linejoin:round;stroke-miterlimit:10;}
	.st3{display:inline;fill:none;stroke:#231F20;stroke-width:0.75;stroke-miterlimit:10;}
</style>
<g id="Layer_5" class="st0">
</g>
<g id="Layer_2">
	<g>
		<g>
			<line class="st1" x1="1080" y1="540" x2="0" y2="540"/>
			<path class="st2" d="M542.3,78.2h204.9c0,0,21.3-6.1,54.9,25.8s251.9,227,251.9,227L919.5,491.8l-90.7-67.5V306.5v695.8H542.3"/>
			<path class="st2" d="M702.4,78.2c0,0-17.9,133.8-160.1,133.8"/>
		</g>
	</g>
	<g>
		<g>
			<line class="st1" x1="0" y1="540" x2="1080" y2="540"/>
			<path class="st2" d="M537.7,78.2H332.9c0,0-21.3-6.1-54.9,25.8S26.1,331,26.1,331l134.3,160.8l90.7-67.5V306.5v695.8h286.6"/>
			<path class="st2" d="M377.6,78.2c0,0,17.9,133.8,160.1,133.8"/>
		</g>
	</g>
</g>
<g id="Layer_3" class="st0">
	<line class="st3" x1="540" y1="3.7" x2="540" y2="1080"/>
</g>
</svg>
