<?xml version="1.0" encoding="utf-8"?>
<!-- Generator: Adobe Illustrator 27.3.1, SVG Export Plug-In . SVG Version: 6.00 Build 0)  -->
<svg version="1.1" id="Laag_1" xmlns="http://www.w3.org/2000/svg" xmlns:xlink="http://www.w3.org/1999/xlink" x="0px" y="0px"
	 viewBox="0 0 410.1 506.1" style="enable-background:new 0 0 410.1 506.1;" xml:space="preserve">
<style type="text/css">
	.st0{fill:#702DBD;}
</style>
<path class="st0" d="M17.5,249l-0.7,0.8C17.3,249.6,17.7,249.4,17.5,249z"/>
<path class="st0" d="M402.7,262.3l-7.7-9.4l-0.7-0.7l0.7,0.7l-0.1-0.1l-69.3-87c-3.2-3.9-7.7-6.4-12.6-6.9c-0.7-0.1-1.4-0.1-2.1-0.1
	c-4.3,0-8.3,1.5-11.7,4.2l-18.7,15c-3.3,2.6-5.6,6.3-6.5,10.5c-0.9,3.7-0.6,7.7,0.8,11.1c-18,6.8-37.5,8.3-56.4,4.5
	c-9.3-1.4-22.5,2.1-41.4,10.9c-9.9,0.5-18.1-3-33-9.1l-0.5-0.2c-2.8-1.1-5.7-2.4-9-3.7c2.4-3.7,3.3-8,2.7-12.4
	c-0.7-4.8-3-9.2-6.9-12.3l-18.7-15c-3.9-3.2-8.8-4.6-13.8-4.1c-5,0.6-9.5,3-12.6,6.9L40,221.3L17.5,249c0.2,0.4-0.2,0.6-0.7,0.8
	l0,0.1l-0.7,0.9c0,0.1,0.1,0.1,0.1,0.2c-0.1-0.1-0.1-0.1-0.1-0.2l-8.7,10.9c-3,3.8-4.5,8.9-4.1,13.8c0.6,5,3,9.5,6.9,12.6l7.7,6.2
	l18.8,13.2c3.8,2.5,8.6-0.6,11.5-1.8c8.1,5.5,17.4,8.9,27.2,9.7c2.1,1.4,3.8,2.5,5.1,3.3l0.1,0.1c1.6,0.8,3,1.8,4.2,3
	c0.5,0.6,1.5,1.6,3.2,3.2l-3.3,5.6c0,0,0,0,0,0.1c-2.7,4.8-3.5,10.4-2,15.8c1.5,5.4,4.8,9.9,9.7,12.6l1.2,0.7c0,0,0,0,0.1,0
	c2.8,1.6,5.9,2.6,9,2.7c1.2,5.6,4.8,10.6,9.9,13.5l1.4,0.8c3.8,2.3,8.3,3.2,12.8,2.7c1.8,4.1,4.8,7.5,8.7,9.8l1.4,0.8
	c5.3,2.8,11.7,3.2,17.3,0.9c1.8,2.6,4.1,4.7,6.8,6.3l1.2,0.7c3.2,1.8,6.8,2.8,10.4,2.8c0,0,0,0,0.1,0c3.4,0,6.6-0.8,9.6-2.4l8.8,6.4
	c6.8,5.6,15,9,23.7,9.7c3,0,6-0.7,8.8-1.9c5-2.6,8.8-7,10.7-12.2c1.9,0.5,3.9,0.7,5.9,0.7c3.7,0,7.4-0.9,10.7-2.6
	c6.4-3.4,10.9-9.3,12.6-16.3c5.1-0.1,9.9-1.6,14.2-4.3c6.3-3.8,10.5-10,11.6-17.2c7.4-0.2,14.4-3.5,19.2-9.1c5-5.9,7.2-13.5,6-21
	c-0.2-1.1-0.5-2.4-0.8-3.5c2.1-0.9,4.3-1.9,6.3-3c5-3.2,9.5-7,13.5-11.1l24.8-9c4.4,3.5,10.4,6.1,15.6,3.5l0.4-0.3
	c-0.3-0.1-0.7-0.1-1,0.3c0.4-0.4,0.7-0.4,1-0.3l25.9-18.3c3.9-3.2,6.4-7.7,6.9-12.6C407.3,271.2,405.9,266.2,402.7,262.3z
	 M42.2,289.1c-0.5,0.6-1.4,0.7-1.9,0.3l-0.1-0.1l-8.3-6.6l-0.1-0.1l-10.2-8.2c0,0,0,0-0.1,0c-0.6-0.6-0.7-1.5-0.1-2l77.4-96.5
	c0.2-0.3,0.6-0.5,0.9-0.6h0.2c0.3,0,0.7,0.1,0.9,0.3l18.7,15c0.6,0.6,0.7,1.5,0.2,2L42.2,289.1z M117.5,325.8l-9.3,16.2
	c-0.5,0.5-0.8,1-1.1,1.6c-1,1.7-3.2,2.3-4.7,1.2L101,344c-1.7-0.9-2.3-3-1.2-4.7l12.6-21.8c0.5-0.8,1.2-1.4,2.1-1.6
	c0.3-0.1,0.7-0.1,0.9-0.1c0.6,0,1.2,0.1,1.7,0.5l1.4,0.8c1.7,1,2.3,3,1.2,4.7c-0.5,0.7-0.7,1.5-0.9,2.3
	C118.3,324.5,118,325.2,117.5,325.8z M139.9,338.7c-0.5,0.8-0.8,1.7-1,2.7l-9.8,16.9c-0.7,0.7-1.4,1.4-1.8,2.3c-1,1.7-3,2.3-4.7,1.2
	l-1.4-0.8c-1.7-0.9-2.3-3-1.2-4.7l12.6-21.7c0,0,0,0,0-0.1c0.7-1,1.8-1.7,3-1.7c0.6,0,1.1,0.1,1.7,0.5l1.4,0.8
	C140.4,335,140.9,337.1,139.9,338.7z M162.7,351.8c0,0.1-0.1,0.1-0.1,0.2c-0.2,0.5-0.5,1-0.7,1.6l-8.8,15.1
	c-0.7,1.1-1.1,2.3-1.6,3.5c-1.6,1.9-4.1,2.9-6.4,2.7l-1-0.6c0,0,0,0-0.1,0c-1.7-1-2.3-3.2-1.2-4.8l12.6-21.8c0.7-1,1.8-1.7,3-1.7
	c0.6,0,1.2,0.1,1.7,0.5l1.2,0.7c0,0,0,0,0.1,0C163.1,348,163.7,350.2,162.7,351.8z M188.1,359.9l-12.6,21.7c0,0,0,0,0,0.1
	c-1,1.7-3,2.3-4.7,1.2l-1.2-0.7c-1.7-1-2.3-3.3-1.4-4.8l12.6-21.8c0.7-1,1.8-1.7,3-1.7c0.6,0,1.1,0.1,1.7,0.5l1.4,0.8
	C188.5,356.1,189.1,358.3,188.1,359.9z M295.6,339.5l-0.1,0.1c-2.9,3.8-8.3,4.7-12.3,1.9L253.8,320c-1.7-1.4-4.1-2-6.4-1.7
	c-2.4,0.3-4.5,1.6-6,3.5s-1.9,4.4-1.6,6.8c0.5,2.4,1.8,4.4,3.8,5.6l28.6,20.8c0.5,3.3-1,6.4-3.8,8.2c-3.5,2.1-7.9,2.3-11.5,0.1
	L231.8,345l-0.1-0.1c-3.8-2.4-8.9-1.5-11.6,2.3c-2.7,3.7-2,8.9,1.5,11.8l25.1,18.3c-0.5,2.4-1.8,4.4-3.8,5.6
	c-3.4,1.2-7.1,0.5-9.7-1.9c0,0-0.1,0-0.1-0.1l-17.2-12.6c-1.8-1.5-4.3-2.3-6.6-1.9c-2.4,0.3-4.5,1.6-6,3.5c-1.4,1.9-1.9,4.4-1.6,6.8
	c0.5,2.4,1.8,4.4,3.8,5.6l13.1,9.6c-0.3,1.9-1.4,3.7-2.9,5c-1.6,0.6-6.2,0-14.6-6.2l-7.7-5.6l9.7-16.7c2.7-4.7,3.5-10.5,2-15.8
	c-1.5-5.4-4.8-9.9-9.7-12.6l-1.4-0.8c-5.4-3.2-11.9-3.6-17.8-1.5c-1.7-2.4-3.9-4.3-6.4-5.7l-1.4-0.8c-3.8-2.3-8.3-3.2-12.8-2.7
	c-1.8-4.1-4.8-7.5-8.8-9.7l-1.4-0.8c-2.8-1.6-5.9-2.6-9-2.7c-1.2-5.6-4.8-10.6-9.9-13.5l-1.4-0.8c-4.8-2.8-10.5-3.5-15.8-2
	c-5.4,1.5-9.9,4.8-12.6,9.7l-0.3,0.6c-2.1-2.1-4.5-3.9-7-5.3c-1.6-1-3.7-2.4-6.8-4.4c-1.1-0.8-2.5-1.2-3.8-1.4
	c-6.4-0.5-12.5-2-18.1-5l62.2-77.4c5.1,2,9.6,3.8,13.6,5.5l0.5,0.2c6.4,2.8,13.2,5.4,19.8,7.5c-0.9,1.2-1.9,2.4-2.8,3.6l-0.6,0.8
	c-3.2,4.2-9,11.7-13.1,16.1c-0.8,0.8-1.5,1.6-2,2.1c-3.3,2.9-5.6,6.8-6.8,11c-1.6,7.3,0.1,14.9,4.7,20.6c0,0,0,0.1,0.1,0.1
	c5.3,5.4,12.7,8.3,20.4,8.1c7-0.2,13.7-2.5,19.4-6.4c1.1-0.7,2.4-1.4,3.6-2.1c5.6-3.7,11.7-6.8,18-8.9c22.1-6.1,56.3,21.6,79,40
	c6.4,5.2,11.8,9.5,16.5,13.1c0,0,0.1,0,0.1,0.1C297.4,330,298.3,335.7,295.6,339.5z M325.9,297.3c-1.2,0.5-2.3,1.1-3.2,2
	c-3.5,3.7-7.3,7.1-11.5,9.9c-2.6,1.5-5.4,2.6-8.2,3.3c-4.5-3.4-9.7-7.5-14.6-11.6l-0.5-0.1c-23.7-19.1-55.2-44.6-83.3-44.6
	c-3.8,0-7.5,0.5-11.1,1.5c-8,2.6-15.5,6.2-22.4,10.8c-1.1,0.7-2.3,1.4-3.4,2c-0.1,0-0.1,0.1-0.1,0.1c-3,2.3-6.8,3.6-10.6,3.8
	c-2.6,0.1-5.2-0.6-7.2-2.1c-1-1.7-1.4-3.6-0.9-5.5c0.1-0.3,0.2-0.6,2.4-2.8c0.7-0.8,1.5-1.6,2.4-2.5c4.2-4.6,9.9-11.9,14-17.2
	l0.7-0.9l0.1-0.1c2.4-3.7,5.5-7,9.2-9.5c23.5-11.7,33.9-13.4,38.4-12.7c23.4,4.5,47.5,2.1,69.6-7l60.8,75.7L325.9,297.3z
	 M389.2,275.2l-18.7,15c-0.6,0.5-1.5,0.5-2-0.1c0,0,0,0,0-0.1l-77.4-96.5c-0.5-0.7-0.3-1.6,0.2-2.1l18.7-15c0.7-0.5,1.6-0.5,2,0.2
	l77.4,96.5C389.9,273.8,389.9,274.7,389.2,275.2z"/>
<path class="st0" d="M16.8,249.9C16.8,249.9,16.8,249.9,16.8,249.9C16.8,249.9,16.8,249.9,16.8,249.9
	C16.8,249.9,16.8,249.9,16.8,249.9z"/>
<path class="st0" d="M12.1,255.8"/>
<line class="st0" x1="45.2" y1="214.9" x2="40" y2="221.3"/>
</svg>
