<?xml version="1.0" encoding="utf-8"?>
<!-- Generator: Adobe Illustrator 27.2.0, SVG Export Plug-In . SVG Version: 6.00 Build 0)  -->
<svg version="1.0" id="Laag_1" xmlns="http://www.w3.org/2000/svg" xmlns:xlink="http://www.w3.org/1999/xlink" x="0px" y="0px"
	 viewBox="0 0 503.9 504" style="enable-background:new 0 0 503.9 504;" xml:space="preserve">
<style type="text/css">
	.st0{fill:#702DBD;}
</style>
<path class="st0" d="M251.9,0C185.1,0,122.1,26,74.5,73.3c-0.2,0.1-0.4,0.2-0.7,0.5c-0.2,0.2-0.4,0.5-0.5,0.6
	C26,122,0,185.1,0,251.9C0,390.9,113,504,251.9,504c67.1,0,130.3-26.2,178-73.8c0.1-0.1,0.2-0.2,0.3-0.3l0.1-0.2l0,0
	c47.4-47.6,73.6-110.8,73.6-177.8C503.9,113,390.9,0,251.9,0z M404.4,421.3c-42,37.9-96,58.7-152.4,58.7
	C126.3,480,24,377.7,24,251.9h0c0-56.4,20.8-110.4,58.6-152.4L404.4,421.3z M421.3,404.3L99.6,82.6c42-37.8,96-58.6,152.4-58.6
	c125.7,0,227.9,102.3,227.9,227.9C479.9,308.3,459.1,362.4,421.3,404.3z"/>
<path class="st0" d="M380.3,165.3c0-34.4-14.4-67.9-39.5-92c-25.1-24-57.8-36.6-92.3-35.7v0l-2.1,0.1
	c-66.9,2.4-122,58.9-122.8,125.9c-0.8,30.9,10,61,30.3,84.5c27.9,33.5,40,67.5,40.3,113.7h-14.5c-4.1,0-8.3,3.1-8.3,8.3v49.4
	c0,4.1,3.1,8.3,8.3,8.3h16.8v9.8c0,16.1,12.6,28.7,28.7,28.7h53.4c16.1,0,28.7-12.6,28.7-28.7v-9.8h16.8c4.1,0,8.3-3.1,8.3-8.3
	v-50.2c0-4.1-3.1-8.3-8.3-8.3h-14.5c0.4-45.6,13-82,38.7-111.2C369,226.9,380.3,196.9,380.3,165.3z M292.3,430.2v5.4h-0.8v2
	c0,7.1-5.8,12.9-12.9,12.9h-53.4c-7.1,0-12.9-5.8-12.9-12.9v-7.4H292.3z M213.2,187.3c0-4.4,3.8-8.2,8.2-8.2s8.2,3.8,8.2,8.2
	s-3.8,8.2-8.2,8.2C217.3,195.5,213.2,192.7,213.2,187.3z M281.8,179.9c4.4,0,8.2,3.8,8.2,8.2s-3.8,8.2-8.2,8.2s-8.2-3.8-8.2-8.2
	S277.4,179.9,281.8,179.9z M336.8,240.1l-0.5,0.6v0c-27.2,31.1-41.2,71.6-41.6,120.4h-34.5v-88.6l26.1-61.4
	c11.6-2.2,20.2-12.2,20.2-23.8c0-13.2-10.8-24-24-24s-24,10.8-24,24c0,8.5,5,16.7,12.8,21.3l-17.9,42l-19.3-42.1
	c8.1-4.7,12.7-12.4,12.7-21.3c0-13.2-10.8-24-24-24c-13.2,0-24,10.8-24,24c0,11.9,8.3,21.6,20.2,23.8l26.1,61.4v88.6h-34.5
	c-0.4-48.6-14.1-86.4-44.4-122.5c-17.7-20.7-27-47-26.2-74c0.8-58.5,49.2-107.9,107.9-110.2c31.1-1.1,60.5,10.1,82.8,31.6
	c22.2,21.4,34.4,50.1,34.4,80.9C364.5,193.8,354.1,220.5,336.8,240.1z M316.7,377.7v34.5H187.3v-34.5H316.7z"/>
</svg>
