<?xml version="1.0" encoding="utf-8"?>
<!-- Generator: Adobe Illustrator 27.2.0, SVG Export Plug-In . SVG Version: 6.00 Build 0)  -->
<svg version="1.1" id="Laag_1" xmlns="http://www.w3.org/2000/svg" xmlns:xlink="http://www.w3.org/1999/xlink" x="0px" y="0px"
	 viewBox="0 0 410.1 506.1" style="enable-background:new 0 0 410.1 506.1;" xml:space="preserve">
<style type="text/css">
	.st0{fill:#702DBD;}
</style>
<g>
	<g>
		<path class="st0" d="M208.9,358.3c-1.3,0-2.6,0-3.8,0c-4.3,0-7.7,3.5-7.7,7.7c0,4.3,3.5,7.7,7.7,7.7h0.1c1.5,0,2.8,0,4.1-0.1
			c4.2-0.1,7.6-3.6,7.5-7.9l0,0C216.7,361.6,213.2,358.2,208.9,358.3z"/>
		<path class="st0" d="M357.1,342.6c35.8-39.6,54.5-90.7,52.8-144C408.3,145,386.2,95,347.7,57.8C309.3,20.5,258.6,0,205,0
			C151.5,0,100.8,20.5,62.4,57.8C23.9,95,1.8,145,0.1,198.6C-1.6,251.9,17.2,303,53,342.6L13.4,459.2v0.1c-1.3,4,0.9,8.3,4.9,9.7
			l0.4,0.2c0,0,0,0,0.1,0c2.3,0.8,4.9,0.4,6.9-1l70.1-49.6l25.5,82c0.7,2.4,2.6,4.2,4.9,5l0.5,0.2c0.8,0.3,1.6,0.4,2.5,0.4
			c3.3,0,6.2-2.1,7.3-5.2l31.9-94c24.4,4.4,49.2,4.4,73.6,0l31.9,94c1.4,4,5.7,6.2,9.8,4.8l0.5-0.2h0.1c2.3-0.8,4.1-2.7,4.8-5
			l25.5-82l70,49.6c0,0,0,0,0.1,0c2,1.4,4.6,1.8,6.9,1l0.5-0.2h0.1c4-1.4,6.1-5.8,4.7-9.7L357.1,342.6z M345,354.8l29.7,87.5
			l-60.1-42.5l0,0c-2-1.4-4.6-1.8-6.9-1s-4.1,2.7-4.9,5l-21.9,70.3L257,403.5C289.8,394.9,320.2,378.1,345,354.8z M15.4,205.2
			L15.4,205.2c0-25.1,4.9-49.5,14.4-72.6c9.6-23.1,23.4-43.8,41.1-61.5s38.4-31.5,61.5-41.1s47.5-14.4,72.6-14.4s49.4,4.9,72.6,14.4
			c23.1,9.6,43.8,23.4,61.5,41.1s31.5,38.4,41.1,61.5s14.4,47.5,14.4,72.6c0,25-4.9,49.4-14.4,72.6c-9.6,23.1-23.4,43.8-41.1,61.5
			s-38.4,31.5-61.5,41.1s-47.5,14.4-72.6,14.4c-25,0-49.4-4.9-72.5-14.5S88.7,356.9,71,339.2s-31.5-38.4-41.1-61.5
			S15.4,230.2,15.4,205.2z M153.1,403.5l-23.9,70.6l-21.8-70.3c-0.7-2.3-2.6-4.2-4.9-5c-0.8-0.3-1.6-0.4-2.5-0.4
			c-1.6,0-3.1,0.5-4.5,1.4l-60.1,42.5L65,354.8C89.8,378.1,120.2,394.9,153.1,403.5z"/>
		<path class="st0" d="M171.9,370.5c0.5,0.1,1,0.2,1.5,0.2c3.9-0.1,7.2-3.1,7.6-7c0.4-3.9-2.2-7.5-6.1-8.3
			c-29.1-5.8-55.7-19.8-77-40.5c-20.9-20.4-35.4-46.1-42-74.5c2.9,0.4,6,0.1,8.7-1c7.2,4.9,15.5,7.9,24.2,8.6
			c1.9,1.2,3.4,2.2,4.5,2.9l0.1,0.1c1.4,0.7,2.7,1.6,3.7,2.7c0.4,0.5,1.3,1.4,2.8,2.8l-2.9,5c0,0,0,0,0,0.1c-2.4,4.3-3.1,9.2-1.8,14
			c1.3,4.8,4.3,8.8,8.6,11.2l1.1,0.6c0,0,0,0,0.1,0c2.5,1.4,5.2,2.3,8,2.4c1.1,5,4.3,9.4,8.8,12l1.2,0.7c3.4,2,7.4,2.8,11.4,2.4
			c1.6,3.6,4.3,6.7,7.7,8.7l1.2,0.7c4.7,2.5,10.4,2.8,15.4,0.8c1.6,2.3,3.6,4.2,6,5.6l1.1,0.6l0,0c2.8,1.6,6,2.5,9.2,2.5
			c0,0,0,0,0.1,0c3,0,5.9-0.7,8.5-2.1l7.8,5.7l0,0c6,5,13.3,8,21.1,8.6c2.7,0,5.3-0.6,7.8-1.7c4.4-2.3,7.8-6.2,9.5-10.8
			c1.7,0.4,3.5,0.6,5.2,0.6c3.3,0,6.6-0.8,9.5-2.3c5.7-3,9.7-8.3,11.2-14.5c4.5-0.1,8.8-1.4,12.6-3.8c5.6-3.4,9.3-8.9,10.3-15.3
			c6.6-0.2,12.8-3.1,17.1-8.1c4.4-5.2,6.4-12,5.3-18.7c-0.2-1-0.4-2.1-0.7-3.1c1.9-0.8,3.8-1.7,5.6-2.7c4.4-2.8,8.4-6.2,12-9.9l22-8
			c3.9,3.1,9.1,4.2,13.9,3.1c-6.7,28.3-21.2,54-42.1,74.3c-21.3,20.7-48,34.6-77.1,40.3c-3.8,0.8-6.4,4.4-6.1,8.3
			c0.4,3.9,3.6,6.9,7.6,7c0.5,0,1,0,1.5-0.1c34.6-6.9,65.7-24.1,89.9-49.7c24.1-25.6,39.4-57.5,44.3-92.3l5.4-4.3l0,0
			c3.5-2.8,5.7-6.8,6.1-11.2c0.5-4.4-0.8-8.8-3.6-12.3l-6.9-8.5c-3.2-42.2-22-81.3-53-110.2c-31-29-71.4-45.1-113.8-45.4
			c-42.4-0.3-83.1,15.2-114.5,43.7c-31.4,28.4-50.8,67.3-54.7,109.4l-8.4,10.5l0,0c-2.7,3.4-4,7.9-3.6,12.3
			c0.5,4.4,2.7,8.4,6.1,11.2l6.8,5.5c5,34.6,20.3,66.4,44.3,91.8C106.5,346.4,137.5,363.6,171.9,370.5z M110.5,84.9
			C137.3,63.8,170.9,52.1,205,52c34.8,0,68.8,12.1,95.9,33.8c26,20.9,44.5,49.9,52.7,82.1L311.2,115c-2.8-3.5-6.8-5.7-11.2-6.1
			c-0.6-0.1-1.2-0.1-1.9-0.1c-3.8,0-7.4,1.3-10.4,3.7l-16.6,13.3c-2.9,2.3-5,5.6-5.8,9.3c-0.8,3.3-0.5,6.8,0.7,9.9
			c-16,6-33.3,7.4-50.1,4c-8.3-1.2-20,1.9-36.8,9.7c-8.8,0.4-16.1-2.7-29.3-8.1l-0.4-0.2c-2.5-1-5.1-2.1-8-3.3
			c2.1-3.3,2.9-7.1,2.4-11c-0.6-4.3-2.7-8.2-6.1-10.9l-16.6-13.3c-3.5-2.8-7.8-4.1-12.3-3.6c-4.4,0.5-8.4,2.7-11.2,6.1l-40.2,50
			C66.2,133.1,84.9,105,110.5,84.9z M280.7,137.8l16.6-13.3c0.6-0.4,1.4-0.4,1.8,0.2l68.8,85.7c0.4,0.6,0.4,1.4-0.2,1.9l-16.6,13.3
			l0,0c-0.5,0.4-1.3,0.4-1.8-0.1c0,0,0,0,0-0.1l-68.8-85.7C280.1,139.1,280.2,138.3,280.7,137.8z M241.7,250.6
			c-2.1,0.3-4,1.4-5.3,3.1c-1.3,1.7-1.7,3.9-1.4,6c0.4,2.1,1.6,3.9,3.4,5l25.4,18.5c0.4,2.9-0.9,5.7-3.4,7.3c-3.1,1.9-7,2-10.2,0.1
			l-22.4-16.3l-0.1-0.1c-3.4-2.1-7.9-1.3-10.3,2c-2.4,3.3-1.8,7.9,1.3,10.5L241,303c-0.4,2.1-1.6,3.9-3.4,5c-3,1.1-6.3,0.4-8.6-1.7
			c0,0-0.1,0-0.1-0.1L213.6,295c-1.6-1.3-3.8-2-5.9-1.7c-2.1,0.3-4,1.4-5.3,3.1c-1.2,1.7-1.7,3.9-1.4,6c0.4,2.1,1.6,3.9,3.4,5
			l11.6,8.5c-0.3,1.7-1.2,3.3-2.6,4.4c-1.4,0.5-5.5,0-13-5.5l-6.8-5l8.6-14.8l0,0c2.4-4.2,3.1-9.3,1.8-14c-1.3-4.8-4.3-8.8-8.6-11.2
			l-1.2-0.7c-4.8-2.8-10.6-3.2-15.8-1.3c-1.5-2.1-3.5-3.8-5.7-5.1l-1.2-0.7c-3.4-2-7.4-2.8-11.4-2.4c-1.6-3.6-4.3-6.7-7.8-8.6
			l-1.2-0.7c-2.5-1.4-5.2-2.3-8-2.4c-1.1-5-4.3-9.4-8.8-12l-1.2-0.7c-4.3-2.5-9.3-3.1-14-1.8c-4.8,1.3-8.8,4.3-11.2,8.6l-0.3,0.5
			c-1.9-1.9-4-3.5-6.2-4.7c-1.4-0.9-3.3-2.1-6-3.9c-1-0.7-2.2-1.1-3.4-1.2c-5.7-0.4-11.1-1.8-16.1-4.4l55.3-68.8
			c4.5,1.8,8.5,3.4,12.1,4.9l0.4,0.2l0,0c5.7,2.5,11.7,4.8,17.6,6.7c-0.8,1.1-1.7,2.1-2.5,3.2l-0.5,0.7c-2.8,3.7-8,10.4-11.6,14.3
			c-0.7,0.7-1.3,1.4-1.8,1.9c-2.9,2.6-5,6-6,9.8c-1.4,6.5,0.1,13.2,4.2,18.3c0,0,0,0.1,0.1,0.1c4.7,4.8,11.3,7.4,18.1,7.2
			c6.2-0.2,12.2-2.2,17.2-5.7c1-0.6,2.1-1.2,3.2-1.9c5-3.3,10.4-6,16-7.9c19.6-5.4,50,19.2,70.2,35.5c5.7,4.6,10.5,8.4,14.7,11.6
			c0,0,0.1,0,0.1,0.1c3.4,2.5,4.2,7.5,1.8,10.9l0,0l-0.1,0.1c-2.6,3.4-7.4,4.2-10.9,1.7l-26.1-19.1l0,0
			C245.9,250.9,243.8,250.3,241.7,250.6z M110.5,269.2l11.2-19.4c0.4-0.7,1.1-1.2,1.9-1.4c0.3-0.1,0.6-0.1,0.8-0.1
			c0.5,0,1.1,0.1,1.5,0.4l1.2,0.7c1.5,0.9,2,2.7,1.1,4.2c-0.4,0.6-0.6,1.3-0.8,2c-0.4,0.5-0.7,1.1-1.1,1.6l-8.3,14.4
			c-0.4,0.4-0.7,0.9-1,1.4c-0.9,1.5-2.8,2-4.2,1.1l-1.2-0.7C110.1,272.6,109.6,270.7,110.5,269.2z M128.5,284.3l11.2-19.3
			c0,0,0,0,0-0.1c0.6-0.9,1.6-1.5,2.7-1.5l0,0c0.5,0,1,0.1,1.5,0.4l1.2,0.7c1.5,0.9,2,2.8,1.1,4.2c-0.4,0.7-0.7,1.5-0.9,2.4l-8.7,15
			c-0.6,0.6-1.2,1.2-1.6,2c-0.9,1.5-2.7,2-4.2,1.1l-1.2-0.7C128.1,287.7,127.6,285.8,128.5,284.3z M148.7,296l11.2-19.4l0,0
			c0.6-0.9,1.6-1.5,2.7-1.5c0.5,0,1.1,0.1,1.5,0.4l1.1,0.6c0,0,0,0,0.1,0c1.5,0.9,2,2.8,1.1,4.2c0,0.1-0.1,0.1-0.1,0.2
			c-0.2,0.4-0.4,0.9-0.6,1.4l-7.8,13.4c-0.6,1-1,2-1.4,3.1c-1.4,1.7-3.6,2.6-5.7,2.4l-0.9-0.5c0,0,0,0-0.1,0
			C148.3,299.4,147.8,297.5,148.7,296z M171.3,303.1l11.2-19.4c0.6-0.9,1.6-1.5,2.7-1.5l0,0c0.5,0,1,0.1,1.5,0.4l1.2,0.7
			c1.5,0.9,2,2.8,1.1,4.2l-11.2,19.3c0,0,0,0,0,0.1c-0.9,1.5-2.7,2-4.2,1.1l-1.1-0.6l0,0C171,306.5,170.5,304.5,171.3,303.1z
			 M277.7,235c-21.1-17-49-39.6-74-39.6c-3.4,0-6.7,0.4-9.9,1.3c-7.1,2.3-13.8,5.5-19.9,9.6c-1,0.6-2,1.2-3,1.8
			c-0.1,0-0.1,0.1-0.1,0.1c-2.7,2-6,3.2-9.4,3.4c-2.3,0.1-4.6-0.5-6.4-1.9c-0.9-1.5-1.2-3.2-0.8-4.9c0.1-0.3,0.2-0.5,2.1-2.5
			c0.6-0.7,1.3-1.4,2.1-2.2c3.7-4.1,8.8-10.6,12.4-15.3l0.6-0.8l0.1-0.1c2.1-3.3,4.9-6.2,8.2-8.4c20.9-10.4,30.1-11.9,34.1-11.3
			c20.8,4,42.2,1.9,61.8-6.2l54,67.3l-18.2,6.6c-1.1,0.4-2,1-2.8,1.8c-3.1,3.3-6.5,6.3-10.2,8.8c-2.3,1.3-4.8,2.3-7.3,2.9
			c-4-3-8.6-6.7-13-10.3L277.7,235z M109.6,124c0.2-0.3,0.5-0.4,0.8-0.5h0.2c0.3,0,0.6,0.1,0.8,0.3l16.6,13.3l0,0
			c0.5,0.5,0.6,1.3,0.2,1.8l-68.8,85.7c-0.4,0.5-1.2,0.6-1.7,0.3l-0.1-0.1l-7.4-5.9l-0.1-0.1l-9.1-7.3c0,0,0,0-0.1,0
			c-0.5-0.5-0.6-1.3-0.1-1.8L109.6,124z"/>
	</g>
</g>
</svg>
