<?xml version="1.0" encoding="utf-8"?>
<!-- Generator: Adobe Illustrator 27.2.0, SVG Export Plug-In . SVG Version: 6.00 Build 0)  -->
<svg version="1.0" id="Layer_1" xmlns="http://www.w3.org/2000/svg" xmlns:xlink="http://www.w3.org/1999/xlink" x="0px" y="0px"
	 viewBox="0 0 659 142.8" style="enable-background:new 0 0 659 142.8;" xml:space="preserve">
<style type="text/css">
	.st0{fill:#FF7535;}
</style>
<g>
	<path class="st0" d="M65.2,33.3c0.2-2.6-0.3-4.9-1.5-6.9C61.7,23.2,58,21,53.7,21c-5.2,0-9.9,3.1-12.2,7.5
		c-0.8,1.5-1.3,3.1-1.4,4.8l-1.3,15.1c0,0,5.2,0.1,7.5,0.1C65.1,48.6,65.2,33.3,65.2,33.3z"/>
	<path class="st0" d="M92.4,58.4c-1.5-0.7-3.2-1.1-5.1-1.1H13.7c-2.6,0-5,0.7-7.2,2.1C3,61.6,0.4,65.4,0,69.6
		c-0.4,5.1,2.3,9.5,6.6,11.4c1.4,0.6,3,1,4.8,1h24.3l-2.1,23.9c-0.1,1.7,0,3.3,0.5,4.8c1.5,4.4,5.7,7.5,10.9,7.5c5.1,0,9.7-3,12-7.3
		c0.9-1.6,1.4-3.2,1.6-5.1L60.8,82h24.3c1.8,0,3.4-0.4,5-1c4.7-1.9,8.2-6.3,8.7-11.4C99.2,64.6,96.6,60.4,92.4,58.4"/>
	<path class="st0" d="M183.7,115.3c-5,3.2-11.5,4.7-19.1,4.7h-29.8l3.2-36.4h30.8c8.2,0,14.5,0.5,18.1,3.8c3.8,3.4,5.3,7.5,4.8,13.2
		C191.2,107.5,188.6,112.3,183.7,115.3 M143.4,22.7h23.3c6.1,0,11.1,1.6,14.7,4.7c3.6,3,5.1,7.2,4.6,12.8
		c-0.6,6.6-2.9,11.4-6.8,14.3c-4.1,3.1-8.9,4.5-14.5,4.5h-24.5L143.4,22.7z M196.2,67c10.2-6,16-15.9,17.3-29.7
		c1.1-12.1-2.6-21.4-10.9-27.9C194.5,3.2,184.4,0,172.6,0h-38.7h0h0c-0.1,0-0.2,0-0.3,0c-2.7,0-5.1,0.8-7.4,2.2
		c-1.4,0.8-2.5,1.9-3.6,3.1c-2,2.3-3.1,4.9-3.4,7.8l-10.3,116.5c-0.3,3.2,0.6,5.9,2.4,8.3c0.7,1,1.6,1.9,2.6,2.6
		c2,1.4,4.3,2.1,7,2.2c0.1,0,0.2,0,0.3,0h0h0h46.1c13.1,0,24.8-3.3,34.7-9.8c10.2-6.7,15.9-16.6,17-29.5c0.9-9.7-1-17.9-5.6-24.5
		C209.5,73.4,203.8,69.4,196.2,67"/>
	<path class="st0" d="M282.4,119.1c-5.5,2.9-11.1,4.3-16.7,4.3c-4.7,0-8.7-1-11.7-3c-2.8-1.8-4-4.4-3.7-7.7
		c0.8-9.3,18.4-12.5,33.9-13.6L282.4,119.1z M275.9,43.6c-9.3,0-18.5,1.7-27.4,5.2c-8.3,3.3-12.7,7.4-13.2,12.3
		c-0.2,2.7,0.5,5,2.2,6.8c1.7,1.8,3.9,2.7,6.6,2.7c1.2,0,3.7-0.3,11.1-3.4c5.9-2.4,11.5-3.6,16.7-3.6c5.5,0,9.3,1.5,11.6,4.4
		c2,2.7,2.8,6.8,2.3,12.3l0,0.5c-17.5,1.5-30,3.8-38.3,7c-13.2,5.1-20.4,13.6-21.4,25.3c-0.8,9.2,2,16.5,8.2,21.7
		c6.1,5.2,13.9,7.8,23.2,7.8c9.6,0,18.1-1.7,25.4-4.9c2,3.2,5.3,4.9,9.9,4.9c3.4,0,6.4-1.2,9.1-3.5c2.6-2.3,4.1-5.2,4.4-8.6
		l4.4-50.2c1-11-1-19.7-6-25.8C298.8,47.3,289.1,43.6,275.9,43.6"/>
	<path class="st0" d="M379.4,111.6c-6,6.6-14.3,9.9-25.2,9.9c-4.5,0-8.2-0.2-11-0.4l4.7-52.4c5.2-2.3,10.8-3.4,16.5-3.4
		c7.2,0,12.8,2.3,17.1,7.2c4.4,5.1,6.3,12.1,5.5,20.7C386.2,100.6,383.7,106.8,379.4,111.6 M370.5,43.6c-7,0-14,1.2-20.7,3.4
		l3.1-34.8c0.2-1.8-0.1-3.5-0.7-5.1C350.5,3,346.5,0,341.5,0c-4.3,0-8.3,2.1-10.8,5.4c-1.6,2-2.5,4.3-2.7,6.9l-10.2,114.8
		c-0.7,7.5,2.8,12.3,10,13.9c5.7,1.1,13.4,1.6,22.8,1.6c20.3,0,36.2-5.7,47.3-16.9c8.4-8.4,13.2-19.3,14.4-32.6
		c1.3-14.9-1.8-26.9-9.3-35.8C395.2,48.2,384.3,43.6,370.5,43.6"/>
	<path class="st0" d="M481.4,111.6c-6,6.6-14.3,9.9-25.2,9.9c-4.5,0-8.2-0.2-11-0.4l4.7-52.4c5.2-2.3,10.8-3.4,16.5-3.4
		c7.2,0,12.8,2.3,17.1,7.2c4.4,5.1,6.3,12.1,5.5,20.7C488.2,100.6,485.7,106.8,481.4,111.6 M472.4,43.6c-7,0-14,1.2-20.7,3.4
		l3.1-34.8c0.2-1.8-0.1-3.5-0.7-5C452.5,3,448.5,0,443.4,0c-4.3,0-8.3,2.1-10.8,5.4c-1.6,2-2.5,4.3-2.7,6.8l-10.2,114.8
		c-0.7,7.5,2.8,12.3,10,13.9c5.7,1.1,13.4,1.6,22.8,1.6c20.3,0,36.2-5.7,47.3-16.9c8.4-8.4,13.2-19.3,14.4-32.6
		c1.3-14.9-1.8-26.9-9.4-35.8C497.1,48.2,486.2,43.6,472.4,43.6"/>
	<path class="st0" d="M548.6,82.6c1.1-4.7,3.2-8.7,6.4-11.9c4.5-4.4,10.3-6.5,17.9-6.5c6.8,0,11.8,2,15.3,6.1
		c2.7,3.4,4.1,7.5,4.1,12.3H548.6z M574.5,43.6c-14.7,0-27.1,4.6-36.6,13.6c-9.7,9.1-15.2,20.8-16.4,34.6
		c-1.3,14.7,2.1,26.9,10.2,36c8.3,9.7,20.7,14.7,36.8,14.7c10.4,0,20.2-1.9,29.2-5.6c7.4-3.2,11.4-7.2,11.9-12.1
		c0.3-2.8-0.5-5.2-2.1-7.3c-2.2-2.8-5.2-3.9-9.5-2.9c-1,0.3-2,0.6-2.7,1.1c-0.5,0.3-1.3,0.7-2.4,1.2c-1.2,0.5-2.2,1-3,1.4
		c-5.9,2.5-11.9,3.8-17.9,3.8c-8.8,0-15.2-2.7-19.6-8.3c-2.8-3.6-4.5-8-4.9-13.1h55.6c3.9,0,7.1-1.3,9.7-3.9
		c2.5-2.5,3.9-5.7,4.2-9.6c1.1-12.2-1.9-22.5-9-30.7C599.5,48,588.4,43.6,574.5,43.6"/>
	<path class="st0" d="M658.9,12.3c0.2-2.6-0.3-4.9-1.5-6.9c-1.9-3.3-5.6-5.4-9.9-5.4c-5.2,0-9.9,3.1-12.1,7.5
		c-0.8,1.5-1.3,3.1-1.4,4.8l-10.5,118.2c-0.1,1.7,0,3.3,0.5,4.8c1.5,4.4,5.7,7.5,10.8,7.5c5,0,9.6-3,12-7.2c0.9-1.5,1.4-3.2,1.6-5.1
		L658.9,12.3z"/>
</g>
</svg>
