<?xml version="1.0" encoding="utf-8"?>
<!-- Generator: Adobe Illustrator 27.2.0, SVG Export Plug-In . SVG Version: 6.00 Build 0)  -->
<svg version="1.1" id="Laag_1" xmlns="http://www.w3.org/2000/svg" xmlns:xlink="http://www.w3.org/1999/xlink" x="0px" y="0px"
	 viewBox="0 0 1033.1 293" style="enable-background:new 0 0 1033.1 293;" xml:space="preserve">
<style type="text/css">
	.st0{fill:#132E29;}
	.st1{fill:#00907F;}
	.st2{fill:#00A593;}
</style>
<g>
	<g>
		<path class="st0" d="M355.1,211.7l2.9,37.7h-43V38.8h41.9l1.2,101.7c7.1-35.2,40.4-44.9,76.6-44.9c42.2,0,76.6,31.3,76.6,78.1
			c0,48.3-34.2,80.5-82.8,80.5C391.6,254.2,362.1,243,355.1,211.7z M470.3,175.1c0-28.3-22.1-45.8-52.5-45.8
			c-28,0-52.8,17.4-52.8,45.8c0,28.9,24.8,46.6,52.8,46.6C448.2,221.7,470.3,204,470.3,175.1z"/>
		<path class="st0" d="M523.6,55.3c0-16,10.1-23.7,25.7-23.7c16,0,26.3,7.7,26.3,23.7c0,16.3-10.1,23.9-26.3,23.9
			C533.6,79.3,523.6,71.6,523.6,55.3z M528.9,104.7h42.5v147.8h-42.5V104.7z"/>
		<path class="st0" d="M591.1,41h42.5v211h-42.5V41z"/>
		<path class="st0" d="M653.4,41h42.5v211h-42.5V41z"/>
		<path class="st0" d="M710.5,177.3c0-47.6,35.6-79.1,89.4-79.1c53.1,0,88.5,27.1,89.4,67.5v24.4H752.4c5,24.4,23.2,34.2,62.3,34.2
			c36.2,0,51.1-9.2,68-16.4v33.9c-28.8,11-45.4,14.6-82.8,14.6C746.2,256.4,710.5,224.9,710.5,177.3z M849.1,169.5
			c-0.9-22.3-20.7-38.9-49.2-38.9c-26.4,0-45.7,15.2-48.1,39L849.1,169.5z"/>
		<path class="st0" d="M904.2,104.3h46.1l-3.2,24.4c0,0,30.7-29.1,86-29.1v35.1c-62.1,0-86.9,20.1-86.9,67.6V252h-42V104.3z"/>
		<g>
			<path class="st1" d="M119.7,0L57.8,0C25.9,0,0,27.1,0,60.5l0,121.6c0,0,0-49.8,61.9-49.8c20.3,0,69.8,0,69.8,0
				c31.6,0,57.3-26.8,57.3-59.9v0C189,32.4,158,0,119.7,0z"/>
			<path class="st2" d="M150,293H70.5C31.5,293,0,260,0,219.3L0,71.2c0,0,0,60.6,75.4,60.6c24.7,0,89.2,0,89.2,0
				c38.5,0,69.8,32.7,69.8,73v0C234.4,253.5,196.6,293,150,293z"/>
		</g>
	</g>
</g>
<g>
	<g>
		<path class="st0" d="M355.1,211.7l2.9,37.7h-43V38.8h41.9l1.2,101.7c7.1-35.2,40.4-44.9,76.6-44.9c42.2,0,76.6,31.3,76.6,78.1
			c0,48.3-34.2,80.5-82.8,80.5C391.6,254.2,362.1,243,355.1,211.7z M470.3,175.1c0-28.3-22.1-45.8-52.5-45.8
			c-28,0-52.8,17.4-52.8,45.8c0,28.9,24.8,46.6,52.8,46.6C448.2,221.7,470.3,204,470.3,175.1z"/>
		<path class="st0" d="M523.6,55.3c0-16,10.1-23.7,25.7-23.7c16,0,26.3,7.7,26.3,23.7c0,16.3-10.1,23.9-26.3,23.9
			C533.6,79.3,523.6,71.6,523.6,55.3z M528.9,104.7h42.5v147.8h-42.5V104.7z"/>
		<path class="st0" d="M591.1,41h42.5v211h-42.5V41z"/>
		<path class="st0" d="M653.4,41h42.5v211h-42.5V41z"/>
		<path class="st0" d="M710.5,177.3c0-47.6,35.6-79.1,89.4-79.1c53.1,0,88.5,27.1,89.4,67.5v24.4H752.4c5,24.4,23.2,34.2,62.3,34.2
			c36.2,0,51.1-9.2,68-16.4v33.9c-28.8,11-45.4,14.6-82.8,14.6C746.2,256.4,710.5,224.9,710.5,177.3z M849.1,169.5
			c-0.9-22.3-20.7-38.9-49.2-38.9c-26.4,0-45.7,15.2-48.1,39L849.1,169.5z"/>
		<path class="st0" d="M904.2,104.3h46.1l-3.2,24.4c0,0,30.7-29.1,86-29.1v35.1c-62.1,0-86.9,20.1-86.9,67.6V252h-42V104.3z"/>
		<g>
			<path class="st1" d="M119.7,0L57.8,0C25.9,0,0,27.1,0,60.5l0,121.6c0,0,0-49.8,61.9-49.8c20.3,0,69.8,0,69.8,0
				c31.6,0,57.3-26.8,57.3-59.9v0C189,32.4,158,0,119.7,0z"/>
			<path class="st2" d="M150,293H70.5C31.5,293,0,260,0,219.3L0,71.2c0,0,0,60.6,75.4,60.6c24.7,0,89.2,0,89.2,0
				c38.5,0,69.8,32.7,69.8,73v0C234.4,253.5,196.6,293,150,293z"/>
		</g>
	</g>
</g>
</svg>
