<?xml version="1.0" encoding="utf-8"?>
<!-- Generator: Adobe Illustrator 27.2.0, SVG Export Plug-In . SVG Version: 6.00 Build 0)  -->
<svg version="1.0" id="Ebene_1" xmlns="http://www.w3.org/2000/svg" xmlns:xlink="http://www.w3.org/1999/xlink" x="0px" y="0px"
	 viewBox="0 0 239.8 78.6" style="enable-background:new 0 0 239.8 78.6;" xml:space="preserve">
<style type="text/css">
	.st0{fill:#004178;}
	.st1{fill:#FFFFFF;}
</style>
<g>
	<g>
		<g>
			<g>
				<g>
					<g>
						<path class="st0" d="M238.3,22.4L217.4,1.5c-1-1-2.3-1.5-3.7-1.5c-1.4,0-2.7,0.5-3.7,1.5l-20.9,20.9c-1,1-1.5,2.3-1.5,3.7
							c0,1.3,0.5,2.7,1.5,3.7l8.7,8.7L210,50.7c1,1,2.3,1.5,3.7,1.5c1.4,0,2.7-0.5,3.7-1.5l5.8-5.8l10.7-10.7l4.4-4.4
							c1-1,1.5-2.4,1.5-3.7C239.8,24.8,239.3,23.5,238.3,22.4"/>
					</g>
				</g>
			</g>
			<g>
				<path class="st1" d="M222.2,19.7c2.4,0.1,3,1.3,3.1,2.4c0.9-1.1,2.4-5.6-3.4-6.8c0,0-1.5-0.3-2.2-0.4c-0.3,0-0.4-0.4-0.6-0.8
					c-0.1-0.2-0.2-0.4-0.5-0.6c-1.5-0.7-4.7-0.8-7.6-0.3c-1.5,0.3-4.8,1-4.8,1c0.1,0.1,1.9,1.3,2.2,1.4c-1.3,0.4-3.4,1.7-6.8,8.1
					c0.4-0.2,2.2-0.5,2.6-0.5l-4.7,9.6c-0.6,1.1-1.1,2.2-1.6,3.2l12.8,12.8l0,0l0,0c0.8,1,1.8,1.5,2.8,1.5s2.1-0.5,3-1.5l0,0l0,0
					c0,0,9.9-9.8,10.2-10.1c1.7-1.8-5.5-10.3-8.6-8.9c-1.3,0.6-0.8,1.4-0.8,2.3c0,0,0-0.3,0.1,1.5c-0.2,0-0.4,0-0.5,0
					c-0.4-0.1-0.4-0.7-0.4-1.1c-0.1-1.1-0.1-3.4-0.2-5.2c0-0.6,0-1.2,0-1.8c0,0,0.2-2.2,2.7-3.3c2.5-1.1,5-0.5,5-0.5
					c-0.1-0.8-0.6-1.2-1.9-1.2l-3.3-0.2C219.1,19.4,219.3,19.5,222.2,19.7z M218.2,16.3c0,0.1-0.1,0.2-0.2,0.2l-0.9-0.1l0,0
					c0,0.4-0.4,0.6-0.9,0.6c-0.1,0-0.1,0-0.2,0c-0.6-0.1-1-0.5-0.9-0.9l0,0L214,16c-0.1,0-0.2-0.1-0.2-0.2s0.1-0.2,0.2-0.2
					s1.6-0.3,2.2-0.2c0.7,0.1,2,0.7,2.1,0.7C218.2,16.1,218.3,16.2,218.2,16.3z"/>
			</g>
		</g>
	</g>
	<g>
		<path class="st0" d="M15.9,43.4c-1.8,1.9-3.9,2.8-6.9,2.8H0V20h9c2.9,0,5.1,0.8,6.9,2.8c2.3,2.5,2.3,6.3,2.3,10.3
			C18.2,37.1,18.2,40.9,15.9,43.4z M13.7,24.4c-1.3-1.5-3.2-1.9-5.1-1.9H2.9v21.2h5.7c2,0,3.8-0.4,5.1-1.9c1.7-1.8,1.7-5,1.7-8.7
			C15.4,29.4,15.4,26.2,13.7,24.4z"/>
		<path class="st0" d="M24.8,46.2V20H41v2.5H27.6v9.2h11.5v2.5H27.6v9.4H41v2.5L24.8,46.2L24.8,46.2z"/>
		<path class="st0" d="M55.6,46.4c-5.3,0-9.1-3.6-9.1-8.8V20h2.8v17.3c0,4,2.5,6.6,6.3,6.6s6.4-2.6,6.4-6.6V20h2.8v17.5
			C64.7,42.7,60.9,46.4,55.6,46.4z"/>
		<path class="st0" d="M79.6,22.5v23.6h-2.8V22.5h-7.6V20h17.9v2.5H79.6z"/>
		<path class="st0" d="M98.8,46.4c-3.9,0-6.5-1-8.9-3.5l1.9-1.9c2.2,2.2,4.2,2.8,7.1,2.8c3.9,0,6.2-1.8,6.2-4.8
			c0-1.4-0.4-2.5-1.3-3.3c-0.8-0.7-1.5-1-3.4-1.3l-3-0.4c-2.1-0.3-3.6-1-4.8-2c-1.3-1.2-2-2.8-2-4.9c0-4.4,3.2-7.3,8.4-7.3
			c3.3,0,5.5,0.9,7.8,2.9l-1.8,1.8c-1.6-1.5-3.4-2.3-6.1-2.3c-3.5,0-5.5,1.9-5.5,4.9c0,1.3,0.4,2.4,1.2,3c0.8,0.7,2.1,1.1,3.4,1.4
			l3,0.5c2.4,0.4,3.6,0.8,4.7,1.9c1.4,1.2,2.2,3,2.2,5.1C107.8,43.5,104.2,46.4,98.8,46.4z"/>
		<path class="st0" d="M121.8,46.4c-2.7,0-4.9-1-6.5-2.6c-2.5-2.5-2.6-4.7-2.6-10.7s0.1-8.3,2.6-10.7c1.6-1.6,3.8-2.6,6.5-2.6
			c4.7,0,8.2,2.9,9.1,7.8H128c-0.7-3.2-2.9-5.3-6.2-5.3c-1.8,0-3.3,0.6-4.5,1.8c-1.7,1.7-1.8,3.6-1.8,9s0.2,7.3,1.8,9
			c1.2,1.2,2.8,1.8,4.5,1.8c3.3,0,5.6-2.1,6.3-5.3h2.8C129.9,43.5,126.5,46.4,121.8,46.4z"/>
		<path class="st0" d="M152.2,46.2v-12h-12.4v11.9H137V20h2.8v11.7h12.4V20h2.8v26.1L152.2,46.2L152.2,46.2z"/>
		<path class="st0" d="M162.6,46.2V20h16.2v2.5h-13.4v9.2h11.5v2.5h-11.5v9.4h13.4v2.5L162.6,46.2L162.6,46.2z"/>
	</g>
	<g>
		<path class="st0" d="M3.5,59.5v4.3h6.8v3H3.5v7H0.1V56.5h11.4v3H3.5z"/>
		<path class="st0" d="M20.7,73.8v-1.1c-0.4,0.4-0.9,0.7-1.3,0.9c-0.5,0.2-1.1,0.3-1.8,0.3c-1.4,0-2.5-0.4-3.2-1.1
			c-0.3-0.4-0.6-0.8-0.8-1.3c-0.2-0.5-0.3-1-0.3-1.6c0-0.5,0.1-1,0.3-1.4c0.2-0.4,0.4-0.8,0.8-1.2c0.4-0.3,0.8-0.6,1.3-0.8
			c0.5-0.2,1.2-0.3,1.9-0.3h3v-0.6c0-0.7-0.2-1.2-0.5-1.5c-0.4-0.3-1-0.5-1.8-0.5c-0.6,0-1.1,0.1-1.4,0.2c-0.3,0.2-0.7,0.4-1,0.8
			l-2-2c0.6-0.7,1.3-1.1,2-1.4c0.7-0.2,1.6-0.4,2.6-0.4c1.8,0,3.1,0.4,4,1.1s1.4,1.9,1.4,3.4v8.3h-3.2V73.8z M20.6,68.4h-2.5
			c-0.6,0-1,0.1-1.3,0.4s-0.5,0.6-0.5,1.1c0,0.4,0.1,0.8,0.4,1.1c0.3,0.3,0.8,0.4,1.4,0.4c0.4,0,0.8,0,1.1-0.1
			c0.3-0.1,0.6-0.2,0.9-0.5s0.5-0.8,0.5-1.6V68.4z"/>
		<path class="st0" d="M41.9,73.8v-7.7c0-0.4-0.1-0.8-0.2-1.1c-0.1-0.3-0.3-0.5-0.5-0.7s-0.4-0.3-0.7-0.4c-0.2-0.1-0.5-0.1-0.7-0.1
			s-0.5,0-0.7,0.1s-0.5,0.2-0.7,0.4c-0.2,0.2-0.4,0.4-0.5,0.7c-0.1,0.3-0.2,0.6-0.2,1.1v7.7h-3.2v-7.7c0-0.4-0.1-0.8-0.2-1.1
			c-0.1-0.3-0.3-0.5-0.5-0.7s-0.4-0.3-0.7-0.4c-0.3-0.1-0.5-0.1-0.7-0.1s-0.5,0-0.7,0.1c-0.3,0.1-0.5,0.2-0.7,0.4
			c-0.2,0.2-0.4,0.4-0.5,0.7c-0.1,0.3-0.2,0.7-0.2,1.1v7.7h-3.2V61.1h3.1v1.2c0.4-0.4,0.9-0.7,1.5-1c0.6-0.2,1.1-0.3,1.7-0.3
			c1.5,0,2.6,0.5,3.4,1.6c0.5-0.6,1.1-1,1.7-1.2c0.6-0.3,1.3-0.4,2.1-0.4c0.6,0,1.2,0.1,1.8,0.3c0.5,0.2,1,0.5,1.4,0.8
			c0.5,0.5,0.9,1.1,1.1,1.7s0.3,1.2,0.3,1.9v8.1H41.9z"/>
		<path class="st0" d="M48.4,58.9v-2.6h3.3v2.6H48.4z M48.5,73.8V61.1h3.2v12.7H48.5z"/>
		<path class="st0" d="M58.7,73.8c-0.7,0-1.2-0.1-1.7-0.3c-0.5-0.2-0.9-0.5-1.2-0.8c-0.3-0.3-0.5-0.7-0.7-1.2
			c-0.1-0.4-0.2-0.9-0.2-1.3V56.5h3.2V70c0,0.4,0.1,0.7,0.3,0.9c0.2,0.2,0.5,0.3,0.9,0.3h1.2v2.7L58.7,73.8L58.7,73.8z"/>
		<path class="st0" d="M63,58.9v-2.6h3.3v2.6H63z M63,73.8V61.1h3.2v12.7H63z"/>
		<path class="st0" d="M72.2,68.4c0,0.8,0.2,1.5,0.7,2s1.2,0.8,2.1,0.8c0.7,0,1.2-0.1,1.7-0.3c0.4-0.2,0.8-0.5,1.2-0.9l1.9,1.9
			c-0.3,0.3-0.6,0.6-1,0.9c-0.3,0.2-0.7,0.4-1.1,0.6c-0.4,0.2-0.8,0.3-1.3,0.4s-1,0.1-1.5,0.1c-0.7,0-1.5-0.1-2.2-0.3
			c-0.7-0.2-1.3-0.5-1.9-1c-0.5-0.5-1-1.2-1.3-2S69,68.7,69,67.4c0-1,0.1-2,0.4-2.8s0.6-1.5,1.1-2c0.5-0.6,1.1-1,1.7-1.3
			c0.7-0.3,1.4-0.4,2.2-0.4c0.9,0,1.7,0.2,2.3,0.5c0.7,0.3,1.3,0.7,1.7,1.3c0.5,0.5,0.8,1.2,1.1,1.9c0.2,0.7,0.4,1.5,0.4,2.4v1.4
			H72.2z M77,66.3c0-0.3,0-0.5-0.1-0.7c0-0.2-0.1-0.4-0.2-0.6c-0.2-0.4-0.4-0.7-0.8-0.9c-0.3-0.3-0.8-0.4-1.3-0.4s-1,0.1-1.3,0.4
			s-0.6,0.6-0.8,0.9c-0.1,0.2-0.2,0.4-0.2,0.6s-0.1,0.4-0.1,0.7H77z"/>
		<path class="st0" d="M90.4,73.8v-7.7c0-0.4-0.1-0.8-0.2-1.1c-0.1-0.3-0.3-0.5-0.5-0.7S89.3,64,89,63.9s-0.5-0.1-0.7-0.1
			s-0.5,0-0.7,0.1c-0.3,0.1-0.5,0.2-0.7,0.4c-0.2,0.2-0.4,0.4-0.5,0.7c-0.1,0.3-0.2,0.7-0.2,1.1v7.7H83V61.1h3.1v1.2
			c0.4-0.4,0.9-0.8,1.5-1s1.1-0.3,1.7-0.3c0.6,0,1.2,0.1,1.7,0.3c0.5,0.2,0.9,0.5,1.3,0.8c0.5,0.5,0.9,1.1,1,1.7
			c0.2,0.6,0.3,1.2,0.3,1.9v8.1H90.4z"/>
		<path class="st0" d="M102.4,73.8h-2.5l-4.7-12.7h3.3l2.6,7.8l2.6-7.8h3.3L102.4,73.8z"/>
		<path class="st0" d="M111.4,68.4c0,0.8,0.2,1.5,0.7,2s1.2,0.8,2.1,0.8c0.7,0,1.2-0.1,1.7-0.3c0.4-0.2,0.8-0.5,1.2-0.9l1.9,1.9
			c-0.3,0.3-0.6,0.6-1,0.9c-0.3,0.2-0.7,0.4-1.1,0.6c-0.4,0.2-0.8,0.3-1.3,0.4s-1,0.1-1.5,0.1c-0.7,0-1.5-0.1-2.2-0.3
			c-0.7-0.2-1.3-0.5-1.9-1c-0.5-0.5-1-1.2-1.3-2s-0.5-1.9-0.5-3.2c0-1,0.1-2,0.4-2.8c0.3-0.8,0.6-1.5,1.1-2c0.5-0.6,1.1-1,1.7-1.3
			c0.7-0.3,1.4-0.4,2.2-0.4c0.9,0,1.7,0.2,2.3,0.5c0.7,0.3,1.3,0.7,1.7,1.3c0.5,0.5,0.8,1.2,1.1,1.9c0.2,0.7,0.4,1.5,0.4,2.4v1.4
			H111.4z M116.2,66.3c0-0.3,0-0.5-0.1-0.7c0-0.2-0.1-0.4-0.2-0.6c-0.2-0.4-0.4-0.7-0.8-0.9c-0.3-0.3-0.8-0.4-1.3-0.4
			s-1,0.1-1.3,0.4s-0.6,0.6-0.8,0.9c-0.1,0.2-0.2,0.4-0.2,0.6s-0.1,0.4-0.1,0.7H116.2z"/>
		<path class="st0" d="M129.1,64.6c-0.2-0.2-0.5-0.4-0.7-0.6c-0.2-0.1-0.6-0.2-0.9-0.2c-0.2,0-0.5,0-0.7,0.1s-0.5,0.2-0.7,0.4
			c-0.2,0.2-0.4,0.4-0.5,0.7c-0.1,0.3-0.2,0.6-0.2,1v7.6h-3.2V60.9h3.1v1.2c0.3-0.4,0.7-0.7,1.3-1s1.2-0.4,1.9-0.4
			c0.6,0,1.2,0.1,1.6,0.3c0.5,0.2,0.9,0.5,1.4,0.9L129.1,64.6z"/>
		<path class="st0" d="M142.8,69.8c0,0.7-0.1,1.3-0.4,1.8c-0.3,0.5-0.7,0.9-1.1,1.3c-0.5,0.3-1.1,0.6-1.7,0.8
			c-0.7,0.2-1.4,0.3-2.1,0.3c-0.5,0-1,0-1.5-0.1c-0.5,0-0.9-0.1-1.4-0.3c-0.5-0.1-0.9-0.3-1.3-0.5c-0.4-0.2-0.8-0.6-1.2-1l2.1-2.1
			c0.5,0.5,1.1,0.8,1.7,1c0.6,0.1,1.2,0.2,1.7,0.2c0.3,0,0.5,0,0.8-0.1c0.3,0,0.5-0.1,0.7-0.2s0.4-0.2,0.5-0.4
			c0.1-0.2,0.2-0.4,0.2-0.6c0-0.3-0.1-0.6-0.3-0.8c-0.2-0.2-0.5-0.3-1-0.4l-2-0.2c-1.1-0.1-2.1-0.4-2.7-1c-0.7-0.5-1-1.4-1-2.6
			c0-0.7,0.1-1.2,0.4-1.7c0.3-0.5,0.6-0.9,1.1-1.3c0.5-0.3,1-0.6,1.6-0.8c0.6-0.2,1.2-0.3,1.8-0.3c1,0,1.9,0.1,2.7,0.3
			c0.8,0.2,1.5,0.6,2.1,1.2l-1.9,2c-0.4-0.3-0.8-0.5-1.3-0.7c-0.5-0.1-1.1-0.2-1.6-0.2c-0.6,0-1.1,0.1-1.4,0.4
			c-0.3,0.2-0.4,0.5-0.4,0.9c0,0.2,0.1,0.5,0.2,0.7c0.2,0.2,0.5,0.4,1.1,0.4l2,0.2c1.3,0.1,2.2,0.5,2.8,1.2
			C142.5,67.9,142.8,68.7,142.8,69.8z"/>
		<path class="st0" d="M145.4,58.9v-2.6h3.3v2.6H145.4z M145.5,73.8V61.1h3.2v12.7H145.5z"/>
		<path class="st0" d="M161.4,72.2c-0.6,0.6-1.2,1-1.9,1.3s-1.4,0.4-2.3,0.4c-0.6,0-1.3-0.1-2-0.3c-0.7-0.2-1.3-0.5-1.8-1
			s-1-1.2-1.4-2s-0.5-1.9-0.5-3.2c0-1.3,0.2-2.3,0.5-3.2c0.4-0.8,0.8-1.5,1.4-2c0.5-0.5,1.2-0.8,1.8-1c0.7-0.2,1.3-0.3,2-0.3
			c0.9,0,1.6,0.1,2.3,0.4s1.3,0.7,1.9,1.3l-2.1,2.1c-0.3-0.4-0.6-0.6-0.9-0.8c-0.3-0.2-0.7-0.2-1.1-0.2c-0.7,0-1.3,0.3-1.8,0.8
			c-0.2,0.3-0.4,0.7-0.5,1.1s-0.2,1-0.2,1.7c0,1.3,0.2,2.2,0.7,2.8c0.5,0.6,1.1,0.8,1.8,0.8c0.4,0,0.8-0.1,1.1-0.2
			c0.3-0.2,0.6-0.4,0.9-0.8L161.4,72.2z"/>
		<path class="st0" d="M171.1,73.8v-7.7c0-0.4-0.1-0.8-0.2-1.1c-0.1-0.3-0.3-0.5-0.5-0.7s-0.4-0.3-0.7-0.4c-0.2-0.1-0.5-0.1-0.7-0.1
			s-0.5,0-0.7,0.1s-0.5,0.2-0.7,0.4c-0.2,0.2-0.3,0.4-0.5,0.7c-0.1,0.3-0.2,0.6-0.2,1.1v7.7h-3.2V56.5h3.2v5.8
			c0.4-0.4,0.9-0.8,1.4-1s1.1-0.3,1.6-0.3c0.7,0,1.3,0.1,1.8,0.3c0.5,0.2,1,0.5,1.3,1c0.4,0.4,0.6,0.9,0.8,1.5s0.3,1.2,0.3,1.8v8.2
			H171.1z"/>
		<path class="st0" d="M180.1,68.4c0,0.8,0.2,1.5,0.7,2s1.2,0.8,2.1,0.8c0.7,0,1.2-0.1,1.7-0.3c0.4-0.2,0.8-0.5,1.2-0.9l1.9,1.9
			c-0.3,0.3-0.6,0.6-1,0.9c-0.3,0.2-0.7,0.4-1.1,0.6c-0.4,0.2-0.8,0.3-1.3,0.4s-1,0.1-1.5,0.1c-0.7,0-1.5-0.1-2.2-0.3
			c-0.7-0.2-1.3-0.5-1.9-1c-0.5-0.5-1-1.2-1.3-2s-0.5-1.9-0.5-3.2c0-1,0.1-2,0.4-2.8c0.3-0.8,0.6-1.5,1.1-2c0.5-0.6,1.1-1,1.7-1.3
			c0.7-0.3,1.4-0.4,2.2-0.4c0.9,0,1.7,0.2,2.3,0.5c0.7,0.3,1.3,0.7,1.7,1.3c0.5,0.5,0.8,1.2,1.1,1.9c0.2,0.7,0.4,1.5,0.4,2.4v1.4
			H180.1z M184.9,66.3c0-0.3,0-0.5-0.1-0.7c0-0.2-0.1-0.4-0.2-0.6c-0.2-0.4-0.4-0.7-0.8-0.9c-0.3-0.3-0.8-0.4-1.3-0.4
			s-1,0.1-1.3,0.4s-0.6,0.6-0.8,0.9c-0.1,0.2-0.2,0.4-0.2,0.6s-0.1,0.4-0.1,0.7H184.9z"/>
		<path class="st0" d="M197.8,64.6c-0.2-0.2-0.5-0.4-0.7-0.6c-0.2-0.1-0.6-0.2-0.9-0.2c-0.2,0-0.5,0-0.7,0.1s-0.5,0.2-0.7,0.4
			c-0.2,0.2-0.4,0.4-0.5,0.7c-0.1,0.3-0.2,0.6-0.2,1v7.6h-3.2V60.9h3.1v1.2c0.3-0.4,0.7-0.7,1.3-1s1.2-0.4,1.9-0.4
			c0.6,0,1.2,0.1,1.6,0.3c0.5,0.2,0.9,0.5,1.4,0.9L197.8,64.6z"/>
		<path class="st0" d="M209.3,73.8v-1.2c-0.4,0.4-0.9,0.8-1.5,1s-1.1,0.3-1.7,0.3s-1.2-0.1-1.7-0.3c-0.5-0.2-0.9-0.5-1.3-0.8
			c-0.5-0.5-0.9-1.1-1-1.7c-0.2-0.6-0.3-1.2-0.3-1.9v-8.1h3.2v7.7c0,0.4,0.1,0.8,0.2,1.1c0.1,0.3,0.3,0.5,0.5,0.7s0.4,0.3,0.7,0.4
			c0.2,0.1,0.5,0.1,0.7,0.1s0.5,0,0.7-0.1s0.5-0.2,0.7-0.4c0.2-0.2,0.4-0.4,0.5-0.7c0.1-0.3,0.2-0.7,0.2-1.1v-7.7h3.2v12.7H209.3z"
			/>
		<path class="st0" d="M223.3,73.8v-7.7c0-0.4-0.1-0.8-0.2-1.1c-0.1-0.3-0.3-0.5-0.5-0.7s-0.4-0.3-0.7-0.4c-0.3-0.1-0.5-0.1-0.7-0.1
			s-0.5,0-0.7,0.1c-0.3,0.1-0.5,0.2-0.7,0.4c-0.2,0.2-0.4,0.4-0.5,0.7c-0.1,0.3-0.2,0.7-0.2,1.1v7.7h-3.2V61.1h3.1v1.2
			c0.4-0.4,0.9-0.8,1.5-1s1.1-0.3,1.7-0.3s1.2,0.1,1.7,0.3c0.5,0.2,0.9,0.5,1.3,0.8c0.5,0.5,0.9,1.1,1,1.7c0.2,0.6,0.3,1.2,0.3,1.9
			v8.1H223.3z"/>
		<path class="st0" d="M239.8,73.3c0,0.8-0.1,1.5-0.4,2.1s-0.6,1.2-1.1,1.7s-1.1,0.8-1.7,1.1c-0.7,0.3-1.5,0.4-2.3,0.4
			c-1,0-1.8-0.1-2.5-0.4c-0.7-0.2-1.4-0.7-2.1-1.3l2-2c0.4,0.3,0.7,0.6,1.1,0.7c0.4,0.2,0.8,0.2,1.4,0.2c0.5,0,0.9-0.1,1.2-0.2
			c0.3-0.2,0.6-0.4,0.8-0.6c0.2-0.2,0.3-0.5,0.4-0.8s0.1-0.6,0.1-1v-1.3c-0.4,0.5-0.9,0.8-1.4,1s-1,0.3-1.7,0.3
			c-0.6,0-1.2-0.1-1.7-0.3c-0.5-0.2-1-0.5-1.3-0.8c-0.6-0.6-1-1.3-1.1-2.1c-0.1-0.8-0.2-1.8-0.2-2.9s0.1-2.1,0.2-2.9
			s0.5-1.5,1.1-2.1c0.4-0.4,0.8-0.6,1.3-0.8c0.5-0.2,1.1-0.3,1.7-0.3c0.7,0,1.3,0.1,1.7,0.3c0.5,0.2,0.9,0.5,1.4,1v-1.2h3.1V73.3z
			 M236.7,67.1c0-0.4,0-0.8-0.1-1.2c0-0.4-0.1-0.7-0.3-1c-0.1-0.3-0.4-0.5-0.6-0.7c-0.3-0.2-0.6-0.3-1.1-0.3s-0.8,0.1-1.1,0.3
			c-0.3,0.2-0.5,0.4-0.6,0.7c-0.1,0.3-0.2,0.6-0.3,1c0,0.4-0.1,0.8-0.1,1.2c0,0.4,0,0.8,0.1,1.2c0,0.4,0.1,0.7,0.3,1.1
			c0.1,0.3,0.3,0.6,0.6,0.7c0.3,0.2,0.6,0.3,1.1,0.3s0.8-0.1,1.1-0.3c0.3-0.2,0.5-0.4,0.6-0.7c0.1-0.3,0.2-0.7,0.3-1.1
			C236.6,67.9,236.7,67.5,236.7,67.1z"/>
	</g>
</g>
</svg>
