<?xml version="1.0" encoding="utf-8"?>
<!-- Generator: Adobe Illustrator 27.2.0, SVG Export Plug-In . SVG Version: 6.00 Build 0)  -->
<svg version="1.1" id="Layer_1" xmlns="http://www.w3.org/2000/svg" xmlns:xlink="http://www.w3.org/1999/xlink" x="0px" y="0px"
	 viewBox="0 0 340.2 88.2" style="enable-background:new 0 0 340.2 88.2;" xml:space="preserve">
<style type="text/css">
	.st0{fill:#00263E;}
	.st1{clip-path:url(#SVGID_00000059304985057101590860000014246451629525605516_);fill:#00B089;}
	.st2{clip-path:url(#SVGID_00000036929991880000256650000000182272768647648924_);fill:#00B089;}
	.st3{clip-path:url(#SVGID_00000005237608173868016720000012005182119275657604_);fill:#00B089;}
</style>
<g>
	<polygon class="st0" points="109.2,40.3 109.2,33.7 77.6,33.7 77.6,66.8 77.6,66.8 109.2,66.8 109.2,60.2 84.7,60.2 84.7,53.2 
		105.4,53.2 105.4,46.6 84.7,46.6 84.7,40.3 	"/>
	<path class="st0" d="M160.9,50.7c0-9.6-7.5-17.3-18.7-17.3h-2.5c-11.1,0-18.7,7.8-18.7,17.3S128.6,68,139.8,68h2.1
		c3.4,0.1,7.1,0.4,14.6,1.5l3.8-5.7v0c-1.7-0.3-3.2-0.5-4.6-0.8C159,59.9,160.9,55.5,160.9,50.7 M128.2,50.7c0-6,4.8-10.2,11.6-10.2
		h2.5c6.8,0,11.6,4.2,11.6,10.2s-4.8,10.2-11.6,10.2h-2.5C133,60.9,128.2,56.7,128.2,50.7"/>
	<path class="st0" d="M205.7,33.7v19.4c0,4.3-1.5,7.9-4,10.4c-2.5,2.5-6.1,4-10.4,4H187c-8.5,0-14.4-5.9-14.4-14.4V33.7h7.1v19.4
		c0,4.7,3,7.8,7.3,7.8v0h4.3v0c4.3,0,7.3-3.1,7.3-7.8V33.7H205.7z"/>
	<path class="st0" d="M244.7,66.8h7.7l-14.6-33.1h-8.6l-14.6,33.1h7.8l3.3-7.5h15.7L244.7,66.8z M228.6,52.9l4.7-10.7h0.6l4.7,10.7
		H228.6z"/>
	<polygon class="st0" points="297.8,33.7 297.8,66.8 291.8,66.8 271.1,44.8 271.1,66.8 264,66.8 264,33.7 270.3,33.7 290.7,55.4 
		290.7,33.7 	"/>
	<path class="st0" d="M321.3,44.1c-0.3-0.4-0.5-0.9-0.5-1.4c0-1.9,1.6-3.3,5.8-3.3c2.2,0,4,0.7,5.2,1.4c0.7,0.4,1.3,0.9,1.9,1.4
		l3.9-6c-0.4-0.3-1.1-0.7-1.6-1c-2.2-1.1-5.5-2.3-9.7-2.3c-8.8,0-14.1,4.5-14.1,9.7c0,0.7,0.1,1.3,0.2,1.9c2,9.4,19.1,7.5,19.1,12.8
		c0,2.1-1.9,3.8-6.4,3.8c-1,0-1.9-0.1-2.8-0.3c-1.6-0.3-2.9-0.9-4-1.5c-0.9-0.5-1.7-1.1-2.4-1.8l-5.5,4.7c1,1,2.2,1.8,3.7,2.6
		c0.8,0.4,1.8,0.9,2.9,1.2c2.2,0.8,5,1.4,8.4,1.4c9.1,0,14.6-4.7,14.6-10.2C340.2,47,324.4,48,321.3,44.1"/>
	<g>
		<defs>
			<path id="SVGID_1_" d="M5,74.4c-5.2-34.3,16-54,64.4-49.7L84.7,1.6C77.2,0.5,70.1,0,63.5,0C13.6,0-11.4,29.3,5,74.4"/>
		</defs>
		<use xlink:href="#SVGID_1_"  style="overflow:visible;fill:#00B089;"/>
		<clipPath id="SVGID_00000057848001669111821310000012454384170069386636_">
			<use xlink:href="#SVGID_1_"  style="overflow:visible;"/>
		</clipPath>
		
			<rect x="-18.2" y="-9.4" transform="matrix(0.9767 -0.2144 0.2144 0.9767 -7.1232 8.7241)" style="clip-path:url(#SVGID_00000057848001669111821310000012454384170069386636_);fill:#00B089;" width="109.7" height="93.3"/>
	</g>
	<g>
		<defs>
			<path id="SVGID_00000158027258560264035740000015171709011300438462_" d="M9.6,81.4c2.1-27.4,18.2-35.6,44.9-34.1l8.6-13.1
				c-3.4-0.3-6.6-0.5-9.8-0.5C23.3,33.7,3.6,49.2,9.6,81.4"/>
		</defs>
		<use xlink:href="#SVGID_00000158027258560264035740000015171709011300438462_"  style="overflow:visible;fill:#00B089;"/>
		<clipPath id="SVGID_00000166665067640773563320000007714752410734110887_">
			<use xlink:href="#SVGID_00000158027258560264035740000015171709011300438462_"  style="overflow:visible;"/>
		</clipPath>
		
			<rect x="-0.8" y="27.9" transform="matrix(0.9767 -0.2144 0.2144 0.9767 -11.5616 8.494)" style="clip-path:url(#SVGID_00000166665067640773563320000007714752410734110887_);fill:#00B089;" width="68.3" height="59.3"/>
	</g>
	<g>
		<defs>
			<path id="SVGID_00000045590374140705245370000009407570973483241864_" d="M13.5,88.2c4.6-15.7,13.6-23,28.7-21.5l6.3-9.5
				c-2.1-0.3-4.2-0.4-6.1-0.4C25.1,56.8,13.5,66.7,13.5,88.2"/>
		</defs>
		<use xlink:href="#SVGID_00000045590374140705245370000009407570973483241864_"  style="overflow:visible;fill:#00B089;"/>
		<clipPath id="SVGID_00000048462226259787513630000000124016509463490705_">
			<use xlink:href="#SVGID_00000045590374140705245370000009407570973483241864_"  style="overflow:visible;"/>
		</clipPath>
		
			<rect x="10.5" y="53.4" transform="matrix(0.9767 -0.2144 0.2144 0.9767 -14.8244 8.3303)" style="clip-path:url(#SVGID_00000048462226259787513630000000124016509463490705_);fill:#00B089;" width="40.9" height="38.1"/>
	</g>
</g>
</svg>
