<?xml version="1.0" encoding="utf-8"?>
<!-- Generator: Adobe Illustrator 27.2.0, SVG Export Plug-In . SVG Version: 6.00 Build 0)  -->
<svg version="1.1" id="Lager_1" xmlns="http://www.w3.org/2000/svg" xmlns:xlink="http://www.w3.org/1999/xlink" x="0px" y="0px"
	 viewBox="0 0 137.9 95.3" style="enable-background:new 0 0 137.9 95.3;" xml:space="preserve">
<style type="text/css">
	.st0{fill:#1D1D1B;}
</style>
<path class="st0" d="M92.2,26.7c12.6,0,22.9,10.3,22.9,22.9s-10.3,22.9-22.9,22.9S69.3,62.2,69.3,49.6S79.6,26.7,92.2,26.7
	 M92.2,3.9c-25.3,0-45.7,20.5-45.7,45.7c0,25.3,20.5,45.7,45.7,45.7c25.3,0,45.7-20.5,45.7-45.7C137.9,24.3,117.4,3.9,92.2,3.9
	L92.2,3.9z"/>
<g>
	<path class="st0" d="M21.5,35.1L21.5,35.1L0,83.4l24.3,10.8L35,70.1C41,56.7,34.9,41,21.5,35.1z"/>
	<path class="st0" d="M8.1,0c-6,13.4,0.1,29.1,13.5,35.1l10.8-24.3L8.1,0z"/>
</g>
</svg>
