<?xml version="1.0" encoding="utf-8"?>
<!-- Generator: Adobe Illustrator 27.2.0, SVG Export Plug-In . SVG Version: 6.00 Build 0)  -->
<svg version="1.0" id="Ebene_1" xmlns="http://www.w3.org/2000/svg" xmlns:xlink="http://www.w3.org/1999/xlink" x="0px" y="0px"
	 viewBox="0 0 324.9 109" style="enable-background:new 0 0 324.9 109;" xml:space="preserve">
<style type="text/css">
	.st0{fill:#1D1D1B;}
	.st1{fill:#5EB3E4;}
</style>
<g>
	<path class="st0" d="M324.9,109H0V0h324.9V109z M10.2,98.8h304.4V10.2H10.2V98.8z"/>
</g>
<g>
	<path class="st1" d="M57.4,69.6h21.7v9.2H47.3V29.2h10.1V69.6z"/>
	<path class="st1" d="M124.1,72.3h-20.3l-2.8,6.5H90.1l22.1-50.4h3.4l22.1,50.4h-10.9L124.1,72.3z M113.9,47.3L107.4,64h13.1
		L113.9,47.3z"/>
	<path class="st1" d="M163.6,78.8h-10.1V29.2h10.1V78.8z"/>
	<path class="st1" d="M217.5,78.8l-21.2-25.8v25.8h-10.1V29.2h10.1v23l18.9-23h12.1l-19,23.3l21.5,26.2H217.5z"/>
	<path class="st1" d="M272.4,72.3h-20.3l-2.8,6.5h-10.9l22.1-50.4h3.4l22.1,50.4h-10.9L272.4,72.3z M262.3,47.3L255.7,64h13.1
		L262.3,47.3z"/>
</g>
</svg>
