<?xml version="1.0" encoding="utf-8"?>
<!-- Generator: Adobe Illustrator 27.2.0, SVG Export Plug-In . SVG Version: 6.00 Build 0)  -->
<svg version="1.1" id="Layer_1" xmlns="http://www.w3.org/2000/svg" xmlns:xlink="http://www.w3.org/1999/xlink" x="0px" y="0px"
	 viewBox="0 0 311.1 258" style="enable-background:new 0 0 311.1 258;" xml:space="preserve">
<style type="text/css">
	.st0{fill:#1D1D1B;}
</style>
<g>
	<g>
		<path class="st0" d="M157.9,0.1c1.7,1.3,3.8,2,5.5,3.2c0.6,0.4,1.3,0.8,2,1.1c0.9,0.3,1.6,1,2.5,1.5c2.1,1,4.1,2.1,6,3.5
			c1.7,1.2,3.5,2.1,5.2,3.2c0.6,0.4,1.3,0.7,1.9,1c2.1,0.9,4,2.2,5.7,3.6c0.4,0.4,0.9,0.7,1.4,1c1.7,1.3,3.6,2.4,5.3,3.5
			c1.3,0.8,2.6,1.7,4,2.4c2.4,1.3,4.8,2.6,7.1,3.9c0.8,0.5,1.6,0.9,2.3,1.4c2.9,2,5.8,3.9,8.9,5.5c1,0.5,1.7,1.4,2.6,1.9
			c0.2,0.1,0.3,0.5,0.3,0.7c0.3,2.4,0.4,4.7,0.4,7.1c0,1.6,0,3.2,0.2,4.9c0.2,0.9-0.1,1.9-0.1,2.8c0,0.9,0.1,1.8,0.1,2.7
			c0.2,4,0.1,7.9,0,11.9c0,0.2,0,0.4,0,0.5c0,6.4,0,12.8-0.1,19.2c0,2,0.1,3.9,0,5.8c-0.2,3.7,0.2,7.3,0,11
			c-0.1,1.6-0.4,3.1-0.4,4.7c0,0.4-0.2,0.8-0.6,1.2c-0.9,0.3-1.7,1-2.6,1.5c-2.2,1.2-4.2,2.6-6.5,3.6c-1.1,0.5-2,1.3-3.1,1.9
			c-2.4,1.3-4.8,2.6-7.1,4.1c-2.9,1.9-5.9,3.6-8.8,5.5c-3.4,2.2-6.7,4.4-10.3,6.3c-1.9,1-3.6,2.3-5.4,3.5c-0.3,0.2-0.5,0.5-0.8,0.5
			c-0.3,0.1-0.7-0.1-0.9-0.2c-0.4-0.2-0.4-0.6-0.4-0.9c-0.1-1.9-0.3-3.7-0.4-5.6c-0.1-2.5-0.2-4.9-0.2-7.4c0-3.4,0.5-6.8,1.3-10.1
			c0.3-1.3,0.5-2.6,0.9-3.8c1.1-2.9,2.4-5.6,3.9-8.3c1.7-2.9,3.8-5.5,5.9-8.1c1.1-1.4,2.3-2.8,3.4-4.2c1.3-1.6,2.1-3.5,3.2-5.2
			c1.4-2.4,1.8-5,2.2-7.6c0.2-1.1,0.3-2.3,0.6-3.4c0.4-1.6,0.3-3.2,0.2-4.9c-0.1-1.6-0.2-3.2-0.8-4.8c-0.2-0.6-0.3-1.3-0.4-1.9
			c-0.1-0.6-0.2-1.1-0.5-1.6c-1.2-2.9-2.7-5.7-4.7-8.2c-1.3-1.6-2.6-3.3-3.9-4.9c-1.1-1.2-2.2-2.4-3.4-3.5c-2.4-2.3-5-4.5-7.5-6.6
			c-0.7-0.6-1.5-1.1-2.3-1.6c-1.5-0.8-3.1-0.7-4.6-0.8c-0.4,0.1-0.5,0.4-0.6,0.6c0,0.1,0,0.1,0,0.2c1.8,7.4,3.5,14.9,5.3,22.3
			c0.5,2,1.1,4,1.4,6.1c0.2,1.3,0.2,2.6-0.6,3.7c-0.5,0.8-0.9,1.6-1.5,2.3c-1.3,1.8-3,3.1-5,4.2c-1.3,0.7-2.7,1.1-4.1,1.6
			c-3.1,1.2-6.4,1.2-9.7,1.3c-2.5,0-4.8-0.3-7.2-1.2c-1.9-0.7-3.4-2-4.5-3.6c-0.7-1.1-1.4-2.2-2-3.3c-0.9-1.6-1.2-3.5-1.6-5.2
			c-1.4-6-2.8-12.1-4.2-18.1c-0.1-0.5-0.2-1.1-0.6-1.5c-1.5,0.3-2.7,1.2-3.5,2.4c-1.4,2.2-3,4.4-4,6.8c-0.3,0.6-0.5,1.2-0.7,1.8
			c-0.5,2-1.5,3.9-1.8,6c-0.4,3-1.4,5.8-1.7,8.7c-0.3,2.8-0.6,5.7-0.3,8.5c0.1,1.1,0.2,2.2,0.4,3.3c0.8,3.7,2.1,7.2,4.4,10.4
			c1.6,2.3,3.3,4.6,5.3,6.6c2.6,2.7,5.2,5.4,7.2,8.6c0.3,0.5,0.6,1,0.8,1.5c0.7,1.8,1.5,3.6,2.1,5.5c0.2,0.5,0.3,1,0.3,1.5
			c0.1,1.7,0.3,3.3,0.4,5c0.1,2.9,0.2,5.7,0.2,8.6c0,0.5,0,1.1-0.1,1.6c-0.1,0.8-0.1,1.6,0,2.4c0.1,0.7,0.1,1.4,0,2.1
			c-0.1,0.7-0.1,1.5,0,2.2c0.1,0.3,0.1,0.5,0,0.8c-0.2,0.3-0.6,0.4-1,0.4c-2-1.2-4.1-2.3-5.9-3.8c-1.2-1-2.6-1.6-3.9-2.5
			c-1.8-1.3-3.9-2.2-5.9-3.2c-2.4-1.1-4.6-2.5-6.9-3.7c-2.9-1.5-5.9-3.1-8.7-4.8c-2.2-1.4-4.3-2.9-6.5-4.4c-1.6-1-3.3-1.9-4.8-3
			c-0.9-0.7-1.9-1.3-2.5-2.3c-0.2-0.3-0.3-0.6-0.3-0.9c0-0.8-0.2-1.6-0.2-2.3c0-2.2-0.3-4.4-0.5-6.7c-0.1-2.1,0-4.2-0.5-6.3
			c0-0.2,0-0.4,0-0.5c0.1-3.3-0.3-6.5-0.2-9.7c0-0.8-0.1-1.5-0.2-2.2c-0.1-1.2,0.1-2.4,0.2-3.6c0.2-2,0.1-4,0.3-6
			c0.1-1.1,0.1-2.2,0.3-3.2c0.1-0.7,0-1.4,0-2.1c-0.1-1.2,0-2.4,0.1-3.6c0.2-2.5,0-5.1-0.2-7.6c-0.1-1.4-0.2-2.8-0.1-4.2
			c0.1-0.9,0.2-1.7,0.1-2.6c-0.2-1.2-0.1-2.4-0.2-3.6c-0.1-1.1,0.2-2.2,0.2-3.3c0-0.2,0.1-0.4,0-0.6c-0.2-0.9,0.1-1.6,0.5-2.4
			c1-0.7,1.3-1.2,2-1.8c1.4-1.1,2.9-2.1,4.4-3c4.3-2.6,8.8-5,13-7.7c3.2-2,6.5-3.6,9.6-5.8c2.2-1.5,4.6-2.7,6.9-3.9
			c0.7-0.4,1.4-0.8,2-1.2c1.6-1.3,3.4-2.3,5.2-3.2c2.7-1.4,5.4-3,8-4.5c1.4-0.8,3-1.5,4.5-2.3c1.5-0.8,3-1.6,4.6-2.3
			c1.4-0.7,2.8-1,4.2-1.5C157.7,0,157.8,0,157.9,0.1z M211.9,85.4c0,0,0.1,0.1,0.1,0C212,85.4,211.9,85.4,211.9,85.4L211.9,85.4
			L211.9,85.4z M125,120.1C125,120,125,120,125,120.1C125.1,120.2,125.1,120,125,120.1L125,120.1L125,120.1z M108.7,37L108.7,37
			L108.7,37C108.7,37,108.7,37,108.7,37C108.7,37,108.7,37,108.7,37z M150.5,38.5c-0.1,0-0.1,0-0.2-0.1
			C150.4,38.6,150.5,38.5,150.5,38.5c0,0-0.1,0.1,0,0.1C150.5,38.6,150.5,38.6,150.5,38.5z M202.3,47.8c0.1,0,0.2,0,0.3-0.1
			C202.5,47.6,202.4,47.6,202.3,47.8c-0.1,0.1-0.2,0.1-0.1,0.3C202.3,47.9,202.3,47.8,202.3,47.8z M132.3,124.8c0-0.1,0-0.2-0.2-0.1
			C132.2,124.7,132.3,124.8,132.3,124.8c0.1,0.1,0.3,0.2,0.4,0C132.6,124.7,132.5,124.7,132.3,124.8z M209.2,107.6
			c-0.1,0-0.1-0.2-0.2,0C209.1,107.6,209.2,107.6,209.2,107.6c0.1,0,0.1,0.3,0.3,0.1C209.5,107.7,209.3,107.6,209.2,107.6z
			 M111.2,33.5c0.2,0.1,0.2,0.5,0.5,0.5c0.1-0.1,0.2-0.2,0.2-0.3c-0.2-0.3-0.2-0.6-0.5-0.7C111.2,33.1,111.3,33.3,111.2,33.5
			c-0.2,0.1-0.4,0-0.6,0.2c-0.1,0.3,0,0.5,0.4,0.6C111,33.9,111.4,33.8,111.2,33.5z M206.2,100.4c0.2-0.1,0.3,0.1,0.5,0.1
			c0.2-0.2,0.5-0.3,0.7-0.6c-0.1-0.1-0.2-0.2-0.3-0.2c-0.1-0.1-0.3-0.1-0.4-0.1C206.5,99.9,206,99.9,206.2,100.4
			c-0.2,0-0.2-0.3-0.5-0.1c0.2,0.2,0,0.6,0.4,0.7C206.1,100.8,206.1,100.6,206.2,100.4z M206.7,87.6c-0.3,0-0.6,0-0.8,0
			c-0.4,0.3-0.8,0.7-0.7,1.2c0.3,0.3,0.7,0.2,1.1,0.3c0.1,0.3,0,0.8,0.6,0.9c0.5-0.2,0.5-0.7,0.7-1.1
			C207.4,88.4,207.3,87.9,206.7,87.6z M107.7,95.4c-0.3-0.9-0.3-0.9-1-1.3c-1,0.6-1.2,1.5-0.4,2.3c0.3,0,0.5,0,0.8,0
			C107.5,96.2,107.6,95.8,107.7,95.4z M210.5,40.8c-1.1-1.2-1.5-1.2-2.3-0.3c0.2,0.9,0.6,1.3,1.4,1.3
			C210.2,41.8,210.4,41.6,210.5,40.8z M118.9,26.4c-1.1-0.2-1.7,0.3-1.6,1.5c0.4,0.3,0.9,0.3,1.3,0.3c0.4-0.2,0.5-0.7,0.6-1.1
			C118.9,27,119.1,26.6,118.9,26.4z M102.4,92.3c-0.7-0.7-1.7-0.9-2-0.2c0,0.2,0,0.4,0,0.7c0.4,0.3,0.6,0.8,1.3,0.6
			C102.3,93.1,102.4,92.8,102.4,92.3z M212.1,98.9c-0.4-0.9-0.4-0.9-1.2-1c-0.3,0.3-0.6,0.5-0.7,1c0.2,0.2,0.1,0.5,0.4,0.7
			c0.1,0.1,0.4,0.2,0.6,0.2C211.7,99.7,211.9,99.4,212.1,98.9z M105.5,36.6c-0.3,0-0.6-0.1-0.9,0.1c-0.3,0.2-0.2,0.6-0.4,0.8
			c0.1,0.5,0.4,0.8,0.9,0.9c0.3-0.1,0.6-0.3,0.8-0.6C106.1,37.3,106,36.9,105.5,36.6z M207.8,87.5c0.5-0.3,0.5-0.3,0.9-0.8
			c-0.5-0.9-1-1-1.8-0.5c0.2,0.3,0.4,0.7,0.4,1C207.5,87.4,207.6,87.5,207.8,87.5z M211.1,106.8c0.2-0.4,0.1-0.7,0.1-1.1
			c-0.2-0.2-0.4-0.5-0.7-0.6c-0.2,0.1-0.4,0.3-0.5,0.5c0,0.3-0.1,0.6,0,0.9C210.3,106.9,210.6,107,211.1,106.8z M108.3,46
			c-0.6-0.9-1.2-0.9-1.8,0c0.1,0.3,0.4,0.5,0.6,0.7c0.3,0,0.5,0.1,0.7,0C108.2,46.5,108.2,46.2,108.3,46z M208.6,90.8
			c0.4-0.4,0.8-0.6,0.9-1.2c-0.2-0.1-0.4-0.3-0.6-0.3c-1,0.5-1.4,1-1,1.4C208.1,90.8,208.3,90.8,208.6,90.8z M212.5,82.7
			c0.1,0.6,0.4,1,1.1,1c0.5-0.6,0.1-1.2,0-1.8C213.4,82.4,212.7,82.1,212.5,82.7z M212.5,46.5c-0.1,0.8,0.8,0.6,1,1.1
			c0.4-0.2,0.5-0.6,0.6-0.9c-0.3-0.2,0-0.7-0.5-0.8C213.4,46.5,212.7,45.9,212.5,46.5z M203.3,102.2c0.6-0.5,0.6-1,0.5-1.6
			c-0.2-0.2-0.3-0.4-0.5-0.5c0,0-0.1,0-0.1,0C202.5,101,202.6,101.3,203.3,102.2z M103.7,33.8c-0.1,0.1-0.5,0.1-0.4,0.5
			c0.5,0.2,0.9,0.2,1.5-0.1c-0.7-0.2-0.1-1-0.7-1.3c-0.1,0.2-0.4,0-0.6,0.3C103.6,33.3,103.7,33.5,103.7,33.8z M195.5,113.5
			c-0.4-0.1-0.7-0.1-0.9-0.1c-0.5,0.3-0.6,0.6-0.6,1C195,114.5,195.2,114.4,195.5,113.5z M107.3,38.1c0,0.3,0.3,0.6,0,0.9
			c0.2,0.2,0.5,0.1,0.6,0.5c0.3-0.4,0.3-0.9,0.8-0.9c-0.1-0.3-0.3-0.5-0.5-0.5C107.9,38,107.6,38,107.3,38.1z M188.2,120.3
			c-0.5-0.1-0.8,0.1-1,0.5c0.1,0.2,0.1,0.4,0.3,0.5c0.4-0.1,0.8,0,1-0.4C188.5,120.7,188.4,120.5,188.2,120.3z M109.7,103.3
			c-0.3-0.1-0.5-0.1-0.7,0.1c-0.1,0.4-0.2,0.8,0.2,1.1C110,104.3,110,104.2,109.7,103.3z M199.5,56.8c0.2,0.3,0.2,0.6,0.7,0.7
			c0.5-0.3,0.4-0.7,0.3-1.3c-0.2,0.1-0.3-0.2-0.5-0.1C199.7,56.3,199.6,56.5,199.5,56.8z M198.2,55.5c-0.1-0.4-0.2-0.6-0.3-0.8
			c-0.2-0.1-0.5-0.1-0.7,0.2c-0.1,0.4-0.3,0.9,0.3,1.2c0.1-0.1,0.1-0.1,0.2-0.2C197.9,55.8,198,55.7,198.2,55.5z M103.4,36.5
			c0.1-1,0-1.3-0.6-1.5c-0.3,0.5,0.1,1,0,1.5C103,36.4,103.2,36.6,103.4,36.5z M196.6,105c0.1,0.2,0.3,0.3,0.4,0.5
			c0.2,0,0.4-0.1,0.5-0.1c0.1-0.2,0.3-0.4,0.2-0.7c-0.3-0.3-0.3-0.3-0.8-0.3C196.8,104.5,196.7,104.8,196.6,105z M192.8,98.8
			c-0.3,0.7-0.1,0.9,0.7,1c0.3-0.3,0.2-0.7,0.1-1C193.4,98.8,193.1,98.7,192.8,98.8z M211.1,48.7c-0.1,0.3-0.1,0.6,0,0.8
			c0.2,0.3,0.5,0.2,0.8,0.1c0-0.2,0.1-0.3,0.2-0.5c-0.1-0.2-0.1-0.5-0.4-0.6C211.5,48.6,211.3,48.7,211.1,48.7z M217.8,45.7
			c-0.1-0.4-0.2-0.8-0.7-0.8c-0.1,0.1-0.4,0.1-0.5,0.4c0,0.5,0.4,0.6,0.7,0.9C217.5,46,217.7,45.9,217.8,45.7z M104.9,50.9
			c-0.3-0.3-0.6-0.4-1-0.1c0,0.3-0.2,0.7,0.2,0.9c0.3,0.1,0.5-0.1,0.7-0.2C104.7,51.3,104.9,51.1,104.9,50.9z M153.3,8
			c-0.2,0.2-0.3,0.4-0.3,0.7c0.5,0.5,0.6,0.5,1.2-0.1C154.1,8.2,153.8,8,153.3,8z M208.6,96.8c-0.3,0.8-0.2,1,0.5,1.2
			c0.3-0.2,0.3-0.5,0.2-0.8C209.1,96.9,208.9,96.9,208.6,96.8z M103.6,96.2c-0.3-0.4-0.4-0.8-0.9-0.8c-0.1,0.1-0.3,0.1-0.4,0.3
			C102.7,96.4,102.8,96.4,103.6,96.2z M207.2,92.6c-0.2,0.2-0.3,0.4-0.3,0.8c0.2,0.1,0.1,0.4,0.4,0.5c0.1-0.2,0.3-0.1,0.4-0.3
			C207.7,93.2,207.9,92.7,207.2,92.6z M135.2,22.4c-0.6-0.3-0.9,0-1,0.5c0.2,0.1,0.4,0.3,0.6,0.4c0.2-0.1,0.3-0.1,0.4-0.2
			C135.3,22.9,135.3,22.7,135.2,22.4z M103.7,64.3c-0.4-0.1-0.5,0.2-0.8,0.3c0.2,0.2,0.2,0.5,0.3,0.7c0.3,0.1,0.6,0.1,0.8-0.3
			C104,64.7,103.9,64.5,103.7,64.3z M117.3,115.1c-0.3-0.1-0.6-0.2-0.9-0.1c-0.2,0.2-0.4,0.3-0.3,0.6c0.2,0.2,0.5,0.3,0.8,0.2
			C117.2,115.6,117.3,115.4,117.3,115.1z M208.9,79.5c-0.1-0.4-0.5-0.5-0.8-0.6c-0.2,0.2-0.4,0.3-0.3,0.6c0.1,0.2,0.3,0.4,0.5,0.4
			C208.6,80,208.7,79.8,208.9,79.5z M108.5,85.7c0.4,0.7,0.5,0.7,1,0.2c0-0.5-0.3-0.6-0.7-0.7C108.8,85.4,108.6,85.5,108.5,85.7z
			 M190.7,108.6c0.1,0.5,0.3,0.8,0.9,0.5c0.1-0.2,0.1-0.3,0.2-0.5c-0.2-0.2-0.4-0.3-0.6-0.4C191.1,108.4,190.8,108.3,190.7,108.6z
			 M118.1,44.4c-0.3,0.3-0.2,0.6-0.3,0.8c0.1,0.1,0.2,0.2,0.3,0.3c0.4-0.1,0.7-0.2,0.7-0.7C118.7,44.6,118.4,44.5,118.1,44.4z
			 M203.6,88.1c0.3-0.1,0.4-0.3,0.5-0.5c-0.1-0.3-0.4-0.4-0.7-0.5c-0.3,0.2-0.4,0.4-0.4,0.8C203.3,87.9,203.4,88,203.6,88.1z
			 M100.7,87.8c-0.8,0-0.8,0-0.7,0.7c0.2,0.1,0.4,0.2,0.6,0.2C100.8,88.4,100.7,88.1,100.7,87.8z M200,38.4
			c-0.4,0.1-0.6,0.3-0.7,0.8c0.6,0.4,0.6,0.4,1.1-0.3C200.2,38.8,200.2,38.5,200,38.4z M196.6,37.8c0.4,0,0.6,0.1,0.9-0.1
			c0.3-0.3,0.3-0.5-0.1-0.7c-0.2-0.1-0.4-0.1-0.6,0C196.7,37.3,196.7,37.5,196.6,37.8z M95.8,71.8c0.4,0,0.7,0,0.7-0.6
			c-0.2-0.1-0.2-0.3-0.5-0.3c-0.3,0-0.4,0.2-0.6,0.4C95.5,71.5,95.6,71.7,95.8,71.8z M208.7,104.6c-0.1-0.4-0.2-0.7-0.6-0.8
			c-0.1,0.2-0.4,0.1-0.5,0.3c0.1,0.2,0.1,0.5,0.4,0.7C208.2,104.8,208.4,104.7,208.7,104.6z M201.4,43c-0.8-0.1-1.1,0-1,0.6
			c0.2,0.1,0.3,0.2,0.5,0.3c0.2-0.1,0.3-0.2,0.5-0.3C201.1,43.3,201.5,43.2,201.4,43z M203.9,98.1c-0.1,0.1-0.1,0.3-0.2,0.4
			c0.2,0.2,0.3,0.4,0.7,0.4c0.3-0.2,0.6-0.3,0.3-0.8C204.4,98.2,204.2,98,203.9,98.1z M143.1,37.9c0,0.3-0.1,0.5,0,0.8
			c0.2,0,0.3,0.3,0.6,0.2c0.1-0.2,0.2-0.5,0.3-0.7C143.7,38,143.5,37.8,143.1,37.9z M205.8,103c-0.2-0.3-0.2-0.6-0.1-1
			c-0.3,0.2-0.8,0-1,0.6C205.1,102.6,205.2,103.2,205.8,103z M198,91.8c0.2-0.2,0.3-0.5,0.4-0.7c-0.2-0.3-0.5-0.3-0.8-0.2
			c0,0.3-0.1,0.5,0,0.7C197.7,91.7,197.8,91.8,198,91.8z M213.1,97.1c-0.3-0.4-0.7-0.7-1.2-0.6C212.1,97.2,212.4,97.4,213.1,97.1z
			 M207.2,39.4c-0.2-0.3-0.4-0.4-0.7-0.5c-0.3,0.5-0.2,1,0.3,1C206.9,39.9,207.1,39.7,207.2,39.4z M206.5,107.4
			c0.6-0.1,0.7-0.4,0.5-0.9c-0.2,0.1-0.3-0.3-0.6-0.1C206,106.7,206.3,107,206.5,107.4z M104.4,57.9c-0.2-0.1-0.4-0.3-0.6-0.3
			c-0.3,0.2-0.3,0.4-0.4,0.6c0.2,0.3,0.5,0.3,0.8,0.2C104.1,58.2,104.3,58.1,104.4,57.9z M208.7,108.6c0.2,0.2,0.3,0.4,0.5,0.4
			c0.2-0.1,0.2-0.3,0.4-0.5c-0.1-0.2-0.2-0.3-0.2-0.5c-0.2,0-0.3,0-0.5,0C208.8,108.2,208.7,108.3,208.7,108.6z M115.7,118.1
			c-0.1-0.4-0.3-0.6-0.6-0.6c-0.1,0.1-0.2,0.2-0.3,0.4c0.1,0.3,0.3,0.6,0.6,0.5C115.5,118.2,115.6,118.2,115.7,118.1z M162.1,13.1
			c-0.4,0-0.6-0.4-0.9-0.1c0,0.6,0,0.6,0.5,0.8C161.9,13.7,161.9,13.4,162.1,13.1z M215.1,90.9c0.4,0.3,0.8,0.3,1.1-0.1
			C215.6,90.3,215.6,90.3,215.1,90.9z M106.9,102.1c-0.1-0.3-0.3-0.5-0.6-0.4c-0.2,0.1-0.4,0.3-0.3,0.6
			C106.3,102.5,106.6,102.5,106.9,102.1z M103.5,100.5c-0.1,0.4,0.2,0.6,0.4,0.7c0.3-0.1,0.5-0.3,0.6-0.5
			C104.2,100.5,103.9,100.3,103.5,100.5z M99.2,48.5c0.1-0.2,0.3-0.3,0.2-0.6c-0.2-0.1-0.3-0.2-0.5-0.3c-0.2,0.1-0.4,0.2-0.3,0.5
			C98.6,48.3,98.8,48.5,99.2,48.5z M101.2,105.4c-0.1,0.8-0.1,0.8,0.4,1.3C101.7,106.1,101.8,105.6,101.2,105.4z M187.7,29.1
			c0.4,0.1,0.7,0,0.7-0.4c0-0.2-0.1-0.3-0.3-0.4c-0.2,0-0.3,0.1-0.4,0.2C187.7,28.7,187.7,28.9,187.7,29.1z M98,37.4
			c0.4,0.1,0.7,0,0.8-0.4c-0.2-0.3-0.5-0.4-0.8-0.2C97.9,37,97.8,37.2,98,37.4z M211.8,103.5c0.5,0.1,1,0.2,1.1-0.5
			C212.4,102.8,212,102.8,211.8,103.5z M96.3,106.8c-0.3,0.3-0.3,0.6,0,0.8c0.3,0.2,0.5,0,0.6-0.3C96.8,106.9,96.5,106.9,96.3,106.8
			z M126.7,24.7c-0.2,0-0.4-0.1-0.6,0.1c0,0.3-0.1,0.7,0.4,0.7C126.8,25.3,126.8,25,126.7,24.7z M117.2,119.7
			c0.4-0.1,0.7-0.2,0.9-0.6c-0.2-0.3-0.4-0.3-0.7-0.1C117.1,119.1,117.3,119.4,117.2,119.7z M199.2,113.9c0.5-0.6,0.5-0.7-0.2-0.9
			C198.8,113.4,198.8,113.7,199.2,113.9z M127.2,29.4c0.2,0.2,0.4,0.1,0.7,0.3c-0.1-0.3,0.2-0.4,0.1-0.7
			C127.6,28.9,127.2,28.7,127.2,29.4z M130.9,126.8c-0.3,0.2-0.4,0.3-0.2,0.7c0.3,0,0.5,0.1,0.8-0.1
			C131.6,126.9,131.2,126.9,130.9,126.8z M169.6,24.8c-0.2-0.4-0.5-0.4-0.8-0.2c0.1,0.3,0.2,0.6,0.5,0.8
			C169.4,25.2,169.5,25,169.6,24.8z M101.6,42.6c0.1,0.2,0,0.5,0.3,0.6c0.4,0,0.6-0.2,0.5-0.7C102.1,42.5,101.8,42.3,101.6,42.6z
			 M116.2,30.2c0.2,0.1,0.3,0.2,0.5,0.2c0.1-0.1,0.2-0.2,0.2-0.4c-0.1-0.2-0.3-0.4-0.5-0.5C116.2,29.7,116.1,29.8,116.2,30.2z
			 M141.6,16.2c0.2,0.3,0.5,0.4,0.8,0.2c0.1-0.5-0.3-0.5-0.6-0.6c-0.1,0.1-0.1,0.2-0.2,0.3C141.7,16.1,141.7,16.1,141.6,16.2z
			 M97.8,44.4c0.6-0.6,0.6-0.6,0-1.1C97.7,43.6,97.6,44,97.8,44.4z M202.3,34.1c0.4-0.2,0.7,0,0.9-0.2c0.1-0.5-0.4-0.4-0.6-0.6
			C202.4,33.5,202.5,33.8,202.3,34.1z M105.3,116.2c0.3,0.1,0.7,0.1,0.8-0.3c-0.1-0.2-0.3-0.3-0.6-0.3
			C105.3,115.7,105.2,115.9,105.3,116.2z M210.7,88.1c0.3-0.4-0.1-0.5-0.3-0.7c-0.2-0.1-0.4,0-0.4,0.3
			C210.1,88,210.4,88.1,210.7,88.1z M214.1,100.3c-0.4-0.2-0.6,0.1-0.8,0.4C213.9,101,213.9,101,214.1,100.3z M201,110.5
			c-0.2,0-0.3-0.2-0.4-0.2c-0.3,0.2-0.3,0.4-0.3,0.6c0.2,0.1,0.4,0.3,0.6,0.3C201.1,111,201.1,110.8,201,110.5z M212.4,78.7
			c0.3,0,0.4-0.2,0.6-0.3c-0.2-0.1,0-0.4-0.2-0.5c-0.1,0.1-0.4,0.1-0.5,0.3C212.2,78.3,212.3,78.5,212.4,78.7z M120.3,36.1
			c0.2-0.2,0.4-0.3,0.5-0.6c-0.2-0.2-0.4-0.1-0.6-0.1C120.1,35.5,119.8,35.8,120.3,36.1z M205.9,53.4c0.2-0.1,0.3-0.4,0.3-0.5
			c-0.1-0.1-0.2-0.2-0.4-0.2c-0.2,0.2-0.3,0.3-0.3,0.6C205.6,53.4,205.8,53.4,205.9,53.4z M185.4,33.7c-0.2-0.1-0.4-0.1-0.6,0
			c0,0.3-0.3,0.6,0.2,0.7C185.3,34.2,185.4,34,185.4,33.7z M119.1,99.4c0.2-0.6,0.2-0.8-0.1-0.8c-0.2,0.1-0.3,0.3-0.4,0.6
			C118.8,99.3,118.9,99.3,119.1,99.4z M111.8,31.8c0.5,0.1,0.9,0.2,1.1-0.4C112.5,31.3,112.2,31.4,111.8,31.8z M212.5,42.2
			c-0.5-0.1-0.7,0.1-0.7,0.6C212.3,43,212.3,42.6,212.5,42.2z M205.7,59.9c-0.1-0.1-0.1-0.4-0.4-0.5c-0.2,0.2-0.5,0.3-0.2,0.7
			C205.3,60,205.6,60.1,205.7,59.9z M192.9,113c-0.2-0.3-0.3-0.6-0.8-0.4c-0.1,0.1-0.1,0.3,0,0.4C192.3,113.1,192.6,113.2,192.9,113
			z M103.1,93.7c0,0.2,0.1,0.3,0.3,0.4c0.2-0.3,0.3-0.6,0-0.9C103.3,93.3,103.2,93.5,103.1,93.7z M98.2,80.1
			c0.3-0.1,0.5-0.3,0.3-0.7c-0.2,0.2-0.4,0.1-0.6,0.4C97.9,79.9,98,80,98.2,80.1z M214.6,51c-0.3,0.1-0.6,0-0.8-0.2
			C214.2,51.5,214.3,51.6,214.6,51z M214.5,61.8c0.1,0.3,0.2,0.5,0.6,0.4c0,0,0.1-0.1,0.1-0.1c-0.1-0.2-0.2-0.4-0.4-0.5
			C214.6,61.7,214.5,61.7,214.5,61.8z M150.2,45.2c-0.5,0.5-0.5,0.5,0,0.8C150.3,45.8,150.3,45.5,150.2,45.2z M100.2,34.4
			c-0.3-0.1-0.4-0.4-0.7-0.3c-0.1,0.4,0,0.6,0.3,0.6C100,34.7,100.1,34.6,100.2,34.4z M112.6,48.5c-0.2,0.1-0.3,0.3-0.3,0.5
			c0.2,0.2,0.3,0.3,0.6,0.1C112.9,48.9,112.8,48.7,112.6,48.5z M121.8,100.1c-0.6,0.2-0.3,0.5-0.4,0.8
			C122,100.8,121.9,100.5,121.8,100.1z M213.9,40c-0.2-0.3-0.3-0.5-0.6-0.5C213.2,40.2,213.2,40.2,213.9,40z M191.9,41.4
			c-0.1-0.1,0-0.3-0.2-0.4c-0.1,0.2-0.4,0-0.5,0.2c0,0.2,0.1,0.3,0.3,0.4C191.7,41.6,191.8,41.5,191.9,41.4z M147.8,12.2
			c-0.4,0.1-0.4,0.4-0.5,0.7C148,12.7,148,12.7,147.8,12.2z M193.4,112.7c-0.3,0.5-0.3,0.5-0.1,1C193.6,113.4,193.5,113,193.4,112.7
			z M100.3,94.9c-0.3,0.1-0.8,0-0.6,0.6C100.1,95.4,100.2,95.2,100.3,94.9z M192.7,45.9c-0.1-0.3-0.3-0.5-0.6-0.6
			c0,0.2-0.1,0.4,0,0.6C192.3,46,192.5,46,192.7,45.9z M191.2,47.8c-0.3,0-0.4,0.2-0.6,0.5c0.2,0,0.4,0.3,0.6,0.1
			C191.4,48.2,191.3,48,191.2,47.8z M162.3,6.2c-0.5-0.1-0.7,0-0.8,0.4C161.9,6.8,162.1,6.6,162.3,6.2z M188.8,118.2
			c0.1,0.4,0.1,0.4,0.5,0.4c0.1,0,0.2-0.1,0.2-0.3C189.4,118.2,189.2,118.1,188.8,118.2z M211.1,92.6c0.5-0.2,0.4-0.6,0.5-1
			C211.2,91.8,211.2,92.2,211.1,92.6z M179.9,23.8c0,0.5,0,0.6,0.3,0.6c0.1-0.1,0.1-0.3,0.2-0.4C180.2,23.9,180.1,23.8,179.9,23.8z
			 M119.9,25.2c0.1-0.5,0-0.7-0.4-0.9C119.3,24.7,119.4,25,119.9,25.2z M212.2,53.9c0.3,0.1,0.5,0,0.6-0.3c-0.1-0.2-0.2-0.3-0.5-0.3
			C212.4,53.4,212.1,53.6,212.2,53.9z M154.6,5.8c0.4,0.3,0.4,0.3,0.8,0C155.1,5.7,154.9,5.5,154.6,5.8z M112.8,41.6
			c0.3,0.4,0.3,0.4,0.8,0.2C113.3,41.7,113.1,41.5,112.8,41.6z M102.1,103.9c0.5,0.1,0.5-0.3,0.6-0.7
			C102.3,103.4,102.1,103.6,102.1,103.9z M97.7,104.7c0.2,0.1,0.4,0.6,0.8,0C98.3,104.7,98,104.5,97.7,104.7z M109.6,47.3
			c0.3-0.1,0.6-0.1,0.7-0.4C109.9,46.8,109.7,46.7,109.6,47.3z M109.6,36.5c0-0.4-0.2-0.5-0.5-0.4C109,36.5,109.2,36.7,109.6,36.5z
			 M98.6,108.8c0.4,0,0.7,0,0.9-0.4C99.1,108.2,98.9,108.5,98.6,108.8z M202,96.8c-0.7,0.2-0.7,0.2-0.6,0.7
			C201.6,97.3,201.7,97.1,202,96.8z M202.2,114.4c-0.4,0-0.4,0-0.6,0.5C201.9,114.9,202.1,114.8,202.2,114.4z M203,76.7
			c0.4,0.1,0.4-0.1,0.4-0.4c-0.2,0-0.3-0.1-0.4,0C202.9,76.4,202.9,76.5,203,76.7z M105.2,55.1c-0.1,0.1-0.2,0.2-0.2,0.3
			c0.1,0.2,0.2,0.4,0.4,0.3C105.5,55.4,105.4,55.3,105.2,55.1z M190.5,36.8c-0.2-0.1-0.4-0.1-0.6,0c-0.1,0.2-0.1,0.3,0.1,0.5
			C190.2,37.2,190.5,37.1,190.5,36.8z M139.2,39.1c-0.3,0.5,0.1,0.5,0.4,0.6C139.7,39.4,139.5,39.2,139.2,39.1z M100.4,38.5
			c0.2,0.3,0.4,0.3,0.7,0.1C100.9,38.3,100.8,38,100.4,38.5z M200.3,32.4c0.1-0.2,0.1-0.3,0-0.5c-0.3,0-0.4,0.1-0.4,0.4
			C200,32.4,200.1,32.4,200.3,32.4z M158.4,25.5c-0.2-0.2-0.4-0.2-0.5,0c0,0.1,0,0.3,0.1,0.4C158.2,25.9,158.3,25.8,158.4,25.5z
			 M211.2,73.9c0,0.2-0.1,0.4,0.2,0.4c0.1-0.1,0.2-0.3,0.2-0.5C211.5,73.7,211.4,73.8,211.2,73.9z M126.9,121.2
			c0.3,0.2,0.5,0.4,0.8,0.2C127.5,121.2,127.4,121,126.9,121.2z M208.4,54.3c-0.3,0.2-0.3,0.4-0.1,0.7
			C208.6,54.8,208.6,54.6,208.4,54.3z M200.2,92.7c0.2,0,0.3,0.3,0.6,0.2c0.1-0.2,0-0.4-0.2-0.4C200.4,92.5,200.3,92.5,200.2,92.7z
			 M140.3,25.4c-0.2,0-0.3,0.1-0.4,0.3c0.1,0.2,0.3,0.3,0.6,0.2C140.4,25.7,140.3,25.6,140.3,25.4z M117.4,34c0.3,0.3,0.5,0.3,0.6,0
			C117.8,33.6,117.6,33.6,117.4,34z M216,48c-0.3-0.1-0.5-0.2-0.7,0.1C215.6,48.4,215.8,48.3,216,48z M215.2,97.5
			c-0.2,0.2-0.2,0.4,0,0.6C215.3,97.9,215.4,97.7,215.2,97.5z M141.5,23.4c0.1-0.2,0.4-0.2,0.4-0.5c-0.2,0-0.4-0.1-0.6,0
			C141.4,23.1,141.4,23.2,141.5,23.4z M105.7,48.6c0.1-0.2,0.2-0.3,0-0.5c-0.2,0-0.3,0.1-0.4,0.2C105.4,48.5,105.5,48.7,105.7,48.6z
			 M94.5,99c0.1-0.1,0.2-0.2,0.3-0.3c-0.1-0.1-0.2-0.4-0.4-0.2C94.2,98.6,94.3,98.8,94.5,99z M97.7,86.9c0.2-0.1,0.3-0.2,0.4-0.4
			c-0.1-0.1-0.1-0.2-0.3-0.2C97.6,86.5,97.6,86.7,97.7,86.9z M209.8,94.7c0,0.2,0,0.3,0.3,0.4c0.1-0.1,0.3-0.2,0.2-0.4
			C210.1,94.5,209.9,94.6,209.8,94.7z M115.3,32.4c-0.2-0.3-0.4-0.3-0.7-0.1C114.9,32.4,115.1,32.5,115.3,32.4z M150.4,63.8
			c0.1-0.2,0.2-0.5-0.2-0.6C150,63.5,150.1,63.7,150.4,63.8z M203.4,45c0.2-0.3,0.1-0.5,0-0.7C203.1,44.5,203.1,44.8,203.4,45z
			 M102,85.7c0.1-0.2,0-0.3-0.2-0.4C101.9,85.5,101.8,85.7,102,85.7z M104.8,93.8c-0.2,0.3-0.5,0.4-0.2,0.6
			C104.8,94.2,104.8,94.1,104.8,93.8z M178.8,105.5c0.4,0.3,0.4,0.3,0.6,0C179.2,105.3,179,105.4,178.8,105.5z M110,108.1
			c0.2,0.1,0.4,0.1,0.5-0.1c0-0.2-0.1-0.3-0.2-0.4C110.2,107.8,110.1,107.9,110,108.1z M122,111.2c0.3,0,0.5,0.1,0.6-0.2
			C122.3,110.9,122.2,111.1,122,111.2z M151.7,25c-0.3-0.2-0.4-0.4-0.7-0.3C151.2,24.9,151.4,25.1,151.7,25z M115.7,110.9
			c0.1,0.1,0,0.4,0.2,0.4C116.1,111,115.9,110.9,115.7,110.9z M94.1,37.9c-0.1,0.2-0.1,0.3,0,0.5c0-0.1,0.4-0.1,0.2-0.4
			C94.3,38,94.2,38,94.1,37.9z M123.6,30.4c0.2-0.3,0.1-0.4-0.1-0.5C123.3,30.1,123.3,30.3,123.6,30.4z M209.1,72.6
			c0.2-0.2,0-0.4,0-0.6C208.9,72.3,208.9,72.4,209.1,72.6z M179.5,38c0-0.2,0.2-0.3,0.1-0.4c-0.1-0.1-0.2-0.1-0.3,0
			C179.2,37.7,179.3,37.7,179.5,38z M207.9,110.9c-0.2-0.1-0.4,0-0.5,0.4C207.6,111.1,207.9,111.4,207.9,110.9z M106.2,109.3
			c0.1-0.1,0.1-0.2,0-0.4c-0.1,0-0.2,0-0.2,0.1C106,109.2,106.1,109.2,106.2,109.3z M140.9,54.8c0.3,0,0.5,0.1,0.5-0.3
			C141.2,54.4,141.1,54.6,140.9,54.8z M125.1,27.2c-0.2,0.1-0.4,0.2-0.2,0.4C125.1,27.6,125.2,27.5,125.1,27.2z M207.9,36.6
			c0.2,0,0.4,0.1,0.4-0.3C208.1,36.3,208,36.4,207.9,36.6z M110.2,83.3c0.2,0.1,0.3,0.2,0.4,0.2C110.7,83.2,110.5,83.2,110.2,83.3z
			 M118.3,105.5c0,0.3,0,0.3,0.1,0.4C118.5,105.8,118.5,105.7,118.3,105.5z M115.4,37.2c0.2,0.2,0.2,0.2,0.4,0
			C115.7,37.1,115.6,37,115.4,37.2z M114.7,39.4c0.3-0.2,0.2-0.3,0-0.4C114.7,39.1,114.6,39.2,114.7,39.4z M145.5,10.9
			c-0.2,0.1-0.3,0.2-0.2,0.4C145.6,11.3,145.6,11.1,145.5,10.9z M204.4,87.7c0.1-0.1,0.1-0.2,0-0.3
			C204.3,87.5,204.3,87.6,204.4,87.7z M210.5,70.1c-0.1-0.1-0.2-0.1-0.3,0C210.3,70.2,210.4,70.2,210.5,70.1z M197.5,30.9
			c0.2,0.1,0.3,0.1,0.2-0.2C197.6,30.8,197.6,30.8,197.5,30.9z M176.6,18.6c-0.1-0.1-0.2-0.1-0.3,0
			C176.4,18.7,176.5,18.7,176.6,18.6z M111.4,94.3c0-0.2,0-0.3-0.3-0.2C111.2,94.2,111.2,94.3,111.4,94.3z M210.1,95.6
			c-0.1,0-0.2-0.1-0.3,0C209.9,95.7,210,95.6,210.1,95.6z M208.4,43.6c0-0.2,0.1-0.4-0.2-0.3C208.2,43.5,208.3,43.6,208.4,43.6z
			 M101.4,31.9c0.1,0,0.1,0.1,0.1,0.1c0.1,0,0.1-0.1,0-0.1C101.5,31.9,101.4,31.9,101.4,31.9z M103.6,107.5c-0.1,0-0.2-0.1-0.2,0.1
			C103.5,107.6,103.5,107.6,103.6,107.5z M104.6,104.8c-0.1,0.1-0.1,0.1,0,0.2C104.7,104.9,104.7,104.9,104.6,104.8z M206.6,57.2
			c0,0.1-0.1,0.2,0,0.2C206.7,57.4,206.7,57.3,206.6,57.2z M121.4,39.4c0,0-0.1-0.1-0.1,0C121.3,39.4,121.3,39.4,121.4,39.4z
			 M214.5,37.4c0,0,0.1-0.1,0.1-0.1c0-0.1-0.1-0.1-0.1,0C214.5,37.3,214.5,37.4,214.5,37.4z M98.7,97.6c-0.1,0.1-0.1,0.2,0,0.2
			C98.7,97.7,98.7,97.6,98.7,97.6z M177.1,121.4C177.1,121.4,177,121.5,177.1,121.4c-0.1,0.2-0.1,0.2,0,0.2
			C177.2,121.6,177.2,121.5,177.1,121.4z M159,12.3c0.1-0.1,0.1-0.1,0-0.2C159,12.1,159,12.2,159,12.3z M120.4,109.7
			c0,0.1-0.1,0.1,0,0.1C120.4,109.8,120.4,109.7,120.4,109.7z M214.4,44.3C214.3,44.2,214.3,44.3,214.4,44.3c-0.1,0.1,0,0.1,0,0.1
			C214.4,44.3,214.4,44.3,214.4,44.3z M204,99.6c0.1,0,0.2,0.1,0.2,0C204.2,99.5,204.1,99.5,204,99.6z M109,47.2
			C109,47.2,108.9,47.2,109,47.2C109,47.3,109,47.3,109,47.2C109,47.2,109,47.2,109,47.2z M108.6,43L108.6,43L108.6,43L108.6,43z
			 M102.1,104.6C102.1,104.6,102.1,104.6,102.1,104.6c-0.1,0.1,0,0.1,0,0.1C102.1,104.6,102.2,104.6,102.1,104.6
			C102.2,104.6,102.1,104.6,102.1,104.6z M124.9,27.9L124.9,27.9L124.9,27.9L124.9,27.9z M211,38.1C211,38.1,210.9,38.1,211,38.1
			c-0.1,0-0.1,0-0.1,0C210.9,38.1,210.9,38.2,211,38.1C210.9,38.2,211,38.1,211,38.1z M205.9,35.2C205.9,35.2,205.9,35.2,205.9,35.2
			c-0.1-0.1-0.1,0-0.1,0C205.8,35.2,205.8,35.3,205.9,35.2C205.9,35.3,205.9,35.2,205.9,35.2z M143.3,20.4L143.3,20.4L143.3,20.4
			L143.3,20.4z M212.9,107.5L212.9,107.5L212.9,107.5L212.9,107.5z"/>
		<path class="st0" d="M158.9,103c0.1,0.1,0.3,0.1,0.4,0.2c0.1,0.1,0.2,0.2,0.3,0.2c0.1,0.3,0.1,0.6,0,0.8c-0.3,0.4-0.7,0.8-1.2,1
			c-0.2-0.1-0.4-0.2-0.5-0.3c-0.3-0.2-0.1-0.6-0.4-0.8C157.7,103.5,158.1,103.1,158.9,103z"/>
		<path class="st0" d="M165.3,103.5c0.6,0.2,1,0.6,1.1,1.3c-0.3,0.5-0.7,0.8-1.3,0.8c-0.3-0.1-0.5-0.4-0.7-0.6
			C164.3,104,164.4,103.8,165.3,103.5z"/>
		<path class="st0" d="M156.6,105.9c0.4-0.1,0.7-0.2,1-0.2c0.2,0,0.3,0.2,0.5,0.4c-0.3,0.4,0.2,0.8-0.1,1.2c-0.5,0-0.9,0.2-1.5,0
			c0-0.3-0.2-0.5-0.6-0.7C156.2,106.2,156.5,106.1,156.6,105.9z"/>
		<path class="st0" d="M176.5,65.4c0.2-0.3,0.5-0.6,0.3-0.9c0.2-0.1,0.4-0.2,0.6-0.3c0.3,0.1,0.7,0.2,1.1,0.5c0,0.8-0.4,1.2-1.1,1.4
			C177,66,176.8,65.7,176.5,65.4z"/>
		<path class="st0" d="M175,94.8c0.2,0.5,0.1,0.8-0.2,1.2c-0.3,0-0.7,0.1-0.9,0.2c-0.5-0.2-0.5-0.6-0.6-0.8c0.1-0.6,0.5-0.8,0.9-1
			C174.4,94.5,174.7,94.7,175,94.8z"/>
		<path class="st0" d="M161.4,106.3c-0.5,0.1-0.8-0.1-1.1-0.5c0-0.5,0.3-0.9,0.8-1.2c0.5-0.2,0.8,0.3,1.1,0.6
			C162.2,105.8,161.7,106,161.4,106.3z"/>
		<path class="st0" d="M147.6,105.4c-0.3,0.1-0.5,0.1-0.6,0.1c-0.2-0.2-0.3-0.5-0.3-0.6c-0.3-0.5,0.4-0.9,1.7-1.1
			c0.2,0.3,0.4,0.5,0.3,0.9C148.2,104.8,147.8,105,147.6,105.4z"/>
		<path class="st0" d="M188.2,75.8c0.1-0.7,0.5-1.1,1.1-1.3c0.5,0.1,0.9,0.4,1,1C189.5,76.3,189.1,76.3,188.2,75.8z"/>
		<path class="st0" d="M151.9,77.9c0.2,0,0.4,0,0.6,0c0.1,0.2,0.3,0.4,0.4,0.6c0.1,0.4-0.3,1-0.9,1.2c-0.2-0.2-0.5-0.3-0.7-0.5
			C151.2,78.6,151.2,78.6,151.9,77.9z"/>
		<path class="st0" d="M161.7,102.9c0.2-0.4,0.3-0.7,0.7-0.9c1,0.2,1.2,0.8,0.6,1.8C162.1,103.7,162.1,103.7,161.7,102.9z"/>
		<path class="st0" d="M162.4,116c0.4,0.4,0.4,0.8,0.3,1.3c-0.7,0.3-1.2,0-1.7-0.5c0.1-0.5,0.3-0.8,0.7-1
			C161.9,115.8,162.1,115.9,162.4,116z"/>
		<path class="st0" d="M154.9,105.8c-0.3,0.1-0.6,0.1-0.9,0c-0.2-0.4-0.7-0.7-0.4-1.3c0.4-0.3,0.9-0.3,1.4-0.1
			C155.3,104.9,155.4,105.3,154.9,105.8z"/>
		<path class="st0" d="M135.3,77.2c-0.6-0.9-0.6-0.9,0.1-1.6c0.6,0.1,1,0.3,1.2,1c-0.1,0.2-0.4,0.4-0.5,0.6
			C135.8,77.3,135.6,77.3,135.3,77.2z"/>
		<path class="st0" d="M173.6,52c0.4,0,0.7-0.3,1.2,0c0.1,0.3,0.2,0.5,0.2,0.8c0,0.3-0.2,0.4-0.4,0.5c-0.6,0.2-1,0-1.3-0.6
			C173.4,52.6,173.3,52.3,173.6,52z"/>
		<path class="st0" d="M151.5,102.7c0.5,0.1,0.5,0.1,1.1,0.6c0.1,0.2-0.3,0.5,0.1,0.8c-0.2,0.2-0.5,0.4-0.7,0.6
			c-0.5-0.1-0.7-0.4-0.8-0.8C151.2,103.5,151.3,103.1,151.5,102.7z"/>
		<path class="st0" d="M147.4,80.6c0-0.6-0.1-1.1,0.3-1.5c0.9,0.4,1.1,0.6,1.1,1.5c-0.1,0.3-0.5,0.1-0.7,0.3
			C147.8,80.9,147.7,80.6,147.4,80.6z"/>
		<path class="st0" d="M167,102.6c-0.4-0.2-0.7-0.3-0.9-0.6c0.1-0.2,0.1-0.5,0.2-0.6c0.3-0.3,0.6-0.2,0.9-0.4
			c0.2,0.1,0.4,0.2,0.6,0.4c0.1,0.2,0,0.4,0.1,0.7C167.6,102.2,167.3,102.4,167,102.6z"/>
		<path class="st0" d="M165.1,106.7c-0.7-0.1-0.5,0.5-0.7,0.8c-0.3,0.2-0.5,0.2-0.7,0.1c-0.7-0.5,0.2-1-0.3-1.5
			C164.1,105.8,164.3,105.8,165.1,106.7z"/>
		<path class="st0" d="M170.2,101c0-0.3-0.1-0.6,0-0.9c0.2-0.3,0.6-0.4,0.9-0.5c0.4,0.8,0.4,1-0.2,1.9
			C170.5,101.5,170.4,101.2,170.2,101z"/>
		<path class="st0" d="M184,84.1c-0.2-0.4-0.3-0.8,0.1-1.2c0.4-0.1,1-0.2,1.3,0.4c0,0.5-0.2,0.8-0.7,1
			C184.5,84.1,184.3,84.1,184,84.1z"/>
		<path class="st0" d="M161,81.6c-0.1-0.3-0.4-0.5-0.4-0.8c0.1-0.6,0.7-0.4,1-0.7c0.3,0.3,0.5,0.6,0.8,0.9c0,0.2-0.1,0.4-0.4,0.6
			C161.7,81.6,161.4,81.6,161,81.6z"/>
		<path class="st0" d="M148.2,86.3c-0.1,0.5-0.7,0.7-0.7,1.1c-0.5,0.2-0.8,0-1.1-0.3c0.1-0.4,0.2-0.8,0.6-1.1
			C147.5,86.1,147.9,85.9,148.2,86.3z"/>
		<path class="st0" d="M167.6,98.9c0.5-0.1,1,0,1.3-0.3c0.4,0.2,0.3,0.4,0.3,0.7c-0.1,0.3-0.4,0.4-0.6,0.6c-0.2,0.1-0.5,0.1-0.7,0
			C167.7,99.7,167.8,99.3,167.6,98.9z"/>
		<path class="st0" d="M166.5,79.9c-0.3,0-0.4,0.3-0.6,0.4c-0.3-0.1-0.7-0.2-0.9-0.6c0.1-0.2,0.4-0.4,0.4-0.7
			c0.3-0.1,0.5-0.2,0.7-0.3C166.6,79,166.6,79.4,166.5,79.9z"/>
		<path class="st0" d="M175.8,67c0.5,0.1,0.9,0.1,1.2,0.6c0.1,0.4-0.1,0.7-0.3,0.9C175.7,68.4,175.4,68,175.8,67z"/>
		<path class="st0" d="M144.6,102.8c0.5,0,0.8-0.5,1.3,0c0,0.6-0.5,1-0.8,1.4C144.4,104,144.4,104,144.6,102.8z"/>
		<path class="st0" d="M152.5,131.9c0.3-0.1,0.5-0.1,0.7,0c0.5,0.8,0.5,0.8-0.2,1.4c-0.2-0.1-0.4-0.1-0.7-0.2
			C152.1,132.7,152.1,132.3,152.5,131.9z"/>
		<path class="st0" d="M167.7,77.8c-0.5-0.1-0.9,0-1.2-0.5c0.2-0.5,0.5-0.9,1.1-0.7c0.2,0.2,0.3,0.4,0.3,0.6
			C167.9,77.3,167.8,77.5,167.7,77.8z"/>
		<path class="st0" d="M140.1,79.5c0-0.7,0.6-0.6,0.9-0.8c0.4,0.2,0.5,0.4,0.7,0.6C141.2,80,141.2,80,140.1,79.5z"/>
		<path class="st0" d="M175,92.5c0.2-0.3,0.5-0.5,0.9-0.4c0.2,0.1,0.2,0.5,0.5,0.4c-0.2,0.4-0.4,0.6-0.7,0.8
			C175.3,93.3,175.1,93,175,92.5z"/>
		<path class="st0" d="M169.1,80.7c-0.5,1-0.7,1.1-1.5,0.6c0-0.4,0.1-0.7,0.7-0.9C168.5,80.4,168.7,80.8,169.1,80.7z"/>
		<path class="st0" d="M130.8,65.7c0.2,0.2,0.5,0.3,0.7,0.4c0.1,0.4-0.1,0.7-0.4,0.8c-0.4,0.1-0.6-0.1-0.8-0.3c0-0.2-0.1-0.5,0-0.7
			C130.4,65.8,130.7,65.9,130.8,65.7z"/>
		<path class="st0" d="M169.1,78.4c0.1-0.4,0.4-0.6,0.7-0.8c0.3,0.2,0.4,0.5,0.5,0.8c0,0.4-0.5,0.5-0.7,0.8
			C169.2,79,169.3,78.6,169.1,78.4z"/>
		<path class="st0" d="M176,61.3c-0.1-0.2-0.1-0.4-0.2-0.6c0.1-0.2,0.2-0.3,0.5-0.4c0.4,0,0.7,0.1,0.9,0.5c0,0.3-0.3,0.4-0.4,0.5
			C176.5,61.4,176.3,61.2,176,61.3z"/>
		<path class="st0" d="M189.2,68.3c0.4,0.1,0.7-0.6,1.2-0.1c-0.4,0.2,0.1,0.6-0.2,0.9c-0.1,0.2-0.4,0.1-0.5,0.3
			C189.3,69,189.1,68.8,189.2,68.3z"/>
		<path class="st0" d="M144.5,78c0.5,0.2,0.9,0.4,1.4,0.5c0,0.4-0.3,0.5-0.4,0.7C144.5,79,144.5,79,144.5,78z"/>
		<path class="st0" d="M150.8,106.5c-0.2,0.2-0.3,0.4-0.6,0.4c-0.3-0.1-0.5-0.3-0.6-0.6c0-0.3,0.3-0.5,0.5-0.6
			C150.6,105.7,150.7,106,150.8,106.5z"/>
		<path class="st0" d="M146.6,83.1c-0.5-0.2-0.6-0.6-0.8-1c0-0.3,0.3-0.2,0.4-0.3c0.3,0.1,0.4,0.4,0.7,0.4
			C147.2,82.7,147,82.9,146.6,83.1z"/>
		<path class="st0" d="M174,70.2c0.2-0.1,0.4-0.2,0.6-0.3c0.3,0,0.3,0.3,0.5,0.4c-0.1,0.4-0.3,0.7-0.6,0.9
			C174.1,71,173.8,70.8,174,70.2z"/>
		<path class="st0" d="M138.6,77.3c0.2,0.1,0.4,0.2,0.5,0.3c0.1,0.3,0,0.4-0.4,0.8c-0.2-0.1-0.4-0.1-0.6-0.2
			c-0.1-0.2-0.1-0.4-0.2-0.6C138,77.3,138.4,77.5,138.6,77.3z"/>
		<path class="st0" d="M152.8,82.4c0.2-0.1,0.4-0.2,0.6-0.3c0.3,0.4,0.4,0.8,0.3,1.2c-0.3,0.1-0.5,0.2-0.8,0
			C152.6,83.1,153,82.7,152.8,82.4z"/>
		<path class="st0" d="M179.3,63.6c-0.3-0.3-0.6-0.2-0.7-0.5c0.1-0.2,0.6-0.4,0.1-0.7c0.2-0.2,0.4-0.1,0.5-0.3
			c0.3,0.1,0.4,0.3,0.6,0.5C179.7,63,179,62.9,179.3,63.6z"/>
		<path class="st0" d="M180.4,91.4c0.1,0.4-0.2,0.6-0.4,0.8c-0.3,0.1-0.6,0-0.7-0.3c-0.1-0.4,0.2-0.6,0.4-0.9
			C180.1,91.1,180.3,91.2,180.4,91.4z"/>
		<path class="st0" d="M142.5,77.6c-0.2-0.2-0.3-0.3-0.5-0.4c0.1-0.2,0.1-0.4,0.2-0.6c0.4-0.3,0.8,0,1,0.7c-0.1,0.2-0.2,0.1-0.4,0.2
			C142.7,77.5,142.6,77.6,142.5,77.6z"/>
		<path class="st0" d="M189.5,61.8c0.7-0.5,0.8-0.4,1.3,0.3c-0.1,0.3-0.3,0.4-0.6,0.5C189.8,62.5,189.6,62.2,189.5,61.8z"/>
		<path class="st0" d="M155.2,122.5c0.3,1.1,0.1,1.3-0.9,1.5C154.4,123.3,154.8,123,155.2,122.5z"/>
		<path class="st0" d="M148.8,102.4c0.5-0.2,0.7,0.2,1.1,0.2c-0.4,0.6-0.4,0.6-1.3,0.5C148.4,102.9,149,102.8,148.8,102.4z"/>
		<path class="st0" d="M172,76.2c-0.4,0.1-0.8,0.1-0.9-0.2c-0.1-0.6,0.4-0.5,0.3-0.8c0.3-0.1,0.4,0.1,0.7,0.2
			C172.2,75.6,172.2,75.9,172,76.2z"/>
		<path class="st0" d="M148.1,129.2c-0.1,0.2-0.1,0.5-0.3,0.8c-0.2,0-0.4-0.1-0.6-0.3c-0.1-0.3-0.1-0.5,0.1-0.8
			C147.5,128.9,147.8,128.9,148.1,129.2z"/>
		<path class="st0" d="M154.6,116c0.1-0.2,0.4-0.3,0.6-0.4c0.3,0.2,0.3,0.5,0.5,0.7c-0.2,0.3-0.4,0.4-0.7,0.5
			C154.8,116.6,154.6,116.4,154.6,116z"/>
		<path class="st0" d="M187.7,71.6c0.2-0.3,0.5-0.6,0.9-0.5c0.2,0.4,0,0.7-0.1,1C188.2,72.1,187.8,72.2,187.7,71.6z"/>
		<path class="st0" d="M160.5,87.3c0.3-0.1,0.6-0.2,0.9,0.1c0.1,0.2-0.1,0.5-0.1,0.7c-0.3,0.2-0.5,0-0.7,0
			C160.4,87.8,160.3,87.6,160.5,87.3z"/>
		<path class="st0" d="M156.2,103.2c-0.4,0.1-0.6,0.1-0.9,0.1c-0.4-0.3,0.1-0.6,0-0.9c0.3-0.1,0.6-0.2,0.8-0.1
			C156.4,102.7,155.8,102.9,156.2,103.2z"/>
		<path class="st0" d="M187,80.7c-0.2,0.3-0.2,0.6-0.5,0.7c-0.2,0-0.4-0.1-0.6-0.3c0-0.5,0.5-0.5,0.8-0.7
			C186.8,80.4,186.9,80.5,187,80.7z"/>
		<path class="st0" d="M139.1,75.3c0.4-0.2,0.8-0.6,1.2-0.2c0.1,0.3,0,0.6-0.3,0.7C139.6,75.9,139.3,75.7,139.1,75.3z"/>
		<path class="st0" d="M153.5,107.5c0.1,0.4-0.1,0.6-0.3,0.8c-0.8,0-0.8,0-0.6-0.7C152.9,107.4,153.2,107.4,153.5,107.5z"/>
		<path class="st0" d="M131.9,71.3c-0.2-0.2-0.3-0.3-0.5-0.5c0.2-0.4,0.5-0.7,0.8-0.6c0.4,0.2,0,0.6,0.3,0.7
			C132.4,71.1,132.2,71.2,131.9,71.3z"/>
		<path class="st0" d="M151.1,117.8c-0.3-0.1-0.6-0.2-0.6-0.7c0.2-0.4,0.5-0.4,0.9-0.3C151.7,117.3,151.3,117.6,151.1,117.8z"/>
		<path class="st0" d="M157.2,124c0.2,0,0.4,0.1,0.6,0.3c0.1,0.2,0.2,0.5,0,0.8c-0.2,0.2-0.3-0.1-0.6-0.1
			C157.3,124.6,156.8,124.3,157.2,124z"/>
		<path class="st0" d="M133,74.7c0.4,0,0.7,0.1,1,0.1c0.2,0.3-0.1,0.5-0.2,0.8c-0.3-0.2-0.7-0.1-0.9-0.4C132.7,75,133,74.9,133,74.7
			z"/>
		<path class="st0" d="M169.4,74.3c-0.1,0.3-0.4,0.4-0.6,0.5c-0.3-0.2-0.3-0.5-0.5-0.7c0.1-0.2,0.3-0.4,0.6-0.4
			C169.1,73.9,169.3,74.1,169.4,74.3z"/>
		<path class="st0" d="M187.7,84.8c0,0.6-0.6,0.7-0.9,1c-0.2-0.3-0.3-0.5-0.3-0.7C186.9,84.9,187.3,84.8,187.7,84.8L187.7,84.8z"/>
		<path class="st0" d="M172.5,97.7c0.3-0.1,0.6,0,0.8,0.3c-0.1,0.2-0.1,0.5-0.4,0.6C172.3,98.4,172.3,98.4,172.5,97.7z"/>
		<path class="st0" d="M144.1,80.5c0,0.2,0,0.4,0.1,0.6c0,0.2-0.4,0.1-0.3,0.5c-0.3-0.2-0.5-0.4-0.7-0.5
			C143.2,80.4,143.7,80.5,144.1,80.5L144.1,80.5z"/>
		<path class="st0" d="M125.5,62.9c0.2,0.1,0.3,0.3,0.4,0.5c-0.1,0.4-0.3,0.6-0.8,0.5c-0.2-0.2-0.1-0.5-0.1-0.8
			C125.1,62.9,125.3,62.9,125.5,62.9z"/>
		<path class="st0" d="M161.9,91.3c0.1,0.1,0.3,0.2,0.5,0.3c0.1,0.5-0.2,0.7-0.9,0.5C161.3,91.7,161.4,91.5,161.9,91.3z"/>
		<path class="st0" d="M176.1,74.2c0.2,0.5,0,0.8-0.3,1c-0.3-0.1-0.4-0.3-0.5-0.5C175.3,74.1,175.6,74.1,176.1,74.2z"/>
		<path class="st0" d="M157.2,89.3c-0.5-0.1-0.7-0.3-0.9-0.5c0.1-0.1,0.2-0.3,0.4-0.4c0.2,0.2,0.5,0,0.8,0.4
			C157.5,88.9,157.3,89,157.2,89.3z"/>
		<path class="st0" d="M177.1,71.3c0.2,0.1,0.3,0.1,0.5,0.2c0.1,0.4,0,0.7-0.2,1c-0.2-0.1-0.4-0.2-0.6-0.5
			C176.8,71.8,176.8,71.6,177.1,71.3z"/>
		<path class="st0" d="M145.4,120.8c0.2,0,0.3,0.3,0.6,0.2c-0.2,0.3-0.3,0.5-0.5,0.7c-0.3,0-0.5,0.1-0.7-0.2
			C144.8,121.1,145.1,120.9,145.4,120.8z"/>
		<path class="st0" d="M184.5,65c0.2,0.3,0.4,0.6,0.2,0.9c-0.2,0.2-0.4,0.1-0.6,0.1c-0.2-0.2,0-0.6-0.2-0.8
			C184.1,65.1,184.3,65.1,184.5,65z"/>
		<path class="st0" d="M156,109.1c0.1,0.4-0.2,0.6-0.4,0.7c-0.2,0-0.4-0.1-0.6-0.3c-0.1-0.2,0-0.3,0.1-0.4
			C155.4,108.9,155.7,108.9,156,109.1z"/>
		<path class="st0" d="M163,77.5c0.2,0.1,0.5,0.1,0.6,0.5c-0.1,0.4-0.5,0.4-0.8,0.6C162.7,78.2,162.5,77.8,163,77.5z"/>
		<path class="st0" d="M143.4,88.1c-0.3,0.2-0.5,0.4-0.8,0.3c-0.2-0.2-0.1-0.5-0.1-0.8C143,87.5,143.3,87.5,143.4,88.1z"/>
		<path class="st0" d="M128.9,64.9c-0.3,0-0.6,0-1,0c-0.1-0.3,0.1-0.5-0.1-0.8C128.6,64,128.7,64.4,128.9,64.9z"/>
		<path class="st0" d="M189.5,82.2c-0.1,0.6-0.5,0.5-0.8,0.5c-0.1-0.2-0.3-0.4-0.1-0.7C188.9,81.8,189.2,82,189.5,82.2z"/>
		<path class="st0" d="M185.1,59.1c-0.4,0.1-0.6-0.1-0.6-0.4c0-0.3,0.2-0.5,0.5-0.6c0.1,0.1,0.2,0.2,0.3,0.3
			C185.2,58.7,185.3,58.9,185.1,59.1z"/>
		<path class="st0" d="M149.2,108.7c0,0.3-0.2,0.5-0.3,0.7c-0.2,0-0.4,0-0.6,0c0.1-0.4,0.1-0.7,0.4-1
			C148.9,108.4,149,108.5,149.2,108.7z"/>
		<path class="st0" d="M166.4,84.2c-0.1-0.4-0.1-0.7,0.3-0.9c0.3,0.1,0.5,0.2,0.6,0.6C167.1,84.4,166.7,84.3,166.4,84.2z"/>
		<path class="st0" d="M169.3,103.8c0-0.4-0.2-0.7,0.2-1c0.2,0.1,0.4,0.3,0.7,0.5C170,103.5,169.8,103.9,169.3,103.8z"/>
		<path class="st0" d="M191.8,66.5c-0.4,0.1-0.7,0.2-1-0.2c0.4-0.1,0.1-0.6,0.5-0.8C191.7,65.7,191.4,66.3,191.8,66.5z"/>
		<path class="st0" d="M129.6,63.3c-0.2-0.3-0.4-0.6-0.4-0.9c0.4-0.1,0.7,0.1,1,0.2C130.1,63,130.1,63.3,129.6,63.3z"/>
		<path class="st0" d="M167.6,112.3c0.2,0.1,0.4,0.2,0.5,0.3c-0.2,0.2,0,0.6-0.4,0.8c-0.3,0.1-0.4-0.1-0.5-0.3
			C167.2,112.7,167.5,112.5,167.6,112.3z"/>
		<path class="st0" d="M129.8,69c-0.1,0.3-0.2,0.7-0.6,0.7c-0.4-0.1-0.1-0.5-0.4-0.6C129.1,68.5,129.5,68.8,129.8,69z"/>
		<path class="st0" d="M148.4,83.8c0.4-0.3,0.7-0.2,0.8,0.3c-0.1,0.4-0.5,0.3-0.8,0.5C148.3,84.3,148.2,84.1,148.4,83.8z"/>
		<path class="st0" d="M154.3,94c-0.2,0.3-0.4,0.6-0.8,0.5c-0.2-0.3-0.2-0.6,0.2-0.8C153.9,93.7,154.1,93.9,154.3,94z"/>
		<path class="st0" d="M142.9,105.7c0.2-0.1,0.4-0.2,0.5-0.3c0.2,0,0.4,0.2,0.4,0.4c-0.1,0.3-0.3,0.5-0.6,0.5
			C143,106.2,143,106,142.9,105.7z"/>
		<path class="st0" d="M144.6,84.9c0.3-0.1,0.6-0.1,0.8,0.2c-0.1,0.2-0.2,0.5-0.4,0.7C144.5,85.6,144.4,85.3,144.6,84.9z"/>
		<path class="st0" d="M159.2,114.7c0.2,0,0.4,0.1,0.6,0.3c-0.1,0.4-0.3,0.6-0.8,0.6C158.9,115.2,158.9,114.9,159.2,114.7z"/>
		<path class="st0" d="M164.1,81.8c0.3,0,0.4,0.1,0.6,0.2c0.1,0.4,0,0.8-0.5,0.7C163.9,82.4,164,82.1,164.1,81.8z"/>
		<path class="st0" d="M181,52.6c0.6,0.2,0.6,0.5,0.3,0.9C180.6,53.4,180.6,53.4,181,52.6z"/>
		<path class="st0" d="M181.4,64.1c0.1-0.4,0.3-0.5,0.6-0.4c0.3,0.1,0.4,0.4,0.1,0.8C181.8,64.5,181.6,64.4,181.4,64.1z"/>
		<path class="st0" d="M130.7,73.7c-0.2,0.1-0.4,0.1-0.6,0.1c-0.2-0.1-0.1-0.4-0.2-0.5c0.2-0.4,0.5-0.2,0.7-0.1
			C130.8,73.3,130.8,73.5,130.7,73.7z"/>
		<path class="st0" d="M181.6,89.2c-0.3,0-0.5,0-0.6-0.3c0-0.2,0-0.3,0.7-0.5C182,88.6,182,88.9,181.6,89.2z"/>
		<path class="st0" d="M135.2,101.5c0.1-0.2,0.1-0.5,0.4-0.5c0.4,0,0.4,0.3,0.1,0.9C135.5,101.8,135.3,101.8,135.2,101.5z"/>
		<path class="st0" d="M178.4,44.9c-0.2-0.2-0.1-0.4-0.1-0.6c0.3-0.1,0.6-0.1,0.9,0.3C179,44.8,178.8,44.9,178.4,44.9z"/>
		<path class="st0" d="M171.8,104.8c0-0.3,0.2-0.3,0.3-0.4c0.4,0.1,0.4,0.4,0.6,0.6c-0.1,0.2-0.2,0.3-0.6,0.3
			C171.9,105.2,172,104.8,171.8,104.8z"/>
		<path class="st0" d="M191.3,72.4c0,0.1,0.1,0.2,0.1,0.3c-0.3,0.5-0.7,0.1-1.1,0.1C190.4,72.3,191,72.8,191.3,72.4z"/>
		<path class="st0" d="M173.6,73c-0.2,0.2-0.1,0.5-0.3,0.5c-0.4-0.1-0.5-0.4-0.2-0.9C173.3,72.6,173.4,72.8,173.6,73z"/>
		<path class="st0" d="M168.5,105.7c-0.1,0.5-0.4,0.5-0.6,0.6c-0.2-0.1-0.3-0.3-0.2-0.6C168,105.5,168.2,105.6,168.5,105.7z"/>
		<path class="st0" d="M187.4,74.8c-0.1-0.5-0.1-0.9,0.2-1.3c0.1,0.1,0.2,0.3,0.3,0.4C187.7,74.2,187.8,74.6,187.4,74.8z"/>
		<path class="st0" d="M175.7,99.7c-0.1,0.2-0.3,0.4-0.6,0.3c-0.2-0.1-0.1-0.3-0.3-0.4C175.2,99.2,175.4,99.2,175.7,99.7z"/>
		<path class="st0" d="M160,90.7c-0.3,0-0.4,0.4-0.8,0.2c0.2-0.5,0.2-0.5,0.7-0.8C160.1,90.3,160,90.5,160,90.7z"/>
		<path class="st0" d="M159.9,108c0.2,0.2,0.1,0.4,0.1,0.6c-0.2,0.2-0.4,0.1-0.6,0.1c0-0.1-0.1-0.1-0.1-0.2
			C159.3,108,159.6,107.9,159.9,108z"/>
		<path class="st0" d="M158.4,111.5c-0.3,0-0.5-0.1-0.6-0.1c-0.1-0.2-0.2-0.4-0.3-0.7C158.1,110.7,158.2,111,158.4,111.5z"/>
		<path class="st0" d="M153.7,87.3c0.6-0.8,0.6-0.8,1.3-0.4C154.6,87.2,154.2,87,153.7,87.3z"/>
		<path class="st0" d="M171.4,82.5c0.1,0.4,0,0.6-0.3,0.7c-0.3-0.1-0.5-0.2-0.4-0.6C170.9,82.4,171.1,82.5,171.4,82.5z"/>
		<path class="st0" d="M124.9,51.9c0.3,0.1,0.4,0.3,0.5,0.4c-0.1,0.3-0.3,0.4-0.6,0.4C124.5,52.4,124.7,52.1,124.9,51.9z"/>
		<path class="st0" d="M132.1,57.5c-0.1-0.3-0.2-0.6,0.2-0.8c0.2,0,0.2,0.2,0.4,0.3C132.5,57.2,132.4,57.5,132.1,57.5z"/>
		<path class="st0" d="M133.9,97.2c0.3-0.2,0.5-0.4,0.8-0.3c0.2,0.3-0.1,0.5-0.2,0.7C134.3,97.5,134.1,97.3,133.9,97.2z"/>
		<path class="st0" d="M142.8,101.7c-0.1,0.1-0.1,0.3-0.3,0.5c-0.4-0.2-0.4-0.4-0.4-0.9C142.4,101.4,142.6,101.4,142.8,101.7z"/>
		<path class="st0" d="M168.3,38.9c-0.3-0.1-0.6-0.1-0.5-0.6c0.2-0.2,0.4-0.1,0.6,0C168.6,38.5,168.5,38.7,168.3,38.9z"/>
		<path class="st0" d="M183.6,55.1c-0.2-0.8-0.2-0.8,0.5-0.7C184.1,54.7,183.8,54.8,183.6,55.1z"/>
		<path class="st0" d="M123.2,61.7c0,0.2,0,0.4-0.1,0.5c-0.5,0-0.7-0.2-0.4-0.6C122.9,61.4,123,61.7,123.2,61.7L123.2,61.7z"/>
		<path class="st0" d="M132,63.8c0.3-0.1,0.5-0.3,0.9-0.1c0,0.3-0.2,0.4-0.3,0.6C132.2,64.3,132.3,63.9,132,63.8L132,63.8z"/>
		<path class="st0" d="M172,37.5c0.1-0.3,0.3-0.5,0.6-0.6c0.2,0.2,0.1,0.4,0.1,0.6C172.4,37.7,172.2,37.7,172,37.5z"/>
		<path class="st0" d="M150.8,81.5c-0.2,0.1-0.4,0.1-0.7,0c0-0.2,0.1-0.4,0.3-0.6C150.8,80.9,150.9,81.2,150.8,81.5z"/>
		<path class="st0" d="M129.6,93.8c-0.4,0.3-0.7,0.3-1.2,0.2C128.7,93.5,129.1,93.5,129.6,93.8z"/>
		<path class="st0" d="M180.3,84.9c0.1-0.4,0.3-0.5,0.5-0.7c0.1,0.2,0.2,0.3,0.2,0.5c-0.1,0.2-0.2,0.4-0.4,0.4
			C180.4,85.1,180.4,85,180.3,84.9z"/>
		<path class="st0" d="M142.6,113c0.1-0.2,0.3-0.4,0.5-0.5c0.2,0.2,0.2,0.4,0.2,0.6C143,113,142.8,113.3,142.6,113z"/>
		<path class="st0" d="M180.9,66.4c-0.2,0.4-0.2,0.6-0.5,0.8c-0.2-0.2-0.3-0.4-0.2-0.7C180.5,66.2,180.6,66.5,180.9,66.4z"/>
		<path class="st0" d="M155.8,77.8c0.3-0.3,0.6-0.3,0.9-0.3c0,0.3-0.2,0.4-0.4,0.6C156.2,78,156.1,78,155.8,77.8z"/>
		<path class="st0" d="M131.9,77.3c-0.3,0.2-0.1,0.8-0.7,0.6C131.1,77.4,131.3,77.2,131.9,77.3z"/>
		<path class="st0" d="M159.7,83.1c0.3-0.1,0.5-0.1,0.6,0.1c0.1,0.2-0.2,0.3-0.1,0.6C159.8,83.7,159.6,83.5,159.7,83.1z"/>
		<path class="st0" d="M163.9,88.7c-0.4,0.2-0.6,0.4-0.9,0.4C163.2,88.6,163.2,88.6,163.9,88.7z"/>
		<path class="st0" d="M137.8,102.7c0.1-0.1,0.2-0.3,0.4-0.3c0.2,0,0.2,0.2,0.3,0.3c0,0.2-0.2,0.4-0.3,0.5
			C138,103.1,138,102.8,137.8,102.7L137.8,102.7z"/>
		<path class="st0" d="M147.7,123c-0.5-0.3-0.3-0.6,0-1C148.1,122.4,147.9,122.7,147.7,123z"/>
		<path class="st0" d="M159.1,78.9c0.1,0.1,0.2,0.2,0.2,0.3c-0.1,0.2-0.3,0.3-0.6,0.3c0,0-0.1-0.1-0.1-0.1
			C158.5,79,158.8,79,159.1,78.9z"/>
		<path class="st0" d="M153,114.6c-0.1,0.2-0.1,0.4-0.3,0.4c-0.2-0.2-0.2-0.4-0.2-0.6C152.7,114.2,152.8,114.4,153,114.6z"/>
		<path class="st0" d="M149.6,113.3c0.2-0.6,0.2-0.6,0.7-0.3C150.1,113.3,149.9,113.3,149.6,113.3z"/>
		<path class="st0" d="M162.5,110.4c-0.1-0.4,0-0.6,0.1-0.9C163.1,109.9,162.9,110.1,162.5,110.4z"/>
		<path class="st0" d="M131.6,59.8c-0.2,0.1-0.3,0.1-0.4,0.2c-0.1-0.2-0.2-0.3-0.3-0.5c0.1-0.2,0.3-0.3,0.4-0.3
			C131.6,59.4,131.4,59.6,131.6,59.8z"/>
		<path class="st0" d="M126.8,85.7c-0.3-0.2-0.2-0.4-0.2-0.6c0.1-0.2,0.3-0.1,0.4-0.1C127.2,85.3,127.1,85.5,126.8,85.7z"/>
		<path class="st0" d="M156.4,126.8c-0.5,0.2-0.8,0.2-1.2-0.1C155.7,126.6,156,126.5,156.4,126.8z"/>
		<path class="st0" d="M187.7,77.9c0.2,0,0.3,0,0.5,0c0,0.2,0.1,0.4-0.1,0.6C187.8,78.5,187.7,78.3,187.7,77.9z"/>
		<path class="st0" d="M182.5,68.4c0.1-0.2,0.1-0.4,0.3-0.5c0.3,0.1,0.4,0.2,0.4,0.5C183,68.6,182.8,68.4,182.5,68.4z"/>
		<path class="st0" d="M129.9,48.4c0.1-0.2,0.2-0.3,0.5-0.3c0.1,0.3-0.2,0.6,0.1,1C130,48.9,129.9,48.7,129.9,48.4z"/>
		<path class="st0" d="M131.4,52.5c0.4,0.1,0.6,0.3,0.4,0.7C131.4,53.1,131.2,52.9,131.4,52.5z"/>
		<path class="st0" d="M170.9,46.7c0,0.3-0.1,0.5-0.5,0.6C170.4,46.9,170.6,46.7,170.9,46.7z"/>
		<path class="st0" d="M173.8,66c-0.1,0.5-0.3,0.6-0.7,0.5C173.2,66.2,173.4,66.1,173.8,66z"/>
		<path class="st0" d="M146.3,107.5c-0.2,0.1-0.4,0.1-0.5,0c-0.1-0.1-0.1-0.3,0-0.4C146.2,107,146.2,107.3,146.3,107.5z"/>
		<path class="st0" d="M127.7,72.6c0.1-0.4,0.2-0.8,0.7-0.6C128.1,72.1,128.1,72.5,127.7,72.6z"/>
		<path class="st0" d="M165.1,86.5c0.1-0.4,0.3-0.5,0.6-0.3C165.7,86.4,165.5,86.6,165.1,86.5z"/>
		<path class="st0" d="M127.6,46.7c0.1,0.1,0.3,0.2,0.4,0.2c0,0.2-0.1,0.3-0.3,0.3C127.5,47.2,127.2,47.1,127.6,46.7z"/>
		<path class="st0" d="M135.6,82.9c0.1,0.1,0.1,0.3,0,0.4c-0.2,0-0.3-0.1-0.4-0.2C135.2,83,135.3,82.8,135.6,82.9z"/>
		<path class="st0" d="M151.4,86c0-0.3,0-0.5,0-0.7C151.7,85.5,151.7,85.5,151.4,86z"/>
		<path class="st0" d="M164.8,111.6c-0.1-0.3,0-0.4,0.3-0.6C165.2,111.3,165.1,111.5,164.8,111.6z"/>
		<path class="st0" d="M154.2,80.8c-0.1-0.2-0.4-0.3-0.1-0.6C154.3,80.4,154.4,80.6,154.2,80.8z"/>
		<path class="st0" d="M160.5,101.7c-0.1,0.1-0.2,0.3-0.4,0.2c0-0.1-0.1-0.1-0.1-0.2C160.1,101.6,160.3,101.6,160.5,101.7z"/>
		<path class="st0" d="M149.7,105.4c0-0.3,0.2-0.3,0.4-0.3C150.1,105.4,149.9,105.3,149.7,105.4z"/>
		<path class="st0" d="M134.2,79.1c0,0.1-0.1,0.2-0.2,0.1c-0.1,0-0.2-0.1-0.1-0.2c0-0.1,0.1-0.2,0.2-0.1
			C134.1,78.9,134.2,79,134.2,79.1z"/>
		<path class="st0" d="M154.9,80.6c-0.1-0.1-0.1-0.2-0.2-0.4C155.2,80,154.9,80.4,154.9,80.6z"/>
		<path class="st0" d="M170.7,40.1c0.1-0.1,0.1-0.2,0.3-0.2c0.1,0.1,0.1,0.3,0,0.4C170.9,40.3,170.8,40.2,170.7,40.1z"/>
		<path class="st0" d="M128.8,57.7c0.1,0.2,0.3,0.3,0.2,0.6C128.8,58.1,128.7,57.9,128.8,57.7L128.8,57.7z"/>
		<path class="st0" d="M150.1,88c-0.1,0.1-0.2,0.1-0.3,0.1C149.9,87.8,150,87.9,150.1,88z"/>
		<path class="st0" d="M170.7,89.8c-0.1,0.1-0.1,0.1-0.2,0.2c-0.2-0.1-0.1-0.2-0.1-0.4C170.6,89.6,170.6,89.7,170.7,89.8z"/>
		<path class="st0" d="M128.7,83.1c-0.2,0.1-0.3,0.1-0.3,0C128.4,83,128.6,83,128.7,83.1z"/>
		<path class="st0" d="M129.6,44.2c0,0.2-0.1,0.2-0.2,0.2C129.3,44.2,129.4,44.1,129.6,44.2z"/>
		<path class="st0" d="M137,80.4c-0.1,0.1-0.2,0.1-0.3,0C136.8,80.4,136.9,80.3,137,80.4z"/>
		<path class="st0" d="M132,63.8c-0.1,0.2,0.1,0.3,0,0.5C131.7,64.1,132.1,64,132,63.8L132,63.8z"/>
		<path class="st0" d="M172.1,44.3c-0.1-0.1-0.1-0.1,0-0.2C172.2,44.1,172.1,44.2,172.1,44.3z"/>
		<path class="st0" d="M145.7,114.4c-0.1-0.1-0.1-0.2,0-0.3C145.8,114.3,145.8,114.3,145.7,114.4z"/>
		<path class="st0" d="M144.2,80.3c-0.1,0.1-0.2,0.1-0.3,0C144,80.1,144.1,80.2,144.2,80.3L144.2,80.3z"/>
		<path class="st0" d="M153.1,101.9c0,0-0.1-0.1-0.1-0.1C153.1,101.8,153.1,101.8,153.1,101.9L153.1,101.9z"/>
		<path class="st0" d="M144.1,80.3c0.1,0,0.2,0,0.3,0.1c-0.1,0.1-0.2,0.1-0.3,0.1l0,0C144.2,80.4,144.2,80.4,144.1,80.3L144.1,80.3z
			"/>
		<path class="st0" d="M159.7,102.4c0.1-0.1,0.2,0,0.2,0C159.9,102.5,159.8,102.6,159.7,102.4z"/>
		<path class="st0" d="M150.7,103.7c0,0-0.1-0.1,0-0.1c0-0.1,0.1-0.1,0.1,0C150.8,103.7,150.8,103.7,150.7,103.7z"/>
		<path class="st0" d="M155.7,84.4c0.1-0.1,0.2-0.1,0.2,0C156,84.5,155.9,84.5,155.7,84.4z"/>
		<path class="st0" d="M180,48.4c-0.1,0.1-0.1,0.1-0.2,0C179.9,48.3,179.9,48.3,180,48.4z"/>
		<path class="st0" d="M172,69c0.1,0,0.1,0.1,0.1,0.2C171.9,69.2,172,69.1,172,69z"/>
		<path class="st0" d="M172.8,55.1c0.1,0,0.1-0.1,0.2-0.1c0.1,0,0.1,0.1,0,0.1C172.9,55.2,172.9,55.1,172.8,55.1z"/>
		<path class="st0" d="M189.1,64.5c-0.1-0.1-0.1-0.1,0-0.2C189.1,64.3,189.2,64.4,189.1,64.5z"/>
		<path class="st0" d="M137.8,102.7C137.8,102.7,137.8,102.8,137.8,102.7C137.8,102.8,137.8,102.7,137.8,102.7L137.8,102.7z"/>
		<path class="st0" d="M183.3,86.1C183.2,86,183.2,86,183.3,86.1c-0.1-0.1,0-0.1,0-0.1C183.3,86,183.3,86,183.3,86.1
			C183.3,86,183.3,86,183.3,86.1z"/>
		<path class="st0" d="M123.2,61.7c0-0.1,0-0.1,0.1-0.1C123.3,61.7,123.2,61.7,123.2,61.7C123.2,61.7,123.2,61.7,123.2,61.7z"/>
		<path class="st0" d="M128.8,57.6C128.8,57.7,128.7,57.7,128.8,57.6C128.7,57.7,128.8,57.7,128.8,57.6L128.8,57.6z"/>
		<path class="st0" d="M125.8,56.7C125.8,56.7,125.8,56.8,125.8,56.7c-0.1,0.1-0.1,0-0.1,0C125.7,56.7,125.8,56.7,125.8,56.7
			C125.8,56.7,125.8,56.7,125.8,56.7z"/>
		<polygon class="st0" points="182.4,50.5 182.4,50.6 182.3,50.6 		"/>
		<path class="st0" d="M126.3,49.6C126.4,49.6,126.4,49.7,126.3,49.6c0.1,0.1,0,0.1,0,0.1C126.3,49.7,126.3,49.7,126.3,49.6
			C126.3,49.7,126.3,49.6,126.3,49.6z"/>
		<path class="st0" d="M175.2,45.7C175.2,45.7,175.1,45.8,175.2,45.7c-0.1,0-0.1,0-0.1,0C175.1,45.7,175.1,45.6,175.2,45.7
			C175.2,45.6,175.2,45.7,175.2,45.7z"/>
		<path class="st0" d="M171.5,50.6C171.5,50.6,171.5,50.6,171.5,50.6c0-0.1,0-0.1,0-0.1C171.5,50.5,171.6,50.6,171.5,50.6
			C171.6,50.6,171.5,50.6,171.5,50.6z"/>
		<polygon class="st0" points="190.3,79.9 190.3,79.8 190.3,79.9 		"/>
		<path class="st0" d="M190.3,73.5c0,0,0.1,0,0.1,0C190.5,73.6,190.4,73.5,190.3,73.5L190.3,73.5z"/>
		<path class="st0" d="M153.1,101.9C153.2,101.9,153.1,102,153.1,101.9C153.2,101.8,153.2,101.8,153.1,101.9L153.1,101.9z"/>
		<path class="st0" d="M190.4,73.5c0,0-0.1-0.1-0.1-0.1C190.5,73.3,190.4,73.4,190.4,73.5L190.4,73.5z"/>
		<path class="st0" d="M162.7,84.8C162.6,84.8,162.6,84.8,162.7,84.8c-0.1-0.1,0-0.1,0-0.1C162.7,84.7,162.7,84.7,162.7,84.8
			C162.7,84.8,162.7,84.8,162.7,84.8z"/>
		<path class="st0" d="M187.7,84.8c0,0,0.1-0.1,0.1-0.1C187.8,84.8,187.8,84.9,187.7,84.8L187.7,84.8z"/>
	</g>
	<g>
		<g>
			<path class="st0" d="M29.9,200.4c-0.2-0.5-0.3-1-0.1-1.6c0.1-0.4,0.1-0.9,0-1.4c-0.2-0.8-0.3-1.7,0-2.5c0.1-0.2,0.1-0.4,0-0.6
				c-0.2-0.4-0.2-0.8,0-1.2c0.1-0.3,0.1-0.6,0.1-0.8c-0.2-1.5,0-3,0.1-4.5c0-0.6-0.2-1.2-0.1-1.8c0-1.1,0-2.3-0.1-3.4
				c-0.1-1.1,0.1-2.4,0.1-3.6c0-1.2,0.1-2.4-0.2-3.7c0.1-0.5,0.3-1,0.6-1.5c-0.3-0.5-0.7-0.9-0.2-1.4c-0.2-0.3-0.4-0.6-0.7-0.7
				c-0.3,0.4,0,0.7,0.1,1.1c-0.3,1.1-0.4,2.3-0.5,3.4c-0.1,0.9-0.4,1.8-0.5,2.7c-0.1,0.9-0.2,1.8-0.4,2.7c-0.4,2.2-0.1,4.5-0.6,6.7
				c-0.2,0.8-0.3,1.5-0.7,2.2c0.3,0.4,0.3,1,0.2,1.4c-0.3,1.1-0.3,2.2-0.5,3.2c-0.1,0.5,0.2,0.9,0,1.4c-0.5,1.4-0.6,3-0.7,4.5
				c-0.1,1.2-0.3,2.4-0.6,3.6c-0.1,0.5-0.1,1.1-0.1,1.6c0,1.8-0.3,3.6-0.6,5.4c-0.2,0.9-0.1,1.9-0.5,2.7c-0.1,0.5,0.3,0.7,0.2,1.1
				c-0.6,1.2-0.8,2.4-0.7,3.8c0.1,0.8,0,1.6-0.3,2.5c-0.2,0.7-0.1,1.5-0.2,2.3c-0.1,0.5-0.5,0.7-1,0.6c-1.1,0-2.2,0.1-3.2,0.2
				c-1.3,0.1-2.5-0.2-3.8,0.1c-0.7-1-0.6-2.1-0.7-3.1c-0.2-1.5-0.4-2.9-0.7-4.4c0-0.1-0.1-0.3-0.1-0.4c0.3-1.7-0.5-3.2-0.6-4.8
				c0-0.3,0.1-0.5,0.2-0.8c-0.2-1.1-0.3-2-0.3-3.1c-0.2-0.4-0.4-0.8-0.5-1.1c0.2-2.7-0.1-5.1-0.8-7.6c0.1-0.1,0.1-0.4,0.1-0.7
				c-0.2-1.1-0.4-2.1-0.5-3.2c-0.1-1-0.4-2-0.2-3c0.1-0.5-0.1-1.1-0.3-1.5c-0.3-0.5-0.3-1.1-0.3-1.7c0-1.5-0.1-3-0.6-4.4
				c-0.2-0.7,0-1.5-0.2-2.3c-0.2-0.7-0.2-1.6,0.2-2.4c-0.4-0.6-0.8-1.3-0.5-2.1c0.2-0.5-0.1-1-0.2-1.4c-0.4-1.2-0.4-2.4-0.4-3.6
				c0-0.5,0-1.1-0.7-1.3c-0.3,0.4-0.1,0.8-0.2,1.1c-0.1,0.4-0.5,0.4-0.6,0.6c0,0.4,0.4,0.2,0.6,0.4c0.1,1.1-0.1,2.3,0.2,3.5
				c0.1,0.5-0.1,1.1-0.2,1.6c-0.4,1.6,0.1,3.1,0,4.7c0,0.4,0.1,0.8-0.2,1.1c0.1,0.2,0.2,0.4,0.3,0.6c-0.3,1.7,0.1,3.3,0,5
				c-0.1,1.6,0.4,3.2,0,4.8c-0.4,1.6,0.5,3.3-0.2,4.9c0.5,0.9,0.1,1.8,0.2,2.7c0.1,0.7,0.1,1.4-0.1,2.2c-0.2,0.8,0,1.8,0.4,2.4
				c0,0.6-0.3,1-0.4,1.4c0.2,0.4,0.3,0.9,0.1,1.5c-0.2,0.5-0.1,1,0.4,1.3c-0.7,1.2-0.5,2.5-0.4,3.7c0.1,0.8,0.1,1.5,0.3,2.3
				c0.1,0.5-0.2,0.9-0.4,1.5c0.2,0.5,0.4,1,0,1.5c0.3,1.4,0.5,2.6-0.4,3.7c-2.2,0.4-4.2,0-6.3,0.4c-0.6-1.3-1-2.4-0.8-3.8
				c0.2-0.8,0-1.7,0-2.6c0-0.5-0.1-1,0.1-1.5c0.1-0.3,0.1-0.6,0-0.9c-0.2-0.8-0.2-1.5,0.3-2.3c-0.5-0.6-0.1-1.3-0.2-2
				c-0.3-1.7-0.4-3.4-0.2-5c0.1-1.1,0-2.1-0.3-3.1c0-0.5,0.5-0.8,0.6-1.3c-0.1-0.2-0.2-0.5-0.3-0.7c0,0,0.1,0,0.1,0
				c0-1.8,0-3.5,0-5.9c-0.2-4-0.3-8.6,0.2-13.4c-0.4-0.3-0.4-0.8-0.3-1.4c0.1-1.3-0.2-2.7,0-4c0.3-1.4,0-2.8,0-4.2
				c0-1.5,0-3,0.2-4.5c0.1-0.6,0-1.2-0.4-1.8c0.4-0.8,0.4-1.6,0.2-2.5c-0.2-0.9-0.3-1.9,0.3-2.7c-0.1-0.4-0.2-0.8-0.4-1.2
				c0.3-0.4,0.3-1,0-1.4c0.4-0.6,0.5-1.3,0.5-2.2c1.8-0.2,3.7,0.2,5.5,0.1c1.8-0.2,3.6,0.1,5.5-0.2c0.4,0.1,0.8,0.4,1.1,0.8
				c0,0.7,0.1,1.3,0.4,2c0.1,0.3,0.1,0.6,0.1,0.8c-0.3,1.8,0.2,3.5,0.5,5.3c0.1,0.9,0,1.7,0.1,2.6c0.1,0.5,0.1,1.1,0.3,1.5
				c0.5,0.9,0.5,1.8,0.2,2.8c-0.1,0.2-0.1,0.5,0,0.7c0.7,1.3,0.6,2.8,0.6,4.2c0,0.7,0.1,1.3,0.4,1.8c0.2,0.5,0.5,1.1,0,1.5
				c0.2,0.3,0.3,0.6,0.4,0.8c-0.4,0.8-0.3,1.7,0,2.5c0.2,0.6,0.3,1.2,0.1,1.8c0.2,0.6,0.3,1.1,0.5,1.6c0.1,0.2,0.2,0.3,0.1,0.5
				c-0.3,1.1,0.2,2.1,0,3.1c0,0.2,0,0.4,0,0.5c0.5,1.5,0.2,3.1,0.8,4.5c0.1,0.3-0.2,0.5-0.2,0.9c0.2,0.4,0.3,0.8,0.5,1.2
				c-0.1,1.3-0.1,2.5,0,3.8c0.2,1.2,0.5,2.3,0.7,3.4c0.1,0.4-0.1,0.7-0.3,1.1c0.6,1.3,0.4,2.8,0.6,4.2c0.3,0,0.5-0.1,0.5-0.2
				c0-1,0.5-1.9,0.7-2.9c0.1-0.6,0.1-1.3,0.1-2c-0.1-1.3,0.1-2.4,0.6-3.5c-0.3-1.1-0.3-2.1-0.1-3.1c0.1-0.2,0.1-0.5,0.1-0.7
				c-0.1-0.8,0.1-1.6,0.5-2.3c0,0,0.1-0.1,0.1-0.1c0-1.3,0.2-2.7,0.2-4c0-0.4-0.1-0.7,0.1-1.1c0.3-0.5,0.3-1,0-1.4
				c0.1-0.5,0.6-0.8,0.6-1.2c-0.4-1.6-0.3-3.1,0.5-4.6c-0.5-1.1-0.2-2.3,0.1-3.5c0.2-0.9-0.1-1.9,0.5-2.8c0.1-0.1,0-0.4-0.1-0.6
				c-0.2-0.3-0.1-0.6-0.1-0.8c0.3-0.9,0.3-1.9,0.4-2.8c0.3-1.6,0.2-3.3,0.8-5.1c-0.4-1.2,0.9-2.4,0.3-3.8c0.3-1.3,0.7-2.6,0.2-4
				c0.1-0.2,0.3-0.4,0.4-0.7c-0.3-0.6-0.3-1.3-0.2-1.9c0.2-0.5,0.8-0.4,0.9-0.8c0.9-0.1,1.7,0.1,2.5-0.2c0.2-0.1,0.4-0.1,0.6,0.1
				c0.2,0.1,0.4,0.2,0.6,0.1c1.7-0.6,3.5,0.2,5.2,0c0.5-0.1,1,0,1.5-0.2c0.6-0.2,1.1,0,1.8,0.5c-0.1,0.7-0.1,1.5,0,2.3
				c0.1,0.8,0,1.6-0.5,2.3c0.3,0.4,0.2,0.9,0.2,1.3c0,1.2-0.1,2.3,0.2,3.5c0.1,0.5,0.1,1-0.1,1.5c-0.1,0.2-0.2,0.5,0,0.7
				c0.6,0.8,0.2,1.6,0.1,2.3c-0.1,0.6-0.2,1.2,0,1.9c0.2,0.8,0.2,1.7,0,2.5c0,0.1-0.1,0.2-0.1,0.3c0.2,1.4,0.1,2.8,0,4.2
				c-0.1,1.1,0.3,2.1,0,3.2c0,0.1,0,0.3,0,0.4c0,1.4,0.1,2.8-0.2,4.3c-0.1,0.6,0,1.2,0.4,1.7c-0.4,1.3-0.4,2.6,0,3.9
				c-0.3,0.7-0.2,1.4-0.1,2.1c0.2,0.7,0.2,1.5,0,2.2c-0.3,1.3,0.1,2.6-0.4,3.8c-0.1,0.1,0,0.4,0.1,0.5c0.2,0.6,0.1,1.2,0.2,1.8
				c0.1,1.1-0.1,2.3,0,3.4c0.1,0.7,0.2,1.6-0.3,2.3c0.3,0.7,0.2,1.4,0.5,2.1c-0.3,0.6-0.3,1.2-0.2,1.9c0.1,0.9,0.1,1.9-0.3,2.8
				c0.7,2.5,0,5,0.3,7.5c-0.1,0.2-0.4,0.4-0.6,0.6c-1.1,0.1-2.2,0.1-3.3,0.1c-1.1,0-2.2-0.2-3.3,0.2c-0.8-0.4-1-1.2-0.9-1.8
				c0.2-1-0.1-2-0.1-3c0.1-1,0.2-2-0.1-3c-0.1-0.2,0-0.5,0-0.7c0.4-1.2,0.6-2.3,0.2-3.5c0-0.1,0-0.1,0-0.2c0.3-1.7-0.1-3.4,0-5.1
				c0.1-1-0.3-2-0.1-3C29.7,203,29.5,201.7,29.9,200.4z M6.9,171.2C6.8,171.2,6.8,171.2,6.9,171.2C6.8,171.2,6.9,171.2,6.9,171.2
				L6.9,171.2L6.9,171.2z M4.6,177.5c-0.9,0.3-0.9,0.3-0.4,0.9C4.5,178.2,4.8,178.1,4.6,177.5z M31.4,163.9c-0.4,0-0.7,0.1-0.8,0.4
				C31.1,164.6,31.3,164.4,31.4,163.9z M6.8,164.2c0.2,0,0.3,0,0.3-0.2c0,0-0.1-0.1-0.1-0.1C6.8,163.9,6.7,164,6.8,164.2z
				 M36.9,184.3c0.3-0.1,0.3-0.2,0.2-0.3C37,184,36.9,184.1,36.9,184.3z M28.2,173.4c0.1,0.1,0.1,0.3,0.4,0.2
				C28.6,173.4,28.5,173.3,28.2,173.4z M27.6,181.3c0-0.1,0.1-0.2,0-0.2C27.6,181.1,27.6,181.2,27.6,181.3z M32.9,169.4
				c-0.1,0.2-0.3,0.2-0.3,0.4C32.8,169.8,32.9,169.8,32.9,169.4z M7,169.1c-0.1-0.1-0.2-0.1-0.2,0c0,0,0,0.1,0,0.1
				C6.9,169.2,7,169.2,7,169.1z M18.9,215.6c-0.1-0.1-0.2-0.1-0.2,0.1C18.7,215.7,18.8,215.7,18.9,215.6z M32.7,167.4
				c-0.1-0.1-0.2-0.1-0.3,0C32.5,167.5,32.6,167.5,32.7,167.4z M24.6,188.9c0.1,0.2,0.3,0.1,0.3,0C24.9,188.8,24.7,188.8,24.6,188.9
				z M22.7,184.6c0,0-0.1,0-0.1,0C22.6,184.6,22.6,184.6,22.7,184.6z M7.4,163.7c0,0.1-0.1,0.1,0,0.2C7.5,163.8,7.4,163.8,7.4,163.7
				z M4.2,175.7L4.2,175.7L4.2,175.7L4.2,175.7z M5.9,164.6c-0.1,0.1-0.1,0.2,0,0.2c0,0,0.1,0,0.1,0C6,164.7,6,164.7,5.9,164.6z
				 M6.2,170.6c-0.1,0-0.2-0.1-0.2,0.1C6,170.7,6.1,170.7,6.2,170.6z M27.2,169.9c0.1-0.1,0.1-0.1,0-0.2
				C27.1,169.7,27.2,169.8,27.2,169.9z M7.4,168.9L7.4,168.9L7.4,168.9L7.4,168.9z M31.6,162.9C31.6,162.8,31.6,162.8,31.6,162.9
				c-0.1-0.1-0.1,0-0.1,0C31.5,162.9,31.5,162.9,31.6,162.9C31.6,162.9,31.6,162.9,31.6,162.9z M17.9,208.5
				C17.8,208.5,17.8,208.4,17.9,208.5c-0.1-0.1-0.1,0-0.1,0C17.7,208.5,17.8,208.5,17.9,208.5C17.8,208.6,17.8,208.5,17.9,208.5z"/>
			<path class="st0" d="M100.6,156.9c1.1-0.3,1.9-0.3,2.9-0.2c1.6,0.1,3.2,0.3,4.8-0.1c0.6-0.1,1,0.2,1.6,0.2
				c1.7-0.1,3.4,0.2,5.1-0.2c0.2,0,0.4,0,0.6,0c0.2,0.5,0.3,1,0.6,1.4c0.5-0.4,0.1-1,0.5-1.4c0.7,0.3,1.4,0.2,2.2,0.2
				c0.5,0,0.9,0.1,1.2,0.4c0.6,0.6,1.3,1,1.9,1.5c0.9,0.8,1.6,1.9,2.5,2.8c0.7,0.7,0.9,1.7,0.7,2.7c-0.2,0.8-0.1,1.5,0,2.3
				c0.2,0.8,0.2,1.6,0,2.4c-0.3,1.3,0.2,2.6,0,3.9c-0.1,0.8,0.1,1.5,0.1,2.2c0,3.3,0,6.6,0,10c-0.1,0.2-0.2,0.6-0.3,1
				c0.4,0.5,0.7,1.1,0.3,1.7c-0.1,0.1,0,0.3,0,0.4c0.2,1.3-0.5,2.2-1,3.3c-0.1,0.2-0.3,0.4-0.4,0.5c-1,0.4-1.4,1.7-2.5,1.9
				c-0.2,0.5-0.1,0.9-0.3,1.3c-0.3,0.7-0.3,1.5,0.1,2.2c0.3,0.5,0.5,1.1,0.2,1.7c-0.2,0.3,0,0.8,0.2,1.1c0.6,1.3,0.5,2.7,0.9,3.9
				c0.6,1.7,0.5,3.4,0.9,5.1c0.1,0.5-0.2,0.9,0,1.6c0.3,0.3,0.5,0.8,0.8,1.3c-0.3,0.7-0.3,1.4,0.2,1.9c0,0.8-0.1,1.6,0.5,2.2
				c-0.5,0.9-0.1,1.7,0.1,2.6c0.2,1,0.5,2,0.6,3c0.1,0.6,0.4,1.3,0.6,1.9c-0.1,0.4-0.2,0.8-0.5,1.1c-0.7-0.1-1.4-0.4-2.1,0
				c-1.2-0.3-2.3-0.3-3.5-0.1c-0.9,0.2-1.6-0.2-2.2-0.7c-0.1-0.5-0.6-1-0.1-1.4c-0.5-1-0.6-2-0.6-3c0-1.1,0-2.2-0.6-3.2
				c-0.3-0.6-0.3-1.4-0.4-2c-0.1-1-0.6-2-0.6-3c0-0.6-0.6-1.2-0.4-1.8c0.3-0.9-0.1-1.6-0.3-2.3c-0.1-0.5-0.2-1-0.4-1.4
				c-0.2-0.6-0.1-1.1,0.1-1.6c-0.6-0.9-0.6-1.9-0.7-2.8c0-1.4-0.4-2.8-0.6-4.2c-0.2-1.2-1-1.7-2.2-1.7c-0.4,0-0.8,0-1.1,0
				c-0.6,0.5-0.8,1-0.8,1.7c0,0.7-0.1,1.5-0.2,2.2c-0.1,1,0.2,2.1,0.3,3.2c-0.8,1.4,0.1,2.8-0.1,4.5c-0.2,0.3-0.4,0.9-0.1,1.6
				c0.2,0.5,0.1,1.1-0.2,1.6c0.1,0.4,0.3,0.9,0.4,1.3c-0.8,0.9-0.2,2-0.4,3.1c0.6,0.6,0.6,1.4,0.2,2.1c-0.4,0.7,0,1.3,0.2,2
				c-0.1,0.2-0.2,0.5-0.4,0.8c0.5,1.1-0.1,2.3,0.4,3.4c-0.2,0.4-0.3,0.9-0.6,1.4c-1-0.2-2.1,0.1-3.2,0.1c-0.8,0-1.6-0.1-2.4-0.2
				c-0.6,0-1.2,0.4-1.9,0.1c-0.1-0.2-0.3-0.4-0.5-0.7c0-0.1,0-0.2,0-0.3c-0.1-1.6,0-3.2-0.1-4.7c-0.1-0.7-0.1-1.6,0.3-2.3
				c-0.5-1.4-0.6-2.8-0.1-4.3c0.3-0.8,0-1.5-0.3-2.2c0.5-1.3-0.5-2.6,0.2-3.8c-0.4-1.5-0.3-3,0.3-4.5c-0.7-0.8-0.3-1.9-0.7-2.8
				c0.4-2,0.7-3.9,0-5.9c0.1-0.3,0.2-0.6,0.3-1c0.2-0.7,0.3-1.5,0.2-2.3c-0.2-1.4-0.4-2.9,0.1-4.4c-0.5-1-0.5-2.1-0.4-3.3
				c0-0.6,0-1.2,0-1.8c0-1.5-0.2-3,0.2-4.5c0.1-0.2,0-0.4-0.1-0.6c-0.2-0.4-0.2-0.8,0-1.2c0.1-0.2,0.2-0.5,0.1-0.7
				c-0.4-1.3,0-2.5,0-3.8c0.1-1.7-0.2-3.5,0-5.2c0.1-1.2,0-2.4-0.2-3.6C100,159.5,100.2,158.2,100.6,156.9z M116.8,186.8
				c0.3-1.3-0.2-2.6,0.1-3.9c0.1-0.2-0.1-0.4-0.1-0.6c-0.3-1.1-0.6-2.1,0.1-3.2c0.2-0.3,0.1-0.8,0-1.2c-0.3-1.1-0.3-2.2,0-3.2
				c-0.4-1.9,0.1-3.6-0.4-5.4c0.3-0.4,0.4-0.9,0.6-1.4c-0.4-1-0.4-2-0.7-3.1c-0.2-0.3-0.7-0.3-0.8-0.8c-0.1-0.2-0.4-0.4-0.7-0.3
				c-1.8,0.1-3.5-0.5-5.4-0.2c-0.8,0.6-0.9,1.4-0.4,2.4c-0.3,0.3-0.3,0.7-0.3,1.1c0.1,2.3-0.2,4.6-0.2,6.9c0,0.2,0,0.5,0.1,0.7
				c0.4,1.1,0.6,2.1-0.1,3.1c0.1,0.4,0.4,0.7,0.4,1.1c-0.1,1.4-0.5,2.7-0.3,4.1c0.2,1.1,0.1,2.2,0.1,3.4c0,0.1,0,0.2-0.1,0.3
				c-0.4,0.9,0,1.5,0.6,2.1c1.1,0,2.1,0.1,3.1,0C114.1,188.7,115.8,188.3,116.8,186.8z M107,176.9c-0.4-0.2-0.8-0.2-1.2-0.1
				c0,0.5,0.1,0.8,0.5,0.9C106.7,177.6,106.9,177.4,107,176.9z M105.5,194c0.3-0.8,0.2-1.1-0.6-1.4
				C104.9,193.2,105.1,193.7,105.5,194z M114.8,192.1c-0.5,0.3-0.6,0.6-0.4,1.2C114.8,192.9,114.8,192.5,114.8,192.1z M102.3,159
				c0.1,0.4,0.3,0.6,0.7,0.5c0.2-0.2,0.2-0.4,0-0.6C102.8,158.9,102.5,158.8,102.3,159z M117.1,175.4c0.6,0,0.9-0.1,0.7-0.7
				c-0.3,0-0.4,0.1-0.5,0.2C117.2,175,117.1,175.1,117.1,175.4z M106.5,174.5c0.5,0.2,0.5,0.2,0.7-0.1c0,0-0.1-0.1-0.1-0.2
				C106.9,174.2,106.7,174.3,106.5,174.5z M117.5,203.4c0.1,0.1,0.3,0.1,0.4,0c0.1-0.1,0.2-0.2,0.1-0.3
				C117.8,203.1,117.6,203.2,117.5,203.4z M113,192.8c-0.2-0.2-0.2-0.4-0.4-0.2C112.6,192.8,112.6,192.9,113,192.8z M101.9,193.4
				c-0.1,0-0.2,0-0.3,0.2c0,0.1,0,0,0.1,0.1C101.9,193.7,101.9,193.6,101.9,193.4z M118.7,163.7c0.1,0.1,0.2,0.1,0.3,0
				c0,0,0-0.1,0-0.1C118.8,163.6,118.8,163.6,118.7,163.7z M124.6,181.7L124.6,181.7L124.6,181.7L124.6,181.7z M103,199.8
				c-0.1,0-0.1,0.1-0.1,0.2c0,0.1,0.1,0.1,0.1,0C103.1,200,103,199.9,103,199.8z M116.3,193.5L116.3,193.5L116.3,193.5L116.3,193.5z
				"/>
			<path class="st0" d="M43.6,182.5c-0.4-0.6,0.1-1.5-0.3-2.3c0.1-0.3,0.3-0.6,0.4-0.9c-0.2-0.9-0.5-1.8-0.1-2.8
				c0.1-0.3,0.1-0.7,0-1.1c-0.2-0.5-0.2-1,0-1.6c0.2-0.5-0.2-1-0.2-1.6c0-1,0.4-2,0.2-3.1c-0.1-0.5-0.5-1.1,0-1.5
				c-0.2-1.8-0.5-3.5-0.1-5.3c0.3-0.4,0.6-0.9,0.8-1.5c0.9-0.5,3.7-3.3,3.9-3.9c0.5-0.1,1.1-0.2,1.6-0.4c0.3-0.1,0.6-0.1,0.8-0.1
				c1,0.2,2,0.3,3,0c0.3-0.1,0.6,0,0.8,0c2.2,0.3,4.4,0.2,6.5,0.1c1.3-0.1,2.5-0.1,3.5,1.1c0.6,0.7,1.3,1.3,1.9,1.9
				c1,1,2.2,2,2.6,3.6c-0.6,1,0.5,2.2-0.4,3.1c0.6,1.2,0.4,2.5,0.3,3.7c-0.1,0.4-0.2,0.8,0,1.2c0.1,0.3,0.2,0.7,0,1
				c-0.1,0.2-0.1,0.4-0.1,0.6c0,1.3-0.2,2.6-0.1,3.9c0,0.8,0.1,1.5,0.1,2.3c0,0.4,0.1,0.9-0.3,1.2c0.2,0.4,0.3,0.7,0.5,1.1
				c-0.6,0.7,0.1,1.6-0.5,2.3c0.6,1.1,0.6,2.1,0.2,3.1c-0.3,0.8-0.3,1.5,0,2.3c0.1,0.2,0.2,0.5,0.2,0.7c-0.1,2.2,0.4,4.4-0.2,6.5
				c-0.2,0.8,0.1,1.3,0.3,2c-0.1,0.2-0.2,0.6-0.3,1c0.8,0.9,0,2,0.1,3c0,0.1-0.2,0.3-0.1,0.4c0.2,1.4,0.1,2.9,0.3,4.5
				c-0.3,0.3,0,0.9-0.3,1.5c0.4,0.7,0.4,1.3,0.3,2.1c-0.2,1.7-0.2,3.4,0.1,5c0.1,0.7,0.2,1.5,0,2.1c-0.1,0.5-0.1,1-0.2,1.6
				c-0.6,0.8-1.5,1.5-2.4,2.1c-0.9,0.6-1.4,1.3-1.9,2.2c-0.8,0.1-1.4,0.7-2.1,0.9c-2-0.3-3.8-0.3-5.7-0.1c-1.1,0.1-2.3,0.1-3.5-0.4
				c-1,0.5-2.1,0-3.1,0.4c-1.8-0.2-2.7-1.8-4-2.5c-0.1-0.1-0.1-0.4-0.2-0.6c-1-0.4-1.4-1.5-2.2-2.2c-0.3-0.9-0.4-1.8-0.1-2.7
				c0.1-0.4-0.3-0.7-0.2-1.1c0.3-0.9,0-1.8,0.2-2.7c0.1-0.6,0.1-1.3-0.2-2c-0.3-0.6-0.3-1.2,0-1.9c0.5-1.1,0.4-2.2,0.2-3.3
				c-0.1-0.6-0.1-1.1,0.1-1.7c-0.3-0.3-0.2-0.8-0.5-1.1c0.5-0.5,0.5-1.1,0.5-1.7c0.1-1.7-0.3-3.3-0.2-5c0.1-1-0.2-2.1,0.2-3.1
				c0.2-0.5-0.1-0.9-0.3-1.1c0-1.7,0.4-3.2,0.3-4.8C43.5,185.7,43.3,184.2,43.6,182.5z M61.8,171.2c-0.5,0.3-0.8,0.9-1.5,1
				c-0.1-1.2,0.2-2.2,0.3-3.2c0.5-0.3,1,0.1,1.2-0.5c-0.2-0.6-0.7-0.2-1-0.3c-0.5-0.6-0.4-1.3,0-1.9c-0.6-1.3-1.7-2-2.9-2.4
				c-1.6-0.6-3.2-0.1-4.6,0.6c-0.6,0.3-1,0.7-1.2,1.4c-0.2,0.9-0.3,1.7,0,2.6c0.1,0.3,0.1,0.6,0,0.8c-0.2,0.7-0.3,1.5,0,2.2
				c0.1,0.3,0.1,0.6,0,0.8c-0.3,0.6-0.2,1.2-0.1,1.8c0.3,1.2,0.1,2.4,0.2,3.7c0,0.4-0.1,0.8-0.2,1.2c0.3,4.4,0.1,8.8,0.1,13.2
				c0.4,2.5-0.4,5,0.1,7.5c-0.5,2.5,0.2,5.1-0.2,7.7c0,0.3,0.4,0.6,0.3,1.1c-0.1,1-0.4,1.9-0.1,2.9c0.1,0.4,0.1,0.9-0.1,1.3
				c-0.4,1.1,0,2.1,0.6,3c0.6,0.9,1.4,1.7,2.7,1.4c0.1,0,0.2,0,0.2,0c1,0.5,1.9,0,2.9-0.2c0.9-0.2,1.6-0.6,1.7-1.6
				c0-0.3,0.2-0.5,0.4-0.8c0.3-0.5,0.3-1,0.2-1.4c-0.5-1.2,0.1-2.5-0.1-3.7c-0.1-0.4,0.1-0.9,0-1.3c-0.1-0.3-0.1-0.8,0-1.1
				c0.3-0.8,0.2-1.6-0.2-2.3c0.2-1,0.5-2,0.4-3.1c-0.2-1.2-0.2-2.4,0-3.6c0.1-0.6,0.1-1.3-0.1-1.9c-0.1-0.6-0.2-1.1-0.1-1.7
				c0.1-0.7,0.1-1.5,0.1-2.3c0-1.5-0.2-3,0.2-4.5c-0.2-0.3-0.6-0.6-0.4-1c0.3-0.9,0.1-1.8,0.2-2.6c0-1.1,0-2.2,0.2-3.2
				c-0.1-0.3-0.4-0.6-0.4-1c0.1-0.4,0.3-0.8,0.4-1.1c-0.1-0.5-0.5-0.9-0.4-1.4c0.3-1.1,0.1-2.1,0.2-3.2c0-0.2-0.1-0.4,0.2-0.5
				c0.6-0.1,0.9,0.6,1.5,0.4c-0.1-0.4-0.4-0.6-0.4-1C62.1,172.4,61.8,171.8,61.8,171.2c0.1-0.1,0.3-0.2,0.1-0.4
				C61.8,170.9,61.8,171.1,61.8,171.2z M65.3,204.2c0.8-0.6,0.7-0.8-0.3-2c-0.2,0.3-0.3,0.6-0.4,0.9C64.7,203.6,64.8,204,65.3,204.2
				z M63.4,197.6c0.3,0.4,0.6,0.4,0.9,0.1c0.2-0.4,0.3-0.8,0-1.2c-0.3-0.1-0.6-0.2-1-0.1C63.1,196.8,63.3,197.2,63.4,197.6z
				 M67,199.4c0.6,0,1-0.1,1.2-0.6c-0.2-0.3-0.4-0.5-0.7-0.4C67.2,198.6,67,198.9,67,199.4z M46,205.9c0.2-0.4,0.1-0.6-0.3-0.7
				c-0.3,0.1-0.4,0.2-0.4,0.5C45.4,205.9,45.6,206,46,205.9z M49.7,170.4c-0.3-0.4-0.6-0.4-0.9,0.1
				C49.1,170.9,49.4,170.8,49.7,170.4z M63.7,194.9c0.3-0.4,0.3-0.6,0-0.9C63.4,194.3,63.3,194.5,63.7,194.9z M59,158.2
				c-0.4,0-0.6,0-0.6,0.5C58.6,158.7,58.9,158.7,59,158.2z M68.5,174.7c-0.2-0.3-0.3-0.4-0.5,0C68.2,174.9,68.4,174.9,68.5,174.7z
				 M67.6,212.1c-0.2-0.1-0.3-0.1-0.4,0.1c0,0,0,0.1,0,0.1C67.4,212.3,67.5,212.3,67.6,212.1z M50.4,217.6c-0.2-0.2-0.3-0.1-0.4,0
				c0,0,0,0.2,0.1,0.2C50.2,217.8,50.4,217.8,50.4,217.6z M63.6,205.3c0.1,0.1,0,0.2,0.2,0.3c0,0,0.1,0,0.1-0.1
				C63.9,205.3,63.9,205.2,63.6,205.3z M62.3,219.2c-0.1-0.1-0.2-0.1-0.2,0.1C62.2,219.3,62.3,219.3,62.3,219.2z M50.3,223.1
				c0-0.1,0.1-0.1,0.1-0.2c0-0.1-0.1-0.1-0.2,0C50.1,223,50.2,223,50.3,223.1z M44,187c0.1-0.1,0.2-0.2,0-0.3
				C43.9,186.8,43.9,186.9,44,187z M64.5,203.8C64.5,203.8,64.5,203.8,64.5,203.8c0.1-0.1,0-0.1,0-0.1
				C64.5,203.7,64.4,203.7,64.5,203.8C64.4,203.8,64.5,203.8,64.5,203.8z M63,215.6C63,215.6,63,215.6,63,215.6
				c-0.1-0.1-0.1,0-0.1,0C62.9,215.6,62.9,215.7,63,215.6C63,215.7,63,215.6,63,215.6z"/>
			<path class="st0" d="M233.4,194.8c-0.7,1.2,0.2,2.5-0.3,3.8c0.2,0.5,0.3,1.1,0.1,1.7c-0.3,0.6,0.1,1.3,0.1,1.9
				c0,0.9-0.1,1.9,0,2.8c0.1,1.1,0,2.2,0.2,3.3c0.1,0.3,0,0.6-0.1,0.9c-0.2,0.5-0.3,1,0,1.5c0,0.1,0,0.1,0,0.2
				c-0.4,1.7,0.2,3.4,0,5.1c0,0.4-0.3,0.7-0.2,1.2c0.9,0.7,0.2,1.6-0.1,2.5c-1.5,1.2-2.7,2.9-4.4,4.1c-0.3,0.4-0.8,0.4-1.1,0.8
				c-1.1-0.1-2.1,0.1-3.2-0.2c-0.4-0.1-0.9,0.2-1.4,0.1c-1-0.1-2,0.3-3,0c-0.3-0.1-0.6,0.3-0.9,0.2c-0.5-0.1-0.9-0.4-1.4-0.2
				c-0.3-0.2-0.4-0.7-1-0.6c-0.3,0.4-0.8,0.8-1.6,0.8c-0.3,0-0.7-0.2-1-0.3c-1.5-0.3-2.4-1.5-3.2-2.7c-0.4-0.7-1.1-1-1.6-1.5
				c-0.2-0.3-0.5-0.5-0.8-0.7c0-1.3-0.2-2.6-0.4-3.8c0-0.1,0-0.2,0-0.3c0.5-0.9,0.2-1.8,0.2-2.8c0-0.7-0.1-1.3,0.2-2
				c0.1-0.3,0.1-0.7,0-1.1c-0.2-0.8-0.2-1.6,0-2.5c-0.1-0.2-0.3-0.4-0.4-0.6c0.7-2.1,0.1-4.2,0.3-5.7c0.2-2.7-0.3-4.7,0.2-6.9
				c-0.2-0.6-0.1-1.4-0.2-2.1c-0.2-1.5,0.6-2.9,0-4.4c-0.1-0.2,0-0.4,0-0.6c0.3-0.6,0.2-1.2,0.1-1.9c-0.1-0.3-0.1-0.7,0-1
				c0.1-0.4,0-0.7-0.1-1.1c-0.1-1.1-0.4-2.3,0.2-3.4c-0.3-0.9-0.2-1.8,0-2.8c-0.4-0.8-0.6-1.8-0.2-2.9c0.1-0.2,0.1-0.6,0-0.8
				c-0.3-0.7-0.2-1.3,0-2c0.1-0.4,0.2-2.6,0.1-3.1c-0.1-0.6-0.1-1.2,0-1.8c0.2-1,0.2-2,0-3.1c-0.1-0.5,0.2-0.9,0.1-1.3
				c-0.2-0.9-0.3-1.7,0-2.6c0.1-0.5,0-1.1-0.4-1.3c0.1-0.6,0.5-0.8,0.7-1.1c1.1-0.1,2.1,0.1,3,0.3c1.6,0,3.1-0.7,4.6-0.1
				c0.8,0.7,0.4,1.5,0.5,2.2c0.1,1.1,0,2.3-0.1,3.4c-0.1,0.7-0.2,1.5,0,2.1c0.2,0.7,0.1,1.2-0.2,1.9c0.1,0.4,0.2,0.9,0.4,1.4
				c0,0.1-0.1,0.2-0.1,0.3c0,1.5-0.1,3,0,4.4c0.1,0.8,0,1.6,0,2.4c0,0.4-0.1,0.8,0,1.2c0.2,0.8,0,1.6-0.1,2.4c0,0.4,0,0.8,0.1,1.1
				c0.2,0.5,0.2,1-0.1,1.3c0.1,2,0.2,3.8-0.1,5.7c0.1,0.2,0.2,0.5,0.4,0.7c-0.4,3.4,0,6.8-0.3,10.3c0.1,0.3,0.3,0.8,0.5,1.3
				c-0.7,1-0.2,2.3-0.6,3.5c0.6,0.7,0.5,1.5-0.1,2.3c0.7,1.1,0.3,2.3,0.3,3.4c0,0.9,0,1.9,0,2.8c0,0.4,0,0.8-0.1,1.2
				c-0.3,0.7,0.2,1.2,0.3,1.8c0,0.3-0.3,0.4-0.4,0.7c0.3,1.1,1.2,1.7,1.9,2.2c1.5,0.6,2.8,0.2,4.2,0.2c1-0.1,2-1,2-1.9
				c0-1.3,0.3-2.5,0.3-3.8c0-0.8-0.3-1.5-0.2-2.3c0.1-0.7,0-1.4,0.2-2.1c0.2-0.8-0.2-1.7-0.2-2.5c0-0.5,0-1,0.3-1.5
				c-0.1-0.6-0.3-1.1-0.3-1.8c0-1.7,0.4-3.4,0.1-5.1c-0.1-0.5,0.3-1,0.2-1.5c-0.1-1,0.1-1.9-0.2-2.9c-0.2-0.6-0.1-1.4,0.1-1.8
				c0.1-0.5-0.3-0.5-0.3-0.8c0.3-0.6,0.3-1.2,0.3-1.8c0-1,0.2-1.9,0.1-2.9c0-0.7-0.1-1.5-0.1-2.2c0-0.8-0.1-1.7,0.1-2.6
				c0.2-1.4,0.2-2.8,0-4.1c0.2-4.1-0.1-8,0-12.4c-0.1-1.6-0.1-3.7-0.4-5.6c0.3-0.4,0.5-0.7,0.8-0.9c2.2,0.2,4.4,0.3,6.6,0
				c0.5,0,0.9,0.4,1.2,0.8c0.1,0.4,0,0.9,0.2,1.3c0.1,0.2,0.1,0.6,0,0.8c-0.1,0.5-0.5,0.9-0.4,1.4c0.1,0.5,0.3,0.9,0.4,1.4
				c-0.4,1.2-0.2,2.3-0.1,3.4c0,0.5,0,1.1-0.1,1.6c-0.1,0.8,0,1.6,0,2.5c0,0.7,0.2,1.4,0,2.1c-0.1,0.3-0.1,0.6,0,1c0.2,1,0.1,2,0,3
				c-0.1,1,0.2,2.1,0.2,3.2c0,1.1,0,2.2-0.2,3.3c-0.2,1-0.2,2.1,0,3.2c0.2,1,0.1,2,0,3.1c-0.1,1.2-0.1,2.5,0,3.8
				c0,0.2,0.2,0.4,0.1,0.7C233,193.5,233.1,194.2,233.4,194.8z M214.6,210.8c0.5-0.5,0.6-0.8,0.5-1.4
				C214.7,209.8,214.5,210.1,214.6,210.8z M211.6,165.3c-0.2,0.5-0.3,0.8,0.2,1.1C212,165.8,212,165.8,211.6,165.3z M228.1,200.5
				c0.1-0.2,0.1-0.3,0-0.4c-0.2-0.1-0.3-0.1-0.4,0.1C227.6,200.4,227.8,200.5,228.1,200.5z M225.9,183.4c0.4,0.1,0.4,0.1,0.6-0.1
				C226.3,183.2,226.1,183.1,225.9,183.4z M231.6,198.4c0.1-0.2,0-0.3-0.2-0.3c-0.1,0-0.2,0-0.2,0.2
				C231.4,198.4,231.5,198.5,231.6,198.4z M224,218.2c-0.3-0.3-0.5-0.3-0.5,0.1C223.7,218.3,223.8,218.3,224,218.2z M230.3,216
				c-0.2-0.1-0.3-0.2-0.3-0.1C229.9,216.2,230.1,216.1,230.3,216z M213.1,179.2c-0.1-0.1-0.2-0.1-0.3,0
				C212.9,179.3,213,179.4,213.1,179.2z M212.2,168.1C212.2,168,212.2,168,212.2,168.1c-0.1,0-0.1,0-0.1,0
				C212.1,168.1,212.1,168.1,212.2,168.1C212.2,168.1,212.2,168.1,212.2,168.1z"/>
			<path class="st0" d="M140.4,186.5c0.4,0,0.8,0.3,1.3,0c0.2-0.1,0.6-0.1,0.9,0c1.1,0.2,2.2,0.3,3.2,0c0.4-0.1,0.7,0.2,1.3,0.2
				c0.2,0,0.5-0.3,1-0.2c1,0.6,2.4,1.1,2.7,2.6c0.7,0.2,1.1,0.8,1.6,1.2l0,0c-0.2,0.2-0.5,0-0.7,0.2c-0.1,0.3,0,0.5,0.2,0.6
				c0.4,0.2,0.5-0.3,0.8-0.2c1.3,1,1.5,2.5,1.4,4c-0.1,0.9-0.3,1.8,0.1,2.7c0.1,0.2,0,0.3,0,0.5c-0.3,1.5-0.4,2.9,0,4.4
				c0.1,0.3,0,0.5-0.1,0.8c-0.2,0.7-0.2,1.4,0.1,2.1c-0.1,0.3-0.3,0.6-0.2,0.8c0.5,1.2-0.1,2.4,0,3.6c0.1,0.5,0,1,0.2,1.5
				c0.1,0.3,0.1,0.7,0,1c-0.2,0.3-0.2,0.7-0.1,1c0.2,0.5,0.2,0.9,0,1.3c-0.1,0.3-0.1,0.7,0,0.9c0.3,0.6,0.2,1.3,0.1,1.9
				c-0.1,0.8,0.2,1.7-0.5,2.4c-0.2,0.2-0.4,0.5-0.7,0.6c-0.8,0.4-1.4,1-1.6,1.8c-0.8,0.2-1.3,0.5-1.6,1.2c-0.3,0.8-1.2,0.9-1.8,1.2
				c-1.2-0.2-2.3-0.3-3.5-0.3c-1.9,0-3.7,0.1-5.6-0.1c-0.7-0.1-1.5,0.1-2.3,0.1c-1,0-1.8-0.3-2.2-1.2c-0.3-0.5-0.8-0.7-0.9-1.2
				c-1.5-1-3-1.8-3.3-3.8c0.2-0.5,0.2-0.9,0.1-1.5c-0.2-0.9-0.6-1.9,0.3-2.7c-1.1-1.3-0.4-2.5-0.2-3.8c-0.9-1.4-0.2-2.9-0.2-4.5
				c0.2-0.3,0.4-0.6,0.7-1.1c2.3,0.6,4.6-0.2,6.9,0.1c1,0.8,1.2,1.8,0.9,2.8c-0.1,0.5-0.2,0.9,0,1.3c0.2,0.4,0.1,0.8,0.1,1.2
				c-0.3,1.2-0.1,2.3-0.2,3.5c0,0.4,0,0.7-0.2,1c0.4,1.4,1.2,2.3,2.6,2.6c2.1,0.4,2.8,0.2,4.4-1.2c0-1.1,0.6-2.1,0.5-3.3
				c-0.1-1.1,0-2.3-0.5-3.3c0.6-1.5,0.6-2.9,0.2-4.4c-0.1-0.3-0.3-0.6-0.2-0.9c0.4-0.8,0.4-1.6,0.3-2.4c0-1.4,0.2-2.7,0-4.1
				c-0.1-0.8-0.1-1.5-0.2-2.2c-0.5-1.3-1.5-1.7-2.7-2c-0.7,0.3-1.4,0.3-2.1,0c-0.7,0.3-1.4,0.5-2.2,0.2c-0.6-0.2-1.3-0.1-1.9,0
				c-1.2,0.1-2-0.5-2.6-1.3c-0.6-0.8-1.3-1.4-2-2c-0.9-0.8-1.7-1.8-2-3.1c-0.1-0.6,0.3-0.9,0.4-1.4c-0.4-1.4-0.6-2.8,0.1-4.3
				c-0.4-1-0.6-2-0.4-3.1c0.4,0,0.9,0.2,1.2-0.3c0.3-0.5,0.6-1,0.4-1.7c-0.6,0-0.4,0.5-0.7,0.8c-0.3,0.2-0.5,0.5-1,0.7
				c0.3-0.7,0.2-1.4,0.2-2.1c0-0.7-0.1-1.4,0.2-2c-0.4-1.3-0.5-2.5-0.3-3.8c0.1-0.9-0.1-2-0.1-2.9c0-0.6,0-1.1,0.4-1.6
				c-0.1-1.1-0.7-2.1-0.2-3.2c0.1-0.2,0.1-0.3,0.2-0.5c0.8-0.6,1.2-1.8,2.3-2.1c0.4-0.2,0.5-0.7,0.7-1.1c0.3-0.2,0.6-0.3,0.8-0.6
				c0.8-1.2,1.9-1.5,3.4-1.4c1.8,0.2,3.6,0.1,5.3-0.1c0.5,0,0.9,0.2,1.3,0.5c0.3,0,0.2-0.4,0.4-0.5c0.8,0.3,1.7,0.1,2.7,0.2
				c0.9,0.1,1.8,0.5,2.5,1.1c1,0.9,2,1.9,2.4,3.1c0.3,0.3,0.6,0,1,0.2c0.7,0.9,0.8,2,0.7,3.2c-0.1,0.9-0.6,1.7,0,2.5
				c-0.3,0.6,0.2,1.1-0.1,1.7c-0.2,0.5-0.2,1.1,0.1,1.6c0.3,0.4,0.3,0.9,0.2,1.2c-0.3,0.8,0,1.7-0.4,2.5c-0.2,0.5,0.4,0.9,0.1,1.5
				c-0.3,0.5-0.7,0.9-1.3,1c-0.9-0.3-1.8-0.3-2.7-0.2c-1.2,0-2.3,0-3.5,0c-0.8,0-1.2-0.5-1.3-1.3c-0.1-0.7,0.1-1.4,0.3-2
				c-0.1-0.4-0.2-0.7-0.4-1.1c0.2-0.4,0.3-0.8,0.5-1.1c-0.3-1.1-0.3-2-0.1-3.1c0.2-0.7-0.1-1.4-0.4-1.9c-0.3-0.6-0.6-1.3-1.1-1.9
				c-0.7-0.2-1.4-0.3-2.2-0.5c-0.6,0.6-1.6,0.7-2.4,1.2c-0.3,0.3-0.4,0.8-0.7,1.2c-0.5,0.8-0.3,1.7-0.2,2.6c0.1,1.1,0,2.2,0,3.3
				c0,1.5-0.2,3,0,4.4c0.1,0.9-0.2,1.8-0.1,2.7c0.1,0.5-0.1,1.2,0.5,1.5c-0.6,1.1,0,2.3-0.5,3.3c0.1,0.9,0.4,1.6,1.3,2
				C140,185.8,140.2,186.2,140.4,186.5L140.4,186.5L140.4,186.5z M145.5,190.8c-0.8,0.5-0.9,0.7-0.5,1.8c0.3,0.3,0.6,0.2,1-0.1
				C146.1,191.9,146.3,191.3,145.5,190.8z M151.5,204.2c-0.3,0.6,0,0.9,0.3,1.5C151.9,205,152.2,204.6,151.5,204.2z M141.1,158
				c0.1-0.6-0.1-0.9-0.7-1C140.3,157.6,140.5,157.9,141.1,158z M137,162.3c0.7,0.2,0.7,0.2,0.8-0.5
				C137.5,161.8,137.2,161.8,137,162.3z M135.7,179.2c0.3,0.3,0.5,0.2,0.7-0.1C136.1,178.8,135.9,178.9,135.7,179.2z M151.8,172.5
				c0-0.3,0.1-0.5-0.3-0.6C151.4,172.1,151.3,172.2,151.8,172.5z M152.9,194.9c0.3-0.3,0.6-0.4,0.5-0.8
				C153.1,194.2,152.9,194.3,152.9,194.9z M133,165c0-0.1,0-0.2-0.1-0.3c-0.1-0.1-0.2-0.1-0.3,0.1C132.7,165,132.8,165.1,133,165z
				 M134.2,179.1c-0.3-0.1-0.4,0-0.3,0.3C134.1,179.3,134.3,179.3,134.2,179.1z M152.2,195.7c-0.2,0.1-0.4,0-0.3,0.4
				C152,196,152.1,196,152.2,195.7z M152.1,170.7c-0.2-0.1,0-0.3-0.3-0.3C151.7,170.5,151.7,170.6,152.1,170.7z M134.1,188.4
				c0,0.1-0.1,0.3,0.1,0.3C134.3,188.6,134.3,188.5,134.1,188.4z M134.6,214.1c0.1,0.1,0.3,0.1,0.3,0
				C134.9,214,134.8,214,134.6,214.1z M150.4,214.1c0.1,0.1,0.2,0.2,0.3,0C150.6,214,150.5,214,150.4,214.1z M143.3,162.2
				c0.1-0.1,0.1-0.1,0-0.2C143.2,162.1,143.2,162.2,143.3,162.2z M152.1,208.1c0.1-0.1,0.1-0.1,0-0.2
				C152.1,208,152.1,208,152.1,208.1z"/>
			<path class="st0" d="M273.9,166.8c0,1.3-0.2,2.4-0.3,3.5c0,0.9,0.2,1.7,0.4,2.5c0.1,0.6-0.2,1-0.4,1.5c0.1,0.4,0.2,0.8,0.4,1.1
				c0,1.3-0.4,2.4-0.2,3.7c0.1,0.8,0.2,1.6,0.1,2.5c-0.1,0.7,0,1.5,0,2.2c0,0.4,0.1,0.9-0.1,1.3c0.4,0.4,0.3,1,0.7,1.4
				c0.7,0,1.5,0,2.3-0.2c0.6-0.1,1.2,0,1.8,0c1.3,0,2.6,0,4-0.2c1-0.2,2,0.6,2.5,1.8c-0.2,0.5-0.3,1-0.6,1.5c0.4,1.2,0.2,3-0.3,4
				c-0.4,0.3-0.9,0.5-1.4,0.2c-0.4-0.2-0.9-0.1-1.4-0.1c-1.7-0.1-3.4,0.2-5.1-0.2c-0.5-0.1-1.2,0.3-1.7,0.1
				c-0.6,0.7-0.7,1.4-0.7,2.2c0,1.1-0.2,2.2-0.1,3.2c0.1,0.9,0,1.9,0,2.8c0,0.8-0.1,1.6,0.3,2.4c0,0.3-0.4,0.4-0.4,0.8
				c0,0.1,0,0.2,0,0.3c0.4,0.9,0.2,1.8,0.1,2.6c-0.1,0.5-0.1,1,0,1.6c0.1,1.1,0.3,2.3-0.3,3.3c0.1,0.3,0.3,0.6,0.4,0.9
				c-0.5,0.8,0.1,1.7,0,2.6c0.2,0.4,0.6,0.7,1,1.1c2-0.7,4,0.2,6.4-0.3c0.5-0.4,1.4-0.2,2.3,0.1c0.4,0.1,0.7,0.2,1.1,0.1
				c1.2-0.3,2.3,0.6,2,1.8c-0.2,0.7-0.2,1.3,0,2c0.1,0.3,0.1,0.6-0.1,0.9c-0.1,0.2-0.2,0.5-0.1,0.7c0.3,0.9-0.1,1.4-0.9,1.9
				c-1.6-0.3-3.4-0.2-5.1-0.2c-1,0-2,0.1-3,0.2c-0.8,0.1-1.6,0.2-2.3-0.1c-0.3-0.1-0.7-0.1-1.1-0.1c-1.2,0.2-2.4-0.2-3.6-0.1
				c-1.3,0.1-2.6,0-3.8,0.1c-0.5,0-1-0.1-1.4-0.4c-0.1-0.4,0-0.8-0.3-1.1c0.1-0.4,0.2-0.8,0.4-1.2c-0.1-0.4-0.3-0.7-0.2-1.2
				c0.1-1.1,0-2.3,0.3-3.4c0.4-1.5-0.4-3-0.2-4.5c0.2-1.5,0.2-3.1,0.2-4.8c-0.4-0.5-0.1-1.3-0.2-2c-0.1-1.1-0.4-2.2,0.3-3.3
				c0.1-0.1,0.1-0.5,0-0.6c-0.5-0.9,0.1-2-0.4-3c-0.2-0.4,0.4-0.9,0-1.3c0.4-1.1-0.2-2.3,0.1-3.5c-0.3-0.6-0.3-1.2,0-1.6
				c0.2-1.8-0.5-3.4-0.1-5.1c0.2-1,0-2.1,0-3.2c0-1-0.4-2,0-3c0.1-0.1,0.1-0.4,0-0.5c-0.2-0.6-0.2-1.1,0-1.7c0.2-0.7,0.1-1.5,0-2.2
				c-0.2-1.2-0.3-2.4,0-3.6c0.1-0.2,0.1-0.4,0-0.6c-0.1-0.1-0.1-0.2-0.1-0.3c0.3-1.5,0-2.9,0.1-4.4c0-0.5,0.1-0.9,0-1.4
				c-0.2-1-0.3-1.9,0-2.9c0.1-0.4,0.1-0.8-0.2-1.1c0.1-0.3,0.2-0.5,0.3-0.7c-0.7-1.4,0.2-3-0.3-4.3c0-0.4,0.5-0.6,0.5-0.9
				c0.6-0.1,1.1-0.1,1.6,0c0.6,0.2,1.2,0.2,1.9,0c0.2-0.1,0.4-0.1,0.5-0.1c1.2,0.4,2.4,0.2,3.5,0.2c2,0,3.9,0,5.9,0.1
				c0.8,0,1.6-0.2,2.4-0.2c0.9,0,1.9,0.1,2.8,0c0.7-0.1,1.3,0.3,1.9,0.7c0.1,1,0,2,0.1,3c0.1,0.9-0.5,1.9,0,2.7
				c-0.4,0.9-1.2,1.1-2,1.1c-0.8,0-1.6,0.2-2.3-0.2c-0.4-0.2-0.8,0-1.2,0.2c-1.3-0.3-2.6-0.4-3.8,0c-0.3,0.1-0.6,0.1-0.9-0.1
				c-0.9-0.4-1.8-0.2-2.4,0.5c-0.6,0.7-0.3,1.5,0.2,2.2C273.9,166.7,273.9,166.9,273.9,166.8z M271.6,187.4c0-0.1,0.1-0.3-0.2-0.4
				C271.5,187.2,271.4,187.3,271.6,187.4z M270.5,219.3L270.5,219.3L270.5,219.3L270.5,219.3z M274.7,221L274.7,221L274.7,221
				L274.7,221z"/>
			<path class="st0" d="M83.2,173.7c-0.1,0.4-0.4,0.4-0.6,0.6c0.4,0.4,0.5,0.9,0.7,1.4c-0.5,0.8,0,1.7-0.5,2.5
				c0.2,0.5,0.3,0.9,0.2,1.4c0,1.6,0,3.3,0,4.9c0,0.7,0.1,1.4,0.7,1.9c0.9,0.3,1.7-0.1,2.6-0.1c1.4,0,2.9,0,4.3,0c0.4,0,0.8,0,1,0.4
				c1-0.6,1.5-0.6,2,0.1c0.6,0.9,0.4,1.8,0,2.6c-0.2,1,0.2,1.9,0.2,2.8c0,0.9-0.3,1.4-0.9,1.6c-3.3-0.2-6.3-0.1-9.3-0.2
				c-0.4,0.4-0.6,0.8-0.6,1.3c-0.1,1.5,0.3,2.9-0.1,4.4c-0.1,0.2,0.2,0.5,0.3,0.9c0,0.2-0.3,0.3-0.4,0.5c0.2,0.7,0.3,1.4,0,2.1
				c0.1,0.5,0.5,0.8,0.4,1.3c0.1,0.4-0.4,0.6-0.4,1.1c0.2,0.8,0.2,1.8,0,2.8c-0.2,1.2,0.3,2.4,0.3,3.9c-0.1,0.4-0.3,1.1-0.2,2
				c0.1,0.7-0.1,1.4,0.1,2.2c0.2,0.8,0.6,1.3,1.3,1.6c1-0.4,2-0.6,3-0.2c0.5,0.1,1,0.1,1.5,0c1.4-0.3,2.9-0.4,4.3,0
				c0.2,0.1,0.5,0,0.7-0.1c0.6-0.2,1.2-0.2,1.7,0.4c0.1,0.3,0.3,0.6,0.4,0.9c-0.1,0.6-0.3,1.1-0.4,1.6c0.5,1.2,0,2.4,0.2,3.6
				c-0.2,0.4-0.5,0.7-0.8,0.9c-2.1-0.1-4.2-0.3-6.3-0.1c-2,0.2-4.1-0.4-6,0c-2.4-0.3-4.8-0.2-7.3,0c-0.3-0.2-0.6-0.6-0.9-0.9
				c-0.5-1.6,0.3-3.3-0.3-4.8c0-0.3,0.4-0.4,0.4-0.7c0.1-0.9-0.2-1.8,0.2-2.6c-0.1-1.5-0.8-2.7-0.2-4.2c0.3-0.8,0.2-1.7-0.1-2.5
				c0.1-0.2,0.3-0.5,0.3-0.6c-0.2-2.1-0.7-4.1,0.1-6.2c-0.3-0.6-0.3-1.2-0.2-2c0.1-0.8,0-1.7-0.1-2.6c0-0.8,0-1.7,0.1-2.5
				c0-0.7-0.1-1.2-0.4-1.7c0.7-1,0.5-2.2,0.4-3.3c-0.1-0.8-0.2-1.6,0-2.4c0.2-1.2,0-2.4,0-3.6c0-0.4-0.2-0.8-0.1-1.1
				c0.1-1.2,0-2.4,0.1-3.7c0.1-1,0.2-2-0.1-3.1c-0.2-0.9-0.2-2,0.2-2.9c-0.5-1.5,0.5-2.9-0.3-4.4c0.3-0.6,0.2-1.2,0.4-1.9
				c-0.4-0.7-0.4-1.4-0.3-2.2c0.2,0,0.4-0.1,0.7-0.1c-0.2-0.3-0.3-0.7-0.8-0.4c0.2-0.6,0.5-1.2,0-1.6c0.2-0.6,0.2-1,0.2-1.5
				c0-1.3-0.2-2.6,0.1-3.9c0.1-0.3,0.3-0.4,0.5-0.6c1.8-0.1,3.7,0.5,5.5,0c1.6,0.3,3.2,0.2,4.7,0.1c0.5-0.1,1,0.1,1.4,0.1
				c1.5,0.1,3-0.4,4.5-0.2c1,0.1,2.1-0.2,3.1,0.2c0.9,0.3,1.3,0.6,1.2,1.4c-0.2,1.6,0,3.2-0.1,4.9c-0.2,0.3-0.4,0.6-0.7,0.9
				c-3.8,0.1-7.6-0.2-11.3-0.1c-0.6,0.2-0.7,0.8-0.9,1.3c0.3,0.5,0.1,1.2,0.6,1.6C82.6,169.2,82.9,171.5,83.2,173.7z M79.9,171.4
				c0.1-0.1,0.2-0.1,0-0.2C79.9,171.3,79.9,171.4,79.9,171.4C79.9,171.4,79.8,171.4,79.9,171.4C79.8,171.4,79.9,171.4,79.9,171.4z
				 M91.8,191.3c0.5-0.3,0.5-0.9,0.7-1.4c-0.6-0.3-0.9,0.1-1.1,0.5C91.2,190.8,91.3,191.2,91.8,191.3z M76.1,172.8
				c0.3-0.2,0.4-0.5,0.1-0.7c-0.3-0.2-0.6-0.5-1-0.1C75.4,172.5,75.7,172.7,76.1,172.8z M78,205.8c-0.5,0.2-0.7,0.4-0.6,0.9
				C77.9,206.6,78.1,206.4,78,205.8z M77.4,172.8c-0.3,0-0.6-0.3-0.8,0.1C77,173.3,77.2,173.3,77.4,172.8z M77.6,170.6
				c0.2,0.3,0.4,0.4,0.7,0.3c0.1-0.2,0.2-0.4-0.1-0.5C77.9,170.3,77.8,170.5,77.6,170.6z M79.5,203.1c0.3,0.4,0.5,0.4,0.8,0
				C80,202.8,79.8,202.8,79.5,203.1z M82.3,191.2c0.1,0.2,0.3,0.3,0.6,0.1c0-0.2,0-0.4-0.3-0.5C82.4,190.9,82.3,190.9,82.3,191.2z
				 M89.4,188.9c-0.1-0.4-0.3-0.4-0.6-0.2C88.9,189,89.1,189.1,89.4,188.9z M81.7,169.5c-0.2,0-0.3,0-0.3,0.2c0,0,0.1,0.1,0.1,0.1
				C81.8,169.8,81.8,169.7,81.7,169.5z M77.2,163.6c-0.1,0.1-0.3,0.1-0.2,0.4C77.2,164,77.3,164,77.2,163.6z M79.6,162
				c-0.3-0.1-0.5-0.1-0.3,0.2C79.5,162.2,79.5,162.1,79.6,162z M80.2,179.8c0.1-0.1,0.1-0.2,0-0.2c0,0-0.2,0-0.2,0
				C80,179.7,80.1,179.8,80.2,179.8z M80,187.2c-0.1-0.1-0.1-0.2-0.3-0.2C79.7,187.3,79.8,187.3,80,187.2z M78.9,187.6
				c0,0.1,0.1,0.1,0.2,0C79.1,187.6,79,187.6,78.9,187.6z M79.6,192.7L79.6,192.7L79.6,192.7L79.6,192.7z M78.9,176.6
				c-0.1-0.1-0.2-0.1-0.3,0C78.8,176.7,78.9,176.7,78.9,176.6z M79.2,176c-0.1-0.1-0.2-0.1-0.3,0C78.9,176.1,79,176.1,79.2,176z
				 M80.7,162.6c-0.1-0.1-0.2-0.1-0.2,0C80.5,162.7,80.6,162.8,80.7,162.6z M83.1,189.3C83,189.3,83,189.3,83.1,189.3
				c-0.1-0.1-0.1,0-0.1,0C83,189.4,83,189.4,83.1,189.3C83,189.4,83,189.4,83.1,189.3z"/>
			<path class="st0" d="M193.5,193.6c-0.1-0.2,0.1-0.5-0.1-0.8c-0.4-0.3-0.7-0.1-1.1,0.2c0.1,0.7-0.6,1-1,1.5
				c-0.1,2.5,0.1,5-0.1,7.5c0.1,0.3-0.3,0.4-0.4,0.8c0.1,0.4,0.4,0.7,0.7,1.1c-0.4,1.1-0.3,2.3-0.1,3.5c-0.6,0.9-0.3,2-0.2,3
				c0.1,0.8,0.2,1.5-0.1,2.3c-0.1,0.2-0.1,0.5,0,0.7c0.3,0.6,0.1,1.1-0.1,1.6c0,0.4,0.2,0.8,0.2,1.3c0,0.8,0.4,1.1,1.1,1.1
				c0.8,0,1.6-0.1,2.5-0.2c0.2,0,0.5,0,0.7,0.1c0.5,0.2,1,0.2,1.5,0.1c1.9-0.5,3.8-0.1,5.7-0.2c0.4,0,0.8,0.3,1.1,0.6
				c0.3,0.7,0.5,1.4,0.2,2.1c-0.2,0.4,0.1,0.8,0.2,1.2c-0.3,0.8-0.4,1.6,0,2.4c-0.3,0.4-0.7,0.8-0.8,1.1c-0.6,0.4-1-0.1-1.4-0.1
				c-1.9,0.2-3.9-0.1-5.8,0c-0.7,0-1.4,0.3-2.1,0.2c-0.6,0-1.1-0.3-1.7-0.2c-0.5,0.1-1,0-1.5,0.2c-0.6,0.2-1.2-0.2-1.9-0.4
				c-0.6,0.5-1.4,0-2.1,0.1c-0.2-1.7-0.4-2.4,0-4.1c-0.4-0.4-1-0.5-1.4-0.9c0.4,1.2-0.4,1.5,0.3,2.8c0.4,0.6,0.1,1.5-0.3,2.3
				c-0.7,0-1.3,0-2.1,0c-0.7-0.5-1.2-1.1-0.8-2.3c0.2-0.7,0.1-1.5,0.1-2.2c0-0.8,0-1.6,0.3-2.3c0.1-0.3,0-0.6,0-0.8
				c0.3-1.6-0.5-3.1-0.3-4.7c0.3-1.4,0.1-2.8,0.2-4.3c0.1-1.4-0.2-2.7-0.4-4.1c0.2-0.3,0.4-0.8,0.5-1.1c0.3-0.6,0.8,0.1,1-0.5
				c-0.3-0.4-0.9-0.7-1.2-1.3c0.2-0.6,0.2-1.2,0-1.8c-0.1-0.6-0.1-1.2,0-1.8c0.1-0.8,0.1-1.6,0-2.4c0-0.6-0.2-1.1-0.3-1.6
				c0.6-0.9,0.5-1.8,0.3-2.8c-0.2-0.9-0.2-1.9,0-2.8c0.2-1.3,0.1-2.5,0-3.8c-0.1-1.3-0.2-2.6,0.1-3.8c0.1-0.6,0.1-1.3-0.2-1.9
				c0.2-0.7,0.4-1.3,0.1-2c-0.1-0.2,0-0.5,0-0.7c0-1.4,0.1-2.9,0.2-4.3c0.1-0.8-0.2-1.6-0.1-2.3c0.2-1.7-0.5-3.4,0.1-5.1
				c0.1-0.4-0.2-0.8-0.1-1.1c0-1.7,0-3.5,0-5.4c0.2-0.3,0.6-0.7,1.1-0.9c1.6,0.5,3.3,0.2,5,0.3c0.9,0.2,1.9,0.3,2.8,0
				c0.5-0.2,0.8,0.2,1.2,0.2c2-0.1,3.9,0.1,5.9-0.2c1.3-0.2,2.7-0.3,4,0.1c0.4,0.1,0.6,0.3,0.9,0.6c0,1.7,0,3.5,0,5.2
				c0,0.6-0.1,0.7-0.7,1.3c-3.8,0.4-7.6-0.3-11.5,0c-1,0.9-1.1,1.5-0.2,3.3c-0.1,0.3-0.2,0.5-0.4,0.8c0.2,0.5,0.1,0.9,0.1,1.5
				c-0.1,1-0.2,2.1,0.2,3.1c0.3,1,0.3,1.1-0.3,1.9c0.4,0.8,0.5,1.6,0.3,2.5c-0.4,1.3,0,2.7,0,4c0,0.5,0.1,1-0.3,1.4
				c0.7,1.4-0.4,3.1,0.9,4.2c1,0.3,1.9-0.1,2.8-0.1c1.8,0,3.5,0.1,5.3,0c0.9,0,1.7,0.2,2.3,1.1c-0.3,1.7-0.3,3.6-0.3,5.5
				c-0.3,0.3-0.6,0.6-1.1,0.9c-0.7,0.1-1.5-0.3-2.3-0.2c-1.1,0-2.2,0.1-3.4,0.1C194.8,193.8,194.2,193.6,193.5,193.6L193.5,193.6z
				 M183.7,217.4c0.4,0.3,0.8,0.2,1.1-0.1c0-0.4-0.2-0.6-0.6-0.6C183.9,216.8,183.7,217,183.7,217.4z M201.5,219.2
				c0-0.5-0.1-0.8-0.6-0.9c-0.3,0.1-0.4,0.3-0.3,0.6C200.7,219.2,201,219.4,201.5,219.2z M191.8,217.8c-0.4-0.4-0.7-0.5-1.1-0.1
				C191,218.3,191.3,218.3,191.8,217.8z M187.3,212.7c0.3,0,0.4-0.1,0.2-0.3C187.3,212.3,187.3,212.4,187.3,212.7z M185.3,158.1
				C185.3,158.1,185.3,158,185.3,158.1c0-0.1,0-0.1,0-0.1C185.2,158,185.2,158,185.3,158.1C185.2,158.1,185.2,158.1,185.3,158.1z
				 M188.2,160.7c-0.1,0-0.1,0-0.2,0C188.1,160.7,188.1,160.7,188.2,160.7z M185.7,193.2c0.1,0.1,0.1,0.1,0.2,0
				C185.8,193.2,185.8,193.2,185.7,193.2z M187.3,182.9L187.3,182.9L187.3,182.9L187.3,182.9z"/>
			<path class="st0" d="M253.4,178.1c-0.5,1.5,0.2,3-0.2,4.6c0.4,1,0.6,2.1,0.2,3.2c-0.1,0.2,0,0.4,0,0.5c0,1.1,0.3,2.2,0,3.3
				c-0.1,0.4,0,0.8,0.1,1.3c0.1,0.4,0.1,0.9,0,1.3c-0.2,0.5-0.2,1,0,1.5c0.1,0.2,0.1,0.4,0.1,0.5c-0.1,0.9-0.2,1.9,0,2.8
				c0.1,0.5-0.3,0.8-0.5,1.2c0.6,0.9,0.3,2,0.3,3c0,0.7,0.5,1.5,0,2.2c0.4,0.9-0.2,1.9-0.1,2.8c0,0.3,0,0.6,0,0.9
				c0.1,0.8,0.2,1.5,0.1,2.3c-0.1,0.9-0.2,1.9,0.1,2.9c0.2,0.6,0,1.3,0,1.9c-0.1,1-0.2,1.9,0.1,2.8c0.2,0.6-0.1,1.1-0.2,1.7
				c-0.1,1.4,0.3,2.8,0.2,4.2c0,0.7-0.1,1.7-0.8,1.7c-2.3,0-4.6,0.4-7.1-0.1c-0.1,0-0.2-0.1-0.3-0.2c-0.4-1.5-0.8-3-0.3-4.7
				c0.2-0.7,0.3-1.4-0.3-2c0.6-0.6-0.1-1.5,0.4-2c-0.1-0.4-0.3-0.7-0.4-1c0.3-0.6,0.3-1.2,0.2-1.8c-0.1-0.4-0.1-0.7,0-1
				c0.4-0.9,0-1.9,0-2.8c0-0.4-0.1-0.9,0.1-1.3c0.2-0.3,0.1-0.6,0.1-0.8c-0.3-1.2,0.1-2.4-0.2-3.5c-0.4-1.3,0.7-2.4,0.1-3.6
				c-0.1-0.2,0.1-0.5,0.2-0.7c-0.4-0.7-0.7-1.5-0.1-2.2c0,0,0.1-0.1,0-0.2c-0.3-1.2,0.1-2.3-0.1-3.5c-0.1-1.3-0.1-2.6-0.1-3.8
				c0-0.9,0.2-1.7,0.1-2.7c-0.2-1.2-0.2-2.5,0-3.9c-0.1-0.1-0.2-0.4-0.3-0.7c0.2-1.3,0.3-10,0-10.7c0.1-0.2,0.3-0.5,0.4-0.8
				c-0.1-0.3-0.3-0.5-0.4-0.9c0.6-0.8-0.1-1.9,0.5-2.8c-0.3-0.7-0.4-1.3,0-1.9c-0.6-0.7-0.6-0.7-1.5-1c-1.4,0.2-2.8,0.2-4.2,0.2
				c-0.1,0-0.1,0-0.2,0c-1.1,0.2-1.8-0.2-2.1-1c-0.4-1.8-0.1-3.5-0.4-5.2c0.3-0.4,0.6-0.7,0.9-1.1c3.9,0.1,7.8,0.1,11.7,0.2
				c3.9,0.1,7.8-0.3,11.7,0c0.5,0.3,0.5,0.8,0.8,1.2c-0.3,0.9-0.6,1.8,0,2.9c0.4,0.7-0.3,1.4-0.2,2.2c-0.9,1.2-2.1,0.8-3.3,0.8
				c-1.4,0-2.8,0-4.1-0.2c-0.9,0.9-0.8,1.9-0.7,2.9c0,0.2,0.1,0.4,0.1,0.6c-0.1,1.4,0,2.9-0.1,4.3c-0.1,1.6,0.6,3.2,0,4.7
				c-0.2,0.2-0.5,0.4-0.7,0.6c-0.1,0.3-0.1,0.6,0,0.9C252.9,177.8,253.2,177.9,253.4,178.1L253.4,178.1z M247.7,214.3
				c-0.6-0.2-0.9-0.1-1.1,0.4C247,215,247.4,214.9,247.7,214.3z M250.3,207.1c0-0.6,0-0.6-0.4-0.8
				C249.9,206.8,249.9,206.8,250.3,207.1z M250.9,185.6c0.3-0.5,0.1-0.7-0.4-0.8C250.2,185.2,250.4,185.4,250.9,185.6z M252.6,182.3
				c-0.4,0.2-0.6,0.4-0.5,0.9C252.5,183,252.8,182.9,252.6,182.3z M251.3,193c0.2-0.3,0.1-0.4-0.2-0.4
				C251,192.8,251,192.9,251.3,193z M246.7,161.8c0.4,0.1,0.5,0,0.3-0.3C246.9,161.6,246.9,161.7,246.7,161.8z M237.3,162
				c0.1-0.1,0.1-0.2,0-0.2C237.2,161.8,237.2,161.9,237.3,162z M245.9,212.4L245.9,212.4L245.9,212.4L245.9,212.4z"/>
			<path class="st0" d="M292.1,156.5c2.3-0.2,4.1-0.2,7-0.1c0.8,0,0.5,1.3,0.9,1.8c-0.5,1.3-0.4,2.7-0.1,4c0.1,0.4,0,0.8-0.2,1.1
				c-0.3,0.5-0.3,1.1,0,1.6c0.1,0.2,0.3,0.3,0.2,0.5c-0.6,0.9-0.1,2-0.4,2.9c0.3,0.8,0.6,1.5,0.1,2.3c-0.4,0.7,0.1,1.4,0.3,2.1
				c-0.5,1.8,0,3.6-0.2,5.4c-0.2,1.8-0.3,3.6-0.2,5.4c0.1,1.8,0.1,3.6,0.2,5.3c0.2,1.8-0.8,3.6,0.1,5.4c-0.4,0.7-0.4,1.5-0.3,2.4
				c0.2,1,0.2,2.1,0,3.1c-0.1,0.6-0.1,1.2-0.2,1.8c0,0.4,0.4,0.5,0.4,0.9c-0.3,0.7-0.4,1.5-0.3,2.4c0.1,0.7-0.1,1.6-0.1,2.4
				c0,0.8-0.1,1.6,0.2,2.4c0.1,0.2,0.1,0.5-0.1,0.7c-0.2,0.4-0.2,0.9-0.1,1.3c0.2,1.2,0.2,2.5,0,3.7c-0.1,0.6,0.1,1.3,0.8,1.7
				c1.7,0,3.5,0.4,5.3-0.2c1.7,0.3,3.3,0.1,5.1,0.2c0.8,0.8-0.1,1.9,0.6,2.7c-0.3,0.9-0.4,1.7-0.1,2.5c0.2,0.8-0.2,1.4-0.7,2.1
				c-0.6,0.3-1.3,0.2-2.1,0.1c-1.1-0.1-2.2-0.2-3.3,0.1c-0.3,0.1-0.6,0.1-1,0.1c-1.8-0.3-3.5-0.3-5.3-0.2c-0.9,0-1.7,0.2-2.6-0.2
				c-0.1,0-0.2,0-0.2,0c-1,0.4-2,0.3-3.1,0.3c-0.7,0-1.3,0-1.9-0.7c0.7-1.8,0.1-3.7,0.2-5.6c0.1-1.8-0.1-3.7-0.1-5.6
				c0-1.9,0.3-3.9,0-6c0.3-0.6,0.3-1.2-0.2-1.9c0.2-0.6,0.4-1.1,0.5-1.7c-0.6-1.4-0.4-2.8-0.2-4.3c0.1-0.9,0-1.9-0.1-2.8
				c-0.2-0.8-0.2-1.8,0-2.6c0.3-1,0-1.8-0.3-2.7c0.2-0.7,0.4-1.4,0.3-2.3c-0.1-0.7-0.1-1.5,0.1-2.3c0.2-0.6,0-1.3,0-2
				c0-2,0-4.1,0-6.1c0-0.5,0.1-1.1-0.2-1.6c-0.1-0.2-0.1-0.4,0-0.6c0.4-1.2,0.1-2.5,0-3.7c0-0.2,0-0.4,0-0.6c0.2-1.8-0.2-3.5,0-5.3
				c0.1-1-0.1-2,0.2-3c0.1-0.4-0.3-0.8-0.2-1.2c0.4-1.2,0-2.3,0-3.5C291,157.7,291.3,157,292.1,156.5z"/>
			<path class="st0" d="M159.1,190.6c0.1-0.3,0.5-0.2,0.5-0.5c-0.5-0.5-0.5-1.3-0.5-1.9c0-0.8-0.3-1.6,0.1-2.3
				c-0.5-1.4,0.4-2.8-0.1-4.1c0.1-1.7,0.5-3.2,0-4.8c-0.1-0.2-0.2-0.5-0.1-0.7c0.5-1-0.1-2,0.2-3c0-0.1,0-0.3-0.1-0.4
				c-0.2-0.9-0.2-1.7,0.3-2.5c-0.8-1.6-0.3-3.2-0.3-4.9c0.3,0,0.7,0.3,1-0.1c-0.1-0.5-0.5-0.3-0.9-0.4c-0.3-1.2-0.1-2.4-0.1-3.7
				c0-1.1-0.3-2.1-0.3-3.3c0.5-1.4,1.3-1.7,3.2-1.4c1.2,0.2,2.5,0.2,3.7,0c0.4-0.1,0.8-0.1,1.2-0.1c0.6,0.9,1,1.7,0.6,2.8
				c-0.4,1.2-0.1,2.4,0.2,3.6c-0.5,0.8-0.6,1.5-0.1,2.4c0.3,0.5-0.2,0.9-0.4,1.4c0.5,0.9,0,2,0.4,3c0.1,0.3-0.3,0.4-0.3,0.6
				c0,1-0.1,1.9,0.3,2.9c-0.2,0.4-0.1,0.9-0.1,1.4c0,1.2,0,2.5-0.1,3.7c0,0.8-0.1,1.6,0,2.5c0.1,0.8-0.4,1.5-0.2,2.3
				c0.4,1.9,0.1,3.8,0.4,5.6c0.2,1-0.2,2.1-0.3,3.2c-0.1,0.8-0.3,1.6,0.4,2.3c-0.5,0.9-0.5,1.7-0.3,2.7c0.1,0.9,0.2,1.9-0.1,2.8
				c-0.2,0.7-0.2,1.5,0.1,2.2c0.1,0.4,0.2,0.7,0,1.1c-0.2,0.6-0.4,1.2,0,1.6c-0.4,1.3-0.3,2.5,0,3.8c-0.1,0.4-0.4,1,0,1.5
				c0,0,0,0.1,0,0.1c-0.4,1.2,0.1,2.4,0,3.6c-0.1,1.2-0.5,2.6,0.7,3.8c3.4,0,6.8,0,10.3,0c0.5,0.5,0.3,1,0.1,1.5
				c0.6,0.7,0.6,1.4-0.1,2.1c0.4,0.7,0.3,1.4,0.5,2.1c0.2,0.7-0.5,1.2-0.9,1.7c-0.8,0.1-1.6-0.1-2.3-0.1c-1,0-2.1-0.3-3.1,0.1
				c-0.3,0.1-0.7,0.1-1.1,0c-1.2-0.3-2.3,0-3.5-0.1c-1.5-0.2-3.1,0.4-4.6-0.3c-0.6,0.4-1.3,0.7-2,0.3c-0.3-0.2-0.7-0.1-1,0.2
				c-0.5-0.2-1-0.3-1.5-0.7c-0.1-0.4,0-0.8,0.1-1.3c0.2-1.1,0.1-2.3,0-3.4c0-0.8-0.2-1.6,0-2.4c0.1-0.4-0.2-0.7-0.2-1
				c-0.1-1.5-0.1-3,0.1-4.4c0.2-1.3,0-2.5,0.1-3.8c0.1-0.6-0.6-1.2,0.1-1.7c-0.3-0.8-0.4-1.5-0.1-2.3c0.1-0.2,0.1-0.6,0-0.8
				c-0.4-0.8,0.1-1.6-0.2-2.4c0-0.1,0-0.3,0-0.4c0.9-1.3,0-2.5,0.1-3.8c0-0.4-0.2-0.8,0-1.2c0.1-0.3,0.1-0.5,0-0.8
				c-0.1-0.1-0.1-0.2-0.1-0.3C159.5,192.7,158.9,191.7,159.1,190.6z M163.4,174.3c0.6,0.5,1.2,0,1.8,0.2c0.3-0.1,0.4,0.5,0.7,0.4
				c0.3-0.7,0.2-0.8-0.7-1.3C164.6,173.7,164,174,163.4,174.3z M165.8,168.3c-0.6,0.1-1,0.3-1.2,0.6c0.1,1.1,0.2,1.2,0.9,1.7
				C165.5,169.9,165.6,169.2,165.8,168.3z M164.2,184.7c-0.1-0.3-0.4-0.5-0.7-0.4c-0.4,0.1-0.6,0.4-0.4,0.8
				C163.6,185.4,164,185.2,164.2,184.7z M165.8,179.4c-0.2,0.4-0.3,0.8,0.1,1.2c0.5,0.1,0.7-0.1,0.7-0.5
				C166.6,179.7,166.4,179.4,165.8,179.4z M162.1,211.8c-0.3-0.2-0.6-0.6-0.9-0.1C161.4,212.1,161.7,212.2,162.1,211.8z
				 M166.2,165.5c-0.5-0.3-0.5-0.3-0.6,0.2C165.8,165.8,166,165.8,166.2,165.5z M166.4,211c0,0.3,0,0.5,0.3,0.7
				C166.8,211.4,166.8,211.2,166.4,211z M166.6,157.3c0.1-0.2,0-0.3-0.1-0.3c-0.1,0-0.2,0-0.2,0.1
				C166.3,157.2,166.4,157.3,166.6,157.3z M161.7,184.8c0,0.1-0.1,0.2,0.1,0.3C161.9,185,161.8,184.9,161.7,184.8z M175.5,223.9
				c-0.1,0.2-0.2,0.2,0,0.3C175.6,224.1,175.6,224.1,175.5,223.9z M164.4,189.4c-0.1-0.1-0.1-0.1-0.2,0
				C164.3,189.4,164.3,189.4,164.4,189.4z M165,203.5L165,203.5L165,203.5L165,203.5z"/>
			<path class="st0" d="M152.5,190.3c0,0.1,0,0.1,0.1,0.2C152.3,190.4,152.4,190.3,152.5,190.3L152.5,190.3z"/>
			<path class="st0" d="M253.4,178.1C253.5,178,253.4,178.2,253.4,178.1C253.4,178,253.4,178,253.4,178.1L253.4,178.1z"/>
			<path class="st0" d="M193.5,193.5c0,0-0.1,0.1-0.1,0.1c0,0,0-0.1,0-0.1C193.4,193.6,193.5,193.6,193.5,193.5L193.5,193.5z"/>
		</g>
	</g>
	<g>
		<path class="st0" d="M189.8,254.4c0-0.9,0-1.7,0-2.6c0-1.8,0-3.6,0-5.5c0-1.3,0-2.6,0-3.9c0-1,0-1,1.1-1c0.6,0,1.2,0,1.8,0
			c0.3,0,0.4,0.1,0.5,0.3c0.6,1.5,1.2,3,1.8,4.5c0.4,0.9,0.7,1.9,1,2.8c0.1,0.2,0.2,0.4,0.4,0.5c0.2,0,0.3-0.1,0.3-0.2
			c0,0,0.1-0.1,0.1-0.2c-0.1-1-0.1-2-0.2-3c-0.1-1.5-0.2-2.9-0.1-4.4c0-0.2,0.1-0.3,0.3-0.3c1,0,1.9,0,2.9,0c0.2,0,0.2,0.1,0.2,0.2
			c0,1.2,0,2.5,0,3.7c0,0.4,0,0.9,0,1.4c0,2.1,0,4.1,0,6.2c0,1.4,0,2.9,0,4.3c0,0.4-0.1,0.5-0.5,0.5c-0.8,0-1.5,0-2.3,0
			c-0.4,0-0.6-0.1-0.7-0.4c-0.5-1.5-1.2-2.8-1.7-4.3c-0.4-1-0.8-2-1.1-3c0-0.1,0-0.1,0-0.2c-0.2-0.1-0.3-0.4-0.5-0.4
			c-0.2,0.1-0.4,0.3-0.4,0.6c0,0.8,0,1.6,0.2,2.3c0,0.1,0,0.2,0,0.2c0,1.5,0.2,3,0.1,4.5c0,0.6-0.1,0.6-0.7,0.6
			c-0.5,0-1-0.1-1.5-0.1c-0.3,0-0.5,0.1-0.8,0c-0.3,0-0.3-0.2-0.3-0.4C189.8,256.3,189.8,255.3,189.8,254.4z M195,250
			c-0.2-0.2-0.4-0.1-0.4,0.1c0,0.4,0.4,0.2,0.6,0.4c0.1,0.1,0.3,0,0.3-0.2C195.6,249.8,195.3,249.9,195,250z"/>
		<path class="st0" d="M140.7,255.9c0-0.6,0.1-1.2,0.1-1.9c-0.1-0.7,0-1.3,0-2c-0.1-3.4,0-6.8,0-10.2c0-0.4,0.1-0.5,0.5-0.5
			c0.8,0,1.6,0,2.4,0c0.3,0,0.5,0.1,0.6,0.4c0.8,2,1.6,4,2.4,6.1c0.2,0.6,0.5,1.1,0.5,1.8c0,0.1,0.1,0.2,0.2,0.2
			c0.3-0.1,0.6-0.3,0.9-0.4c0.1-0.1,0.1-0.2,0-0.2c-0.8-0.6-0.3-1.4-0.4-2.1c-0.1-0.6-0.2-1.2-0.2-1.8c0-0.3,0.1-0.6,0.1-0.8
			c-0.1-0.9-0.1-1.8-0.1-2.6c0-0.4,0.1-0.5,0.5-0.5c0.8,0,1.6,0,2.4,0c0.4,0,0.6,0.2,0.5,0.6c-0.1,0.6-0.1,1.2-0.1,1.7
			c-0.1,1.3,0,2.5-0.1,3.8c0,0.5,0.1,1,0.1,1.5c0,1.5,0,3,0,4.5c0,1.3,0,2.5,0,3.8c0,0.3-0.1,0.5-0.5,0.5c-0.8,0-1.7,0-2.5,0
			c-0.2,0-0.3-0.1-0.4-0.3c-0.4-0.8-0.6-1.7-1-2.5c-0.5-1.1-0.9-2.2-1.3-3.4c-0.2-0.6-0.6-1.2-0.8-1.9c-0.1-0.1-0.2-0.3-0.4-0.2
			c-0.2,0.1-0.3,0.1-0.3,0.4c0,1,0.1,1.9,0.2,2.9c0,0.6,0.1,1.1,0.1,1.7c0,0.7,0,1.4,0.1,2c0,0.4,0,0.7-0.1,1
			c-0.1,0.4-0.6,0.3-0.9,0.3c-0.7-0.1-1.3,0-1.9-0.1c-0.3,0-0.4-0.1-0.4-0.4C140.8,256.9,140.7,256.4,140.7,255.9z"/>
		<path class="st0" d="M44.1,241.3c1,0,2.2,0,3.4,0.2c1.5,0.3,2.5,1.1,2.9,2.6c0.3,1.1,0.3,2.2-0.2,3.3c-0.2,0.4-0.2,0.7,0.2,1.1
			c0.7,0.8,0.9,1.7,1,2.7c0.1,1.5,0,2.9-0.4,4.2c-0.2,0.6-0.6,1.1-1.3,1.5c-0.8,0.5-1.6,0.6-2.4,0.7c-1.9,0.1-3.8,0.1-5.7,0.1
			c-0.4,0-0.4-0.3-0.4-0.5c0.1-2.5,0-4.9,0-7.4c0-2.4,0-4.7,0-7.1c0-0.4,0.1-0.7,0-1.1c-0.1-0.2,0.1-0.4,0.4-0.3
			C42.3,241.3,43.1,241.3,44.1,241.3z M44.3,253.7c0,0.3,0,0.4,0,0.6c0,0.3,0.3,0.6,0.6,0.5c0.7-0.3,1.5-0.1,2.2-0.5
			c0.6-0.4,1.2-1.1,1.2-1.8c-0.1-1.2-0.4-1.9-1.8-2.3c-0.5-0.2-1,0.1-1.5-0.1c-0.4-0.1-0.8,0.5-0.7,0.8c0.2,0.5,0.1,1,0.1,1.5
			C44.4,252.8,44.4,253.3,44.3,253.7z M44.2,245.6c0,0.2,0,0.6,0,0.8c0,0.6,0.4,0.7,0.7,0.6c0.6-0.1,1.2,0,1.8-0.2
			c0.4-0.2,0.8-0.6,0.7-1c0-0.7-0.3-1.1-0.8-1.3c-0.4-0.2-0.7,0-1.1-0.1C44.3,244.2,44.2,244.3,44.2,245.6z"/>
		<path class="st0" d="M158.9,251.4c0-1.4-0.1-2.4,0-3.4c0.1-0.7-0.1-1.4,0-2.2c0-1.2,0.4-2.3,1.2-3.3c0.6-0.6,1.3-0.9,2.1-1.1
			c1.3-0.4,2.6-0.4,3.8-0.2c0.8,0.2,1.7,0.4,2.4,0.9c0.9,0.7,1.3,1.5,1.6,2.5c0.1,0.6,0.2,1.1,0.2,1.7c0,0.4-0.1,0.6-0.6,0.6
			c-0.7,0-1.4,0-2.1,0c-0.7,0-0.8-0.1-0.7-0.8c0.1-0.7-0.3-1.4-1-1.6c-1.1-0.4-2.1-0.2-3.1,0.2c-0.5,0.2-0.6,0.6-0.7,1
			c-0.1,0.3-0.1,0.7-0.1,1.1c0,1.7,0.1,3.4,0,5.2c0,0.5,0.1,0.9,0.2,1.3c0.1,0.7,0.6,1.3,1.3,1.3c0.7,0,1.4,0.3,2.1,0
			c0.8-0.3,1.1-0.9,1.3-1.6c0.1-0.2,0.1-0.5,0.1-0.7c0.1-0.4-0.1-0.7-0.5-0.7c-0.5,0-1,0.2-1.6,0.2c-0.9,0-1-0.1-1-1
			c0-0.5,0-1,0-1.6c0-0.4,0.1-0.6,0.6-0.6c0.7,0,1.3,0,2,0c1,0.1,2,0,3,0c0.4,0,0.5,0.1,0.5,0.5c0,1.1,0,2.3,0,3.4
			c0,0.7,0,1.5-0.2,2.1c-0.2,0.8-0.5,1.5-1.2,2.1c-0.9,0.7-1.9,0.9-3,1.1c-1,0.2-1.9,0-2.9,0c-1.8-0.1-3.4-1.5-3.9-3.2
			C158.8,253.4,159,252.2,158.9,251.4z M164.6,241.8c0-0.2-0.1-0.3-0.2-0.3c-0.2,0-0.3,0.1-0.3,0.3c0,0.1,0,0.3,0.2,0.3
			C164.4,242.1,164.5,242,164.6,241.8z"/>
		<path class="st0" d="M92.9,252.4c0-1.6,0-3.1,0-4.7c0-1.7,0-3.4,0-5.1c0-0.1,0-0.2,0-0.3c-0.1-1-0.1-1,0.8-1c1.6,0,3.1,0,4.7,0
			c1.2,0,2.2,0.3,3.1,1.1c0.7,0.6,1,1.5,1.1,2.5c0.1,1,0.1,1.9,0.1,2.9c0,0.9-0.1,1.8-0.3,2.7c-0.1,1-0.6,1.7-1.5,2.1
			c-0.3,0.2-0.3,0.4-0.2,0.6c0.5,1.1,1.1,2.2,1.7,3.2c0.2,0.4,0.6,0.8,0.4,1.1c-0.1,0.3-0.7,0.1-1,0.1c-0.7,0-1.4,0-2.1,0
			c-0.3,0-0.4-0.1-0.5-0.4c-0.5-1.2-0.9-2.4-1.4-3.6c-0.2-0.5-0.4-0.8-1-0.6c0,0,0,0,0,0c-1,0-1,0.1-0.9,1.1
			c0.2,1.1,0.2,2.1,0.2,3.2c0,0.5-0.5,0.3-0.7,0.3c-0.7-0.1-1.4,0-2,0c-0.4,0-0.5-0.1-0.5-0.5C92.9,255.6,92.9,254,92.9,252.4z
			 M96.2,248.3c0,0.3,0,0.7-0.2,1c-0.3,0.6,0.2,1.2,0.8,1c0.4-0.1,0.7,0,1.1-0.1c0.9-0.1,1.3-0.1,1.5-1c0.2-0.9,0.2-1.8,0.1-2.7
			c0-0.1-0.1-0.3,0-0.4c0.2-0.4-0.1-0.8-0.3-1.2c-0.1-0.2-0.4-0.4-0.6-0.4c-0.4,0.1-0.8-0.1-1.2-0.2c-0.8-0.3-1.4,0.1-1.2,0.9
			C96.3,246.3,96,247.3,96.2,248.3z M100.7,246.9c0.3,0.3,0.5,0.2,0.6,0c0.1-0.1,0.1-0.2,0-0.2C101,246.6,100.9,246.9,100.7,246.9z"
			/>
		<path class="st0" d="M251.9,246.1c0,1.1-0.1,2-0.1,2.8c0,1.1-0.2,2.2-1,3.1c-0.2,0.3-0.6,0.3-0.8,0.5c-0.3,0.2-0.3,0.4-0.2,0.7
			c0.4,0.9,1,1.8,1.4,2.7c0.2,0.4,0.3,0.8,0.6,1.1c0.2,0.2,0.1,0.4,0.1,0.6c0,0.1-0.1,0.2-0.2,0.2c-0.9-0.2-1.7-0.1-2.6-0.1
			c-0.5,0-0.8-0.3-0.9-0.6c-0.5-1.1-0.9-2.3-1.3-3.4c-0.1-0.4-0.5-0.6-0.9-0.6c-0.4,0-0.8,0-1,0.4c0,0.1-0.1,0.1-0.1,0.2
			c0.1,0.5,0.1,0.9,0.2,1.4c0,0.1,0.1,0.2,0.1,0.4c0,0.7,0,1.3,0,2c0,0.3-0.1,0.4-0.3,0.4c-0.8-0.1-1.7,0-2.5-0.1
			c-0.4,0-0.6-0.1-0.4-0.5c0-0.1,0-0.3,0-0.4c0-0.9,0-1.9,0-2.8c0-1.2,0.1-2.5,0.1-3.7c0-2,0-4-0.1-6c0-0.7,0.1-1.5-0.1-2.2
			c-0.1-0.5,0.2-0.7,0.7-0.7c0.2,0,0.5,0,0.7,0c1.4,0,2.7,0,4.1,0c1.1,0,2.2,0.3,3.1,1c0.6,0.5,1,1.2,1.1,2
			C251.7,245,252,245.6,251.9,246.1z M246.9,250.4c1,0,2-1.2,1.8-2.2c-0.2-0.8,0.1-1.7-0.1-2.5c-0.1-0.5-0.2-0.8-0.7-0.9
			c-0.7-0.3-1.4-0.2-2-0.3c-0.3-0.1-0.7,0.1-0.7,0.5c0.1,0.7,0,1.4,0.1,2c0.1,0.8,0.2,1.7-0.1,2.5c-0.1,0.4,0.2,0.9,0.7,0.9
			C246.2,250.3,246.6,250.2,246.9,250.4z"/>
		<path class="st0" d="M264.8,241.1c1.2,0,2.2,0.4,3.1,1.2c0.6,0.5,1.1,1.2,1.5,1.9c0.1,0.2,0.2,0.5-0.3,0.7
			c-0.4,0.2-0.8,0.5-1.2,0.8c0,0-0.1,0.1-0.1,0.1c-0.6,0.5-0.8,0.5-1.3-0.2c-0.4-0.5-0.8-1-1.4-1.3c-0.7-0.3-1.9-0.2-2.5,0.4
			c-0.4,0.4-0.3,1.2,0.2,1.7c0.4,0.3,0.8,0.6,1.3,0.7c1,0.3,1.9,0.9,2.8,1.3c1,0.5,1.7,1.2,2.4,2c0.7,0.8,0.8,1.8,0.6,2.8
			c-0.1,0.6-0.1,1.3-0.4,1.9c-0.7,1.6-1.9,2.6-3.6,2.8c-1.2,0.2-2.2,0-3.4-0.4c-1-0.3-1.8-0.8-2.4-1.5c-0.3-0.3-0.5-0.6-0.6-1
			c-0.2-0.4-0.1-0.8,0.3-0.9c0.7-0.3,1.1-0.9,1.7-1.4c0.4-0.4,0.6-0.4,0.9,0.2c0.4,0.8,0.8,1.5,1.7,1.8c1.2,0.4,2.4-0.2,2.7-1.5
			c0-0.1,0-0.2,0-0.3c-0.4-0.8-0.9-1.4-1.8-1.7c-1.5-0.7-3.2-1.1-4.4-2.4c-0.8-0.8-1.3-1.9-1.4-3c0-0.7,0.1-1.5,0.6-2.1
			c0.2-0.3,0.4-0.6,0.6-0.9c0.1-0.1,0.2-0.4,0.5-0.2c0.1,0,0.2,0,0.2-0.1c0.2-0.7,0.9-0.7,1.4-0.9
			C263.2,241.2,264,241.1,264.8,241.1z"/>
		<path class="st0" d="M82.5,257.7c-0.7,0-1.6-0.1-2.4-0.1c-1.2,0-2.3,0-3.5,0.1c-0.4,0-0.6,0-0.6-0.5c0.1-1.3,0-2.6,0.1-4
			c0-1.8,0-3.6,0-5.4c0-2,0-4,0-5.9c0-0.5,0.3-0.7,0.8-0.6c0.3,0.1,0.5,0.1,0.8,0.1c2.3,0,4.5,0,6.8,0c0.4,0,0.6,0.2,0.6,0.6
			c0,0.8,0,1.5,0,2.3c0,0.3-0.1,0.4-0.4,0.3c-0.5-0.1-0.9,0-1.4,0c-1,0-2-0.1-3,0c0,0,0,0,0,0c-0.3-0.1-0.6-0.3-0.9,0.1
			c-0.2,0.3-0.1,0.6,0,0.9c0.1,0.5,0,1-0.1,1.5c-0.2,0.9,0.2,1.3,1,1.1c0.7-0.2,1.3-0.1,1.9-0.2c0.4,0,0.8,0,1.1,0
			c0.4,0,0.5,0.3,0.5,0.5c-0.1,0.7-0.1,1.4-0.1,2.2c0,0.4-0.1,0.5-0.5,0.5c-1.2,0-2.4,0-3.6-0.2c-0.4-0.1-0.6,0.3-0.5,0.8
			c0.2,0.6,0.2,1.2,0.1,1.7c0,0.3-0.2,0.6-0.1,1c0.1,0.4,0.3,0.6,0.7,0.4c0.3-0.1,0.5-0.1,0.8-0.1c1.2-0.1,2.4,0.1,3.6-0.1
			c0.5-0.1,0.7,0.1,0.7,0.7c0,0.7,0,1.4,0,2.2c0,0.3-0.1,0.4-0.4,0.4C83.9,257.7,83.2,257.7,82.5,257.7z"/>
		<path class="st0" d="M59.3,253.1c0-1.3,0-2.7,0-4c0-2.3,0-4.6,0-6.8c0-0.9,0-0.9,0.9-0.9c2.2,0,4.4,0,6.6,0c0.3,0,0.6,0,0.9,0
			c0.6,0,0.6,0.4,0.6,0.7c-0.2,0.6,0,1.3,0,1.9c0,0.5-0.2,0.6-0.6,0.6c-1.6,0-3.1,0-4.7-0.2c-0.3,0-0.6,0.3-0.6,0.7
			c0.1,0.6,0.1,1.2,0,1.8c-0.1,0.2,0,0.5,0.1,0.7c0,0.4,0.3,0.5,0.7,0.5c1-0.2,2.1-0.1,3.1-0.2c0.7,0,1,0.2,0.9,0.9
			c-0.1,0.6-0.1,1.2,0,1.7c0.1,0.3-0.1,0.5-0.4,0.5c-1.2,0-2.4,0-3.6-0.2c-0.4-0.1-0.7,0.3-0.6,0.6c0.2,0.9,0.2,1.8,0.1,2.7
			c-0.1,0.5,0.3,0.8,0.8,0.7c1.5-0.4,3-0.2,4.6-0.2c0.4,0,0.5,0.1,0.5,0.5c0,0.8-0.1,1.5,0,2.3c0,0.3-0.1,0.4-0.4,0.4
			c-1.3-0.1-2.5,0.1-3.8-0.1c-0.4-0.1-0.8,0.1-1.2,0.1c-1,0-2,0-3.1,0c-0.4,0-0.5-0.1-0.5-0.5C59.3,255.9,59.3,254.5,59.3,253.1z"/>
		<path class="st0" d="M229.7,241.3c1.3,0,2.7,0,4,0c0.4,0,0.6,0.1,0.5,0.6c-0.1,0.8,0.1,1.5-0.1,2.3c-0.1,0.2-0.1,0.3-0.3,0.3
			c-1,0-2.1,0.1-3.1,0c-0.5-0.1-1.1,0-1.6-0.1c-0.5-0.1-0.8,0.3-0.7,0.8c0.1,0.6,0.2,1.1,0,1.7c-0.1,0.3-0.1,0.6,0.1,0.9
			c0.1,0.2,0.3,0.2,0.5,0.2c0.8-0.1,1.6-0.2,2.4-0.1c0.3,0,0.7-0.1,1.1-0.1c0.4,0,0.5,0.1,0.5,0.6c-0.1,0.7-0.1,1.4,0,2.1
			c0,0.4-0.1,0.5-0.5,0.5c-1-0.1-2,0.1-2.9-0.1c-0.3-0.1-0.6-0.3-0.9-0.1c-0.2,0.1-0.3,0.2-0.3,0.4c0.2,1,0.1,1.9,0.1,2.9
			c0,0.6,0.4,0.9,0.9,0.7c0.4-0.1,0.8-0.2,1.2-0.2c1,0,2,0,3,0c0.6,0,0.7,0.1,0.7,0.7c0,0.7,0,1.3,0,2c0,0.4-0.1,0.5-0.5,0.5
			c-2.5,0-4.9,0-7.4,0c-0.2,0-0.4,0-0.6,0c-0.3,0-0.4-0.1-0.4-0.4c0-1.8,0-3.7,0-5.5c0-0.9,0-1.7,0-2.6c0-2.1,0-4.1,0-6.2
			c0-0.4-0.1-0.8,0-1.3c0-0.3,0.1-0.4,0.4-0.4C227,241.3,228.4,241.3,229.7,241.3z"/>
		<path class="st0" d="M214.6,257.7c-0.7-0.1-1.5-0.1-2.4-0.1c-1.1,0-2.2,0-3.4,0.1c-0.3,0-0.4-0.1-0.4-0.4c0-0.8,0-1.7,0-2.5
			c0-0.2,0.2-0.2,0.2-0.3c0.2-0.2,0.3-0.4,0-0.6c-0.2-0.1-0.2-0.2-0.2-0.4c0-2.2,0-4.4,0-6.6c0-1.7,0-3.4,0-5.1
			c0-0.4,0.1-0.6,0.5-0.5c0.9,0.1,1.8,0.1,2.7,0.1c1.7-0.1,3.5,0,5.2-0.1c0.4,0,0.6,0,0.6,0.5c0,0.6,0,1.3,0,1.9
			c0,0.7-0.1,0.8-0.7,0.8c-0.8,0-1.7,0-2.5,0c-0.6,0-1.3-0.1-1.9-0.2c-0.6,0-0.7,0-0.7,0.7c0,0.8,0.1,1.7-0.1,2.5
			c-0.1,0.4,0.2,0.6,0.7,0.6c1.1-0.2,2.1-0.2,3.2-0.2c0.2,0,0.6-0.1,0.6,0.1c0.1,0.3,0.2,0.7,0.1,1c-0.1,0.5-0.1,1,0,1.4
			c0.1,0.5-0.1,0.8-0.6,0.7c-0.4-0.1-0.7-0.1-1.1-0.1c-0.8,0-1.5-0.1-2.2-0.2c-0.6,0-0.7,0.1-0.7,0.7c0,0.9,0.1,1.8-0.1,2.7
			c-0.1,0.2,0.1,0.5,0.4,0.5c0.3,0.1,0.7,0.1,0.9,0.1c0.9-0.3,1.8-0.1,2.7-0.2c0.5,0,0.9,0,1.4,0c0.3,0,0.5,0.1,0.4,0.4
			c-0.1,0.8,0,1.6,0,2.4c0,0.3-0.1,0.4-0.4,0.4C216.2,257.7,215.5,257.7,214.6,257.7z M209,252.1c0,0.1-0.1,0.3,0.1,0.3
			c0.2,0,0.3-0.2,0.3-0.4c0-0.1-0.1-0.3-0.2-0.3C208.9,251.7,209,251.9,209,252.1z"/>
		<path class="st0" d="M128.4,257.7c-1.3,0-2.6,0-4,0c-0.5,0-0.6-0.1-0.6-0.7c0.1-0.7,0-1.5,0-2.2c0-0.4,0.1-0.5,0.5-0.3
			c0.1,0.1,0.2,0.1,0.4,0c0.1-0.1,0.1-0.2,0.1-0.3c-0.1-0.5-0.2-0.9-0.8-0.8c-0.2,0-0.1-0.2-0.1-0.3c0-0.5,0-1,0-1.6
			c0-3.1,0-6.1,0-9.2c0-0.4-0.3-0.8,0-1.1c0.3-0.2,0.8-0.1,1.1-0.1c1,0,2,0.1,2.9,0c1.4,0,2.8,0,4.2-0.1c0.5,0,0.7,0.1,0.6,0.6
			c-0.1,0.7,0,1.3,0,2c0,0.3-0.1,0.5-0.4,0.5c-1.6,0-3.2,0.1-4.8-0.2c-0.4-0.1-0.7,0.3-0.6,0.8c0.1,0.8,0.1,1.5,0.1,2.3
			c0,0.4,0.1,0.7,0.6,0.6c0.8-0.1,1.6-0.2,2.4-0.2c0.2,0,0.5,0,0.7,0c0.9,0,1,0.2,0.9,1.1c-0.1,0.5,0,1.1,0,1.7
			c0,0.3-0.1,0.3-0.3,0.3c-1.2,0-2.3,0.1-3.5-0.2c-0.6-0.1-0.8,0.2-0.8,0.8c0.1,0.8,0.1,1.7,0,2.5c0,0.4,0.1,0.7,0.6,0.7
			c0.2,0,0.4-0.1,0.6-0.1c1.4-0.1,2.8-0.1,4.2-0.1c0.3,0,0.5,0.1,0.5,0.5c0,0.8,0,1.5,0,2.3c0,0.3-0.1,0.4-0.4,0.4
			C131,257.7,129.7,257.7,128.4,257.7z"/>
		<path class="st0" d="M178.3,249.7c0-2.4,0-4.9,0-7.3c0-0.1,0-0.2,0-0.3c-0.1-0.7-0.1-0.7,0.7-0.7c0.8,0,1.5,0,2.3,0
			c0.3,0,0.5,0,0.3,0.4c0,0.1,0,0.3,0,0.4c0,3.4,0,6.7,0,10.1c0,1.7,0,3.3,0,5c0,0.4-0.1,0.5-0.5,0.5c-0.8,0-1.5,0-2.3,0
			c-0.4,0-0.5-0.1-0.5-0.5C178.3,254.7,178.3,252.2,178.3,249.7z"/>
	</g>
</g>
</svg>
