<?xml version="1.0" encoding="utf-8"?>
<!-- Generator: Adobe Illustrator 27.2.0, SVG Export Plug-In . SVG Version: 6.00 Build 0)  -->
<svg version="1.0" id="Laag_1" xmlns="http://www.w3.org/2000/svg" xmlns:xlink="http://www.w3.org/1999/xlink" x="0px" y="0px"
	 viewBox="0 0 146.3 30.6" style="enable-background:new 0 0 146.3 30.6;" xml:space="preserve">
<style type="text/css">
	.st0{fill:#1D1D1B;}
</style>
<g>
	<path class="st0" d="M4.6,23.3v-7.9c0-0.4,0-0.8,0-1.2c0-0.4,0-0.8,0-1.2c0-0.4-0.1-0.9-0.1-1.5c-0.1-0.6-0.1-1.2-0.2-2
		C4.2,8.7,4.1,7.8,4,6.7l-1.2,0l12.5,16.7h4.3V1.3h-4.6v6c0,0.9,0,1.7,0,2.5c0,0.8,0,1.5,0.1,2.2c0,0.7,0.1,1.3,0.1,2
		c0.1,0.6,0.1,1.3,0.2,1.9c0.1,0.6,0.1,1.3,0.2,1.9h0.9L4.2,1.3H0v22.1H4.6L4.6,23.3z M70.7,23.3c0.7-0.2,1.3-0.5,1.9-0.9
		c0.6-0.4,1-0.8,1.3-1.3c0.3-0.5,0.5-1,0.6-1.5l-0.9-0.1l0.2,3.8h4.3V0h-4.5v10.9l1.1-0.2c0-0.5-0.2-1.1-0.6-1.6
		c-0.4-0.5-0.8-1-1.4-1.4c-0.6-0.4-1.2-0.8-2-1c-0.7-0.2-1.5-0.4-2.3-0.4c-1.5,0-2.8,0.4-3.9,1.1c-1.1,0.7-2,1.8-2.7,3.1
		c-0.7,1.3-1,2.8-1,4.5c0,1.7,0.3,3.2,1,4.5c0.7,1.3,1.6,2.3,2.7,3.1c1.1,0.7,2.5,1.1,3.9,1.1C69.3,23.7,70,23.5,70.7,23.3
		L70.7,23.3z M67.3,19.3c-0.6-0.4-1.1-1-1.5-1.7c-0.3-0.7-0.5-1.6-0.5-2.6c0-1,0.2-1.8,0.5-2.6c0.3-0.7,0.8-1.3,1.5-1.7
		c0.6-0.4,1.4-0.6,2.2-0.6c0.8,0,1.6,0.2,2.2,0.6c0.6,0.4,1.1,1,1.5,1.7c0.4,0.7,0.5,1.6,0.5,2.6c0,1-0.2,1.9-0.5,2.6
		c-0.4,0.7-0.9,1.3-1.5,1.7c-0.6,0.4-1.4,0.6-2.2,0.6C68.7,19.9,67.9,19.7,67.3,19.3L67.3,19.3z M89.2,30.6l2.9-7.3l7-16.7h-5.1
		l-3.5,9.8c-0.2,0.5-0.3,1-0.5,1.5c-0.2,0.5-0.3,0.9-0.5,1.2l0.8-0.3c-0.1-0.4-0.2-0.9-0.4-1.3c-0.2-0.5-0.3-0.9-0.5-1.2l-4.1-9.6
		h-5.1l8.1,17.9L88.3,22l-3.7,8.6H89.2L89.2,30.6z M141.3,23.4c0.8-0.2,1.5-0.5,2.3-0.8c0.7-0.4,1.4-0.8,2-1.4l-2.1-3
		c-0.7,0.6-1.3,1-2,1.2c-0.6,0.2-1.3,0.3-2,0.3c-1.1,0-2-0.2-2.8-0.6c-0.8-0.4-1.4-1-1.8-1.7c-0.4-0.7-0.6-1.6-0.6-2.6
		c0-1,0.2-1.8,0.5-2.5c0.3-0.7,0.8-1.2,1.5-1.6c0.6-0.4,1.4-0.5,2.3-0.5c0.6,0,1.2,0.1,1.7,0.4c0.5,0.3,0.9,0.6,1.2,1.1
		c0.3,0.5,0.5,1,0.6,1.5v0.7l0.5-0.6h-10.4l0.7,2.7h13.4l0-1.4c0-1.2-0.1-2.3-0.5-3.3c-0.4-1-0.9-1.9-1.6-2.6
		c-0.7-0.7-1.5-1.3-2.5-1.8c-1-0.4-2-0.6-3.2-0.6c-1.2,0-2.3,0.2-3.4,0.6c-1,0.4-1.9,1-2.7,1.8s-1.3,1.7-1.8,2.8
		c-0.4,1.1-0.6,2.3-0.6,3.6c0,1.7,0.4,3.1,1.1,4.4c0.7,1.3,1.8,2.3,3.2,3c1.4,0.7,2.9,1.1,4.7,1.1C139.8,23.7,140.5,23.6,141.3,23.4
		L141.3,23.4z"/>
	<path class="st0" d="M33.5,23.4c0.8-0.2,1.5-0.5,2.3-0.8c0.7-0.4,1.4-0.8,2-1.4l-2.1-3c-0.7,0.6-1.3,1-2,1.2
		c-0.6,0.2-1.3,0.3-2,0.3c-1.1,0-2-0.2-2.8-0.6c-0.8-0.4-1.4-1-1.8-1.7c-0.4-0.7-0.6-1.6-0.6-2.6c0-1,0.2-1.8,0.5-2.5
		c0.3-0.7,0.8-1.2,1.5-1.6c0.6-0.4,1.4-0.5,2.3-0.5c0.6,0,1.2,0.1,1.7,0.4c0.5,0.3,0.9,0.6,1.2,1.1c0.3,0.5,0.5,1,0.6,1.5v0.7
		l0.5-0.6H24.3L25,16h13.4l0-1.4c0-1.2-0.1-2.3-0.5-3.3c-0.4-1-0.9-1.9-1.6-2.6c-0.7-0.7-1.5-1.3-2.5-1.8c-1-0.4-2-0.6-3.2-0.6
		c-1.2,0-2.3,0.2-3.4,0.6c-1,0.4-1.9,1-2.7,1.8c-0.8,0.8-1.3,1.7-1.8,2.8c-0.4,1.1-0.6,2.3-0.6,3.6c0,1.7,0.4,3.1,1.1,4.4
		c0.7,1.3,1.8,2.3,3.2,3c1.4,0.7,2.9,1.1,4.7,1.1C32,23.7,32.8,23.6,33.5,23.4L33.5,23.4z"/>
	<path class="st0" d="M54.4,22.5c1.3-0.7,2.4-1.8,3.1-3.1c0.8-1.3,1.1-2.8,1.1-4.5c0-1.7-0.4-3.2-1.1-4.5c-0.8-1.3-1.8-2.3-3.1-3.1
		c-1.3-0.7-2.8-1.1-4.5-1.1c-1.7,0-3.2,0.4-4.6,1.1c-1.3,0.7-2.4,1.8-3.2,3.1C41.4,11.8,41,13.3,41,15c0,1.7,0.4,3.2,1.2,4.5
		c0.8,1.3,1.8,2.3,3.2,3.1c1.3,0.7,2.9,1.1,4.6,1.1C51.6,23.7,53.1,23.3,54.4,22.5L54.4,22.5z M47.6,19.1c-0.7-0.4-1.2-1-1.5-1.7
		c-0.4-0.7-0.6-1.5-0.5-2.4c0-0.9,0.2-1.7,0.5-2.5c0.4-0.7,0.9-1.3,1.5-1.7c0.7-0.4,1.4-0.6,2.2-0.6c0.8,0,1.6,0.2,2.2,0.6
		c0.7,0.4,1.2,1,1.5,1.7c0.4,0.7,0.5,1.6,0.5,2.5c0,0.9-0.2,1.7-0.5,2.4c-0.4,0.7-0.9,1.3-1.5,1.7c-0.7,0.4-1.4,0.6-2.2,0.6
		C49,19.7,48.3,19.5,47.6,19.1L47.6,19.1z"/>
	<path class="st0" d="M105.9,23.3v-10c0-0.4,0.1-0.9,0.3-1.2c0.2-0.4,0.4-0.7,0.7-1c0.3-0.3,0.6-0.5,1.1-0.7
		c0.4-0.2,0.9-0.2,1.3-0.2c0.6,0,1.1,0.1,1.5,0.4c0.4,0.3,0.7,0.6,0.9,1.1c0.2,0.5,0.3,1.1,0.3,1.8v9.8h4.5v-10
		c0-0.4,0.1-0.9,0.3-1.2c0.2-0.4,0.4-0.7,0.7-1c0.3-0.3,0.7-0.5,1.1-0.7c0.4-0.2,0.9-0.2,1.3-0.2c0.6,0,1.1,0.1,1.5,0.4
		c0.4,0.2,0.7,0.6,0.9,1.1c0.2,0.5,0.3,1.1,0.3,1.9v9.8h4.5V13.2c0-1.5-0.2-2.8-0.6-3.8c-0.4-1-1.1-1.8-1.9-2.3
		c-0.9-0.5-1.9-0.8-3.2-0.8c-0.5,0-1.1,0.1-1.7,0.3c-0.6,0.2-1.1,0.4-1.6,0.7c-0.5,0.3-1,0.7-1.4,1.1c-0.4,0.4-0.8,0.9-1,1.4
		l-0.2,0.5l0.7,0.1c-0.3-0.9-0.7-1.7-1.1-2.3c-0.5-0.6-1.1-1-1.8-1.3c-0.7-0.3-1.5-0.4-2.3-0.4c-0.6,0-1.1,0.1-1.7,0.3
		c-0.6,0.2-1.1,0.4-1.6,0.7c-0.5,0.3-1,0.7-1.3,1.1c-0.4,0.4-0.7,0.9-0.9,1.5l0.7-0.1l-0.1-3.2h-4.3v16.7H105.9L105.9,23.3z"/>
</g>
</svg>
