<?xml version="1.0" encoding="utf-8"?>
<!-- Generator: Adobe Illustrator 27.2.0, SVG Export Plug-In . SVG Version: 6.00 Build 0)  -->
<svg version="1.0" id="Layer_1" xmlns="http://www.w3.org/2000/svg" xmlns:xlink="http://www.w3.org/1999/xlink" x="0px" y="0px"
	 viewBox="0 0 318.2 60.7" style="enable-background:new 0 0 318.2 60.7;" xml:space="preserve">
<style type="text/css">
	.st0{display:none;fill:#003E52;}
	.st1{fill:#FFFFFF;}
	.st2{fill:#003E52;}
	.st3{fill:#F4B223;}
</style>
<rect x="-47.6" y="-38.7" class="st0" width="388.4" height="138"/>
<circle class="st1" cx="32.7" cy="33.9" r="21.3"/>
<path class="st2" d="M88.1,41.9c0,0.2,0,0.5-0.1,0.7c-0.1,0.2-0.2,0.4-0.4,0.5c-0.1,0.1-0.3,0.2-0.5,0.3c-0.2,0.1-0.4,0.1-0.6,0.1
	h-1.8c-0.4,0-0.7,0-1-0.1c-0.3-0.1-0.5-0.2-0.8-0.4c-0.2-0.2-0.5-0.5-0.7-0.8c-0.2-0.3-0.5-0.8-0.7-1.3l-5.2-9.8
	c-0.3-0.6-0.6-1.2-0.9-1.9c-0.3-0.7-0.6-1.3-0.8-2h0c0,0.8,0.1,1.6,0.1,2.3c0,0.8,0,1.6,0,2.4v11c0,0.1,0,0.2-0.1,0.3
	c-0.1,0.1-0.2,0.2-0.3,0.2c-0.1,0.1-0.3,0.1-0.6,0.1c-0.2,0-0.6,0-1,0c-0.4,0-0.7,0-0.9,0c-0.2,0-0.4-0.1-0.6-0.1
	c-0.1-0.1-0.2-0.1-0.3-0.2c-0.1-0.1-0.1-0.2-0.1-0.3V23.9c0-0.5,0.1-0.9,0.4-1.1c0.3-0.3,0.7-0.4,1.1-0.4h2.3c0.4,0,0.8,0,1,0.1
	c0.3,0.1,0.5,0.2,0.8,0.3c0.2,0.2,0.4,0.4,0.6,0.7c0.2,0.3,0.4,0.6,0.6,1.1l4.1,7.7c0.2,0.5,0.5,0.9,0.7,1.4
	c0.2,0.4,0.5,0.9,0.7,1.3c0.2,0.4,0.4,0.9,0.6,1.3c0.2,0.4,0.4,0.9,0.6,1.3h0c0-0.8-0.1-1.5-0.1-2.4c0-0.8,0-1.6,0-2.4V23
	c0-0.1,0-0.2,0.1-0.3c0.1-0.1,0.2-0.2,0.3-0.2c0.2-0.1,0.4-0.1,0.6-0.1c0.2,0,0.6,0,1,0c0.4,0,0.7,0,0.9,0c0.2,0,0.4,0.1,0.6,0.1
	c0.1,0.1,0.2,0.1,0.3,0.2c0.1,0.1,0.1,0.2,0.1,0.3V41.9z"/>
<path class="st2" d="M102,34c0-1.1-0.2-2-0.7-2.7c-0.5-0.7-1.3-1-2.3-1c-0.5,0-1,0.1-1.4,0.3c-0.4,0.2-0.7,0.5-1,0.8
	c-0.3,0.3-0.4,0.7-0.6,1.2c-0.1,0.4-0.2,0.9-0.2,1.4H102z M105.9,35.2c0,0.5-0.1,0.9-0.3,1.1c-0.2,0.2-0.5,0.4-0.9,0.4h-8.8
	c0,0.6,0.1,1.2,0.2,1.7c0.1,0.5,0.4,0.9,0.7,1.3c0.3,0.4,0.7,0.6,1.2,0.8c0.5,0.2,1.1,0.3,1.8,0.3c0.7,0,1.3-0.1,1.9-0.2
	s1-0.2,1.4-0.3c0.4-0.1,0.7-0.2,1-0.3s0.5-0.2,0.6-0.2c0.1,0,0.2,0,0.2,0.1c0.1,0,0.1,0.1,0.2,0.2c0,0.1,0.1,0.2,0.1,0.4
	c0,0.2,0,0.4,0,0.7c0,0.2,0,0.4,0,0.6c0,0.2,0,0.3,0,0.4c0,0.1-0.1,0.2-0.1,0.3c0,0.1-0.1,0.2-0.2,0.2c-0.1,0.1-0.3,0.2-0.6,0.3
	c-0.3,0.1-0.7,0.3-1.2,0.4c-0.5,0.1-1,0.2-1.7,0.3c-0.6,0.1-1.3,0.1-2,0.1c-1.3,0-2.4-0.2-3.4-0.5c-1-0.3-1.8-0.8-2.4-1.5
	c-0.6-0.7-1.1-1.5-1.5-2.5c-0.3-1-0.5-2.2-0.5-3.5c0-1.3,0.2-2.5,0.5-3.5c0.3-1,0.8-1.9,1.5-2.6c0.6-0.7,1.4-1.3,2.3-1.6
	c0.9-0.4,1.9-0.6,3.1-0.6c1.2,0,2.2,0.2,3.1,0.5c0.9,0.4,1.6,0.9,2.1,1.5c0.6,0.6,1,1.4,1.2,2.3c0.3,0.9,0.4,1.8,0.4,2.8V35.2z"/>
<path class="st2" d="M118.8,35.7c0-0.6,0-1.2-0.1-1.8c-0.1-0.6-0.2-1.1-0.5-1.5c-0.2-0.4-0.5-0.8-0.9-1.1c-0.4-0.3-0.8-0.4-1.4-0.4
	c-0.3,0-0.5,0-0.8,0.1c-0.3,0.1-0.5,0.2-0.8,0.4c-0.3,0.2-0.6,0.4-0.9,0.7c-0.3,0.3-0.6,0.7-0.9,1.1V38c0.6,0.7,1.1,1.3,1.6,1.7
	c0.5,0.4,1.1,0.6,1.6,0.6c0.5,0,1-0.1,1.4-0.4c0.4-0.3,0.7-0.6,0.9-1.1c0.2-0.4,0.4-0.9,0.5-1.5C118.7,36.8,118.8,36.2,118.8,35.7
	 M123,35.4c0,1.3-0.1,2.5-0.4,3.5c-0.3,1-0.7,1.9-1.2,2.6c-0.5,0.7-1.2,1.3-2,1.7c-0.8,0.4-1.7,0.6-2.7,0.6c-0.4,0-0.8,0-1.2-0.1
	c-0.4-0.1-0.7-0.2-1-0.4c-0.3-0.2-0.7-0.4-1-0.6c-0.3-0.2-0.7-0.5-1-0.9v6.8c0,0.1,0,0.2-0.1,0.3c-0.1,0.1-0.2,0.2-0.3,0.2
	c-0.2,0.1-0.4,0.1-0.6,0.1c-0.3,0-0.6,0-1,0c-0.4,0-0.7,0-1,0c-0.3,0-0.5-0.1-0.6-0.1c-0.2-0.1-0.3-0.1-0.3-0.2
	c-0.1-0.1-0.1-0.2-0.1-0.3V28.3c0-0.1,0-0.2,0.1-0.3c0.1-0.1,0.1-0.1,0.3-0.2c0.1-0.1,0.3-0.1,0.5-0.1c0.2,0,0.5,0,0.8,0
	c0.3,0,0.6,0,0.8,0c0.2,0,0.4,0.1,0.5,0.1c0.1,0.1,0.2,0.1,0.3,0.2c0.1,0.1,0.1,0.2,0.1,0.3V30c0.4-0.4,0.8-0.8,1.2-1.1
	c0.4-0.3,0.8-0.6,1.2-0.8c0.4-0.2,0.9-0.4,1.3-0.5c0.4-0.1,0.9-0.2,1.4-0.2c1.1,0,2,0.2,2.7,0.6c0.7,0.4,1.4,1,1.8,1.7
	c0.5,0.7,0.8,1.6,1,2.5C122.9,33.3,123,34.3,123,35.4"/>
<path class="st2" d="M134.8,41.4c0,0.5,0,0.8-0.1,1.1c-0.1,0.3-0.1,0.4-0.2,0.5c-0.1,0.1-0.2,0.2-0.4,0.3c-0.2,0.1-0.4,0.2-0.7,0.2
	c-0.3,0.1-0.5,0.1-0.8,0.1c-0.3,0-0.6,0-0.9,0c-0.8,0-1.5-0.1-2.1-0.3c-0.6-0.2-1.1-0.5-1.5-1c-0.4-0.4-0.7-1-0.9-1.6
	c-0.2-0.6-0.3-1.4-0.3-2.3v-7.4h-1.7c-0.2,0-0.4-0.1-0.5-0.4c-0.1-0.3-0.2-0.7-0.2-1.3c0-0.3,0-0.6,0-0.8c0-0.2,0.1-0.4,0.1-0.5
	c0.1-0.1,0.1-0.2,0.2-0.3c0.1-0.1,0.2-0.1,0.3-0.1h1.7v-3.2c0-0.1,0-0.2,0.1-0.3c0.1-0.1,0.2-0.2,0.3-0.2c0.2-0.1,0.4-0.1,0.6-0.1
	c0.3,0,0.6,0,1,0c0.4,0,0.7,0,1,0c0.3,0,0.5,0.1,0.6,0.1c0.2,0.1,0.3,0.1,0.3,0.2c0.1,0.1,0.1,0.2,0.1,0.3v3.2h3.1
	c0.1,0,0.2,0,0.3,0.1c0.1,0.1,0.1,0.1,0.2,0.3c0.1,0.1,0.1,0.3,0.1,0.5c0,0.2,0,0.5,0,0.8c0,0.6-0.1,1-0.2,1.3
	c-0.1,0.3-0.3,0.4-0.5,0.4H131v6.8c0,0.8,0.1,1.4,0.4,1.8c0.2,0.4,0.7,0.6,1.3,0.6c0.2,0,0.4,0,0.6-0.1c0.2,0,0.3-0.1,0.5-0.1
	c0.1,0,0.2-0.1,0.3-0.1c0.1,0,0.2-0.1,0.3-0.1c0.1,0,0.1,0,0.2,0.1c0.1,0,0.1,0.1,0.1,0.2c0,0.1,0.1,0.3,0.1,0.5
	C134.8,40.9,134.8,41.1,134.8,41.4"/>
<path class="st2" d="M151.7,42.8c0,0.1,0,0.2-0.1,0.3c-0.1,0.1-0.1,0.1-0.3,0.2c-0.1,0.1-0.3,0.1-0.5,0.1c-0.2,0-0.5,0-0.8,0
	c-0.4,0-0.6,0-0.9,0c-0.2,0-0.4-0.1-0.5-0.1c-0.1-0.1-0.2-0.1-0.3-0.2s-0.1-0.2-0.1-0.3v-1.7c-0.8,0.9-1.6,1.5-2.4,2
	s-1.7,0.6-2.6,0.6c-1,0-1.8-0.2-2.5-0.5c-0.7-0.3-1.2-0.8-1.6-1.3c-0.4-0.6-0.7-1.2-0.9-2c-0.2-0.7-0.3-1.7-0.3-2.8v-8.9
	c0-0.1,0-0.2,0.1-0.3c0.1-0.1,0.2-0.1,0.3-0.2c0.2-0.1,0.4-0.1,0.6-0.1c0.3,0,0.6,0,1,0c0.4,0,0.7,0,1,0c0.3,0,0.5,0.1,0.6,0.1
	c0.2,0.1,0.3,0.1,0.3,0.2c0.1,0.1,0.1,0.2,0.1,0.3v8.2c0,0.8,0,1.3,0.1,1.7c0.1,0.4,0.2,0.7,0.4,1c0.2,0.3,0.5,0.5,0.8,0.7
	c0.3,0.2,0.7,0.2,1.1,0.2c0.5,0,1-0.2,1.6-0.6c0.5-0.4,1.1-0.9,1.7-1.7v-9.6c0-0.1,0-0.2,0.1-0.3c0.1-0.1,0.2-0.1,0.3-0.2
	c0.2-0.1,0.4-0.1,0.6-0.1c0.3,0,0.6,0,1,0c0.4,0,0.7,0,1,0c0.3,0,0.5,0.1,0.6,0.1c0.2,0.1,0.3,0.1,0.3,0.2c0.1,0.1,0.1,0.2,0.1,0.3
	V42.8z"/>
<path class="st2" d="M169.7,42.8c0,0.1,0,0.2-0.1,0.3c-0.1,0.1-0.2,0.1-0.3,0.2c-0.2,0.1-0.4,0.1-0.6,0.1c-0.3,0-0.6,0-1,0
	c-0.4,0-0.7,0-1,0c-0.3,0-0.5-0.1-0.6-0.1c-0.2-0.1-0.3-0.1-0.3-0.2c-0.1-0.1-0.1-0.2-0.1-0.3v-8.3c0-0.7-0.1-1.3-0.2-1.7
	c-0.1-0.4-0.3-0.7-0.4-1s-0.4-0.5-0.8-0.7c-0.3-0.2-0.7-0.2-1.1-0.2c-0.5,0-1,0.2-1.6,0.6c-0.5,0.4-1.1,0.9-1.7,1.7v9.6
	c0,0.1,0,0.2-0.1,0.3c-0.1,0.1-0.2,0.1-0.3,0.2c-0.2,0.1-0.4,0.1-0.6,0.1c-0.3,0-0.6,0-1,0c-0.4,0-0.7,0-1,0c-0.3,0-0.5-0.1-0.6-0.1
	c-0.2-0.1-0.3-0.1-0.3-0.2c-0.1-0.1-0.1-0.2-0.1-0.3V28.3c0-0.1,0-0.2,0.1-0.3c0.1-0.1,0.2-0.1,0.3-0.2c0.1-0.1,0.3-0.1,0.5-0.1
	c0.2,0,0.5,0,0.8,0c0.3,0,0.6,0,0.9,0c0.2,0,0.4,0.1,0.5,0.1c0.1,0.1,0.2,0.1,0.3,0.2c0.1,0.1,0.1,0.2,0.1,0.3V30
	c0.8-0.9,1.6-1.5,2.4-1.9c0.8-0.4,1.7-0.6,2.6-0.6c1,0,1.8,0.2,2.5,0.5c0.7,0.3,1.2,0.8,1.6,1.3c0.4,0.6,0.7,1.2,0.9,2
	c0.2,0.7,0.3,1.6,0.3,2.7V42.8z"/>
<path class="st2" d="M183.3,34c0-1.1-0.2-2-0.7-2.7c-0.5-0.7-1.3-1-2.3-1c-0.5,0-1,0.1-1.4,0.3c-0.4,0.2-0.7,0.5-1,0.8
	c-0.3,0.3-0.4,0.7-0.6,1.2c-0.1,0.4-0.2,0.9-0.2,1.4H183.3z M187.2,35.2c0,0.5-0.1,0.9-0.3,1.1c-0.2,0.2-0.5,0.4-0.9,0.4h-8.8
	c0,0.6,0.1,1.2,0.2,1.7c0.1,0.5,0.4,0.9,0.7,1.3c0.3,0.4,0.7,0.6,1.2,0.8c0.5,0.2,1.1,0.3,1.8,0.3c0.7,0,1.3-0.1,1.9-0.2
	c0.5-0.1,1-0.2,1.4-0.3c0.4-0.1,0.7-0.2,1-0.3c0.3-0.1,0.5-0.2,0.6-0.2c0.1,0,0.2,0,0.2,0.1c0.1,0,0.1,0.1,0.2,0.2
	c0,0.1,0.1,0.2,0.1,0.4c0,0.2,0,0.4,0,0.7c0,0.2,0,0.4,0,0.6c0,0.2,0,0.3,0,0.4c0,0.1-0.1,0.2-0.1,0.3c0,0.1-0.1,0.2-0.2,0.2
	c-0.1,0.1-0.3,0.2-0.6,0.3c-0.3,0.1-0.7,0.3-1.2,0.4c-0.5,0.1-1,0.2-1.7,0.3c-0.6,0.1-1.3,0.1-2,0.1c-1.3,0-2.4-0.2-3.4-0.5
	c-1-0.3-1.8-0.8-2.4-1.5c-0.6-0.7-1.1-1.5-1.5-2.5c-0.3-1-0.5-2.2-0.5-3.5c0-1.3,0.2-2.5,0.5-3.5c0.3-1,0.8-1.9,1.5-2.6
	c0.6-0.7,1.4-1.3,2.3-1.6c0.9-0.4,1.9-0.6,3.1-0.6c1.2,0,2.2,0.2,3.1,0.5c0.9,0.4,1.6,0.9,2.1,1.5c0.6,0.6,1,1.4,1.2,2.3
	c0.3,0.9,0.4,1.8,0.4,2.8V35.2z"/>
<path class="st2" d="M211.1,37.1c0,1.1-0.2,2.1-0.6,2.9c-0.4,0.8-1,1.5-1.7,2.1c-0.7,0.6-1.5,1-2.5,1.3c-0.9,0.3-1.9,0.4-3,0.4
	c-0.7,0-1.4-0.1-2-0.2c-0.6-0.1-1.2-0.3-1.6-0.4c-0.5-0.2-0.9-0.3-1.2-0.5c-0.3-0.2-0.5-0.3-0.7-0.5c-0.1-0.1-0.2-0.3-0.3-0.6
	c-0.1-0.3-0.1-0.6-0.1-1.1c0-0.3,0-0.6,0-0.8c0-0.2,0.1-0.4,0.1-0.6c0-0.1,0.1-0.2,0.2-0.3c0.1-0.1,0.2-0.1,0.3-0.1
	c0.2,0,0.4,0.1,0.6,0.3c0.3,0.2,0.6,0.4,1.1,0.6c0.4,0.2,0.9,0.4,1.5,0.6c0.6,0.2,1.3,0.3,2.1,0.3c0.5,0,1-0.1,1.4-0.2
	c0.4-0.1,0.8-0.3,1-0.5s0.5-0.5,0.7-0.8c0.2-0.3,0.2-0.7,0.2-1.1c0-0.5-0.1-0.9-0.4-1.2c-0.3-0.3-0.6-0.6-1-0.9
	c-0.4-0.3-0.9-0.5-1.4-0.7c-0.5-0.2-1.1-0.5-1.6-0.7c-0.6-0.3-1.1-0.6-1.6-0.9c-0.5-0.3-1-0.7-1.4-1.2c-0.4-0.5-0.8-1-1-1.6
	c-0.3-0.6-0.4-1.4-0.4-2.3c0-1,0.2-1.9,0.6-2.7c0.4-0.8,0.9-1.4,1.5-1.9c0.6-0.5,1.4-0.9,2.2-1.1c0.9-0.2,1.8-0.4,2.7-0.4
	c0.5,0,1,0,1.5,0.1c0.5,0.1,1,0.2,1.4,0.3c0.4,0.1,0.8,0.3,1.2,0.4c0.3,0.2,0.6,0.3,0.7,0.4c0.1,0.1,0.2,0.2,0.2,0.3
	c0,0.1,0.1,0.2,0.1,0.3c0,0.1,0,0.3,0.1,0.5c0,0.2,0,0.4,0,0.7c0,0.3,0,0.6,0,0.8c0,0.2,0,0.4-0.1,0.5c0,0.1-0.1,0.2-0.2,0.3
	c-0.1,0.1-0.2,0.1-0.3,0.1c-0.1,0-0.3-0.1-0.6-0.2c-0.3-0.2-0.6-0.3-1-0.5c-0.4-0.2-0.8-0.3-1.3-0.5c-0.5-0.1-1-0.2-1.6-0.2
	c-0.5,0-0.9,0.1-1.2,0.2c-0.3,0.1-0.6,0.3-0.9,0.5c-0.2,0.2-0.4,0.4-0.5,0.7c-0.1,0.3-0.2,0.6-0.2,0.9c0,0.5,0.1,0.9,0.4,1.2
	c0.3,0.3,0.6,0.6,1,0.9c0.4,0.3,0.9,0.5,1.5,0.7c0.5,0.2,1.1,0.5,1.7,0.7c0.6,0.3,1.1,0.6,1.7,0.9c0.5,0.3,1,0.7,1.4,1.2
	c0.4,0.5,0.8,1,1,1.6C210.9,35.5,211.1,36.2,211.1,37.1"/>
<path class="st2" d="M224.6,35.6c0-0.7-0.1-1.4-0.2-2c-0.1-0.6-0.3-1.1-0.6-1.6c-0.3-0.4-0.6-0.8-1.1-1c-0.4-0.2-1-0.4-1.7-0.4
	c-0.6,0-1.1,0.1-1.6,0.3c-0.5,0.2-0.8,0.5-1.1,1c-0.3,0.4-0.5,0.9-0.7,1.5c-0.1,0.6-0.2,1.3-0.2,2.1c0,0.7,0.1,1.4,0.2,2
	c0.1,0.6,0.3,1.1,0.6,1.6c0.3,0.4,0.6,0.8,1.1,1c0.5,0.2,1,0.4,1.7,0.4c0.6,0,1.2-0.1,1.6-0.3c0.5-0.2,0.8-0.5,1.1-1
	c0.3-0.4,0.5-0.9,0.6-1.5C224.6,37.1,224.6,36.4,224.6,35.6 M228.9,35.4c0,1.2-0.2,2.4-0.5,3.4c-0.3,1-0.8,1.9-1.5,2.6
	c-0.7,0.7-1.5,1.3-2.5,1.7c-1,0.4-2.2,0.6-3.5,0.6c-1.3,0-2.4-0.2-3.4-0.5c-1-0.4-1.7-0.9-2.4-1.6c-0.6-0.7-1.1-1.5-1.4-2.5
	c-0.3-1-0.5-2.1-0.5-3.4c0-1.2,0.2-2.4,0.5-3.4c0.3-1,0.8-1.9,1.5-2.6c0.7-0.7,1.5-1.3,2.5-1.7c1-0.4,2.1-0.6,3.5-0.6
	c1.3,0,2.4,0.2,3.4,0.5c1,0.4,1.7,0.9,2.4,1.6c0.6,0.7,1.1,1.5,1.4,2.5C228.7,33,228.9,34.2,228.9,35.4"/>
<path class="st2" d="M240.9,22.8c0,0.3,0,0.6,0,0.8c0,0.2-0.1,0.3-0.1,0.4c0,0.1-0.1,0.2-0.1,0.2c-0.1,0-0.1,0.1-0.2,0.1
	c-0.1,0-0.2,0-0.3-0.1c-0.1,0-0.2-0.1-0.3-0.1c-0.1,0-0.3-0.1-0.5-0.1c-0.2,0-0.4-0.1-0.6-0.1c-0.3,0-0.5,0-0.8,0.1
	c-0.2,0.1-0.4,0.2-0.5,0.4c-0.1,0.2-0.2,0.5-0.3,0.8c-0.1,0.3-0.1,0.7-0.1,1.2v1.3h2.6c0.1,0,0.2,0,0.3,0.1c0.1,0.1,0.1,0.1,0.2,0.3
	c0.1,0.1,0.1,0.3,0.1,0.5c0,0.2,0,0.5,0,0.8c0,0.6-0.1,1-0.2,1.3c-0.1,0.3-0.3,0.4-0.5,0.4h-2.6v11.7c0,0.1,0,0.2-0.1,0.3
	c-0.1,0.1-0.2,0.1-0.3,0.2c-0.2,0.1-0.4,0.1-0.6,0.1c-0.3,0-0.6,0-1,0c-0.4,0-0.7,0-1,0c-0.3,0-0.5-0.1-0.6-0.1
	c-0.2-0.1-0.3-0.1-0.3-0.2c-0.1-0.1-0.1-0.2-0.1-0.3V31.1h-1.8c-0.2,0-0.4-0.1-0.5-0.4c-0.1-0.3-0.2-0.7-0.2-1.3c0-0.3,0-0.6,0-0.8
	c0-0.2,0.1-0.4,0.1-0.5c0-0.1,0.1-0.2,0.2-0.3c0.1-0.1,0.2-0.1,0.3-0.1h1.8v-1.2c0-1,0.1-1.8,0.3-2.6c0.2-0.7,0.5-1.4,0.9-1.9
	c0.4-0.5,0.9-0.9,1.6-1.1c0.6-0.2,1.4-0.4,2.3-0.4c0.4,0,0.8,0,1.2,0.1c0.4,0.1,0.7,0.1,0.9,0.2c0.2,0.1,0.4,0.2,0.4,0.2
	c0.1,0.1,0.1,0.2,0.2,0.3c0,0.1,0.1,0.3,0.1,0.5C240.9,22.2,240.9,22.5,240.9,22.8"/>
<path class="st2" d="M252.2,41.4c0,0.5,0,0.8-0.1,1.1c-0.1,0.3-0.1,0.4-0.2,0.5c-0.1,0.1-0.2,0.2-0.4,0.3c-0.2,0.1-0.4,0.2-0.7,0.2
	c-0.3,0.1-0.5,0.1-0.8,0.1c-0.3,0-0.6,0-0.9,0c-0.8,0-1.5-0.1-2.1-0.3c-0.6-0.2-1.1-0.5-1.5-1c-0.4-0.4-0.7-1-0.9-1.6
	c-0.2-0.6-0.3-1.4-0.3-2.3v-7.4h-1.7c-0.2,0-0.4-0.1-0.5-0.4c-0.1-0.3-0.2-0.7-0.2-1.3c0-0.3,0-0.6,0-0.8c0-0.2,0.1-0.4,0.1-0.5
	c0.1-0.1,0.1-0.2,0.2-0.3c0.1-0.1,0.2-0.1,0.3-0.1h1.7v-3.2c0-0.1,0-0.2,0.1-0.3c0.1-0.1,0.2-0.2,0.3-0.2c0.2-0.1,0.4-0.1,0.6-0.1
	c0.3,0,0.6,0,1,0c0.4,0,0.7,0,1,0c0.3,0,0.5,0.1,0.6,0.1c0.2,0.1,0.3,0.1,0.3,0.2c0.1,0.1,0.1,0.2,0.1,0.3v3.2h3.1
	c0.1,0,0.2,0,0.3,0.1c0.1,0.1,0.1,0.1,0.2,0.3c0.1,0.1,0.1,0.3,0.1,0.5c0,0.2,0,0.5,0,0.8c0,0.6-0.1,1-0.2,1.3
	c-0.1,0.3-0.3,0.4-0.5,0.4h-3.2v6.8c0,0.8,0.1,1.4,0.4,1.8c0.2,0.4,0.7,0.6,1.3,0.6c0.2,0,0.4,0,0.6-0.1c0.2,0,0.3-0.1,0.5-0.1
	c0.1,0,0.2-0.1,0.3-0.1c0.1,0,0.2-0.1,0.3-0.1c0.1,0,0.1,0,0.2,0.1c0.1,0,0.1,0.1,0.1,0.2c0,0.1,0.1,0.3,0.1,0.5
	C252.2,40.9,252.2,41.1,252.2,41.4"/>
<path class="st2" d="M277.5,28.3c0,0.1,0,0.3,0,0.4c0,0.2-0.1,0.4-0.2,0.7l-3.9,13.1c-0.1,0.2-0.1,0.3-0.2,0.4
	c-0.1,0.1-0.2,0.2-0.4,0.3c-0.2,0.1-0.4,0.1-0.8,0.1c-0.3,0-0.8,0-1.3,0c-0.5,0-1,0-1.3,0c-0.3,0-0.6-0.1-0.8-0.1
	c-0.2-0.1-0.3-0.2-0.4-0.3c-0.1-0.1-0.2-0.3-0.2-0.4l-2.4-8.8l0-0.1l0,0.1l-2.2,8.8c0,0.2-0.1,0.3-0.2,0.4c-0.1,0.1-0.2,0.2-0.4,0.3
	c-0.2,0.1-0.5,0.1-0.8,0.1c-0.3,0-0.8,0-1.3,0c-0.5,0-1,0-1.3,0c-0.3,0-0.6-0.1-0.8-0.1c-0.2-0.1-0.3-0.2-0.4-0.3
	c-0.1-0.1-0.2-0.3-0.2-0.4l-3.8-13.1c-0.1-0.3-0.2-0.6-0.2-0.7c0-0.2,0-0.3,0-0.4c0-0.1,0-0.2,0.1-0.3c0.1-0.1,0.2-0.1,0.3-0.2
	c0.2,0,0.4-0.1,0.6-0.1c0.3,0,0.6,0,1,0c0.4,0,0.8,0,1.1,0c0.3,0,0.5,0.1,0.6,0.1c0.2,0.1,0.3,0.1,0.3,0.2c0.1,0.1,0.1,0.2,0.1,0.3
	l2.9,10.6l0,0.2l0-0.2l2.7-10.6c0-0.1,0.1-0.2,0.2-0.3c0.1-0.1,0.2-0.2,0.3-0.2c0.1-0.1,0.3-0.1,0.6-0.1c0.3,0,0.6,0,1,0
	c0.4,0,0.7,0,1,0c0.2,0,0.4,0.1,0.6,0.1c0.1,0,0.2,0.1,0.3,0.2c0.1,0.1,0.1,0.2,0.1,0.3l2.9,10.7l0,0.2l0-0.2l2.8-10.6
	c0-0.1,0.1-0.2,0.1-0.3c0.1-0.1,0.2-0.2,0.3-0.2c0.2-0.1,0.4-0.1,0.6-0.1c0.3,0,0.6,0,1,0c0.4,0,0.7,0,1,0c0.3,0,0.5,0.1,0.6,0.1
	c0.1,0,0.2,0.1,0.3,0.2C277.4,28.1,277.5,28.2,277.5,28.3"/>
<path class="st2" d="M287.2,36.7h-1.6c-0.7,0-1.2,0-1.7,0.1c-0.5,0.1-0.8,0.2-1.1,0.4c-0.3,0.2-0.5,0.4-0.6,0.7
	c-0.1,0.3-0.2,0.6-0.2,1c0,0.6,0.2,1.1,0.6,1.4c0.4,0.3,0.9,0.5,1.6,0.5c0.6,0,1.1-0.1,1.6-0.4c0.5-0.3,1-0.7,1.5-1.3V36.7z
	 M291.2,42.9c0,0.2-0.1,0.3-0.2,0.4c-0.1,0.1-0.3,0.1-0.5,0.2c-0.2,0-0.6,0.1-1,0.1c-0.5,0-0.8,0-1.1-0.1c-0.2,0-0.4-0.1-0.5-0.2
	c-0.1-0.1-0.1-0.2-0.1-0.4v-1.2c-0.6,0.6-1.3,1.1-2,1.5c-0.8,0.4-1.6,0.5-2.5,0.5c-0.8,0-1.5-0.1-2.1-0.3c-0.6-0.2-1.2-0.5-1.7-0.9
	c-0.5-0.4-0.8-0.9-1.1-1.5c-0.3-0.6-0.4-1.3-0.4-2c0-0.8,0.2-1.6,0.5-2.2c0.3-0.6,0.8-1.1,1.5-1.5c0.7-0.4,1.5-0.7,2.4-0.9
	c1-0.2,2.1-0.3,3.4-0.3h1.4v-0.9c0-0.5,0-0.9-0.1-1.2c-0.1-0.3-0.2-0.6-0.5-0.9s-0.5-0.4-0.8-0.5c-0.4-0.1-0.8-0.2-1.3-0.2
	c-0.7,0-1.3,0.1-1.8,0.2c-0.5,0.2-1,0.3-1.4,0.5c-0.4,0.2-0.8,0.4-1,0.5c-0.3,0.2-0.5,0.2-0.7,0.2c-0.1,0-0.2,0-0.3-0.1
	c-0.1-0.1-0.2-0.2-0.2-0.3c-0.1-0.1-0.1-0.3-0.1-0.5c0-0.2,0-0.4,0-0.7c0-0.3,0-0.6,0.1-0.8c0.1-0.2,0.2-0.4,0.3-0.5
	c0.2-0.2,0.4-0.3,0.8-0.5c0.4-0.2,0.8-0.4,1.3-0.5c0.5-0.2,1.1-0.3,1.7-0.4c0.6-0.1,1.2-0.2,1.9-0.2c1.1,0,2.1,0.1,2.9,0.3
	c0.8,0.2,1.5,0.6,2,1c0.5,0.5,0.9,1.1,1.1,1.8c0.2,0.7,0.4,1.6,0.4,2.6V42.9z"/>
<path class="st2" d="M303.6,29.7c0,0.4,0,0.7,0,1c0,0.3-0.1,0.4-0.1,0.6c0,0.1-0.1,0.2-0.2,0.3c-0.1,0.1-0.2,0.1-0.3,0.1
	c-0.1,0-0.2,0-0.3-0.1c-0.1,0-0.2-0.1-0.4-0.1c-0.1,0-0.3-0.1-0.4-0.1c-0.2,0-0.3-0.1-0.5-0.1c-0.2,0-0.5,0-0.7,0.1
	c-0.2,0.1-0.5,0.2-0.7,0.4c-0.2,0.2-0.5,0.5-0.8,0.8c-0.3,0.3-0.5,0.7-0.9,1.2v9c0,0.1,0,0.2-0.1,0.3c-0.1,0.1-0.2,0.1-0.3,0.2
	c-0.2,0.1-0.4,0.1-0.6,0.1c-0.3,0-0.6,0-1,0c-0.4,0-0.7,0-1,0c-0.3,0-0.5-0.1-0.6-0.1c-0.2-0.1-0.3-0.1-0.3-0.2
	c-0.1-0.1-0.1-0.2-0.1-0.3V28.3c0-0.1,0-0.2,0.1-0.3c0.1-0.1,0.2-0.1,0.3-0.2c0.1-0.1,0.3-0.1,0.5-0.1c0.2,0,0.5,0,0.8,0
	c0.3,0,0.6,0,0.9,0c0.2,0,0.4,0.1,0.5,0.1c0.1,0.1,0.2,0.1,0.3,0.2c0.1,0.1,0.1,0.2,0.1,0.3v1.8c0.4-0.5,0.7-1,1.1-1.3
	c0.3-0.4,0.7-0.6,1-0.8s0.6-0.3,0.9-0.4c0.3-0.1,0.6-0.1,0.9-0.1c0.1,0,0.3,0,0.5,0c0.2,0,0.3,0,0.5,0.1c0.2,0,0.3,0.1,0.5,0.1
	s0.2,0.1,0.3,0.2c0.1,0.1,0.1,0.1,0.1,0.2c0,0.1,0.1,0.2,0.1,0.3c0,0.1,0,0.3,0,0.5C303.6,29,303.6,29.3,303.6,29.7"/>
<path class="st2" d="M314.2,34c0-1.1-0.2-2-0.7-2.7c-0.5-0.7-1.3-1-2.3-1c-0.5,0-1,0.1-1.4,0.3c-0.4,0.2-0.7,0.5-1,0.8
	c-0.3,0.3-0.4,0.7-0.6,1.2c-0.1,0.4-0.2,0.9-0.2,1.4H314.2z M318.2,35.2c0,0.5-0.1,0.9-0.3,1.1c-0.2,0.2-0.5,0.4-0.9,0.4h-8.8
	c0,0.6,0.1,1.2,0.2,1.7c0.1,0.5,0.4,0.9,0.7,1.3c0.3,0.4,0.7,0.6,1.2,0.8c0.5,0.2,1.1,0.3,1.8,0.3c0.7,0,1.3-0.1,1.9-0.2
	c0.5-0.1,1-0.2,1.4-0.3c0.4-0.1,0.7-0.2,1-0.3c0.3-0.1,0.5-0.2,0.6-0.2c0.1,0,0.2,0,0.2,0.1c0.1,0,0.1,0.1,0.2,0.2
	c0,0.1,0.1,0.2,0.1,0.4c0,0.2,0,0.4,0,0.7c0,0.2,0,0.4,0,0.6c0,0.2,0,0.3,0,0.4c0,0.1-0.1,0.2-0.1,0.3c0,0.1-0.1,0.2-0.2,0.2
	c-0.1,0.1-0.3,0.2-0.6,0.3c-0.3,0.1-0.7,0.3-1.2,0.4c-0.5,0.1-1,0.2-1.7,0.3c-0.6,0.1-1.3,0.1-2,0.1c-1.3,0-2.4-0.2-3.4-0.5
	c-1-0.3-1.8-0.8-2.4-1.5c-0.6-0.7-1.1-1.5-1.5-2.5c-0.3-1-0.5-2.2-0.5-3.5c0-1.3,0.2-2.5,0.5-3.5c0.3-1,0.8-1.9,1.5-2.6
	c0.6-0.7,1.4-1.3,2.3-1.6c0.9-0.4,1.9-0.6,3.1-0.6c1.2,0,2.2,0.2,3.1,0.5c0.9,0.4,1.6,0.9,2.1,1.5c0.6,0.6,1,1.4,1.2,2.3
	c0.3,0.9,0.4,1.8,0.4,2.8V35.2z"/>
<path class="st3" d="M38.1,43.3c-6.7,0-12.2-5.5-12.2-12.2s5.5-12.2,12.2-12.2s12.2,5.5,12.2,12.2S44.8,43.3,38.1,43.3 M30.3,0
	C13.6,0,0,13.6,0,30.3s13.6,30.3,30.3,30.3s30.3-13.6,30.3-30.3S47,0,30.3,0"/>
<path class="st3" d="M38.1,21.1c-5.5,0-10,4.5-10,10.1c0,5.5,4.5,10.1,10,10.1s10-4.5,10-10.1C48.1,25.6,43.6,21.1,38.1,21.1"/>
</svg>
