<?xml version="1.0" encoding="utf-8"?>
<!-- Generator: Adobe Illustrator 27.2.0, SVG Export Plug-In . SVG Version: 6.00 Build 0)  -->
<svg version="1.1" id="Laag_1" xmlns="http://www.w3.org/2000/svg" xmlns:xlink="http://www.w3.org/1999/xlink" x="0px" y="0px"
	 viewBox="0 0 1475 238.7" style="enable-background:new 0 0 1475 238.7;" xml:space="preserve">
<style type="text/css">
	.st0{fill-rule:evenodd;clip-rule:evenodd;}
</style>
<polygon points="688.8,71 688.8,84.3 631.4,84.3 631.4,235.5 615.7,235.5 615.7,84.3 558.6,84.3 558.6,71 "/>
<rect x="714.6" y="71" class="st0" width="15.7" height="164.5"/>
<path d="M878.1,103.8c-3.1-5-7-9.2-11.5-12.6c-4.5-3.4-9.5-6-15-7.7c-5.5-1.8-11.2-2.6-17.2-2.6c-10.9,0-20.3,2.1-28.1,6.2
	c-7.8,4.2-14.2,9.7-19.2,16.5c-5,6.8-8.7,14.6-11.1,23.2c-2.4,8.6-3.6,17.4-3.6,26.5c0,8.9,1.2,17.7,3.6,26.4
	c2.4,8.7,6.1,16.4,11.1,23.3c5,6.8,11.4,12.3,19.2,16.5c7.8,4.1,17.2,6.2,28.1,6.2c7.7,0,14.6-1.4,20.7-4.1
	c6.1-2.8,11.4-6.5,15.9-11.3c4.5-4.8,8.1-10.3,10.8-16.7c2.8-6.4,4.5-13.3,5.3-20.6h15.7c-1.1,10.1-3.5,19.3-7.1,27.4
	c-3.7,8.2-8.5,15.1-14.3,20.7c-5.8,5.7-12.7,10.1-20.6,13.1c-7.9,3.1-16.7,4.6-26.4,4.6c-12.9,0-24.2-2.3-34-7
	c-9.8-4.7-17.9-10.9-24.3-18.8c-6.5-7.8-11.3-16.9-14.5-27.2c-3.2-10.3-4.8-21.1-4.8-32.5c0-11.4,1.6-22.2,4.8-32.5
	c3.2-10.3,8.1-19.4,14.5-27.3c6.5-7.9,14.6-14.2,24.3-18.9c9.8-4.7,21.1-7,34-7c7.8,0,15.5,1.2,22.9,3.5c7.4,2.3,14.2,5.7,20.3,10.3
	c6.1,4.5,11.1,10.1,15.2,16.7c4.1,6.6,6.6,14.2,7.7,22.8h-15.7C883.5,114.4,881.2,108.8,878.1,103.8"/>
<polygon points="942.5,71 942.5,159.4 1038.1,71 1059.3,71 985.8,138.9 1062.8,235.5 1042.5,235.5 974,149.8 942.5,179 942.5,235.5 
	926.8,235.5 926.8,71 "/>
<polygon points="1194.3,71 1194.3,84.3 1096.4,84.3 1096.4,143.8 1188.1,143.8 1188.1,157.1 1096.4,157.1 1096.4,222.1 
	1195.5,222.1 1195.5,235.5 1080.7,235.5 1080.7,71 "/>
<polygon points="1343.9,71 1343.9,84.3 1286.5,84.3 1286.5,235.5 1270.8,235.5 1270.8,84.3 1213.7,84.3 1213.7,71 "/>
<path d="M1366,202.5c2.8,5.7,6.6,10.2,11.4,13.6c4.8,3.4,10.6,5.8,17.2,7.3c6.6,1.5,13.7,2.2,21.2,2.2c4.3,0,9-0.6,14.1-1.9
	c5.1-1.2,9.8-3.2,14.2-5.9c4.4-2.7,8-6.1,10.9-10.4c2.9-4.2,4.4-9.4,4.4-15.3c0-4.6-1-8.6-3.1-12c-2.1-3.4-4.8-6.2-8.1-8.5
	c-3.3-2.3-7-4.2-10.9-5.6c-4-1.5-7.9-2.7-11.8-3.6l-36.6-9c-4.8-1.2-9.4-2.8-13.9-4.6c-4.5-1.9-8.5-4.3-11.9-7.4
	c-3.4-3.1-6.1-6.8-8.2-11.3c-2.1-4.4-3.1-9.9-3.1-16.3c0-4,0.8-8.7,2.3-14.1c1.5-5.4,4.4-10.4,8.6-15.2c4.2-4.8,10-8.8,17.4-12.1
	c7.4-3.3,16.8-5,28.3-5c8.1,0,15.9,1.1,23.3,3.2c7.4,2.1,13.8,5.4,19.4,9.7c5.5,4.3,9.9,9.6,13.3,16c3.3,6.4,5,13.8,5,22.2h-15.7
	c-0.3-6.3-1.7-11.8-4.3-16.5c-2.5-4.7-5.8-8.6-9.9-11.7c-4.1-3.1-8.8-5.5-14.1-7.1c-5.3-1.6-10.9-2.4-16.7-2.4
	c-5.4,0-10.6,0.6-15.6,1.7c-5,1.2-9.4,3-13.1,5.5c-3.8,2.5-6.8,5.9-9.1,10c-2.3,4.2-3.5,9.3-3.5,15.4c0,3.8,0.7,7.2,2,10
	c1.3,2.9,3.1,5.3,5.4,7.3c2.3,2,5,3.6,7.9,4.8c3,1.2,6.2,2.2,9.6,3l40.1,9.9c5.8,1.5,11.3,3.4,16.5,5.6c5.1,2.2,9.7,5,13.6,8.3
	c3.9,3.3,7,7.3,9.2,12.1c2.2,4.8,3.3,10.5,3.3,17.3c0,1.8-0.2,4.3-0.6,7.4c-0.4,3.1-1.3,6.3-2.8,9.8c-1.5,3.4-3.5,7-6.2,10.5
	c-2.7,3.5-6.4,6.7-11.1,9.6c-4.7,2.9-10.5,5.2-17.4,6.9c-6.9,1.8-15.2,2.6-24.9,2.6c-9.7,0-18.7-1.1-27-3.3
	c-8.3-2.2-15.4-5.6-21.2-10.2c-5.8-4.6-10.3-10.5-13.5-17.7c-3.1-7.2-4.5-15.9-4-26h15.7C1361.9,189.8,1363.2,196.9,1366,202.5"/>
<path d="M9.8,172.7c21,16.1,40.5,23.8,59.4,23.8c27.9,0,38.4-11.9,38.4-26.7c0-10.5-6.3-19.7-32.8-37.9c-21.6-14.7-44-36.5-44-66
	c0-34.4,24.4-66,78.2-66c20.9,0,47.5,7.7,67,19.7l-9.8,40.7c-18.9-13.3-38.4-19-54.5-19c-20.2,0-32.8,7-32.8,22.5
	c0,11.2,9.8,20.3,32.8,35.8c28.6,20.4,45.4,40,45.4,67.4c0,38.6-31.4,70.9-83.8,70.9c-29.3,0-54.5-8.4-73.3-22.5L9.8,172.7z
	 M259.1,237.9c-44.7,0-86.6-34.4-86.6-87c0-49.1,33.5-89.1,85.2-89.1c42.6,0,74.7,35.8,74.7,63.2l-101.2,59.7
	c8.4,9.8,22.3,12.7,35.6,12.7c12.6,0,32.8-6.3,58.7-25.3l-9.1,49.1C300.2,232.3,279.3,237.9,259.1,237.9 M282.8,113.7
	c-5.6-8.4-15.3-12.6-27.9-12.6c-16.8,0-39.8,13.4-39.8,42.1c0,2.8,0,6.3,0.7,9.8L282.8,113.7z M429.4,237.9
	c-44.7,0-86.6-34.4-86.6-87c0-49.1,33.5-89.1,85.2-89.1c42.6,0,74.7,35.8,74.7,63.2l-101.2,59.7c8.4,9.8,22.3,12.7,35.6,12.7
	c12.5,0,32.8-6.3,58.7-25.3l-9.1,49.1C470.6,232.3,449.6,237.9,429.4,237.9 M453.2,113.7c-5.6-8.4-15.4-12.6-27.9-12.6
	c-16.8,0-39.8,13.4-39.8,42.1c0,2.8,0,6.3,0.7,9.8L453.2,113.7z"/>
</svg>
