<?xml version="1.0" encoding="utf-8"?>
<!-- Generator: Adobe Illustrator 27.2.0, SVG Export Plug-In . SVG Version: 6.00 Build 0)  -->
<svg version="1.0" id="Laag_1" xmlns="http://www.w3.org/2000/svg" xmlns:xlink="http://www.w3.org/1999/xlink" x="0px" y="0px"
	 viewBox="0 0 1000 280" style="enable-background:new 0 0 1000 280;" xml:space="preserve">
<style type="text/css">
	.st0{clip-path:url(#SVGID_00000163763104578178039640000005982991785410891667_);}
	.st1{fill:#32C850;}
</style>
<g>
	<defs>
		<rect id="SVGID_1_" y="0" width="1000" height="280"/>
	</defs>
	<clipPath id="SVGID_00000175321325497342678900000007831729799552251296_">
		<use xlink:href="#SVGID_1_"  style="overflow:visible;"/>
	</clipPath>
	<g style="clip-path:url(#SVGID_00000175321325497342678900000007831729799552251296_);">
		<path class="st1" d="M125.2,137.4H89.1v69.2c0,15.3,8.2,19.4,20.6,19.4c6,0,11.5-1.1,15-1.9v47c-2.2,1.1-11.5,5.2-29.6,5.2
			c-38.5,0-62.1-22.7-62.1-59.6v-79.3H0V87.9h9.3c19.4,0,28.9-13.1,28.9-30.2V33.9h50.9v54h36.3v49.5
			C125.4,137.4,125.2,137.4,125.2,137.4z M245.8,230c22.8,0,42.2-17.9,42.2-49.2c0-32-19.1-48.8-42.2-48.8
			c-22.8,0-41.1,16.8-41.1,48.8C204.7,211.3,223.8,230,245.8,230z M288.4,249.8c-8.2,17.9-26.9,29-50.2,29
			c-53.1,0-90.9-41.4-90.9-98.4c0-55.1,35.5-97.5,89.1-97.5c33.3,0,47.8,18.3,51.5,26.8V88.5h55l0.4,185.2H288l0.4-22L288.4,249.8
			L288.4,249.8z M409.3,277L370.4,243L505.8,86.6l40,33.9L409.3,277z M403.7,89.2c18.7,0,33.7,14.6,33.7,33.1
			c0,18.3-15,33.1-33.7,33.1c-18,0-32.9-14.8-32.9-33.1C370.9,103.7,385.8,89.2,403.7,89.2z M592.9,276.4V139h-29.6V91.4h29.6V75.3
			c0-42.5,25.8-71.6,71.1-71.6c11.5,0,21.7,1.5,26.9,4.1V54c-3-0.7-7.8-1.9-16.8-1.9c-10,0-24.3,4.5-24.3,25v14.2H690v47.7h-40.4
			v137.5H592.9L592.9,276.4z M723.2,274.9h56.9V89.7h-56.9V274.9z M751.2,0c18.7,0,33.7,14.8,33.7,33.1s-15,33.1-33.7,33.1
			c-18,0-32.9-14.8-32.9-33.1C718.2,14.8,733.2,0,751.2,0z M902.8,219.5L842.2,280l-37-37l60.5-60.3l-59-58.5l37-36.5l58.7,58.5
			l59.8-59.6l37.1,37l-59.9,59.6L1000,243l-37,37L902.8,219.5z M546.3,240.8c0,18.3-15,33.1-33.7,33.1c-18,0-32.9-14.8-32.9-33.1
			c0-18.7,15-33.1,32.9-33.1C531.3,207.7,546.3,222.2,546.3,240.8L546.3,240.8z"/>
	</g>
</g>
</svg>
