<?xml version="1.0" encoding="utf-8"?>
<!-- Generator: Adobe Illustrator 27.2.0, SVG Export Plug-In . SVG Version: 6.00 Build 0)  -->
<svg version="1.1" xmlns="http://www.w3.org/2000/svg" xmlns:xlink="http://www.w3.org/1999/xlink" x="0px" y="0px"
	 viewBox="0 0 141.7 22.1" style="enable-background:new 0 0 141.7 22.1;" xml:space="preserve">
<style type="text/css">
	.st0{display:none;}
	.st1{opacity:0.75;}
</style>
<g id="Guidelines" class="st0">
</g>
<g id="TOPdesk">
	<g>
		<polygon points="27.3,0.2 27.3,3.8 33.1,3.8 33.1,21.8 37.2,21.8 37.2,3.8 43,3.8 43,0.2 		"/>
		<path d="M64.3,21.8h4.1l0-7.3c0,0,2,0,3.4,0c4.1,0,6.8-3.8,6.8-8.1c0-4-2.8-6.3-6.7-6.3l-7.5,0L64.3,21.8z M71,11.3
			c-1,0-2.7,0-2.7,0V3.8c1-0.2,2.9-0.2,3.7-0.1c1.6,0.2,2.3,1.2,2.3,3.2C74.3,8.8,74,11.3,71,11.3z"/>
		<path d="M90.4,0.2l0,6.2c-0.3-0.5-2.1-0.9-3.7-0.9c-5,0-7.3,3.1-7.3,8.3c0,4.4,3.2,8,7.4,8h4.8l2.9,0c0-1.3,0-21.6,0-21.6H90.4z
			 M90.4,18.5h-3.1c-2.3,0-4-2.2-4-5.5c0-2.6,1.3-4.4,3.8-4.4c2.2,0,3.3,1.2,3.3,2.8V18.5z"/>
		<polygon points="134.3,13.1 141,5.5 136.2,5.5 130.3,12.5 130.3,0.2 126.3,0.2 126.3,21.8 130.3,21.8 130.3,13.8 136.9,21.8 
			141.7,21.8 		"/>
		<path d="M52.9,0C46.6,0,43,5.2,43,11.4c0,6.5,4.4,10.6,9.4,10.6c6.3,0,9.9-4.8,9.9-11.3C62.3,4.6,58.1,0,52.9,0z M52.8,18.4
			c-3.5,0-5.6-2.7-5.6-7.6c0-4.6,2-7.3,5.2-7.3c3.8,0,5.6,2.9,5.6,7.9C58,15.7,55.8,18.4,52.8,18.4z"/>
		<path d="M115.7,13.2"/>
		<g>
			<path d="M103.1,15.5h-2.6c0.3,2,2.1,3.3,4.4,3.3c1.6,0,3.7-0.4,5-1.6v1.3v1.4c-0.2,0.2-1.6,2.3-5.7,2.1c-3.9,0-7.8-3.1-7.8-8
				c0-5.3,3.2-8.6,7.7-8.6c3.3,0,6.3,2.3,6.3,6.1C110.5,14.6,108.3,15.5,103.1,15.5z M103.9,8.8c-1.9,0-3.2,1.6-3.3,3.4l0,0.5h1.8
				c3.7,0,4.6-0.4,4.6-1.5C106.8,9.6,105.7,8.8,103.9,8.8z"/>
		</g>
		<g>
			<path d="M117.7,22.1c-2.4,0-4.4-1.1-5.1-2.1l0-2.8l0,0c0.9,0.8,3,1.5,4.9,1.5c1.9,0,2.9-0.6,2.9-1.7c0-0.9-0.6-1.4-3.3-1.7
				c-3.3-0.5-5-1.8-5-4.2c0-3,2.7-5.5,6.7-5.5c2.2,0,3.6,0.7,4.3,1.6l0,2.9l0,0c-0.9-0.6-2.4-1-3.9-1c-2.4,0-3.2,0.7-3.2,1.8
				c0,0.8,0.5,1.1,3.2,1.6c3.3,0.5,5,2,5,4.5C124.3,20.1,122,22.1,117.7,22.1z"/>
		</g>
	</g>
</g>
<g id="Symbol">
	<path d="M122.3,5.7"/>
	<g>
		<path d="M15.6,18.8L15.6,18.8l7.8-7.8l-7.8-7.8L7.8,11L0,18.8C4.3,23.1,11.3,23.1,15.6,18.8z"/>
		<path class="st1" d="M15.6,3.2C11.3-1.1,4.3-1.1,0,3.2L7.8,11L15.6,3.2L15.6,3.2z"/>
	</g>
</g>
</svg>
