<?xml version="1.0" encoding="utf-8"?>
<!-- Generator: Adobe Illustrator 27.2.0, SVG Export Plug-In . SVG Version: 6.00 Build 0)  -->
<svg version="1.0" id="Laag_1" xmlns="http://www.w3.org/2000/svg" xmlns:xlink="http://www.w3.org/1999/xlink" x="0px" y="0px"
	 viewBox="0 0 387.7 87.5" style="enable-background:new 0 0 387.7 87.5;" xml:space="preserve">
<style type="text/css">
	.st0{fill:#1D1D1B;}
</style>
<g id="_x31_iIEAK.tif_1_">
	<g>
		<path class="st0" d="M60.5,0c1.2,0.7,2.6,0.6,4,0.9C76.9,4,86,11.2,91.7,22.6c0.7,1.4,1,2.8,0.6,4.4c-0.6,2.1-2.4,3.7-4.5,3.9
			c-2.3,0.3-4.4-0.8-5.4-2.9c-1.7-3.6-4-6.9-7-9.6c-4.7-4.2-10.1-6.8-16.4-7.5C49,9.8,40.6,13,33.8,20.4c-4.3,4.6-6.7,10.1-7.3,16.4
			c-0.3,2.7-0.1,5.3,0.3,8c0.5,3-1.5,5.7-4.6,6.3c-2.7,0.5-5.5-1.5-6-4.4c-2-11.9,0.8-22.6,8.4-32c6.4-8,14.9-12.6,25-14.3
			c0.6-0.1,1.3,0.2,1.8-0.4C54.4,0,57.4,0,60.5,0z"/>
		<path class="st0" d="M387.7,74.4c-2.8-0.2-5.6,0-8.4-0.1c-1.4,0-1.4,0-1.4-1.4c0-20.7,0-41.4,0-62c0-1.4,0-1.4,1.4-1.4
			c2.8-0.1,5.6,0.2,8.4-0.1C387.7,31,387.7,52.7,387.7,74.4z"/>
		<path class="st0" d="M22.4,55.7c6.9,0,13.7-1,20.4-2.4c10.6-2.2,21-5.3,31-9.5c7.6-3.2,15-6.8,21.5-11.9c1.4-1.1,2.8-2.4,4-3.8
			c1.4-1.7,1.2-2.5-1-3.2c-0.3-0.1-0.6-0.1-0.9-0.2c-0.7-0.2-1.2-0.5-1.6-1.2c-1.5-3-3.3-5.8-5.4-8.4c-0.3-0.3-0.6-0.7-0.5-1.1
			c0.2-0.5,0.7-0.5,1.1-0.5c4.8,0.3,9.7,0.7,14,3c3.2,1.7,5.4,4.2,5.9,7.9c0.4,2.7-0.4,5.2-1.8,7.5c-2.3,4-5.8,6.9-9.4,9.6
			c-1.3,0.9-2.6,1.8-3.9,2.6c-0.7,0.4-1.1,1-1.2,1.8c-1,6.5-3.5,12.4-7.3,17.8c-5,7.2-10.3,14.3-15.4,21.4c-0.6,0.8-0.9,2-1.9,2.3
			c-0.9,0.2-1.8-0.5-2.7-0.8c-8.7-3.2-17.5-6.1-26.2-9.5c-5.6-2.3-10.6-5.5-14.7-9.9c-0.8-0.9-1.6-1.2-2.8-1.1
			c-4.6,0.1-9.2,0-13.7-1.3C7.6,64,5.4,63,3.5,61.3C-0.1,58-1,53.6,1.1,49c1.6-3.6,4.3-6.2,7.3-8.7c0.9-0.8,1.9-1.6,2.9-2.3
			c0.9-0.6,1.3-0.4,1.3,0.7c0,1-0.2,1.9-0.2,2.9c-0.1,2.5,0.1,5,0.5,7.5c0.1,0.6,0,1.1-0.5,1.6c-0.3,0.3-0.6,0.7-0.8,1
			c-1,1.4-0.8,2.4,0.9,2.9c2.4,0.8,4.9,1,7.5,1.1C20.8,55.7,21.6,55.7,22.4,55.7z M83.4,51.2c-0.9-0.1-1.5,0.4-2.3,0.7
			c-12.2,5.4-24.9,9.3-38,11.9c-1.4,0.3-2.7,0.5-4.1,0.8c-0.5,0.1-0.7,0.3-0.2,0.7c0.2,0.1,0.3,0.3,0.5,0.4c6.7,4,13.9,5.6,21.6,4.1
			C70.1,68,77.1,63,81.8,55C82.5,53.8,83.2,52.6,83.4,51.2c0.1,0,0.3,0,0.1-0.2C83.5,51,83.4,51.1,83.4,51.2z"/>
		<path class="st0" d="M179.4,31.6c0-6.9,0-13.7,0-20.6c0-1.6,0-1.6,1.6-1.6c2.4,0,4.7,0,7.1,0c1,0,1.3,0.3,1.3,1.3
			c0,7.3,0,14.6,0,21.9c0,0.5-0.3,1.2,0.2,1.4c0.4,0.2,0.8-0.5,1.1-0.7c9.5-7.3,23.9-5.9,30.8,6.3c5,8.9,4.8,18-1.1,26.4
			c-5,7-12.2,9.7-20.7,8.9c-7.6-0.7-13.3-4.5-17.2-11c-2.3-3.9-3-8.1-3.1-12.5C179.3,44.7,179.3,38.2,179.4,31.6
			C179.4,31.6,179.4,31.6,179.4,31.6z M215.2,52.2c0-3.5-1-6.5-2.9-9.1c-4.7-6.5-13.6-7-19-1.2c-5.2,5.5-5,14.9,0.3,20.3
			c4.6,4.6,11.9,4.9,16.7,0.7C213.5,60,215,56.3,215.2,52.2z"/>
		<path class="st0" d="M256.8,55.4c-5.4,0-10.8,0-16.1,0c-1.4,0-1.4,0-1,1.4c2.6,9.5,12.1,11.5,18.5,8.3c1.5-0.7,2.7-1.7,3.6-3.1
			c0.4-0.6,0.9-0.8,1.6-0.8c2.8,0,5.6,0,8.4,0c1.3,0,1.3,0,0.8,1.2c-2.9,6.4-7.8,10.5-14.6,11.9c-8,1.6-15.2,0.1-21.2-5.6
			c-6.7-6.4-8.7-14.3-6.3-23.1c2.4-8.7,8.3-14.3,17.2-16.3c9.7-2.2,22.1,1.9,25.9,15.8c0.8,3,1,6.1,1,9.2c0,1-0.4,1.2-1.3,1.2
			C267.8,55.3,262.3,55.4,256.8,55.4z M252.2,47.4c3.9,0,7.9,0,11.8,0c0.7,0,1.1,0,0.8-0.9c-1.4-5.7-6.6-9.5-12.9-9.4
			c-5.7,0.1-11,4.3-12.3,9.6c-0.2,0.9,0.3,0.7,0.7,0.7C244.3,47.4,248.2,47.4,252.2,47.4z"/>
		<path class="st0" d="M351.9,61.5c0,3.8,0,7.5,0,11.3c0,1.3,0,1.3-1.3,1.3c-2.5,0-5.1,0-7.6,0c-0.7,0-1-0.2-0.9-0.9
			c0-1,0-1.9,0-2.9c0-0.2,0-0.4,0-0.5c-0.2-0.1-0.4,0.1-0.5,0.2c-4.2,3.9-9.3,4.7-14.8,4.5c-5.3-0.3-9.8-2.2-13.5-6
			c-5.1-5.2-7.2-11.5-6.7-18.8c0.6-9.1,6.5-17.1,15.2-19.9c14-4.5,27.9,4.1,29.8,18.2c0.2,1.3,0.3,2.6,0.3,3.8
			C351.9,55,351.9,58.3,351.9,61.5z M341.9,51.9c0-2.9-0.8-5.5-2.2-7.9c-4.5-7.5-14.5-8.3-20.1-1.7c-4.5,5.3-4.5,13.6,0,19
			c4.4,5.3,12,6,17.3,1.6C340.2,60,341.8,56.3,341.9,51.9z"/>
		<path class="st0" d="M172.5,45.4c-0.1,3.8,0.2,8.4-0.2,13c-0.8,8.2-6.6,14.7-15.8,16.2c-4.6,0.7-9.1,0.5-13.5-1.3
			c-7.3-3-11.1-8.7-11.3-16.5c-0.2-8.3-0.1-16.6-0.1-24.9c0-1,0.4-1.1,1.2-1.1c2.4,0,4.8,0,7.3,0c1.4,0,1.4,0,1.4,1.4
			c0,7,0,14.1,0,21.1c0,1.6,0,3.2,0.4,4.8c0.8,3.3,2.7,5.7,6.1,6.7c2.7,0.9,5.5,0.9,8.3,0c4-1.3,6.3-4.6,6.4-9.2
			c0.1-7.2,0-14.4,0.1-21.6c0-1-0.4-2.3,0.2-3c0.7-0.7,1.9-0.2,2.9-0.2c1.8,0,3.7,0,5.5,0c1,0,1.3,0.2,1.3,1.3
			C172.5,36.3,172.5,40.5,172.5,45.4z"/>
		<path class="st0" d="M359.8,42c0-10.2,0-20.4,0-30.6c0-0.4,0-0.8,0-1.1c0-0.6,0.2-0.9,0.8-0.9c2.7,0,5.5,0,8.2,0
			c0.6,0,0.9,0.3,0.8,0.9c0,0.3,0,0.6,0,1c0,20.3,0,40.7,0,61c0,0.3,0,0.5,0,0.8c0.1,0.9-0.2,1.2-1.2,1.2c-2.5-0.1-5.1-0.1-7.6,0
			c-1,0-1.1-0.4-1.1-1.2c0-4.8,0-9.7,0-14.5C359.8,53.1,359.8,47.5,359.8,42z"/>
		<path class="st0" d="M280.6,59.4c0-4,0-8,0-12.1c0.1-5.1,1.6-9.6,5.2-13.3c3.3-3.5,7.6-5,12.3-5.4c1.3-0.1,2.6,0,3.9,0
			c0.7,0,1.1,0.2,1.1,1c0,2.4,0,4.8,0,7.2c0,0.6-0.2,0.8-0.8,0.8c-1.1-0.1-2.2,0-3.4,0.2c-4.6,0.9-7.6,3.9-8.2,8.5
			c-0.1,0.9-0.2,1.8-0.2,2.7c0,7.8,0,15.7,0,23.5c0,1.6,0,1.6-1.6,1.6c-2.3,0-4.5,0-6.8,0c-1.4,0-1.4,0-1.4-1.4
			C280.6,68.3,280.6,63.9,280.6,59.4z"/>
	</g>
</g>
</svg>
