<svg id="Group_88" data-name="Group 88" xmlns="http://www.w3.org/2000/svg" width="134.556" height="150.06" viewBox="0 0 134.556 150.06">
  <g id="Path_170" data-name="Path 170" transform="translate(0 1.675)">
    <path id="Path_419" data-name="Path 419" d="M775.143,749.453h-7.232v14.389H747.192V749.453h-7.239v14.389h-20.72V749.453h-7.228V782.3a14.448,14.448,0,0,1,0,25.529v34.71h63.137v-34.71a14.461,14.461,0,0,1,0-25.522Zm6.744-6.828v44.894c-.068,0-.13-.008-.2-.008a7.358,7.358,0,0,0-5.273,2.213,7.447,7.447,0,0,0-1.277,1.718,7.647,7.647,0,0,0,0,7.247,7.471,7.471,0,0,0,6.544,3.935c.066,0,.13-.006.2-.007v46.755H705.256V802.617c.065,0,.126.007.193.007A7.464,7.464,0,0,0,712,798.685a7.647,7.647,0,0,0,0-7.243,7.8,7.8,0,0,0-1.273-1.718,7.376,7.376,0,0,0-5.279-2.213c-.068,0-.128.008-.193.008V742.625h20.722v14.39h7.237v-14.39h20.717v14.39h7.233v-14.39Z" transform="translate(-705.256 -742.625)" fill="#fff"/>
  </g>
  <g id="Path_171" data-name="Path 171" transform="translate(24.111 39.65)">
    <path id="Path_420" data-name="Path 420" d="M744.395,784.525a7.548,7.548,0,0,0-2.183-5.344,7.405,7.405,0,0,0-10.47-.087l-.088.087a7.626,7.626,0,0,0,0,10.689,7.38,7.38,0,0,0,5.277,2.213,7.519,7.519,0,0,0,7.465-7.557m6.745,0a14.376,14.376,0,0,1-4.161,10.173,14.084,14.084,0,0,1-19.915.175c-.059-.058-.117-.117-.175-.175a14.423,14.423,0,0,1,10.042-24.556,14.02,14.02,0,0,1,10.048,4.212,14.37,14.37,0,0,1,4.161,10.172" transform="translate(-722.727 -770.141)" fill="#fff"/>
  </g>
  <g id="Rectangle_264" data-name="Rectangle 264" transform="translate(0.006 115.663)">
    <rect id="Rectangle_419" data-name="Rectangle 419" width="76.342" height="6.828" fill="#fff"/>
  </g>
  <g id="Path_172" data-name="Path 172" transform="translate(90.917 127.78)">
    <path id="Path_421" data-name="Path 421" d="M808.033,847.774c-.062-5.084-1.9-5.333-15.143-5.333-13.177,0-14.953.248-15.016,5.333Zm-36.9,8.068V848.83c0-13.528,8.58-14.832,21.818-14.832,12.628,0,21.821,1.057,21.821,13.528v8.317Z" transform="translate(-771.133 -833.998)" fill="#fff"/>
  </g>
  <g id="Path_173" data-name="Path 173" transform="translate(90.917 104.573)">
    <path id="Path_422" data-name="Path 422" d="M771.133,835.86V817.614h6.742v10.179h11.15v-7.51h7.115v7.51h11.894v-10.61h6.737V835.86Z" transform="translate(-771.133 -817.183)" fill="#fff"/>
  </g>
  <g id="Path_174" data-name="Path 174" transform="translate(90.917 60.294)">
    <path id="Path_423" data-name="Path 423" d="M771.133,819.1v-7.326l25.622-2.854v-.117l-25.622-3.849v-7.263l25.622-3.537v-.123l-25.622-3.166V785.1l43.639,5.773v7.317l-27.641,3.849v.123l27.641,3.973v7.074Z" transform="translate(-771.133 -785.099)" fill="#fff"/>
  </g>
  <g id="Rectangle_265" data-name="Rectangle 265" transform="translate(90.917 48.484)">
    <rect id="Rectangle_420" data-name="Rectangle 420" width="43.639" height="8.071" fill="#fff"/>
  </g>
  <g id="Path_175" data-name="Path 175" transform="translate(90.917 24.025)">
    <path id="Path_424" data-name="Path 424" d="M771.133,777.183v-8.067h36.9v-10.3h6.739v18.364Z" transform="translate(-771.133 -758.819)" fill="#fff"/>
  </g>
  <g id="Path_176" data-name="Path 176" transform="translate(90.917 0)">
    <path id="Path_425" data-name="Path 425" d="M808.033,755.187c-.062-5.087-1.9-5.337-15.143-5.337-13.177,0-14.953.25-15.016,5.337Zm-36.9,8.067v-7.012c0-13.528,8.58-14.831,21.818-14.831,12.628,0,21.821,1.055,21.821,13.528v8.315Z" transform="translate(-771.133 -741.411)" fill="#fff"/>
  </g>
  <g id="Path_177" data-name="Path 177" transform="translate(0.01 129.861)">
    <path id="Path_426" data-name="Path 426" d="M711.694,849.5h63.651v-7.76H711.694Zm69.882,6.208H705.263v-20.2h76.316Z" transform="translate(-705.263 -835.506)" fill="#fff"/>
  </g>
</svg>
