<?xml version="1.0" standalone="no"?>
<!DOCTYPE svg PUBLIC "-//W3C//DTD SVG 20010904//EN"
 "http://www.w3.org/TR/2001/REC-SVG-20010904/DTD/svg10.dtd">
<svg version="1.0" xmlns="http://www.w3.org/2000/svg"
 width="400.000000pt" height="200.000000pt" viewBox="0 0 400.000000 200.000000"
 preserveAspectRatio="xMidYMid meet">

<g transform="translate(0.000000,200.000000) scale(0.100000,-0.100000)"
fill="#000000" stroke="none">
<path d="M502 1595 c-36 -16 -94 -75 -113 -115 -6 -14 -15 -32 -20 -40 -5 -8
-12 -22 -15 -30 -3 -8 -10 -22 -15 -30 -5 -8 -19 -35 -32 -60 -13 -25 -31 -58
-40 -75 -39 -74 -107 -217 -107 -226 0 -6 -9 -22 -20 -36 -11 -14 -17 -29 -14
-34 3 -5 1 -9 -4 -9 -8 0 -55 -103 -52 -116 1 -4 -2 -10 -7 -13 -14 -10 -44
-82 -38 -92 4 -5 2 -9 -2 -9 -5 0 -10 -31 -11 -69 -3 -53 1 -79 18 -114 21
-44 70 -97 90 -97 5 0 10 -4 10 -9 0 -29 186 -55 216 -30 8 6 14 9 14 6 0 -8
95 39 113 56 7 7 34 32 59 56 l46 43 43 -42 c51 -50 129 -102 178 -118 53 -18
150 -14 198 8 152 68 193 227 108 410 -22 47 -45 91 -52 98 -7 7 -13 21 -13
30 0 9 -8 31 -18 47 -10 17 -33 65 -51 108 -19 42 -38 77 -42 77 -5 0 -8 4 -7
8 5 16 -45 111 -55 105 -6 -4 -8 0 -4 10 3 9 -2 26 -11 39 -10 13 -31 51 -47
86 -16 34 -32 62 -37 62 -4 0 -8 6 -8 13 0 22 -52 78 -92 98 -44 23 -119 24
-166 4z m153 -72 c2 -7 11 -13 19 -13 9 0 25 -19 36 -42 11 -24 24 -50 29 -58
5 -8 12 -22 15 -30 3 -8 10 -22 15 -30 12 -21 207 -419 220 -450 6 -14 15 -32
21 -40 9 -15 39 -86 39 -95 0 -3 8 -19 16 -36 9 -16 18 -55 20 -85 3 -47 0
-62 -22 -97 -35 -57 -56 -75 -106 -93 -51 -19 -111 -13 -169 17 -46 24 -139
94 -151 115 -8 14 11 51 45 88 10 11 18 26 18 34 0 7 11 28 24 45 26 34 44 75
51 116 3 14 8 41 11 59 15 79 -50 185 -129 211 -53 18 -147 9 -191 -18 -31
-20 -86 -81 -72 -81 3 0 -2 -19 -10 -42 -22 -64 2 -179 52 -245 13 -17 24 -39
24 -49 0 -10 3 -14 7 -11 3 4 18 -12 31 -35 14 -24 29 -46 34 -49 5 -3 -18
-31 -51 -61 -131 -122 -250 -139 -347 -51 -32 29 -44 49 -52 85 -10 50 -3 108
17 146 6 12 9 27 6 32 -3 6 -1 10 5 10 6 0 8 5 5 10 -3 6 -2 10 3 10 5 0 17
19 27 43 9 23 24 54 32 70 8 15 11 27 6 27 -4 0 -3 4 3 8 16 10 64 108 57 116
-4 3 -2 6 4 6 12 0 33 44 33 71 0 11 7 22 15 25 14 6 41 71 37 87 -1 5 1 6 6
3 8 -5 62 94 62 114 0 23 85 144 114 161 36 22 132 23 141 2z m-18 -448 c44
-18 78 -65 81 -115 3 -39 -40 -184 -52 -173 -4 4 -5 1 -2 -7 4 -9 -7 -29 -23
-46 -17 -18 -29 -33 -27 -35 1 -2 -5 -12 -15 -21 -17 -16 -19 -16 -38 0 -29
24 -98 163 -112 226 -17 79 3 132 61 163 51 27 76 28 127 8z"/>
<path d="M1975 1353 c-32 -35 -32 -63 0 -97 46 -50 110 -26 122 46 11 70 -72
105 -122 51z"/>
<path d="M2500 1035 l0 -345 43 0 c47 0 73 12 63 29 -10 16 -2 14 50 -14 54
-29 81 -31 152 -10 55 17 109 62 139 117 22 41 26 185 5 208 -7 8 -21 30 -30
49 -40 80 -203 124 -272 73 -16 -12 -32 -22 -35 -22 -3 0 -5 59 -5 130 l0 130
-55 0 -55 0 0 -345z m295 9 c45 -21 74 -82 65 -134 -15 -81 -68 -124 -152
-122 -35 1 -54 7 -73 25 -25 22 -26 28 -23 118 l3 94 45 23 c48 24 77 23 135
-4z"/>
<path d="M3520 1035 l0 -345 51 0 c42 0 52 3 56 20 7 25 7 25 44 -2 41 -31
136 -31 194 -1 40 21 92 72 87 86 -1 4 2 7 7 7 19 0 33 72 28 145 -5 77 -21
111 -76 164 -59 57 -169 72 -233 33 -19 -12 -38 -22 -42 -22 -3 0 -6 59 -6
130 l0 130 -55 0 -55 0 0 -345z m301 7 c15 -8 34 -28 43 -44 19 -31 29 -115
15 -124 -5 -3 -9 -13 -9 -22 0 -25 -70 -61 -129 -66 -28 -3 -51 -1 -51 3 0 3
-13 15 -30 24 -30 18 -30 18 -30 111 0 90 1 94 27 111 54 36 110 38 164 7z"/>
<path d="M1588 1156 c-57 -15 -109 -54 -139 -102 -27 -44 -38 -162 -19 -217
15 -48 65 -104 115 -130 58 -30 153 -30 194 1 37 27 37 27 44 2 4 -17 14 -20
56 -20 l51 0 0 230 0 230 -55 0 c-42 0 -55 -3 -55 -15 0 -19 -2 -19 -42 4 -46
27 -95 33 -150 17z m156 -115 l36 -23 0 -78 c0 -43 3 -85 6 -93 8 -23 -63 -60
-116 -61 -85 0 -140 54 -142 140 -2 110 119 174 216 115z"/>
<path d="M2345 1153 c-22 -8 -44 -18 -49 -24 -15 -14 -26 -11 -20 6 5 12 -4
15 -50 15 l-56 0 0 -230 0 -230 56 0 55 0 -2 172 -2 171 49 19 c26 11 61 18
78 16 30 -3 31 -2 34 43 3 41 0 47 -20 53 -27 7 -22 7 -73 -11z"/>
<path d="M3206 1156 c-21 -8 -43 -19 -49 -25 -15 -15 -27 -14 -27 4 0 11 -12
15 -50 15 l-50 0 0 -230 0 -230 55 0 55 0 0 169 0 169 43 21 c61 29 104 25
143 -13 15 -15 14 -8 14 -186 l0 -160 55 0 55 0 0 169 c0 97 -4 172 -10 176
-5 3 -7 12 -4 19 6 15 -49 78 -81 94 -37 19 -108 23 -149 8z"/>
<path d="M1970 920 l0 -230 55 0 55 0 0 230 0 230 -55 0 -55 0 0 -230z"/>
</g>
</svg>
