<?xml version="1.0" encoding="UTF-8"?><svg id="Laag_1" xmlns="http://www.w3.org/2000/svg" viewBox="0 0 400 200"><defs><style>.cls-1{fill:#2b2865;}</style></defs><path class="cls-1" d="m361,79.33c-1.16-7.24-3.38-14.15-6.73-20.68-3.47-6.77-7.99-12.78-13.38-18.13-8.43-8.37-18.28-14.67-28.96-19.75-11.74-5.6-24.05-9.52-36.69-12.47-12.68-2.97-25.52-4.89-38.48-6.1-9.67-.91-19.37-1.43-29.07-1.56-9.6-.13-19.21-.08-28.79.75-7.33.63-14.67,1.29-21.95,2.26-10.88,1.44-21.61,3.66-32.21,6.57-14.08,3.88-27.68,8.97-40.48,16.08-9.71,5.4-18.66,11.82-26.38,19.89-5.14,5.37-9.49,11.3-12.87,17.95-4.35,8.55-6.69,17.64-7,27.21-.27,8.23.45,16.39,2.06,24.47,1.61,8.03,4.24,15.72,8.22,22.91,6.46,11.65,15.69,20.51,27.18,27.09,11.59,6.63,24.17,10.4,37.21,12.82,7.37,1.37,14.79,2.3,22.28,2.74,5.82.35,11.64.66,17.47.72,6.56.07,13.14-.09,19.7-.29,5.24-.16,10.48-.49,15.71-.82,4.61-.3,9.21-.68,13.81-1.08,5.07-.44,10.14-.93,15.21-1.42,6.27-.59,12.53-1.33,18.83-1.77,6.72-.47,13.45-.37,20.08.99,3.91.8,7.67,2.01,10.9,4.44,3.88,2.92,5.74,6.83,5.32,11.69-.17,1.87-.68,3.71-1.03,5.58.17-.07.47-.17.75-.29,9.52-4.04,18.61-8.87,27.38-14.33,12.67-7.86,24.42-16.9,34.7-27.75,7.75-8.17,14.37-17.14,19.36-27.26,5.26-10.63,8.27-21.87,8.79-33.74.25-5.6-.07-11.17-.96-16.72m-204.69,73.72c-.04,2.03-1.23,3.37-3.17,3.85-2.12.52-4.28.94-6.43,1.23-8.28,1.11-16.6,1.56-24.95,1.26-7.95-.3-15.85-1.06-23.55-3.16-2.28-.62-4.48-1.56-6.73-2.3-.75-.25-.83-.69-.77-1.38.27-2.78.49-5.57.72-8.36.02-.15,0-.32,0-.63-2.6,1.89-5.07,3.69-7.7,5.61-1.82-1.93-3.61-3.84-5.43-5.78,1.17-1.1,2.18-2.06,3.27-3.1-.54-.23-1.01-.43-1.47-.63-1.54-.64-3.09-1.25-4.59-1.94-.43-.2-.86-.61-1.07-1.03-3.8-7.61-6.04-15.68-6.95-24.12-1.12-10.26-.68-20.45,1.83-30.48,3.91-15.6,12.61-27.93,25.84-37.03,10.52-7.24,22.2-11.58,34.68-13.97,2.19-.41,4.41-.81,6.65-.93,3.56-.16,5.44,1.31,6.18,4.79.37,1.71.49,3.49.5,5.25.01,1.75-.94,3.08-2.42,4.03-1.7,1.12-3.61,1.74-5.57,2.17-5.33,1.18-10.52,2.75-15.35,5.31-14.36,7.59-22.71,19.43-24.81,35.52-1.27,9.71-.43,19.3,3.16,28.5,4.54,11.68,12.99,19.16,25.01,22.63,5.08,1.46,10.28,2.15,15.55,2.16,4.03.02,8.07-.13,12.1-.1,3.71.03,4.96,1.13,5.32,4.82.24,2.59.21,5.21.15,7.81m13.31-80.35c-.56,1.65-.8,1.74-2.53,1.9-1.78.15-3.58.32-5.3.78-4.58,1.22-6.82,4.59-7.76,9-.98,4.62-.9,9.28-.45,13.94.67,7.08,3,13.67,5.92,20.1.77,1.69,1.42,3.47,1.91,5.26.56,2.04-.2,3.5-2.2,4.2-1.58.55-3.25.9-4.92,1.12-3.19.4-6.4.74-9.61.92-1.5.08-3.07-.1-4.53-.46-2.65-.66-4.19-2.61-5.19-5.04-1.17-2.84-1.76-5.82-1.96-8.85-.46-6.98-.78-13.96-1.19-20.94-.41-6.95-1.05-13.88-2.58-20.7-.6-2.64-1.4-5.2-2.68-7.59-.93-1.76-2.17-3.23-4.07-4.05-.46-.19-.89-.48-1.27-.81-.26-.22-.58-.61-.53-.87.03-.25.48-.53.8-.62.71-.18,1.45-.31,2.18-.33,4.74-.18,9.49-.3,14.24-.48,1.33-.05,2.68-.23,4.01-.41.49-.07.77.05,1.05.44,1.37,1.94,2.78,3.86,4.17,5.79.15.21.31.42.54.73,1.45-2.87,3.26-5.36,5.57-7.45,3.78-3.41,8.15-5.03,13.28-4.59,1.36.11,2.28.72,2.7,1.94.45,1.33.87,2.72,1.06,4.11.56,4.1.49,8.21-.45,12.27l-.19.68Zm70.69,30.93c-1.91,7.22-5.37,13.54-10.98,18.6-4.4,3.97-9.62,6.1-15.35,7.17-7.37,1.38-14.66,1.18-21.79-1.28-9.42-3.24-15.71-9.67-19.07-19.02-1.84-5.13-2.51-10.44-2.59-15.86-.08-5.98.85-11.79,3.29-17.28,3.86-8.7,10.4-14.73,19-18.6,5.28-2.37,10.83-3.86,16.63-3.66,11.17.39,20.47,4.64,27.02,14.02,2.56,3.65,3.83,7.83,4.57,12.2,1.35,7.96,1.33,15.87-.73,23.71m63.54,18.94c-.92.6-1.94,1.1-2.98,1.44-3.32,1.12-6.74,1.75-10.28,1.37-5.22-.56-8.88-3.47-11.62-7.76-2.26-3.55-3.64-7.47-4.97-11.43-1.01-2.97-1.97-5.97-3.82-8.57-.41-.6-.89-1.19-1.43-1.67-.68-.61-1.34-.48-1.61.38-.36,1.15-.69,2.34-.72,3.54-.08,3.26-.09,6.54.03,9.81.12,3.53.39,7.05.62,10.58.18,2.82-.94,4.97-3.31,6.47-2.28,1.44-4.84,1.92-7.47,2.03-3.08.14-6.08-.2-8.86-1.62-.68-.35-1.3-.9-1.83-1.46-.65-.67-.8-1.54-.48-2.44,2.73-7.85,3.44-16,3.7-24.22.37-11.66-.4-23.27-1.83-34.82-1.06-8.56-2.47-17.07-3.77-25.6-.49-3.24,1.05-5.8,4.36-6.69,4.01-1.07,8.09-1,12.18-.47,2,.26,3.94.74,5.72,1.73,1.54.87,2.26,2.08,2.22,3.93-.16,5.88-.17,11.76-.24,17.65-.01,1.08.01,2.16.02,3.24h.1c-.05,5.94-.14,11.88-.12,17.81,0,2.08.25,4.15.43,6.23.04.52.2,1.04.39,1.53.44,1.14,1.07,1.25,1.94.39.55-.54,1.07-1.09,1.57-1.68,1.42-1.66,2.85-3.32,4.22-5.03,2.08-2.62,2.74-5.59,2.02-8.87-.17-.79-.32-1.6-.5-2.4-.23-.99-.11-1.47.83-1.86,1.19-.48,2.43-.9,3.68-1.13,3.64-.65,7.3-.73,10.93,0,2.98.59,3.6,1.65,2.75,4.59-.98,3.37-2.75,6.38-4.5,9.39-1.85,3.17-3.73,6.33-5.74,9.38-1.25,1.91-1.29,3.77-.49,5.79,1.07,2.67,2.65,5.03,4.38,7.31,3.74,4.96,8.05,9.42,12.33,13.89,1.29,1.34,2.46,2.84,3.39,4.44,1.12,1.89.59,3.58-1.25,4.77m39.1-36.21c-.32,17.45-5.95,32.91-17.52,46.09-2.63,2.98-5.55,5.64-9.05,7.6-1.73.97-2.75.83-4.18-.57-1.24-1.22-2.04-2.68-2.31-4.41-.25-1.57.33-2.95,1.69-3.8,3.14-1.98,6.09-4.18,8.42-7.11,2.81-3.52,4.38-7.43,3.76-12.02-.39-2.87-1.25-5.61-2.35-8.28-2.59-6.26-6.12-12.01-9.65-17.78-2.84-4.66-5.7-9.31-8.41-14.05-.97-1.69-1.65-3.6-2.19-5.48-.64-2.25.33-3.6,2.62-3.94,1.3-.2,2.62-.25,3.93-.27,2.22-.04,4.44-.03,6.64.04,1.78.06,3.03.97,3.68,2.65.88,2.31,1.69,4.66,2.64,6.95,2.72,6.58,6.42,12.64,10.38,18.53.58.88,1.2,1.73,1.81,2.6l.18.11c-.01-2.46.08-4.87-.07-7.25-.27-4.34-.58-8.69-1.08-13-.26-2.24-.97-4.42-1.47-6.63-.16-.72-.33-1.44-.39-2.18-.08-1.11.31-1.87,1.39-2.12,1.94-.44,3.92-.76,5.9-.96,1.14-.12,2.11.57,2.48,1.64.64,1.8,1.28,3.64,1.59,5.52.95,6,1.66,12.03,1.56,18.12"/><path class="cls-1" d="m222.38,100.06c-1.14,3.85-3.07,7.24-5.81,10.22-4.2,4.56-11.24,4.49-15.69,1.31-3.11-2.22-4.99-5.31-6.19-8.86-1.23-3.66-1.6-7.47-1.6-11.31,0-4.81.5-9.54,2.39-14.02,1.41-3.33,3.46-6.15,6.59-8.08,6.28-3.88,14.68-1.59,18.3,4.96,1.66,3.01,2.47,6.26,2.92,9.63.75,5.44.66,10.85-.92,16.14"/></svg>