<?xml version="1.0" encoding="UTF-8"?><svg id="Laag_1" xmlns="http://www.w3.org/2000/svg" viewBox="0 0 400 200"><defs><style>.cls-1{fill:#e73a30;}.cls-2{fill:#1f1d1b;}</style></defs><path class="cls-2" d="m84.79,129.39c6.47,0,11.16-3,13.5-6.84l6.94,3.94c-4.12,6.38-11.25,10.59-20.62,10.59-15.09,0-25.12-10.59-25.12-24.66s9.94-24.66,24.56-24.66,23.34,11.62,23.34,24.75c0,1.22-.09,2.44-.28,3.66h-39.28c1.6,8.44,8.25,13.22,16.97,13.22m-16.97-20.34h31.31c-1.41-9.28-8.06-13.59-15.09-13.59-8.81,0-14.9,5.44-16.22,13.59"/><rect class="cls-2" x="116.76" y="62.92" width="8.16" height="72.95"/><path class="cls-2" d="m184.35,88.99v46.87h-8.16v-8.06c-3.75,5.72-9.75,9.28-17.72,9.28-13.03,0-23.72-10.78-23.72-24.66s10.69-24.66,23.72-24.66c7.97,0,13.97,3.56,17.72,9.28v-8.06h8.16Zm-8.16,23.44c0-9.56-7.22-16.78-16.69-16.78s-16.59,7.22-16.59,16.78,7.22,16.78,16.59,16.78,16.69-7.22,16.69-16.78"/><polygon class="cls-2" points="260.46 88.99 245.93 135.86 237.59 135.86 226.62 101.18 215.66 135.86 207.31 135.86 192.78 88.99 201.31 88.99 211.62 124.61 222.68 88.99 230.56 88.99 241.62 124.71 251.93 88.99 260.46 88.99"/><path class="cls-2" d="m313.99,88.99v46.87h-8.16v-8.06c-3.75,5.72-9.75,9.28-17.72,9.28-13.03,0-23.72-10.78-23.72-24.66s10.69-24.66,23.72-24.66c7.97,0,13.97,3.56,17.72,9.28v-8.06h8.16Zm-8.16,23.44c0-9.56-7.22-16.78-16.69-16.78s-16.59,7.22-16.59,16.78,7.22,16.78,16.59,16.78,16.69-7.22,16.69-16.78"/><path class="cls-2" d="m349.14,88.15v8.53c-7.03-.28-14.62,3.28-14.62,14.34v24.84h-8.16v-46.87h8.16v7.87c3-6.56,8.72-8.72,14.62-8.72"/><path class="cls-2" d="m377.27,129.39c6.47,0,11.15-3,13.5-6.84l6.94,3.94c-4.13,6.38-11.25,10.59-20.63,10.59-15.09,0-25.12-10.59-25.12-24.66s9.94-24.66,24.56-24.66,23.34,11.62,23.34,24.75c0,1.22-.09,2.44-.28,3.66h-39.28c1.6,8.44,8.25,13.22,16.97,13.22m-16.97-20.34h31.31c-1.41-9.28-8.06-13.59-15.09-13.59-8.81,0-14.9,5.44-16.22,13.59"/><path class="cls-2" d="m49.73,62.92v49.51c0,10.07-7.56,24.66-25.87,24.66C10.83,137.08.14,126.3.14,112.43s10.69-24.66,23.72-24.66c7.97,0,13.97,3.56,17.72,9.28v-34.13h8.16Zm-8.16,49.51c0-9.56-7.22-16.78-16.69-16.78s-16.59,7.22-16.59,16.78,7.22,16.78,16.59,16.78,16.69-7.22,16.69-16.78"/><path class="cls-1" d="m41.58,112.43c0-9.56-7.22-16.78-16.69-16.78s-16.59,7.22-16.59,16.78,7.22,16.78,16.59,16.78,16.69-7.22,16.69-16.78"/></svg>