<?xml version="1.0" encoding="UTF-8"?><svg id="Laag_1" xmlns="http://www.w3.org/2000/svg" viewBox="0 0 400 200"><defs><style>.cls-1{fill:#b9b8c7;}.cls-2{fill:#1c2849;}</style></defs><path class="cls-1" d="m363.26,96.47c.02-1.17-.27-2.35-.89-3.43-1.84-3.19-5.93-4.29-9.12-2.45l-9.07,5.24c-.42.24-.56.78-.32,1.19l4.88,8.45c.24.42.77.56,1.19.32l13.33-7.7v-1.62h0Z"/><path class="cls-2" d="m353.23,90.6l2.83-1.62,1.39-.79c5.52-3.19,12.58-1.3,15.77,4.22,1.02,1.76,1.51,3.67,1.55,5.57v15.54c0,.49-.39.89-.88.89h-9.74c-.48,0-.88-.39-.87-.87v-17.06c.02-1.17-.27-2.35-.9-3.43-1.85-3.2-5.94-4.29-9.14-2.44h0Z"/><path class="cls-1" d="m364.66,72.31c1,.6,2.17.94,3.42.94,3.69,0,6.68-2.99,6.68-6.68v-10.47c0-.48-.39-.87-.87-.87h-9.76c-.48,0-.87.39-.87.87v15.4l1.41.81h0Z"/><g><path class="cls-2" d="m374.76,66.56v3.26s-.02,1.59-.02,1.59c0,6.37-5.17,11.55-11.54,11.55-2.03,0-3.94-.53-5.59-1.44l-13.46-7.77c-.42-.25-.57-.79-.33-1.21l4.87-8.44c.24-.42.78-.56,1.19-.32l14.78,8.53c1,.6,2.17.94,3.42.94,3.69,0,6.68-2.99,6.68-6.69h0Z"/><path class="cls-2" d="m384.79,85.61c-1.02.57-1.9,1.41-2.52,2.49-1.84,3.19-.75,7.28,2.44,9.13l9.07,5.24c.42.24.95.1,1.19-.32l4.88-8.45c.24-.42.1-.95-.32-1.19l-13.33-7.7-1.41.81h0Z"/><path class="cls-2" d="m384.71,97.24l-2.82-1.64-1.37-.81c-5.52-3.19-7.42-10.25-4.23-15.77,1.02-1.76,2.42-3.15,4.05-4.12l13.47-7.78c.42-.24.96-.1,1.2.32l4.88,8.45c.24.42.1.95-.32,1.19l-14.78,8.53c-1.02.57-1.9,1.41-2.52,2.49-1.85,3.2-.75,7.29,2.45,9.13h0Z"/></g><polygon class="cls-2" points="54.65 101.97 54.65 67.78 89.13 67.78 85.96 73.29 61.99 73.29 61.99 81.5 84.74 81.5 84.74 86.7 61.99 86.69 61.99 96.25 89.06 96.25 89.06 101.97 54.65 101.97 54.65 101.97"/><polygon class="cls-2" points="277.78 101.97 277.78 67.78 312.15 67.78 308.99 73.29 285.13 73.29 285.13 81.5 307.87 81.5 307.87 86.7 285.13 86.69 285.13 96.25 312.19 96.25 312.19 101.97 277.78 101.97 277.78 101.97"/><polygon class="cls-2" points="115.21 101.97 115.21 73.31 99.17 73.31 99.17 67.78 138.72 67.78 135.56 73.32 122.56 73.31 122.56 101.97 115.21 101.97 115.21 101.97"/><path class="cls-2" d="m149.53,101.97v-34.19h7.35v34.18s0,.01-.01.01h-7.34Z"/><path class="cls-2" d="m9.96,101.97c-5.5,0-9.96-4.46-9.96-9.96v-14.26c0-5.5,4.46-9.96,9.96-9.96h28.83l-2.97,5.53H11.91c-2.57,0-4.66,2.09-4.66,4.66v13.53c0,2.63,2.13,4.76,4.76,4.76h18.51c2.6,0,4.7-2.1,4.7-4.7v-3.73h-13.3s0-5.53,0-5.53h20.38v9.7c0,5.5-4.46,9.96-9.96,9.96H9.96Z"/><path class="cls-2" d="m233.09,101.97c-5.5,0-9.96-4.46-9.96-9.96v-14.26c0-5.5,4.46-9.96,9.96-9.96h28.83l-2.97,5.53h-23.9c-2.59,0-4.68,2.1-4.68,4.68v13.59c0,2.59,2.1,4.68,4.68,4.68h18.61c2.59,0,4.68-2.1,4.68-4.68v-3.75h-13.3s0-5.53,0-5.53h20.38v9.7c0,5.5-4.46,9.96-9.96,9.96h-22.38Z"/><path class="cls-2" d="m203.76,101.97v-24.09c0-2.52-2.04-4.56-4.56-4.56h-21.22v28.65h-7.35v-34.19h30.44c5.5,0,9.96,4.46,9.96,9.96v24.23h-7.27Z"/><path class="cls-2" d="m64.16,135.41c0-2.37-.85-3.32-3.85-3.32h-3.76v6.38h3.76c2.79,0,3.85-.69,3.85-3.06h0Zm-3.59,4.75h-4.01v4.42h-1.94v-14.17h5.97c3.87,0,5.58,1.8,5.58,4.88s-1.57,4.86-5.6,4.86h0Z"/><path class="cls-2" d="m80.48,135.69c-.55-1.47-1.06-3.29-1.06-3.29,0,0-.51,1.82-1.11,3.29l-1.36,3.46h4.84l-1.31-3.46h0Zm-5.69,8.89h-1.98l5.69-14.17h1.94l5.48,14.17h-2.05l-1.47-3.87h-6.06l-1.54,3.87h0Z"/><path class="cls-2" d="m99.37,144.68c-2.49,0-4.03-.16-5.14-.35v-1.66c1.04.14,2.72.32,5.09.32,3.13,0,4.1-.53,4.1-2.42s-.67-2.3-4.49-2.3c-3.46,0-5-1.13-5-3.96s1.68-3.99,5.83-3.99c2.23,0,3.85.14,4.77.25v1.66c-1.04-.12-2.4-.25-4.72-.25-3.09,0-3.94.53-3.94,2.3,0,1.91.83,2.26,4.29,2.26,3.76,0,5.23,1.15,5.23,3.99s-1.61,4.15-6.01,4.15h0Z"/><path class="cls-2" d="m120.18,144.68c-2.49,0-4.03-.16-5.14-.35v-1.66c1.04.14,2.72.32,5.09.32,3.13,0,4.1-.53,4.1-2.42s-.67-2.3-4.49-2.3c-3.46,0-5-1.13-5-3.96s1.68-3.99,5.83-3.99c2.23,0,3.85.14,4.77.25v1.66c-1.04-.12-2.4-.25-4.72-.25-3.09,0-3.94.53-3.94,2.3,0,1.91.83,2.26,4.29,2.26,3.76,0,5.23,1.15,5.23,3.99s-1.61,4.15-6.01,4.15h0Z"/><polygon class="cls-2" points="136.61 130.41 138.59 130.41 138.59 144.58 138.59 144.58 136.61 144.58 136.61 130.41 136.61 130.41"/><path class="cls-2" d="m160.23,137.6c0-4.52-1.8-5.69-4.82-5.69s-4.82,1.18-4.82,5.69,1.89,5.53,4.84,5.53,4.79-1.11,4.79-5.53h0Zm-11.64-.05c0-5.55,3.09-7.33,6.84-7.33s6.8,1.77,6.8,7.33-3.06,7.21-6.82,7.21-6.82-1.68-6.82-7.21h0Z"/><path class="cls-2" d="m171.55,130.41h2.21l5.97,9.56c.58.95,1.27,2.49,1.27,2.49,0,0-.12-1.64-.12-2.76v-9.29h1.82v14.17h-2.14l-5.94-9.52c-.71-1.15-1.36-2.63-1.36-2.63,0,0,.12,1.61.12,3v9.15h-1.82v-14.17h0Z"/><polygon class="cls-2" points="205.72 130.41 216.02 130.41 216.02 132.1 207.65 132.1 207.65 136.54 215.33 136.54 215.33 138.11 207.65 138.11 207.65 144.58 205.72 144.58 205.72 130.41 205.72 130.41"/><path class="cls-2" d="m236.07,137.6c0-4.52-1.8-5.69-4.82-5.69s-4.82,1.18-4.82,5.69,1.89,5.53,4.84,5.53,4.79-1.11,4.79-5.53h0Zm-11.64-.05c0-5.55,3.09-7.33,6.84-7.33s6.8,1.77,6.8,7.33-3.06,7.21-6.82,7.21-6.82-1.68-6.82-7.21h0Z"/><path class="cls-2" d="m256.27,134.84c0-2.07-.85-2.74-3.39-2.74h-4.03v5.46h4.03c2.33,0,3.39-.41,3.39-2.72h0Zm-.07,5.88l2.44,3.87h-2.19l-2.3-3.66c-.83-1.31-1.18-1.68-2.4-1.68h-2.9v5.35h-1.94v-14.17h6.24c3.5,0,5.11,1.54,5.11,4.31,0,2.53-1.24,3.87-3.48,4.35.51.3.85.74,1.41,1.64h0Z"/><polygon class="cls-2" points="280.56 130.41 282.5 130.41 282.5 142.9 290.22 142.9 290.22 144.58 280.56 144.58 280.56 130.41 280.56 130.41"/><polygon class="cls-2" points="300.45 130.41 302.43 130.41 302.43 144.58 302.43 144.58 300.45 144.58 300.45 130.41 300.45 130.41"/><polygon class="cls-2" points="313.86 130.41 324.16 130.41 324.16 132.1 315.8 132.1 315.8 136.54 323.47 136.54 323.47 138.11 315.8 138.11 315.8 144.58 313.86 144.58 313.86 130.41 313.86 130.41"/><polygon class="cls-2" points="333.15 130.41 343.45 130.41 343.45 132.1 335.08 132.1 335.08 136.52 342.76 136.52 342.76 138.09 335.08 138.09 335.08 142.9 343.61 142.9 343.61 144.58 333.15 144.58 333.15 130.41 333.15 130.41"/></svg>