<?xml version="1.0" encoding="UTF-8"?><svg id="Laag_1" xmlns="http://www.w3.org/2000/svg" xmlns:xlink="http://www.w3.org/1999/xlink" viewBox="0 0 400 200"><defs><style>.cls-1{fill:#010101;}</style></defs><g id="Layer_2"><g><path class="cls-1" d="m123.63,69.84c-4,0-7.01,2.67-8.05,6.54l-12.66,47.23c-1.04,3.87.55,6.54,4.54,6.54s7.01-2.67,8.05-6.54l12.66-47.23c1.05-3.87-.54-6.54-4.54-6.54Z"/><polygon class="cls-1" points="289.28 113.8 294.1 80.86 280.56 113.8 289.28 113.8"/><path class="cls-1" d="m55.78,32.22c-18.96,0-35.15,13.69-38.32,32.38L0,167.78h344.22c18.96,0,35.16-13.69,38.32-32.38l17.47-103.19H55.78Zm16.45,108.11l1.41-5.45c-3.41,4.6-8.75,6.9-14.2,6.9-10.65,0-15.27-7.63-12.35-18.52l12.73-46.5c2.69-10.05,12.47-18.52,24.34-18.52s16.32,8.24,13.57,18.52l-2.89,10.78h-12.11l3.09-11.5c.91-3.39-.4-6.17-4.77-6.17s-7.2,2.9-8.11,6.3l-13.12,47.95c-.94,3.52.58,6.42,4.82,6.42s7.32-2.9,8.26-6.42l3.86-14.41h-6.3l2.6-9.69h18.78l-10.8,40.33h-8.8Zm32.81,1.45c-11.62,0-17.14-7.87-14.12-19.14l12.13-45.29c2.98-11.14,12.76-19.14,24.38-19.14s17.12,7.99,14.12,19.14l-12.14,45.29c-3.02,11.26-12.75,19.14-24.38,19.14Zm64.55-12.96c-.03.09-.03.16-.05.25l-3.05,11.62h-5.52c-4.97,0-5.61-4.85-3.92-11.14l4.64-17.32c.87-3.27-.1-5.94-3.61-5.94h-6.3l-9.12,34.03h-12.84l21.61-80.66h21.1c8.96,0,14.54,4.97,11.61,15.87l-3.83,14.29c-1.46,5.45-5.47,9.45-11.19,11.38,4.72,1.82,6.22,6.17,4.88,11.14l-.77,2.89h-.05l-2.82,10.73-.77,2.85Zm2.85,11.51l21.61-80.66h12.84l-21.61,80.66h-12.84Zm50.25,0h-31.36l21.61-80.66h12.84l-18.5,69.03h18.52l-3.11,11.62Zm62.37,0l2.16-15.74h-11.75l-6.64,15.74h-42.75l21.61-80.66h12.84l-18.5,69.02h20.1l30-69.02h14.17l-8.17,80.66h-13.08Zm67.88-63.57l-1.95,7.27h-11.62l1.95-7.27c1.2-4.48-.04-7.5-4.16-7.5-3.75,0-6.94,2.42-8.05,6.54-2.11,7.87.37,11.75,5.73,19.74,5.69,8.12,9.33,16.22,6.61,26.4-3.44,12.84-13.68,19.86-24.21,19.86-11.62,0-16.98-7.15-13.93-18.52l1.92-7.15h11.75l-1.85,6.9c-1.36,5.09.16,7.99,4.64,7.99s7.53-2.78,8.73-7.27c1.88-7.02-.24-12.23-5.1-19.37-4.87-6.66-10.09-16.11-7.34-26.4,2.92-10.9,11.59-19.74,24.06-19.74,10.78-.02,15.79,7.5,12.83,18.52Z"/><path class="cls-1" d="m168.48,70.69h-7.17l-6.85,25.55h6.17c3.15,0,5.84-1.82,6.88-5.69l3.93-14.65c.91-3.38.06-5.2-2.96-5.2Z"/></g></g><image width="1300" height="600" transform="translate(371.03 -16.46) scale(.39)" xlink:href="../../../../../../../../../../Downloads/1-twilio-logo-red.png"/></svg>