<?xml version="1.0" encoding="UTF-8"?><svg id="Laag_1" xmlns="http://www.w3.org/2000/svg" viewBox="0 0 400 200"><defs><style>.cls-1{fill:#1e1e1c;}</style></defs><path class="cls-1" d="m247.67,57.03c25.88,0,46.93,21.05,46.93,46.93s-21.05,46.93-46.93,46.93-46.93-21.05-46.93-46.93,21.05-46.93,46.93-46.93m0-46.93c-51.84,0-93.87,42.03-93.87,93.87s42.03,93.87,93.87,93.87,93.87-42.03,93.87-93.87S299.51,10.1,247.67,10.1h0Z"/><g><path class="cls-1" d="m102.68,74.14h0l-44.22,99.33,49.8,22.17,22.05-49.53c12.25-27.5-.12-59.73-27.63-71.97Z"/><path class="cls-1" d="m75.05,2.16c-12.25,27.5.12,59.73,27.63,71.97l22.17-49.8L75.05,2.16Z"/></g></svg>