<?xml version="1.0" encoding="UTF-8"?><svg id="Laag_1" xmlns="http://www.w3.org/2000/svg" xmlns:xlink="http://www.w3.org/1999/xlink" viewBox="0 0 400 200"><defs><style>.cls-1{fill:none;}.cls-2{clip-path:url(#clippath);}.cls-3{fill:#f06127;}.cls-4{fill:#fff;}</style><clipPath id="clippath"><rect class="cls-1" x="133.55" y="69.93" width="130.6" height="68.75"/></clipPath></defs><rect class="cls-3" x="99.32" width="200" height="200"/><g class="cls-2"><path class="cls-4" d="m163.96,100.96c-.97,10.91-8.82,20.21-14.32,19.92-2.73-.15-4.89-1.19-6.43-3.08-2.35-2.88-3.18-7.6-2.35-13.28,1.67-11.37,8.39-19.9,15.67-19.9.03,0,.06,0,.09,0,1.45.01,2.78.69,3.97,2,2.65,2.93,3.91,8.29,3.37,14.34h0Zm-7.27-23.34c-.05,0-.11,0-.16,0-10.9,0-20.39,10.85-22.6,25.88-1.12,7.65.25,14.31,3.85,18.73,2.8,3.42,6.76,5.37,11.46,5.64.22.01.44.02.66.02,9.86,0,19.78-12.29,21.02-26.3.72-8.08-1.16-15.25-5.16-19.66-2.52-2.78-5.66-4.26-9.09-4.3h0Z"/><path class="cls-4" d="m217.11,92.34c.76-.73,1.61-1.49,2.54-2.2.93-.71,1.95-1.37,3-1.83,1.05-.47,2.12-.69,2.98-.55.43.07.82.21,1.21.45l.04.02h0s.06.04.06.04c.06.05.19.13.16.12-.01,0,.05.06.09.1.08.1.15.2.21.33.25.5.24,1.5-.11,2.48-.34.99-.95,1.95-1.67,2.74-1.47,1.61-3.37,2.49-5.05,2.78-1.69.31-3.19.11-4.22-.11-.52-.11-.92-.23-1.2-.32-.28-.09-.42-.14-.42-.14l-.08-.03s-.09-.03-.14-.04c-.27-.07-.55-.09-.82-.09.79-.97,1.93-2.31,3.42-3.76h0Zm-35.29,20.46c-.68,0-1.12-.17-1.5-.65-1.12-1.41-1.66-5.21-.32-10.5,1.2-4.72,3.28-8.24,5.58-9.39.54-.27,1.07-.4,1.61-.4.5,0,1,.11,1.54.33.98.4,2.29,2.7,2.22,6.06-.05.14-.1.29-.13.45-1.74,8.63-6.04,14.04-9.01,14.11h0Zm80.77-25.75c-1.38-.68-3.05-.11-3.73,1.27,0,0-.3.61-.82,1.67-.26.52-.57,1.21-.93,1.99-.37.79-.75,1.67-1.15,2.62-.81,1.89-1.7,4.11-2.59,6.51-.55,1.07-1.43,2.53-2.65,4.07-.63.78-1.36,1.57-2.19,2.27-.83.7-1.76,1.33-2.7,1.72-.93.41-1.82.49-2.47.34h-.05s-.13-.05-.13-.05l-.26-.07-.23-.1c-.18-.08-.35-.16-.45-.25-.23-.17-.31-.29-.42-.52-.23-.42-.35-1.52-.28-2.69.09-1.19.3-2.48.56-3.74.53-2.54,1.32-4.95,1.96-7.03.67-2.08,1.22-3.83,1.59-5.07.37-1.24.56-1.96.56-1.96v-.02c.32-1.17-.2-2.45-1.32-3.05-1.31-.7-2.93-.21-3.63,1.1,0,0-.36.67-.94,1.87-.27.61-.6,1.35-.98,2.2-.38.85-.74,1.84-1.15,2.92-.41,1.08-.8,2.28-1.19,3.56-.39,1.29-.77,2.66-1.1,4.14-.28,1.23-.5,2.54-.6,3.95-.03.05-.06.08-.09.14-.11.15-.24.31-.38.49-.16.17-.33.36-.51.56-.4.38-.85.82-1.43,1.23-.55.43-1.21.85-1.93,1.23-.71.4-1.5.73-2.31.98-.2.07-.4.13-.61.18-.2.04-.43.12-.57.13l-.24.04c-.07.02-.16.04-.31.04l-.41.03h-.16s-.01.01-.01.01h-.08c-.8.03-1.6-.08-2.37-.34-.78-.25-1.54-.64-2.26-1.14-.73-.5-1.39-1.11-2.03-1.74-1.21-1.22-2.2-2.59-2.99-3.85,1.41.13,3.19.12,5.2-.36,2.66-.62,5.65-2.21,7.82-4.86,1.08-1.32,1.99-2.88,2.5-4.7.26-.91.41-1.89.38-2.93-.03-1.04-.26-2.17-.84-3.24-.29-.53-.67-1.03-1.11-1.45-.22-.21-.44-.4-.75-.62-.18-.13-.21-.14-.3-.2l-.21-.12-.17-.09c-.91-.49-1.95-.79-2.98-.88-2.07-.17-3.88.45-5.32,1.19-1.46.75-2.66,1.65-3.71,2.55-1.05.9-1.96,1.81-2.75,2.67-.41.45-.8.89-1.16,1.31l2.85-17.43c.27-1.66-.84-3.25-2.5-3.55-1.69-.31-3.3.81-3.61,2.49v.02s-6.01,32.7-6.01,32.7c-.01.03-.03.05-.04.07,0,0-.19.41-.59,1.09-.39.68-.98,1.63-1.84,2.58-.84.94-2,1.9-3.19,2.29-.59.2-1.13.22-1.51.11-.38-.12-.63-.29-.94-.76-.04-.05-.14-.27-.2-.38-.08-.14-.11-.28-.17-.42-.09-.28-.14-.55-.18-.84-.05-.59.03-1.31.19-2.08.16-.77.38-1.57.64-2.34.24-.77.5-1.53.74-2.23,1.01-2.84,1.68-4.73,1.68-4.73.04-.12.08-.24.1-.36.39-1.68-.61-3.35-2.24-3.84-.91-3.18-2.77-5.67-5.32-6.72-2.74-1.12-5.55-1.03-8.13.27-3.94,1.98-7.03,6.7-8.69,13.27-1.7,6.7-1.17,12.42,1.44,15.71,1.52,1.91,3.63,2.92,6.12,2.92.07,0,.13,0,.2,0,3.4-.07,6.69-2.27,9.37-5.92.13.21.25.4.45.66.84,1.17,2.34,2.24,3.89,2.52,1.56.33,3.01.04,4.18-.41,1.18-.46,2.14-1.08,2.96-1.73.02-.02.04-.04.06-.05.44,1.11,1.42,1.97,2.68,2.17,1.91.31,3.71-.98,4.02-2.89v-.03s1.49-9.09,1.49-9.09c.21.41.43.83.68,1.27.93,1.58,2.14,3.39,3.81,5.14.83.88,1.81,1.71,2.92,2.46,1.11.74,2.38,1.38,3.75,1.8,1.37.42,2.84.61,4.25.53h.13s.19-.02.19-.02h.05s.2-.03.2-.03l.41-.05c.12,0,.3-.04.5-.08l.56-.11c.39-.07.67-.17,1-.26.32-.08.62-.19.91-.3,2.37-.89,4.25-2.19,5.69-3.54.01-.01.02-.03.04-.04.11.24.24.48.38.73.63,1.08,1.63,2.06,2.7,2.62.53.3,1.06.5,1.57.67.26.08.56.15.84.22l.66.12c2.27.38,4.34-.24,5.91-1.05.41-.21.8-.44,1.17-.67-1.03,3.71-1.85,7.29-2.31,10.31-.19,1.05-.26,2.08-.37,2.96-.08.9-.09,1.74-.13,2.41,0,.7.05,1.29.07,1.68.02.39.04.6.04.6,0,0,0,.03,0,.04.14,1.93,1.81,3.37,3.74,3.23,1.92-.14,3.37-1.81,3.23-3.74l-.03-.42s-.01-.13-.03-.37c-.01-.25-.06-.58-.08-1.07.02-.52,0-1.12.04-1.86.07-.75.09-1.58.24-2.54.44-3.78,1.55-8.96,2.99-14.06,1.41-5.11,3.14-10.15,4.58-13.85.36-.93.69-1.77,1-2.49.31-.73.56-1.36.81-1.9.49-1.08.77-1.7.77-1.7.61-1.36.04-2.99-1.31-3.65h0Z"/><path class="cls-4" d="m225.47,127.29s-.77-.04-2.13-.11c-.68-.04-1.5-.08-2.45-.1-.94-.02-2.01-.08-3.17-.08-1.16,0-2.42-.04-3.76,0-1.33.01-2.74.04-4.2.09-2.91.09-6.01.29-9.11.57-6.2.54-12.36,1.51-16.95,2.42-1.15.24-2.19.43-3.14.65-.93.21-1.75.4-2.42.55-1.3.31-2.04.49-2.04.49-.05.01-.11.03-.17.04-1.86.54-2.92,2.49-2.37,4.35.54,1.86,2.49,2.92,4.35,2.37,0,0,.73-.21,2.02-.59.65-.2,1.39-.38,2.26-.63.86-.25,1.87-.49,2.95-.77,4.35-1.08,10.23-2.31,16.18-3.12,2.97-.42,5.96-.75,8.77-.98,1.4-.12,2.76-.22,4.05-.29,1.29-.09,2.51-.12,3.64-.17,1.13-.05,2.16-.05,3.08-.08.92-.03,1.72-.02,2.37-.02,1.32,0,2.07,0,2.07,0h.06c1.22,0,2.24-.95,2.3-2.19.06-1.27-.91-2.35-2.18-2.42h0Z"/><path class="cls-4" d="m163.96,100.96c-.97,10.91-8.82,20.21-14.32,19.92-2.73-.15-4.89-1.19-6.43-3.08-2.35-2.88-3.18-7.6-2.35-13.28,1.67-11.37,8.39-19.9,15.67-19.9.03,0,.06,0,.09,0,1.45.01,2.78.69,3.97,2,2.65,2.93,3.91,8.29,3.37,14.34h0Zm-7.27-23.34c-.05,0-.11,0-.16,0-10.9,0-20.39,10.85-22.6,25.88-1.12,7.65.25,14.31,3.85,18.73,2.8,3.42,6.76,5.37,11.46,5.64.22.01.44.02.66.02,9.86,0,19.78-12.29,21.02-26.3.72-8.08-1.16-15.25-5.16-19.66-2.52-2.78-5.66-4.26-9.09-4.3h0Z"/><path class="cls-4" d="m217.11,92.34c.76-.73,1.61-1.49,2.54-2.2.93-.71,1.95-1.37,3-1.83,1.05-.47,2.12-.69,2.98-.55.43.07.82.21,1.21.45l.04.02h0s.06.04.06.04c.06.05.19.13.16.12-.01,0,.05.06.09.1.08.1.15.2.21.33.25.5.24,1.5-.11,2.48-.34.99-.95,1.95-1.67,2.74-1.47,1.61-3.37,2.49-5.05,2.78-1.69.31-3.19.11-4.22-.11-.52-.11-.92-.23-1.2-.32-.28-.09-.42-.14-.42-.14l-.08-.03s-.09-.03-.14-.04c-.27-.07-.55-.09-.82-.09.79-.97,1.93-2.31,3.42-3.76h0Zm-35.29,20.46c-.68,0-1.12-.17-1.5-.65-1.12-1.41-1.66-5.21-.32-10.5,1.2-4.72,3.28-8.24,5.58-9.39.54-.27,1.07-.4,1.61-.4.5,0,1,.11,1.54.33.98.4,2.29,2.7,2.22,6.06-.05.14-.1.29-.13.45-1.74,8.63-6.04,14.04-9.01,14.11h0Zm80.77-25.75c-1.38-.68-3.05-.11-3.73,1.27,0,0-.3.61-.82,1.67-.26.52-.57,1.21-.93,1.99-.37.79-.75,1.67-1.15,2.62-.81,1.89-1.7,4.11-2.59,6.51-.55,1.07-1.43,2.53-2.65,4.07-.63.78-1.36,1.57-2.19,2.27-.83.7-1.76,1.33-2.7,1.72-.93.41-1.82.49-2.47.34h-.05s-.13-.05-.13-.05l-.26-.07-.23-.1c-.18-.08-.35-.16-.45-.25-.23-.17-.31-.29-.42-.52-.23-.42-.35-1.52-.28-2.69.09-1.19.3-2.48.56-3.74.53-2.54,1.32-4.95,1.96-7.03.67-2.08,1.22-3.83,1.59-5.07.37-1.24.56-1.96.56-1.96v-.02c.32-1.17-.2-2.45-1.32-3.05-1.31-.7-2.93-.21-3.63,1.1,0,0-.36.67-.94,1.87-.27.61-.6,1.35-.98,2.2-.38.85-.74,1.84-1.15,2.92-.41,1.08-.8,2.28-1.19,3.56-.39,1.29-.77,2.66-1.1,4.14-.28,1.23-.5,2.54-.6,3.95-.03.05-.06.08-.09.14-.11.15-.24.31-.38.49-.16.17-.33.36-.51.56-.4.38-.85.82-1.43,1.23-.55.43-1.21.85-1.93,1.23-.71.4-1.5.73-2.31.98-.2.07-.4.13-.61.18-.2.04-.43.12-.57.13l-.24.04c-.07.02-.16.04-.31.04l-.41.03h-.16s-.01.01-.01.01h-.08c-.8.03-1.6-.08-2.37-.34-.78-.25-1.54-.64-2.26-1.14-.73-.5-1.39-1.11-2.03-1.74-1.21-1.22-2.2-2.59-2.99-3.85,1.41.13,3.19.12,5.2-.36,2.66-.62,5.65-2.21,7.82-4.86,1.08-1.32,1.99-2.88,2.5-4.7.26-.91.41-1.89.38-2.93-.03-1.04-.26-2.17-.84-3.24-.29-.53-.67-1.03-1.11-1.45-.22-.21-.44-.4-.75-.62-.18-.13-.21-.14-.3-.2l-.21-.12-.17-.09c-.91-.49-1.95-.79-2.98-.88-2.07-.17-3.88.45-5.32,1.19-1.46.75-2.66,1.65-3.71,2.55-1.05.9-1.96,1.81-2.75,2.67-.41.45-.8.89-1.16,1.31l2.85-17.43c.27-1.66-.84-3.25-2.5-3.55-1.69-.31-3.3.81-3.61,2.49v.02s-6.01,32.7-6.01,32.7c-.01.03-.03.05-.04.07,0,0-.19.41-.59,1.09-.39.68-.98,1.63-1.84,2.58-.84.94-2,1.9-3.19,2.29-.59.2-1.13.22-1.51.11-.38-.12-.63-.29-.94-.76-.04-.05-.14-.27-.2-.38-.08-.14-.11-.28-.17-.42-.09-.28-.14-.55-.18-.84-.05-.59.03-1.31.19-2.08.16-.77.38-1.57.64-2.34.24-.77.5-1.53.74-2.23,1.01-2.84,1.68-4.73,1.68-4.73.04-.12.08-.24.1-.36.39-1.68-.61-3.35-2.24-3.84-.91-3.18-2.77-5.67-5.32-6.72-2.74-1.12-5.55-1.03-8.13.27-3.94,1.98-7.03,6.7-8.69,13.27-1.7,6.7-1.17,12.42,1.44,15.71,1.52,1.91,3.63,2.92,6.12,2.92.07,0,.13,0,.2,0,3.4-.07,6.69-2.27,9.37-5.92.13.21.25.4.45.66.84,1.17,2.34,2.24,3.89,2.52,1.56.33,3.01.04,4.18-.41,1.18-.46,2.14-1.08,2.96-1.73.02-.02.04-.04.06-.05.44,1.11,1.42,1.97,2.68,2.17,1.91.31,3.71-.98,4.02-2.89v-.03s1.49-9.09,1.49-9.09c.21.41.43.83.68,1.27.93,1.58,2.14,3.39,3.81,5.14.83.88,1.81,1.71,2.92,2.46,1.11.74,2.38,1.38,3.75,1.8,1.37.42,2.84.61,4.25.53h.13s.19-.02.19-.02h.05s.2-.03.2-.03l.41-.05c.12,0,.3-.04.5-.08l.56-.11c.39-.07.67-.17,1-.26.32-.08.62-.19.91-.3,2.37-.89,4.25-2.19,5.69-3.54.01-.01.02-.03.04-.04.11.24.24.48.38.73.63,1.08,1.63,2.06,2.7,2.62.53.3,1.06.5,1.57.67.26.08.56.15.84.22l.66.12c2.27.38,4.34-.24,5.91-1.05.41-.21.8-.44,1.17-.67-1.03,3.71-1.85,7.29-2.31,10.31-.19,1.05-.26,2.08-.37,2.96-.08.9-.09,1.74-.13,2.41,0,.7.05,1.29.07,1.68.02.39.04.6.04.6,0,0,0,.03,0,.04.14,1.93,1.81,3.37,3.74,3.23,1.92-.14,3.37-1.81,3.23-3.74l-.03-.42s-.01-.13-.03-.37c-.01-.25-.06-.58-.08-1.07.02-.52,0-1.12.04-1.86.07-.75.09-1.58.24-2.54.44-3.78,1.55-8.96,2.99-14.06,1.41-5.11,3.14-10.15,4.58-13.85.36-.93.69-1.77,1-2.49.31-.73.56-1.36.81-1.9.49-1.08.77-1.7.77-1.7.61-1.36.04-2.99-1.31-3.65h0Z"/><path class="cls-4" d="m225.47,127.29s-.77-.04-2.13-.11c-.68-.04-1.5-.08-2.45-.1-.94-.02-2.01-.08-3.17-.08-1.16,0-2.42-.04-3.76,0-1.33.01-2.74.04-4.2.09-2.91.09-6.01.29-9.11.57-6.2.54-12.36,1.51-16.95,2.42-1.15.24-2.19.43-3.14.65-.93.21-1.75.4-2.42.55-1.3.31-2.04.49-2.04.49-.05.01-.11.03-.17.04-1.86.54-2.92,2.49-2.37,4.35.54,1.86,2.49,2.92,4.35,2.37,0,0,.73-.21,2.02-.59.65-.2,1.39-.38,2.26-.63.86-.25,1.87-.49,2.95-.77,4.35-1.08,10.23-2.31,16.18-3.12,2.97-.42,5.96-.75,8.77-.98,1.4-.12,2.76-.22,4.05-.29,1.29-.09,2.51-.12,3.64-.17,1.13-.05,2.16-.05,3.08-.08.92-.03,1.72-.02,2.37-.02,1.32,0,2.07,0,2.07,0h.06c1.22,0,2.24-.95,2.3-2.19.06-1.27-.91-2.35-2.18-2.42h0Z"/></g></svg>