<?xml version="1.0" encoding="UTF-8"?><svg id="Laag_1" xmlns="http://www.w3.org/2000/svg" viewBox="0 0 400 200"><defs><style>.cls-1{fill:#231f20;}.cls-1,.cls-2,.cls-3{fill-rule:evenodd;}.cls-2{fill:#817568;}.cls-3{fill:#fff;}</style></defs><g id="Page-1"><g id="Nav-Black"><g id="logo_rituals"><polygon id="Fill-1" class="cls-2" points="96.09 198.29 303.91 198.29 303.91 1.71 96.09 1.71 96.09 198.29"/><polygon id="Fill-2" class="cls-1" points="104.52 189.87 295.48 189.87 295.48 10.13 104.52 10.13 104.52 189.87"/><g id="Group-135"><path id="Fill-3" class="cls-2" d="m200.96,96.7c-.73,0-1.61-.69-3.42-2.35l-.42-.38c-16.75-15.35-28.85-26.43-42.96-40.53-6.32-6.32-12.51-11.91-19.07-17.83-3.09-2.79-6.29-5.68-9.6-8.74-.22-.2-.54-.49-.93-.85-2.81-2.58-8.66-7.94-9.19-8.77-.08-.13-.16-.23-.23-.33-.18-.25-.32-.44-.23-.61.1-.2.43-.27,1.48-.33,3.87-.22,8.17-.33,13.12-.33,11.9,0,24.98.63,36.52,1.19,2.74.13,5.39.26,7.91.37.5.02.59.07.71.35.02.05.07.15.02.26-.06.13-.23.21-.62.31-.95.24-2.08,1.05-2.82,1.73-.47.43-1,.91-1.53,1.22-.17.09-.43.12-.71.07-4.67-.82-10.17-1.22-16.81-1.22-5.52,0-11.11.27-16.04.5-1.41.07-3.13.1-4.79.14-1.28.03-2.48.05-3.54.09h-.22c-.26.01-.62.02-.65.1,0,.02-.02.13.37.55,17.98,19.4,37.68,36.99,58.53,55.61,4.54,4.06,9.24,8.25,13.85,12.41.42.37.62.71.76.93.09.14.15.25.21.25.13,0,.49-.33.88-.68,6.18-5.62,35.67-32.31,35.85-32.46.07-.06.16-.08.26-.08.65,0,1.88,1.13,2.5,1.79.38.4.53.69.52.92-.02.22-.18.35-.35.47-.03.03-.07.05-.1.08-6.29,5.21-11.63,10.42-17.29,15.94-.81.79-1.62,1.58-2.45,2.39l-1.1,1.07c-5.35,5.2-11.41,11.09-17.17,16.14-.43.37-.8.62-1.24.62"/><path id="Fill-5" class="cls-2" d="m176.84,41.86c-.14,0-.27-.06-.45-.21-1.18-1.02-1.75-1.97-1.68-2.82.13-1.57,2.06-2.84,4.39-4.22,1.89-1.12,4.25-2.52,5.18-4.12.1-.17.65-.18.66-.18.28,0,.44.07.47.2.05.22.65.91,1.14,1.47.74.85.94,1.11.92,1.25v.05s-.07.05-.07.05c-.39.22-1.98,1.76-3.39,3.18-.22.22-.44.45-.65.67-1.91,1.96-3.55,3.65-6.07,4.54-.05.02-.09.04-.13.05-.12.04-.22.08-.33.08"/><path id="Fill-7" class="cls-2" d="m163.55,52.76c-.09,0-.17,0-.25-.02-.75-.13-1.69-.99-2.4-2.18-.21-.35,1.02-2.24,2.93-3.61.8-.57,2.38-1.76,2.59-2,.03-.03.07-.06.16-.06.57,0,2.75,1.8,3.15,3.91.03.16-.14.26-.51.46-.42.24-1.13.63-1.97,1.37-1.05.92-2.57,2.14-3.71,2.14"/><path id="Fill-9" class="cls-2" d="m189.87,63.25c-.11,0-.23-.09-.42-.3-3-3.41-6.51-6.27-9.91-9.03-5.24-4.27-10.57-9.02-13.01-16.05-.59-1.7-.26-4.91.08-5.56.03-.05.08-.13.15-.15.48-.14.99-.21,1.49-.21,1.77,0,3.23.91,3.23,1.2.07,7.61,4.42,11.9,9.94,17.34l.73.72c1.06,1.04,2.57,2.59,3.66,3.72.8-4.2.14-7.1-.5-9.91-.07-.3-.13-.59-.2-.88-.36-1.63-.72-3.31-.92-4.96-.02-.11.07-.16.25-.26.2-.12.53-.32.9-.68.38-.37.93-.75,1.26-.75.15,0,.22.07.24.12.44.75.94,2.38,1.12,3.43,0,.04.03.12.06.26,1.28,5.55,2.02,13.13,2.09,21.33,0,.33-.03.5-.11.58-.04.04-.09.06-.14.06"/><path id="Fill-11" class="cls-2" d="m159.68,46.62c-.15,0-.31-.1-.54-.35-4.25-4.62-8.37-8.71-12.98-12.87-1.04-.94-2.1-1.87-3.23-2.86-2.02-1.77-4.12-3.6-6.05-5.5-.22-.21-.35-.39-.29-.53.06-.14.24-.15.4-.15.09,0,.19,0,.3,0,1.14.05,2.31.07,3.61.07,2.8,0,5.66-.11,8.43-.22,2.85-.11,5.79-.23,8.66-.23,7.27,0,15.57.63,21.95,5.29.07.05.1.14.1.29,0,.22-.12,1.38-2.2,2.81-.4.28-.7.52-.91.71-.26.22-.4.33-.53.33-.04,0-.09-.01-.12-.04-4.22-3.33-10.02-4.89-18.23-4.89-3.57,0-7.1.29-10.21.54h-.09c-.7.06-1.18.1-1.3.15.03.05.11.13.18.2.16.17.39.4.6.73.32.49,2.36,2.25,4.94,4.48,3.46,2.99,7.77,6.7,10.73,9.74.21.22-.11.81-.53,1.2-.43.41-1.67.85-2.36,1-.04,0-.08.03-.12.04-.06.02-.12.05-.2.05"/><path id="Fill-13" class="cls-2" d="m197.95,80.18c-.31,0-.75-.25-1.34-.75-1.12-.95-2.24-1.91-3.35-2.87-1.57-1.35-3.19-2.74-4.75-4.06l-.83-.69c-6.6-5.53-13.42-11.24-20.14-17.39-.18-.16-.36-.33-.25-.58.18-.4.79-.75,1.56-1.19.13-.08.27-.16.42-.24.26-.15.48-.31.66-.43.25-.18.4-.28.53-.28.05,0,.1.02.14.05,6.23,6.22,11.31,10.76,15.09,13.5,2.05,1.48,3.92,3.26,5.74,4.99.82.78,1.58,1.51,2.36,2.2.44.4.8.75,1.1,1.02.35.33.67.65.8.7.04-.16-.09-.85-.27-1.78l-.08-.42c-.68-3.48-.83-7.73-.96-11.83-.03-.96-.06-1.92-.1-2.85-.5-12.05-1.01-24.52-11.82-31.84-.11-.07-.21-.16-.21-.27,0-.08.05-.16.14-.22.78-.54,2.47-1.47,4.72-1.38.48.02.78.09,1.18.47,10.67,10.05,10.32,25.39,9.98,40.23-.12,5.18-.24,10.54.14,15.35,0,.1,0,.28-.12.41-.08.08-.18.13-.31.13"/><path id="Fill-15" class="cls-2" d="m176.68,24.02s-.08,0-.14-.02c-.46-.09-1.56-.24-2.22-.29-1.3-.09-3.34-.55-3.49-.99-.03-.08,0-.16.07-.23,3.01-2.63,5.02-4.19,7.07-4.9,3.75-1.3,7.5-1.96,11.14-1.96,2.78,0,5.44.39,7.9,1.17.15.05.33.18.36.39.04.29-.22.62-.78.96-.81.51-1.29.9-1.64,1.18q-1.12.91-6.53,1.02h-.49c-3.86.09-7.85.17-10.81,3.35l-.06.07c-.15.17-.23.25-.39.25"/><path id="Fill-17" class="cls-2" d="m213.37,33.33c-.3,0-7.38-4.44-9.98-7.3-.11-.11-.13-.25-.07-.39.28-.61,2.54-1.12,2.7-1.12,2.96.52,5.3,2.28,7.77,4.16l.22.17c.22.17.54.37.85.57.82.53,1.04.7,1.05.85,0,.05-.02.09-.06.12-.06.05-.26.31-.44.57-.26.35-.59.79-.88,1.11-.14.15-.3.36-.46.57-.37.49-.53.69-.68.7h-.02Z"/><path id="Fill-19" class="cls-2" d="m233.47,37.95c-.07,0-.15-.02-.25-.05-3.06-1.15-3.11-1.28-2.8-2.7.15-.69.37-1.72.26-3.41-.16-2.38-1.2-5.93-3.6-8.06-.06-.06-.08-.14-.04-.24.09-.24.48-.49,1.13-.49.09,0,.37-.06.66-.12.46-.09.97-.2,1.26-.2.13,0,.2.02.25.07,3.64,3.41,5.09,9.49,3.5,14.79-.06.19-.12.41-.38.41"/><path id="Fill-21" class="cls-2" d="m231.91,47.01c-.49,0-.87-.13-1.04-.36-2.23-3.04-5.53-4.9-8.72-6.69-.28-.16-.43-.32-.48-.53-.07-.26.03-.58.31-1.04.57-.93,1.84-2.41,2.27-2.41.03,0,.05,0,.07.01,2.81,1.02,5.25,2.88,7.62,4.68.5.39,1.08.79,1.64,1.18,1.36.95,1.84,1.3,1.83,1.52-.07,1.3-.67,1.84-1.5,2.57-.22.2-.46.41-.72.66-.25.24-.75.4-1.28.4"/><path id="Fill-23" class="cls-2" d="m212.14,62.78h0c-.35,0-.36-.44-.38-1.9-.01-.76-.03-1.81-.1-3.21-.39-7.99-.87-17.94,4.86-24.27,2.8-3.09,4.31-3.82,6.07-4.66.67-.32,1.37-.66,2.19-1.15.13-.07.52-.12.82-.12.37,0,.6.06.71.17.78.81,1.04,1.71,1.23,3.09v.07c.08.47.09.57-.21.68-2.8.99-5.45,2.9-7.46,5.4-3.36,4.16-4.51,9.7-3.4,16.44.03.17.05.32.07.43,0,.04.01.08.01.1,0,0,.02-.01.02-.02.13-.13.35-.34.73-.53.6-.3,4.41-2.87,6.78-7.16.17-.31,1.19-1.03,1.62-1.03.06,0,.11.01.15.04.58.31,1.13.53,1.57.7.65.25,1.07.41,1.17.73.05.16,0,.35-.14.57-3.57,5.32-9.11,10.79-15.22,15-.14.1-.26.18-.37.26-.34.25-.55.39-.72.39"/><path id="Fill-25" class="cls-2" d="m244.1,57.61s-.07,0-.11-.01c-1.01-.24-2.76-1.98-4.04-3.25-.52-.52-.97-.97-1.18-1.11-.06-.04-.09-.1-.1-.18,0-.12-.03-.44,1.62-1.94.12-.1.23-.22.35-.33.58-.54,1.08-1.01,1.5-1.01.06,0,.11,0,.16.02,1.22.37,2.01,1.14,3.41,2.56.39.4.87.98,1.25,1.44.23.28.47.58.53.62.07.05.15.16.07.37-.27.79-2.63,2.81-3.47,2.81"/><path id="Fill-27" class="cls-2" d="m195.38,27.83c-.11,0-.39,0-1.43-1.47-.01-.02-1.36-1.99-.92-2.31.06-.05.25-.17.59-.39,1.06-.69,3.53-2.29,7.24-4.91,3.72-2.62,8.63-3.17,12.1-3.17,1.74,0,3.49.13,5.21.41.27.04.63.13.67.37.03.21-.19.42-.71.69-.65.32-1.22.64-1.77.94-.8.44-1.56.86-2.45,1.26-.05.02-.13.07-.23.13-.5.29-1.48.85-2.54.75-.23-.02-.47-.03-.71-.03-4.65,0-11.87,3.72-14.86,7.66-.04.06-.11.09-.18.09"/><path id="Fill-29" class="cls-2" d="m204.66,81.59c-.32,0-.51-.28-.58-.84-.27-2.22-.3-4.12-.09-6.35.27-2.88-.23-8.12-.58-11.95-.19-2.05-.36-3.82-.36-4.71-.03-8.71.36-17.72,3.45-24.63.12-.26.28-.63.71-.63.24,0,.55.11.97.36,2.66,1.59,2.47,1.99,2.41,2.12-3.48,7.46-3.23,15.93-2.99,24.11.14,4.65.21,9.49-.13,13.4l-.04.4c-.07.81-.13,1.45-.05,1.54.09,0,.47-.38.87-.78.23-.24.52-.52.85-.84,3.18-3.04,6.52-6.18,9.76-9.22l.08-.08c1.76-1.66,3.55-3.31,5.34-4.98,10.49-9.77,21.33-19.86,29.41-29.93.14-.18.26-.31.35-.42.05-.06.11-.12.14-.17-.06,0-.15,0-.24-.01-.13,0-.3-.01-.51-.02-.42-.03-.85-.04-1.31-.04-2.17,0-4.45.33-6.66.66-1.92.28-4.75.65-7.22.65-.55,0-1.06-.02-1.52-.06-.22-.01-.61-.04-.81-.61-.2-.84-.49-1.43-.78-2-.14-.27-.27-.56-.4-.87-.05-.13-.11-.26-.03-.37.07-.1.23-.15.54-.15,6.11-.05,26.19-.21,28.01-.27.91-.03,1.38-.04,1.47.22.06.19-.15.42-.82.88-3.86,2.69-7.77,6.24-11.61,10.57-3.21,3.6-5.3,5.59-7.73,7.9-1.25,1.19-2.68,2.54-4.4,4.26-11.25,11.19-22.88,22.77-34.65,32.45-.25.21-.55.42-.82.42"/><path id="Fill-31" class="cls-2" d="m249.2,52.04c-.17,0-.35-.18-.7-.53-.24-.24-.51-.52-.81-.74-.49-.37-.75-.74-.79-1.11-.02-.28.09-.56.33-.82,7.72-8.29,22.47-23.19,29.32-27.99-.62-1.12-7-1.18-10.85-1.21-1.28-.01-2.38-.02-3.16-.06l-1.3-.06c-4.57-.23-9.3-.46-13.92-.46-8.97,0-20.51.77-30.13,6.81-.18.11-.37.17-.58.17-.38,0-.73-.2-1.1-.4-.16-.09-.32-.18-.48-.25-.95-.43-2.05-1.22-2.1-1.62-.01-.08.02-.15.08-.2,8.6-6.95,19.63-7.91,30.28-7.91,2.72,0,5.52.07,8.22.13l.81.02c1.54.03,3.04.05,4.61.05,4.22,0,7.86-.13,11.37-.25,2.93-.1,5.7-.2,8.38-.2,3.51,0,6.48.17,9.35.54.22.03.43.08.51.24.1.21-.04.5-.37,1.03-1.61,2.62-33.85,32.1-36.85,34.77-.04.03-.09.05-.14.05"/><path id="Fill-33" class="cls-2" d="m112.84,180.03c-.42,0-.47-.51-.55-1.77-1.05-16.3.06-37.86.87-53.61.02-.48.07-.56.37-.68.04-.02.1-.03.16-.03.22,0,.33.23.44.6.26.89,1.12,1.95,1.84,2.64.51.49.99.96,1.3,1.44.1.16.13.4.08.67-1.92,9.6-1.31,20.88-.77,30.83.07,1.33.11,2.95.15,4.51.03,1.19.05,2.32.1,3.3.02.4.06.57.15.57.19,0,.63-.36.77-.48,22.62-18.43,43.21-38.55,65-59.85,2.63-2.57,5.26-5.14,7.9-7.71.1-.09.18-.17.26-.24.19-.17.31-.28.31-.38,0-.18-.35-.53-.92-1.09-5.63-5.44-34.01-33.38-34.25-33.65-.07-.08-.1-.18-.09-.3.05-.62,1.23-1.75,1.92-2.31.4-.33.7-.48.93-.48.25,0,.4.17.53.32.03.03.06.06.09.1,6.03,6.4,11.96,11.95,19.58,18.83,5.07,4.59,11.69,10.64,17.82,16.79.72.72,1.15,1.2,1.15,1.81,0,.7-.61,1.53-2.21,3.07-17.39,16.68-28.96,27.56-43.92,40.72-8.21,7.23-15.16,13.86-23.2,21.55-1.68,1.61-3.4,3.25-5.18,4.94-.5.47-1.52,1.5-2.71,2.69-2.91,2.91-6.52,6.54-7.23,6.94-.33.18-.52.28-.69.28"/><path id="Fill-35" class="cls-2" d="m136.39,123.93c-.05,0-.1,0-.15,0-1.67-.12-3.03-1.94-4.5-4.13-1.2-1.78-2.69-3.99-4.4-4.86-.17-.09-.21-.57-.18-.79.03-.21.13-.28.2-.29.24-.05.98-.61,1.57-1.07,1.07-.82,1.32-.97,1.43-.8.26.4,2.17,2.11,3.39,3.17.24.21.48.42.72.62,2.09,1.79,3.89,3.34,4.85,5.7.02.05.04.09.06.13.12.26.17.43-.14.74-1.03,1.05-1.99,1.58-2.85,1.58"/><path id="Fill-37" class="cls-2" d="m148.65,136.92c-.44,0-2.23-.95-3.73-2.78-.59-.72-1.88-2.23-2.14-2.43-.05-.03-.1-.11-.06-.25.14-.55,1.88-2.49,4.16-2.88h.03c.15,0,.24.15.45.48.25.39.68,1.06,1.46,1.84,1.08,1.07,2.48,2.63,2.27,3.73-.14.7-1.05,1.59-2.33,2.26-.03.01-.07.02-.11.02"/><path id="Fill-39" class="cls-2" d="m132.56,131.91c-1.17,0-3.33-.18-3.44-.53-.69-2.1.39-3.74.61-4.06.19-.26.34-.39.44-.39,8.14-.06,12.73-4.16,18.54-9.34l.76-.68c1.16-1.03,2.82-2.46,3.96-3.42-1.39-.23-2.71-.34-4.03-.34-2.49,0-4.56.41-6.57.81-.31.06-.63.13-.94.18-1.64.32-3.5.68-5.3.86h0c-.11,0-.16-.07-.27-.23-.13-.19-.33-.49-.72-.85-.43-.38-.84-.93-.8-1.24.01-.08.06-.15.13-.19.8-.42,2.54-.88,3.66-1.05.04,0,.12-.02.26-.05,5.91-1.2,14.01-1.9,22.8-1.97h.04c.35,0,.57.03.62.18.05.15-.09.29-.32.47-3.64,2.81-6.69,6.11-9.65,9.3-4.56,4.92-9.65,9.92-17.14,12.21-.83.25-1.9.31-2.65.31"/><path id="Fill-41" class="cls-2" d="m121.02,159.73c-.06,0-.11-.02-.15-.06-.1-.1-.09-.31-.07-.62.18-3.65,0-7.55-.16-11.31-.46-10.37-.93-21.1,5.41-28.74.05-.06.15-.09.29-.09.23,0,1.47.1,3,2.06.3.38.56.66.75.86.29.3.45.47.31.63-6.44,7.16-5.44,17.99-4.65,26.69v.09c.07.64.11,1.11.17,1.22.05-.02.14-.1.23-.18.18-.15.42-.37.78-.57.53-.3,2.41-2.22,4.79-4.64,3.19-3.24,7.16-7.29,10.4-10.06.2-.17.81.08,1.26.49.44.41.91,1.58,1.07,2.22.01.04.03.07.05.11.11.22.09.38-.32.72-4.92,3.98-9.29,7.85-13.76,12.18-1,.97-1.99,1.97-3.04,3.03-1.89,1.9-3.85,3.87-5.88,5.69-.22.2-.36.28-.48.28"/><path id="Fill-43" class="cls-2" d="m152.45,130.93c-.05,0-.1-.01-.16-.03-.42-.17-.8-.75-1.27-1.47-.08-.12-.16-.25-.25-.38-.16-.25-.32-.45-.45-.62-.25-.31-.4-.5-.24-.64,6.64-5.85,11.49-10.61,14.42-14.17,1.59-1.92,3.5-3.69,5.34-5.39.82-.76,1.6-1.48,2.34-2.2.43-.42.8-.76,1.09-1.03.34-.31.67-.61.74-.73-.02,0-.05,0-.1,0-.28,0-.89.1-1.8.26l-.44.08c-3.72.64-8.26.77-12.65.9-1.03.03-2.04.06-3.04.1-12.88.47-26.2.95-34.02,11.1-.07.09-.16.19-.29.19-.08,0-.16-.04-.23-.13-1.01-1.27-1.55-2.89-1.48-4.44.02-.45.1-.74.51-1.12,8.93-8.33,21.9-9.48,34.58-9.48,2.79,0,5.64.06,8.39.11,2.55.05,5.45.11,8.19.11,3.23,0,5.84-.08,8.22-.24.25-.02.46.07.53.25.13.3-.12.77-.77,1.43-1,1.04-2.02,2.08-3.03,3.11-1.45,1.48-2.95,3.02-4.37,4.5l-.69.72c-5.92,6.21-12.04,12.63-18.62,18.95-.15.15-.29.26-.45.26"/><path id="Fill-45" class="cls-2" d="m118.97,127.58s-.1-.01-.16-.07c-2.82-2.82-4.48-4.71-5.24-6.64-2.45-6.21-2.75-12.57-.85-17.88.06-.16.21-.34.47-.34.29,0,.61.25.96.73.55.76.96,1.21,1.26,1.53q.98,1.06,1.09,6.13v.48c.1,3.62.18,7.36,3.57,10.13l.07.06c.23.18.31.25.25.51-.1.43-.26,1.46-.31,2.08-.11,1.32-.63,3.29-1.12,3.29"/><path id="Fill-47" class="cls-2" d="m122.31,97.1h0c-.15,0-.29-.09-.43-.26-.49-.58-.94-2.2-.91-2.34.55-2.77,2.45-4.97,4.47-7.3l.15-.18c.18-.2.4-.5.61-.79.54-.73.74-.98.91-.98.04,0,.09.02.12.05.05.06.32.23.59.41.38.25.86.56,1.19.83.16.13.38.28.6.42.53.35.74.5.76.65.04.28-4.77,6.97-7.8,9.39-.08.06-.16.09-.25.09"/><path id="Fill-49" class="cls-2" d="m119.96,74.83c-.25,0-.61-.39-.62-1.09,0-.08-.06-.36-.13-.62-.22-.94-.28-1.3-.14-1.43,2.59-2.44,6.73-3.89,11.06-3.89,1.61,0,3.2.21,4.73.6.17.05.34.09.41.23.05.1.04.21-.03.37-1.24,2.9-1.39,2.91-2.87,2.63-.6-.12-1.43-.28-2.68-.28-.31,0-.64.01-.97.03-2.55.15-6.34,1.13-8.62,3.38-.03.03-.08.06-.14.06"/><path id="Fill-51" class="cls-2" d="m136.71,79.87c-.24,0-.54-.1-.92-.31-.87-.47-2.74-1.79-2.57-2.22,1.1-2.64,3.08-4.93,5.01-7.15.41-.47.83-1,1.25-1.51.97-1.2,1.39-1.7,1.6-1.74.23-.05.47-.07.68-.07,2.09,0,2.75,2.29,2.94,3.27.03.18.09.31.14.41.12.27.14.42-.23.66-3.25,2.09-5.23,5.19-7.14,8.18-.21.32-.44.47-.74.47"/><path id="Fill-53" class="cls-2" d="m149.29,89.45h0c-5.99,0-13.55-.54-18.84-4.75-3.3-2.63-4.08-4.05-4.98-5.7-.34-.63-.7-1.28-1.22-2.06-.12-.18-.25-1.2.05-1.45.86-.73,1.82-.97,3.29-1.16h.07c.19-.03.31-.05.4-.05.21,0,.27.1.33.25,1.05,2.63,3.1,5.11,5.76,7,3.37,2.39,7.57,3.6,12.49,3.6,2.27,0,4.1-.26,5.08-.4.18-.03.34-.05.46-.06.04,0,.07-.01.1-.01h0c-.14-.13-.36-.34-.57-.7-.32-.57-3.08-4.15-7.65-6.36-.3-.14-.95-.94-1.08-1.38-.04-.13-.03-.23.01-.3.34-.54.56-1.05.74-1.46.3-.68.49-1.12.92-1.12.13,0,.28.05.45.15,5.68,3.35,11.52,8.55,16.02,14.28.1.13.2.25.28.35.32.4.49.6.4.78-.11.23-.55.24-2.01.26-.81.01-1.93.03-3.43.09-2.4.1-4.74.2-7.07.2"/><path id="Fill-55" class="cls-2" d="m151.45,63.78c-.12,0-.47,0-2.05-1.52-.11-.11-.23-.22-.34-.32-.65-.61-1.21-1.14-1.06-1.58.4-1.14.78-1.5,2.34-2.85.4-.35,1.08-.85,1.62-1.26.39-.29.79-.6.84-.65.04-.04.1-.09.22-.09.56,0,1.87,1.24,2.56,2.13.45.59.65,1.01.59,1.26-.25.95-2.05,2.55-3.36,3.72-.54.47-1,.89-1.15,1.08-.03.04-.1.09-.2.09"/><path id="Fill-57" class="cls-2" d="m121.06,107.2c-.1,0-.18-.03-.22-.09-.06-.06-.23-.3-.56-.72-.9-1.18-2.78-3.63-5.48-7-4.45-5.54-3.39-13.84-2.96-16.25.03-.15.12-.64.43-.64.21,0,.42.21.68.67.35.6.68,1.14,1.01,1.66.47.75.92,1.46,1.35,2.3.03.05.07.12.13.21.29.45.9,1.39.8,2.39-.43,4.23,3.95,11.93,8.52,14.98.07.04.1.11.1.18,0,.1,0,.37-1.57,1.35-.52.32-1.74.95-2.23.95"/><path id="Fill-59" class="cls-2" d="m155.22,97.34c-8.32,0-17.81-.38-25.09-3.23-.29-.11-.56-.24-.64-.5-.08-.26.03-.59.37-1.08,1.13-1.66,1.88-2.41,2.24-2.27,6.28,2.58,13.15,2.92,19.03,2.92,2.25,0,4.53-.06,6.74-.12,2.1-.06,4.57-.11,7.01-.11,2.9,0,5.29.08,7.3.23l.43.04c.61.05,1.05.09,1.34.09.26,0,.31-.03.32-.04-.02-.08-.42-.43-.84-.8-.25-.22-.55-.49-.9-.8-3.38-3.1-7.01-6.51-9.93-9.24-1.76-1.65-3.54-3.33-5.32-5-10.43-9.85-21.22-20.03-31.98-27.61-.19-.13-.33-.24-.44-.33-.07-.06-.15-.11-.2-.15,0,.06,0,.14-.02.23,0,.13-.01.28-.03.48-.19,2.39.24,4.97.65,7.47.39,2.31.87,5.67.64,8.2-.02.21-.05.58-.65.77-.89.19-1.52.46-2.14.73-.3.13-.6.26-.93.38-.09.03-.17.06-.25.06-.29,0-.29-.37-.29-.54v-1.39c-.07-5.75-.23-23.26-.29-24.9-.03-.77-.02-1.17.13-1.32.05-.05.1-.07.17-.07.19,0,.42.21.87.77,2.87,3.63,6.67,7.29,11.29,10.9,3.85,3.01,5.98,4.98,8.45,7.26,1.27,1.17,2.71,2.51,4.53,4.12,11.94,10.54,24.29,21.44,34.67,32.52.29.31.54.63.43.92-.08.22-.37.36-.87.41-2.42.26-4.38.29-6.78.09-.59-.05-1.31-.07-2.13-.07-3.11,0-7.28.34-10.63.62-2.2.18-4.09.34-5.04.34h-1.22Z"/><path id="Fill-61" class="cls-2" d="m120.12,88.04c-.07,0-.13-.03-.17-.07-9.02-9.8-8.68-22.6-8.31-36.14l.02-.77c.14-5.34-.08-9.91-.28-13.95-.32-6.39-.58-11.92.77-17.7.06-.25.14-.5.42-.5.2,0,.47.13.91.37,2.81,1.52,34.13,31.95,36.81,34.59.04.04.06.09.06.14,0,.16-.19.33-.57.66-.26.23-.55.48-.78.76-.42.49-.84.74-1.26.74-.27,0-.53-.1-.78-.3-8.86-7.24-24.78-21.09-29.91-27.53-1.2.55-1.26,6.34-1.3,10.19-.01,1.19-.02,2.23-.06,2.95l-.07,1.21c-.82,14.51-1.67,29.51,6.78,41.34.4.56.08,1.08-.24,1.59-.09.14-.19.3-.27.45-.47.91-1.34,1.98-1.76,1.98"/><path id="Fill-63" class="cls-2" d="m265.06,182.82c-11.83,0-25.05-.47-37.23-1.33-.52-.03-.59-.07-.71-.34-.02-.05-.07-.16-.02-.27.06-.13.23-.21.62-.31.95-.25,2.08-1.05,2.82-1.73.5-.45,1.02-.92,1.53-1.22.17-.09.43-.12.71-.07,4.67.82,10.17,1.22,16.81,1.22,5.53,0,11.36-.28,16.04-.5,1.41-.07,3.12-.1,4.78-.14,1.28-.03,2.49-.05,3.55-.09.34-.01.38-.07.39-.09.05-.13-.41-.62-.74-.98-19.23-20.74-40.02-39.41-62.04-59.18-3.19-2.86-6.39-5.74-9.6-8.63-.33-.3-.53-.54-.66-.7-.09-.11-.18-.22-.22-.22-.07,0-.24.16-.48.39-.13.12-.29.28-.49.46-6.13,5.57-35.53,32.08-35.74,32.25-.07.05-.16.08-.26.08-.65,0-1.88-1.13-2.5-1.8-.38-.4-.53-.69-.52-.92.02-.22.18-.35.34-.47.03-.03.07-.06.11-.08,5.22-4.33,9.56-8.66,14.16-13.24,1.69-1.68,3.44-3.43,5.25-5.19,4.85-4.72,10.89-10,16.21-14.65.95-.83,1.89-1.65,2.8-2.45.36-.32.66-.46.99-.46.65,0,1.45.53,3.25,2.18l.31.28c16.79,15.39,28.92,26.5,43.07,40.63,6.33,6.32,12.52,11.92,19.08,17.84,3.09,2.79,6.29,5.68,9.59,8.73.25.23.63.58,1.1,1,2.82,2.58,8.08,7.39,8.59,8.2.08.13.16.24.23.33.18.25.31.44.23.61-.1.2-.43.27-1.48.33-5.95.34-12.63.51-19.88.51"/><path id="Fill-65" class="cls-2" d="m216.81,168.4c-.28,0-.44-.07-.47-.2-.05-.22-.65-.91-1.14-1.47-.76-.87-.95-1.11-.92-1.25v-.06s.07-.04.07-.04c.44-.25,2.34-2.12,3.38-3.18.22-.22.44-.45.66-.67,1.91-1.96,3.55-3.65,6.07-4.54.05-.02.1-.04.14-.05.26-.1.46-.13.77.13,1.18,1.03,1.75,1.98,1.68,2.82-.13,1.57-2.07,2.84-4.4,4.22-1.89,1.12-4.25,2.52-5.18,4.12-.1.18-.65.18-.66.18"/><path id="Fill-67" class="cls-2" d="m235.18,153.83c-.57,0-2.75-1.8-3.15-3.91-.03-.16.14-.25.51-.46.42-.24,1.13-.63,1.97-1.36,1.04-.92,2.57-2.14,3.71-2.14.09,0,.17,0,.25.02.74.12,1.71,1,2.4,2.18.21.35-1.02,2.24-2.93,3.61-.77.55-2.38,1.76-2.59,2-.02.03-.07.07-.16.07"/><path id="Fill-69" class="cls-2" d="m233.5,166.77c-1.78,0-3.23-.91-3.23-1.2-.07-7.61-4.42-11.9-9.94-17.34l-.73-.72c-1.1-1.08-2.62-2.64-3.66-3.72-.8,4.2-.14,7.1.49,9.91.07.3.13.59.2.88.39,1.78.73,3.38.92,4.96.01.1-.07.16-.25.26-.2.12-.52.31-.9.68-.38.37-.93.75-1.26.75-.15,0-.22-.08-.24-.13-.45-.75-.94-2.38-1.12-3.43,0-.04-.03-.12-.06-.25-1.28-5.54-2.02-13.12-2.09-21.34,0-.34.03-.5.11-.58.04-.04.09-.06.14-.06.11,0,.24.09.43.3,3,3.41,6.51,6.27,9.91,9.03,5.25,4.27,10.57,9.03,13.01,16.05.59,1.71.26,4.92-.08,5.56-.03.06-.07.13-.15.15-.48.14-.99.21-1.49.21"/><path id="Fill-71" class="cls-2" d="m243.75,174.72c-7.27,0-15.56-.63-21.94-5.29-.07-.05-.1-.14-.1-.29,0-.22.12-1.38,2.2-2.81.41-.28.7-.53.91-.7.26-.22.39-.33.52-.33.05,0,.09.01.13.04,4.22,3.34,10.02,4.89,18.23,4.89,3.56,0,7.09-.28,10.21-.53h.09c.7-.07,1.18-.11,1.3-.16-.03-.05-.11-.13-.18-.2-.17-.17-.39-.4-.61-.73-.32-.49-2.36-2.25-4.94-4.49-3.46-2.98-7.76-6.7-10.72-9.73-.21-.21.11-.8.53-1.2.43-.41,1.67-.85,2.37-1,.04-.01.08-.03.12-.04.06-.02.12-.06.2-.06.15,0,.31.11.54.36,4.25,4.61,8.37,8.7,12.97,12.87,1.04.94,2.1,1.87,3.23,2.86,2.02,1.77,4.12,3.59,6.06,5.5.22.21.35.39.29.53-.06.14-.24.15-.41.15-.08,0-.19,0-.3-.01-1.13-.05-2.3-.07-3.6-.07-2.78,0-5.65.11-8.43.22-2.85.11-5.8.22-8.68.22"/><path id="Fill-73" class="cls-2" d="m214.96,175.13c-.09,0-.18,0-.28,0-.48-.02-.78-.09-1.18-.47-10.67-10.05-10.32-25.39-9.99-40.23.12-5.18.24-10.53-.14-15.36,0-.1,0-.28.12-.41.26-.28.83-.08,1.65.62,1.13.96,2.26,1.94,3.39,2.91,1.55,1.34,3.16,2.72,4.72,4.02l.84.71c6.59,5.52,13.41,11.23,20.12,17.37.21.19.35.35.25.58-.18.4-.78.74-1.55,1.18-.14.07-.27.15-.42.24-.26.15-.48.31-.66.43-.25.18-.4.28-.53.28-.06,0-.1-.02-.14-.06-4.27-4.26-10.36-10.07-15.09-13.5-2.05-1.49-3.92-3.27-5.74-4.99-.81-.78-1.58-1.51-2.35-2.2-.44-.4-.8-.75-1.09-1.02-.35-.33-.68-.65-.8-.7-.04.17.09.85.28,1.78l.08.41c.68,3.48.83,7.73.96,11.84.03.96.07,1.91.1,2.85.5,12.05,1.01,24.51,11.82,31.84.11.07.2.16.21.28,0,.08-.05.15-.14.22-.75.52-2.32,1.39-4.45,1.39"/><path id="Fill-75" class="cls-2" d="m212.65,183.08c-2.78,0-5.44-.39-7.9-1.16-.15-.05-.33-.18-.36-.39-.04-.29.22-.61.78-.96.81-.51,1.28-.9,1.63-1.18q1.13-.91,6.53-1.02h.5c3.87-.09,7.86-.17,10.8-3.35l.06-.06c.16-.17.23-.25.39-.25.04,0,.08,0,.14.01.47.09,1.57.24,2.22.29,1.3.09,3.34.55,3.49.99.03.08,0,.16-.07.23-3.08,2.69-5.02,4.19-7.07,4.9-3.76,1.3-7.5,1.96-11.14,1.96"/><path id="Fill-77" class="cls-2" d="m195.74,174.2h-.03c-2.94-.52-5.29-2.3-7.77-4.18l-.19-.15c-.22-.17-.54-.38-.85-.58-.82-.53-1.04-.69-1.04-.84,0-.05.02-.09.06-.12.06-.04.25-.31.44-.56.26-.35.59-.8.88-1.11.14-.15.3-.37.46-.57.37-.49.53-.69.68-.71.32,0,7.39,4.44,9.99,7.3.11.12.13.26.07.39-.27.61-2.54,1.12-2.7,1.12"/><path id="Fill-79" class="cls-2" d="m171.67,176.03c-.12,0-.2-.02-.25-.07-3.65-3.41-5.09-9.49-3.51-14.79.07-.25.18-.53.63-.36,3.06,1.15,3.1,1.28,2.8,2.7-.15.68-.37,1.72-.26,3.42.16,2.38,1.2,5.93,3.6,8.06.06.05.08.14.04.23-.09.24-.48.49-1.13.49-.09,0-.37.06-.67.12-.45.1-.97.21-1.25.21"/><path id="Fill-81" class="cls-2" d="m177.51,162.73s-.05,0-.07-.01c-2.81-1.02-5.25-2.88-7.61-4.68-.5-.38-1.07-.78-1.62-1.16-1.38-.96-1.85-1.31-1.84-1.54.1-1.83.96-3.25,2.43-4,.12-.06.27-.09.44-.09.62,0,1.38.43,1.67.83,2.23,3.04,5.52,4.89,8.72,6.69.28.15.43.32.48.53.07.26-.03.58-.31,1.04-.57.93-1.85,2.41-2.27,2.41"/><path id="Fill-83" class="cls-2" d="m176.17,171.25c-.36,0-.6-.06-.71-.17-.78-.81-1.04-1.71-1.23-3.09v-.06c-.08-.48-.09-.58.21-.69,2.8-.99,5.45-2.9,7.46-5.39,3.36-4.17,4.51-9.7,3.4-16.44-.03-.17-.05-.32-.07-.43,0-.04,0-.07-.02-.1,0,0-.02.01-.02.02-.13.13-.35.34-.73.53-.6.3-4.42,2.88-6.78,7.16-.17.31-1.19,1.03-1.62,1.03-.06,0-.11-.01-.15-.03-.57-.32-1.12-.52-1.56-.69-.65-.25-1.07-.41-1.18-.73-.05-.16,0-.35.14-.57,3.57-5.32,9.11-10.79,15.22-15,.14-.09.26-.18.37-.26.34-.25.55-.4.72-.4.35,0,.36.44.38,1.91.01.76.03,1.81.1,3.21.39,7.99.88,17.94-4.85,24.27-2.8,3.09-4.31,3.82-6.07,4.66-.67.32-1.37.66-2.19,1.15-.13.08-.52.12-.82.12"/><path id="Fill-85" class="cls-2" d="m159.48,148.93s0,0,0,0c-.05,0-.1,0-.16-.02-1.11-.34-1.73-.97-2.97-2.24l-.32-.32c-.39-.4-.86-.97-1.24-1.44-.23-.29-.48-.58-.53-.63-.07-.06-.15-.16-.07-.37.27-.79,2.63-2.81,3.46-2.81.04,0,.07,0,.11.01,1,.23,2.68,1.96,3.91,3.22.53.54.98,1,1.19,1.15.06.04.09.1.1.18,0,.12.03.44-1.62,1.94-.12.11-.24.22-.35.32-.58.54-1.08,1.01-1.51,1.01"/><path id="Fill-87" class="cls-2" d="m188.82,183.13c-1.74,0-3.49-.14-5.21-.41-.27-.04-.64-.13-.67-.37-.03-.21.19-.43.71-.69.64-.32,1.22-.64,1.77-.94.8-.44,1.56-.86,2.45-1.26.05-.02.13-.07.23-.13.5-.29,1.48-.85,2.53-.75.22.02.44.03.68.03,4.68,0,12.25-3.91,15.28-7.9.04-.06.11-.09.18-.09.1,0,.39,0,1.43,1.47.01.02,1.35,1.99.92,2.32-.06.04-.26.17-.61.4-1.15.75-3.85,2.5-7.59,5.14-3.72,2.62-8.63,3.17-12.09,3.17"/><path id="Fill-89" class="cls-2" d="m137.97,173.84c-.54,0-.84-.04-.9-.23-.06-.2.14-.42.81-.88,3.87-2.69,7.78-6.25,11.62-10.57,3.21-3.61,5.3-5.6,7.73-7.9,1.25-1.19,2.68-2.54,4.39-4.25,11.24-11.18,22.86-22.75,34.65-32.45.27-.22.55-.42.82-.42.32,0,.51.28.58.84.28,2.22.3,4.12.1,6.36-.27,2.87.22,8.12.58,11.95.19,2.05.36,3.82.36,4.71.03,8.71-.36,17.71-3.44,24.64-.12.26-.28.62-.71.62-.25,0-.55-.11-.97-.36-2.66-1.59-2.47-1.98-2.42-2.12,3.48-7.44,3.23-15.91,2.99-24.1-.14-4.66-.22-9.5.13-13.41l.04-.4c.07-.81.13-1.44.05-1.53-.09,0-.46.39-.86.78-.24.24-.52.52-.86.84-3.08,2.95-6.28,5.96-9.84,9.3-1.76,1.65-3.54,3.31-5.32,4.97-10.49,9.77-21.34,19.87-29.42,29.94-.14.18-.26.31-.35.42-.05.06-.11.12-.14.17.06,0,.15,0,.24,0,.13,0,.3.01.51.03.42.03.86.05,1.32.05,2.15,0,4.42-.33,6.62-.65h.03c1.92-.28,4.75-.66,7.21-.66.55,0,1.06.02,1.53.06.21.01.6.04.81.61.2.83.49,1.42.77,1.99.14.28.28.57.41.88.06.13.11.26.03.37-.07.1-.23.15-.54.15h-1.75c-6.71.07-24.53.22-26.26.27-.21,0-.4.01-.57.01"/><path id="Fill-91" class="cls-2" d="m125.67,183.23c-3.75,0-6.91-.18-9.95-.57-.26-.03-.42-.13-.5-.28-.12-.24,0-.61.35-1.2,1.63-2.64,34.05-31.95,36.85-34.46.04-.03.08-.05.14-.05.17,0,.35.18.7.54.24.24.51.51.8.73.49.36.75.73.79,1.1.03.28-.08.56-.33.82-8.28,8.91-22.82,23.44-29.32,27.99.62,1.12,7,1.18,10.85,1.21,1.28,0,2.38.02,3.15.06l1.3.06c4.57.22,9.3.46,13.92.46,8.97,0,20.5-.77,30.12-6.81.18-.12.37-.17.58-.17.38,0,.73.19,1.1.4.15.08.32.17.48.25.95.43,2.05,1.21,2.11,1.62.01.08-.02.15-.08.2-8.59,6.95-19.63,7.91-30.28,7.91-2.71,0-5.51-.06-8.22-.13l-.81-.02c-1.61-.03-3.2-.06-4.86-.06-4,0-7.47.11-10.83.21-2.82.08-5.49.17-8.07.17"/><path id="Fill-93" class="cls-2" d="m242.95,136.7c-.25,0-.4-.17-.53-.33l-.09-.1c-6.04-6.4-11.97-11.95-19.58-18.83-7.27-6.58-13.46-12.42-18.38-17.35-.29-.29-.56-.62-.55-1.04,0-.64.6-1.44,2.18-2.95l.36-.35c16.41-15.74,28.27-27.11,43.34-40.37,7.65-6.74,14.52-13.32,21.79-20.29,2.21-2.12,4.46-4.28,6.8-6.51.26-.25.65-.62,1.14-1.09,2.74-2.63,7.84-7.53,8.69-8.01.13-.07.25-.15.35-.21.22-.14.38-.24.53-.24.32,0,.4.42.46,1.42,1.06,16.33-.06,37.88-.87,53.62-.02.49-.09.57-.37.68-.04.02-.1.03-.16.03-.22,0-.33-.23-.44-.6-.26-.89-1.12-1.95-1.84-2.65-.49-.47-.98-.95-1.3-1.44-.1-.16-.13-.4-.07-.67,1.92-9.6,1.31-20.88.76-30.83-.07-1.31-.11-3.04-.14-4.71-.03-1.3-.06-2.54-.1-3.54v-.14c0-.06,0-.11-.01-.16l-.09.09c-.13.13-.33.31-.61.54-23.06,18.79-43.99,39.23-66.14,60.86-2.21,2.16-4.43,4.33-6.65,6.49-.11.11-.22.21-.31.3-.35.33-.56.53-.56.69,0,.19.28.46.79.95l.22.21c5.75,5.56,33.95,33.23,34.14,33.44.07.08.1.17.09.29-.05.62-1.23,1.75-1.92,2.32-.4.33-.69.48-.93.48"/><path id="Fill-95" class="cls-2" d="m271.52,86.78c-.05,0-.1-.02-.13-.06-.24-.37-1.93-1.9-3.39-3.17-.24-.21-.48-.41-.71-.61-2.09-1.79-3.9-3.34-4.86-5.7-.02-.04-.03-.09-.05-.12-.12-.26-.17-.43.14-.74.16-.16.3-.31.43-.45.75-.78,1.14-1.18,1.92-1.12,1.83.13,3.86,2.21,5.15,4.12,1.2,1.78,2.69,3.99,4.39,4.86.17.09.21.57.18.79-.03.21-.13.27-.2.29-.24.04-.98.61-1.57,1.07-.8.61-1.14.86-1.3.86"/><path id="Fill-97" class="cls-2" d="m255.47,70.01c-.22,0-.69-.35-2.54-2.2-1.17-1.16-2.48-2.64-2.27-3.73.14-.71,1.05-1.6,2.33-2.26.03-.01.07-.02.11-.02.42,0,2.26.97,3.73,2.78.61.74,1.88,2.23,2.14,2.43.08.06.11.18.07.34-.16.63-1.4,2.3-3.54,2.66h-.03Z"/><path id="Fill-99" class="cls-2" d="m240.06,89.27c-.35,0-.57-.03-.62-.18-.05-.15.09-.29.32-.47,3.64-2.81,6.7-6.11,9.65-9.3,4.56-4.92,9.64-9.92,17.14-12.21.83-.25,1.9-.31,2.65-.31,1.17,0,3.33.18,3.44.53.69,2.11-.39,3.75-.61,4.06-.19.26-.34.39-.44.39-8.14.06-12.72,4.15-18.53,9.33l-.77.69c-1.1.98-2.74,2.39-3.96,3.42,1.39.23,2.71.34,4.02.34,2.49,0,4.56-.41,6.56-.81.32-.06.63-.13.95-.19,1.65-.32,3.51-.68,5.29-.86h0c.11,0,.16.08.26.23.12.18.34.49.73.85.43.39.84.93.8,1.24,0,.09-.06.15-.13.19-.8.42-2.53.88-3.66,1.05-.04,0-.13.03-.27.06-5.93,1.2-14.02,1.9-22.79,1.97h-.04Z"/><path id="Fill-101" class="cls-2" d="m275.42,79.8c-.23,0-1.47-.1-3.01-2.06-.3-.38-.56-.66-.75-.86-.29-.3-.45-.47-.31-.63,6.44-7.17,5.45-17.99,4.65-26.69v-.09c-.07-.64-.11-1.12-.17-1.22-.05.02-.14.1-.23.18-.18.16-.42.37-.78.57-.53.3-2.41,2.22-4.79,4.64-3.19,3.25-7.16,7.28-10.4,10.06-.21.18-.81-.08-1.26-.49-.43-.4-.91-1.57-1.07-2.22-.01-.04-.03-.07-.04-.11-.11-.22-.09-.38.32-.72,4.93-3.99,9.3-7.86,13.75-12.18,1-.97,1.99-1.96,3.04-3.02,1.89-1.91,3.85-3.87,5.89-5.7.34-.3.51-.34.62-.22.1.11.09.3.07.61v.04c-.18,3.66-.01,7.54.15,11.28.46,10.38.93,21.11-5.41,28.74-.05.06-.15.09-.29.09"/><path id="Fill-103" class="cls-2" d="m221.85,97.02c-.23,0-.41-.09-.47-.25-.13-.3.12-.77.77-1.43.99-1.03,2-2.06,3.01-3.08,1.46-1.49,2.97-3.04,4.39-4.53l.99-1.04c5.83-6.11,11.85-12.42,18.32-18.64.2-.19.38-.32.61-.23.43.16.8.74,1.27,1.47.08.12.16.25.25.38.16.25.33.45.46.61.25.31.4.5.24.64-6.64,5.85-11.49,10.62-14.42,14.17-1.59,1.92-3.49,3.68-5.34,5.39-.83.76-1.6,1.48-2.34,2.21-.42.41-.79.75-1.09,1.03-.34.31-.67.61-.74.73.02,0,.05,0,.1,0,.28,0,.89-.1,1.8-.26l.44-.08c3.72-.64,8.25-.78,12.64-.9,1.03-.03,2.05-.06,3.05-.1,12.88-.46,26.2-.95,34.02-11.1.07-.09.16-.19.29-.19.08,0,.15.04.23.13,1.01,1.27,1.54,2.89,1.48,4.45-.02.45-.1.73-.51,1.12-8.93,8.33-21.91,9.48-34.6,9.48-2.78,0-5.61-.06-8.35-.11-3.09-.06-5.65-.11-8.22-.11-3.17,0-5.85.08-8.2.24h-.06Z"/><path id="Fill-105" class="cls-2" d="m288.57,96.07c-.29,0-.61-.25-.96-.73-.55-.76-.96-1.21-1.26-1.54q-.98-1.06-1.09-6.14v-.46c-.1-3.62-.18-7.37-3.57-10.13l-.07-.06c-.23-.18-.31-.25-.25-.51.1-.44.26-1.47.3-2.08.11-1.3.64-3.29,1.12-3.29.04,0,.1.01.16.07,2.88,2.89,4.48,4.71,5.24,6.64,2.45,6.22,2.75,12.57.85,17.89-.06.17-.23.34-.47.34"/><path id="Fill-107" class="cls-2" d="m274.66,113.46s-.09-.02-.12-.05c-.05-.06-.33-.24-.6-.42-.38-.24-.85-.55-1.18-.82-.16-.13-.39-.28-.62-.43-.53-.36-.73-.5-.75-.65-.04-.32,5.05-7.62,8.06-10.01.21-.17.46-.11.69.17.49.6.93,2.19.9,2.34-.56,2.81-2.77,5.67-4.87,8.1-.18.21-.4.5-.61.79-.54.73-.74.99-.91.99"/><path id="Fill-109" class="cls-2" d="m271.63,130.91c-1.61,0-3.2-.2-4.73-.6-.18-.05-.34-.09-.41-.23-.05-.1-.04-.21.03-.37,1.24-2.89,1.39-2.91,2.87-2.63.6.11,1.43.27,2.68.27.31,0,.64,0,.97-.03,2.55-.15,6.34-1.13,8.62-3.38.2-.19.75.18.76,1.03,0,.08.07.35.13.61.23.95.28,1.3.14,1.43-2.59,2.44-6.72,3.89-11.05,3.89"/><path id="Fill-111" class="cls-2" d="m260.29,132.14h0c-1.78-.09-2.73-1.72-3.57-3.16-.33-.57.07-1.29.65-1.67,3.14-2.02,4.84-4.68,6.8-7.75l.15-.24c.21-.32.43-.47.74-.47.24,0,.53.1.93.31.87.47,2.74,1.8,2.56,2.22-1.09,2.64-3.08,4.93-5,7.15-.37.42-.79.94-1.2,1.45-1.26,1.55-1.81,2.18-2.05,2.18"/><path id="Fill-113" class="cls-2" d="m257.12,125.38c-.14,0-.28-.05-.45-.15-5.69-3.35-11.53-8.55-16.02-14.28-.1-.13-.2-.24-.28-.35-.32-.4-.49-.6-.4-.78.11-.24.55-.24,2.01-.26.81-.01,1.93-.03,3.43-.09,2.4-.1,4.74-.2,7.07-.2,5.99,0,13.55.54,18.84,4.76,3.3,2.63,4.08,4.05,4.98,5.69.35.63.7,1.28,1.23,2.06.12.18.24,1.2-.05,1.45-.86.73-1.82.97-3.29,1.16h-.06c-.2.04-.32.05-.41.05-.22,0-.27-.12-.33-.25-1.05-2.63-3.1-5.11-5.76-7-3.37-2.39-7.57-3.6-12.49-3.6-2.27,0-4.1.26-5.08.4-.18.03-.34.05-.46.06-.04,0-.07.01-.1.01h0c.14.13.36.33.57.7.31.57,3.07,4.14,7.65,6.36.3.14.95.94,1.08,1.38.04.13.03.23-.01.3-.34.54-.56,1.06-.74,1.47-.3.68-.49,1.12-.92,1.12"/><path id="Fill-115" class="cls-2" d="m248.62,143.21c-.56,0-1.87-1.24-2.57-2.13-.46-.58-.65-1.01-.59-1.26.25-.95,1.93-2.44,3.17-3.52.51-.45.94-.83,1.1-1.03.03-.04.09-.09.2-.09.12,0,.47,0,2.05,1.52.12.11.23.22.35.33.65.61,1.21,1.13,1.06,1.57-.4,1.14-.81,1.53-2.34,2.85-.42.36-1.03.8-1.52,1.16-.31.22-.63.45-.68.51-.04.04-.1.09-.22.09"/><path id="Fill-117" class="cls-2" d="m289.48,116.21c-.21,0-.42-.21-.68-.67-.35-.6-.68-1.14-1.01-1.66-.47-.76-.92-1.46-1.35-2.31-.03-.05-.07-.12-.13-.21-.3-.45-.91-1.39-.8-2.39.43-4.25-3.67-11.62-8.14-14.61-.06-.04-.1-.11-.1-.18,0-.1,0-.37,1.57-1.35.52-.32,1.74-.95,2.23-.95.1,0,.18.03.23.09.05.06.19.25.44.59.73.99,2.45,3.31,5.21,6.75,4.45,5.54,3.39,13.84,2.95,16.26-.03.16-.11.64-.43.64"/><path id="Fill-119" class="cls-2" d="m280.1,159.26c-.19,0-.42-.21-.87-.77-2.87-3.62-6.67-7.29-11.29-10.9-3.85-3.01-5.98-4.97-8.44-7.25-1.27-1.18-2.71-2.52-4.55-4.13-11.95-10.55-24.3-21.46-34.67-32.52-.29-.31-.54-.63-.43-.92.08-.22.37-.36.87-.41,2.42-.26,4.38-.29,6.78-.09.59.05,1.31.07,2.13.07,3.11,0,7.28-.34,10.64-.62,2.19-.18,4.08-.33,5.03-.34h1.2c8.33,0,17.83.38,25.1,3.23.29.11.56.24.65.5.08.26-.03.59-.36,1.08-1.13,1.66-1.88,2.42-2.24,2.27-6.28-2.57-13.14-2.92-19.02-2.92-2.26,0-4.54.06-6.75.11-2.08.05-4.54.11-6.98.11-2.92,0-5.32-.07-7.33-.23l-.43-.03c-.61-.05-1.05-.09-1.33-.09-.26,0-.31.03-.32.04.02.07.42.42.84.8.25.22.55.49.9.8,3.22,2.96,6.55,6.08,9.77,9.09l.16.15c1.75,1.64,3.52,3.31,5.28,4.97,10.45,9.86,21.25,20.05,32.01,27.64.19.13.33.24.44.33.07.06.15.11.2.15,0-.06,0-.15.01-.23,0-.12.01-.28.03-.48.2-2.37-.23-4.95-.65-7.43v-.04c-.39-2.31-.88-5.68-.65-8.2.02-.21.05-.58.65-.77.88-.18,1.52-.46,2.12-.72.3-.13.61-.27.94-.39.1-.04.18-.07.25-.07.28,0,.29.37.29.54.02,2.5.22,24.45.29,26.3.03.77.02,1.17-.13,1.32-.05.05-.1.07-.17.07"/><path id="Fill-121" class="cls-2" d="m289.19,179.81c-.2,0-.47-.13-.92-.37-2.8-1.52-34.13-31.95-36.81-34.59-.04-.04-.06-.09-.06-.14,0-.16.19-.33.57-.66.26-.23.55-.48.79-.76.68-.81,1.4-.96,2.04-.43,9.51,7.78,25.05,21.42,29.91,27.52,1.2-.55,1.26-6.34,1.3-10.19.01-1.2.02-2.23.06-2.95l.07-1.21c.82-14.51,1.67-29.52-6.78-41.35-.4-.56-.07-1.08.25-1.58.09-.15.19-.3.26-.45.47-.92,1.34-1.98,1.76-1.98.07,0,.13.03.17.07,9.02,9.8,8.68,22.6,8.31,36.15l-.02.76c-.14,5.34.08,9.91.28,13.95.31,6.4.58,11.92-.77,17.7-.04.2-.12.5-.42.5"/><path id="Fill-123" class="cls-3" d="m136.88,47.28h7.69c3.85,0,5.23-2.35,5.23-4.55s-1.37-4.55-5.23-4.55h-7.69v9.1Zm18.92,13.91h-6.84l-5.88-8.8h-6.2v8.8h-5.44v-8.8h-3.37v-5.12h3.37v-14.22h13.54c6.14,0,10.26,3.88,10.26,9.67,0,3.87-2.56,7.18-6.53,8.46l7.08,10.01Z"/><polygon id="Fill-125" class="cls-3" points="198.34 61.29 203.78 61.29 203.78 33.16 198.34 33.16 198.34 61.29"/><polygon id="Fill-127" class="cls-3" points="264.29 61.19 258.85 61.19 258.85 38.17 250.59 38.17 250.59 33.06 272.55 33.06 272.55 38.17 264.29 38.17 264.29 61.19"/><path id="Fill-128" class="cls-3" d="m143.91,118.27c-7.21,0-12.64-5.19-12.64-12.07v-16.64h5.44v15.53c0,4.75,2.96,8.06,7.2,8.06s7.2-3.31,7.2-8.06v-15.53h5.44v16.64c0,6.88-5.44,12.07-12.64,12.07"/><path id="Fill-129" class="cls-3" d="m197.14,107.6h7.87l-3.92-9.58-3.96,9.58Zm17.83,10.09h-5.86l-.03-.07-2.12-5.17h-11.79l-2.15,5.24h-5.82l.07-.16,10.21-23.12h-6.41v-4.85h11.87l.03.07,12.01,28.06Z"/><polygon id="Fill-130" class="cls-3" points="272.25 117.69 250.51 117.69 250.51 89.56 255.95 89.56 255.95 112.57 266.8 112.57 266.8 105.91 272.25 105.91 272.25 117.69"/><path id="Fill-131" class="cls-3" d="m142.46,171.55c-4.56,0-8.99-1.89-12.16-5.19l-.08-.09,4.12-3.67.08.08c2.26,2.38,5.27,3.74,8.27,3.74,4.08-.04,6.62-1.6,6.62-4.06s-3.23-2.97-6.97-3.47c-5-.66-11.22-1.49-11.22-8.13,0-4.85,5.07-8.51,11.79-8.51,4.67,0,8.47,1.45,11.31,4.3l.08.09-4.03,3.57-.08-.07c-2.38-2.31-4.64-3.3-7.55-3.3-4.02,0-5.81,1.84-5.81,3.66,0,2.55,3.21,2.95,6.93,3.41,5.02.62,11.26,1.4,11.26,8.18,0,6.13-6.47,9.44-12.55,9.44"/><path id="Fill-132" class="cls-3" d="m209.16,170.76c-2.54,0-4.6-2.04-4.6-4.55s2.06-4.55,4.6-4.55,4.6,2.04,4.6,4.55-2.06,4.55-4.6,4.55"/><path id="Fill-133" class="cls-3" d="m238.8,170.76c-2.54,0-4.6-2.04-4.6-4.55s2.06-4.55,4.6-4.55,4.6,2.04,4.6,4.55-2.06,4.55-4.6,4.55"/><path id="Fill-134" class="cls-3" d="m268.43,170.76c-2.53,0-4.6-2.04-4.6-4.55s2.06-4.55,4.6-4.55,4.6,2.04,4.6,4.55-2.06,4.55-4.6,4.55"/></g></g></g></g></svg>