<?xml version="1.0" encoding="UTF-8"?><svg id="Laag_1" xmlns="http://www.w3.org/2000/svg" xmlns:xlink="http://www.w3.org/1999/xlink" viewBox="0 0 400 200"><defs><style>.cls-1{mask:url(#mask);}.cls-2{fill:#16a1dc;}.cls-2,.cls-3{fill-rule:evenodd;}.cls-3{fill:#fff;}</style><mask id="mask" x="60.71" y="2.43" width="278.74" height="195.09" maskUnits="userSpaceOnUse"><g id="b"><path id="a" class="cls-3" d="m61.02,2.43h278.44v194.5H61.02V2.43Z"/></g></mask></defs><g class="cls-1"><path class="cls-2" d="m176.63,23.72c8.99-9.36,21.5-15.15,35.32-15.15,18.43,0,34.4,10.24,42.99,25.49,7.63-3.41,15.9-5.17,24.26-5.17,33.17,0,60.09,27.13,60.09,60.6s-26.92,60.6-60.09,60.6c-4.05,0-8.01-.41-11.87-1.18-7.52,13.41-21.91,22.52-38.29,22.52-6.67.01-13.25-1.5-19.24-4.42-7.63,17.91-25.39,30.51-46.07,30.51s-39.92-13.61-46.99-32.76c-3.14.66-6.35,1-9.56,1-25.69,0-46.47-21.09-46.47-46.99,0-17.4,9.36-32.55,23.24-40.74-2.94-6.78-4.46-14.1-4.45-21.5,0-29.89,24.26-54.05,54.15-54.05,17.5,0,33.17,8.34,42.99,21.29"/></g><path class="cls-3" d="m101.29,103.57c-.18.46.06.55.12.63.52.38,1.05.65,1.59.96,2.85,1.5,5.53,1.94,8.33,1.94,5.71,0,9.26-3.04,9.26-7.93v-.1c0-4.52-4.01-6.17-7.76-7.35l-.49-.16c-2.84-.92-5.28-1.72-5.28-3.58v-.1c0-1.6,1.43-2.77,3.64-2.77,2.46,0,5.38.82,7.26,1.85,0,0,.55.36.76-.18.11-.29,1.06-2.85,1.17-3.13.11-.3-.08-.53-.28-.64-2.15-1.31-5.12-2.2-8.19-2.2h-.57c-5.23,0-8.89,3.17-8.89,7.69v.1c0,4.77,4.03,6.33,7.8,7.4l.61.19c2.74.84,5.12,1.58,5.12,3.5v.1c0,1.77-1.55,3.09-4.02,3.09-.96,0-4.03-.02-7.36-2.12-.4-.23-.63-.4-.94-.59-.16-.1-.57-.28-.75.26l-1.13,3.13m83.63,0c-.18.46.06.55.12.63.52.38,1.05.65,1.59.96,2.85,1.5,5.53,1.94,8.33,1.94,5.71,0,9.26-3.04,9.26-7.93v-.1c0-4.52-4-6.17-7.76-7.35l-.49-.16c-2.84-.92-5.28-1.72-5.28-3.58v-.1c0-1.6,1.43-2.77,3.64-2.77,2.46,0,5.37.82,7.26,1.85,0,0,.55.36.76-.18.11-.29,1.06-2.85,1.16-3.13.11-.3-.08-.53-.28-.64-2.15-1.31-5.12-2.2-8.19-2.2h-.57c-5.23,0-8.89,3.17-8.89,7.69v.1c0,4.77,4.03,6.33,7.8,7.4l.6.19c2.75.84,5.12,1.58,5.12,3.5v.1c0,1.77-1.55,3.09-4.02,3.09-.97,0-4.04-.02-7.36-2.12-.4-.23-.64-.4-.94-.59-.1-.07-.59-.25-.75.26l-1.13,3.13m57.12-9.58c0,2.76-.52,4.94-1.53,6.49-1.01,1.53-2.53,2.27-4.65,2.27s-3.63-.74-4.63-2.26c-1-1.54-1.5-3.73-1.5-6.49s.51-4.93,1.5-6.46c.99-1.52,2.5-2.24,4.63-2.24s3.64.73,4.65,2.24c1.02,1.53,1.53,3.7,1.53,6.46m4.77-5.13c-.47-1.59-1.2-2.98-2.17-4.15-.97-1.17-2.2-2.11-3.66-2.78-1.45-.68-3.17-1.02-5.12-1.02s-3.65.34-5.12,1.02c-1.45.68-2.69,1.62-3.66,2.78-.97,1.17-1.7,2.56-2.17,4.15-.47,1.58-.7,3.3-.7,5.13s.24,3.55.7,5.13c.47,1.59,1.2,2.98,2.17,4.15.97,1.17,2.21,2.1,3.66,2.76,1.46.66,3.18,1,5.12,1s3.65-.34,5.11-1c1.45-.66,2.69-1.6,3.66-2.76.97-1.17,1.7-2.56,2.17-4.15.46-1.58.7-3.3.7-5.13s-.24-3.55-.7-5.13m39.21,13.1c-.16-.46-.61-.29-.61-.29-.69.27-1.43.51-2.22.63-.79.12-1.68.19-2.61.19-2.3,0-4.15-.69-5.46-2.05-1.32-1.36-2.06-3.55-2.05-6.52,0-2.7.66-4.73,1.83-6.29,1.16-1.54,2.94-2.33,5.29-2.33,1.97,0,3.47.23,5.05.72,0,0,.37.16.55-.33.42-1.16.73-1.99,1.18-3.26.13-.36-.18-.52-.3-.56-.62-.24-2.08-.64-3.18-.8-1.03-.16-2.23-.24-3.58-.24-2.01,0-3.79.34-5.31,1.02-1.53.68-2.82,1.62-3.84,2.78s-1.8,2.56-2.32,4.15c-.52,1.58-.78,3.31-.78,5.14,0,3.95,1.06,7.16,3.17,9.5,2.11,2.35,5.28,3.54,9.42,3.54,2.45,0,4.95-.49,6.76-1.21,0,0,.34-.17.19-.57l-1.18-3.23m8.34-10.65c.23-1.54.65-2.82,1.31-3.81.99-1.52,2.5-2.34,4.62-2.34s3.52.83,4.52,2.34c.67,1,.96,2.32,1.06,3.81h-11.57s.05,0,.05,0Zm16.07-3.38c-.41-1.53-1.41-3.07-2.07-3.78-1.04-1.12-2.06-1.9-3.07-2.33-1.46-.62-3.04-.94-4.63-.94-2.02,0-3.85.34-5.33,1.03-1.48.7-2.73,1.65-3.72,2.84-.98,1.19-1.72,2.59-2.19,4.2-.47,1.59-.71,3.33-.71,5.15s.25,3.59.73,5.16c.49,1.58,1.28,2.96,2.34,4.1,1.06,1.16,2.43,2.06,4.06,2.69,1.63.63,3.6.96,5.87.95,4.67-.02,7.12-1.05,8.13-1.62.18-.1.35-.27.14-.77l-1.05-2.96c-.16-.44-.61-.28-.61-.28-1.16.43-2.79,1.21-6.63,1.2-2.51,0-4.36-.74-5.53-1.9-1.19-1.19-1.78-2.92-1.87-5.37h16.17s.43,0,.47-.41c.02-.17.55-3.32-.48-6.95h-.02Zm-145.36,3.38c.23-1.54.65-2.82,1.31-3.81.99-1.52,2.5-2.34,4.62-2.34s3.52.83,4.52,2.34c.66,1,.96,2.32,1.06,3.81h-11.57s.05,0,.05,0Zm16.07-3.38c-.41-1.53-1.41-3.07-2.07-3.78-1.04-1.12-2.06-1.9-3.07-2.33-1.46-.62-3.04-.94-4.63-.94-2.02,0-3.85.34-5.33,1.03-1.48.7-2.73,1.65-3.72,2.84-.98,1.19-1.72,2.59-2.19,4.2-.47,1.59-.71,3.33-.71,5.15s.24,3.59.73,5.16c.49,1.58,1.28,2.96,2.33,4.1,1.06,1.16,2.43,2.06,4.06,2.69,1.63.63,3.59.96,5.87.95,4.67-.02,7.12-1.05,8.13-1.62.18-.1.35-.27.14-.77l-1.05-2.96c-.16-.44-.61-.28-.61-.28-1.16.43-2.79,1.21-6.63,1.2-2.5,0-4.36-.74-5.53-1.9-1.19-1.19-1.78-2.92-1.87-5.37h16.17s.43,0,.47-.41c.02-.17.55-3.32-.48-6.95h-.01Zm-50.98,13.92c-.63-.51-.72-.63-.93-.96-.32-.49-.48-1.2-.48-2.1,0-1.41.47-2.44,1.44-3.12-.01,0,1.39-1.21,4.69-1.17,1.47.03,2.93.15,4.38.37v7.34h0s-2.05.44-4.36.58c-3.29.2-4.74-.95-4.73-.94h0Zm6.43-11.37c-.66-.05-1.5-.07-2.52-.07-1.38,0-2.72.17-3.97.51-1.26.34-2.4.87-3.37,1.57-.98.7-1.78,1.61-2.34,2.66-.57,1.06-.86,2.31-.86,3.73s.25,2.67.74,3.69c.48,1.01,1.21,1.87,2.11,2.53.9.65,2.01,1.14,3.29,1.42,1.27.29,2.7.44,4.28.44,1.66,0,3.31-.14,4.9-.41,1.36-.23,2.72-.5,4.06-.79.54-.12,1.14-.29,1.14-.29.4-.1.37-.53.37-.53v-14.74c0-3.23-.87-5.64-2.58-7.12-1.7-1.48-4.19-2.23-7.41-2.23-1.21,0-3.16.16-4.33.4,0,0-3.52.68-4.98,1.82,0,0-.32.2-.15.64l1.15,3.07c.14.4.53.26.53.26,0,0,.12-.05.27-.13,3.1-1.69,7.03-1.64,7.03-1.64,1.74,0,3.09.35,3.99,1.04.88.68,1.33,1.7,1.33,3.85v.68c-1.38-.2-2.66-.32-2.66-.32l-.02-.04Zm130.01-8.32c.1-.22,0-.48-.23-.58,0,0,0,0-.01,0-.28-.1-1.65-.39-2.7-.46-2.03-.13-3.15.21-4.17.67-1,.45-2.11,1.18-2.72,2.02v-1.97c0-.27-.19-.49-.47-.49h-4.14c-.27,0-.46.22-.46.49v24.06c0,.27.22.49.49.49h4.24c.27,0,.49-.22.49-.49v-12.08c0-1.62.18-3.22.53-4.24.35-1,.83-1.8,1.41-2.37.56-.55,1.24-.96,2-1.2.71-.2,1.44-.31,2.17-.31.84,0,1.77.22,1.77.22.31.03.48-.16.59-.44.28-.74,1.06-2.95,1.22-3.39"/><path class="cls-3" d="m227,71.06c-.52-.16-1.06-.28-1.6-.38-.73-.12-1.46-.18-2.19-.17-2.92,0-5.22.83-6.84,2.45-1.61,1.62-2.7,4.08-3.25,7.32l-.2,1.09h-3.67s-.45-.02-.54.47l-.6,3.36c-.04.32.1.52.53.52h3.57l-3.62,20.21c-.28,1.63-.61,2.97-.97,3.98-.35,1-.7,1.75-1.13,2.3-.41.53-.8.92-1.48,1.14-.56.19-1.2.27-1.9.27-.39,0-.91-.07-1.29-.14-.38-.08-.58-.16-.87-.28,0,0-.42-.16-.58.26-.13.34-1.09,2.96-1.2,3.28-.11.32.05.57.25.64.47.17.83.28,1.48.43.9.21,1.66.23,2.37.23,1.49,0,2.84-.21,3.96-.61,1.13-.41,2.11-1.12,2.98-2.08.94-1.04,1.53-2.13,2.1-3.61.56-1.47,1.04-3.3,1.42-5.43l3.64-20.58h5.32s.45.02.54-.47l.6-3.36c.04-.32-.1-.52-.53-.52h-5.16c.03-.12.26-1.93.85-3.64.25-.73.73-1.32,1.13-1.72.38-.39.84-.67,1.35-.84.56-.17,1.15-.26,1.73-.25.49,0,.96.06,1.33.13.5.11.7.16.83.2.53.16.6,0,.7-.25l1.23-3.39c.13-.36-.18-.52-.3-.56m-72.14,34.92c0,.27-.19.49-.46.49h-4.28c-.27,0-.46-.22-.46-.49v-34.46c0-.27.19-.49.46-.49h4.28c.27,0,.46.22.46.49v34.46"/></svg>