<?xml version="1.0" encoding="UTF-8"?><svg id="Laag_1" xmlns="http://www.w3.org/2000/svg" viewBox="0 0 400 200"><defs><style>.cls-1{fill:#2a3180;}</style></defs><path class="cls-1" d="m49.75,164.82c1.62,1.99,3.58,3.68,5.78,5,2.28,1.36,4.9,2.07,7.56,2.03,1.23,0,2.46-.2,3.63-.59,1.11-.36,2.15-.93,3.04-1.68.85-.72,1.55-1.59,2.06-2.58.53-1.04.8-2.19.78-3.36,0-2.08-.64-3.76-1.91-5.04-1.38-1.36-2.98-2.48-4.73-3.32-1.9-.94-3.95-1.82-6.13-2.66-2.11-.79-4.13-1.81-6.01-3.04-1.95-1.28-3.64-2.92-4.96-4.84-1.33-1.92-1.99-4.32-1.99-7.18-.02-1.94.4-3.86,1.22-5.62.83-1.77,2.02-3.35,3.48-4.65,1.53-1.36,3.31-2.42,5.23-3.12,2.11-.77,4.35-1.16,6.6-1.13,1.62-.01,3.23.16,4.81.51,1.39.31,2.75.75,4.06,1.33,2.1.93,4.06,2.15,5.82,3.63l-4.61,5.7c-2.96-2.5-6.22-3.75-9.76-3.75-1.12,0-2.24.15-3.32.47-1.04.3-2.01.77-2.89,1.41-.84.61-1.55,1.4-2.06,2.31-.53.97-.8,2.06-.78,3.16-.03,1.65.67,3.22,1.91,4.3,1.43,1.25,3.04,2.29,4.76,3.09,1.9.92,3.93,1.81,6.09,2.69,2.06.83,4.03,1.85,5.9,3.04.94.63,1.83,1.33,2.65,2.11.86.81,1.62,1.71,2.26,2.7.7,1.06,1.24,2.22,1.6,3.44.41,1.38.6,2.82.58,4.26.03,2.25-.42,4.47-1.33,6.53-.85,1.89-2.07,3.58-3.6,4.98-1.56,1.41-3.37,2.5-5.35,3.2-2.14.77-4.4,1.15-6.68,1.13-3.65.02-7.25-.78-10.54-2.34-3.33-1.6-6.26-3.92-8.59-6.79l5.39-5.32Z"/><path class="cls-1" d="m94.72,144.99c1.31-1.05,2.74-1.94,4.26-2.65,1.79-.89,3.97-1.33,6.53-1.33,2.61-.02,5.2.58,7.53,1.76,2.26,1.13,4.25,2.74,5.82,4.72,1.23,1.57,2.14,3.36,2.69,5.27.6,2,.9,4.59.9,7.77v17.96h-7.43v-18.35c0-2.34-.19-4.13-.58-5.38-.33-1.13-.88-2.19-1.6-3.12-.9-1.11-2.03-2-3.32-2.62-1.32-.65-2.78-.98-4.25-.98-2.45,0-4.54.53-6.28,1.6-1.62.96-3.06,2.19-4.26,3.63v25.22h-7.42v-55.43h7.42v21.94Z"/><path class="cls-1" d="m128.12,160.13c-.02-2.59.47-5.16,1.45-7.56.92-2.27,2.27-4.34,3.98-6.09,1.71-1.73,3.76-3.1,6.01-4.02,4.84-1.93,10.23-1.93,15.07,0,2.26.92,4.3,2.29,6.01,4.02,1.71,1.75,3.07,3.82,3.98,6.09,1.92,4.88,1.92,10.31,0,15.19-.92,2.26-2.28,4.31-3.98,6.05-1.71,1.73-3.76,3.1-6.01,4.02-4.84,1.92-10.23,1.92-15.07,0-2.25-.92-4.3-2.29-6.01-4.02-1.71-1.74-3.06-3.79-3.98-6.05-.99-2.42-1.48-5.01-1.45-7.63Zm7.42,0c0,1.61.28,3.22.86,4.72.54,1.43,1.35,2.74,2.38,3.87,1.02,1.1,2.26,1.97,3.63,2.58,3,1.25,6.37,1.25,9.37,0,1.37-.6,2.61-1.48,3.63-2.58,1.03-1.12,1.84-2.44,2.38-3.87,1.15-3.04,1.15-6.4,0-9.45-.54-1.43-1.35-2.74-2.38-3.87-1.02-1.1-2.26-1.97-3.63-2.58-3-1.25-6.37-1.25-9.37,0-1.37.6-2.61,1.48-3.63,2.58-1.03,1.12-1.84,2.44-2.37,3.87-.58,1.51-.87,3.11-.87,4.72Z"/><path class="cls-1" d="m199.6,141.79l10.07,25.06,10.07-25.06h7.65l-14.91,36.7h-5.15l-10.31-25.77-10.31,25.77h-5.15l-14.91-36.7h7.65l10.07,25.06,10.07-25.06h5.16Z"/><path class="cls-1" d="m240.32,197.22h-7.42v-55.43h7.18v3.36c1.58-1.41,3.42-2.48,5.43-3.16,1.95-.65,3.99-.98,6.05-.98,1.63-.01,3.26.2,4.84.63,1.44.39,2.83.97,4.12,1.72,2.82,1.68,5.17,4.04,6.83,6.87,3.48,6.14,3.49,13.64.04,19.79-1.65,2.82-3.99,5.17-6.79,6.83-1.35.77-2.79,1.36-4.3,1.76-1.6.44-3.26.66-4.92.66-4.32,0-8.02-1.33-11.09-3.98v21.94Zm.01-30.21c1.2,1.63,2.77,2.95,4.57,3.87,3.23,1.67,7.04,1.81,10.38.39,1.44-.62,2.75-1.51,3.87-2.61,1.09-1.09,1.96-2.39,2.54-3.82.6-1.49.91-3.08.9-4.69,0-3.13-1.15-6.15-3.24-8.47-1.04-1.13-2.3-2.04-3.71-2.66-1.53-.66-3.18-1-4.84-.98-2.11-.03-4.19.47-6.05,1.48-1.72.92-3.22,2.2-4.41,3.75v13.75Z"/><path class="cls-1" d="m305.18,175.12c-1.5,1.35-3.25,2.4-5.15,3.09-1.98.71-4.07,1.07-6.17,1.05-1.66,0-3.32-.22-4.92-.66-1.5-.4-2.95-.99-4.3-1.76-2.81-1.66-5.14-4.01-6.79-6.83-3.45-6.15-3.43-13.66.04-19.79,1.66-2.83,4.01-5.2,6.83-6.87,1.29-.75,2.68-1.32,4.12-1.72,1.58-.43,3.21-.64,4.84-.63,2.06,0,4.1.33,6.05.98,2,.68,3.85,1.76,5.43,3.16v-3.36h7.19v36.69h-7.19l.02-3.36Zm-.23-21.86c-1.19-1.55-2.69-2.83-4.41-3.76-1.86-1-3.95-1.51-6.06-1.48-1.66-.02-3.31.31-4.84.98-1.41.62-2.67,1.52-3.71,2.66-2.09,2.32-3.25,5.34-3.24,8.47-.01,1.61.29,3.2.9,4.69.58,1.43,1.44,2.73,2.54,3.82,1.12,1.11,2.44,2,3.89,2.61,3.35,1.43,7.15,1.28,10.38-.39,1.8-.92,3.36-2.24,4.57-3.87v-13.74Z"/><path class="cls-1" d="m348.46,175.12c-1.5,1.35-3.25,2.4-5.15,3.09-1.98.71-4.07,1.07-6.17,1.05-1.66,0-3.32-.22-4.92-.66-1.5-.39-2.95-.98-4.3-1.76-2.81-1.66-5.14-4.01-6.79-6.83-3.45-6.15-3.44-13.66.04-19.79,1.66-2.83,4.01-5.2,6.83-6.87,1.29-.75,2.68-1.33,4.12-1.72,3.52-.94,7.24-.82,10.7.34,1.96.67,3.78,1.69,5.38,3.01v-21.94h7.43v55.43h-7.18v-3.36Zm-.24-21.86c-1.19-1.55-2.69-2.83-4.41-3.76-1.85-1-3.93-1.51-6.04-1.48-1.66-.02-3.31.31-4.84.98-1.41.62-2.67,1.52-3.71,2.66-2.09,2.32-3.25,5.34-3.24,8.47-.01,1.61.29,3.2.9,4.69.58,1.43,1.44,2.73,2.54,3.82,1.11,1.11,2.42,1.99,3.86,2.61,3.35,1.43,7.15,1.28,10.38-.39,1.8-.92,3.37-2.24,4.57-3.87v-13.74Z"/><path class="cls-1" d="m293.32,55.31c0-.73-.02-1.44-.05-2.16,0-.11-.02-.22-.02-.34-.04-.62-.08-1.24-.14-1.85v-.08c-2.11-20.1-18-35.98-38.1-38.08h-.08c-.62-.06-1.23-.11-1.85-.14-.11,0-.22-.02-.34-.02-.71-.04-1.44-.05-2.16-.05h0c-11.35-.03-22.24,4.48-30.24,12.52l-14.47,14.45,10.56,10.56,10.51-10.52-.04-.04,3.95-3.95c5.22-5.25,12.32-8.19,19.72-8.17h0c.47,0,.94,0,1.4.03l.22.02c.41.02.81.05,1.21.09h.06c13.09,1.39,23.44,11.73,24.83,24.83,0,.02,0,.04,0,.07.04.4.07.8.09,1.2v.22c.02.46.04.93.04,1.4v.02c0,.48,0,.95-.04,1.42v.19c-.02.41-.05.83-.09,1.24v.03c-1,9.56-6.84,17.93-15.46,22.16l-.26.13c-.25.12-.51.23-.77.34-.19.08-.37.17-.56.25l-.49.19c-.29.11-.58.23-.88.34l-.2.07c-10.08,3.47-21.26.9-28.81-6.64l-3.9-3.9h0l-26.34-26.34h0L158.58,2.78l-10.51,10.52-42.07,42.07,10.52,10.51,42.06,42.07,10.51-10.52,26.29-26.27-10.53-10.53-26.29,26.29-31.55-31.55,31.55-31.55,15.78,15.78h0l42.08,42.06h0l3.9,3.9c8.01,8.03,18.9,12.53,30.24,12.5h0v.02c4.73,0,9.44-.79,13.91-2.34l.34-.12c.44-.15.87-.32,1.29-.48.27-.11.54-.21.8-.32s.55-.24.82-.34c.41-.18.82-.36,1.23-.56l.34-.18c13.27-6.47,22.25-19.33,23.76-34.02v-.04c.07-.63.11-1.25.14-1.89,0-.1.02-.2.02-.3.03-.72.05-1.45.05-2.18h0l.03-.02Z"/></svg>