<?xml version="1.0" encoding="UTF-8"?><svg id="Laag_1" xmlns="http://www.w3.org/2000/svg" viewBox="0 0 400 200"><defs><style>.cls-1{fill:#0eaebd;}.cls-2{fill:#1d1e1c;}</style></defs><path class="cls-2" d="m76.26,53.45l-11.64,13.72s-33.69,0-36.42,0c-2.26,0-3.97.47-5.11,1.43-1.14.96-1.71,2.12-1.71,3.51,0,1,.47,1.9,1.42,2.69.91.83,3.08,1.6,6.51,2.32,8.48,1.84,14.55,3.68,18.22,5.55,3.68,1.88,6.34,4.2,8.01,6.97,1.67,2.77,2.51,5.88,2.51,9.31,0,4.03-1.11,7.75-3.34,11.15-2.22,3.4-5.34,5.98-9.34,7.75-4,1.75-9.04,2.63-15.12,2.63-10.68,0-18.08-2.05-22.19-6.17-4.11-4.13-6.43-9.36-6.97-15.7l18.45-1.15c.4,3,1.21,5.29,2.45,6.86,1.99,2.55,4.85,3.82,8.56,3.82,2.77,0,4.9-.65,6.4-1.95,1.5-1.31,2.25-2.81,2.25-4.53s-.71-3.08-2.13-4.38c-1.43-1.29-4.74-2.5-9.95-3.64-8.51-1.91-14.58-4.47-18.2-7.64-3.66-3.17-5.49-7.22-5.49-12.13,0-3.24.94-6.29,2.81-9.17,1.87-2.87,4.9-6.35,8.66-8.01,3.75-1.64,8.6-3.23,15.14-3.23h46.22Z"/><rect class="cls-2" x="65.05" y="67.32" width="17.43" height="52.06"/><path class="cls-2" d="m123,73.84h16.35v42.99l.04,2.02c0,2.86-.61,5.57-1.82,8.17-1.21,2.58-2.83,4.68-4.84,6.27-2.03,1.6-4.58,2.76-7.68,3.47-3.1.71-6.65,1.07-10.64,1.07-9.15,0-15.43-1.37-18.84-4.12-3.42-2.74-5.12-6.41-5.12-11,0-.57.03-1.35.09-2.32l16.94,1.94c.42,1.57,1.08,2.65,1.97,3.25,1.28.87,2.89,1.32,4.83,1.32,2.51,0,4.39-.66,5.63-2.01,1.24-1.34,1.86-3.68,1.86-7.03v-6.9c-1.71,2.03-3.43,3.51-5.14,4.42-2.69,1.43-5.59,2.15-8.7,2.15-6.09,0-11-2.66-14.74-7.98-2.66-3.78-3.99-8.77-3.99-14.97,0-7.09,1.71-12.5,5.14-16.21,3.43-3.72,7.91-5.58,13.46-5.58,3.54,0,6.46.6,8.76,1.8,2.3,1.2,4.45,3.18,6.45,5.95v-6.73Zm-16.38,22.07c0,3.3.7,5.73,2.1,7.31,1.39,1.59,3.23,2.38,5.52,2.38,2.17,0,3.98-.82,5.45-2.47,1.47-1.64,2.2-4.12,2.2-7.44s-.77-5.86-2.31-7.61c-1.54-1.76-3.41-2.65-5.64-2.65s-4,.81-5.33,2.43c-1.32,1.61-1.99,4.29-1.99,8.04"/><path class="cls-2" d="m147.55,73.84h16.23v7.41c2.44-3.03,4.9-5.19,7.39-6.49,2.49-1.29,5.53-1.94,9.11-1.94,4.83,0,8.62,1.43,11.35,4.3,2.74,2.88,4.1,7.31,4.1,13.32v28.94h-17.54v-25.06c0-2.85-.53-4.88-1.59-6.07-1.06-1.19-2.56-1.78-4.47-1.78-2.12,0-3.84.8-5.16,2.4-1.33,1.61-1.99,4.48-1.99,8.63v21.88h-17.43v-45.53Z"/><path class="cls-2" d="m203.93,146.56v-72.72h16.31v6.72c2.27-2.83,4.34-4.74,6.22-5.73,2.54-1.35,5.36-2.02,8.45-2.02,6.09,0,10.8,2.33,14.13,6.99,3.33,4.66,4.99,10.42,4.99,17.28,0,7.58-1.81,13.36-5.45,17.35-3.63,3.99-8.22,5.98-13.77,5.98-2.69,0-5.13-.45-7.35-1.37-2.22-.91-4.2-2.27-5.94-4.07v10.09l-17.6,21.51Zm17.47-49.83c0,3.6.76,6.29,2.28,8.03,1.51,1.75,3.44,2.62,5.75,2.62,2.04,0,3.75-.84,5.12-2.51,1.37-1.67,2.07-4.51,2.07-8.52,0-3.69-.72-6.4-2.15-8.13-1.43-1.74-3.18-2.6-5.24-2.6-2.24,0-4.1.87-5.58,2.62-1.5,1.75-2.24,4.58-2.24,8.5"/><path class="cls-2" d="m257.95,96.74c0-6.94,2.34-12.67,7.03-17.17,4.68-4.5,11.01-6.76,18.98-6.76,9.11,0,16,2.64,20.66,7.93,3.74,4.26,5.61,9.51,5.61,15.74,0,7.01-2.33,12.74-6.97,17.21-4.64,4.48-11.05,6.72-19.25,6.72-7.31,0-13.23-1.86-17.74-5.57-5.54-4.61-8.31-10.63-8.31-18.1m17.48-.03c0,4.06.82,7.07,2.46,9.01,1.64,1.94,3.71,2.92,6.19,2.92s4.58-.95,6.19-2.88c1.61-1.92,2.42-4.99,2.42-9.22,0-3.96-.81-6.9-2.44-8.82-1.63-1.94-3.65-2.9-6.05-2.9-2.53,0-4.64.98-6.29,2.94-1.65,1.95-2.48,4.94-2.48,8.95"/><path class="cls-2" d="m313.7,105.22l16.84-.13c.72,2.08,1.71,3.55,3,4.43,1.28.9,3,1.34,5.15,1.34,2.34,0,4.15-.5,5.44-1.5,1-.75,1.5-1.67,1.5-2.79,0-1.26-.65-2.23-1.96-2.91-.93-.49-3.43-1.08-7.5-1.81-6.05-1.05-10.26-2.03-12.62-2.93-2.35-.9-4.34-2.41-5.95-4.55-1.62-2.14-2.43-4.59-2.43-7.33,0-2.99.87-5.58,2.62-7.75,1.74-2.18,4.15-3.8,7.2-4.87,3.05-1.07,7.16-1.6,12.3-1.6,5.42,0,9.44.41,12.02,1.24,2.58.83,4.74,2.12,6.46,3.86,1.73,1.75,3.06,5.83,4.21,8.8l-16.47-.13c-.43-1.45-1.15-2.52-2.15-3.2-1.36-.91-3.01-1.36-4.96-1.36s-3.4.35-4.3,1.04c-.89.7-1.34,1.55-1.34,2.55,0,1.11.57,1.96,1.71,2.53,1.14.58,3.63,1.09,7.45,1.54,5.8.67,10.11,1.58,12.94,2.75,2.84,1.17,5,2.83,6.49,5.01,1.5,2.17,2.24,4.55,2.24,7.15s-.78,5.18-2.38,7.67c-1.58,2.48-4.09,4.46-7.5,5.93-3.42,1.47-8.06,2.21-13.95,2.21-8.32,0-13.14-1.27-16.67-3.64-3.52-2.37-6.43-7.18-7.42-11.54"/><path class="cls-2" d="m388.72,59.92v13.92h9.6v12.8h-9.6v16.13c0,1.94.19,3.23.56,3.85.56.97,1.56,1.46,3,1.46,1.28,0,6.57.09,6.57.09l.05,11.59c-4.32.95-8.3.67-12.03.67-4.34,0-7.55-.56-9.6-1.67-2.05-1.11-3.58-2.8-4.55-5.07-.99-2.26-1.49-5.94-1.49-11.02v-16h-6.4v-12.8h6.4l-.06-17.48,17.55,3.56Z"/><polygon class="cls-1" points="203.93 165.93 221.52 144.42 221.52 131.53 203.93 153.04 203.93 165.93"/></svg>