<?xml version="1.0" encoding="UTF-8"?><svg id="Laag_1" xmlns="http://www.w3.org/2000/svg" viewBox="0 0 400 200"><defs><style>.cls-1{fill:#010101;}</style></defs><g><path class="cls-1" d="m288.41,64.84h-.28c-4.89,0-9.41,2.03-12.64,5.27-3.23-3.23-7.66-5.27-12.55-5.27h-.28c-9.69,0-17.62,7.85-17.62,17.46v34.18c.09,2.68,2.31,4.71,4.98,4.71s4.89-2.12,4.98-4.71v-34.18c0-4.16,3.41-7.57,7.57-7.57h.28c4.06,0,7.38,3.23,7.57,7.21v34.46c0,1.02.37,1.94.92,2.68.92,1.29,2.4,2.12,4.06,2.12,2.68,0,4.89-2.12,4.98-4.71v-34.55c.18-4.06,3.51-7.3,7.57-7.3h.28c4.24,0,7.57,3.42,7.57,7.57v34.18c.09,2.68,2.31,4.71,4.98,4.71s4.89-2.12,4.98-4.71v-34.18c.28-9.52-7.57-17.37-17.35-17.37Z"/><path class="cls-1" d="m229.17,64.84c-2.68,0-4.89,2.12-5.08,4.71v34.18c0,4.16-3.41,7.57-7.66,7.57h-.28c-4.24,0-7.66-3.42-7.66-7.57v-34.18c-.18-2.68-2.31-4.71-5.08-4.71s-4.89,2.12-5.08,4.71v34.18c0,9.61,8.03,17.55,17.81,17.55h.28c9.78,0,17.81-7.85,17.81-17.55v-34.18c-.09-2.68-2.31-4.71-5.08-4.71Z"/><path class="cls-1" d="m347.93,64.84c-2.77,0-4.89,2.12-5.08,4.71v34.18c0,4.16-3.42,7.57-7.66,7.57h-.28c-4.25,0-7.66-3.42-7.66-7.57v-34.18c-.1-2.68-2.31-4.71-5.08-4.71s-4.89,2.12-5.08,4.71v34.18c0,9.61,7.94,17.55,17.81,17.55h.28c9.78,0,17.81-7.85,17.81-17.55v-34.18c-.19-2.68-2.31-4.71-5.08-4.71Z"/><path class="cls-1" d="m389.17,103.37c0,5.36-3.51,7.67-7.84,7.67h-.28c-4.33,0-7.84-2.31-7.84-7.67v-20.69c0-4.25,3.51-7.67,7.84-7.67h.28c4.34,0,7.84,3.42,7.84,7.67v20.69Zm-7.84-38.52h-.28c-9.96,0-17.99,8.04-17.99,17.92v20.69c0,.55-.09,1.2,0,1.76v39.35c0,2.77,2.21,4.99,4.98,4.99s4.98-2.22,4.98-4.99v-25.77c1.94,1.66,5.07,2.49,7.93,2.49h.28c9.96,0,17.62-8.5,17.62-18.38v-20.69c.09-9.88-7.57-17.37-17.53-17.37Z"/><path class="cls-1" d="m173.7,87.11c-5.63-2.22-9.14-3.69-9.14-7.02,0-2.68,2.12-5.36,6.92-5.36,2.95,0,5.54,1.29,7.29,3.79,1.2,1.57,2.49,2.4,4.06,2.4,2.86,0,5.26-2.31,5.26-5.08,0-1.02-.28-2.03-.83-2.77-3.14-4.8-9.6-8.22-15.78-8.22-8.49,0-16.98,5.27-16.98,15.24s8.49,13.58,15.23,16.26c5.44,2.12,10.15,3.97,10.15,8.5,0,3.33-3.14,6.65-9.04,6.65-1.85,0-5.26-.46-7.47-3.14-1.2-1.39-2.58-2.12-3.97-2.12-2.77,0-5.26,2.4-5.26,4.99,0,1.02.37,2.03,1.02,2.96,3.14,4.71,10.33,7.21,15.69,7.21,9.32,0,19.19-5.82,19.19-16.54,0-11.36-9.04-14.87-16.33-17.74Z"/></g><path class="cls-1" d="m83.78,71.15l-36.98,36.85c-.68.68-1.79.6-2.47,0-9.69-10.98-9.27-27.66,1.19-38.04,10.46-10.38,27.03-10.81,38-1.36.08,0,.08.08.17.17.68.68.68,1.7.08,2.38Zm-7.74,58.9c-10.46,10.38-27.03,10.81-38,1.36q-.08-.09-.17-.17c-.68-.68-.68-1.7,0-2.38l36.98-36.85c.68-.68,1.79-.6,2.47,0,9.61,10.89,9.27,27.58-1.28,38.04Zm35.88-89.45H9.64c-4.68,0-8.5,3.83-8.5,8.51v101.79c0,4.68,3.83,8.51,8.5,8.51h102.27c4.68,0,8.5-3.83,8.5-8.51V49.1c.08-4.77-3.74-8.51-8.5-8.51Z"/></svg>