<?xml version="1.0" encoding="UTF-8"?><svg id="Laag_1" xmlns="http://www.w3.org/2000/svg" xmlns:xlink="http://www.w3.org/1999/xlink" viewBox="0 0 400 200"><defs><style>.cls-1{fill:#fcfcfd;}.cls-2{fill:#e7313f;}.cls-3{fill:#1d1b18;}</style></defs><image width="1300" height="600" transform="translate(-481.43 -16.46) scale(.39)" xlink:href="../../../../../../../../../../Downloads/1-twilio-logo-red.png"/><g><polygon class="cls-3" points="14.62 75.87 .43 75.87 25.5 119.54 50.56 75.87 36.38 75.87 25.5 96.4 14.62 75.87 14.62 75.87"/><polygon class="cls-3" points="53.86 119.11 65.98 119.11 65.98 75.87 53.86 75.87 53.86 119.11 53.86 119.11"/><path class="cls-3" d="m133.11,92.86l.1-.51c.75-3.68,3.64-7.98,9.33-7.98s8.52,4.29,9.31,7.97l.11.52h-18.85Zm9.43-18.32c-6.02,0-11.58,2.43-15.65,6.85-3.86,4.18-6.07,9.88-6.07,15.62s2.21,11.35,6.05,15.52c4.13,4.48,9.82,6.95,16.04,6.95,14.17,0,18.97-10.8,19.99-13.65h-12.49c-1.36,2.19-4.08,3.44-7.5,3.44-3.97,0-8.66-2.3-9.88-8.75l-.1-.51h31.11c.14-1.33.2-2.37.2-3.34,0-12.21-9.74-22.15-21.71-22.15h0Z"/><path class="cls-3" d="m190.88,108.13c-5.9,0-10.35-4.78-10.35-11.12s4.45-11.12,10.35-11.12,10.35,4.78,10.35,11.12-4.45,11.12-10.35,11.12h0Zm0-33.59c-12.39,0-22.48,10.08-22.48,22.48s10.08,22.48,22.48,22.48,22.48-10.08,22.48-22.48-10.08-22.48-22.48-22.48h0Z"/><path class="cls-3" d="m392.81,105.91h-.69c-3.73,0-6.76,3.03-6.76,6.76s3.03,6.76,6.76,6.76h.69c3.73,0,6.76-3.03,6.76-6.76s-3.03-6.76-6.76-6.76h0Z"/><path class="cls-3" d="m357.99,108.13c-2.75,0-5.28-1.02-7.15-2.87-2.09-2.08-3.2-5.09-3.2-8.69,0-5.24,3.87-10.66,10.35-10.66,3.11,0,5.77,1.2,7.68,3.46,1.72,2.04,2.67,4.75,2.67,7.64,0,6.34-4.45,11.12-10.35,11.12h0Zm-1.16-33.59c-12.15,0-21.32,9.66-21.32,22.48,0,8.34,3.65,13.59,6.71,16.52,3.95,3.78,9.32,5.95,14.73,5.95,5.9,0,9.65-2.11,11.66-3.49l1.12,3.1h10.72v-56.24h-12.11v16.7h0c-2.64-3.09-6.97-5.04-11.51-5.04h0Z"/><path class="cls-3" d="m257.37,108.13c-2.75,0-5.28-1.02-7.15-2.87-2.09-2.08-3.2-5.09-3.2-8.69,0-5.24,3.87-10.66,10.35-10.66,3.11,0,5.77,1.2,7.68,3.46,1.72,2.04,2.66,4.75,2.66,7.64,0,6.34-4.45,11.12-10.35,11.12h0Zm-1.16-33.59c-12.15,0-21.32,9.66-21.32,22.48,0,8.34,3.65,13.59,6.71,16.52,3.95,3.78,9.32,5.95,14.73,5.95,5.9,0,9.65-2.11,11.66-3.49l1.12,3.1h10.72v-43.25h-11.68l-.43,3.71h0c-2.64-3.09-6.97-5.04-11.51-5.04h0Z"/><path class="cls-3" d="m93.8,108.13c-2.75,0-5.28-1.02-7.15-2.87-2.1-2.08-3.2-5.09-3.2-8.69,0-5.24,3.87-10.66,10.35-10.66,3.11,0,5.77,1.2,7.68,3.46,1.72,2.04,2.67,4.75,2.67,7.64,0,6.34-4.45,11.12-10.35,11.12h0Zm-1.16-33.59c-12.15,0-21.32,9.66-21.32,22.48,0,8.34,3.65,13.59,6.71,16.52,3.95,3.78,9.32,5.95,14.73,5.95,5.9,0,9.65-2.11,11.66-3.49l1.12,3.1h10.72v-56.24h-12.11v16.7h0c-2.64-3.09-6.97-5.04-11.51-5.04h0Z"/><polygon class="cls-3" points="218.06 119.11 230.18 119.11 230.18 62.87 218.06 62.87 218.06 119.11 218.06 119.11"/><path class="cls-3" d="m297.89,98.52c0-7.96,3.76-12.61,10.35-12.61s10.17,3.62,10.17,10.68l.02,22.52h12.31v-24.33c0-13.88-6.64-20.25-19.2-20.25-5.08,0-11.01,2.37-13.64,5.46l-.43-4.14h-11.68v43.25h12.11v-20.58h0Z"/><polygon class="cls-2" points="168.49 138.14 168.49 156.68 231.51 156.68 231.51 138.14 168.49 138.14 168.49 138.14"/><path class="cls-1" d="m180.64,150.35c.47,0,.83-.09,1.1-.25.27-.17.4-.43.4-.79v-.03c0-.32-.12-.57-.37-.76-.25-.19-.64-.28-1.19-.28h-2.44v2.11h2.51Zm-.56-3.86c.47,0,.84-.08,1.11-.24.27-.16.41-.42.41-.77v-.03c0-.32-.12-.56-.36-.73-.24-.17-.58-.25-1.03-.25h-2.08v2.03h1.95Zm-4-3.88h4.45c1.1,0,1.94.28,2.5.85.44.44.66.98.66,1.63v.03c0,.27-.03.52-.1.73-.07.21-.16.4-.27.57-.11.17-.25.32-.4.45-.15.13-.31.24-.48.33.55.21.99.5,1.31.86.32.36.48.86.48,1.5v.03c0,.44-.08.82-.25,1.15-.17.33-.41.6-.73.82-.31.22-.69.38-1.14.49-.44.11-.93.16-1.47.16h-4.55v-9.59h0Z"/><polygon class="cls-1" points="188.67 148.42 184.98 142.61 187.45 142.61 189.74 146.46 192.07 142.61 194.46 142.61 190.78 148.37 190.78 152.2 188.67 152.2 188.67 148.42 188.67 148.42"/><path class="cls-1" d="m204.14,147.27c.52,0,.92-.12,1.2-.37.28-.25.42-.57.42-.99v-.03c0-.46-.15-.8-.44-1.03-.29-.23-.7-.34-1.22-.34h-2.1v2.76h2.14Zm-4.25-4.66h4.38c1.21,0,2.15.32,2.8.97.55.55.82,1.28.82,2.19v.03c0,.78-.19,1.41-.57,1.9-.38.49-.87.85-1.49,1.08l2.34,3.43h-2.47l-2.05-3.07h-1.66v3.07h-2.11v-9.59h0Z"/><polygon class="cls-1" points="212.03 144.55 209.11 144.55 209.11 142.61 217.06 142.61 217.06 144.55 214.14 144.55 214.14 152.2 212.03 152.2 212.03 144.55 212.03 144.55"/><polygon class="cls-1" points="218.68 142.61 220.79 142.61 220.79 150.29 225.29 150.29 225.29 152.2 218.68 152.2 218.68 142.61 218.68 142.61"/></g></svg>