<?xml version="1.0" encoding="UTF-8"?>
<svg id="Layer_1" data-name="Layer 1" xmlns="http://www.w3.org/2000/svg" viewBox="0 0 1080 1080">
  <defs>
    <style>
      .cls-1 {
        fill: none;
        stroke: #702dbd;
        stroke-linecap: round;
        stroke-linejoin: round;
        stroke-width: 25px;
      }
    </style>
  </defs>
  <polygon class="cls-1" points="439.03 266.02 673.5 266.02 673.5 111.92 603.94 193.28 535.47 124.81 470.26 190.02 392 111.76 392 266.02 439.03 266.02"/>
  <rect class="cls-1" x="319.5" y="412.5" width="106" height="211" rx="44.97" ry="44.97"/>
  <path class="cls-1" d="m703.6,624h-121.15c-27.2,0-49.45-20.24-49.45-44.97v-16.06c0-24.73,22.25-44.97,49.45-44.97h133.1c27.2,0,64.45,6,64.45,83,0,0,12,97-40,137s-55,49-55,133"/>
  <rect class="cls-1" x="426" y="352" width="106" height="272" rx="44.97" ry="44.97"/>
  <path class="cls-1" d="m532,553.03v-182.06c0-24.73,20.24-44.97,44.97-44.97h16.06c24.73,0,44.97,20.24,44.97,44.97v147.03"/>
  <path class="cls-1" d="m638,518v-110.03c0-24.73,20.24-44.97,44.97-44.97h16.06c24.73,0,44.97,20.24,44.97,44.97v114.03"/>
  <path class="cls-1" d="m328.72,605.72s-6.22,109.78,30.28,146.28,30.95,80,30.95,119"/>
  <rect class="cls-1" x="352" y="871" width="371" height="98" rx="30.78" ry="30.78"/>
</svg>