<svg id="Group_115" data-name="Group 115" xmlns="http://www.w3.org/2000/svg" xmlns:xlink="http://www.w3.org/1999/xlink" width="97.429" height="76.51" viewBox="0 0 97.429 76.51">
  <defs>
    <clipPath id="clip-path">
      <rect id="Rectangle_452" data-name="Rectangle 452" width="97.429" height="76.51" fill="none"/>
    </clipPath>
  </defs>
  <g id="Group_114" data-name="Group 114" clip-path="url(#clip-path)">
    <path id="Path_62" data-name="Path 62" d="M72.664,16.044a9.186,9.186,0,0,1-.648-13.28,9.061,9.061,0,0,1,12.437-.558c4.115,3.6,4.13,8.571.173,13.644l6.43,4.536,5.256-3.339c-3.978-4.933-4.044-9.854-.112-13.523a9.045,9.045,0,0,1,12.374.071,9.187,9.187,0,0,1-.208,13.455l5.427,3.441c.909-.774,1.869-1.712,2.95-2.477,1.06-.749,2.244-1.322,3.471-2.028A9.164,9.164,0,0,1,117.3,7.17,8.742,8.742,0,0,1,120.868,1.7,9.088,9.088,0,0,1,132.756,2.85c2.709,2.88,4.036,8.493-.681,13.191.271.136.517.265.767.385a16.157,16.157,0,0,1,9.53,12.811c.222,1.473-.368,2.148-1.874,2.149q-10.4.009-20.8,0a1.718,1.718,0,0,0-1.522.582,2.44,2.44,0,0,1-1.675.54c-8.6.033-17.206.023-25.81.023-.949,0-1.9.042-2.845-.02-.431-.028-1.065-.137-1.23-.426-.472-.823-1.167-.695-1.869-.695q-10.157,0-20.314,0c-1.874,0-2.41-.64-2.083-2.492a16.168,16.168,0,0,1,9.813-12.6c.142-.064.278-.14.506-.256m42.451,13.291c-.938-5.59-6.772-10.105-12.849-10.054-7.584.063-12.037,5.96-12.687,10.054ZM88.739,23.057c-2.755-3.9-8.542-5.808-13.659-4.455-4.61,1.218-8.916,5.65-9.282,9.595H86.364l2.375-5.14m50.2,5.186c-.863-4.712-5.24-8.9-10.2-9.84s-10.579,1.15-12.784,4.653c.69,1.541,1.393,2.978,1.97,4.464a.929.929,0,0,0,1.037.736c4.215-.022,8.43-.012,12.646-.012h7.332M72.623,9.082a5.906,5.906,0,1,0,5.892-5.939,5.934,5.934,0,0,0-5.892,5.939m59.464,0a5.928,5.928,0,1,0-5.946,5.93,5.964,5.964,0,0,0,5.946-5.93m-23.842,1.243A5.918,5.918,0,1,0,102.2,16.1a5.938,5.938,0,0,0,6.047-5.78" transform="translate(-45.931 0)"/>
    <path id="Path_63" data-name="Path 63" d="M61.378,140.712c.924-.434,1.884-.8,2.765-1.314,6-3.469,11.974-6.981,17.974-10.448a16.806,16.806,0,0,1,7.834-2.585,6.637,6.637,0,0,1,6.313,3.034,6.976,6.976,0,0,1,.211,7.384,6.692,6.692,0,0,1-2.235,2.395q-15.982,9.962-32.037,19.8A13.235,13.235,0,0,1,51.367,160.5c-7.028-1.9-14.069-3.762-21.088-5.7a3.13,3.13,0,0,0-3.009.409,15.765,15.765,0,0,1-1.6.951c.559,1,1.1,1.953,1.629,2.914a4.2,4.2,0,0,1-1.665,6.123c-1.526.887-3.057,1.767-4.607,2.61a4.134,4.134,0,0,1-5.9-1.639Q7.861,153.364.644,140.529a4.161,4.161,0,0,1,1.681-5.972q2.247-1.3,4.52-2.565a4.209,4.209,0,0,1,6.114,1.684c.261.449.513.9.815,1.435l2.651-1.531c3.82-2.209,7.626-4.443,11.464-6.621,2.741-1.555,5.642-2.721,8.862-2.274a30.6,30.6,0,0,1,4.8,1.306c4.486,1.4,8.96,2.837,13.443,4.245a15.371,15.371,0,0,0,1.531.329,6.691,6.691,0,0,1,4.925,9.416c-.073.17-.138.345-.206.517l.133.214m-37.269,12.7c1.085-.625,2.115-1.183,3.107-1.8a2.525,2.525,0,0,1,2.145-.278c7.533,2.039,15.076,4.038,22.607,6.08a10.632,10.632,0,0,0,8.753-1.207c10.6-6.546,21.21-13.067,31.783-19.652A3.913,3.913,0,0,0,94,134.6c.96-2.89-.879-5.216-3.927-5.083a15.574,15.574,0,0,0-7.118,2.569c-5.965,3.463-11.907,6.965-17.886,10.4a12.166,12.166,0,0,1-7.754,1.5c-5.114-.64-9.991-2.264-14.935-3.609a1.532,1.532,0,0,1-1.112-1.993,1.569,1.569,0,0,1,1.96-1.009c.223.05.442.115.664.174,3.5.923,7,1.888,10.516,2.754,2.244.552,4.028-.465,4.467-2.392a3.486,3.486,0,0,0-2.659-4.182,111.613,111.613,0,0,1-15.913-4.85,20.123,20.123,0,0,0-3.757-1.06c-2.587-.383-4.9.611-7.076,1.854-4.573,2.6-9.112,5.268-13.662,7.912a3.75,3.75,0,0,0-.438.352l8.744,15.474m-14.7-19.02a4.058,4.058,0,0,0-.726.19c-1.681.946-3.372,1.875-5.026,2.868-.662.4-.582,1.01-.23,1.633Q10.6,151.775,17.77,164.471c.5.877.973,1.006,1.863.516,1.4-.772,2.793-1.57,4.183-2.364,1.208-.69,1.3-1.029.593-2.275q-2.965-5.26-5.935-10.518-4.054-7.182-8.122-14.357a6.565,6.565,0,0,0-.947-1.081" transform="translate(0 -91.921)"/>
    <path id="Path_64" data-name="Path 64" d="M25.746,174.121a1.745,1.745,0,0,1,1.78,1.692,1.766,1.766,0,1,1-3.53.029,1.741,1.741,0,0,1,1.749-1.722" transform="translate(-17.704 -128.464)"/>
  </g>
</svg>
