<svg width="36" height="34" viewBox="0 0 36 34" fill="none" xmlns="http://www.w3.org/2000/svg">
<path d="M17.9987 3.10449C22.8787 3.10449 26.7487 6.89616 26.7487 11.4712C26.7487 14.3212 26.0154 15.7728 25.0854 17.0928C24.8743 17.3884 24.6426 17.6995 24.3904 18.0262C23.517 19.1678 22.467 20.5428 21.722 22.5245C21.57 22.933 21.3727 23.3232 21.1337 23.6878L21.0404 23.8212C20.8363 24.1131 20.6016 24.3824 20.3404 24.6245C19.6637 25.2445 18.8504 25.6045 17.9987 25.6045C17.1487 25.6045 16.3337 25.2445 15.6554 24.6245C15.394 24.3819 15.1593 24.112 14.9554 23.8195L14.8637 23.6862C14.6248 23.3221 14.4275 22.9325 14.2754 22.5245C13.5304 20.5412 12.4804 19.1678 11.607 18.0245C11.3694 17.7179 11.1376 17.4067 10.912 17.0912C9.9837 15.7745 9.2487 14.3212 9.2487 11.4695C9.2487 6.89616 13.1204 3.10449 17.9987 3.10449ZM23.277 24.9695C23.597 24.4695 23.8604 23.9412 24.062 23.4028C24.6654 21.7978 25.4254 20.7995 26.2587 19.7078C26.542 19.3362 26.8337 18.9528 27.1304 18.5312C28.3137 16.8512 29.2487 14.9062 29.2487 11.4695C29.2487 5.42283 24.1654 0.604492 17.9987 0.604492C11.832 0.604492 6.7487 5.42283 6.7487 11.4712C6.7487 14.9045 7.6837 16.8512 8.86703 18.5312C9.1637 18.9528 9.45537 19.3362 9.7387 19.7078C10.572 20.7995 11.332 21.7978 11.9354 23.4028C12.137 23.9412 12.402 24.4695 12.7204 24.9695L13.0904 28.6628C13.2133 29.8792 13.7834 31.0065 14.6903 31.8264C15.5972 32.6462 16.7762 33.1001 17.9987 33.1001C19.2212 33.1001 20.4002 32.6462 21.3071 31.8264C22.2139 31.0065 22.7841 29.8792 22.907 28.6628L23.277 24.9695ZM20.5104 27.5195L20.4204 28.4128C20.3613 29.0141 20.0806 29.5719 19.633 29.9776C19.1854 30.3834 18.6029 30.6082 17.9987 30.6082C17.3945 30.6082 16.812 30.3834 16.3644 29.9776C15.9168 29.5719 15.6361 29.0141 15.577 28.4128L15.4887 27.5195C16.2387 27.8895 17.0804 28.1045 17.9987 28.1045C18.9154 28.1045 19.7587 27.8878 20.5087 27.5195M2.03703 1.88616C2.2495 1.63188 2.55423 1.47237 2.88426 1.44268C3.21428 1.41299 3.54259 1.51555 3.79703 1.72783L6.29703 3.81116C6.54264 4.02602 6.69448 4.32842 6.72012 4.65373C6.74576 4.97905 6.64317 5.30149 6.43426 5.55218C6.22535 5.80287 5.92669 5.96193 5.60209 5.99537C5.27748 6.02881 4.95266 5.93399 4.69703 5.73116L2.19703 3.64783C1.94251 3.4356 1.78268 3.13098 1.75267 2.80095C1.72267 2.47091 1.82495 2.14081 2.03703 1.88616ZM33.957 1.88783C34.0623 2.01396 34.1417 2.15961 34.1906 2.31644C34.2395 2.47327 34.2571 2.63821 34.2422 2.80183C34.2274 2.96544 34.1804 3.12452 34.104 3.26997C34.0276 3.41542 33.9233 3.54439 33.797 3.64949L31.297 5.73283C31.1716 5.84257 31.0255 5.92612 30.8672 5.97856C30.709 6.031 30.5419 6.05126 30.3758 6.03817C30.2096 6.02507 30.0477 5.97887 29.8997 5.9023C29.7516 5.82572 29.6204 5.72031 29.5137 5.59226C29.407 5.46422 29.327 5.31612 29.2784 5.1567C29.2297 4.99727 29.2135 4.82973 29.2306 4.66393C29.2476 4.49813 29.2977 4.33742 29.3778 4.19126C29.4579 4.04509 29.5665 3.91643 29.697 3.81283L32.197 1.72949C32.4517 1.51741 32.7801 1.41513 33.1102 1.44513C33.4402 1.47514 33.7448 1.6333 33.957 1.88783ZM0.0820312 10.6045C0.0820312 10.273 0.213727 9.95503 0.448148 9.72061C0.682568 9.48619 1.00051 9.35449 1.33203 9.35449H4.66536C4.99689 9.35449 5.31483 9.48619 5.54925 9.72061C5.78367 9.95503 5.91536 10.273 5.91536 10.6045C5.91536 10.936 5.78367 11.254 5.54925 11.4884C5.31483 11.7228 4.99689 11.8545 4.66536 11.8545H1.33203C1.00051 11.8545 0.682568 11.7228 0.448148 11.4884C0.213727 11.254 0.0820312 10.936 0.0820312 10.6045ZM30.082 10.6045C30.082 10.273 30.2137 9.95503 30.4481 9.72061C30.6826 9.48619 31.0005 9.35449 31.332 9.35449H34.6654C34.9969 9.35449 35.3148 9.48619 35.5493 9.72061C35.7837 9.95503 35.9154 10.273 35.9154 10.6045C35.9154 10.936 35.7837 11.254 35.5493 11.4884C35.3148 11.7228 34.9969 11.8545 34.6654 11.8545H31.332C31.0005 11.8545 30.6826 11.7228 30.4481 11.4884C30.2137 11.254 30.082 10.936 30.082 10.6045ZM6.61537 16.7128C6.76355 17.0092 6.78798 17.3523 6.68329 17.6667C6.57859 17.9811 6.35333 18.2411 6.05703 18.3895L3.55703 19.6395C3.41001 19.7143 3.24963 19.7593 3.08514 19.7719C2.92065 19.7844 2.7553 19.7643 2.59862 19.7126C2.44195 19.661 2.29705 19.5788 2.17227 19.4709C2.0475 19.363 1.94533 19.2314 1.87164 19.0839C1.79795 18.9363 1.7542 18.7755 1.74293 18.6109C1.73165 18.4464 1.75306 18.2812 1.80593 18.1249C1.8588 17.9686 1.94208 17.8244 2.05097 17.7004C2.15986 17.5765 2.2922 17.4754 2.44036 17.4028L4.94036 16.1528C5.23697 16.0048 5.58024 15.9806 5.89467 16.0856C6.20911 16.1906 6.46728 16.4162 6.61537 16.7128ZM29.3837 16.7128C29.5318 16.4167 29.7913 16.1914 30.1054 16.0864C30.4194 15.9814 30.7623 16.0053 31.0587 16.1528L33.5587 17.4028C33.7069 17.4754 33.8392 17.5765 33.9481 17.7004C34.057 17.8244 34.1403 17.9686 34.1931 18.1249C34.246 18.2812 34.2674 18.4464 34.2561 18.6109C34.2449 18.7755 34.2011 18.9363 34.1274 19.0839C34.0537 19.2314 33.9516 19.363 33.8268 19.4709C33.702 19.5788 33.5571 19.661 33.4004 19.7126C33.2438 19.7643 33.0784 19.7844 32.9139 19.7719C32.7494 19.7593 32.5891 19.7143 32.442 19.6395L29.942 18.3895C29.6454 18.2414 29.4198 17.9816 29.3148 17.6671C29.2098 17.3527 29.2356 17.0094 29.3837 16.7128Z" fill="#333332"/>
</svg>
