<?xml version="1.0" encoding="utf-8"?>
<!-- Generator: Adobe Illustrator 27.2.0, SVG Export Plug-In . SVG Version: 6.00 Build 0)  -->
<svg version="1.1" id="Laag_1" xmlns="http://www.w3.org/2000/svg" xmlns:xlink="http://www.w3.org/1999/xlink" x="0px" y="0px"
	 viewBox="0 0 522.7 560" style="enable-background:new 0 0 522.7 560;" xml:space="preserve">
<style type="text/css">
	.st0{fill-rule:evenodd;clip-rule:evenodd;fill:#010101;}
</style>
<g>
	<path class="st0" d="M454.7,541.3h11.9V504h-24.4L454.7,541.3z M476,560h-28c-4,0-7.6-2.6-8.8-6.4l-18.7-56c-1-2.8-0.5-6,1.3-8.4
		c1.8-2.4,4.6-3.9,7.6-3.9H476c5.2,0,9.3,4.2,9.3,9.3v56C485.3,555.8,481.2,560,476,560L476,560z"/>
	<path class="st0" d="M56,541.3h11.9L80.4,504H56V541.3z M74.7,560h-28c-5.2,0-9.3-4.2-9.3-9.3v-56c0-5.2,4.2-9.3,9.3-9.3h46.7
		c3,0,5.8,1.4,7.6,3.9c1.7,2.4,2.2,5.6,1.3,8.4l-18.7,56C82.3,557.4,78.7,560,74.7,560L74.7,560z"/>
	<path class="st0" d="M37.3,448h448V56h-448V448z M494.7,466.7H28c-5.2,0-9.3-4.2-9.3-9.3V46.7c0-5.2,4.2-9.3,9.3-9.3h466.7
		c5.2,0,9.3,4.2,9.3,9.3v410.7C504,462.5,499.8,466.7,494.7,466.7z"/>
	<path class="st0" d="M18.7,37.3H504V18.7H18.7L18.7,37.3z M513.3,56H9.3C4.2,56,0,51.8,0,46.7V9.3C0,4.2,4.2,0,9.3,0h504
		c5.2,0,9.3,4.2,9.3,9.3v37.3C522.7,51.8,518.5,56,513.3,56z"/>
	<path class="st0" d="M18.7,485.3H504v-18.7H18.7L18.7,485.3z M513.3,504H9.3c-5.2,0-9.3-4.2-9.3-9.3v-37.3c0-5.2,4.2-9.3,9.3-9.3
		h504c5.2,0,9.3,4.2,9.3,9.3v37.3C522.7,499.8,518.5,504,513.3,504z"/>
	<path class="st0" d="M74.7,410.7H448V93.3H74.7L74.7,410.7z M457.3,429.3h-392c-5.2,0-9.3-4.2-9.3-9.3V84c0-5.2,4.2-9.3,9.3-9.3
		h392c5.2,0,9.3,4.2,9.3,9.3v336C466.7,425.2,462.5,429.3,457.3,429.3z"/>
	<path class="st0" d="M457.3,158.7h-392c-5.2,0-9.3-4.2-9.3-9.3c0-5.2,4.2-9.3,9.3-9.3h392c5.2,0,9.3,4.2,9.3,9.3
		S462.5,158.7,457.3,158.7"/>
	<path class="st0" d="M345.3,214.7c-5.2,0-9.3-4.2-9.3-9.3v-28c0-5.2,4.2-9.3,9.3-9.3c10.3,0,18.7-8.4,18.7-18.7
		c0-10.3-8.4-18.7-18.7-18.7s-18.7,8.4-18.7,18.7c0,5.2-4.2,9.3-9.3,9.3s-9.3-4.2-9.3-9.3c0-20.6,16.7-37.3,37.3-37.3
		s37.3,16.7,37.3,37.3c0,17.4-11.9,32-28,36.2v19.8C354.7,210.5,350.5,214.7,345.3,214.7"/>
	<path class="st0" d="M261.3,214.7c-5.2,0-9.3-4.2-9.3-9.3v-28c0-5.2,4.2-9.3,9.3-9.3c10.3,0,18.7-8.4,18.7-18.7
		c0-10.3-8.4-18.7-18.7-18.7s-18.7,8.4-18.7,18.7c0,5.2-4.2,9.3-9.3,9.3s-9.3-4.2-9.3-9.3c0-20.6,16.7-37.3,37.3-37.3
		s37.3,16.7,37.3,37.3c0,17.4-11.9,32-28,36.2v19.8C270.7,210.5,266.5,214.7,261.3,214.7"/>
	<path class="st0" d="M177.3,214.7c-5.2,0-9.3-4.2-9.3-9.3v-28c0-5.2,4.2-9.3,9.3-9.3c10.3,0,18.7-8.4,18.7-18.7
		c0-10.3-8.4-18.7-18.7-18.7s-18.7,8.4-18.7,18.7c0,5.2-4.2,9.3-9.3,9.3s-9.3-4.2-9.3-9.3c0-20.6,16.7-37.3,37.3-37.3
		s37.3,16.7,37.3,37.3c0,17.4-11.9,32-28,36.2v19.8C186.7,210.5,182.5,214.7,177.3,214.7"/>
	<path class="st0" d="M140,345.3h74.7v-84c0-5.2,4.2-9.3,9.3-9.3h18.7v-9.3c0-13.6-22.9-28-65.3-28s-65.3,14.4-65.3,28v9.3h18.7
		c5.2,0,9.3,4.2,9.3,9.3L140,345.3z M224,364h-93.3c-5.2,0-9.3-4.2-9.3-9.3v-84h-18.7c-5.2,0-9.3-4.2-9.3-9.3v-18.7
		c0-27.9,33.8-46.7,84-46.7s84,18.8,84,46.7v18.7c0,5.2-4.2,9.3-9.3,9.3h-18.7v84C233.3,359.8,229.2,364,224,364z"/>
	<path class="st0" d="M392,364h-84c-5.2,0-9.3-4.2-9.3-9.3s4.2-9.3,9.3-9.3h74.7v-84c0-5.2,4.2-9.3,9.3-9.3h18.7v-9.3
		c0-13.6-22.9-28-65.3-28c-14.9,0-28,1.8-39.2,5.3c-4.9,1.6-10.2-1.2-11.7-6.1c-1.6-4.9,1.2-10.2,6.1-11.7c13-4.1,28-6.2,44.8-6.2
		c50.2,0,84,18.8,84,46.7v18.7c0,5.2-4.2,9.3-9.3,9.3h-18.7v84C401.3,359.8,397.2,364,392,364"/>
	<path class="st0" d="M308,364h-84c-5.2,0-9.3-4.2-9.3-9.3s4.2-9.3,9.3-9.3h74.7v-84c0-5.2,4.2-9.3,9.3-9.3h18.7v-9.3
		c0-13.6-22.9-28-65.3-28c-14.9,0-28,1.8-39.2,5.3c-4.9,1.6-10.2-1.2-11.7-6.1c-1.6-4.9,1.2-10.2,6.1-11.7c13-4.1,28-6.2,44.8-6.2
		c50.2,0,84,18.8,84,46.7v18.7c0,5.2-4.2,9.3-9.3,9.3h-18.7v84C317.3,359.8,313.2,364,308,364"/>
</g>
</svg>
