<?xml version="1.0" encoding="utf-8"?>
<!-- Generator: Adobe Illustrator 27.2.0, SVG Export Plug-In . SVG Version: 6.00 Build 0)  -->
<svg version="1.1" id="Laag_1" xmlns="http://www.w3.org/2000/svg" xmlns:xlink="http://www.w3.org/1999/xlink" x="0px" y="0px"
	 viewBox="0 0 565.7 538.6" style="enable-background:new 0 0 565.7 538.6;" xml:space="preserve">
<style type="text/css">
	.st0{fill:#010101;}
</style>
<path class="st0" d="M564.7,482.1V368.8c0-3.1-1.4-5.9-3.8-7.7v-0.3l-85.9-36.6V207.9c0-3.9-2.3-7.4-5.9-9c0,0-68.1-29-86.2-36.7
	l0-113.9c0-3.9-2.3-7.4-5.9-9c0,0-90.3-38.4-90.7-38.6c-2.4-1-5.2-1-7.7,0l-90.7,38.6c-3.6,1.5-5.9,5.1-5.9,9v114.1l-85.8,36.5
	c-3.6,1.5-5.9,5.1-5.9,9V324L5.9,359.9c-3.6,1.5-5.9,5.1-5.9,9v120.9c0,3.9,2.3,7.4,5.9,9l90.6,38.7c0.4,0.2,0.9,0.3,1.4,0.5
	l0.5,0.1h0.1c0.7,0.1,1.3,0.2,2,0.2c0.8,0,1.7-0.1,2.5-0.3l1.5-0.2l0.2-0.4l87.7-37.5l86.1,36.8c0.4,0.2,0.9,0.3,1.3,0.5l0.1,0
	c0.8,0.2,1.6,0.3,2.5,0.3c0.7,0,1.5-0.1,2.2-0.3l1,0l0.5-0.5c0.1,0,0.1-0.1,0.2-0.1l86.1-36.8l88,37.6c0.1,0,0.1,0,0.2,0.1l0.4,0.5
	h1.3c0.6,0.1,1.3,0.2,2,0.2c0.1,0,0.2,0,0.3,0l0.3,0.4l2.4-0.8c0.2-0.1,0.4-0.1,0.6-0.2l1.7-0.6v-0.1l89.2-38.1
	c3.6-1.5,5.9-5.1,5.9-9v-7.2l1.1-0.5H564.7z M440.2,207.9L374.5,236l-23.1-9.9l65.5-28.1L440.2,207.9z M364.7,253.1v99.6l-71.1-30.4
	v-99.6L364.7,253.1z M348.1,368l-65.7,28.1l-23.1-9.9l65.5-28.1L348.1,368z M272.6,413.2v99.6l-71.1-30.4v-99.6L272.6,413.2z
	 M271.4,222.7v99.6l-71.1,30.4v-99.6L271.4,222.7z M124.8,207.9l65.7-28c3,1.3,8.3,3.5,17.5,7.4l-65.5,28.1L124.8,207.9z
	 M256.3,207.9L190.5,236l-23.1-9.9l65.5-28.1C239.7,200.9,247.4,204.2,256.3,207.9z M201.5,162.8V63.2l71.1,30.4v99.6L201.5,162.8z
	 M259.2,66.6l65.5-28.1l23.3,9.9l-65.7,28.1L259.2,66.6z M216.6,368l65.7-28c3,1.3,8.3,3.5,17.5,7.5l-65.5,28.1L216.6,368z
	 M292.1,93.5l71.1-30.4l0,99.6l-71.1,30.4L292.1,93.5z M308.8,207.9l65.7-28c3,1.3,8.3,3.5,17.5,7.4l-65.5,28.1L308.8,207.9z
	 M216.6,48.4l65.7-28c2.9,1.2,7.9,3.4,16.5,7l1.1,0.4L234.4,56L216.6,48.4z M181.3,383.7v99.6l-71.1,30.4V414L181.3,383.7z
	 M34.7,368.9l65.7-28c3,1.3,8.3,3.5,17.5,7.5l-65.5,28.1L34.7,368.9z M166.2,368.9l-65.7,28.1l-23.1-9.9l65.5-28.1L166.2,368.9z
	 M109.7,322.3v-99.6l71.1,30.4v99.6L109.7,322.3z M90.7,414v99.6l-71.1-30.4v-99.6L90.7,414z M363.2,382.8v99.6l-71.1,30.4v-99.6
	L363.2,382.8z M530,368.9l-65.7,28.1l-23.1-9.9l65.5-28.1C513.4,361.8,521.1,365.1,530,368.9z M454.5,414v99.6l-71.1-30.4v-99.6
	L454.5,414z M384.3,352.7v-99.6l71.1-30.4v99.6L384.3,352.7z M398.5,368.9l65.7-28l17.5,7.4l-65.5,28.1L398.5,368.9z M545.1,383.7
	v99.6L474,513.6V414L545.1,383.7z"/>
</svg>
