<?xml version="1.0" encoding="UTF-8"?>
<svg width="499px" height="154px" viewBox="0 0 499 154" version="1.1" xmlns="http://www.w3.org/2000/svg" xmlns:xlink="http://www.w3.org/1999/xlink">
    <title>infobip-horizontal</title>
    <g id="Page-1" stroke="none" stroke-width="1" fill="none" fill-rule="evenodd">
        <g id="infobip-horizontal" fill-rule="nonzero">
            <path d="M54.4791241,98.7491403 L54.4791241,98.7425937 C55.7196663,99.9831363 59.4969378,103.760408 76.6845059,103.760408 C93.8720737,103.760408 97.6460722,99.9864094 98.8866147,98.7491403 C100.127157,97.5118709 103.901155,93.7378725 103.901155,76.5470316 C103.901155,59.3561903 100.14025,55.5821919 98.8866147,54.3416497 C97.6329794,53.1011072 93.8753469,49.3271088 76.6845059,49.3271088 C59.4936647,49.3271088 55.7196663,53.1011072 54.4791241,54.3416497 C53.2385816,55.5821919 49.4645831,59.3561903 49.4645831,76.5470316 C49.4645831,93.7378725 53.2385816,97.5118709 54.4791241,98.7491403 Z M40.7709666,40.7676934 C46.7216422,34.8137444 60.8618619,30.9677356 76.7957947,30.9677356 C92.7297272,30.9677356 106.876493,34.8137444 112.827169,40.7676934 C118.777845,46.7216422 122.627127,60.8618619 122.627127,76.7957947 C122.627127,92.7297272 118.777845,106.869947 112.827169,112.823896 C106.87322,118.777845 92.7100881,122.623854 76.7957947,122.623854 C60.8815013,122.623854 46.7609206,118.777845 40.7873325,112.823896 C34.8137444,106.869947 30.9677356,92.7297272 30.9677356,76.7957947 C30.9677356,60.8618619 34.8137444,46.7216422 40.7709666,40.7676934 Z M32.8923766,121.00362 C41.2914053,129.409195 57.7261372,134.423736 76.8547122,134.423736 C95.9832872,134.423736 112.411473,129.402649 120.817048,121.00362 C129.222623,112.604592 134.237164,96.1698594 134.237164,77.0412844 C134.237164,57.9127097 129.216076,41.4845241 120.817048,33.0789491 C112.418019,24.673374 95.9832872,19.6588331 76.8547122,19.6588331 C57.7261372,19.6588331 41.2979516,24.6799203 32.8923766,33.0789491 C24.4868016,41.4779775 19.4722608,57.9127097 19.4722608,77.0412844 C19.4722608,96.1698594 24.493348,112.604592 32.8923766,121.00362 L32.8923766,121.00362 Z M-8.32667268e-13,76.7957947 C-8.32667268e-13,34.3685894 34.3849553,0 76.7957947,0 C118.856402,0 153.015506,33.8088722 153.588316,75.732005 C154.167672,118.686195 118.692742,154.167672 75.7352781,153.588316 C33.8121456,153.018779 -8.32667268e-13,118.856402 -8.32667268e-13,76.7957947 Z M66.2855528,61.9256516 L87.3093097,61.9256516 C89.7154087,61.9256516 91.6659375,63.8761803 91.6659375,66.2822794 L91.6659375,87.3093097 C91.6659375,89.7154087 89.7154087,91.6659375 87.3093097,91.6659375 L66.2855528,91.6659375 C63.8794534,91.6659375 61.9289247,89.7154087 61.9289247,87.3093097 L61.9289247,66.2822794 C61.9289247,63.8761803 63.8794534,61.9256516 66.2855528,61.9256516 Z" id="Shape" fill="#E9530E"></path>
            <path d="M189.403659,54.1125256 L206.152619,54.1125256 L206.152619,101.220405 L189.403659,101.220405 L189.403659,54.1125256 Z M215.193194,101.217132 L215.193194,54.1125256 L228.518387,54.1125256 L230.609961,59.2514481 C234.511615,55.0617534 239.650537,52.9679972 246.026728,52.9701774 C251.643538,52.9701774 256.114728,54.6820622 259.63669,58.2072975 C263.158652,61.6310637 264.873808,66.0106041 264.873808,71.4342947 L264.873808,101.220405 L248.108483,101.220405 L248.108483,74.1936016 C248.108483,69.9089841 244.969485,66.6652438 240.684868,66.6652438 C235.447749,66.6652438 231.929061,70.3737781 231.929061,75.9905875 L231.929061,101.19422 L215.193194,101.217132 Z M268.677266,66.7732594 L268.677266,54.1092525 L276.585314,54.1092525 L276.585314,49.7329853 C276.585314,44.6889856 278.205548,40.6924097 281.439468,37.6450616 C284.771585,34.5900759 289.05402,33.0624413 294.286774,33.0624413 C298.238404,33.0526625 302.174053,33.5644291 305.991734,34.5846206 L303.90016,46.9573125 C302.079128,46.6099728 300.231825,46.4183437 298.378273,46.3845028 C295.334198,46.3845028 293.337547,48.2895047 293.337547,51.4285025 L293.337547,54.0928866 L303.032762,54.0928866 L303.032762,66.7732594 L293.327727,66.7732594 L293.327727,101.217132 L276.585314,101.217132 L276.585314,66.7732594 L268.677266,66.7732594 Z M332.066038,89.41725 C337.774497,89.41725 341.865994,84.5630959 341.865994,77.7122903 C341.865994,70.7632887 337.774497,65.9287741 332.066038,65.9287741 C326.357578,65.9287741 322.357728,70.779655 322.357728,77.7122903 C322.357728,84.5630959 326.357578,89.41725 332.066038,89.41725 Z M312.754163,59.9159075 C317.798163,55.2515987 324.174353,52.9701791 332.066038,52.9701791 C339.957719,52.9701791 346.435381,55.2614184 351.377913,59.9159075 C356.421909,64.4983859 358.906269,70.3901441 358.906269,77.7122903 C358.906269,84.94606 356.431731,90.8443647 351.377913,95.5086731 C346.428834,100.091152 339.957719,102.362752 332.066038,102.362752 C324.174353,102.362752 317.791616,100.071512 312.754163,95.5086731 C307.710163,90.8443647 305.225805,84.94606 305.225805,77.7122903 C305.225805,70.4785206 307.700344,64.5802159 312.754163,59.9159075 Z M380.309716,80.193375 C380.309716,85.4304934 383.736756,89.2339506 388.780756,89.2339506 C394.204447,89.2339506 398.1061,84.4747194 398.1061,77.7188369 C398.1061,70.8680312 394.204447,66.1088 388.780756,66.1088 C383.736756,66.1088 380.309716,69.9155303 380.309716,75.2442984 L380.309716,80.193375 Z M363.845525,101.223679 L363.845525,34.2212953 L380.594484,34.2212953 L380.594484,57.4413691 C384.147572,54.4929934 388.635297,52.9077256 393.251947,52.9701791 C399.628138,52.9701791 404.861981,55.2614184 408.9633,59.9159075 C413.0548,64.4983859 415.149647,70.3901441 415.149647,77.7122903 C415.149647,84.94606 413.0548,90.8443647 408.9633,95.5086731 C404.867438,100.078059 399.630319,102.362752 393.251947,102.362752 C387.543487,102.362752 382.879178,100.552673 379.262294,96.8408653 L377.170719,101.217132 L363.845525,101.223679 Z M421.23125,54.1125256 L437.983484,54.1125256 L437.983484,101.217132 L421.23125,101.217132 L421.23125,54.1125256 Z M429.607366,32.1264481 C435.3191,32.1264481 439.220753,36.1230241 439.220753,41.7365603 C439.220753,47.1635241 435.3191,51.2550228 429.607366,51.2550228 C424.183675,51.2550228 420.092178,47.1635241 420.092178,41.7365603 C420.092178,36.1230241 424.183675,32.1264481 429.607366,32.1264481 Z M463.484975,80.193375 C463.484975,85.4304934 466.912016,89.2339506 471.956016,89.2339506 C477.379706,89.2339506 481.281359,84.4747194 481.281359,77.7188369 C481.281359,70.8680312 477.379706,66.1088 471.956016,66.1088 C466.912016,66.1088 463.484975,69.9155303 463.484975,75.2442984 L463.484975,80.193375 Z M447.024059,121.019986 L447.024059,54.1125256 L460.345978,54.1125256 L462.437553,58.4887928 C466.057709,54.776985 470.718747,52.9701791 476.430478,52.9701791 C482.806669,52.9701791 488.040516,55.2614184 492.141834,59.9159075 C496.233331,64.4983859 498.328178,70.3901441 498.328178,77.7122903 C498.328178,84.94606 496.233331,90.8443647 492.141834,95.5086731 C488.050334,100.078059 482.813216,102.362752 476.430478,102.362752 C471.818759,102.392194 467.341662,100.809522 463.773019,97.8882887 L463.773019,121.01344 L447.024059,121.019986 Z M189.403659,32.3424791 L206.152619,32.3424791 L206.152619,49.0914384 L189.403659,49.0914384 L189.403659,32.3424791 Z" id="Combined-Shape" fill="#263746"></path>
        </g>
    </g>
</svg>