<svg xmlns="http://www.w3.org/2000/svg" xmlns:xlink="http://www.w3.org/1999/xlink" version="1.1" id="Laag_1" x="0px" y="0px" viewBox="0 0 1788.617 2220" style="enable-background:new 0 0 1788.617 2220;" xml:space="preserve" width="1788.617"  height="2220" >
<g>
	<g>
		<path style="fill:#FFFFFF;" d="M288.814,1582.509l64.488,68.173l316.912-316.912l-66.33-66.33    c-210.046-210.046-210.046-552.753,0-762.799s552.753-210.046,762.799,0l66.331,66.33l316.912-316.912l-66.331-66.33    C1604.957,109.091,1516.328,46.521,1421.793,0H550.615C456.08,46.521,367.451,109.091,288.814,187.729    C-96.271,572.813-96.271,1197.424,288.814,1582.509z"/>
		<path style="fill:#FFFFFF;" d="M1788.617,1333.77c0-265.322-105.023-510.375-291.117-696.469l-66.33-66.33l-316.912,316.912    l66.33,66.33c101.338,101.338,156.614,235.841,156.614,381.4c0,143.716-55.275,280.062-156.613,381.4    c-101.338,101.338-235.841,156.613-381.4,156.613c-143.716,0-280.062-55.275-381.4-156.613l-66.33-66.33L36.39,1965.752    l66.33,66.33c77.52,77.521,165.599,140.638,261.158,187.918h873.748c95.799-47.28,184.197-110.397,261.717-187.918    C1685.437,1845.988,1788.617,1599.092,1788.617,1333.77z"/>
	</g>
	<g>
		<path d="M509.168,814.253h-35.655l-18.085-197.91l-18.603,197.91h-37.721l-41.856-413.39h47.539l18.603,217.547l17.569-217.547    h28.421l18.085,217.547l20.154-217.547h43.922L509.168,814.253z"/>
		<path d="M639.901,814.253V636.495h-25.32v177.758h-48.056v-413.39h48.056v183.442h25.32V400.862h48.058v413.39H639.901z"/>
		<path d="M782.522,814.253l-3.101-74.927H751l-4.65,74.927h-42.889l33.587-413.39h60.975l34.106,413.39H782.522z M767.536,521.779    l-12.401,164.839h21.186L767.536,521.779z"/>
		<path d="M915.848,455.119v359.133h-48.056V455.119H833.17v-54.257h114.716v54.257H915.848z"/>
		<path d="M1100.318,455.119v359.133h-48.056V455.119h-34.622v-54.257h114.716v54.257H1100.318z"/>
		<path d="M1222.266,814.253V636.495h-25.32v177.758h-48.056v-413.39h48.056v183.442h25.32V400.862h48.057v413.39H1222.266z"/>
		<path d="M1293.059,814.253v-413.39h100.247v49.607h-52.191v126.084h35.139v49.607h-35.139v138.486h52.191v49.607H1293.059z"/>
		<path d="M477.509,1015.543v269.047h80.502v101.687h-80.502v374.969h-98.509V913.857h205.492v101.687H477.509z"/>
		<path d="M743.378,1761.246l-6.356-153.59h-58.258l-9.533,153.59h-87.916l68.851-847.389h124.989l69.91,847.389H743.378z     M712.66,1161.717l-25.422,337.897h43.429L712.66,1161.717z"/>
		<path d="M1028.31,1768.66c-3.179,8.474-6.356,21.185-6.356,32.837c0,16.948,5.297,27.54,16.948,27.54    c11.651,0,15.889-14.83,15.889-26.481c0-6.355-2.119-15.888-4.238-21.185h41.311c3.177,8.474,8.474,24.362,8.474,41.31    c0,39.192-24.363,66.733-72.028,66.733c-50.843,0-75.205-27.541-75.205-75.207c0-18.006,5.295-37.073,11.651-47.665    c-52.962-15.888-91.095-68.851-91.095-139.819v-578.344c0-85.797,57.199-145.114,126.049-145.114    c68.851,0,126.05,59.317,126.05,145.114v578.344C1125.76,1700.869,1083.391,1754.89,1028.31,1768.66z M1025.132,1040.965    c0-19.066-9.532-30.718-25.422-30.718c-16.948,0-26.48,11.652-26.48,30.718v593.172c0,19.066,9.532,30.718,26.48,30.718    c15.889,0,25.422-11.652,25.422-30.718V1040.965z"/>
		<path d="M1305.812,1499.615c0,22.244,6.356,59.317,11.651,81.562h-85.797c-6.356-29.66-12.711-79.444-12.711-106.983    c0-171.597,83.679-221.381,83.679-425.814c0-25.422-14.829-38.132-27.541-38.132c-13.769,0-23.303,12.711-23.303,38.132v134.524    h-91.094v-123.931c0-85.798,45.547-155.707,114.396-155.707c83.681,0,121.813,80.501,121.813,195.958    C1396.907,1264.464,1305.812,1304.715,1305.812,1499.615z M1229.547,1761.246v-112.278h90.035v112.278H1229.547z"/>
	</g>
</g>
<g>
</g>
<g>
</g>
<g>
</g>
<g>
</g>
<g>
</g>
<g>
</g>
<g>
</g>
<g>
</g>
<g>
</g>
<g>
</g>
<g>
</g>
<g>
</g>
<g>
</g>
<g>
</g>
<g>
</g>
<script xmlns=""/></svg>