<?xml version="1.0" encoding="utf-8"?>
<!-- Generator: Adobe Illustrator 27.2.0, SVG Export Plug-In . SVG Version: 6.00 Build 0)  -->
<svg version="1.0" id="Isolatiemodus" xmlns="http://www.w3.org/2000/svg" xmlns:xlink="http://www.w3.org/1999/xlink" x="0px"
	 y="0px" viewBox="0 0 541.7 520.6" style="enable-background:new 0 0 541.7 520.6;" xml:space="preserve">
<style type="text/css">
	.st0{fill:#702DBD;}
</style>
<g>
	<path class="st0" d="M541.6,283.1c0-0.1,0-0.2-0.1-0.4l-11.8-49.1c-1-3.7-4.4-6.4-8.3-6.5H410.6V57.9c0-0.6,0-1.2,0-1.8
		c0-0.1,0-0.2,0-0.3L398.7,6.5c-1-3.7-4.4-6.4-8.3-6.5L151.4,0c-3.9,0.1-7.3,2.7-8.3,6.5l-11.8,49.3c0,0.1,0,0.2,0,0.3
		c0,0.6-0.1,1.2,0,1.8v169.2l-110.9,0c-3.9,0.1-7.3,2.7-8.3,6.5l-12,49.2c0,0.1,0,0.2-0.1,0.3c0,0.6-0.1,1.3,0,1.9v211.6
		c0,6.3,2.5,12.5,7,17c4.5,4.5,10.5,7.1,16.9,7.1h231.9c0,0,0.1,0,0.1,0c5.6,0,11-2,15.2-5.6c4.2,3.6,9.7,5.6,15.2,5.6
		c0,0,0.1,0,0.1,0h231.9c0,0,0.1,0,0.1,0c6.3-0.2,12.1-2.8,16.5-7.3c4.4-4.5,6.8-10.5,6.8-16.8V285
		C541.7,284.3,541.7,283.7,541.6,283.1z M411,253.3c0-3.5-0.1-6.8,0-9.1h14.1l7.8,32.1H410C411.1,271.3,411.2,263.1,411,253.3z
		 M450.5,276.2l-7.8-32.1H515l7.8,32.1H450.5z M435.2,355.6c-1.4-0.8-3.2-1.9-5-3c-23.3-14-25.7-14.8-27.3-14.4
		c-2-0.3-4,0.1-5.8,1.1l-27.8,16.3v-62.1h65.8V355.6z M279.7,293.8h72.7v76.7c0,3.1,1.6,5.9,4.3,7.5c2.7,1.5,5.8,1.5,8.5,0
		l37.1-21.7l37.2,21.4c2.7,1.5,5.9,1.5,8.5,0c2.7-1.5,4.3-4.4,4.2-7.4v-76.8h72.7v203.1c0,1.8-0.7,3.5-2,4.8c-1.3,1.3-3,2-4.8,2
		H286.4c-1.8,0-3.5-0.7-4.8-2c-1.3-1.3-2-3-2-4.8L279.7,293.8z M148.4,269.5c0,0,0-0.1,0-0.1l0-202.7h72.7v76.8c0,3,1.6,5.9,4.3,7.4
		c2.6,1.5,5.9,1.5,8.5,0l37.1-21.7l37.2,21.5c2.6,1.5,5.9,1.5,8.5,0c2.6-1.5,4.3-4.3,4.3-7.4V66.4h72.7v203.1c0,1.8-0.7,3.5-2,4.8
		c-1.3,1.3-3,2-4.8,2H155.2c-1.8,0-3.5-0.7-4.8-2C149.2,273,148.4,271.3,148.4,269.5z M151.1,49.2l7.3-32.1h72.8l-7.8,32.1H151.1z
		 M319.2,49.2l-7.8-31.9h72.4l7.7,31.9H319.2z M303.9,128.5c-1.4-0.9-3.3-2-5.1-3c-20.5-12.3-24.8-14.4-26.6-14.4
		c-0.1,0-0.3,0-0.4,0c-2-0.3-4.1,0-6,1.1l-27.8,16.3V66.4h65.8V128.5z M240.6,49.2l7.8-31.9h45.5l7.8,31.9H240.6z M132.3,276.2
		h-22.9l8-32.1h14c0,2,0,4.7-0.1,7.8C131.1,262.4,131,271.1,132.3,276.2z M94.2,378c2.7,1.5,5.8,1.5,8.5,0l37.1-21.7l37.2,21.4
		c2.7,1.5,5.9,1.5,8.5,0c2.7-1.5,4.3-4.4,4.2-7.4v-76.8h72.7v203.1c0,1.8-0.7,3.5-2,4.8c-1.3,1.3-3,2-4.8,2H23.9
		c-1.8,0-3.5-0.7-4.8-2c-1.3-1.3-2-3-2-4.8V293.4l72.7,0.4v76.7C89.9,373.6,91.5,376.4,94.2,378z M172.7,355.6c-1.4-0.8-3.2-1.9-5-3
		c-23.3-14-25.7-14.8-27.3-14.4c-2-0.3-4,0.1-5.8,1.1l-27.8,16.3v-62.1h65.8V355.6z M100,244.3l-7.8,32.1H19.9l7.3-32L100,244.3z"/>
	<path class="st0" d="M47.6,438.3c-3.9,3.9-6,9-6,14.5v12.6c0,5.4,2.2,10.7,6.1,14.6c3.8,3.8,9.1,6,14.5,6c0,0,0.1,0,0.1,0h46.8l0,0
		c5.5,0,10.7-2.1,14.6-6.1c3.9-3.9,6-9.1,6-14.6v-12.5c0-5.4-2.2-10.7-6.1-14.6c-3.8-3.8-9.1-6-14.5-6c0,0-0.1,0-0.1,0H62.2
		C56.7,432.2,51.5,434.4,47.6,438.3z M112.5,452.8v12.6c0,1.9-1.5,3.4-3.4,3.4H62.3c-1.9,0-3.4-1.5-3.4-3.4v-12.5
		c0-1.9,1.5-3.4,3.4-3.4c0,0,0,0,0,0l46.8-0.1C111,449.4,112.5,450.9,112.5,452.8z"/>
	<path class="st0" d="M193.4,258.8C193.4,258.8,193.5,258.8,193.4,258.8h46.9c0,0,0,0,0,0c5.5,0,10.6-2.2,14.5-6.1
		c3.9-3.9,6-9,6-14.5v-12.5c0-5.5-2.1-10.6-6-14.5c-3.9-3.9-9-6-14.5-6h-46.8c-5.5,0-10.6,2.1-14.5,6c-3.9,3.9-6,9-6,14.5v12.5
		c0,5.5,2.2,10.7,6.1,14.6C182.7,256.6,188,258.8,193.4,258.8z M243.7,225.7v12.5c0,1.9-1.5,3.4-3.4,3.4h-46.8
		c-1.9,0-3.4-1.5-3.4-3.4v-12.5c0-1.9,1.5-3.4,3.4-3.4h46.8C242.2,222.3,243.7,223.8,243.7,225.7z"/>
	<path class="st0" d="M324.7,485.9C324.7,485.9,324.7,485.9,324.7,485.9h46.9v0c5.5,0,10.7-2.1,14.6-6.1c3.9-3.9,6-9.1,6-14.6v-12.5
		c0-5.4-2.2-10.7-6.1-14.6c-3.8-3.8-9.2-6-14.6-6h-46.8c-5.4,0-10.7,2.2-14.5,6c-3.9,3.9-6,9-6,14.5v12.6c0,5.4,2.2,10.7,6.1,14.6
		C314,483.8,319.3,485.9,324.7,485.9z M324.9,449.5l46.7-0.1c1.9,0,3.4,1.5,3.4,3.4v12.6c0,1.9-1.5,3.4-3.4,3.4h-46.8
		c-1.9,0-3.4-1.5-3.4-3.4v-12.5c0-1.9,1.5-3.4,3.4-3.4C324.8,449.5,324.8,449.5,324.9,449.5z"/>
</g>
</svg>
