<?xml version="1.0" encoding="utf-8"?>
<!-- Generator: Adobe Illustrator 25.4.1, SVG Export Plug-In . SVG Version: 6.00 Build 0)  -->
<svg version="1.1" id="Laag_1" xmlns="http://www.w3.org/2000/svg" xmlns:xlink="http://www.w3.org/1999/xlink" x="0px" y="0px"
	 viewBox="0 0 773.9 159.5" style="enable-background:new 0 0 773.9 159.5;" xml:space="preserve">
<style type="text/css">
	.st0{fill:#FFFFFF;}
</style>
<g>
	<g>
		<g>
			<path class="st0" d="M43.2,109.1l17.2-17.2l-3.6-3.6c-11.4-11.4-11.4-30,0-41.4s30-11.4,41.4,0l3.6,3.6L119,33.3l-3.6-3.6
				c-20.9-20.9-54.8-20.9-75.7,0s-20.9,54.8,0,75.7L43.2,109.1z"/>
		</g>
		<g>
			<path class="st0" d="M105.3,54.1l-3.6-3.6L84.5,67.7l3.6,3.6c5.5,5.5,8.5,12.8,8.5,20.7c0,7.8-3,15.2-8.5,20.7
				s-12.8,8.5-20.7,8.5l0,0c-7.8,0-15.2-3-20.7-8.5l-3.6-3.6L26,126.2l3.6,3.6c10.1,10.1,23.5,15.7,37.9,15.7
				c14.3,0,27.8-5.6,37.9-15.7c10.1-10.1,15.7-23.5,15.7-37.9S115.4,64.2,105.3,54.1z"/>
		</g>
	</g>
	<g>
		<path class="st0" d="M201.5,94.1c3.4,4.2,6.9,7.5,10.6,9.8c3.7,2.3,8.4,3.5,14,3.5c2.9,0,5.6-0.4,8.3-1.2c2.7-0.8,4.8-2,6.5-3.6
			s2.5-3.6,2.5-5.9c0-3.5-1.8-6.1-5.3-7.7s-8.4-3-14.7-3.9c-7.9-1.3-14.2-3.7-18.9-7.1s-7-8.4-7-15c0-4.3,1.3-8.1,3.9-11.3
			c2.6-3.2,6-5.6,10.3-7.3s9-2.5,14.1-2.5c6.5,0,12,1.1,16.8,3.4c4.7,2.2,8.4,5.4,11.1,9.6l-7.8,8.1c-2.2-3.2-5.1-5.8-8.5-7.8
			s-7.4-3-11.9-3c-4.6,0-8.4,0.9-11.5,2.7s-4.7,4.3-4.7,7.5c0,3.7,1.6,6.4,4.9,8c3.3,1.6,7.7,2.9,13.2,3.8c3.6,0.6,7,1.3,10.3,2.3
			s6.3,2.3,8.9,3.8c2.6,1.6,4.7,3.5,6.3,5.8c1.5,2.3,2.3,5.1,2.3,8.4c0,4.7-1.2,8.8-3.6,12.3s-5.9,6.2-10.4,8.1s-9.8,2.9-15.9,2.9
			c-6.5,0-12.3-1.1-17.6-3.4c-5.3-2.2-9.9-5.9-13.9-10.9L201.5,94.1z"/>
		<path class="st0" d="M352.5,42.8v42.7c0,6.1-1.4,11.5-4.2,16.3c-2.8,4.8-6.6,8.5-11.5,11.3c-4.9,2.7-10.6,4.1-16.9,4.1
			c-6.5,0-12.1-1.4-17-4.1s-8.7-6.5-11.5-11.3s-4.2-10.2-4.2-16.3V42.8h11.4v42c0,4.1,1,7.8,2.9,11s4.5,5.8,7.7,7.6
			c3.2,1.9,6.8,2.8,10.6,2.8c4,0,7.6-0.9,10.9-2.8s5.9-4.4,7.9-7.6s2.9-6.9,2.9-11v-42H352.5z"/>
		<path class="st0" d="M447.8,42.9h11.4v73.6h-10.8l-49.2-56.9c0.4,4.3,0.8,8.7,1.3,13.1c0.4,4.4,0.6,8.8,0.6,13.2v30.6h-11.4V42.9
			h10.6l49.2,58.3c-0.5-3.4-0.9-7.1-1.1-11s-0.4-7.9-0.5-11.8c-0.1-4-0.1-7.7-0.1-11.2V42.9z"/>
		<path class="st0" d="M529.6,42.9c6.1,0,11.5,1,16.1,2.9s8.5,4.6,11.7,8s5.5,7.3,7.1,11.8s2.4,9.2,2.4,14.2
			c0,6.7-1.4,12.9-4.2,18.5s-7,10-12.5,13.4c-5.5,3.3-12.4,5-20.5,5h-32.2V42.9H529.6z M529.1,105.6c6.1,0,11.1-1.2,14.9-3.5
			c3.8-2.3,6.6-5.5,8.4-9.4c1.8-3.9,2.7-8.2,2.7-13c0-4.6-0.9-8.9-2.7-12.8s-4.6-7.1-8.5-9.5s-8.8-3.6-14.8-3.6h-20.3v51.8
			C508.8,105.6,529.1,105.6,529.1,105.6z"/>
		<path class="st0" d="M651.8,116.5l-7.6-17.9h-35.7l-7.7,17.9h-11.7l31.5-73.6h12.3l31.2,73.6H651.8z M620.7,70l-7.6,17.7h26.5
			l-7.8-18.1c-0.9-2.3-1.8-4.7-2.7-7.1s-1.8-4.9-2.7-7.5c-1,2.7-1.9,5.3-2.8,7.8C622.6,65.3,621.7,67.7,620.7,70z"/>
		<path class="st0" d="M749.8,42.9l-30.3,42.7v30.9h-11.4V85.9l-32.4-43h14.5L714,75.4l22.3-32.5C736.3,42.9,749.8,42.9,749.8,42.9z
			"/>
	</g>
</g>
</svg>
