<svg width="38" height="39" viewBox="0 0 38 39" fill="none" xmlns="http://www.w3.org/2000/svg">
<path d="M12.7135 18.2824C14.7979 18.2824 16.7968 17.4544 18.2707 15.9806C19.7445 14.5068 20.5725 12.5078 20.5725 10.4235C20.5725 8.33911 19.7445 6.34015 18.2707 4.8663C16.7968 3.39245 14.7979 2.56445 12.7135 2.56445C10.6292 2.56445 8.63023 3.39245 7.15638 4.8663C5.68254 6.34015 4.85454 8.33911 4.85454 10.4235C4.85454 12.5078 5.68254 14.5068 7.15638 15.9806C8.63023 17.4544 10.6292 18.2824 12.7135 18.2824ZM12.7135 18.2824C15.8776 18.2824 18.6424 19.477 20.6087 21.4622C21.7745 22.6442 22.6466 24.0832 23.155 25.6636M12.7135 18.2824C6.42634 18.2824 1.71094 22.9978 1.71094 29.285V37.144H17.4289M19.0007 30.5802L25.5866 35.5722L36.2905 21.426" stroke="#333332" stroke-width="3.2"/>
</svg>
