<svg width="26" height="36" viewBox="0 0 26 36" fill="none" xmlns="http://www.w3.org/2000/svg">
<path d="M11.7501 0.355469C9.69385 0.355469 8.0001 2.04922 8.0001 4.10547V6.01922L7.84385 5.51172C7.2476 3.54422 5.12385 2.41547 3.15635 3.01172C1.18885 3.60797 0.0600988 5.73172 0.656349 7.69922L3.89885 18.2467C3.66385 18.3392 3.41135 18.4467 3.15635 18.5967C2.11135 19.2217 0.930099 20.4867 0.577599 22.5042C0.315099 23.998 0.602599 25.3117 0.812599 26.0192V26.0592L1.78885 29.1842C2.34003 30.9714 3.44934 32.5349 4.9541 33.6456C6.45885 34.7562 8.27987 35.3554 10.1501 35.3555H16.7501C21.5688 35.3555 25.5001 31.4242 25.5001 26.6055V13.9492C25.4893 13.9101 25.4763 13.8709 25.4613 13.8317C25.3488 12.4555 24.5138 11.1705 23.1563 10.6292C22.2138 10.253 21.2226 10.3067 20.3438 10.668C19.9358 9.87279 19.2571 9.24952 18.4301 8.91047C17.9615 8.726 17.4606 8.63779 16.9572 8.6511C16.4538 8.66442 15.9583 8.77898 15.5001 8.98797V4.10547C15.5001 2.04922 13.8063 0.355469 11.7501 0.355469ZM11.7501 2.85547C12.4576 2.85547 13.0001 3.39797 13.0001 4.10547V12.348L11.7113 15.6292C11.5316 16.0898 11.4388 16.5798 11.4376 17.0742L6.3201 17.738L3.0776 6.95672C3.02621 6.80029 3.00678 6.63512 3.02047 6.47104C3.03417 6.30695 3.0807 6.14729 3.1573 6.00154C3.23391 5.85579 3.33903 5.72692 3.46642 5.62259C3.5938 5.51826 3.74086 5.4406 3.89885 5.39422C4.5726 5.18922 5.25635 5.58047 5.46135 6.25422L8.03885 14.808L9.4451 14.3792H10.5001V4.10547C10.5001 3.39797 11.0426 2.85547 11.7501 2.85547ZM16.9851 11.1367C17.1451 11.1317 17.3313 11.1517 17.4926 11.2155C17.6474 11.2758 17.7886 11.3663 17.908 11.4818C18.0274 11.5972 18.1226 11.7354 18.188 11.8881C18.2534 12.0407 18.2877 12.2049 18.2889 12.371C18.2901 12.5372 18.2582 12.7018 18.1951 12.8555L16.8676 16.1755V16.2142L16.3588 17.5042C16.3351 17.5717 16.2763 17.6017 16.2426 17.6605C15.5957 17.1493 14.8006 16.8616 13.9763 16.8405C13.9913 16.7467 13.9763 16.6592 14.0163 16.5655L15.8913 11.918C16.0863 11.4242 16.5013 11.1467 16.9851 11.1367ZM21.7101 12.8555C21.8776 12.8555 22.0526 12.8705 22.2188 12.9342C22.448 13.0223 22.6452 13.1776 22.7846 13.3797C22.924 13.5818 22.9991 13.8212 23.0001 14.0667V14.1055C23.0001 14.2567 22.9801 14.423 22.9213 14.5742L21.5151 18.0505C21.4549 18.2054 21.3645 18.3467 21.2491 18.4662C21.1336 18.5858 20.9955 18.6811 20.8428 18.7466C20.6901 18.8121 20.5259 18.8466 20.3597 18.8479C20.1936 18.8492 20.0288 18.8173 19.8751 18.7542C19.2213 18.4905 18.9476 17.7667 19.2113 17.113L20.5388 13.793C20.5588 13.743 20.5588 13.6855 20.5788 13.6367C20.6988 13.3243 20.9367 13.0715 21.2413 12.933C21.3911 12.8737 21.5518 12.8473 21.7126 12.8555H21.7101ZM13.6251 19.3005C13.7791 19.2624 13.9391 19.2556 14.0958 19.2804C14.2525 19.3052 14.4026 19.3611 14.5373 19.4449C14.672 19.5287 14.7885 19.6386 14.88 19.7681C14.9715 19.8977 15.0362 20.0443 15.0701 20.1992C15.1676 20.6042 15.1138 20.8092 14.9926 21.0192C14.8701 21.2292 14.6113 21.488 14.0551 21.6842L8.0001 23.2467C7.81808 23.2952 7.64937 23.3842 7.50657 23.507C7.36378 23.6298 7.25059 23.7833 7.17546 23.9561C7.10033 24.1288 7.06522 24.3163 7.07273 24.5045C7.08024 24.6927 7.13019 24.8768 7.21885 25.043L8.35135 27.113C8.43054 27.257 8.53745 27.384 8.66592 27.4865C8.79439 27.5891 8.94188 27.6652 9.09989 27.7105C9.25791 27.7558 9.42332 27.7694 9.58661 27.7505C9.74991 27.7317 9.90785 27.6807 10.0513 27.6005C10.1951 27.5213 10.3217 27.4145 10.4241 27.2862C10.5264 27.1579 10.6024 27.0107 10.6477 26.853C10.693 26.6953 10.7067 26.5301 10.688 26.3671C10.6693 26.2041 10.6186 26.0464 10.5388 25.903L10.1876 25.278L14.7976 24.0655C14.8359 24.0555 14.8747 24.043 14.9138 24.028C15.8813 23.6905 16.6576 23.1142 17.1413 22.3092C17.5301 21.65 17.6946 20.8824 17.6101 20.1217C17.9751 20.5167 18.4438 20.8442 18.9763 21.0592C19.6536 21.3332 20.3966 21.4013 21.1123 21.255C21.8281 21.1087 22.4847 20.7545 23.0001 20.2367V26.6055C23.0001 30.0717 20.2163 32.8555 16.7501 32.8555H10.1488C7.39885 32.8555 4.9826 31.068 4.1726 28.4417L3.2351 25.3167C3.13135 24.9792 2.92635 23.798 3.0776 22.933C3.3126 21.5905 3.89885 21.073 4.4451 20.7455C4.9926 20.4192 5.3826 20.3955 5.3826 20.3955H5.46135L13.5076 19.3392C13.5476 19.3292 13.5868 19.3155 13.6251 19.3005Z" fill="black"/>
</svg>
