<svg xmlns="http://www.w3.org/2000/svg" xmlns:xlink="http://www.w3.org/1999/xlink" width="69.331" height="69.32" viewBox="0 0 69.331 69.32">
  <defs>
    <clipPath id="clip-path">
      <rect id="Rectangle_440" data-name="Rectangle 440" width="69.331" height="69.32" fill="none"/>
    </clipPath>
  </defs>
  <g id="Group_102" data-name="Group 102" transform="translate(0 0)">
    <g id="Group_101" data-name="Group 101" transform="translate(0 0)" clip-path="url(#clip-path)">
      <path id="Path_38" data-name="Path 38" d="M35.69,69.321a14.106,14.106,0,0,1-1.5-.566,5.735,5.735,0,0,1-3.305-5.46c-.007-.854,0-1.706,0-2.64H30.1q-4.2,0-8.393,0a7.924,7.924,0,0,1-8.15-7.959c-.034-1.376-.022-2.753,0-4.129a2.229,2.229,0,0,1,2.221-2.381,2.264,2.264,0,0,1,2.156,2.458c.005,1.331-.005,2.663,0,3.994a3.44,3.44,0,0,0,3.271,3.633c3.194.121,6.4.032,9.675.032v-.968q0-21.66,0-43.317a5.9,5.9,0,0,1,4.089-6.026c.98-.332,1.965-.649,2.947-.977a12.276,12.276,0,0,0,1.659-.646c-.179-.012-.356-.034-.535-.034-5.733,0-11.463.022-17.194-.014a3.722,3.722,0,0,0-3.931,3.933c.078,1.328.029,2.663.009,3.994a2.2,2.2,0,0,1-1.522,2.1,2.1,2.1,0,0,1-2.4-.774,1.6,1.6,0,0,1-.375-.845,40.044,40.044,0,0,1,.17-6.467A7.668,7.668,0,0,1,21.538,0Q37.787,0,54.033,0A5.8,5.8,0,0,1,59.791,5.78q0,25.991,0,51.982a5.674,5.674,0,0,1-3.806,5.453c-5.83,1.977-11.677,3.9-17.517,5.845-.251.084-.5.174-.748.261Zm-.421-31.789V49.646q0,6.837-.005,13.673a1.457,1.457,0,0,0,.726,1.413,1.838,1.838,0,0,0,1.619.031Q45.8,62.022,53.99,59.3c1.171-.39,1.469-.8,1.469-2.018q0-25.518.022-51.032A1.651,1.651,0,0,0,53.1,4.539c-5.4,1.868-10.826,3.639-16.24,5.45-1.459.488-1.592.682-1.592,2.23V37.532" transform="translate(9.539 0)" fill="#161615"/>
      <path id="Path_39" data-name="Path 39" d="M0,22.493a2.864,2.864,0,0,1,2.942-1.512c6.837.049,13.674.024,20.51.024h.857c-.251-.274-.4-.453-.569-.62-2.138-2.138-4.289-4.263-6.411-6.414a2.188,2.188,0,1,1,3.133-3.043q3.866,3.887,7.753,7.756c.956.956,1.921,1.907,2.874,2.867a2.131,2.131,0,0,1,.01,3.227Q25.788,30.093,20.467,35.4a2.19,2.19,0,1,1-3.1-3.07c2.115-2.129,4.243-4.244,6.363-6.368.167-.167.322-.346.578-.622h-.851c-6.837,0-13.674-.027-20.512.022A2.886,2.886,0,0,1,0,23.847Z" transform="translate(0 7.158)" fill="#161615"/>
    </g>
  </g>
</svg>
