<svg xmlns="http://www.w3.org/2000/svg" xmlns:xlink="http://www.w3.org/1999/xlink" width="58.477" height="69.319" viewBox="0 0 58.477 69.319">
  <defs>
    <clipPath id="clip-path">
      <rect id="Rectangle_441" data-name="Rectangle 441" width="58.477" height="69.319" fill="none"/>
    </clipPath>
  </defs>
  <g id="Group_107" data-name="Group 107" transform="translate(0 0)">
    <g id="Group_106" data-name="Group 106" transform="translate(0 0)" clip-path="url(#clip-path)">
      <path id="Path_40" data-name="Path 40" d="M2.03,69.318c-.136-.07-.268-.148-.406-.213A2.623,2.623,0,0,1,0,66.595q0-23.82,0-47.641a2.644,2.644,0,0,1,2.7-2.7c2.684-.009,5.367-.005,8.052-.009a.874.874,0,0,0,.174-.045A18.346,18.346,0,0,1,18.213,3.681,17.969,17.969,0,0,1,30.238.024,18.55,18.55,0,0,1,47.581,16.257H48.3c2.482,0,4.963-.005,7.444,0a2.643,2.643,0,0,1,2.723,2.668q.01,13.028,0,26.054a2.7,2.7,0,0,1-5.407-.021q-.01-11.2,0-22.4v-.846H47.646v.739q0,3.587,0,7.172a2.71,2.71,0,1,1-5.412.029q0-3.587,0-7.172V21.71H16.241V22.8c0,2.324.007,4.647,0,6.971a2.7,2.7,0,1,1-5.408.014c-.007-2.436,0-4.874,0-7.31v-.765H5.469V63.9h.763c9.179,0,18.362.022,27.541-.019a2.862,2.862,0,0,1,3.007,2.171,2.752,2.752,0,0,1-1.9,3.168c-.038.015-.062.062-.091.093ZM41.964,16.234A12.842,12.842,0,0,0,28.589,5.462a12.561,12.561,0,0,0-9.277,4.618,12.28,12.28,0,0,0-2.843,6.155Z" transform="translate(0 0)" fill="#161615"/>
      <path id="Path_41" data-name="Path 41" d="M32.011,47.116A2.938,2.938,0,0,1,30.1,45.189a5.6,5.6,0,0,1-.113-1.2c-.017-.738-.005-1.477-.005-2.286H28.659c-2.89,0-4.1-.8-4.092-2.723.005-1.9,1.212-2.69,4.124-2.69h1.289c0-.916,0-1.786,0-2.658a2.706,2.706,0,1,1,5.41,0c.005.854,0,1.711,0,2.661h2.5a2.715,2.715,0,1,1-.031,5.414H35.394c0,.662-.05,1.31.01,1.948a3.062,3.062,0,0,1-2.041,3.468Z" transform="translate(17.667 22.204)" fill="#161615"/>
    </g>
  </g>
</svg>
