<?xml version="1.0" encoding="utf-8"?>
<!-- Generator: Adobe Illustrator 27.2.0, SVG Export Plug-In . SVG Version: 6.00 Build 0)  -->
<svg version="1.1" id="Laag_1" xmlns="http://www.w3.org/2000/svg" xmlns:xlink="http://www.w3.org/1999/xlink" x="0px" y="0px"
	 viewBox="0 0 484.3 43.2" style="enable-background:new 0 0 484.3 43.2;" xml:space="preserve">
<g>
	<path d="M29.5,36.4v6.2H0v-42h6.5v35.8H29.5z"/>
	<path d="M95.8,21.6c0,3-0.5,5.9-1.6,8.5c-1.1,2.6-2.7,4.9-4.7,6.9c-2,2-4.4,3.5-7.1,4.6c-2.7,1.1-5.8,1.6-9,1.6
		c-3.3,0-6.3-0.6-9.1-1.6c-2.8-1.1-5.1-2.6-7.1-4.6c-2-2-3.5-4.2-4.6-6.9c-1.1-2.6-1.7-5.4-1.7-8.5c0-3,0.5-5.9,1.7-8.5
		c1.1-2.6,2.6-4.9,4.6-6.9c2-2,4.4-3.5,7.1-4.6C67,0.6,70,0,73.3,0c3.3,0,6.3,0.6,9,1.6c2.7,1.1,5.1,2.6,7.1,4.6
		c2,2,3.6,4.3,4.7,6.9C95.3,15.7,95.8,18.6,95.8,21.6z M89.2,21.6c0-2.9-0.7-5.5-2-7.8c-1.4-2.3-3.2-4.1-5.6-5.5
		c-2.4-1.3-5.1-2-8.2-2c-3.2,0-5.9,0.7-8.3,2c-2.4,1.3-4.2,3.2-5.6,5.5c-1.3,2.3-2,4.9-2,7.8c0,2.9,0.7,5.5,2,7.8
		c1.3,2.3,3.2,4.1,5.6,5.5c2.4,1.3,5.1,2,8.3,2c3.1,0,5.8-0.7,8.2-2c2.4-1.3,4.3-3.2,5.6-5.5C88.5,27.1,89.2,24.5,89.2,21.6z"/>
	<path d="M162.4,21.6c0,3-0.5,5.9-1.6,8.5c-1.1,2.6-2.7,4.9-4.7,6.9c-2,2-4.4,3.5-7.1,4.6c-2.7,1.1-5.8,1.6-9,1.6
		c-3.3,0-6.3-0.6-9.1-1.6c-2.8-1.1-5.1-2.6-7.1-4.6c-2-2-3.5-4.2-4.6-6.9c-1.1-2.6-1.7-5.4-1.7-8.5c0-3,0.5-5.9,1.7-8.5
		c1.1-2.6,2.6-4.9,4.6-6.9c2-2,4.4-3.5,7.1-4.6c2.8-1.1,5.8-1.6,9.1-1.6c3.3,0,6.3,0.6,9,1.6c2.7,1.1,5.1,2.6,7.1,4.6
		c2,2,3.6,4.3,4.7,6.9C161.9,15.7,162.4,18.6,162.4,21.6z M155.8,21.6c0-2.9-0.7-5.5-2-7.8c-1.4-2.3-3.2-4.1-5.6-5.5
		c-2.4-1.3-5.1-2-8.2-2c-3.2,0-5.9,0.7-8.3,2c-2.4,1.3-4.2,3.2-5.6,5.5c-1.3,2.3-2,4.9-2,7.8c0,2.9,0.7,5.5,2,7.8
		c1.3,2.3,3.2,4.1,5.6,5.5c2.4,1.3,5.1,2,8.3,2c3.1,0,5.8-0.7,8.2-2c2.4-1.3,4.3-3.2,5.6-5.5C155.1,27.1,155.8,24.5,155.8,21.6z"/>
	<path d="M193.6,42.6h-6.5v-42h6.5v21.5l8.5-7.6l15.4-13.9h9l-19.6,17.2l19.5,24.8h-8.3l-15.9-20.5l-8.6,7.6V42.6z"/>
	<path d="M270.9,0.6c4.6,0,8,0.9,10.3,2.7c2.3,1.8,3.5,4.4,3.5,7.9c0,1.9-0.5,3.6-1.5,5.1c-1,1.5-2.5,2.7-4.4,3.5
		c1.4,0.5,2.8,1.2,4,2c1.2,0.9,2.2,2,3,3.4c0.8,1.4,1.1,3.1,1.1,5.1c0,2.4-0.5,4.5-1.4,6.1c-0.9,1.6-2.1,2.9-3.6,3.8
		c-1.5,0.9-3.1,1.6-4.9,2c-1.8,0.4-3.5,0.6-5.3,0.6h-20.6v-42H270.9z M270.4,6.8h-12.7v11h13.4c1.8,0,3.5-0.5,4.9-1.5
		c1.4-1,2.1-2.3,2.1-4.1c0-2-0.7-3.4-2.2-4.2C274.4,7.3,272.6,6.8,270.4,6.8z M271.4,24.1h-13.7v12.2h14c2.5,0,4.6-0.5,6.2-1.5
		c1.6-1,2.4-2.6,2.4-4.7c0-1.5-0.5-2.7-1.4-3.6c-0.9-0.9-2.1-1.5-3.4-1.9C274.2,24.3,272.8,24.1,271.4,24.1z"/>
	<path d="M353.5,21.6c0,3-0.5,5.9-1.6,8.5c-1.1,2.6-2.7,4.9-4.7,6.9c-2,2-4.4,3.5-7.1,4.6c-2.7,1.1-5.8,1.6-9,1.6
		c-3.3,0-6.3-0.6-9.1-1.6c-2.8-1.1-5.1-2.6-7.1-4.6c-2-2-3.5-4.2-4.6-6.9c-1.1-2.6-1.7-5.4-1.7-8.5c0-3,0.5-5.9,1.7-8.5
		c1.1-2.6,2.6-4.9,4.6-6.9c2-2,4.4-3.5,7.1-4.6c2.8-1.1,5.8-1.6,9.1-1.6c3.3,0,6.3,0.6,9,1.6c2.7,1.1,5.1,2.6,7.1,4.6
		c2,2,3.6,4.3,4.7,6.9C353,15.7,353.5,18.6,353.5,21.6z M346.9,21.6c0-2.9-0.7-5.5-2-7.8c-1.4-2.3-3.2-4.1-5.6-5.5
		c-2.4-1.3-5.1-2-8.2-2c-3.2,0-5.9,0.7-8.3,2c-2.4,1.3-4.2,3.2-5.6,5.5c-1.3,2.3-2,4.9-2,7.8c0,2.9,0.7,5.5,2,7.8
		c1.3,2.3,3.2,4.1,5.6,5.5c2.4,1.3,5.1,2,8.3,2c3.1,0,5.8-0.7,8.2-2c2.4-1.3,4.3-3.2,5.6-5.5C346.2,27.1,346.9,24.5,346.9,21.6z"/>
	<path d="M420.1,21.6c0,3-0.5,5.9-1.6,8.5c-1.1,2.6-2.7,4.9-4.7,6.9c-2,2-4.4,3.5-7.1,4.6c-2.7,1.1-5.8,1.6-9,1.6
		c-3.3,0-6.3-0.6-9.1-1.6c-2.8-1.1-5.1-2.6-7.1-4.6c-2-2-3.5-4.2-4.6-6.9c-1.1-2.6-1.7-5.4-1.7-8.5c0-3,0.5-5.9,1.7-8.5
		c1.1-2.6,2.6-4.9,4.6-6.9c2-2,4.4-3.5,7.1-4.6c2.8-1.1,5.8-1.6,9.1-1.6c3.3,0,6.3,0.6,9,1.6c2.7,1.1,5.1,2.6,7.1,4.6
		c2,2,3.6,4.3,4.7,6.9C419.6,15.7,420.1,18.6,420.1,21.6z M413.5,21.6c0-2.9-0.7-5.5-2-7.8c-1.4-2.3-3.2-4.1-5.6-5.5
		c-2.4-1.3-5.1-2-8.2-2c-3.2,0-5.9,0.7-8.3,2c-2.4,1.3-4.2,3.2-5.6,5.5c-1.3,2.3-2,4.9-2,7.8c0,2.9,0.7,5.5,2,7.8
		c1.3,2.3,3.2,4.1,5.6,5.5c2.4,1.3,5.1,2,8.3,2c3.1,0,5.8-0.7,8.2-2c2.4-1.3,4.3-3.2,5.6-5.5C412.8,27.1,413.5,24.5,413.5,21.6z"/>
	<path d="M451.3,42.6h-6.5v-42h6.5v21.5l8.5-7.6l15.4-13.9h9l-19.6,17.2l19.5,24.8h-8.3l-15.9-20.5l-8.6,7.6V42.6z"/>
</g>
</svg>
