<svg xmlns="http://www.w3.org/2000/svg" xmlns:xlink="http://www.w3.org/1999/xlink" width="555.806" height="145.394"><path fill="#ED1C24" d="M1.082 35.221h16.644v103.486H1.082z"/><defs><path id="a" d="M-156.75-209.53h841.89v595.28h-841.89z"/></defs><clipPath id="b"><use xlink:href="#a" overflow="visible"/></clipPath><path clip-path="url(#b)" fill="#ED1C24" d="M155.033 86.965c0-32.227-18.913-37.37-54.77-37.37s-54.769 5.143-54.769 37.37c0 32.377 18.912 37.37 54.769 37.37s54.77-4.993 54.77-37.37m17.096 0c0 41.303-24.51 53.257-71.866 53.257-47.356 0-71.866-11.954-71.866-53.257 0-41.153 24.51-53.105 71.866-53.105 47.356-.001 71.866 11.952 71.866 53.105M198.792 87.041h-16.794v-51.82h12.709c26.325 0 33.588 8.926 61.427 46.75 26.325 35.858 29.352 39.943 42.968 39.943h.756V35.221h16.795v103.486h-12.71c-24.66 0-32.074-8.32-61.124-46.6-27.99-36.612-30.108-39.941-43.271-39.941h-.756v34.875zM.25.191h18.307v21.787H.25z"/><path d="M337.374 127.891c0-3.104 1.408-5.087 5.056-5.087 1.376 0 3.2.224 4.448.479v-6.527l2.688-.384v22.334h-2.271l-.225-1.408c-1.279 1.024-3.104 1.729-5.151 1.729-3.071 0-4.544-1.632-4.544-4.768v-6.368zm9.504-2.24c-1.44-.288-3.2-.48-4.288-.48-1.792 0-2.527.832-2.527 2.72v6.368c0 1.6.512 2.399 2.399 2.399 1.536 0 3.264-.832 4.416-1.855v-9.152zm13.12 11.072c1.536 0 3.231-.288 4.928-.736l.352 2.144c-1.472.544-3.552.896-5.504.896-4.607 0-6.175-2.208-6.175-5.728v-4.672c0-3.231 1.472-5.823 6.111-5.823 4.607 0 5.855 2.655 5.855 5.887v3.265h-9.279v1.312c0 2.462.672 3.455 3.712 3.455zm-3.712-7.008h6.688v-1.28c0-2.176-.736-3.392-3.264-3.392-2.528 0-3.424 1.216-3.424 3.392v1.28zm22.144-6.592h2.656l-5.152 15.583h-3.584l-5.151-15.583h2.656l4.287 13.375 4.288-13.375zm10.784 13.6c1.536 0 3.231-.288 4.928-.736l.352 2.144c-1.472.544-3.552.896-5.503.896-4.608 0-6.176-2.208-6.176-5.728v-4.672c0-3.231 1.472-5.823 6.111-5.823 4.607 0 5.855 2.655 5.855 5.887v3.265h-9.279v1.312c0 2.462.672 3.455 3.712 3.455zm-3.712-7.008h6.688v-1.28c0-2.176-.735-3.392-3.264-3.392-2.527 0-3.424 1.216-3.424 3.392v1.28zm13.217 8.991v-21.95l2.688-.384v22.334h-2.688zm13.055.32c-4.544 0-6.336-2.592-6.336-5.855v-4.512c0-3.264 1.792-5.855 6.336-5.855 4.543 0 6.335 2.592 6.335 5.855v4.512c0 3.264-1.792 5.855-6.335 5.855zm0-13.887c-2.433 0-3.648 1.152-3.648 3.424v4.704c0 2.271 1.216 3.424 3.648 3.424 2.432 0 3.647-1.152 3.647-3.424v-4.704c.001-2.272-1.215-3.424-3.647-3.424zm22.559 8.799c0 3.104-1.407 5.088-5.056 5.088-1.375 0-3.199-.225-4.447-.48v6.464l-2.688.384v-22.271h2.271l.225 1.408c1.279-1.024 3.104-1.728 5.151-1.728 3.071 0 4.543 1.632 4.543 4.768v6.367zm-9.503 2.241c1.439.287 3.2.479 4.288.479 1.792 0 2.527-.832 2.527-2.72v-6.367c0-1.601-.512-2.4-2.399-2.4-1.536 0-3.264.832-4.416 1.856v9.152zm19.776-8.288c0-3.104 1.407-5.087 5.056-5.087 1.376 0 3.199.224 4.447.479v-6.527l2.688-.384v22.334h-2.271l-.224-1.408c-1.28 1.024-3.104 1.729-5.152 1.729-3.071 0-4.543-1.632-4.543-4.768v-6.368zm9.503-2.24c-1.439-.288-3.199-.48-4.288-.48-1.791 0-2.527.832-2.527 2.72v6.368c0 1.6.512 2.399 2.399 2.399 1.536 0 3.264-.832 4.416-1.855v-9.152zm7.521-5.024v-3.871h2.688v3.871h-2.688zm0 18.079v-15.583h2.688v15.583h-2.688zm27.007-20.062c-.832-.16-1.92-.288-2.592-.288-1.664 0-2.08.576-2.08 2.144v2.624h4.447l-.191 2.208h-4.256v13.375h-2.688v-13.375h-8.287v13.375h-2.688v-13.375h-2.752v-2.208h2.752v-2.88c0-2.752 1.536-4.128 4.416-4.128 1.216 0 2.464.16 3.52.48l-.224 2.08c-.832-.16-1.984-.32-2.944-.32-1.664 0-2.079.576-2.079 2.144v2.624h8.287v-2.88c0-2.752 1.536-4.128 4.415-4.128 1.024 0 2.112.129 3.168.448l-.224 2.08zm8.096 18.079c1.536 0 3.231-.288 4.928-.736l.353 2.144c-1.473.544-3.553.896-5.504.896-4.607 0-6.176-2.208-6.176-5.728v-4.672c0-3.231 1.472-5.823 6.111-5.823 4.607 0 5.855 2.655 5.855 5.887v3.265h-9.279v1.312c0 2.462.672 3.455 3.712 3.455zm-3.712-7.008h6.688v-1.28c0-2.176-.735-3.392-3.264-3.392-2.527 0-3.424 1.216-3.424 3.392v1.28zm20.352-4.447c-1.472.703-3.167 1.791-4.447 2.688v10.751h-2.688v-15.583h2.336l.16 2.176a19.825 19.825 0 014.287-2.495l.352 2.463zm8.032 11.455c1.536 0 3.232-.288 4.928-.736l.353 2.144c-1.473.544-3.552.896-5.504.896-4.607 0-6.176-2.208-6.176-5.728v-4.672c0-3.231 1.472-5.823 6.111-5.823 4.608 0 5.856 2.655 5.856 5.887v3.265h-9.279v1.312c0 2.462.672 3.455 3.711 3.455zm-3.711-7.008h6.688v-1.28c0-2.176-.736-3.392-3.265-3.392-2.527 0-3.423 1.216-3.423 3.392v1.28zm22.623 8.991v-11.903c0-1.023-.512-1.439-1.504-1.439-1.151 0-3.552.704-5.216 1.567v11.775h-2.688v-15.583h2.176l.256 1.344c1.729-.832 4.416-1.663 6.271-1.663 2.496 0 3.392 1.567 3.392 3.967v11.936h-2.687zm15.489-.256a9.7 9.7 0 01-3.264.576c-2.624 0-3.872-.96-3.872-3.552v-10.111h-2.752v-2.24h2.752v-3.84l2.688-.384v4.224h4.415l-.224 2.24h-4.191v9.663c0 1.152.159 1.728 1.6 1.728.735 0 1.504-.128 2.496-.384l.352 2.08z"/></svg>