<?xml version="1.0" encoding="utf-8"?>
<!-- Generator: Adobe Illustrator 27.3.1, SVG Export Plug-In . SVG Version: 6.00 Build 0)  -->
<svg version="1.1" id="Layer_1" xmlns="http://www.w3.org/2000/svg" xmlns:xlink="http://www.w3.org/1999/xlink" x="0px" y="0px"
	 viewBox="0 0 1080 1080" style="enable-background:new 0 0 1080 1080;" xml:space="preserve">
<style type="text/css">
	.st0{fill:none;stroke:#702DBD;stroke-width:50;stroke-linecap:round;stroke-linejoin:round;stroke-miterlimit:10;}
</style>
<g>
	<polyline class="st0" points="37.1,1037.7 37.1,360.9 540,50 	"/>
	<polyline class="st0" points="1042.9,1039.4 1042.9,362.6 540,50 	"/>
</g>
<line class="st0" x1="176.5" y1="352.4" x2="909.4" y2="352.4"/>
<line class="st0" x1="320" y1="279.4" x2="765.9" y2="279.4"/>
<line class="st0" x1="440" y1="206.5" x2="645.9" y2="206.5"/>
<polyline class="st0" points="962.9,1039.4 962.9,428.8 540,428.8 117.1,428.8 117.1,1039.4 "/>
<path class="st0" d="M204.3,1039.4"/>
<g>
	<rect x="188.2" y="879.2" class="st0" width="234.5" height="158.5"/>
	<rect x="188.2" y="720.7" class="st0" width="234.5" height="158.5"/>
	<rect x="188.2" y="562.2" class="st0" width="234.5" height="158.5"/>
	<rect x="422.7" y="879.2" class="st0" width="234.5" height="158.5"/>
	<rect x="657.3" y="879.2" class="st0" width="234.5" height="158.5"/>
	<rect x="422.7" y="720.7" class="st0" width="234.5" height="158.5"/>
</g>
</svg>
