<?xml version="1.0" encoding="utf-8"?>
<!-- Generator: Adobe Illustrator 27.2.0, SVG Export Plug-In . SVG Version: 6.00 Build 0)  -->
<svg version="1.1" id="Laag_1" xmlns="http://www.w3.org/2000/svg" xmlns:xlink="http://www.w3.org/1999/xlink" x="0px" y="0px"
	 viewBox="0 0 600 183.1" style="enable-background:new 0 0 600 183.1;" xml:space="preserve">
<style type="text/css">
	.st0{fill:#1D1D1B;}
	.st1{fill:none;}
	.st2{font-family:'Poppins-Regular';}
	.st3{font-size:6px;}
	.st4{font-size:7px;}
	.st5{letter-spacing:1;}
	.st6{fill:none;stroke:#1D1D1B;stroke-miterlimit:10;}
	.st7{fill:#5D3F92;}
	.st8{fill:#FFFFFF;}
</style>
<rect y="81.6" class="st0" width="600" height="3"/>
<rect x="106.6" y="14.3" class="st1" width="114.3" height="37.2"/>
<text transform="matrix(1 0 0 1 113.464 18.7573)"><tspan x="0" y="0" class="st0 st2 st3">Fill in the contact form. One of our </tspan><tspan x="-1.2" y="7.2" class="st0 st2 st3">experts will reach out to you within</tspan><tspan x="2.3" y="14.4" class="st0 st2 st3"> 24 hours and guide you step by </tspan><tspan x="14.1" y="21.6" class="st0 st2 st3">step through your order.</tspan></text>
<rect x="106.6" y="0.8" class="st1" width="114.3" height="24.6"/>
<text transform="matrix(1 0 0 1 128.7184 5.9427)" class="st0 st2 st4 st5">CONTACT FORM</text>
<rect x="8" y="145.8" class="st1" width="114.3" height="37.2"/>
<text transform="matrix(1 0 0 1 14.0135 150.2699)"><tspan x="0" y="0" class="st0 st2 st3">We make a competitive quotation </tspan><tspan x="0.5" y="7.2" class="st0 st2 st3">based on your custom needs. Our </tspan><tspan x="-1" y="14.4" class="st0 st2 st3">textile experts are able to cater our </tspan><tspan x="0" y="21.6" class="st0 st2 st3">premium products to your budget </tspan><tspan x="41.3" y="28.8" class="st0 st2 st3">needs.</tspan></text>
<rect x="8" y="132.3" class="st1" width="114.3" height="24.6"/>
<text transform="matrix(1 0 0 1 8.1532 137.4553)" class="st0 st2 st4 st5">Competitive quotation</text>
<polyline class="st6" points="78,70.4 78,3.4 109.6,3.4 "/>
<g>
	<circle class="st7" cx="109.6" cy="3.4" r="2.6"/>
</g>
<polyline class="st6" points="169.7,67.8 169.7,134.9 138.1,134.9 "/>
<g>
	<circle class="st7" cx="138.1" cy="134.9" r="2.6"/>
</g>
<g>
	<g>
		<path class="st7" d="M78,101.4c-9.9,0-17.9-8-17.9-17.9s8-17.9,17.9-17.9S96,73.6,96,83.5S87.9,101.4,78,101.4z"/>
		<path class="st8" d="M78,67c9.1,0,16.4,7.4,16.4,16.4S87.1,99.9,78,99.9s-16.4-7.4-16.4-16.4S69,67,78,67 M78,64
			c-10.7,0-19.4,8.7-19.4,19.4s8.7,19.4,19.4,19.4s19.4-8.7,19.4-19.4S88.8,64,78,64L78,64z"/>
	</g>
</g>
<rect x="291" y="14.3" class="st1" width="114.3" height="37.2"/>
<text transform="matrix(1 0 0 1 297.007 18.7573)"><tspan x="0" y="0" class="st0 st2 st3">Our fashion designers design your </tspan><tspan x="-4" y="7.2" class="st0 st2 st3">completely unique company fashion </tspan><tspan x="5.5" y="14.4" class="st0 st2 st3">in 3D, starting from your brand </tspan><tspan x="-2.2" y="21.6" class="st0 st2 st3">guidelines (logo, pantone colors, …).</tspan></text>
<rect x="291" y="0.8" class="st1" width="114.3" height="24.6"/>
<text transform="matrix(1 0 0 1 311.6793 5.9427)" class="st0 st2 st4 st5">CUSTOM DESIGN</text>
<polyline class="st6" points="262.4,70.4 262.4,3.4 294,3.4 "/>
<g>
	<circle class="st7" cx="294" cy="3.4" r="2.6"/>
</g>
<rect x="196.7" y="145.8" class="st1" width="114.3" height="37.2"/>
<text transform="matrix(1 0 0 1 199.0139 150.2699)"><tspan x="0" y="0" class="st0 st2 st3">Production starts. Our team carefully </tspan><tspan x="-1.6" y="7.2" class="st0 st2 st3">monitors the process so your clothing </tspan><tspan x="9.3" y="14.4" class="st0 st2 st3">is sewn exactly like your virtual </tspan><tspan x="2.9" y="21.6" class="st0 st2 st3">design. Your account manager will </tspan><tspan x="-1.5" y="28.8" class="st0 st2 st3">keep you up to date about timing etc.</tspan></text>
<rect x="196.7" y="132.3" class="st1" width="114.3" height="24.6"/>
<text transform="matrix(1 0 0 1 203.136 137.4553)" class="st0 st2 st4 st5">PRODUCTION PROCESS</text>
<polyline class="st6" points="354,67.8 354,134.9 322.4,134.9 "/>
<g>
	<circle class="st7" cx="322.4" cy="134.9" r="2.6"/>
</g>
<rect x="475.4" y="24.3" class="st1" width="114.3" height="37.2"/>
<text transform="matrix(1 0 0 1 478.7193 28.7573)"><tspan x="0" y="0" class="st0 st2 st3">Your goods are approved by quality </tspan><tspan x="-2.2" y="7.2" class="st0 st2 st3">control and are ready to ship. You will </tspan><tspan x="-0.4" y="14.4" class="st0 st2 st3">receive a track and trace number to </tspan><tspan x="4.1" y="21.6" class="st0 st2 st3">follow your packages. Or you can </tspan><tspan x="-3" y="28.8" class="st0 st2 st3">manage it with the Sunday Wardrobe.</tspan></text>
<rect x="475.4" y="0.8" class="st1" width="114.3" height="24.6"/>
<text transform="matrix(1 0 0 1 491.8258 5.9427)"><tspan x="0" y="0" class="st0 st2 st4 st5">Quality control </tspan><tspan x="8.3" y="8.4" class="st0 st2 st4 st5">and shipment</tspan></text>
<polyline class="st6" points="446.8,70.4 446.8,3.4 478.4,3.4 "/>
<g>
	<circle class="st7" cx="478.4" cy="3.4" r="2.6"/>
</g>
<g>
	<g>
		<path class="st7" d="M354.6,101.4c-9.9,0-17.9-8-17.9-17.9s8-17.9,17.9-17.9s17.9,8,17.9,17.9S364.5,101.4,354.6,101.4z"/>
		<path class="st8" d="M354.6,67c9.1,0,16.4,7.4,16.4,16.4s-7.4,16.4-16.4,16.4s-16.4-7.4-16.4-16.4S345.5,67,354.6,67 M354.6,64
			c-10.7,0-19.4,8.7-19.4,19.4s8.7,19.4,19.4,19.4s19.4-8.7,19.4-19.4S365.3,64,354.6,64L354.6,64z"/>
	</g>
	<path class="st8" d="M365,92.2L365,92.2c-0.1-0.1-0.1-0.1-0.2-0.1c-2.3-1.3-6.7-3.9-6.9-4h0c-0.1-0.1-0.2-0.2-0.2-0.3v-0.1
		c0-0.1,0.1-0.2,0.2-0.3l0,0c0,0,0.1-0.1,0.1-0.1c0.1-0.1,0.3-0.1,0.5-0.2c0.2,0,0.4,0,0.5,0.1c0.2,0.1,2.1,1.2,3.4,1.9
		c0.5,0.3,1.3,0.2,1.8-0.2c0.2-0.2,0.4-0.4,0.4-0.7c0-0.2-0.1-0.4-0.3-0.6c0,0,0,0,0,0c-0.1,0-1.5-0.9-2.4-1.4
		c-0.2-0.1-0.3-0.2-0.2-0.4c0-0.1,0-0.1,0.2-0.2c0,0,0,0,0.1,0c0.1-0.1,0.2-0.1,0.3-0.2c0.3-0.1,0.6-0.1,0.9,0l0.4,0.2
		c0.2,0.1,0.4,0.2,0.7,0.2c0.4,0,0.8-0.1,1-0.4c0.2-0.2,0.4-0.4,0.4-0.7c0-0.2-0.1-0.4-0.3-0.6c0,0,0,0,0,0c0,0,0,0,0,0
		c0,0-0.1,0-0.1-0.1l-5.3-3v-1.1c0,0,0.1,0,0.2-0.1c0.3-0.2,0.2-0.5,0.2-0.6c0-0.5-0.2-0.9-0.3-1.4c-0.1-0.4-0.2-0.8-0.2-1.1l0-0.3
		c0-0.4,0.1-0.8,0.1-1.2c0.4-0.6,0.5-1.3,0.2-1.9c-0.2-0.5-0.6-0.8-1-1c-0.4-0.2-0.9-0.1-1.3,0.1l-13,6.7c-0.8,0.5-1.1,1.5-0.7,2.4
		l0,0c0.1,0.2,0.2,0.3,0.2,0.3l0,0c0.3,0.4,0.5,0.9,0.6,1.7c0,0.3,0,0.7-0.1,1.1c-0.1,0.6-0.2,1.1,0,1.6l0,0
		c0.2,0.3,0.5,0.5,0.8,0.5v0.9c0,0,0,0,0,0.1c0.1,0.2,0.3,0.3,0.5,0.3h0.1c0,0,0,0,0.1,0c0.6,0.4,5.4,3.1,8,4.6
		c0.5,0.3,1.3,0.2,1.8-0.2c0.2-0.2,0.4-0.4,0.4-0.7c0-0.2-0.1-0.4-0.2-0.6c-0.1-0.1-0.2-0.1-0.2-0.2l-2.6-1.5
		c-0.1-0.1-0.2-0.2-0.2-0.3v-0.1c0-0.1,0.1-0.2,0.2-0.3c0.2-0.2,0.4-0.2,0.7-0.2c0.1,0,0.2,0,0.3,0l8.8,5c0.2,0.1,0.5,0.2,0.7,0.2
		c0.4,0,0.8-0.1,1.1-0.4c0.3-0.2,0.4-0.6,0.4-0.9C365.3,92.5,365.2,92.3,365,92.2L365,92.2L365,92.2z M346.1,87.7
		C346,87.7,346,87.7,346.1,87.7l-0.1-2l0.1,0L346.1,87.7z M346.3,85.3l-0.3,0c0,0-0.2,0-0.2,0c-0.1,0.1-0.1,0.2-0.1,0.3v0.6
		c-0.1,0-0.2-0.1-0.2-0.1c-0.1-0.4,0-0.9,0-1.3c0.1-0.4,0.1-0.9,0.1-1.3c-0.1-0.9-0.3-1.6-0.7-2c0,0-0.1-0.1-0.2-0.2
		c-0.2-0.6-0.1-1.3,0.4-1.6l13-6.7c0.2-0.1,0.5-0.2,0.7-0.1c0.3,0.1,0.5,0.3,0.6,0.6c0.2,0.4,0.1,0.9-0.1,1.3c0,0-0.1,0.1-0.1,0.1
		l-6.9,3.7c-0.1,0.1-0.2,0.2-0.1,0.3c0,0.1,0.1,0.1,0.2,0.1c0,0,0.1,0,0.1,0l6.7-3.5c0,0.3-0.1,0.6-0.1,0.9l0,0.3
		c0,0.4,0.1,0.9,0.2,1.3c0.1,0.4,0.2,0.8,0.2,1.2v0.1c0,0-0.1,0.1-0.1,0.2l-12.2,6.4c0-0.4-0.1-0.9-0.2-1.3
		c-0.1-0.4-0.2-0.8-0.1-1.1c0-0.2,0-0.4,0-0.5c0-0.3,0-0.6,0.1-1.1l0.1-0.3c0,0,0,0,0-0.1c0,0,0,0,0-0.1c0.2-0.5,0.2-0.9,0-1.3
		c0-0.1-0.2-0.2-0.3-0.1c-0.1,0-0.2,0.2-0.1,0.3c0.2,0.4,0.2,0.6,0,1v0c0,0,0,0,0,0.1c0,0,0,0.1,0,0.1l-0.1,0.3
		c-0.1,0.5-0.1,0.8-0.1,1.1c0,0.2,0,0.3,0,0.5c0,0.4,0.1,0.8,0.2,1.3c0.1,0.5,0.2,1,0.2,1.4c0,0-0.1,0.1-0.2,0.2v-0.5
		C346.5,85.6,346.6,85.4,346.3,85.3L346.3,85.3z M346.5,86.6c0.2,0,12.7-6.6,12.7-6.6v0.9l-12.8,6.6L346.5,86.6z M364.6,93.3
		c-0.3,0.3-0.9,0.4-1.3,0.1l-8.8-5.1c0,0,0,0,0,0c-0.2,0-0.3-0.1-0.5-0.1c-0.4,0-0.7,0.1-1,0.3c-0.2,0.2-0.3,0.4-0.4,0.6v0.1
		c0,0.3,0.1,0.5,0.4,0.7l2.7,1.5c0,0,0,0,0,0c0,0,0,0,0,0c0.1,0.1,0.1,0.2,0.1,0.3c0,0.1-0.1,0.3-0.2,0.4c-0.4,0.3-0.9,0.4-1.3,0.2
		c-1.1-0.7-6.3-3.7-7.7-4.5l12.6-6.5l5.4,3.1c0,0,0,0,0,0c0,0,0,0,0.1,0c0.1,0.1,0.1,0.2,0.1,0.2c0,0.1-0.1,0.3-0.2,0.4
		c-0.2,0.2-0.5,0.3-0.8,0.3c-0.2,0-0.4,0-0.5-0.1l-0.4-0.2c-0.3-0.2-0.8-0.2-1.2-0.1c-0.2,0-0.3,0.1-0.4,0.2c0,0,0,0-0.1,0
		c-0.2,0.2-0.3,0.4-0.3,0.6c-0.1,0.3,0.1,0.6,0.4,0.8c0.8,0.5,2.2,1.3,2.4,1.4c0.1,0.1,0.1,0.2,0.1,0.2c0,0.1-0.1,0.3-0.2,0.4
		c-0.3,0.3-0.9,0.4-1.3,0.1c-2.6-1.5-3.2-1.9-3.4-2c-0.2-0.1-0.5-0.1-0.7-0.1c-0.2,0-0.5,0.1-0.7,0.2c0,0-0.1,0.1-0.2,0.1
		c-0.2,0.2-0.3,0.4-0.4,0.6v0.1c0,0.3,0.2,0.5,0.4,0.7c0.2,0.1,1.2,0.7,6.9,4c0,0,0.1,0,0.1,0.1c0.1,0.1,0.1,0.1,0.1,0.2
		C364.9,92.9,364.8,93.1,364.6,93.3L364.6,93.3z"/>
</g>
<g>
	<g>
		<path class="st7" d="M446.8,101.4c-9.9,0-17.9-8-17.9-17.9s8-17.9,17.9-17.9s17.9,8,17.9,17.9S456.7,101.4,446.8,101.4z"/>
		<path class="st8" d="M446.8,67c9.1,0,16.4,7.4,16.4,16.4s-7.4,16.4-16.4,16.4s-16.4-7.4-16.4-16.4S437.7,67,446.8,67 M446.8,64
			c-10.7,0-19.4,8.7-19.4,19.4s8.7,19.4,19.4,19.4s19.4-8.7,19.4-19.4S457.5,64,446.8,64L446.8,64z"/>
	</g>
	<path class="st8" d="M457.2,92.2L457.2,92.2c-0.1-0.1-0.1-0.1-0.2-0.1c-2.3-1.3-6.7-3.9-6.9-4h0c-0.1-0.1-0.2-0.2-0.2-0.3v-0.1
		c0-0.1,0.1-0.2,0.2-0.3l0,0c0,0,0.1-0.1,0.1-0.1c0.1-0.1,0.3-0.1,0.5-0.2c0.2,0,0.4,0,0.5,0.1c0.2,0.1,2.1,1.2,3.4,1.9
		c0.5,0.3,1.3,0.2,1.8-0.2c0.2-0.2,0.4-0.4,0.4-0.7c0-0.2-0.1-0.4-0.3-0.6c0,0,0,0,0,0c-0.1,0-1.5-0.9-2.4-1.4
		c-0.2-0.1-0.3-0.2-0.2-0.4c0-0.1,0-0.1,0.2-0.2c0,0,0,0,0.1,0c0.1-0.1,0.2-0.1,0.3-0.2c0.3-0.1,0.6-0.1,0.9,0l0.4,0.2
		c0.2,0.1,0.4,0.2,0.7,0.2c0.4,0,0.8-0.1,1-0.4c0.2-0.2,0.4-0.4,0.4-0.7c0-0.2-0.1-0.4-0.3-0.6c0,0,0,0,0,0s0,0,0,0
		c0,0-0.1,0-0.1-0.1l-5.3-3v-1.1c0,0,0.1,0,0.2-0.1c0.3-0.2,0.2-0.5,0.2-0.6c0-0.5-0.2-0.9-0.3-1.4c-0.1-0.4-0.2-0.8-0.2-1.1l0-0.3
		c0-0.4,0.1-0.8,0.1-1.2c0.4-0.6,0.5-1.3,0.2-1.9c-0.2-0.5-0.6-0.8-1-1c-0.4-0.2-0.9-0.1-1.3,0.1l-13,6.7c-0.8,0.5-1.1,1.5-0.7,2.4
		l0,0c0.1,0.2,0.2,0.3,0.2,0.3l0,0c0.3,0.4,0.5,0.9,0.6,1.7c0,0.3,0,0.7-0.1,1.1c-0.1,0.6-0.2,1.1,0,1.6l0,0
		c0.2,0.3,0.5,0.5,0.8,0.5v0.9c0,0,0,0,0,0.1c0.1,0.2,0.3,0.3,0.5,0.3h0.1c0,0,0,0,0.1,0c0.6,0.4,5.4,3.1,8,4.6
		c0.5,0.3,1.3,0.2,1.8-0.2c0.2-0.2,0.4-0.4,0.4-0.7c0-0.2-0.1-0.4-0.2-0.6c-0.1-0.1-0.2-0.1-0.2-0.2l-2.6-1.5
		c-0.1-0.1-0.2-0.2-0.2-0.3v-0.1c0-0.1,0.1-0.2,0.2-0.3c0.2-0.2,0.4-0.2,0.7-0.2c0.1,0,0.2,0,0.3,0l8.8,5c0.2,0.1,0.5,0.2,0.7,0.2
		c0.4,0,0.8-0.1,1.1-0.4c0.3-0.2,0.4-0.6,0.4-0.9C457.5,92.5,457.4,92.3,457.2,92.2L457.2,92.2L457.2,92.2z M438.3,87.7
		C438.2,87.7,438.2,87.7,438.3,87.7l-0.1-2l0.1,0L438.3,87.7z M438.5,85.3l-0.3,0c0,0-0.2,0-0.2,0c-0.1,0.1-0.1,0.2-0.1,0.3v0.6
		c-0.1,0-0.2-0.1-0.2-0.1c-0.1-0.4,0-0.9,0-1.3c0.1-0.4,0.1-0.9,0.1-1.3c-0.1-0.9-0.3-1.6-0.7-2c0,0-0.1-0.1-0.2-0.2
		c-0.2-0.6-0.1-1.3,0.4-1.6l13-6.7c0.2-0.1,0.5-0.2,0.7-0.1c0.3,0.1,0.5,0.3,0.6,0.6c0.2,0.4,0.1,0.9-0.1,1.3c0,0-0.1,0.1-0.1,0.1
		l-6.9,3.7c-0.1,0.1-0.2,0.2-0.1,0.3c0,0.1,0.1,0.1,0.2,0.1c0,0,0.1,0,0.1,0l6.7-3.5c0,0.3-0.1,0.6-0.1,0.9l0,0.3
		c0,0.4,0.1,0.9,0.2,1.3c0.1,0.4,0.2,0.8,0.2,1.2v0.1c0,0-0.1,0.1-0.1,0.2l-12.2,6.4c0-0.4-0.1-0.9-0.2-1.3
		c-0.1-0.4-0.2-0.8-0.1-1.1c0-0.2,0-0.4,0-0.5c0-0.3,0-0.6,0.1-1.1l0.1-0.3c0,0,0,0,0-0.1c0,0,0,0,0-0.1c0.2-0.5,0.2-0.9,0-1.3
		c0-0.1-0.2-0.2-0.3-0.1c-0.1,0-0.2,0.2-0.1,0.3c0.2,0.4,0.2,0.6,0,1v0c0,0,0,0,0,0.1c0,0,0,0.1,0,0.1l-0.1,0.3
		c-0.1,0.5-0.1,0.8-0.1,1.1c0,0.2,0,0.3,0,0.5c0,0.4,0.1,0.8,0.2,1.3c0.1,0.5,0.2,1,0.2,1.4c0,0-0.1,0.1-0.2,0.2v-0.5
		C438.7,85.6,438.8,85.4,438.5,85.3L438.5,85.3z M438.7,86.6c0.2,0,12.7-6.6,12.7-6.6v0.9l-12.8,6.6L438.7,86.6z M456.8,93.3
		c-0.3,0.3-0.9,0.4-1.3,0.1l-8.8-5.1c0,0,0,0,0,0c-0.2,0-0.3-0.1-0.5-0.1c-0.4,0-0.7,0.1-1,0.3c-0.2,0.2-0.3,0.4-0.4,0.6v0.1
		c0,0.3,0.1,0.5,0.4,0.7l2.7,1.5c0,0,0,0,0,0c0,0,0,0,0,0c0.1,0.1,0.1,0.2,0.1,0.3c0,0.1-0.1,0.3-0.2,0.4c-0.4,0.3-0.9,0.4-1.3,0.2
		c-1.1-0.7-6.3-3.7-7.7-4.5l12.6-6.5l5.4,3.1c0,0,0,0,0,0c0,0,0,0,0.1,0c0.1,0.1,0.1,0.2,0.1,0.2c0,0.1-0.1,0.3-0.2,0.4
		c-0.2,0.2-0.5,0.3-0.8,0.3c-0.2,0-0.4,0-0.5-0.1l-0.4-0.2c-0.3-0.2-0.8-0.2-1.2-0.1c-0.2,0-0.3,0.1-0.4,0.2c0,0,0,0-0.1,0
		c-0.2,0.2-0.3,0.4-0.3,0.6c-0.1,0.3,0.1,0.6,0.4,0.8c0.8,0.5,2.2,1.3,2.4,1.4c0.1,0.1,0.1,0.2,0.1,0.2c0,0.1-0.1,0.3-0.2,0.4
		c-0.3,0.3-0.9,0.4-1.3,0.1c-2.6-1.5-3.2-1.9-3.4-2c-0.2-0.1-0.5-0.1-0.7-0.1c-0.2,0-0.5,0.1-0.7,0.2c0,0-0.1,0.1-0.2,0.1
		c-0.2,0.2-0.3,0.4-0.4,0.6v0.1c0,0.3,0.2,0.5,0.4,0.7c0.2,0.1,1.2,0.7,6.9,4c0,0,0.1,0,0.1,0.1c0.1,0.1,0.1,0.1,0.1,0.2
		C457,92.9,457,93.1,456.8,93.3L456.8,93.3z"/>
</g>
<g>
	<g>
		<path class="st7" d="M262.4,101.4c-9.9,0-17.9-8-17.9-17.9s8-17.9,17.9-17.9c9.9,0,17.9,8,17.9,17.9S272.3,101.4,262.4,101.4z"/>
		<path class="st8" d="M262.4,67c9.1,0,16.4,7.4,16.4,16.4s-7.4,16.4-16.4,16.4c-9.1,0-16.4-7.4-16.4-16.4S253.4,67,262.4,67
			 M262.4,64c-10.7,0-19.4,8.7-19.4,19.4s8.7,19.4,19.4,19.4c10.7,0,19.4-8.7,19.4-19.4S273.2,64,262.4,64L262.4,64z"/>
	</g>
	<path class="st8" d="M272.8,92.2L272.8,92.2c-0.1-0.1-0.1-0.1-0.2-0.1c-2.3-1.3-6.7-3.9-6.9-4h0c-0.1-0.1-0.2-0.2-0.2-0.3v-0.1
		c0-0.1,0.1-0.2,0.2-0.3l0,0c0,0,0.1-0.1,0.1-0.1c0.1-0.1,0.3-0.1,0.5-0.2c0.2,0,0.4,0,0.5,0.1c0.2,0.1,2.1,1.2,3.4,1.9
		c0.5,0.3,1.3,0.2,1.8-0.2c0.2-0.2,0.4-0.4,0.4-0.7c0-0.2-0.1-0.4-0.3-0.6c0,0,0,0,0,0c-0.1,0-1.5-0.9-2.4-1.4
		c-0.2-0.1-0.3-0.2-0.2-0.4c0-0.1,0-0.1,0.2-0.2c0,0,0,0,0.1,0c0.1-0.1,0.2-0.1,0.3-0.2c0.3-0.1,0.6-0.1,0.9,0l0.4,0.2
		c0.2,0.1,0.4,0.2,0.7,0.2c0.4,0,0.8-0.1,1-0.4c0.2-0.2,0.4-0.4,0.4-0.7c0-0.2-0.1-0.4-0.3-0.6c0,0,0,0,0,0c0,0,0,0,0,0
		c0,0-0.1,0-0.1-0.1l-5.3-3v-1.1c0,0,0.1,0,0.2-0.1c0.3-0.2,0.2-0.5,0.2-0.6c0-0.5-0.2-0.9-0.3-1.4c-0.1-0.4-0.2-0.8-0.2-1.1l0-0.3
		c0-0.4,0.1-0.8,0.1-1.2c0.4-0.6,0.5-1.3,0.2-1.9c-0.2-0.5-0.6-0.8-1-1c-0.4-0.2-0.9-0.1-1.3,0.1l-13,6.7c-0.8,0.5-1.1,1.5-0.7,2.4
		l0,0c0.1,0.2,0.2,0.3,0.2,0.3l0,0c0.3,0.4,0.5,0.9,0.6,1.7c0,0.3,0,0.7-0.1,1.1c-0.1,0.6-0.2,1.1,0,1.6l0,0
		c0.2,0.3,0.5,0.5,0.8,0.5v0.9c0,0,0,0,0,0.1c0.1,0.2,0.3,0.3,0.5,0.3h0.1c0,0,0,0,0.1,0c0.6,0.4,5.4,3.1,8,4.6
		c0.5,0.3,1.3,0.2,1.8-0.2c0.2-0.2,0.4-0.4,0.4-0.7c0-0.2-0.1-0.4-0.2-0.6c-0.1-0.1-0.2-0.1-0.2-0.2l-2.6-1.5
		c-0.1-0.1-0.2-0.2-0.2-0.3v-0.1c0-0.1,0.1-0.2,0.2-0.3c0.2-0.2,0.4-0.2,0.7-0.2c0.1,0,0.2,0,0.3,0l8.8,5c0.2,0.1,0.5,0.2,0.7,0.2
		c0.4,0,0.8-0.1,1.1-0.4c0.3-0.2,0.4-0.6,0.4-0.9C273.1,92.5,273,92.3,272.8,92.2L272.8,92.2L272.8,92.2z M253.9,87.7
		C253.8,87.7,253.8,87.7,253.9,87.7l-0.1-2l0.1,0L253.9,87.7z M254.1,85.3l-0.3,0c0,0-0.2,0-0.2,0c-0.1,0.1-0.1,0.2-0.1,0.3v0.6
		c-0.1,0-0.2-0.1-0.2-0.1c-0.1-0.4,0-0.9,0-1.3c0.1-0.4,0.1-0.9,0.1-1.3c-0.1-0.9-0.3-1.6-0.7-2c0,0-0.1-0.1-0.2-0.2
		c-0.2-0.6-0.1-1.3,0.4-1.6l13-6.7c0.2-0.1,0.5-0.2,0.7-0.1c0.3,0.1,0.5,0.3,0.6,0.6c0.2,0.4,0.1,0.9-0.1,1.3c0,0-0.1,0.1-0.1,0.1
		l-6.9,3.7c-0.1,0.1-0.2,0.2-0.1,0.3c0,0.1,0.1,0.1,0.2,0.1c0,0,0.1,0,0.1,0l6.7-3.5c0,0.3-0.1,0.6-0.1,0.9l0,0.3
		c0,0.4,0.1,0.9,0.2,1.3c0.1,0.4,0.2,0.8,0.2,1.2v0.1c0,0-0.1,0.1-0.1,0.2L255,85.9c0-0.4-0.1-0.9-0.2-1.3c-0.1-0.4-0.2-0.8-0.1-1.1
		c0-0.2,0-0.4,0-0.5c0-0.3,0-0.6,0.1-1.1l0.1-0.3c0,0,0,0,0-0.1c0,0,0,0,0-0.1c0.2-0.5,0.2-0.9,0-1.3c0-0.1-0.2-0.2-0.3-0.1
		c-0.1,0-0.2,0.2-0.1,0.3c0.2,0.4,0.2,0.6,0,1v0c0,0,0,0,0,0.1c0,0,0,0.1,0,0.1l-0.1,0.3c-0.1,0.5-0.1,0.8-0.1,1.1
		c0,0.2,0,0.3,0,0.5c0,0.4,0.1,0.8,0.2,1.3c0.1,0.5,0.2,1,0.2,1.4c0,0-0.1,0.1-0.2,0.2v-0.5C254.4,85.6,254.4,85.4,254.1,85.3
		L254.1,85.3z M254.3,86.6c0.2,0,12.7-6.6,12.7-6.6v0.9l-12.8,6.6L254.3,86.6z M272.4,93.3c-0.3,0.3-0.9,0.4-1.3,0.1l-8.8-5.1
		c0,0,0,0,0,0c-0.2,0-0.3-0.1-0.5-0.1c-0.4,0-0.7,0.1-1,0.3c-0.2,0.2-0.3,0.4-0.4,0.6v0.1c0,0.3,0.1,0.5,0.4,0.7l2.7,1.5
		c0,0,0,0,0,0c0,0,0,0,0,0c0.1,0.1,0.1,0.2,0.1,0.3c0,0.1-0.1,0.3-0.2,0.4c-0.4,0.3-0.9,0.4-1.3,0.2c-1.1-0.7-6.3-3.7-7.7-4.5
		l12.6-6.5l5.4,3.1c0,0,0,0,0,0c0,0,0,0,0.1,0c0.1,0.1,0.1,0.2,0.1,0.2c0,0.1-0.1,0.3-0.2,0.4c-0.2,0.2-0.5,0.3-0.8,0.3
		c-0.2,0-0.4,0-0.5-0.1L271,85c-0.3-0.2-0.8-0.2-1.2-0.1c-0.2,0-0.3,0.1-0.4,0.2c0,0,0,0-0.1,0c-0.2,0.2-0.3,0.4-0.3,0.6
		c-0.1,0.3,0.1,0.6,0.4,0.8c0.8,0.5,2.2,1.3,2.4,1.4c0.1,0.1,0.1,0.2,0.1,0.2c0,0.1-0.1,0.3-0.2,0.4c-0.3,0.3-0.9,0.4-1.3,0.1
		c-2.6-1.5-3.2-1.9-3.4-2c-0.2-0.1-0.5-0.1-0.7-0.1c-0.2,0-0.5,0.1-0.7,0.2c0,0-0.1,0.1-0.2,0.1c-0.2,0.2-0.3,0.4-0.4,0.6v0.1
		c0,0.3,0.2,0.5,0.4,0.7c0.2,0.1,1.2,0.7,6.9,4c0,0,0.1,0,0.1,0.1c0.1,0.1,0.1,0.1,0.1,0.2C272.7,92.9,272.6,93.1,272.4,93.3
		L272.4,93.3z"/>
</g>
<g>
	<g>
		<path class="st7" d="M170.2,101.4c-9.9,0-17.9-8-17.9-17.9s8-17.9,17.9-17.9s17.9,8,17.9,17.9S180.1,101.4,170.2,101.4z"/>
		<path class="st8" d="M170.2,67c9.1,0,16.4,7.4,16.4,16.4s-7.4,16.4-16.4,16.4s-16.4-7.4-16.4-16.4S161.2,67,170.2,67 M170.2,64
			c-10.7,0-19.4,8.7-19.4,19.4s8.7,19.4,19.4,19.4s19.4-8.7,19.4-19.4S181,64,170.2,64L170.2,64z"/>
	</g>
	<path class="st8" d="M180.6,92.2L180.6,92.2c-0.1-0.1-0.1-0.1-0.2-0.1c-2.3-1.3-6.7-3.9-6.9-4h0c-0.1-0.1-0.2-0.2-0.2-0.3v-0.1
		c0-0.1,0.1-0.2,0.2-0.3l0,0c0,0,0.1-0.1,0.1-0.1c0.1-0.1,0.3-0.1,0.5-0.2c0.2,0,0.4,0,0.5,0.1c0.2,0.1,2.1,1.2,3.4,1.9
		c0.5,0.3,1.3,0.2,1.8-0.2c0.2-0.2,0.4-0.4,0.4-0.7c0-0.2-0.1-0.4-0.3-0.6c0,0,0,0,0,0c-0.1,0-1.5-0.9-2.4-1.4
		c-0.2-0.1-0.3-0.2-0.2-0.4c0-0.1,0-0.1,0.2-0.2c0,0,0,0,0.1,0c0.1-0.1,0.2-0.1,0.3-0.2c0.3-0.1,0.6-0.1,0.9,0l0.4,0.2
		c0.2,0.1,0.4,0.2,0.7,0.2c0.4,0,0.8-0.1,1-0.4c0.2-0.2,0.4-0.4,0.4-0.7c0-0.2-0.1-0.4-0.3-0.6c0,0,0,0,0,0c0,0,0,0,0,0
		c0,0-0.1,0-0.1-0.1l-5.3-3v-1.1c0,0,0.1,0,0.2-0.1c0.3-0.2,0.2-0.5,0.2-0.6c0-0.5-0.2-0.9-0.3-1.4c-0.1-0.4-0.2-0.8-0.2-1.1l0-0.3
		c0-0.4,0.1-0.8,0.1-1.2c0.4-0.6,0.5-1.3,0.2-1.9c-0.2-0.5-0.6-0.8-1-1c-0.4-0.2-0.9-0.1-1.3,0.1l-13,6.7c-0.8,0.5-1.1,1.5-0.7,2.4
		l0,0c0.1,0.2,0.2,0.3,0.2,0.3l0,0c0.3,0.4,0.5,0.9,0.6,1.7c0,0.3,0,0.7-0.1,1.1c-0.1,0.6-0.2,1.1,0,1.6l0,0
		c0.2,0.3,0.5,0.5,0.8,0.5v0.9c0,0,0,0,0,0.1c0.1,0.2,0.3,0.3,0.5,0.3h0.1c0,0,0,0,0.1,0c0.6,0.4,5.4,3.1,8,4.6
		c0.5,0.3,1.3,0.2,1.8-0.2c0.2-0.2,0.4-0.4,0.4-0.7c0-0.2-0.1-0.4-0.2-0.6c-0.1-0.1-0.2-0.1-0.2-0.2l-2.6-1.5
		c-0.1-0.1-0.2-0.2-0.2-0.3v-0.1c0-0.1,0.1-0.2,0.2-0.3c0.2-0.2,0.4-0.2,0.7-0.2c0.1,0,0.2,0,0.3,0l8.8,5c0.2,0.1,0.5,0.2,0.7,0.2
		c0.4,0,0.8-0.1,1.1-0.4c0.3-0.2,0.4-0.6,0.4-0.9C180.9,92.5,180.8,92.3,180.6,92.2L180.6,92.2L180.6,92.2z M161.7,87.7
		C161.7,87.7,161.6,87.7,161.7,87.7l-0.1-2l0.1,0L161.7,87.7z M161.9,85.3l-0.3,0c0,0-0.2,0-0.2,0c-0.1,0.1-0.1,0.2-0.1,0.3v0.6
		c-0.1,0-0.2-0.1-0.2-0.1c-0.1-0.4,0-0.9,0-1.3c0.1-0.4,0.1-0.9,0.1-1.3c-0.1-0.9-0.3-1.6-0.7-2c0,0-0.1-0.1-0.2-0.2
		c-0.2-0.6-0.1-1.3,0.4-1.6l13-6.7c0.2-0.1,0.5-0.2,0.7-0.1c0.3,0.1,0.5,0.3,0.6,0.6c0.2,0.4,0.1,0.9-0.1,1.3c0,0-0.1,0.1-0.1,0.1
		l-6.9,3.7c-0.1,0.1-0.2,0.2-0.1,0.3c0,0.1,0.1,0.1,0.2,0.1c0,0,0.1,0,0.1,0l6.7-3.5c0,0.3-0.1,0.6-0.1,0.9l0,0.3
		c0,0.4,0.1,0.9,0.2,1.3c0.1,0.4,0.2,0.8,0.2,1.2v0.1c0,0-0.1,0.1-0.1,0.2l-12.2,6.4c0-0.4-0.1-0.9-0.2-1.3
		c-0.1-0.4-0.2-0.8-0.1-1.1c0-0.2,0-0.4,0-0.5c0-0.3,0-0.6,0.1-1.1l0.1-0.3c0,0,0,0,0-0.1c0,0,0,0,0-0.1c0.2-0.5,0.2-0.9,0-1.3
		c0-0.1-0.2-0.2-0.3-0.1c-0.1,0-0.2,0.2-0.1,0.3c0.2,0.4,0.2,0.6,0,1v0c0,0,0,0,0,0.1c0,0,0,0.1,0,0.1l-0.1,0.3
		c-0.1,0.5-0.1,0.8-0.1,1.1c0,0.2,0,0.3,0,0.5c0,0.4,0.1,0.8,0.2,1.3c0.1,0.5,0.2,1,0.2,1.4c0,0-0.1,0.1-0.2,0.2v-0.5
		C162.2,85.6,162.2,85.4,161.9,85.3L161.9,85.3z M162.1,86.6c0.2,0,12.7-6.6,12.7-6.6v0.9l-12.8,6.6L162.1,86.6z M180.2,93.3
		c-0.3,0.3-0.9,0.4-1.3,0.1l-8.8-5.1c0,0,0,0,0,0c-0.2,0-0.3-0.1-0.5-0.1c-0.4,0-0.7,0.1-1,0.3c-0.2,0.2-0.3,0.4-0.4,0.6v0.1
		c0,0.3,0.1,0.5,0.4,0.7l2.7,1.5c0,0,0,0,0,0c0,0,0,0,0,0c0.1,0.1,0.1,0.2,0.1,0.3c0,0.1-0.1,0.3-0.2,0.4c-0.4,0.3-0.9,0.4-1.3,0.2
		c-1.1-0.7-6.3-3.7-7.7-4.5l12.6-6.5l5.4,3.1c0,0,0,0,0,0c0,0,0,0,0.1,0c0.1,0.1,0.1,0.2,0.1,0.2c0,0.1-0.1,0.3-0.2,0.4
		c-0.2,0.2-0.5,0.3-0.8,0.3c-0.2,0-0.4,0-0.5-0.1l-0.4-0.2c-0.3-0.2-0.8-0.2-1.2-0.1c-0.2,0-0.3,0.1-0.4,0.2c0,0,0,0-0.1,0
		c-0.2,0.2-0.3,0.4-0.3,0.6c-0.1,0.3,0.1,0.6,0.4,0.8c0.8,0.5,2.2,1.3,2.4,1.4c0.1,0.1,0.1,0.2,0.1,0.2c0,0.1-0.1,0.3-0.2,0.4
		c-0.3,0.3-0.9,0.4-1.3,0.1c-2.6-1.5-3.2-1.9-3.4-2c-0.2-0.1-0.5-0.1-0.7-0.1c-0.2,0-0.5,0.1-0.7,0.2c0,0-0.1,0.1-0.2,0.1
		c-0.2,0.2-0.3,0.4-0.4,0.6v0.1c0,0.3,0.2,0.5,0.4,0.7c0.2,0.1,1.2,0.7,6.9,4c0,0,0.1,0,0.1,0.1c0.1,0.1,0.1,0.1,0.1,0.2
		C180.5,92.9,180.4,93.1,180.2,93.3L180.2,93.3z"/>
</g>
<path class="st8" d="M88.4,92.2L88.4,92.2c-0.1-0.1-0.1-0.1-0.2-0.1c-2.3-1.3-6.7-3.9-6.9-4h0c-0.1-0.1-0.2-0.2-0.2-0.3v-0.1
	c0-0.1,0.1-0.2,0.2-0.3l0,0c0,0,0.1-0.1,0.1-0.1c0.1-0.1,0.3-0.1,0.5-0.2c0.2,0,0.4,0,0.5,0.1c0.2,0.1,2.1,1.2,3.4,1.9
	c0.5,0.3,1.3,0.2,1.8-0.2c0.2-0.2,0.4-0.4,0.4-0.7c0-0.2-0.1-0.4-0.3-0.6c0,0,0,0,0,0c-0.1,0-1.5-0.9-2.4-1.4
	C85.1,86.1,85,86,85,85.8c0-0.1,0-0.1,0.2-0.2c0,0,0,0,0.1,0c0.1-0.1,0.2-0.1,0.3-0.2c0.3-0.1,0.6-0.1,0.9,0l0.4,0.2
	c0.2,0.1,0.4,0.2,0.7,0.2c0.4,0,0.8-0.1,1-0.4c0.2-0.2,0.4-0.4,0.4-0.7c0-0.2-0.1-0.4-0.3-0.6c0,0,0,0,0,0c0,0,0,0,0,0
	c0,0-0.1,0-0.1-0.1l-5.3-3v-1.1c0,0,0.1,0,0.2-0.1c0.3-0.2,0.2-0.5,0.2-0.6c0-0.5-0.2-0.9-0.3-1.4C83.1,77.4,83,77,83,76.7l0-0.3
	c0-0.4,0.1-0.8,0.1-1.2c0.4-0.6,0.5-1.3,0.2-1.9c-0.2-0.5-0.6-0.8-1-1c-0.4-0.2-0.9-0.1-1.3,0.1l-13,6.7c-0.8,0.5-1.1,1.5-0.7,2.4
	l0,0c0.1,0.2,0.2,0.3,0.2,0.3l0,0c0.3,0.4,0.5,0.9,0.6,1.7c0,0.3,0,0.7-0.1,1.1c-0.1,0.6-0.2,1.1,0,1.6l0,0c0.2,0.3,0.5,0.5,0.8,0.5
	v0.9c0,0,0,0,0,0.1c0.1,0.2,0.3,0.3,0.5,0.3h0.1c0,0,0,0,0.1,0c0.6,0.4,5.4,3.1,8,4.6c0.5,0.3,1.3,0.2,1.8-0.2
	c0.2-0.2,0.4-0.4,0.4-0.7c0-0.2-0.1-0.4-0.2-0.6c-0.1-0.1-0.2-0.1-0.2-0.2l-2.6-1.5c-0.1-0.1-0.2-0.2-0.2-0.3v-0.1
	c0-0.1,0.1-0.2,0.2-0.3c0.2-0.2,0.4-0.2,0.7-0.2c0.1,0,0.2,0,0.3,0l8.8,5c0.2,0.1,0.5,0.2,0.7,0.2c0.4,0,0.8-0.1,1.1-0.4
	c0.3-0.2,0.4-0.6,0.4-0.9C88.7,92.5,88.6,92.3,88.4,92.2L88.4,92.2L88.4,92.2z M69.5,87.7C69.5,87.7,69.4,87.7,69.5,87.7l-0.1-2
	l0.1,0L69.5,87.7z M69.7,85.3l-0.3,0c0,0-0.2,0-0.2,0C69,85.4,69,85.5,69,85.6v0.6c-0.1,0-0.2-0.1-0.2-0.1c-0.1-0.4,0-0.9,0-1.3
	c0.1-0.4,0.1-0.9,0.1-1.3c-0.1-0.9-0.3-1.6-0.7-2c0,0-0.1-0.1-0.2-0.2c-0.2-0.6-0.1-1.3,0.4-1.6l13-6.7c0.2-0.1,0.5-0.2,0.7-0.1
	c0.3,0.1,0.5,0.3,0.6,0.6c0.2,0.4,0.1,0.9-0.1,1.3c0,0-0.1,0.1-0.1,0.1l-6.9,3.7c-0.1,0.1-0.2,0.2-0.1,0.3c0,0.1,0.1,0.1,0.2,0.1
	c0,0,0.1,0,0.1,0l6.7-3.5c0,0.3-0.1,0.6-0.1,0.9l0,0.3c0,0.4,0.1,0.9,0.2,1.3c0.1,0.4,0.2,0.8,0.2,1.2v0.1c0,0-0.1,0.1-0.1,0.2
	l-12.2,6.4c0-0.4-0.1-0.9-0.2-1.3c-0.1-0.4-0.2-0.8-0.1-1.1c0-0.2,0-0.4,0-0.5c0-0.3,0-0.6,0.1-1.1l0.1-0.3c0,0,0,0,0-0.1
	c0,0,0,0,0-0.1c0.2-0.5,0.2-0.9,0-1.3c0-0.1-0.2-0.2-0.3-0.1c-0.1,0-0.2,0.2-0.1,0.3c0.2,0.4,0.2,0.6,0,1v0c0,0,0,0,0,0.1
	c0,0,0,0.1,0,0.1L70,81.7c-0.1,0.5-0.1,0.8-0.1,1.1c0,0.2,0,0.3,0,0.5c0,0.4,0.1,0.8,0.2,1.3c0.1,0.5,0.2,1,0.2,1.4
	c0,0-0.1,0.1-0.2,0.2v-0.5C70,85.6,70,85.4,69.7,85.3L69.7,85.3z M69.9,86.6c0.2,0,12.7-6.6,12.7-6.6v0.9l-12.8,6.6L69.9,86.6z
	 M88,93.3c-0.3,0.3-0.9,0.4-1.3,0.1L78,88.3c0,0,0,0,0,0c-0.2,0-0.3-0.1-0.5-0.1c-0.4,0-0.7,0.1-1,0.3c-0.2,0.2-0.3,0.4-0.4,0.6v0.1
	c0,0.3,0.1,0.5,0.4,0.7l2.7,1.5c0,0,0,0,0,0c0,0,0,0,0,0c0.1,0.1,0.1,0.2,0.1,0.3c0,0.1-0.1,0.3-0.2,0.4c-0.4,0.3-0.9,0.4-1.3,0.2
	c-1.1-0.7-6.3-3.7-7.7-4.5l12.6-6.5l5.4,3.1c0,0,0,0,0,0c0,0,0,0,0.1,0c0.1,0.1,0.1,0.2,0.1,0.2c0,0.1-0.1,0.3-0.2,0.4
	c-0.2,0.2-0.5,0.3-0.8,0.3c-0.2,0-0.4,0-0.5-0.1L86.6,85c-0.3-0.2-0.8-0.2-1.2-0.1c-0.2,0-0.3,0.1-0.4,0.2c0,0,0,0-0.1,0
	c-0.2,0.2-0.3,0.4-0.3,0.6c-0.1,0.3,0.1,0.6,0.4,0.8c0.8,0.5,2.2,1.3,2.4,1.4c0.1,0.1,0.1,0.2,0.1,0.2c0,0.1-0.1,0.3-0.2,0.4
	C87,88.9,86.4,89,86,88.8c-2.6-1.5-3.2-1.9-3.4-2c-0.2-0.1-0.5-0.1-0.7-0.1c-0.2,0-0.5,0.1-0.7,0.2c0,0-0.1,0.1-0.2,0.1
	c-0.2,0.2-0.3,0.4-0.4,0.6v0.1c0,0.3,0.2,0.5,0.4,0.7c0.2,0.1,1.2,0.7,6.9,4c0,0,0.1,0,0.1,0.1c0.1,0.1,0.1,0.1,0.1,0.2
	C88.3,92.9,88.2,93.1,88,93.3L88,93.3z"/>
</svg>
