<?xml version="1.0" encoding="utf-8"?>
<!-- Generator: Adobe Illustrator 27.2.0, SVG Export Plug-In . SVG Version: 6.00 Build 0)  -->
<svg version="1.1" id="Laag_1" xmlns="http://www.w3.org/2000/svg" xmlns:xlink="http://www.w3.org/1999/xlink" x="0px" y="0px"
	 viewBox="0 0 652.4 108.6" style="enable-background:new 0 0 652.4 108.6;" xml:space="preserve">
<style type="text/css">
	.st0{fill:#1D1D1B;}
	.st1{fill:none;}
	.st2{font-family:'Poppins-Regular';}
	.st3{font-size:6px;}
	.st4{fill:#702DBD;}
	.st5{fill:#FFFFFF;}
	.st6{font-size:7px;}
	.st7{letter-spacing:1;}
</style>
<rect x="1.2" y="18.2" class="st0" width="650" height="2.5"/>
<g>
	<g>
		<rect x="134.5" y="71.4" class="st1" width="114.3" height="37.2"/>
		<text transform="matrix(1 0 0 1 140.5539 75.8283)"><tspan x="0" y="0" class="st0 st2 st3">We make a competitive quotation </tspan><tspan x="6.6" y="9" class="st0 st2 st3">based on your custom needs.</tspan></text>
		<g>
			<g>
				<g>
					<path class="st4" d="M191.7,37.4c-9.9,0-17.9-8-17.9-17.9s8-17.9,17.9-17.9s17.9,8,17.9,17.9S201.6,37.4,191.7,37.4z"/>
					<path class="st5" d="M191.7,3c9.1,0,16.4,7.4,16.4,16.4s-7.4,16.4-16.4,16.4s-16.4-7.4-16.4-16.4S182.6,3,191.7,3 M191.7,0
						c-10.7,0-19.4,8.7-19.4,19.4s8.7,19.4,19.4,19.4s19.4-8.7,19.4-19.4S202.4,0,191.7,0L191.7,0z"/>
				</g>
			</g>
			<g>
				<path class="st5" d="M199.7,9.9c-0.1-0.1-0.2-0.1-0.3-0.1H184c-0.3,0-0.5,0.2-0.5,0.5v18.3c0,0.3,0.2,0.5,0.5,0.5h15.4
					c0.3,0,0.5-0.2,0.5-0.5V10.3C199.8,10.2,199.8,10,199.7,9.9z M184.5,28.2V10.7h14.4v17.4H184.5z"/>
				<path class="st5" d="M197.2,11.9h-11.1c-0.3,0-0.5,0.2-0.5,0.5v3.4c0,0.3,0.2,0.5,0.5,0.5h11.1c0.3,0,0.5-0.2,0.5-0.5v-3.4
					c0-0.1,0-0.2-0.1-0.3C197.5,12,197.3,11.9,197.2,11.9z M196.8,12.9v2.5h-10.2v-2.5H196.8z"/>
				<path class="st5" d="M190.4,23.9h-4.3c-0.3,0-0.5,0.2-0.5,0.5v2.1c0,0.3,0.2,0.5,0.5,0.5h4.3c0.3,0,0.5-0.2,0.5-0.5v-2.1
					C190.9,24.1,190.6,23.9,190.4,23.9z M189.9,24.8V26h-3.4v-1.2H189.9z"/>
				<path class="st5" d="M190.6,17.5h-0.9c-0.3,0-0.5,0.2-0.5,0.5c0,0.3,0.2,0.5,0.5,0.5h0.9c0.3,0,0.5-0.2,0.5-0.5
					C191.1,17.7,190.9,17.5,190.6,17.5z"/>
				<path class="st5" d="M186.8,18.4h0.9c0.3,0,0.5-0.2,0.5-0.5c0-0.3-0.2-0.5-0.5-0.5h-0.9c-0.3,0-0.5,0.2-0.5,0.5
					C186.3,18.2,186.5,18.4,186.8,18.4z"/>
				<path class="st5" d="M193.6,17.5h-0.9c-0.3,0-0.5,0.2-0.5,0.5c0,0.3,0.2,0.5,0.5,0.5h0.9c0.3,0,0.5-0.2,0.5-0.5
					C194.1,17.7,193.8,17.5,193.6,17.5z"/>
				<path class="st5" d="M196.6,17.5h-0.9c-0.3,0-0.5,0.2-0.5,0.5c0,0.3,0.2,0.5,0.5,0.5h0.9c0.3,0,0.5-0.2,0.5-0.5
					C197,17.7,196.8,17.5,196.6,17.5z"/>
				<path class="st5" d="M190.6,19.6h-0.9c-0.3,0-0.5,0.2-0.5,0.5c0,0.3,0.2,0.5,0.5,0.5h0.9c0.3,0,0.5-0.2,0.5-0.5
					C191.1,19.8,190.9,19.6,190.6,19.6z"/>
				<path class="st5" d="M186.8,20.5h0.9c0.3,0,0.5-0.2,0.5-0.5c0-0.3-0.2-0.5-0.5-0.5h-0.9c-0.3,0-0.5,0.2-0.5,0.5
					C186.3,20.3,186.5,20.5,186.8,20.5z"/>
				<path class="st5" d="M193.6,19.6h-0.9c-0.3,0-0.5,0.2-0.5,0.5c0,0.3,0.2,0.5,0.5,0.5h0.9c0.3,0,0.5-0.2,0.5-0.5
					C194.1,19.8,193.8,19.6,193.6,19.6z"/>
				<path class="st5" d="M196.6,19.6h-0.9c-0.3,0-0.5,0.2-0.5,0.5c0,0.3,0.2,0.5,0.5,0.5h0.9c0.3,0,0.5-0.2,0.5-0.5
					C197,19.8,196.8,19.6,196.6,19.6z"/>
				<path class="st5" d="M190.6,21.8h-0.9c-0.3,0-0.5,0.2-0.5,0.5c0,0.3,0.2,0.5,0.5,0.5h0.9c0.3,0,0.5-0.2,0.5-0.5
					C191.1,22,190.9,21.8,190.6,21.8z"/>
				<path class="st5" d="M186.8,22.7h0.9c0.3,0,0.5-0.2,0.5-0.5c0-0.3-0.2-0.5-0.5-0.5h-0.9c-0.3,0-0.5,0.2-0.5,0.5
					C186.3,22.5,186.5,22.7,186.8,22.7z"/>
				<path class="st5" d="M193.6,21.8h-0.9c-0.3,0-0.5,0.2-0.5,0.5c0,0.3,0.2,0.5,0.5,0.5h0.9c0.3,0,0.5-0.2,0.5-0.5
					C194.1,22,193.8,21.8,193.6,21.8z"/>
				<path class="st5" d="M196.6,21.8h-0.9c-0.3,0-0.5,0.2-0.5,0.5c0,0.3,0.2,0.5,0.5,0.5h0.9c0.3,0,0.5-0.2,0.5-0.5
					C197,22,196.8,21.8,196.6,21.8z"/>
				<path class="st5" d="M193.6,23.9h-0.9c-0.3,0-0.5,0.2-0.5,0.5c0,0.3,0.2,0.5,0.5,0.5h0.9c0.3,0,0.5-0.2,0.5-0.5
					C194.1,24.1,193.8,23.9,193.6,23.9z"/>
				<path class="st5" d="M196.6,23.9h-0.9c-0.3,0-0.5,0.2-0.5,0.5c0,0.3,0.2,0.5,0.5,0.5h0.9c0.3,0,0.5-0.2,0.5-0.5
					C197,24.1,196.8,23.9,196.6,23.9z"/>
				<path class="st5" d="M193.6,26h-0.9c-0.3,0-0.5,0.2-0.5,0.5c0,0.3,0.2,0.5,0.5,0.5h0.9c0.3,0,0.5-0.2,0.5-0.5
					C194.1,26.2,193.8,26,193.6,26z"/>
				<path class="st5" d="M196.6,26h-0.9c-0.3,0-0.5,0.2-0.5,0.5c0,0.3,0.2,0.5,0.5,0.5h0.9c0.3,0,0.5-0.2,0.5-0.5
					C197,26.2,196.8,26,196.6,26z"/>
			</g>
		</g>
		<rect x="143.1" y="54.1" class="st1" width="97.1" height="17.3"/>
		<text transform="matrix(1 0 0 1 165.9854 59.2665)" class="st2 st6 st7">QUOTATION</text>
	</g>
	<g>
		<rect x="269.1" y="71.4" class="st1" width="114.3" height="37.2"/>
		<text transform="matrix(1 0 0 1 275.0572 75.8283)"><tspan x="0" y="0" class="st0 st2 st3">Our fashion designers design your </tspan><tspan x="4.8" y="9" class="st0 st2 st3">unique company fashion in 3D, </tspan><tspan x="-2.5" y="18" class="st0 st2 st3">starting from your brand guidelines.</tspan></text>
		<g>
			<g>
				<g>
					<path class="st4" d="M326.2,37.4c-9.9,0-17.9-8-17.9-17.9s8-17.9,17.9-17.9s17.9,8,17.9,17.9S336.1,37.4,326.2,37.4z"/>
					<path class="st5" d="M326.2,3c9.1,0,16.4,7.4,16.4,16.4s-7.4,16.4-16.4,16.4s-16.4-7.4-16.4-16.4S317.1,3,326.2,3 M326.2,0
						c-10.7,0-19.4,8.7-19.4,19.4s8.7,19.4,19.4,19.4c10.7,0,19.4-8.7,19.4-19.4S336.9,0,326.2,0L326.2,0z"/>
				</g>
			</g>
			<path class="st5" d="M335.8,24l-5.2-5.2l4.4-4.4c0.7-0.7,0.9-1.7,0.7-2.6c-0.2-0.9-1-1.7-1.9-1.9c-0.9-0.2-1.9,0-2.6,0.7
				l-4.4,4.4l-5.2-5.2c-0.1-0.1-0.2-0.1-0.3-0.1s-0.2,0-0.3,0.1l-4.4,4.4c-0.1,0.1-0.1,0.2-0.1,0.3c0,0.1,0,0.2,0.1,0.3l5.2,5.2
				c-4.6,4.6-4.4,4.5-4.4,4.4c-0.1,0.1,0-0.2-0.9,4.2c0,0.1,0,0.2,0.1,0.3c0.1,0.1,0.2,0.1,0.3,0.1c0,0,4.1-0.8,4.3-0.9
				c0.1-0.1,1.2-1.1,4.4-4.4c5.6,5.6,5.2,5.3,5.5,5.3c0.2,0-0.1,0.3,4.7-4.6c0.1-0.1,0.1-0.2,0.1-0.3S335.9,24.1,335.8,24L335.8,24z
				 M321.2,27.1L321.2,27.1c-0.1-0.5-0.4-1-0.7-1.4l10.1-10.1l1,1.1L321.2,27.1z M329,14l1,1L320,25.1v0c-0.4-0.3-0.9-0.6-1.4-0.7
				L329,14z M317.6,27.2c0.3,0.2,0.6,0.5,0.8,0.8l-1.1,0.2L317.6,27.2z M319.3,27.8c-0.3-0.7-0.9-1.2-1.5-1.5l0.2-1.2
				c0.6,0.1,1.2,0.4,1.7,0.8c0.5,0.5,0.7,1.1,0.8,1.7L319.3,27.8z M331.7,11.2c0.4-0.4,0.8-0.5,1.3-0.5c0.5,0,1,0.2,1.3,0.5
				c0.4,0.4,0.6,0.8,0.6,1.3c0,0.9-0.6,1.3-1.3,2.1L331,12L331.7,11.2z M330.5,12.5l2.7,2.7l-0.8,0.8l-2.7-2.7L330.5,12.5z
				 M317.5,14.6l3.9-3.9l0.6,0.6l-0.5,0.5v0c-0.2,0.2-0.2,0.4,0,0.6c0.2,0.2,0.4,0.2,0.6,0l0.5-0.5l1,1l-1.3,1.3
				c-0.2,0.2-0.2,0.4,0,0.6c0.2,0.2,0.4,0.2,0.6,0l1.3-1.3l0.8,0.8l-0.5,0.5v0c-0.2,0.2-0.2,0.4,0,0.6c0.2,0.2,0.4,0.2,0.6,0
				l0.5-0.5l0.6,0.6l-3.9,3.9L317.5,14.6z M331.1,28.2l-4.9-4.9l3.9-3.9l0.6,0.6l-1.3,1.3c-0.1,0.1-0.2,0.3-0.1,0.4
				c0.1,0.2,0.2,0.2,0.4,0.2c0.2,0,0.2,0,1.6-1.4l0.8,0.8l-0.5,0.5h0c-0.1,0.1-0.2,0.3-0.1,0.4c0.1,0.2,0.2,0.2,0.4,0.2
				c0.2,0,0.3-0.1,0.8-0.6l1,1l-1.3,1.3c-0.1,0.1-0.2,0.3-0.1,0.4c0.1,0.2,0.2,0.2,0.4,0.2c0.2,0,0.2,0,1.6-1.4l0.6,0.6L331.1,28.2z
				"/>
		</g>
		<rect x="277.7" y="54.1" class="st1" width="97.1" height="17.3"/>
		<text transform="matrix(1 0 0 1 310.3401 59.2665)" class="st2 st6 st7">DESIGN</text>
	</g>
	<g>
		<rect x="403.6" y="71.4" class="st1" width="114.3" height="37.2"/>
		<text transform="matrix(1 0 0 1 412.9353 75.8283)"><tspan x="0" y="0" class="st0 st2 st3">Our team carefully monitors the </tspan><tspan x="-0.5" y="9" class="st0 st2 st3">process so your clothing is sewn </tspan><tspan x="2.3" y="18" class="st0 st2 st3">exactly like your virtual design.</tspan></text>
		<g>
			<g>
				<g>
					<path class="st4" d="M460.7,37.4c-9.9,0-17.9-8-17.9-17.9s8-17.9,17.9-17.9s17.9,8,17.9,17.9S470.6,37.4,460.7,37.4z"/>
					<path class="st5" d="M460.7,3c9.1,0,16.4,7.4,16.4,16.4s-7.4,16.4-16.4,16.4s-16.4-7.4-16.4-16.4S451.7,3,460.7,3 M460.7,0
						c-10.7,0-19.4,8.7-19.4,19.4s8.7,19.4,19.4,19.4s19.4-8.7,19.4-19.4S471.5,0,460.7,0L460.7,0z"/>
				</g>
			</g>
			<g>
				<path class="st5" d="M467.3,15.7h1.2c0.2,0,0.4-0.2,0.4-0.4V13c0-0.2-0.2-0.4-0.4-0.4h-10.8c-0.2,0-0.4,0.2-0.4,0.4v2.3
					c0,0.2,0.2,0.4,0.4,0.4h1.2v10.1h-1.2c-0.2,0-0.4,0.2-0.4,0.4v2.3c0,0.2,0.2,0.4,0.4,0.4h10.8c0.2,0,0.4-0.2,0.4-0.4v-2.3
					c0-0.2-0.2-0.4-0.4-0.4h-1.2V15.7z M466.5,20.4v0.8h-7v-0.8H466.5z M459.6,19.6v-0.8h7v0.8H459.6z M466.5,21.9v0.8h-7v-0.8
					H466.5z M466.5,18.1h-7v-0.8h7V18.1z M459.6,23.5h7v0.8h-7V23.5z M458,13.4h10.1V15H458V13.4z M466.5,15.7v0.8h-7v-0.8H466.5z
					 M468.1,28.1H458v-1.5h10.1V28.1z M459.6,25.8V25h7v0.8H459.6z"/>
				<path class="st5" d="M454.6,8c-1.1,0-1.9,0.9-1.9,1.9c0,0.9,1.5,17.9,1.5,18.6c0,0.2,0.2,0.4,0.4,0.4s0.4-0.2,0.4-0.4
					c0.1-0.7,1.5-17.7,1.5-18.6C456.5,8.9,455.6,8,454.6,8L454.6,8z M454.6,24c-0.5-6.1-1.2-13.6-1.2-14.1c0-0.6,0.5-1.2,1.2-1.2
					s1.2,0.5,1.2,1.2C455.7,10.4,455.1,17.9,454.6,24z"/>
				<path class="st5" d="M454.6,9.5c-0.2,0-0.4,0.2-0.4,0.4v1.5c0,0.2,0.2,0.4,0.4,0.4c0.2,0,0.4-0.2,0.4-0.4V9.9
					C454.9,9.7,454.8,9.5,454.6,9.5z"/>
			</g>
		</g>
		<rect x="412.2" y="54.1" class="st1" width="97.1" height="17.3"/>
		<text transform="matrix(1 0 0 1 432.0326 59.2665)" class="st2 st6 st7">PRODUCTION</text>
	</g>
	<g>
		<rect x="538.1" y="71.4" class="st1" width="114.3" height="37.2"/>
		<text transform="matrix(1 0 0 1 541.4471 75.8283)"><tspan x="0" y="0" class="st0 st2 st3">Your goods are approved by quality </tspan><tspan x="3.6" y="9" class="st0 st2 st3">control and ready to ship. You will </tspan><tspan x="2.8" y="18" class="st0 st2 st3">receive a track and trace number.</tspan></text>
		<g>
			<g>
				<g>
					<path class="st4" d="M595.3,37.4c-9.9,0-17.9-8-17.9-17.9s8-17.9,17.9-17.9s17.9,8,17.9,17.9S605.2,37.4,595.3,37.4z"/>
					<path class="st5" d="M595.3,3c9.1,0,16.4,7.4,16.4,16.4s-7.4,16.4-16.4,16.4s-16.4-7.4-16.4-16.4S586.2,3,595.3,3 M595.3,0
						c-10.7,0-19.4,8.7-19.4,19.4s8.7,19.4,19.4,19.4c10.7,0,19.4-8.7,19.4-19.4S606,0,595.3,0L595.3,0z"/>
				</g>
			</g>
			<path class="st5" d="M604.7,10h-14.2c-0.2,0-0.3,0.1-0.4,0.2l-4.7,4.7c-0.1,0.1-0.2,0.2-0.2,0.4v13.1c0,0.3,0.2,0.5,0.5,0.5H600
				c0.1,0,0.3-0.1,0.4-0.2l4.7-4.7c0.1-0.1,0.2-0.2,0.2-0.4l0-13.1C605.2,10.2,605,10,604.7,10L604.7,10z M599.8,14.7H596l3.7-3.7
				l3.8,0L599.8,14.7z M591.6,15.8h2.6v2.1h-2.6V15.8z M592.3,14.7L596,11l2.2,0l-3.7,3.7L592.3,14.7z M590.8,11h3.8l-3.7,3.7h-3.8
				L590.8,11z M586.4,15.8h4.2v2.6c0,0.3,0.2,0.5,0.5,0.5h3.7c0.3,0,0.5-0.2,0.5-0.5v-2.6h4.2v12.1h-13.1L586.4,15.8z M600.5,27.1
				V15.5l3.7-3.7v11.6L600.5,27.1z"/>
		</g>
		<rect x="546.7" y="54.1" class="st1" width="97.1" height="17.3"/>
		<text transform="matrix(1 0 0 1 575.3998 59.2665)" class="st2 st6 st7">DELIVERY</text>
	</g>
	<g>
		<rect y="71.4" class="st1" width="114.3" height="37.2"/>
		<text transform="matrix(1 0 0 1 9.0174 75.8283)"><tspan x="0" y="0" class="st0 st2 st3">One of our experts will reach out </tspan><tspan x="14.8" y="9" class="st0 st2 st3">to you within 24 hours.</tspan></text>
		<g>
			<g>
				<g>
					<path class="st4" d="M57.1,37.4c-9.9,0-17.9-8-17.9-17.9s8-17.9,17.9-17.9s17.9,8,17.9,17.9S67,37.4,57.1,37.4z"/>
					<path class="st5" d="M57.1,3c9.1,0,16.4,7.4,16.4,16.4s-7.4,16.4-16.4,16.4s-16.4-7.4-16.4-16.4S48.1,3,57.1,3 M57.1,0
						C46.4,0,37.7,8.7,37.7,19.4s8.7,19.4,19.4,19.4s19.4-8.7,19.4-19.4S67.9,0,57.1,0L57.1,0z"/>
				</g>
			</g>
			<path class="st5" d="M49.5,8.9c-0.5,0-0.9,0.5-0.9,1v17.4c0,0.5,0.4,1,0.9,1h7.6l-0.2,1.1c0,0.2,0,0.3,0.1,0.4
				c0.1,0.1,0.3,0.2,0.4,0.1l2.8-0.6c0.1,0,0.2-0.1,0.2-0.1l0.9-0.9h2.4c0.5,0,0.9-0.5,0.9-1V25l2.8-2.8c0.4-0.4,0.4-0.9,0-1.3
				l-1.5-1.5c-0.2-0.2-0.4-0.3-0.6-0.3s-0.5,0.1-0.6,0.3l-7,7c-0.1,0.1-0.1,0.1-0.1,0.2l-0.2,0.8h-7.8c0,0,0,0,0-0.1V9.9
				c0,0,0,0,0,0h14.1c0,0,0,0,0,0v8c0,0.1,0,0.3,0.1,0.3c0.1,0.1,0.2,0.1,0.3,0.1c0.1,0,0.3-0.1,0.3-0.1c0.1-0.1,0.1-0.2,0.1-0.3v-8
				c0-0.5-0.4-1-0.9-1L49.5,8.9z M50.6,11.2c-0.1,0-0.2,0.1-0.3,0.2c-0.1,0.1-0.1,0.2-0.1,0.3c0,0.1,0.1,0.2,0.2,0.3
				c0.1,0.1,0.2,0.1,0.3,0.1h3.7c0.1,0,0.3,0,0.3-0.1c0.1-0.1,0.1-0.2,0.1-0.3c0-0.1-0.1-0.3-0.1-0.3c-0.1-0.1-0.2-0.1-0.3-0.1
				L50.6,11.2C50.7,11.2,50.6,11.2,50.6,11.2L50.6,11.2z M50.6,13.2c-0.1,0-0.2,0.1-0.3,0.2c-0.1,0.1-0.1,0.2-0.1,0.3
				s0.1,0.2,0.2,0.3c0.1,0.1,0.2,0.1,0.3,0.1h11.9c0.1,0,0.3,0,0.3-0.1c0.1-0.1,0.1-0.2,0.1-0.3c0-0.1-0.1-0.3-0.1-0.3
				c-0.1-0.1-0.2-0.1-0.3-0.1L50.6,13.2C50.7,13.2,50.6,13.2,50.6,13.2L50.6,13.2z M50.6,15.1c-0.1,0-0.2,0.1-0.3,0.2
				c-0.1,0.1-0.1,0.2-0.1,0.3c0,0.1,0.1,0.2,0.2,0.3c0.1,0.1,0.2,0.1,0.3,0.1h11.9c0.1,0,0.3,0,0.3-0.1c0.1-0.1,0.1-0.2,0.1-0.3
				c0-0.1-0.1-0.3-0.1-0.3c-0.1-0.1-0.2-0.1-0.3-0.1L50.6,15.1C50.7,15.1,50.6,15.1,50.6,15.1L50.6,15.1z M50.6,17.1
				c-0.1,0-0.2,0.1-0.3,0.2c-0.1,0.1-0.1,0.2-0.1,0.3c0,0.1,0.1,0.2,0.2,0.3c0.1,0.1,0.2,0.1,0.3,0.1h11.9c0.1,0,0.3,0,0.3-0.1
				c0.1-0.1,0.1-0.2,0.1-0.3c0-0.1-0.1-0.3-0.1-0.3c-0.1-0.1-0.2-0.1-0.3-0.1L50.6,17.1C50.7,17.1,50.6,17.1,50.6,17.1L50.6,17.1z
				 M50.6,19.1c-0.1,0-0.2,0.1-0.3,0.2c-0.1,0.1-0.1,0.2-0.1,0.3c0,0.1,0.1,0.2,0.2,0.3c0.1,0.1,0.2,0.1,0.3,0.1h11.9
				c0.1,0,0.3,0,0.3-0.1c0.1-0.1,0.1-0.2,0.1-0.3c0-0.1-0.1-0.3-0.1-0.3c-0.1-0.1-0.2-0.1-0.3-0.1L50.6,19.1
				C50.7,19.1,50.6,19.1,50.6,19.1L50.6,19.1z M65.3,20.1l1.5,1.5l-6.6,6.5l-1.5-1.5L65.3,20.1z M50.6,21c-0.1,0-0.2,0.1-0.3,0.2
				c-0.1,0.1-0.1,0.2-0.1,0.3c0,0.1,0.1,0.2,0.2,0.3c0.1,0.1,0.2,0.1,0.3,0.1h9.2c0.1,0,0.3,0,0.3-0.1c0.1-0.1,0.1-0.2,0.1-0.3
				c0-0.1-0.1-0.3-0.1-0.3C60.1,21.1,60,21,59.8,21L50.6,21C50.7,21,50.6,21,50.6,21L50.6,21z M50.6,23c-0.1,0-0.2,0.1-0.3,0.2
				c-0.1,0.1-0.1,0.2-0.1,0.3c0,0.1,0.1,0.2,0.2,0.3c0.1,0.1,0.2,0.1,0.3,0.1h8.2c0.1,0,0.3,0,0.3-0.1c0.1-0.1,0.1-0.2,0.1-0.3
				c0-0.1-0.1-0.3-0.1-0.3C59.1,23,59,23,58.8,23L50.6,23C50.7,23,50.6,23,50.6,23L50.6,23z M50.6,25c-0.1,0-0.2,0.1-0.3,0.2
				c-0.1,0.1-0.1,0.2-0.1,0.3c0,0.1,0.1,0.2,0.2,0.3c0.1,0.1,0.2,0.1,0.3,0.1h3.7c0.1,0,0.3,0,0.3-0.1c0.1-0.1,0.1-0.2,0.1-0.3
				c0-0.1-0.1-0.3-0.1-0.3C54.6,25,54.4,25,54.3,25L50.6,25C50.7,25,50.6,25,50.6,25L50.6,25z M63.7,25.9v1.4c0,0,0,0,0,0.1h-1.4
				L63.7,25.9z M58.2,27.5l1,1l-1.4,0.3L58.2,27.5z"/>
		</g>
		<rect x="8.6" y="54.1" class="st1" width="97.1" height="17.3"/>
		<text transform="matrix(1 0 0 1 22.0908 59.2665)" class="st2 st6 st7">CONTACT FORM</text>
	</g>
</g>
</svg>
