<?xml version="1.0" encoding="utf-8"?>
<!-- Generator: Adobe Illustrator 27.2.0, SVG Export Plug-In . SVG Version: 6.00 Build 0)  -->
<svg version="1.1" id="Laag_1" xmlns="http://www.w3.org/2000/svg" xmlns:xlink="http://www.w3.org/1999/xlink" x="0px" y="0px"
	 viewBox="0 0 481.8 511.1" style="enable-background:new 0 0 481.8 511.1;" xml:space="preserve">
<style type="text/css">
	.st0{fill:#010101;}
</style>
<g>
	<path class="st0" d="M471.1,511.1H10.7c-5.9,0-10.7-4.8-10.7-10.7V149.6c0-5.9,4.8-10.7,10.7-10.7s10.7,4.8,10.7,10.7v340h438.9
		l0-340c0-5.9,4.8-10.7,10.7-10.7s10.7,4.8,10.7,10.7v350.7C481.8,506.3,477,511.1,471.1,511.1L471.1,511.1z"/>
	<path class="st0" d="M191.6,434.5H93c-5.9,0-10.7-4.8-10.7-10.7v-76.6c0-5.9,4.8-10.7,10.7-10.7h98.6c5.9,0,10.7,4.8,10.7,10.7
		v76.6C202.4,429.7,197.5,434.5,191.6,434.5L191.6,434.5z M103.8,413h77.1v-55.1l-77.1,0V413z"/>
	<path class="st0" d="M191.6,511.1H93c-5.9,0-10.7-4.8-10.7-10.7v-76.6c0-5.9,4.8-10.7,10.7-10.7h98.6c5.9,0,10.7,4.8,10.7,10.7
		l0,76.6C202.4,506.3,197.5,511.1,191.6,511.1L191.6,511.1z M103.8,489.6h77.1v-55.1l-77.1,0V489.6z"/>
	<path class="st0" d="M191.6,357.9H93c-5.9,0-10.7-4.8-10.7-10.7v-76.6c0-5.9,4.8-10.7,10.7-10.7h98.6c5.9,0,10.7,4.8,10.7,10.7
		v76.6C202.4,353.1,197.5,357.9,191.6,357.9L191.6,357.9z M103.8,336.5h77.1v-55.1h-77.1V336.5z"/>
	<path class="st0" d="M290.2,511.1h-98.6c-5.9,0-10.7-4.8-10.7-10.7v-76.6c0-5.9,4.8-10.7,10.7-10.7h98.6c5.9,0,10.7,4.8,10.7,10.7
		l0,76.6C300.9,506.3,296.1,511.1,290.2,511.1L290.2,511.1z M202.4,489.6h77.1v-55.1h-77.1V489.6z"/>
	<path class="st0" d="M290.2,434.5h-98.6c-5.9,0-10.7-4.8-10.7-10.7v-76.6c0-5.9,4.8-10.7,10.7-10.7h98.6c5.9,0,10.7,4.8,10.7,10.7
		v76.6C300.9,429.7,296.1,434.5,290.2,434.5z M202.4,413h77.1v-55.1h-77.1V413z"/>
	<path class="st0" d="M388.8,511.1h-98.6c-5.9,0-10.7-4.8-10.7-10.7v-76.6c0-5.9,4.8-10.7,10.7-10.7h98.6c5.9,0,10.7,4.8,10.7,10.7
		v76.6C399.5,506.3,394.7,511.1,388.8,511.1z M300.9,489.6H378v-55.1h-77.1V489.6z"/>
	<path class="st0" d="M471.1,160.3c-1.9,0-3.8-0.5-5.5-1.5L240.9,23.3L16.3,158.8c-5.1,3.1-11.7,1.4-14.7-3.6
		c-3-5.1-1.4-11.7,3.6-14.7L235.4,1.5c3.4-2.1,7.7-2.1,11.1,0l230.2,138.8c5.1,3.1,6.7,9.6,3.6,14.7
		C478.3,158.5,474.7,160.3,471.1,160.3L471.1,160.3z"/>
	<path class="st0" d="M428,511.1H71.2c-3.6,0-6.7-1.8-8.7-4.4c-2,2.7-5.1,4.4-8.7,4.4c-5.9,0-10.7-4.8-10.7-10.7l0-291.4
		c0-5.9,4.8-10.7,10.7-10.7H428c5.9,0,10.7,4.8,10.7,10.7l0,291.4C438.7,506.3,433.9,511.1,428,511.1L428,511.1z M64.6,219.6v272.3
		c1.8-1.5,4.1-2.3,6.7-2.3h346V219.7L64.6,219.6z"/>
	<path class="st0" d="M428,179.2H53.8c-5.9,0-10.7-4.8-10.7-10.7c0-5.9,4.8-10.7,10.7-10.7H428c5.9,0,10.7,4.8,10.7,10.7
		C438.7,174.4,433.9,179.2,428,179.2L428,179.2z"/>
	<path class="st0" d="M367.7,139.7H114.1c-5.9,0-10.7-4.8-10.7-10.7c0-5.9,4.8-10.7,10.7-10.7h253.7c5.9,0,10.7,4.8,10.7,10.7
		C378.5,134.9,373.7,139.7,367.7,139.7L367.7,139.7z"/>
	<path class="st0" d="M302.8,100.1H179c-5.9,0-10.7-4.8-10.7-10.7s4.8-10.7,10.7-10.7h123.8c5.9,0,10.7,4.8,10.7,10.7
		S308.7,100.1,302.8,100.1L302.8,100.1z"/>
</g>
</svg>
