<?xml version="1.0" encoding="utf-8"?>
<!-- Generator: Adobe Illustrator 27.2.0, SVG Export Plug-In . SVG Version: 6.00 Build 0)  -->
<svg version="1.1" id="Laag_1" xmlns="http://www.w3.org/2000/svg" xmlns:xlink="http://www.w3.org/1999/xlink" x="0px" y="0px"
	 viewBox="0 0 20.7 20.7" style="enable-background:new 0 0 20.7 20.7;" xml:space="preserve">
<style type="text/css">
	.st0{fill-rule:evenodd;clip-rule:evenodd;}
</style>
<path class="st0" d="M10.4,0C4.6,0,0,4.6,0,10.4c0,5.7,4.6,10.4,10.4,10.4s10.4-4.6,10.4-10.4C20.7,4.6,16.1,0,10.4,0z M13.3,8.1
	l-0.1,2.1l-2,0v7.1H8.3v-7.1l-1.5,0l0-2.1h1.4c0-1-0.2-3.4,0.9-4.2c1.6-1.2,4.5-0.4,4.5-0.4l-0.4,2.2c0,0-1-0.2-1.2-0.2
	c-0.3,0-0.8,0.1-0.8,0.8v1.9H13.3z"/>
</svg>
