<?xml version="1.0" encoding="utf-8"?>
<!-- Generator: Adobe Illustrator 27.2.0, SVG Export Plug-In . SVG Version: 6.00 Build 0)  -->
<svg version="1.1" id="Laag_1" xmlns="http://www.w3.org/2000/svg" xmlns:xlink="http://www.w3.org/1999/xlink" x="0px" y="0px"
	 viewBox="0 0 20.7 20.7" style="enable-background:new 0 0 20.7 20.7;" xml:space="preserve">
<style type="text/css">
	.st0{fill-rule:evenodd;clip-rule:evenodd;}
</style>
<g>
	<path class="st0" d="M10.4,12.6c1.3,0,2.3-1,2.3-2.3S11.6,8,10.4,8c-1.3,0-2.3,1-2.3,2.3S9.1,12.6,10.4,12.6z"/>
	<path class="st0" d="M14.5,5.7h-1.4c-0.3,0-0.5,0.2-0.5,0.5v1.4c0,0.3,0.2,0.5,0.5,0.5h1.4c0.3,0,0.5-0.2,0.5-0.5V6.2
		C14.9,5.9,14.7,5.7,14.5,5.7z"/>
	<path class="st0" d="M14,10.3c0,2-1.6,3.7-3.7,3.7s-3.7-1.7-3.7-3.7c0-0.3,0-0.6,0.1-0.9h-1v5.1c0,0.3,0.2,0.5,0.5,0.5h8.2
		c0.3,0,0.5-0.2,0.5-0.5V9.4h-1C14,9.7,14,10,14,10.3z"/>
	<path class="st0" d="M10.4,0C4.6,0,0,4.6,0,10.4s4.6,10.4,10.4,10.4c5.7,0,10.4-4.6,10.4-10.4S16.1,0,10.4,0z M16.3,14.9
		c0,0.8-0.6,1.4-1.4,1.4H5.8c-0.8,0-1.4-0.6-1.4-1.4V5.7c0-0.8,0.6-1.4,1.4-1.4h9.1c0.8,0,1.4,0.6,1.4,1.4V14.9z"/>
</g>
</svg>
