<?xml version="1.0" encoding="utf-8"?>
<!-- Generator: Adobe Illustrator 27.2.0, SVG Export Plug-In . SVG Version: 6.00 Build 0)  -->
<svg version="1.1" id="Laag_1" xmlns="http://www.w3.org/2000/svg" xmlns:xlink="http://www.w3.org/1999/xlink" x="0px" y="0px"
	 viewBox="0 0 20.7 20.7" style="enable-background:new 0 0 20.7 20.7;" xml:space="preserve">
<style type="text/css">
	.st0{fill-rule:evenodd;clip-rule:evenodd;}
</style>
<path class="st0" d="M10.4,0C4.6,0,0,4.6,0,10.4c0,5.7,4.6,10.4,10.4,10.4s10.4-4.6,10.4-10.4C20.7,4.6,16.1,0,10.4,0z M7.3,15.1
	H4.7V7.6h2.5V15.1z M6,6.6C5.2,6.6,4.6,6,4.6,5.3C4.6,4.6,5.2,4,6,4c0.8,0,1.4,0.6,1.4,1.3C7.4,6,6.7,6.6,6,6.6z M16.1,15.1h-2.4
	v-4.4c0-0.3,0-0.5-0.2-0.8c-0.2-0.3-0.5-0.6-1-0.6c-0.4,0-0.8,0.2-1.1,0.5c-0.2,0.2-0.2,0.3-0.3,0.5v4.7H8.6V7.6h2.5v1.2
	c0.2-0.4,0.7-1.3,2.3-1.3c1.8,0,2.7,1.5,2.7,3.3V15.1z"/>
</svg>
