<?xml version="1.0" encoding="utf-8"?>
<!-- Generator: Adobe Illustrator 27.2.0, SVG Export Plug-In . SVG Version: 6.00 Build 0)  -->
<svg version="1.1" id="Laag_1" xmlns="http://www.w3.org/2000/svg" xmlns:xlink="http://www.w3.org/1999/xlink" x="0px" y="0px"
	 viewBox="0 0 20.7 20.7" style="enable-background:new 0 0 20.7 20.7;" xml:space="preserve">
<style type="text/css">
	.st0{fill-rule:evenodd;clip-rule:evenodd;}
</style>
<path class="st0" d="M10.4,0C4.6,0,0,4.6,0,10.4c0,5.7,4.6,10.4,10.4,10.4c5.7,0,10.4-4.6,10.4-10.4C20.7,4.6,16.1,0,10.4,0z
	 M14.9,12.6c-1.4,1.5-3,1.6-4,1.3c-1-0.3-1.3-1-1.3-1S9.2,14.5,9.1,15C9,15.3,9,15.7,8.6,16.5c-0.4,0.7-1.1,1.7-1.1,1.8
	c-0.1,0.1-0.2,0.1-0.2-0.1c0-0.1-0.1-0.7-0.1-1.1c0-0.4,0-1,0-1.3c0-0.3,0.1-0.7,0.2-1.2c0.1-0.5,0.9-3.7,1.1-4.5
	C8.1,9.5,8.1,8.5,8.2,7.9C8.4,7.3,9,6.6,9.6,6.5c0.6-0.1,1,0.2,1.2,0.6C11,7.6,11,8,10.9,8.5c-0.1,0.6-0.6,2.1-0.7,2.5
	c-0.1,0.4,0.1,1,0.4,1.2c0.3,0.3,1.2,0.7,2,0.1c0.8-0.6,1.5-1.7,1.7-3.5c0.2-1.8-0.3-2.6-1-3.3c-0.8-0.7-2.2-1.1-3.8-0.7
	c-1.7,0.4-2.8,1.9-3,3.3C6.2,9.5,6.8,10.3,7,10.5c0.2,0.3,0.1,0.3,0.1,0.4c0,0.1-0.1,0.5-0.2,0.8C6.8,12,6.6,12,6.5,11.9
	c-0.1-0.1-0.8-0.4-1.2-1.1c-0.2-0.3-1.2-2.1,0.1-4.7c1.3-2.6,4.7-3.3,6.7-2.9c1.9,0.4,3.5,1.7,4.1,3.4C16.7,8.3,16.3,11.1,14.9,12.6
	z"/>
</svg>
