<?xml version="1.0" encoding="utf-8"?>
<!-- Generator: Adobe Illustrator 27.2.0, SVG Export Plug-In . SVG Version: 6.00 Build 0)  -->
<svg version="1.1" id="Laag_1" xmlns="http://www.w3.org/2000/svg" xmlns:xlink="http://www.w3.org/1999/xlink" x="0px" y="0px"
	 viewBox="0 0 20.7 20.7" style="enable-background:new 0 0 20.7 20.7;" xml:space="preserve">
<style type="text/css">
	.st0{fill-rule:evenodd;clip-rule:evenodd;}
</style>
<path class="st0" d="M10.4,0C4.6,0,0,4.6,0,10.4c0,5.7,4.6,10.4,10.4,10.4c5.7,0,10.4-4.6,10.4-10.4C20.7,4.6,16.1,0,10.4,0z
	 M15.7,9.4c-0.6,1.5-2,3.5-3.3,4.7c-1.1,1-1.7,1.6-2.2,1.8c-0.4,0.2-1.3,0.1-1.8-0.3c-0.6-0.5-0.8-1-1.1-1.7
	c-0.3-0.8-0.5-1.5-0.9-2.8c-0.4-1.2-0.5-2-0.7-2.6C5.5,7.9,5,8.2,4.8,8.3C4.6,8.4,4,8.7,4,8.7L3.6,8.2c0,0,0.8-0.9,1.7-1.7
	c0.9-0.8,1.5-1.1,1.9-1.2C7.7,5.1,8,5.1,8.4,5.5C8.7,5.8,8.8,6.1,9,6.9c0.2,0.8,0.4,2.2,0.6,3.2c0.2,0.9,0.3,1.3,0.5,1.6
	c0.1,0.2,0.3,0.5,0.5,0.4c0.2-0.1,0.5-0.3,1-1c0.4-0.6,0.7-1.1,0.9-1.7c0.2-0.6,0.1-1.1-0.3-1.4c-0.3-0.2-1-0.3-1.4,0
	c0.1-0.7,0.4-1.2,0.6-1.5C12,6,12.4,5.6,13.1,5.4C13.8,5,14.4,5.1,15,5.2c0.4,0.1,1.1,0.6,1.2,1.4C16.3,7.4,16.3,7.9,15.7,9.4z"/>
</svg>
