<?xml version="1.0" encoding="utf-8"?>
<!-- Generator: Adobe Illustrator 27.2.0, SVG Export Plug-In . SVG Version: 6.00 Build 0)  -->
<svg version="1.1" id="Laag_1" xmlns="http://www.w3.org/2000/svg" xmlns:xlink="http://www.w3.org/1999/xlink" x="0px" y="0px"
	 viewBox="0 0 566.6 391.5" style="enable-background:new 0 0 566.6 391.5;" xml:space="preserve">
<style type="text/css">
	.st0{fill:#1D1D1B;}
</style>
<g>
	<g>
		<path class="st0" d="M0,284.2c0-1.4,1.1-2.5,2.5-2.5H48c12.3,0,21.6,3.2,28,9.5c4.8,4.8,7.2,10.7,7.2,17.7v0.3
			c0,3.2-0.4,6-1.3,8.6c-0.9,2.5-2,4.8-3.4,6.6c-1.4,1.9-3,3.5-4.8,5c-0.5,0.4-1,0.7-1.5,1.1c-1.6,1.1-1.5,3.6,0.3,4.4
			c4.2,1.9,7.8,4.4,10.7,7.3c3.9,4,5.9,9.6,5.9,16.8v0.3c0,4.8-0.9,9-2.8,12.7c-1.9,3.7-4.6,6.7-8,9.2c-3.5,2.4-7.6,4.3-12.4,5.6
			c-4.8,1.3-10.3,1.9-16.3,1.9H2.5c-1.4,0-2.5-1.1-2.5-2.5V284.2z M44.1,326.7c6.1,0,11-1.2,14.7-3.6c3.7-2.4,5.5-6,5.5-10.9V312
			c0-4.3-1.6-7.6-4.8-10c-3.2-2.4-7.9-3.6-14-3.6H21c-1.4,0-2.5,1.1-2.5,2.5v23.2c0,1.4,1.1,2.5,2.5,2.5H44.1z M49.6,371.8
			c6.4,0,11.5-1.2,15.1-3.6c3.7-2.4,5.5-6.1,5.5-10.9v-0.3c0-4.6-1.8-8.1-5.4-10.6c-3.6-2.5-9.1-3.7-16.6-3.7H21
			c-1.4,0-2.5,1.1-2.5,2.5v24.1c0,1.4,1.1,2.5,2.5,2.5H49.6z"/>
		<path class="st0" d="M184.8,280.7h13.4c1.6,0,2.8,1.3,2.8,2.8v102.2c0,1.6-1.3,2.8-2.8,2.8h-13.4c-1.6,0-2.8-1.3-2.8-2.8V283.6
			C182,282,183.2,280.7,184.8,280.7"/>
		<path class="st0" d="M218.2,280.7h13.4c1.6,0,2.8,1.3,2.8,2.8v102.2c0,1.6-1.3,2.8-2.8,2.8h-13.4c-1.6,0-2.8-1.3-2.8-2.8V283.6
			C215.4,282,216.6,280.7,218.2,280.7"/>
		<path class="st0" d="M248.7,280.7h9.2c5.3,0,9.6,4.3,9.6,9.6v30.2c1.9-2.2,4.8-4.3,8.5-6.3c3.7-2,8.5-3.1,14.3-3.1
			c4.6,0,8.8,0.8,12.5,2.3c3.7,1.5,6.7,3.6,9.1,6.4c2.4,2.7,4.3,6.1,5.6,9.9c1.3,3.9,1.9,8.1,1.9,12.8V386c0,1.4-1.2,2.6-2.6,2.6
			H303c-1.4,0-2.6-1.2-2.6-2.6v-43.3c0-4.9-1.3-8.6-4-11.2c-2.6-2.6-6.1-4-10.3-4c-2.6,0-5,0.5-7.3,1.5c-2.3,1-4.2,2.5-5.8,4.3
			c-1.6,1.8-2.9,4-3.8,6.4c-0.9,2.4-1.4,5-1.4,7.8V386c0,1.4-1.2,2.6-2.6,2.6h-13.8c-1.4,0-2.6-1.2-2.6-2.6v-92.1V280.7z"/>
		<path class="st0" d="M478.2,312.7h12c1.7,0,3.1,1.3,3.2,3l0.3,5.5c1-1.1,2.1-2.2,3.5-3.4c1.3-1.2,3-2.3,4.9-3.3
			c1.9-1,4-1.9,6.4-2.5c2.4-0.6,5.1-1,8.1-1c9.5,0,16.7,2.8,21.7,8.5c5,5.7,7.4,13.3,7.4,22.9v42.7c0,1.9-1.5,3.4-3.4,3.4H530
			c-1.9,0-3.4-1.5-3.4-3.4v-42.5c0-4.9-1.3-8.6-4-11.2c-2.6-2.6-6.1-4-10.3-4c-2.6,0-5,0.5-7.3,1.5c-2.3,1-4.2,2.5-5.8,4.3
			c-1.6,1.8-2.9,4-3.8,6.4c-0.9,2.4-1.4,5-1.4,7.8v37.7c0,1.9-1.5,3.4-3.4,3.4h-12.3c-1.9,0-3.4-1.5-3.4-3.4V316
			C475,314.2,476.4,312.7,478.2,312.7"/>
		<path class="st0" d="M566.6,319.6c0,1.2-0.3,2.3-0.9,3.3c-0.6,1-1.4,1.8-2.4,2.4c-1,0.6-2.1,0.9-3.3,0.9c-1.2,0-2.3-0.3-3.3-0.9
			c-1-0.6-1.8-1.4-2.4-2.4c-0.6-1-0.9-2.1-0.9-3.3c0-1.2,0.3-2.3,0.9-3.3c0.6-1,1.4-1.8,2.4-2.4c1-0.6,2.1-0.9,3.3-0.9
			c1.2,0,2.3,0.3,3.3,0.9c1,0.6,1.8,1.4,2.4,2.4C566.3,317.4,566.6,318.5,566.6,319.6 M565.7,319.7c0-1-0.3-1.9-0.8-2.8
			c-0.5-0.9-1.2-1.6-2.1-2.1c-0.9-0.5-1.8-0.8-2.8-0.8c-1,0-2,0.3-2.8,0.8c-0.9,0.5-1.6,1.2-2.1,2.1c-0.5,0.9-0.8,1.8-0.8,2.8
			c0,1,0.2,1.9,0.8,2.8c0.5,0.9,1.2,1.6,2.1,2.1c0.9,0.5,1.8,0.8,2.8,0.8c1,0,1.9-0.3,2.8-0.8c0.9-0.5,1.6-1.2,2.1-2.1
			C565.5,321.6,565.7,320.7,565.7,319.7 M557.3,315.8h3.2c0.7,0,1.3,0.1,1.6,0.2c0.3,0.1,0.6,0.4,0.8,0.7c0.2,0.3,0.3,0.7,0.3,1.2
			c0,0.4-0.1,0.7-0.2,1c-0.1,0.2-0.4,0.4-0.7,0.7c0.3,0.2,0.6,0.4,0.7,0.6c0.1,0.2,0.2,0.6,0.2,1.1v0.9c0,0.4,0.1,0.7,0.3,1l0.1,0.2
			h-1.3c-0.1-0.3-0.2-0.7-0.2-1.1l-0.1-0.9c0-0.3-0.1-0.6-0.2-0.7c-0.1-0.1-0.2-0.2-0.4-0.3c-0.2-0.1-0.5-0.1-1-0.1h-1.9v3.1h-1.2
			V315.8z M558.5,316.9v2.2h1.9c0.6,0,1-0.1,1.2-0.2c0.3-0.2,0.5-0.5,0.5-0.9c0-0.4-0.1-0.7-0.3-0.8c-0.2-0.2-0.6-0.3-1.2-0.3H558.5
			z"/>
		<path class="st0" d="M419.2,312.5h11.9c1.7,0,3.2,1.4,3.2,3.1l0.3,6.5c0.9-1.1,2-2.3,3.3-3.6c1.3-1.3,2.9-2.5,4.8-3.6
			c1.8-1.1,4-2,6.4-2.7c2.4-0.8,5.2-1.1,8.3-1.1c1.8,0,3.5,0.1,4.9,0.3c0.6,0.1,1.2,0.2,1.9,0.4c1.4,0.3,2.4,1.8,2,3.2l-2.7,12.6
			c-0.3,1.5-1.8,2.4-3.3,2c-0.4-0.1-0.9-0.2-1.3-0.3c-1.3-0.2-2.9-0.3-4.8-0.3c-2.6,0-5.1,0.4-7.4,1.3c-2.4,0.9-4.4,2.1-6.1,3.7
			c-1.7,1.6-3.1,3.6-4.1,5.8c-1,2.3-1.5,4.8-1.5,7.6v37.7c0,1.8-1.4,3.2-3.2,3.2h-12.7c-1.8,0-3.2-1.4-3.2-3.2v-69.4
			C415.9,314,417.4,312.5,419.2,312.5"/>
		<path class="st0" d="M153,313.9c-1.6,0-2.9,1.3-2.9,2.9v36.9c0,10.1-7.2,16.9-16,16.9c-1.7,0-2.8,0-3.5,0c-8.8,0-16-6.8-16-16.9
			v-36.9c0-1.6-1.3-2.9-2.9-2.9H99.9c-1.6,0-2.9,1.3-2.9,2.9v40.9c0,17.8,16.3,30.1,33.5,30.3v0h0.1c0.1,0,0.1,0,0.2,0v0h3.2v0
			c0.1,0,0.2,0,0.2,0h0.4v0c17.1-0.3,33.2-12.6,33.2-30.3v-40.9c0-1.6-1.3-2.9-2.9-2.9H153z"/>
		<path class="st0" d="M327.2,350.9c0-5.5,1-10.7,3-15.6c2-4.9,4.8-9.2,8.3-12.9c3.6-3.7,7.8-6.6,12.9-8.7c5-2.2,10.5-3.2,16.6-3.2
			c6,0,11.6,1.1,16.6,3.2c5,2.2,9.3,5.1,12.9,8.7c3.6,3.7,6.3,8,8.3,12.9c2,4.9,3,10.1,3,15.6c0,5.5-1,10.7-3,15.6
			c-2,4.9-4.8,9.2-8.3,12.9c-3.6,3.7-7.8,6.7-12.9,8.8c-5,2.2-10.5,3.2-16.6,3.2c-6,0-11.6-1.1-16.6-3.2c-5-2.2-9.3-5.1-12.9-8.8
			c-3.6-3.7-6.3-8-8.3-12.9C328.2,361.6,327.2,356.4,327.2,350.9 M367.9,375c3.7,0,6.8-0.7,9.5-2.2c2.7-1.5,4.9-3.4,6.7-5.7
			c1.8-2.4,3.1-5,4-7.8c0.9-2.8,1.3-5.6,1.3-8.4c0-2.7-0.4-5.5-1.3-8.3c-0.9-2.9-2.2-5.4-4-7.8c-1.8-2.3-4-4.2-6.7-5.7
			c-2.7-1.5-5.9-2.2-9.5-2.2c-3.7,0-6.8,0.7-9.5,2.2c-2.7,1.5-4.9,3.3-6.7,5.7c-1.8,2.3-3.1,4.9-4,7.8c-0.9,2.9-1.3,5.6-1.3,8.3
			c0,2.8,0.4,5.6,1.3,8.4c0.9,2.8,2.2,5.4,4,7.8c1.8,2.4,4,4.3,6.7,5.7C361.1,374.3,364.3,375,367.9,375"/>
	</g>
	<path class="st0" d="M300,232.7c2.6,3.1,6,5.4,8.6,8.5c3.4,4.2,8.9,16.6,8.9,17.7c0,2.8-2.3,2.7-4.5,3.9c-1.1,0.4-1.7,1.5-2.7-0.2
		c-0.5-0.4-1.1-0.5-1.8-0.2c-0.6,0.3-0.6,1.2-0.5,2.2c0,0.6-0.3,1.2-0.9,1.4c-1.8,0.6-3.8,0.7-5.9,0.1c-1.6-0.5-2.8-0.5-3.3-3.1
		c0-0.1,0-0.2-0.1-0.2c-3-8,3.1-3.3-8.6-24.2c-0.1-0.4-0.3-0.7-0.4-1.1c-1-3.7-3.1-6.9-6.4-9c-2-1.2-3.6-3-4.5-5.3
		c-2.1-5.1-5.7-8.3-10.4-10.2c-3.1-1.2-6.2-2.3-9.3-3.6c-7-2.9-15.3-8.2-21.3-17.4c-0.3-0.4-0.6-0.8-0.8-1.3c-0.5-1-4.9-6.2-3.9-5.9
		c9.2,3.8,30.5,7.6,42.6,8.9c1.8,0.2,3.4,1.3,4.1,3c0.1,0.2,1,1.8,1.2,2.1c3.7,5.8,3.9,6.7,5.4,8.8c2.4,3.3,5.7,6.4,6.3,10.5
		C292.6,224.7,296.6,228.6,300,232.7 M394.2,154.1c-0.2-0.3-0.8-0.6-0.7-1.3c0.2-2.2-1-1.5-1.8-1c-2.9,1.9-6.6,2.6-7.5,7.3
		c-0.2,1.1-1.2,1.4-2,1.9c-7.4,4.4-15.6-0.8-17.6-11.5c-1-5.5-2.4-11-4.6-16c-1.2-2.7-4.7-6.3-6.4-9.2c-0.3-0.5-0.4-1-0.5-1.6
		c-0.1-2.9-1.3-9.7-9.3-14.3c-0.1,0-0.1-0.1-0.2-0.1c-9.8-7.1-30.9-14.5-42.2-17.9c-4.3-1.2-5.5,1.6-5.6,3.3c0,0.3,0,0.7,0.1,1
		c0.2,0.8,0.7,2.4,0.7,2.4c2.7,10.2,6.1,24.4,4.1,23.8c-2.1-0.6-7.3-30.1-19.7-38.6c-0.1-0.1-0.2-0.1-0.2-0.2
		c-8.1-7.5-24.8-11-30.4-12.1c-0.7-0.2-1.4-0.6-1.8-1.2c-3.3-4.4-8.5-5.8-16.6-7.1c-3.3-0.5-6.2-1-8.7-1.3c-2-0.2-3.3-2.3-2.7-4.2
		l0,0c0.3-0.8,0.3-2.4-0.3-2.6c-0.6-0.2-2.5,0.6-4.1,0.8c-1.1,0.1-2.3-0.6-2.3-0.6c-0.4-0.2,0.6,0.6,0.1,0.2
		c-4.6-4.4,6.9-8.5,4.4-8.7c-0.9-0.1-1.8-0.1-2.6-0.1c-3.5-0.1-6.8,0.2-9.5,0.6c-0.7,0.1-1.2-0.6-1.1-1.2c0-0.3,0.2-0.6,0.5-0.7
		c15.3-8.3,21-17.8,21-17.8s4.6-7.5-6.1-12.5c-2.1-1-4.7-1.8-8-2.5c-9.3-2-17.7-5-24.2-7.9c-2.3-1-4.3-1.9-6.1-2.8
		c-0.1,0-0.5-0.2-0.9-0.4c-1-0.4-1.9-0.1-2.4,1.2c-0.9,2.1,2,3.1,3.5,4.3c6.4,5,13.7,8.1,20.3,12.4c4.2,2.7,4.3,3.9,0.5,6.5
		c-5.6,3.8-11.8,6.2-18.2,8.6c-0.3,0.1-0.7,0.2-1,0.2c-3.3-2.2-6.7-2.6-9.8-2.1c-5.5,0.2-10.7,3.3-13.6,8.5c-0.6,1.1-1.8,1.7-3,1.6
		c-0.2,0-0.5,0-0.7,0c-0.4-0.1-0.9-0.1-1.2-0.1c-13.6,1.1-16.4,6.7-16.9,9.1c-0.2,0.7-0.6,1.3-1.2,1.6c-29.4,12.4-50,3.1-57-1
		c0,0-0.1-0.1-0.2-0.1c-0.9-0.5-1.9,0.3-1.6,1.3c6.5,16.6,40.2,17.9,49.6,17.9c0.4,0,0.8,0,1.1,0c0.7,0,1.3,0.7,1,1.4
		c-2.4,6.9-5.3,11.5-7.1,14c-0.9,1.2-1.6,2.6-2.1,4.1l-0.2,0.6c-0.8,2.6-0.8,5.3,0.1,7.8c0.2,0.6,0.2,1.3,0.1,1.9
		c-0.1,0.4-0.2,0.6-0.2,0.9c0,0-0.1,0.6,0,1.4c1.8,10.7,7.6,13.1,7.6,13.1s1,0.6,4.8,0.4c9.2-0.4,24.6-2.6,28.4-2.9
		c0.4,0,0.8,0,1.2,0.1l0.2,0.1c0.3,0.1,0.6,0.2,0.8,0.3c13.2,6.9,33,28.3,40.1,40.6c0.4,0.7,0.8,1.5,1.2,2.2
		c3.3,6.3,6.8,11.1,12.5,15.3c0.6,0.5,2.4,1.8,5.3,3.5c3.7,2.1,6.6,3.3,9,4.3c6.4,2.6,11.7,3.9,15.6,4.9c1.7,0.4,2.8,0.7,3.5,0.8
		c3,0.6,5.7,1,9.1,1.5c12.8,1.7,18.8,1,21.1,5.1c0.2,0.2,0.6,1.8,0.8,2.3c0,0.1,0,0.1,0.1,0.2c3.1,9.2,5.1,10.3,6.6,14.5
		c0.7,2,1.7,3.1,3.5,3.6c2.8,0.8,5.4,2.4,6.5,5.5c2.7,7.1,7.8,12.6,14.4,14.4c7.3,2,10.6,1.4,15-4.7c1.6-2.3,1.7-4.4,0.4-6.8
		c-2.6-4.6-6.5-6.8-11.3-7.4c-2.3-0.3-4.5-1.4-4.8-3.8c-0.5-3.9-2.5-6.2-4.9-8.6c-2.3-2.4-1.8-5.7,0.8-7.2c0.7-0.4,8.5-6.6,11.6-8.2
		c1.1-0.6,7.9-2.9,8.1-7.7c-1-11.3,0.9-19.3,1.7-19.2c0.5,0-0.4,3.7,1.1,10.8c0.1,0.3,0.2,0.7,0.3,1c0,0,0,0,0,0
		c1.4,8.1,11.1,20.9,15.8,26.3c0.2,0.3,0.4,0.6,0.5,0.9c1,2.5,2.2,4.8,3.8,7c0.6,0.9,1.3,2.5,1.5,3.5c1.5,9.1,5.8,17.1,6.7,26.3
		c0.3,3.5,1.1,7.8,0.7,9.4c-0.1,0.4-0.2,0.7-0.2,1.1c0.2,2.5,1,8,2,8.5c1,0.5,5.7,1.5,7.9-0.9c0.2-0.2,0.3-0.5,0.3-0.7
		c0.4-4,2-2.3,2.9-1.2c0.3,0.3,0.7,0.4,1,0.3c2-0.7,2.9-1.5,4.1-3c0.1-0.2,0.3-0.4,0.3-0.6c0.6-3.4,0.8-6.7-0.8-9.9
		c-1.4-2.8-3.1-5.4-5-7.8c-4.5-5.8-6.9-12.4-5.2-20.7c0.8-3.6,0-6.9-2-9.6c-1.4-1.9-1.5-3.7-1-6.3c1.5-7.8,2-15.7,1.2-23.7
		c-0.1-1.2-0.8-2.6,0.3-3.5c1-0.9,2.1-0.1,3.1,0.4c4.8,2.3,9.4,1.7,13.9-1.2c1-0.7,2-1.3,3.3-1.3c5.1,0,7.5-3.4,7.9-5.6
		C395.1,157,395,155.2,394.2,154.1"/>
</g>
</svg>
