<?xml version="1.0" encoding="utf-8"?>
<!-- Generator: Adobe Illustrator 26.0.3, SVG Export Plug-In . SVG Version: 6.00 Build 0)  -->
<svg version="1.0" id="katman_1" xmlns="http://www.w3.org/2000/svg" xmlns:xlink="http://www.w3.org/1999/xlink" x="0px" y="0px"
	 viewBox="0 0 600 450" style="enable-background:new 0 0 600 450;" xml:space="preserve">
<style type="text/css">
	.st0{fill:#484797;}
</style>
<g id="_x30_.2---Footer-_x2F_-Desktop" transform="translate(-121 -64)">
	<g id="Brand-_x2F_-Logo" transform="translate(121 64)">
		<g id="logo_240-80">
			<g id="Group" transform="translate(129.03 44.478)">
				<path id="Shape" class="st0" d="M174,230.4c0,5.1-3.7,9-8.8,9c-5.1,0-8.8-3.9-8.8-9s3.7-9,8.8-9
					C170.3,221.4,174,225.3,174,230.4z M169.8,230.4c0-3.4-2.2-5.4-4.6-5.4c-2.4,0-4.6,1.7-4.6,5.4c0,3.4,2.2,5.4,4.6,5.4
					C167.6,235.8,169.8,234.1,169.8,230.4z"/>
				<path id="Path" class="st0" d="M184,239h-3.9v-17.1h3.9v2.2c1.2-2,3.2-2.7,5.1-2.7c4.1,0,6.1,2.9,6.1,6.8V239h-4.1v-10
					c0-2.2-1-3.7-3.4-3.7c-2.2,0-3.4,1.7-3.4,3.9v9.8H184L184,239z M202,239v-25.4h4.1V239H202z"/>
				<path id="Shape_00000118383149408705888690000012462209905103554742_" class="st0" d="M215.5,213.3c1.5,0,2.7,1.2,2.7,2.7
					c0,1.5-1.2,2.7-2.7,2.7c-1.5,0-2.7-1.2-2.7-2.7C212.8,214.6,214,213.3,215.5,213.3z M213.5,239v-17.1h3.9V239H213.5z"/>
				<path id="Path_00000157309079371522472200000013341515118896855447_" class="st0" d="M228.9,239h-4.1v-17.1h3.9v2.2
					c1.2-2,3.2-2.7,5.1-2.7c4.1,0,6.1,2.9,6.1,6.8V239h-4.1v-10c0-2.2-1-3.7-3.4-3.7c-2.2,0-3.4,1.7-3.4,3.9
					C228.9,229.2,228.9,239,228.9,239z"/>
				<path id="Shape_00000087400487526803976970000011087466727276997029_" class="st0" d="M262,234.1c-1,2.9-3.7,5.4-7.6,5.4
					c-4.6,0-8.8-3.4-8.8-9c0-5.4,3.9-9,8.3-9c5.1,0,8.3,3.4,8.3,8.8v1.2h-12.4c0,2.7,2.2,4.4,4.6,4.4c2.4,0,3.7-1.2,4.1-2.9
					C258.6,232.9,262,234.1,262,234.1z M258.1,228.5c0-2-1.5-3.7-4.1-3.7c-2.4,0-3.9,2-4.1,3.7H258.1z"/>
				<path id="Path_00000081623990487036085580000004353168986106051478_" class="st0" d="M284,221.9h3.4v3.7H284v7.8
					c0,1.5,0.7,2.2,2.2,2.2c0.5,0,1.2,0,1.5-0.2v3.4c-0.2,0-1,0.5-2.4,0.5c-3.2,0-5.1-2-5.1-5.1v-8.5h-3.2v-3.7h1
					c1.7,0,2.7-1.2,2.7-2.7v-2.4h3.7v5.1C284.2,221.9,284,221.9,284,221.9z M303.5,226h-1.2c-3.2,0-4.6,1.7-4.6,4.9v8.1h-4.1v-17.1
					h3.9v2.7c0.7-2,2.7-2.9,4.9-2.9h1v4.4H303.5L303.5,226z"/>
				<path id="Shape_00000072277810028347965140000016743657989657810366_" class="st0" d="M313,229.2l4.4-0.7c1-0.2,1.2-0.7,1.2-1.2
					c0-1.5-1-2.7-3.2-2.7s-3.4,1.5-3.4,3.2l-3.7-0.7c0.2-2.9,2.9-5.6,7.1-5.6c5.1,0,7.3,2.9,7.3,6.3v8.5c0,1.5,0.2,2.4,0.2,2.7h-3.9
					c0,0-0.2-0.7-0.2-2.2c-0.7,1.2-2.4,2.7-5.1,2.7c-3.7,0-5.9-2.4-5.9-5.1C307.9,231.1,310.1,229.7,313,229.2z M318.6,231.9v-0.7
					l-4.4,0.7c-1.2,0.2-2.2,1-2.2,2.2c0,1.2,1,2.2,2.4,2.2C316.7,236.3,318.6,235.3,318.6,231.9z M331.6,213.3
					c1.5,0,2.7,1.2,2.7,2.7c0,1.5-1.2,2.7-2.7,2.7s-2.7-1.2-2.7-2.7C328.9,214.6,330.1,213.3,331.6,213.3z M329.6,239v-17.1h3.9V239
					H329.6z"/>
				<path id="Path_00000059293181759582694250000015470386649819027584_" class="st0" d="M345,239h-4.1v-17.1h3.9v2.2
					c1.2-2,3.2-2.7,5.1-2.7c4.1,0,6.1,2.9,6.1,6.8V239h-4.1v-10c0-2.2-1-3.7-3.4-3.7c-2.2,0-3.4,1.7-3.4,3.9
					C345,229.2,345,239,345,239z"/>
				<path id="Shape_00000088101908175222162520000011061632477822911155_" class="st0" d="M365,213.3c1.5,0,2.7,1.2,2.7,2.7
					c0,1.5-1.2,2.7-2.7,2.7c-1.5,0-2.7-1.2-2.7-2.7C362.3,214.6,363.5,213.3,365,213.3L365,213.3z M363,239v-17.1h3.9V239H363z"/>
				<path id="Path_00000062880481686146337390000014870177458869531272_" class="st0" d="M378.4,239h-4.1v-17.1h3.9v2.2
					c1.2-2,3.2-2.7,5.1-2.7c4.1,0,6.1,2.9,6.1,6.8V239h-4.1v-10c0-2.2-1-3.7-3.4-3.7c-2.2,0-3.4,1.7-3.4,3.9L378.4,239L378.4,239z"
					/>
				<path id="Shape_00000114053071227080038970000018424908792113432999_" class="st0" d="M398.9,239c0.2,2.2,2,3.7,4.1,3.7
					c3.2,0,4.9-1.7,4.9-5.1v-1.7c-0.7,1.2-2.4,2.4-4.9,2.4c-4.6,0-7.8-3.4-7.8-8.3c0-4.6,3.2-8.3,7.8-8.3c2.7,0,4.4,1,5.1,2.4v-2.2
					h3.9v15.4c0,4.6-2.4,8.8-8.8,8.8c-4.4,0-7.6-2.7-8-6.1L398.9,239z M408.1,229.9c0-2.9-2-4.9-4.4-4.9c-2.7,0-4.4,2-4.4,4.9
					c0,2.9,1.7,4.9,4.4,4.9C406.4,234.8,408.1,232.9,408.1,229.9L408.1,229.9z"/>
			</g>
			<g id="Group_00000026144828557287113990000008974657472418056374_" transform="translate(32.974)">
				<path id="Shape_00000157267553682686614040000002640886301939260569_" class="st0" d="M220.3,251.7c-13.2,0-23.9-10.7-23.9-23.9
					c0-13.2,10.7-23.9,23.9-23.9c19.3,0,23.9,16.1,23.9,24.7C243.9,241.9,233.2,251.7,220.3,251.7L220.3,251.7z M220.3,215.1
					c-7.1,0-12.9,5.9-12.9,12.9c0,7.1,5.9,12.9,12.9,12.9c7.1,0,12.9-5.9,12.9-12.9C233,221,227.4,215.1,220.3,215.1z M325.4,251.7
					c-13.2,0-23.9-10.7-23.9-23.9c0-13.2,10.7-23.9,23.9-23.9c19.3,0,23.9,16.1,23.9,24.7C349.1,241.9,338.6,251.7,325.4,251.7
					L325.4,251.7z M325.4,215.1c-7.1,0-12.9,5.9-12.9,12.9c0,7.1,5.9,12.9,12.9,12.9s12.9-5.9,12.9-12.9
					C338.1,221,332.5,215.1,325.4,215.1z"/>
				<path id="Path_00000038388037609833038930000014613818297326068355_" class="st0" d="M264.9,251.5h-12.4v-71.5h12.4v29.5
					c2.9-3.4,8-5.1,12.4-5.1c11.7,0,17.1,8.1,17.1,18.1v28.8H282v-26.6c0-5.1-2.4-9-8.5-9c-5.1,0-8.3,3.9-8.5,9V251.5z M411.5,251.7
					v-47.4H424v47.4H411.5z M338.3,251.5v-18.3l10.7-4.1v22.7h-10.7V251.5z M452,204.4h9.3v11H452v21c0,3.9,2,5.4,5.4,5.4
					c1.5,0,3.2-0.2,3.9-0.5v10.3c-1.2,0.5-3.4,1.2-7.1,1.2c-9,0-14.4-5.4-14.4-14.2v-23.2h-8.3v-11h2.4c4.9,0,7.1-3.2,7.1-7.3v-6.3
					h11.2v13.7H452L452,204.4z M470.5,251.9v-11l21.7-25.6H471v-10.7h36.8v10.3L485.4,241h22.7v10.7h-37.6L470.5,251.9z"/>
				<path id="Shape_00000085953275312342523720000010234276632335052441_" class="st0" d="M417.6,198.7c-4.4,0-7.8-3.7-7.8-7.8
					c0-4.4,3.7-7.8,7.8-7.8c4.4,0,7.8,3.7,7.8,7.8C425.4,195.1,422,198.7,417.6,198.7L417.6,198.7z M417.6,186.5
					c-2.4,0-4.1,2-4.1,4.1c0,2.4,2,4.2,4.1,4.2c2.2,0,4.1-2,4.1-4.2C421.8,188.5,420,186.5,417.6,186.5L417.6,186.5z M112.2,251.7
					c-13.2,0-23.9-10.7-23.9-23.9c0-13.2,10.7-23.9,23.9-23.9s23.9,10.7,23.9,23.9C136.1,241,125.4,251.7,112.2,251.7L112.2,251.7z
					 M112.2,215.1c-7.1,0-12.9,5.9-12.9,12.9c0,7.1,5.9,12.9,12.9,12.9c7.1,0,12.9-5.9,12.9-12.9C125.2,221,119.3,215.1,112.2,215.1
					z M166.4,251.7c-13.2,0-23.9-10.7-23.9-23.9c0-13.2,10.7-23.9,23.9-23.9c13.2,0,23.9,10.7,23.9,23.9
					C190.3,241,179.6,251.7,166.4,251.7z M166.4,215.1c-7.1,0-12.9,5.9-12.9,12.9c0,7.1,5.9,12.9,12.9,12.9
					c7.1,0,12.9-5.9,12.9-12.9C179.3,221,173.5,215.1,166.4,215.1z"/>
				<path id="Path_00000170244692796924549790000010007138168470072987_" class="st0" d="M243.9,228.8l-12-9.3v-39.5h12V228.8z"/>
				<path id="Shape_00000012459216926348421580000016939220167592947613_" class="st0" d="M356.9,228.5c0-8.5,4.4-24.7,23.9-24.7
					c13.2,0,23.9,10.7,23.9,23.9c0,13.2-10.7,23.9-23.9,23.9C367.4,251.5,356.9,241.7,356.9,228.5L356.9,228.5z M367.6,227.5
					c0,7.1,5.9,12.9,12.9,12.9c7.1,0,12.9-5.9,12.9-12.9c0-7.1-5.9-12.9-12.9-12.9C373.5,214.8,367.6,220.5,367.6,227.5z"/>
				<path id="Path_00000121267214714760144170000008056861499338708144_" class="st0" d="M356.9,228.5l12-9.3v-39.3h-12V228.5z"/>
			</g>
			<g id="Group_00000183215535340442850320000017092147766517775259_" transform="translate(0 12.913)">
				<path id="Shape_00000017487696215629464810000000394897910313159575_" class="st0" d="M89.1,239c-13.2,0-23.7-10.7-23.7-23.7
					c0-12.9,10.5-23.9,23.7-23.9s23.7,10.7,23.7,23.7C112.8,228.1,102.3,239,89.1,239z M89.1,202.4c-7.1,0-12.9,5.9-12.9,12.9
					c0,7.1,5.9,12.9,12.9,12.9c7.1,0,12.9-5.9,12.9-12.9C102,208,96.2,202.4,89.1,202.4z"/>
				<path id="Shape_00000166647381157270801390000003824636401902219939_" class="st0" d="M112,206.1c-4.4,0-7.8-3.4-7.8-7.8
					c0-4.4,3.4-7.8,7.8-7.8c4.4,0,7.8,3.4,7.8,7.8C119.8,202.7,116.4,206.1,112,206.1z M112,194.1c-2.4,0-4.1,2-4.1,4.2
					c0,2.2,2,4.1,4.1,4.1c2.4,0,4.1-2,4.1-4.1S114.2,194.1,112,194.1z"/>
				<path id="Path_00000124120128546461785400000007087839091894561156_" class="st0" d="M89.1,270c13.2,0,23.7-10.7,23.7-23.7h-11
					c0,7.1-5.9,12.9-12.9,12.9c-7.1,0-12.9-5.9-12.9-12.9H65.4C65.4,259.3,75.9,270,89.1,270z"/>
			</g>
		</g>
	</g>
</g>
</svg>
