<?xml version="1.0" encoding="utf-8"?>
<!-- Generator: Adobe Illustrator 27.2.0, SVG Export Plug-In . SVG Version: 6.00 Build 0)  -->
<svg version="1.1" id="Laag_1" xmlns="http://www.w3.org/2000/svg" xmlns:xlink="http://www.w3.org/1999/xlink" x="0px" y="0px"
	 viewBox="0 0 395.3 155.6" style="enable-background:new 0 0 395.3 155.6;" xml:space="preserve">
<style type="text/css">
	.st0{fill:#034EA2;}
	.st1{fill:#99A2D1;}
</style>
<path class="st0" d="M384.2,139c1.5,0,4.9,0.2,5.2,4.4c0.4,4.6,0.1,9.1,1.3,11.5h4.6c-0.7-2.2-1.2-7.6-1.2-9.1
	c-0.2-7-1.7-8.3-5.7-8.9v-0.1c4.1-0.7,6.3-3.8,6.3-7.9c0-4.3-2.2-8.6-8.3-8.6h-12v34.7h4.4v-16H384.2z M379,124.1h6.7
	c3.4,0,4.7,2.8,4.7,5.3c0,3-1.5,5.8-4.7,5.8H379V124.1z M367.8,154.9v-3.8h-13.7v-12h12.5v-3.8h-12.5v-11.1h13.5v-3.8h-17.9v34.7
	H367.8z M335.9,154.9h4.4v-34.7h-4.4V154.9z M326.2,129.5c0.3-7.3-3.3-10-10.8-10c-7.4,0-10.9,4.4-10.9,11.3v11.4
	c0,9.6,3.6,13.4,10.9,13.4c4.5,0,7.8-1.1,10.6-2.6v-16.9h-10.8v3.8h6.4v10.4c-0.9,0.7-3,1.5-6.2,1.5c-4.2,0-6.4-1.9-6.4-9.5v-11.7
	c0-7.3,5-7.5,6.4-7.5c4.5,0,6.2,2.2,6.2,6.3H326.2z M298.2,154.9v-3.8h-13.7v-12h12.5v-3.8h-12.5v-11.1h13.5v-3.8H280v34.7H298.2z
	 M267.1,120.2v29.7H267l-13.5-29.7h-6.2v34.7h3.9v-30.1h0.1l13.7,30.1h6.1v-34.7H267.1z M227.5,151.9c-4.2,0-6.4-1.9-6.4-9.5v-11.7
	c0-7.3,5-7.5,6.4-7.5c1.4,0,6.4,0.2,6.4,7.5v11.7C233.8,150,231.6,151.9,227.5,151.9z M227.5,155.6c7.4,0,10.9-3.8,10.9-13.4v-11.4
	c0-6.9-3.6-11.3-10.9-11.3c-7.4,0-10.9,4.4-10.9,11.3v11.4C216.5,151.8,220.1,155.6,227.5,155.6z M179.9,124.1L179.9,124.1l9.6,30.8
	h4.2l9.7-30.8h0.1v30.8h4.4v-34.7h-7.3l-8.8,29.1h-0.1l-8.7-29.1h-7.2v34.7h4.1V124.1z"/>
<path class="st0" d="M266.2,95V79.2h12.2V95h4.4V60.3h-4.4v15h-12.2v-15h-4.4V95H266.2z M238.3,95V76.9h0.1L250.6,95h5.7l-13.3-19
	l12.6-15.7h-5l-12.1,15.2h-0.1V60.3h-4.4V95H238.3z M214.3,92.1c-4.2,0-6.4-1.9-6.4-9.5V70.8c0-7.3,5-7.5,6.4-7.5
	c1.4,0,6.4,0.2,6.4,7.5v11.7C220.7,90.1,218.5,92.1,214.3,92.1z M214.3,95.8c7.4,0,10.9-3.8,10.9-13.4V71c0-6.9-3.6-11.3-10.9-11.3
	c-7.4,0-10.9,4.4-10.9,11.3v11.4C203.4,92,206.9,95.8,214.3,95.8z M185.4,79.1c1.5,0,4.9,0.2,5.2,4.4c0.4,4.6,0.1,9.1,1.3,11.5h4.6
	c-0.7-2.2-1.2-7.6-1.2-9.1c-0.2-7-1.7-8.3-5.7-8.9v-0.1c4.1-0.7,6.3-3.8,6.3-7.9c0-4.3-2.2-8.6-8.3-8.6h-12V95h4.4v-16H185.4z
	 M180.2,64.2h6.7c3.4,0,4.7,2.8,4.7,5.3c0,3-1.5,5.8-4.7,5.8h-6.6V64.2z"/>
<path class="st0" d="M315.4,10c0.3-7.3-3.3-10-10.8-10c-7.4,0-10.9,4.4-10.9,11.3v11.4c0,9.6,3.6,13.4,10.9,13.4
	c4.5,0,7.8-1.1,10.6-2.6V16.7h-10.8v3.8h6.4v10.4c-0.9,0.7-3,1.5-6.2,1.5c-4.2,0-6.4-1.9-6.4-9.5V11.2c0-7.3,5-7.5,6.4-7.5
	c4.5,0,6.2,2.2,6.2,6.3H315.4z M281.2,0.7v29.7h-0.1L267.6,0.7h-6.2v34.7h3.9V5.3h0.1l13.7,30.1h6.1V0.7H281.2z M244.4,17.5
	l-6.8-16.8h-4.9l9.3,21.5v13.2h4.4V22.2l9.5-21.5h-4.5L244.4,17.5z M216.6,32.4c-4.2,0-6.4-1.9-6.4-9.5V11.2c0-7.3,5-7.5,6.4-7.5
	c1.4,0,6.4,0.2,6.4,7.5v11.7C223,30.5,220.8,32.4,216.6,32.4z M216.6,36.1c7.4,0,10.9-3.8,10.9-13.4V11.3c0-6.9-3.6-11.3-10.9-11.3
	c-7.4,0-10.9,4.4-10.9,11.3v11.4C205.7,32.3,209.2,36.1,216.6,36.1z M180.2,35.4V19.6h12.2v15.9h4.4V0.7h-4.4v15h-12.2v-15h-4.4
	v34.7H180.2z"/>
<path class="st0" d="M46.2,135.8h7.3c0-5.4-1.5-6.1-3.7-6.1C47.8,129.7,46.2,130.6,46.2,135.8z M79.8,136.3c0-2.5-0.1-6.5-3.5-6.5
	c-3.3,0-3.7,2.6-3.7,7.6c0,2.8,0,6.9,3.8,6.9C79.8,144.3,79.8,140.1,79.8,136.3z M98.9,136.1c0-5.1-1.6-6.2-3.9-6.2
	c-2.3,0-3.9,1.1-3.9,6.2c0,6.1,0.8,8.2,3.9,8.2C98.2,144.3,98.9,142.1,98.9,136.1z M102.1,137.4c0,8.2-3.1,9.4-7.1,9.4
	c-4,0-7.1-1.2-7.1-9.4c0-5.5,0.6-10,7.1-10S102.1,131.9,102.1,137.4z M82.9,146.4h-3v-2.2h-0.1c-1,1.7-2.3,2.6-4.3,2.6
	c-3,0-6-1.2-6-9.4c0-4.7,0.1-10,6.2-10c1.8,0,3.1,0.8,4.1,2.3h0.1v-9.9h3V146.4z M56.7,138.1H46.2c0,5.2,1.4,6.3,3.8,6.3
	c2.1,0,3.1-1.7,3.3-3.6h3.3c0,4.1-2.6,6-6.5,6c-4,0-7.1-1.2-7.1-9.4c0-5.5,0.6-10,7.1-10c5.3,0,6.7,2.9,6.7,9.1V138.1z M41.4,119.7
	l-7.1,26.7h-4.1l-5.1-23.2h-0.1l-5.4,23.2h-4.1L9,119.7h3.6l5,23.2h0.1l5.4-23.2h4.4l4.8,23.2h0.1l5.4-23.2H41.4z M0,154.9h154.2
	V0.7H0V154.9z"/>
<path class="st1" d="M141.5,147.1h3.5v-3.8h-3.5V147.1z M130.8,147.1v-11.8h4.5c2.7,0,7.5-1.3,7.5-7.3c0-6.3-3.8-7.6-7.4-7.6h-7.9
	v26.7H130.8z M130.8,123.4h4.7c0.7,0,3.8,0.4,3.8,4.5c0,4.2-3.3,4.6-4.7,4.6h-3.7V123.4z M117.1,147.1h3.4v-26.7h-3.4V147.1z"/>
<path class="st0" d="M384.2,139c1.5,0,4.9,0.2,5.2,4.4c0.4,4.6,0.1,9.1,1.3,11.5h4.6c-0.7-2.2-1.2-7.6-1.2-9.1
	c-0.2-7-1.7-8.3-5.7-8.9v-0.1c4.1-0.7,6.3-3.8,6.3-7.9c0-4.3-2.2-8.6-8.3-8.6h-12v34.7h4.4v-16H384.2z M379,124.1h6.7
	c3.4,0,4.7,2.8,4.7,5.3c0,3-1.5,5.8-4.7,5.8H379V124.1z M367.8,154.9v-3.8h-13.7v-12h12.5v-3.8h-12.5v-11.1h13.5v-3.8h-17.9v34.7
	H367.8z M335.9,154.9h4.4v-34.7h-4.4V154.9z M326.2,129.5c0.3-7.3-3.3-10-10.8-10c-7.4,0-10.9,4.4-10.9,11.3v11.4
	c0,9.6,3.6,13.4,10.9,13.4c4.5,0,7.8-1.1,10.6-2.6v-16.9h-10.8v3.8h6.4v10.4c-0.9,0.7-3,1.5-6.2,1.5c-4.2,0-6.4-1.9-6.4-9.5v-11.7
	c0-7.3,5-7.5,6.4-7.5c4.5,0,6.2,2.2,6.2,6.3H326.2z M298.2,154.9v-3.8h-13.7v-12h12.5v-3.8h-12.5v-11.1h13.5v-3.8H280v34.7H298.2z
	 M267.1,120.2v29.7H267l-13.5-29.7h-6.2v34.7h3.9v-30.1h0.1l13.7,30.1h6.1v-34.7H267.1z M227.5,151.9c-4.2,0-6.4-1.9-6.4-9.5v-11.7
	c0-7.3,5-7.5,6.4-7.5c1.4,0,6.4,0.2,6.4,7.5v11.7C233.8,150,231.6,151.9,227.5,151.9z M227.5,155.6c7.4,0,10.9-3.8,10.9-13.4v-11.4
	c0-6.9-3.6-11.3-10.9-11.3c-7.4,0-10.9,4.4-10.9,11.3v11.4C216.5,151.8,220.1,155.6,227.5,155.6z M179.9,124.1L179.9,124.1l9.6,30.8
	h4.2l9.7-30.8h0.1v30.8h4.4v-34.7h-7.3l-8.8,29.1h-0.1l-8.7-29.1h-7.2v34.7h4.1V124.1z"/>
<path class="st0" d="M266.2,95V79.2h12.2V95h4.4V60.3h-4.4v15h-12.2v-15h-4.4V95H266.2z M238.3,95V76.9h0.1L250.6,95h5.7l-13.3-19
	l12.6-15.7h-5l-12.1,15.2h-0.1V60.3h-4.4V95H238.3z M214.3,92.1c-4.2,0-6.4-1.9-6.4-9.5V70.8c0-7.3,5-7.5,6.4-7.5
	c1.4,0,6.4,0.2,6.4,7.5v11.7C220.7,90.1,218.5,92.1,214.3,92.1z M214.3,95.8c7.4,0,10.9-3.8,10.9-13.4V71c0-6.9-3.6-11.3-10.9-11.3
	c-7.4,0-10.9,4.4-10.9,11.3v11.4C203.4,92,206.9,95.8,214.3,95.8z M185.4,79.1c1.5,0,4.9,0.2,5.2,4.4c0.4,4.6,0.1,9.1,1.3,11.5h4.6
	c-0.7-2.2-1.2-7.6-1.2-9.1c-0.2-7-1.7-8.3-5.7-8.9v-0.1c4.1-0.7,6.3-3.8,6.3-7.9c0-4.3-2.2-8.6-8.3-8.6h-12V95h4.4v-16H185.4z
	 M180.2,64.2h6.7c3.4,0,4.7,2.8,4.7,5.3c0,3-1.5,5.8-4.7,5.8h-6.6V64.2z"/>
<path class="st0" d="M315.4,10c0.3-7.3-3.3-10-10.8-10c-7.4,0-10.9,4.4-10.9,11.3v11.4c0,9.6,3.6,13.4,10.9,13.4
	c4.5,0,7.8-1.1,10.6-2.6V16.7h-10.8v3.8h6.4v10.4c-0.9,0.7-3,1.5-6.2,1.5c-4.2,0-6.4-1.9-6.4-9.5V11.2c0-7.3,5-7.5,6.4-7.5
	c4.5,0,6.2,2.2,6.2,6.3H315.4z M281.2,0.7v29.7h-0.1L267.6,0.7h-6.2v34.7h3.9V5.3h0.1l13.7,30.1h6.1V0.7H281.2z M244.4,17.5
	l-6.8-16.8h-4.9l9.3,21.5v13.2h4.4V22.2l9.5-21.5h-4.5L244.4,17.5z M216.6,32.4c-4.2,0-6.4-1.9-6.4-9.5V11.2c0-7.3,5-7.5,6.4-7.5
	c1.4,0,6.4,0.2,6.4,7.5v11.7C223,30.5,220.8,32.4,216.6,32.4z M216.6,36.1c7.4,0,10.9-3.8,10.9-13.4V11.3c0-6.9-3.6-11.3-10.9-11.3
	c-7.4,0-10.9,4.4-10.9,11.3v11.4C205.7,32.3,209.2,36.1,216.6,36.1z M180.2,35.4V19.6h12.2v15.9h4.4V0.7h-4.4v15h-12.2v-15h-4.4
	v34.7H180.2z"/>
<path class="st0" d="M46.2,135.8h7.3c0-5.4-1.5-6.1-3.7-6.1C47.8,129.7,46.2,130.6,46.2,135.8z M79.8,136.3c0-2.5-0.1-6.5-3.5-6.5
	c-3.3,0-3.7,2.6-3.7,7.6c0,2.8,0,6.9,3.8,6.9C79.8,144.3,79.8,140.1,79.8,136.3z M98.9,136.1c0-5.1-1.6-6.2-3.9-6.2
	c-2.3,0-3.9,1.1-3.9,6.2c0,6.1,0.8,8.2,3.9,8.2C98.2,144.3,98.9,142.1,98.9,136.1z M102.1,137.4c0,8.2-3.1,9.4-7.1,9.4
	c-4,0-7.1-1.2-7.1-9.4c0-5.5,0.6-10,7.1-10S102.1,131.9,102.1,137.4z M82.9,146.4h-3v-2.2h-0.1c-1,1.7-2.3,2.6-4.3,2.6
	c-3,0-6-1.2-6-9.4c0-4.7,0.1-10,6.2-10c1.8,0,3.1,0.8,4.1,2.3h0.1v-9.9h3V146.4z M56.7,138.1H46.2c0,5.2,1.4,6.3,3.8,6.3
	c2.1,0,3.1-1.7,3.3-3.6h3.3c0,4.1-2.6,6-6.5,6c-4,0-7.1-1.2-7.1-9.4c0-5.5,0.6-10,7.1-10c5.3,0,6.7,2.9,6.7,9.1V138.1z M41.4,119.7
	l-7.1,26.7h-4.1l-5.1-23.2h-0.1l-5.4,23.2h-4.1L9,119.7h3.6l5,23.2h0.1l5.4-23.2h4.4l4.8,23.2h0.1l5.4-23.2H41.4z M0,154.9h154.2
	V0.7H0V154.9z"/>
<path class="st1" d="M141.5,147.1h3.5v-3.8h-3.5V147.1z M130.8,147.1v-11.8h4.5c2.7,0,7.5-1.3,7.5-7.3c0-6.3-3.8-7.6-7.4-7.6h-7.9
	v26.7H130.8z M130.8,123.4h4.7c0.7,0,3.8,0.4,3.8,4.5c0,4.2-3.3,4.6-4.7,4.6h-3.7V123.4z M117.1,147.1h3.4v-26.7h-3.4V147.1z"/>
</svg>
