<?xml version="1.0" encoding="utf-8"?>
<!-- Generator: Adobe Illustrator 27.2.0, SVG Export Plug-In . SVG Version: 6.00 Build 0)  -->
<svg version="1.1" id="Laag_1" xmlns="http://www.w3.org/2000/svg" xmlns:xlink="http://www.w3.org/1999/xlink" x="0px" y="0px"
	 viewBox="0 0 379.9 404.7" style="enable-background:new 0 0 379.9 404.7;" xml:space="preserve">
<style type="text/css">
	.st0{fill:#E01714;}
	.st1{fill:#FFFFFF;}
</style>
<g>
	<path class="st0" d="M189.9,0c9.5,8.1,42.6,33.9,79.4,33.9c28.8,0,67.9-19.8,78.5-25.4c3.5,3.5,27.2,27.2,30.9,30.9
		c-4.6,7.8-16.5,31.1-16.5,61.1c0,35.2,5.7,64.5,10.7,90.4c3.7,19.2,7,35.8,7,50.7c0,41.8-21.1,77.7-62.8,106.6
		c-35.4,24.6-78.6,39.6-107.2,49.4c-7.8,2.7-14.5,5.1-19.9,7.2c-5.4-2.1-12.2-4.5-20-7.1c-28.6-9.9-71.8-24.8-107.2-49.4
		C21.1,319.2,0,283.3,0,241.5c0-14.8,3.2-31.5,6.9-50.7c5-25.9,10.7-55.2,10.7-90.4c0-30-12-53.3-16.5-61.1
		C4.8,35.6,28.4,12,31.9,8.4c10.6,5.7,49.7,25.4,78.5,25.4C147.3,33.9,180.4,8.1,189.9,0z"/>
	<path class="st1" d="M347.8,259.1c0-48.3-17.7-86.5-17.7-132.2c0-47.1,11.8-65.5,26.5-79.3c-5.2,12.1-11,36.7-11,61.7
		c0,41.1,17.6,92.3,17.6,132.3c0,33.9-13.8,65.4-41.9,88.2C338.7,310.7,347.8,284.8,347.8,259.1z"/>
	<polygon class="st1" points="81.2,99.9 94.3,97.2 94.3,153.8 114.5,149.6 114.5,161.5 81.2,168.5 	"/>
	<path class="st1" d="M212.8,254.9c-4.3,0.9-7.8-1.7-7.8-5.7c0-5.1,3.6-8.1,7.8-8.9c4.3-0.9,7.8,1.7,7.8,5.7
		C220.6,250.9,217.1,254,212.8,254.9z"/>
	<path class="st1" d="M276.7,298.5c-5.2,1.1-13.7-0.1-18-2.5l3.7-9.4c4.6,2.1,7.4,2.3,11.7,1.8c5.1-0.5,7.4-3.7,7.4-6.2
		c0-3.7-6.3-4.7-12.2-6.9c-5.1-2-9.9-5.6-9.9-11.7c0-9.7,6-15.8,15.8-17.8c5.8-1.2,12.2-0.2,16.1,1.8l-3.6,9.5
		c-4.7-1.4-7.4-1.8-11.4-0.9c-2.8,0.6-4.6,2.1-4.6,4.2c0,6.5,22.2,4.6,22.2,19.2C293.9,290.1,287.1,296.3,276.7,298.5z"/>
	<path class="st1" d="M238,221.3c-5.2,1.1-13.7-0.1-18-2.5l3.7-9.4c4.6,2.1,7.4,2.2,11.7,1.8c5.1-0.5,7.4-3.7,7.4-6.2
		c0-3.7-6.3-4.6-12.2-6.9c-5.1-2-9.9-5.6-9.9-11.7c0-9.7,6-15.8,15.8-17.8c5.7-1.2,12.2-0.2,16.1,1.8l-3.6,9.5
		c-4.7-1.4-7.4-1.8-11.4-1c-2.8,0.6-4.6,2.2-4.6,4.2c0,6.5,22.2,4.6,22.2,19.2C255.2,212.9,248.4,219,238,221.3z"/>
	<path class="st1" d="M294.2,83.7c-2.5-0.5-4.3-0.2-7.2,0.4c-3.2,0.7-5.8,3-7.9,6.2v37.1l-12.3,2.6V77.5l12.3-2.4l0.1,5.2
		c2-3.4,5.9-7.1,10-8c3.6-0.8,6-0.4,8.6,0.9L294.2,83.7z"/>
	<path class="st1" d="M185.5,136.3c3-0.6,6.2-3.5,7.6-5.9l0-22.6c-1.7-1.9-4.4-4.2-7.9-3.5c-4.4,0.9-6.2,5-6.2,17
		C179.1,132.5,180.4,137.4,185.5,136.3z M183.6,93.9c4.7-0.9,7.8,1.1,9.6,2.8l0-3.7l12.3-2.6v48.5c0,15.4-4.9,22.9-23.7,29.1
		l-4.1-9.2c12.8-4.9,15.4-8.5,15.4-17.8c-2.7,3.3-6.6,5.9-10.6,6.8c-8.8,1.9-16-5.3-16-23.4C166.6,108.6,171.6,96.3,183.6,93.9z"/>
	<path class="st1" d="M140.6,199.5c-4.4,0.9-6.2,5-6.2,17c0,11.3,1.3,16.4,6.4,15c4.6-1.2,6.5-5.1,7.6-7.1l0.1-22
		C146.8,200.3,144.1,198.7,140.6,199.5z M138.2,242.4c-9,2.4-16.2-4.9-16.2-23c0-15.7,3.3-27.7,17-30.4c3.7-0.7,7.1,0.1,9.5,1.9
		v-19.3l12.3-2.6v67.8l-12.3,2.6l0.4-5.9C146.7,237.9,143.7,240.9,138.2,242.4z"/>
	<path class="st1" d="M138.5,113.7c-4.6,0.9-7.1,5.2-7.7,12.9l15.6-3.1C145.7,117.3,143.8,112.6,138.5,113.7z M137.6,103.6
		c13.8-2.9,21,8.3,21,22.4c0,1.4-0.1,2.8-0.2,4.3l-27.7,5.8c0.5,7.8,4,10.7,8.8,9.6c4.4-0.9,6.2-2.7,8.5-6.3l8.8,4.3
		c-4.1,7.1-9.4,11.3-16.7,12.8c-13.6,2.8-21.9-6.4-21.9-22.2C118.3,117.1,125.7,106.1,137.6,103.6z"/>
	<path class="st1" d="M236,93.2c-4.6,0.9-7.1,5.2-7.7,12.9l15.5-2.9C243.2,97,241.3,92.1,236,93.2z M235.2,83.1
		c13.8-2.9,21,8.2,21,22.4c0,1.4-0.1,3.2-0.2,4.6l-27.7,5.5c0.5,7.8,4,10.6,8.8,9.6c4.4-0.9,6.1-2.8,8.6-6.3l8.8,4.3
		c-4.1,7.1-9.5,11.3-16.7,12.8c-13.5,2.8-21.8-6.4-21.8-22.2C215.9,96.6,223.3,85.6,235.2,83.1z"/>
	<path class="st1" d="M191.5,187.7c-4.6,0.9-7.1,5.2-7.7,12.9l15.6-3.1C198.7,191.3,196.9,186.5,191.5,187.7z M190.7,177.6
		c13.8-2.9,21,8.2,21,22.4c0,1.4-0.1,3-0.2,4.4l-27.7,5.7c0.5,7.8,4,10.7,8.8,9.6c4.4-0.9,6.2-2.8,8.6-6.3l8.8,4.3
		c-4.1,7.1-9.5,11.3-16.6,12.8c-13.6,2.8-21.9-6.4-21.9-22.3C171.4,191.1,178.8,180.1,190.7,177.6z"/>
	<path class="st1" d="M175.8,276.3c-4.6,0.9-7.1,5.2-7.7,12.9l15.6-3.2C183,279.8,181.1,275.1,175.8,276.3z M174.9,266.2
		c13.8-2.9,21,8.3,21,22.4c0,1.4-0.1,3-0.2,4.4l-27.7,5.7c0.5,7.8,4,10.7,8.8,9.7c4.4-0.9,6.2-2.7,8.6-6.3l8.8,4.3
		c-4.1,7.1-9.5,11.3-16.7,12.8c-13.6,2.8-21.9-6.4-21.9-22.2C155.6,279.7,163,268.6,174.9,266.2z"/>
	<polygon class="st1" points="145.3,325.3 145.3,256.9 132.3,259.5 132.3,286.7 115.6,290.1 115.6,263 102.5,265.6 102.5,334.2 
		115.6,331.5 115.6,302.1 132.3,298.6 132.3,328 	"/>
	<polygon class="st1" points="206.6,261 206.6,312.7 218.9,310.2 218.9,258.4 	"/>
	<polygon class="st1" points="234.5,306.9 246.8,304.4 246.8,236 234.5,238.4 	"/>
</g>
</svg>
