<?xml version="1.0" encoding="utf-8"?>
<!-- Generator: Adobe Illustrator 27.2.0, SVG Export Plug-In . SVG Version: 6.00 Build 0)  -->
<svg version="1.1" id="Laag_1" xmlns="http://www.w3.org/2000/svg" xmlns:xlink="http://www.w3.org/1999/xlink" x="0px" y="0px"
	 viewBox="0 0 1484.4 259.1" style="enable-background:new 0 0 1484.4 259.1;" xml:space="preserve">
<g>
	<polygon points="14.2,0 0,0 0,258.4 81.8,258.4 81.8,241.4 14.2,241.4 	"/>
	<polygon points="231.8,128.1 334.9,128.1 334.9,111.1 231.8,111.1 231.8,17 336.1,17 336.1,0 216,0 216,258.4 340.3,258.4 
		340.3,241.4 231.8,241.4 	"/>
	<path d="M1484.4,255.7L1401,133.5h12l6.2-0.1c6.1,0,12.7-1.2,20.2-3.7c7-2.3,13.4-6.2,19.1-11.4c5.7-5.3,10.4-12.2,13.9-20.5
		c3.5-8.3,5.3-18.8,5.3-31.2c0-13.3-1.9-24.4-5.6-33c-3.8-8.7-8.7-15.6-14.7-20.7c-6-5.1-12.9-8.5-20.6-10.4
		c-7.3-1.7-14.6-2.6-21.6-2.6h-55.8v259.1h15.7V133.5h7.6l83.4,122.2H1484.4z M1374.8,16.7h37.1c6.5,0,12.9,0.8,19.2,2.3
		c5.9,1.5,11.2,4,15.7,7.7c4.4,3.6,8.1,8.6,10.9,15c2.8,6.5,4.3,14.9,4.3,24.9c0,16.2-4.1,28.8-12,37.4c-8,8.6-19.5,12.8-35.2,12.8
		h-39.9V16.7z"/>
	<polygon points="652.8,0 629.1,0 506.7,117.3 506.5,117.1 506.5,0 490.1,0 490.1,258.4 506.5,258.4 506.5,141.2 511.6,136.3 
		635.1,258.9 658.3,258.9 524.1,124.3 	"/>
	<polygon points="949.2,0 925.5,0 803.2,117.6 802.9,117.3 802.9,0 786.5,0 786.5,258.9 802.9,258.9 802.9,141.5 808.1,136.5 
		931.5,258.9 954.7,258.9 820.5,124.5 	"/>
	<polygon points="1099.3,128.4 1202.4,128.4 1202.4,111.4 1099.3,111.4 1099.3,17 1203.5,17 1203.5,0 1083.5,0 1083.5,258.9 
		1207.8,258.9 1207.8,241.9 1099.3,241.9 	"/>
</g>
</svg>
