<?xml version="1.0" encoding="utf-8"?>
<!-- Generator: Adobe Illustrator 27.2.0, SVG Export Plug-In . SVG Version: 6.00 Build 0)  -->
<svg version="1.1" id="Laag_1" xmlns="http://www.w3.org/2000/svg" xmlns:xlink="http://www.w3.org/1999/xlink" x="0px" y="0px"
	 viewBox="0 0 1593.8 418.5" style="enable-background:new 0 0 1593.8 418.5;" xml:space="preserve">
<style type="text/css">
	.st0{fill:#2C3558;}
</style>
<g>
	<path class="st0" d="M149.1,3.3L2.1,145.2L52.2,197l50.3-48.6l5.9,6.1l94.3,97.6L308,150.5L166.1,3.6
		C156.9-4.3,149.1,3.3,149.1,3.3z"/>
	<polygon class="st0" points="255.5,221.2 100,371.4 110,381.8 265.5,231.6 	"/>
	<polygon class="st0" points="275.6,242 120,392.2 130,402.6 285.6,252.4 	"/>
	<path class="st0" d="M140.1,413c0,0,9.7,10.7,18.2,2.4l147.3-142.3l-10-10.4L140.1,413z"/>
	<polygon class="st0" points="105.3,166.3 0,267.9 10,278.3 115.3,176.6 	"/>
	<polygon class="st0" points="125.3,187 20,288.7 30.1,299 135.3,197.4 	"/>
	<polygon class="st0" points="145.3,207.8 40.1,309.4 50.1,319.8 155.4,218.1 	"/>
	<polygon class="st0" points="165.4,228.5 60.1,330.2 70.1,340.5 175.4,238.9 	"/>
	<polygon class="st0" points="185.4,249.3 80.2,350.9 90.2,361.3 195.4,259.6 	"/>
	<polygon class="st0" points="524.9,258.4 427.6,108.5 384,108.5 384,343.2 429.1,343.2 429.1,188.7 527.2,343.2 569.9,343.2 
		569.9,108.5 524.9,108.5 	"/>
	<path class="st0" d="M755.5,216.6c-0.9-1.8-1.6-3.1-2.1-3.9c-6.1-10.6-12.7-19.3-19.8-26.1c-7.1-6.8-15-12.1-23.8-15.9
		c-14.4-6.3-29.2-9.1-44.2-8.5c-15.1,0.6-29.2,4.7-42.5,12.5c-10.5,6.1-19.4,14.2-26.7,24.3c-7.3,10.2-12.5,21.6-15.5,34.4
		c-2.8,11.7-3.3,23.3-1.6,34.8c1.8,11.6,5.7,22.7,11.9,33.4c6,10.4,13.9,19.4,23.6,27c9.7,7.6,20.4,13.1,31.9,16.4
		c12.2,3.5,24.3,4.5,36.2,3c12-1.5,23.6-5.6,35.1-12.2c17-9.8,27.1-20.7,35.1-36.2l-30.9-53.4c3.2,9.1,0.6,29.1-6,39.2
		c-4.5,7-10.7,12.8-18.6,17.4c-12,6.9-23.6,9.4-34.9,7.4c-11.2-2-20.7-8.2-28.3-18.6l123-71C757.1,219.6,756.4,218.3,755.5,216.6z
		 M619.5,262.6c-2.8-10.9-2.2-21.4,2-31.5c4.2-10.1,11-17.9,20.5-23.4c11-6.3,21.6-8.9,31.9-7.7c10.3,1.2,19.9,6,28.9,14.5
		L619.5,262.6z"/>
	<polygon class="st0" points="913.1,268 883.2,165.4 852.5,165.4 821.1,268 792.4,165.4 748,165.4 809.3,343.2 836.2,343.2 
		866.5,235.5 897.6,343.2 924.5,343.2 986.4,165.4 941.8,165.4 	"/>
	<rect x="995.8" y="108.5" class="st0" width="40.1" height="234.7"/>
	<path class="st0" d="M1385.9,193c-6.4-9.7-14.3-16.9-23.8-21.7c-14.9-7.6-33.3-9.2-42.6-9.2c-9.3,0-27.4,1.7-42.4,9.2
		c-9.5,4.8-17.4,12-23.7,21.7c-4.1,6.4-7,13.7-8.8,22c-1.8,8.2-2.7,20.2-2.7,35.9v92.3h41.3v-77c0-23.8,3.3-40.6,8.8-49.5
		c5.5-8.8,14.8-13.6,28.2-13.7c13.3,0,22.7,4.9,28.1,13.7c5.5,8.9,7.7,25.7,7.7,49.5v77h41.3v-92.3c0-15.7-0.9-27.7-2.7-35.9
		C1392.9,206.7,1389.9,199.4,1385.9,193z"/>
	<path class="st0" d="M1138.9,162.1c-1.2,0-2.3,0-3.4-0.1c-10.7,0.1-20.8,1.8-30.4,5.2c-9.9,3.5-18.8,8.7-26.6,15.5
		c-10.6,9.3-18.8,20.2-24.6,32.8c-5.7,12.6-8.6,26-8.6,40.2c0,13.2,2.6,25.9,7.8,37.9c5.2,12,12.6,22.4,22.2,31.1
		c8.2,7.8,17.5,13.7,28,17.7c10.5,4.1,21.5,6.1,33.1,6.1c11.3,0,21.4-1.5,30.4-4.6c5-1.7,9.8-4,14.5-6.7v-51.8
		c-1.7,2.5-3.5,4.9-5.7,7.1c-9.8,10.2-21.8,15.3-36.3,15.3c-14.2,0-26.3-5.2-36.3-15.6c-10.1-10.4-15.1-22.8-15.1-37.3
		c0-15,5.1-27.5,15.2-37.4c10.1-9.9,22.8-14.9,38.2-14.9c13.5,0,25.1,5,34.7,15c9.6,10,14.3,22.2,14.3,36.7c0,0.8,0,1.6-0.1,2.4
		v86.3h42.4v-82c-0.1-1.7-0.1-3.5-0.1-5.5C1232.4,204,1190.5,162.1,1138.9,162.1z"/>
	<path class="st0" d="M1551.4,108.4V254c0,0.8,0.1,1.6,0.1,2.4c0,14.5-4.7,26.7-14.3,36.6c-9.6,10-21.1,15-34.6,15
		c-15.4,0-28.1-5-38.2-14.9c-10-10-15.1-22.4-15.1-37.4c0-14.5,5.1-26.8,15.1-37.2c10-10.4,22.1-15.6,36.3-15.6
		c14.4,0,26.5,5.1,36.2,15.3c2.1,2.2,4,4.6,5.7,7.1v-51.7c-4.7-2.8-9.4-5.1-14.5-6.8c-9-3-19.1-4.6-30.3-4.6
		c-11.6,0-22.6,2.1-33.1,6.2c-10.4,4.1-19.7,10-27.9,17.7c-9.6,8.7-17,19-22.1,31.1c-5.2,12-7.8,24.6-7.8,37.9
		c0,14.2,2.9,27.5,8.6,40.1c5.7,12.6,13.9,23.5,24.5,32.7c7.8,6.9,16.7,12.1,26.5,15.5c9.6,3.4,19.7,5.1,30.4,5.2
		c1,0,2.1-0.1,3.4-0.1c51.6,0,93.4-41.8,93.4-93.5c0-2,0.1-3.8,0.1-5.5V108.4H1551.4z"/>
</g>
</svg>
