<?xml version="1.0" encoding="utf-8"?>
<!-- Generator: Adobe Illustrator 27.2.0, SVG Export Plug-In . SVG Version: 6.00 Build 0)  -->
<svg version="1.1" id="Laag_1" xmlns="http://www.w3.org/2000/svg" xmlns:xlink="http://www.w3.org/1999/xlink" x="0px" y="0px"
	 viewBox="0 0 1340.6 380.9" style="enable-background:new 0 0 1340.6 380.9;" xml:space="preserve">
<path d="M639.3,352.4c-41.8-9-77-35.8-97.2-72.1h-517V137.9h517c20.2-36.3,55.4-63.1,97.2-72.1V40.2c-46.1,8.4-85.8,35.3-111.2,72.6
	H0v192.7h528.1c25.4,37.4,65.1,64.2,111.2,72.6V352.4z"/>
<path d="M893.9,112.8l-22,25.1h443.6v142.4h-517c-23.4,42-66.7,71.2-117.1,74.9l-22.2,25.2c3.6,0.2,7.4,0.4,11.1,0.4
	c59.2,0,111.3-29.9,142.2-75.4h528.1V112.8H893.9z"/>
<path d="M664.5,26c70.4,5,135.2,30.6,188.2,70.8l-36,41.1H850l38.6-44.1C819.9,34.3,734.8,0,639.3,0v137.9h25.1V26z"/>
<polygon points="664.5,311.5 664.5,280.4 639.3,280.4 639.3,378.3 725.2,280.4 691.8,280.4 "/>
<path d="M116.2,158.9h27.6v100.5h-24.5l-43-55.2v55.2H48.7V158.9h26.1l41.4,53.2V158.9z M183.5,219.8h48.4v-22h-48.4v-15.2h53.4
	v-23.7h-81v100.5h81.7v-23.7h-54.1V219.8z M354.1,216.7l-19.4-57.9h-24l-19.4,57.9l-17.6-57.6h-29.5l33.7,100.2h24.3l20.1-57.3
	l20.3,57.3h24.3l33.7-100.2h-28.9L354.1,216.7z M498.1,158.9l-20.9,36.6l-20.7-36.6h-31.8l38.3,62.9v37.6h28.1v-38.1l38.3-62.5
	H498.1z M627.9,208.8v0.3c0,28.9-23.3,52.4-54.4,52.4s-54.1-23.2-54.1-52.1v-0.3c0-28.9,23.3-52.4,54.4-52.4
	C604.8,156.7,627.9,179.9,627.9,208.8 M599.4,209.1c0-14.5-10.5-27.2-25.9-27.2c-15.3,0-25.5,12.4-25.5,26.9v0.3
	c0,14.5,10.5,27.2,25.8,27.2c15.4,0,25.6-12.4,25.6-26.9V209.1z M705.2,224.4l24,35H700L679.7,229h-3.3h-11.9v30.4h-25.1V158.9h44.8
	c15.4,0,26.1,4,32.8,10.9c5.9,5.7,8.9,13.5,8.9,23.4v0.3C725.9,208.8,717.7,219,705.2,224.4 M697.8,194.9c0-7.9-5.7-11.9-15.1-11.9
	h-18.3v24.1h18.4c9.5,0,15-4.6,15-11.9V194.9z M947.8,194.2v0.3c0,23.7-18.3,36.2-43.3,36.2h-13.8v28.7h-27.9V158.9h43.1
	C931.4,158.9,947.8,171.9,947.8,194.2 M919.9,195.5c0-8.6-6.1-13.2-16.1-13.2h-13.1v26.6h13.2c9.9,0,16-5.2,16-13.1V195.5z
	 M955.6,259.4h27.2V158.9h-27.2V259.4z M992.8,182.4h48.8l-50.5,56.8v20.2h89v-23.6h-50.5l50.5-56.7v-20.3h-87.3V182.4z
	 M1089.4,182.4h48.8l-50.5,56.8v20.2h89v-23.6h-50.5l50.5-56.7v-20.3h-87.3V182.4z M1293.6,259.4h-29.9l-7.3-17.8h-38.8l-7.2,17.8
	h-29.3l42.9-100.5h26.9L1293.6,259.4z M1248.2,220l-11.2-28.4l-11.4,28.4H1248.2z M807.6,259.4h30.5l-43.6-58.1l37.3-42.4h-33.4
	l-34.7,39.5v-39.5h-27.9v100.5h27.9v-22.9l13.7-15.6L807.6,259.4z"/>
</svg>
