<?xml version="1.0" encoding="utf-8"?>
<!-- Generator: Adobe Illustrator 27.2.0, SVG Export Plug-In . SVG Version: 6.00 Build 0)  -->
<svg version="1.1" id="Laag_1" xmlns="http://www.w3.org/2000/svg" xmlns:xlink="http://www.w3.org/1999/xlink" x="0px" y="0px"
	 viewBox="0 0 1203.1 368.3" style="enable-background:new 0 0 1203.1 368.3;" xml:space="preserve">
<style type="text/css">
	.st0{fill:#1D1D1B;}
</style>
<g>
	<g>
		<path class="st0" d="M97,306.5l-2.2,2.2c0,0,0,0,0,0l-1.7,1.7l-14.7,14.7c0,0,0,0,0,0c-7.6,7.6-18,9.7-27.9,5.6
			c-9.9-4.1-15.8-13-15.8-23.7l0-172.3c0-10.7,5.9-19.6,15.8-23.7c9.9-4.1,20.4-2,27.9,5.6l103.4,103.4c6.7,6.7,17.7,6.7,24.4,0
			c6.7-6.7,6.7-17.7,0-24.4L102.8,92.1C85.2,74.5,60.1,69.5,37.2,79C14.2,88.5,0,109.8,0,134.7L0,307c0,24.8,14.2,46.1,37.2,55.6
			c7.7,3.2,15.6,4.7,23.4,4.7c15.5,0,30.5-6.1,42.2-17.8l18.6-18.6c6.7-6.7,6.7-17.7,0-24.4C114.7,299.7,103.7,299.7,97,306.5z"/>
		<path class="st0" d="M279,79c-22.9-9.5-47.9-4.5-65.5,12.9c0,0,0,0,0,0l-18.8,18.5c-6.8,6.7-6.9,17.6-0.2,24.4
			c3.4,3.4,7.8,5.2,12.3,5.2c4.4,0,8.8-1.7,12.1-5l0.4-0.4c0.7-0.5,1.4-1.1,2-1.7l16.4-16.4c7.6-7.6,18-9.7,27.9-5.6
			c9.9,4.1,15.8,13,15.8,23.7l0,172.3c0,10.7-5.9,19.6-15.8,23.7c-9.9,4.1-20.4,2-27.9-5.6L134.5,221.8c-6.7-6.7-17.7-6.7-24.4,0
			c-6.7,6.7-6.7,17.7,0,24.4l103.3,103.3c11.7,11.7,26.7,17.8,42.2,17.8c7.8,0,15.7-1.6,23.4-4.7c22.9-9.5,37.2-30.8,37.2-55.6
			l0-172.3C316.2,109.8,301.9,88.5,279,79z"/>
	</g>
	<g>
		<path class="st0" d="M706.9,242.3c13.5-7.7,24.1-18.4,31.7-32c7.5-13.6,11.4-29.2,11.4-46.4c0-17.4-3.9-33.1-11.5-46.7
			c-7.7-13.6-18.4-24.4-31.8-32c-13.5-7.7-28.9-11.5-45.9-11.5c-17.2,0-32.8,3.9-46.4,11.5c-13.6,7.7-24.3,18.4-31.9,32
			c-7.5,13.6-11.4,29.3-11.4,46.7c0,17.2,3.8,32.8,11.4,46.4c7.5,13.6,18.3,24.4,31.9,32c13.6,7.6,29.2,11.5,46.4,11.5
			C677.9,253.9,693.5,250,706.9,242.3z M612.1,194.2L612.1,194.2c-4.8-8.8-7.2-19-7.2-30.3c0-11.3,2.4-21.5,7.2-30.5
			c4.8-8.9,11.5-16,19.9-21c8.4-5,18.1-7.5,28.7-7.5c10.6,0,20.3,2.5,28.7,7.5c8.4,5,15,12,19.7,21c4.7,9,7.1,19.2,7.1,30.5
			s-2.4,21.5-7.1,30.3c-4.7,8.8-11.3,15.8-19.7,20.8c-8.4,5-18.1,7.5-28.7,7.5c-10.6,0-20.3-2.5-28.7-7.5
			C623.6,210,616.9,203,612.1,194.2z"/>
		<path class="st0" d="M940.7,209.5c7.8-13.7,11.7-29.1,11.7-45.9c0-16.8-3.7-32.2-10.9-45.9c-7.2-13.7-17.3-24.6-29.9-32.3
			c-12.6-7.8-26.9-11.7-42.4-11.7c-12.5,0-24.3,2.6-35.1,7.8c-9.8,4.7-18.3,11.1-25.4,19.2l0-83.1c0-5.2-1.6-9.5-4.9-12.7
			c-3.2-3.2-7.5-4.8-12.7-4.8c-5,0-9.2,1.6-12.6,4.8c-3.3,3.2-5,7.5-5,12.7l0,146c0,16.8,4,32.3,11.9,45.9
			c7.9,13.7,18.7,24.6,32.2,32.5c13.5,7.9,28.7,11.9,45.3,11.9c16.6,0,31.9-4,45.6-11.9C922.1,234.1,933,223.2,940.7,209.5z
			 M891.1,214.9c-8.4,5.1-17.9,7.7-28.3,7.7c-10.4,0-19.9-2.6-28.3-7.7c-8.4-5.1-15.1-12.2-19.9-21.1c-4.8-8.9-7.2-19.1-7.2-30.2
			c0-11.1,2.4-21.1,7.2-30c4.8-8.8,11.5-15.9,19.9-21c8.4-5.1,17.9-7.7,28.3-7.7c10.4,0,19.9,2.6,28.3,7.7
			c8.4,5.1,15.2,12.2,20.1,21c4.9,8.9,7.4,18.9,7.4,30c0,11-2.5,21.2-7.4,30.1C906.3,202.7,899.5,209.8,891.1,214.9z"/>
		<path class="st0" d="M1107,84.7L1107,84.7c-12.1-7.3-26.7-11.1-43.2-11.1c-16.8,0-32,3.9-45.3,11.5c-13.3,7.7-23.8,18.5-31.2,32.2
			c-7.4,13.7-11.2,29.3-11.2,46.5c0,17.2,4,32.8,11.9,46.4c7.9,13.6,19,24.4,33,32c14,7.6,30,11.5,47.7,11.5
			c9.9,0,20.4-1.9,31.3-5.5c10.9-3.7,20.1-8.5,27.4-14.3c3.7-2.8,5.6-6.4,5.6-10.6c0-4.4-2.1-8.4-6.2-11.8
			c-2.6-2.3-6.1-3.5-10.4-3.5c-4.3,0-8.1,1.3-11.3,3.8c-4.3,3.3-10,6.2-16.8,8.5c-6.8,2.3-13.4,3.5-19.6,3.5
			c-15.9,0-29.4-4.5-40.4-13.5c-10.6-8.6-17.2-20.1-19.7-34l120.2,0c4.6,0,8.4-1.5,11.4-4.4c3-2.9,4.5-6.6,4.5-11
			c0-17-3.3-32.2-9.7-45.4C1128.6,102.5,1119.1,92.1,1107,84.7z M1009,148.3c2.7-13.3,8.6-24.1,17.7-32.1
			c9.4-8.3,21.9-12.5,37.1-12.5c13.7,0,24.9,4.2,33.4,12.5c8.2,8,13.4,18.8,15.4,32.1L1009,148.3z"/>
		<path class="st0" d="M1198.3,22.4c-3.2-3.2-7.4-4.8-12.4-4.8c-5,0-9.2,1.6-12.4,4.8c-3.2,3.2-4.8,7.4-4.8,12.4v201.8
			c0,5,1.6,9.2,4.8,12.4c3.2,3.2,7.4,4.8,12.4,4.8c5,0,9.2-1.6,12.4-4.8c3.2-3.2,4.8-7.4,4.8-12.4l0-201.8
			C1203.1,29.8,1201.5,25.6,1198.3,22.4z"/>
		<path class="st0" d="M552.8,236v-78.8c0-17.4-3.4-32.5-10.1-44.9c-6.7-12.4-16.1-22-28-28.5c-11.9-6.5-25.4-9.8-40.3-9.8l-10.3,0
			c-14.9,0-28.4,3.3-40.3,9.8c-11.9,6.5-21.3,16.1-28,28.5c-6.7,12.4-10.1,27.5-10.1,44.9l0,78.8c0,5,1.7,9.2,5,12.6
			c3.3,3.3,7.6,5,12.6,5c5,0,9.3-1.7,12.6-5c3.3-3.3,5-7.5,5-12.6l0-78.8c0-16.9,4.6-29.7,13.5-38.3c8.7-8.3,20.5-12.7,34.8-12.9
			c14.4,0.2,26.2,4.6,34.9,12.9c7.6,7.3,12,17.7,13.2,30.9l0,86.2c0,5,1.6,9.2,4.8,12.6c3.2,3.3,7.5,5,12.7,5c0.1,0,0.1,0,0.2,0
			l0.2,0c5,0,9.2-1.7,12.6-5C551.1,245.2,552.8,241,552.8,236z"/>
		<path class="st0" d="M500.3,304.8L500.3,304.8c-4.5-2.8-10-4.2-16.2-4.2c-6.3,0-12,1.5-17,4.3c-5,2.9-8.9,6.9-11.7,12.1
			c-2.8,5.1-4.2,11-4.2,17.4c0,6.4,1.5,12.3,4.4,17.4c2.9,5.1,7.1,9.1,12.4,12c5.2,2.9,11.2,4.3,17.8,4.3c3.7,0,7.6-0.7,11.7-2.1
			c4.1-1.4,7.5-3.2,10.2-5.3c1.5-1.1,2.3-2.6,2.3-4.4c0-1.8-0.8-3.4-2.5-4.8c-1.1-1-2.5-1.5-4.2-1.5c-1.7,0-3.3,0.5-4.5,1.5
			c-1.5,1.2-3.6,2.2-6,3c-2.4,0.8-4.8,1.2-7,1.2c-5.7,0-10.5-1.6-14.5-4.8c-3.6-2.9-5.9-6.8-6.9-11.4l43.5,0c1.8,0,3.4-0.6,4.6-1.8
			c1.2-1.2,1.9-2.7,1.9-4.5c0-6.3-1.2-12-3.6-16.9C508.4,311.5,504.9,307.6,500.3,304.8z M464.7,328.1c1-4.4,3.1-8,6.2-10.7
			c3.4-2.9,7.8-4.4,13.2-4.4c4.9,0,8.9,1.5,11.9,4.4c2.8,2.7,4.6,6.3,5.4,10.8H464.7z"/>
		<path class="st0" d="M569.5,312.7c5.4,0,10.2,1.8,14.2,5.4c2.4,2,6,1.8,8.2-0.4c1.2-1.2,1.8-2.6,1.8-4.3c0-1.9-0.7-3.4-2.1-4.7
			c-6.2-5.4-13.7-8.2-22.1-8.2c-9.3,0-17.4,3.3-24,9.9c-6.6,6.6-9.9,14.7-9.9,24s3.3,17.4,9.9,24c6.6,6.6,14.7,9.9,24,9.9
			c8.4,0,15.9-2.8,22.2-8.3c1.2-1.3,1.9-2.8,1.9-4.4c0-1.7-0.6-3.1-1.8-4.3c-2.2-2.2-5.6-2.4-8.1-0.5c-4,3.5-8.7,5.3-14.1,5.3
			c-6.1,0-11.1-2.1-15.3-6.3c-4.3-4.3-6.3-9.3-6.3-15.3c0-6.1,2.1-11.1,6.3-15.3C558.4,314.7,563.4,312.7,569.5,312.7z"/>
		<path class="st0" d="M777.2,302.2c-1.2,1.2-1.8,2.6-1.8,4.3v55.6c0,1.7,0.6,3.1,1.8,4.3c1.2,1.2,2.6,1.8,4.3,1.8s3.1-0.6,4.3-1.8
			c1.2-1.2,1.8-2.6,1.8-4.3v-55.6c0-1.7-0.6-3.1-1.8-4.3C783.4,299.8,779.6,299.8,777.2,302.2z"/>
		<path class="st0" d="M776.3,281.6c-1.4,1.4-2.1,3.2-2.1,5.1c0,2,0.7,3.7,2.1,5.1c1.4,1.4,3.1,2.1,5.1,2.1c2,0,3.7-0.7,5.1-2.1
			c1.4-1.4,2.1-3.2,2.1-5.1c0-2-0.7-3.7-2.1-5.1C783.8,278.8,779.2,278.8,776.3,281.6z"/>
		<path class="st0" d="M433.1,303.9c-4.4-2.4-9.3-3.6-14.8-3.6h-3.8c-5.5,0-10.4,1.2-14.8,3.6c-4.4,2.4-7.8,5.9-10.3,10.5
			c-2.5,4.6-3.7,10.1-3.7,16.5V362c0,1.8,0.6,3.2,1.7,4.4c1.2,1.2,2.6,1.7,4.4,1.7c1.8,0,3.2-0.6,4.4-1.7c1.2-1.2,1.7-2.6,1.7-4.4
			l0-31.2c0-6.4,1.7-11.3,5.2-14.6c3.4-3.2,7.8-4.8,13.3-4.9c4.1,0.1,7.7,1.1,10.6,2.9c0.9,0.6,2,0.9,3.2,0.9c3.3,0,6-2.7,6-6
			C436.2,306.9,434.9,304.9,433.1,303.9z"/>
		<path class="st0" d="M1127.2,304.1c-4.5-2.5-9.6-3.7-15.2-3.7h-3.9c-5.6,0-10.7,1.2-15.2,3.7c-4.5,2.5-8,6-10.5,10.7
			c-2.5,4.7-3.8,10.4-3.8,17V362c0,1.8,0.6,3.3,1.8,4.5c1.2,1.2,2.7,1.8,4.5,1.8c1.8,0,3.3-0.6,4.5-1.8c1.2-1.2,1.8-2.7,1.8-4.5
			v-30.2c0-6.6,1.8-11.6,5.3-15c3.5-3.3,8-5,13.7-5.1c5.7,0.1,10.2,1.8,13.7,5.1c3,2.9,4.7,6.9,5.2,12.2v33c0,1.8,0.6,3.3,1.7,4.5
			c1.1,1.2,2.7,1.8,4.5,1.8c0,0,0,0,0.1,0c0,0,0,0,0.1,0c1.8,0,3.3-0.6,4.5-1.8c1.2-1.2,1.8-2.7,1.8-4.5v-30.2
			c0-6.6-1.3-12.3-3.8-17C1135.2,310.2,1131.7,306.6,1127.2,304.1z"/>
		<path class="st0" d="M744,300.4C744,300.4,744,300.4,744,300.4c-0.1,0-0.1,0-0.1,0c-1.9,0-3.4,0.6-4.5,1.8
			c-1.1,1.2-1.7,2.7-1.7,4.5v33c-0.5,5.2-2.2,9.3-5.2,12.2c-3.5,3.3-8,5-13.7,5.1c-5.7-0.1-10.2-1.8-13.7-5.1
			c-3.6-3.4-5.3-8.4-5.3-15v-30.2c0-1.8-0.6-3.3-1.8-4.5c-1.2-1.2-2.7-1.8-4.5-1.8c-1.8,0-3.3,0.6-4.5,1.8c-1.2,1.2-1.8,2.7-1.8,4.5
			v30.2c0,6.6,1.3,12.3,3.8,17c2.5,4.7,6,8.3,10.5,10.7c4.5,2.5,9.6,3.7,15.2,3.7h3.9c5.6,0,10.7-1.2,15.2-3.7
			c4.5-2.5,8-6,10.5-10.7c2.5-4.7,3.8-10.4,3.8-17v-30.2c0-1.8-0.6-3.3-1.8-4.5C747.3,301,745.8,300.4,744,300.4z"/>
		<path class="st0" d="M664,304c-4.4-2.4-9.3-3.6-14.8-3.6h-3.8c-5.5,0-10.4,1.2-14.8,3.6c-4.4,2.4-7.8,5.9-10.3,10.5
			c-2.5,4.6-3.7,10.1-3.7,16.5v31.2c0,1.8,0.6,3.2,1.7,4.4c1.2,1.2,2.6,1.7,4.4,1.7c1.8,0,3.2-0.6,4.4-1.7c1.2-1.2,1.7-2.6,1.7-4.4
			V331c0-6.4,1.7-11.3,5.2-14.6c3.4-3.2,7.8-4.8,13.3-4.9c4.1,0.1,7.7,1.1,10.6,2.9c0.9,0.6,2,0.9,3.2,0.9c3.3,0,6-2.7,6-6
			C667.1,307,665.9,305.1,664,304z"/>
		<path class="st0" d="M958.6,304.9c-0.3-0.2-0.6-0.3-0.8-0.5c-0.4-0.2-0.7-0.4-1.1-0.7c-0.3-0.2-0.6-0.3-0.9-0.5
			c-0.4-0.2-0.8-0.4-1.3-0.6c-0.3-0.1-0.5-0.2-0.8-0.4c-0.7-0.3-1.3-0.5-2-0.7c-0.1,0-0.2-0.1-0.3-0.1c-0.7-0.2-1.3-0.4-2-0.5
			c-0.2-0.1-0.5-0.1-0.7-0.1c-0.6-0.1-1.1-0.2-1.7-0.2c-0.2,0-0.5-0.1-0.7-0.1c-0.8-0.1-1.6-0.1-2.5-0.1c-7.4,0-13.8,2.7-19.1,7.9
			c-0.6,0.6-1.2,1.3-1.8,2c-0.6-0.7-1.2-1.3-1.8-2c-5.2-5.2-11.7-7.9-19.1-7.9c-0.8,0-1.6,0-2.5,0.1c-0.2,0-0.5,0.1-0.7,0.1
			c-0.6,0.1-1.2,0.1-1.7,0.2c-0.2,0-0.5,0.1-0.7,0.1c-0.7,0.1-1.4,0.3-2,0.5c-0.1,0-0.2,0.1-0.3,0.1c-0.7,0.2-1.4,0.5-2,0.7
			c-0.3,0.1-0.5,0.2-0.8,0.4c-0.4,0.2-0.9,0.4-1.3,0.6c-0.3,0.2-0.6,0.3-0.9,0.5c-0.4,0.2-0.7,0.4-1.1,0.7c-0.3,0.2-0.6,0.3-0.8,0.5
			c-1.4,1-2.8,2.1-4.1,3.4c-5.2,5.2-7.9,11.7-7.9,19.1l0,34.8c0,1.7,0.6,3.1,1.8,4.3c1.2,1.2,2.6,1.8,4.3,1.8c1.7,0,3.1-0.6,4.3-1.8
			c1.2-1.2,1.8-2.6,1.8-4.3l0-34.8c0-4.1,1.4-7.5,4.3-10.4c2.9-2.9,6.3-4.3,10.4-4.3c4.1,0,7.5,1.4,10.4,4.3
			c2.9,2.9,4.3,6.3,4.3,10.4l0,34.8c0,1.7,0.6,3.1,1.8,4.3c2.4,2.4,6.3,2.4,8.6,0c1.2-1.2,1.8-2.6,1.8-4.3v-34.8
			c0-4.1,1.4-7.5,4.3-10.4c2.9-2.9,6.3-4.3,10.4-4.3c4.1,0,7.5,1.4,10.4,4.3c2.9,2.9,4.3,6.3,4.3,10.4v34.8c0,1.7,0.6,3.1,1.8,4.3
			c1.2,1.2,2.6,1.8,4.3,1.8c1.7,0,3.1-0.6,4.3-1.8c1.2-1.2,1.8-2.6,1.8-4.3v-34.8c0-7.4-2.7-13.8-7.9-19.1
			C961.4,307.1,960,305.9,958.6,304.9z"/>
		<path class="st0" d="M1041.6,304.8L1041.6,304.8c-4.5-2.8-10-4.2-16.2-4.2c-6.3,0-12,1.5-17,4.3c-5,2.9-8.9,6.9-11.7,12.1
			c-2.8,5.1-4.2,11-4.2,17.4c0,6.4,1.5,12.3,4.4,17.4c2.9,5.1,7.1,9.1,12.4,12c5.2,2.9,11.2,4.3,17.8,4.3c3.7,0,7.6-0.7,11.7-2.1
			c4.1-1.4,7.5-3.2,10.2-5.3c1.5-1.1,2.3-2.6,2.3-4.4c0-1.8-0.8-3.4-2.5-4.8c-1.1-1-2.5-1.5-4.2-1.5c-1.7,0-3.3,0.5-4.5,1.5
			c-1.5,1.2-3.6,2.2-6,3c-2.4,0.8-4.8,1.2-7,1.2c-5.7,0-10.5-1.6-14.5-4.8c-3.6-2.9-5.9-6.8-6.9-11.4l43.5,0c1.8,0,3.4-0.6,4.6-1.8
			c1.2-1.2,1.9-2.7,1.9-4.5c0-6.3-1.2-12-3.6-16.9C1049.7,311.5,1046.1,307.6,1041.6,304.8z M1006,328.1c1-4.4,3.1-8,6.2-10.7
			c3.4-2.9,7.8-4.4,13.2-4.4c4.9,0,8.9,1.5,11.9,4.4c2.8,2.7,4.6,6.3,5.4,10.8H1006z"/>
		<path class="st0" d="M846.8,355.8h-3c-5.7,0-10.3-4.6-10.3-10.3l0-32.9h7.9c3.4,0,6.2-2.8,6.2-6.2c0-3.4-2.8-6.2-6.2-6.2h-7.9
			v-21.3c0-3.4-2.8-6.2-6.2-6.2c-3.4,0-6.2,2.8-6.2,6.2v21.3h-4.6c-3.4,0-6.2,2.8-6.2,6.2c0,3.4,2.8,6.2,6.2,6.2h4.6v32.9
			c0,12.5,10.2,22.7,22.7,22.7h3c3.4,0,6.2-2.8,6.2-6.2C853,358.6,850.3,355.8,846.8,355.8z"/>
		<path class="st0" d="M1196.5,355.8h-3c-5.7,0-10.3-4.6-10.3-10.3v-32.9h7.9c3.4,0,6.2-2.8,6.2-6.2c0-3.4-2.8-6.2-6.2-6.2h-7.9
			v-21.3c0-3.4-2.8-6.2-6.2-6.2s-6.2,2.8-6.2,6.2v21.3h-4.6c-3.4,0-6.2,2.8-6.2,6.2c0,3.4,2.8,6.2,6.2,6.2h4.6v32.9
			c0,12.5,10.2,22.7,22.7,22.7h3c3.4,0,6.2-2.8,6.2-6.2C1202.7,358.6,1199.9,355.8,1196.5,355.8z"/>
	</g>
</g>
</svg>
