<?xml version="1.0" encoding="utf-8"?>
<!-- Generator: Adobe Illustrator 27.2.0, SVG Export Plug-In . SVG Version: 6.00 Build 0)  -->
<svg version="1.1" id="Layer_1" xmlns="http://www.w3.org/2000/svg" xmlns:xlink="http://www.w3.org/1999/xlink" x="0px" y="0px"
	 viewBox="0 0 481.4 214" style="enable-background:new 0 0 481.4 214;" xml:space="preserve">
<style type="text/css">
	.st0{clip-path:url(#SVGID_00000022551950323693152680000010431417972893075120_);fill:#009EC8;}
	.st1{clip-path:url(#SVGID_00000022551950323693152680000010431417972893075120_);fill:#4B5C66;}
	.st2{clip-path:url(#SVGID_00000022551950323693152680000010431417972893075120_);fill:#FFFFFF;}
	.st3{fill:#4B5C66;}
	.st4{clip-path:url(#SVGID_00000016043455329348551140000001083258036153735857_);fill:#4B5C66;}
	.st5{clip-path:url(#SVGID_00000017506855960036908710000003868888151536428968_);fill:#4B5C66;}
</style>
<g>
	<defs>
		<rect id="SVGID_1_" width="481.4" height="214"/>
	</defs>
	<clipPath id="SVGID_00000052099028343242696740000007307132851938565549_">
		<use xlink:href="#SVGID_1_"  style="overflow:visible;"/>
	</clipPath>
	<path style="clip-path:url(#SVGID_00000052099028343242696740000007307132851938565549_);fill:#009EC8;" d="M298.5,67.8
		c-16.8,11.2-26,17.4-31.6,20.1c-9.2,4.3-18.3,6.5-26.3,6.5c-5.1,0-9.8-0.9-13.8-2.7c-6-2.7-10.4-7.4-12.6-13.7
		c-0.7-1.9-6-19.3,20.1-31.3c0.5-0.2,1.1-0.5,1.6-0.7c-1.5-0.3-3.2-0.5-5.3-0.8c-22.9-2.1-37.6,3.7-54.1,21.3v23.7
		c0,5.3,1,10.3,3,15c2,4.7,4.8,8.8,8.3,12.3c3.5,3.5,7.6,6.2,12.3,8.3c4.7,2,9.7,3,15,3h89.9V63.4C302.7,65,300.5,66.4,298.5,67.8"
		/>
	<path style="clip-path:url(#SVGID_00000052099028343242696740000007307132851938565549_);fill:#4B5C66;" d="M231,41
		c6.2,0.8,8.9,1.3,13.3,2.7l6.9,2.2l-7,1.8c-3.1,0.8-5.6,1.5-8.2,2.7c-22.3,10.3-18.8,23.5-17.9,26.1c1.9,5.2,5.4,9.1,10.4,11.3
		c9.3,4.1,22.7,2.7,36.6-3.8c5.3-2.5,15-9,31.1-19.7c2.7-1.8,5.7-3.8,8.8-5.9V38.9c0-5.3-1-10.3-3-15c-2-4.7-4.8-8.9-8.3-12.5
		c-3.5-3.6-7.6-6.4-12.2-8.4c-4.7-2-9.7-3-15.1-3h-89.9v60.5C192.6,44.4,208.3,38.9,231,41"/>
	<path style="clip-path:url(#SVGID_00000052099028343242696740000007307132851938565549_);fill:#FFFFFF;" d="M286.4,27.8l-1.4,0
		c-0.3,0-0.5,0-1,0c-1.2,0.1-3.7,0.3-3.7,0.3c-4.7,1-6.2,3.6-6.7,6.8c-0.2,1.1-0.2,2.2-0.3,3.4c0,0.5,0,0.7,0,1l0,1.2h-0.1l0-1.2
		c0-0.3,0-0.5,0-1c-0.1-1.2-0.1-2.3-0.3-3.4c-0.5-3.1-2-5.8-6.7-6.8c0,0-2.4-0.3-3.7-0.3c-0.5,0-0.7,0-1,0l-1.4,0v-0.1l1.4,0
		c0.3,0,0.5,0,1,0c1.2-0.1,3.7-0.3,3.7-0.3c4.7-1,6.2-3.7,6.7-6.8c0.2-1.1,0.2-2.2,0.3-3.4c0-0.5,0-0.7,0-1l0-1.2h0.1l0,1.2
		c0,0.3,0,0.5,0,1c0.1,1.2,0.1,2.3,0.3,3.4c0.5,3.1,2,5.8,6.7,6.8c0,0,2.5,0.3,3.7,0.3c0.5,0,0.7,0,1,0l1.4,0V27.8z"/>
	<path style="clip-path:url(#SVGID_00000052099028343242696740000007307132851938565549_);fill:#4B5C66;" d="M37.1,169.2
		c-1.1-1.1-2.4-2-3.9-2.6c-1.5-0.6-3.1-1-4.7-1H0V214h12.1v-36.2h11.7c1.6,0,2.7,0.4,3.5,1.2c0.7,0.8,1.1,2,1.2,3.4V214h12.1v-36.2
		c0-1.7-0.3-3.2-0.9-4.7C39,171.6,38.2,170.3,37.1,169.2"/>
	<path style="clip-path:url(#SVGID_00000052099028343242696740000007307132851938565549_);fill:#4B5C66;" d="M86.4,201.8H74.7
		c-1.9,0-3.1-0.4-3.7-1.2c-0.6-0.8-0.9-2-0.9-3.4v-19.3h11.7c1.2,0,2.1,0.3,2.7,0.8c0.6,0.5,1.1,1,1.4,1.6c0.3,0.7,0.5,1.5,0.6,2.3
		V201.8z M94.9,169.2c-1.1-1.1-2.4-2-3.9-2.6c-1.5-0.6-3.1-1-4.8-1H57.9v36.2c0,1.7,0.3,3.3,1,4.8c0.6,1.5,1.5,2.8,2.6,3.9
		c1.1,1.1,2.4,2,3.9,2.6c1.5,0.6,3.1,1,4.8,1h28.4v-36.1c0-1.7-0.3-3.2-1-4.7C96.9,171.6,96,170.3,94.9,169.2"/>
</g>
<polygon class="st3" points="171.1,165.5 171.1,177.7 184.3,177.7 184.3,214 196.5,214 196.5,177.7 209.6,177.7 209.6,165.5 "/>
<polygon class="st3" points="251.5,165.6 251.5,186.2 237.2,186.2 237.2,165.6 225.1,165.6 225.1,214 237.2,214 237.2,197.5 
	251.5,197.5 251.5,214 263.6,214 263.6,165.6 "/>
<polygon class="st3" points="310.3,165.6 310.3,198.8 301.5,192.2 292.7,198.8 292.7,165.6 280.5,165.6 280.5,214 291.3,214 
	301.5,205.9 311.8,214 322.6,214 322.6,165.6 "/>
<g>
	<defs>
		<rect id="SVGID_00000106114382325508115910000006889683754536752562_" width="481.4" height="214"/>
	</defs>
	<clipPath id="SVGID_00000142145740682295734170000010552838673492492928_">
		<use xlink:href="#SVGID_00000106114382325508115910000006889683754536752562_"  style="overflow:visible;"/>
	</clipPath>
	<path style="clip-path:url(#SVGID_00000142145740682295734170000010552838673492492928_);fill:#4B5C66;" d="M368,186.2h-16.3v-8.4
		h11.7c1.6,0,2.7,0.4,3.5,1.2c0.7,0.8,1.1,2,1.2,3.4V186.2z M376.6,169.2c-1.1-1.1-2.4-2-3.9-2.6c-1.5-0.6-3.1-1-4.7-1h-28.4V214
		h12.2v-16.6H368V214h12.1v-36.2c0-1.7-0.3-3.2-1-4.7C378.6,171.6,377.7,170.3,376.6,169.2"/>
</g>
<polygon class="st3" points="418.4,165.6 411.5,196 404.8,165.6 392,165.6 405.4,214 417.7,214 431.2,165.6 "/>
<polygon class="st3" points="446.7,165.6 446.7,214 481.3,214 481.3,201.8 458.9,201.8 458.9,195.2 476.6,195.2 476.6,184.4 
	458.9,184.4 458.9,177.8 481.4,177.8 481.4,165.6 "/>
<g>
	<defs>
		<rect id="SVGID_00000139975884007944504730000014659467243461397120_" width="481.4" height="214"/>
	</defs>
	<clipPath id="SVGID_00000103239886551701378430000008932070190448437690_">
		<use xlink:href="#SVGID_00000139975884007944504730000014659467243461397120_"  style="overflow:visible;"/>
	</clipPath>
	<path style="clip-path:url(#SVGID_00000103239886551701378430000008932070190448437690_);fill:#4B5C66;" d="M145.3,186h-16.3v-8.4
		h11.7c1.6,0,2.7,0.4,3.5,1.2c0.7,0.8,1.1,1.9,1.2,3.4V186z M156,173.1c-0.6-1.5-1.5-2.8-2.6-3.9c-1.1-1.1-2.4-2-3.9-2.6
		c-1.5-0.6-3.1-1-4.8-1h-2.2h-6.1h-19.3V214h12.2v-16.6h9.2l5.4,16.6H157l-6-17.5c1.8-1.1,3.2-2.5,4.3-4.4c1.1-1.9,1.7-3.9,1.7-6.1
		v-4.4v-3.8v-0.6h-0.1C156.9,175.7,156.6,174.4,156,173.1"/>
</g>
</svg>
