<?xml version="1.0" encoding="utf-8"?>
<!-- Generator: Adobe Illustrator 27.2.0, SVG Export Plug-In . SVG Version: 6.00 Build 0)  -->
<svg version="1.1" id="Layer_1" xmlns="http://www.w3.org/2000/svg" xmlns:xlink="http://www.w3.org/1999/xlink" x="0px" y="0px"
	 viewBox="0 0 980.7 516.2" style="enable-background:new 0 0 980.7 516.2;" xml:space="preserve">
<g>
	<path d="M173.8,57.8c-0.4,0-0.8,0-1.2,0c-81.9,0-153.1,81.5-169.7,194.3c-8.4,57.5,1.8,107.4,28.9,140.6
		c21,25.7,50.8,40.4,86.1,42.3c1.6,0.1,3.3,0.1,4.9,0.1c74,0,148.5-92.3,157.9-197.5C286.1,177,272,123.2,242,90.1
		C223.1,69.2,199.5,58.1,173.8,57.8z M228.3,233.1c-7.3,81.9-66.3,151.7-107.5,149.6c-20.5-1.2-36.7-8.9-48.3-23.1
		c-17.6-21.6-23.9-57-17.7-99.7c12.5-85.4,63-149.4,117.7-149.4c0.2,0,0.5,0,0.7,0c10.9,0.1,20.9,5.1,29.8,15
		C222.9,147.3,232.4,187.6,228.3,233.1z"/>
	<path d="M969.1,128.6c-10.4-5.1-22.9-0.8-28,9.5c0,0-2.2,4.6-6.2,12.5c-2,3.9-4.3,9.1-7,15c-2.8,5.9-5.6,12.5-8.7,19.7
		c-6.1,14.2-12.8,30.9-19.5,48.9c-4.1,8.1-10.7,19-19.9,30.5c-4.7,5.8-10.2,11.8-16.5,17.1c-6.2,5.3-13.2,10-20.3,12.9
		c-7,3-13.7,3.7-18.5,2.6l-0.4-0.1l-1-0.3l-2-0.5l-1.7-0.7c-1.4-0.6-2.6-1.2-3.4-1.9c-1.7-1.3-2.3-2.2-3.1-3.9
		c-1.7-3.2-2.6-11.4-2.1-20.2c0.7-8.9,2.3-18.6,4.2-28.1c4-19.1,9.9-37.2,14.7-52.8c5-15.6,9.1-28.8,12-38.1
		c2.8-9.3,4.2-14.7,4.2-14.7l0-0.2c2.3-8.8-1.6-18.4-10-22.9c-9.8-5.3-22-1.6-27.3,8.2c0,0-2.7,5-7.1,14.1c-2,4.6-4.5,10.1-7.4,16.5
		c-2.8,6.4-5.5,13.8-8.6,21.9c-3.1,8.1-6,17.1-8.9,26.7c-2.9,9.7-5.8,20-8.3,31.1c-2.1,9.2-3.8,19.1-4.5,29.7
		c-0.2,0.4-0.4,0.6-0.6,1c-0.9,1.1-1.8,2.3-2.8,3.7c-1.2,1.3-2.5,2.7-3.8,4.2c-3,2.8-6.4,6.2-10.7,9.3c-4.2,3.2-9.1,6.4-14.5,9.2
		c-5.3,3-11.3,5.5-17.3,7.4c-1.5,0.5-3,1-4.6,1.3c-1.5,0.3-3.2,0.9-4.3,1l-1.8,0.3c-0.6,0.1-1.2,0.3-2.4,0.3l-3.1,0.3l-1.2,0.1
		l-0.1,0l-0.6,0c-6,0.2-12-0.6-17.8-2.5c-5.8-1.9-11.6-4.8-17-8.6c-5.5-3.7-10.4-8.3-15.3-13.1c-9.1-9.1-16.5-19.5-22.5-28.9
		c10.6,1,24,0.9,39-2.7c20-4.6,42.4-16.6,58.7-36.5c8.1-9.9,14.9-21.6,18.8-35.3c1.9-6.8,3.1-14.2,2.9-22
		c-0.2-7.8-1.9-16.3-6.3-24.3c-2.2-4-5-7.7-8.3-10.9c-1.7-1.6-3.3-3-5.7-4.6c-1.3-1-1.6-1-2.3-1.5l-1.6-0.9l-1.3-0.7
		c-6.8-3.6-14.7-6-22.4-6.6c-15.6-1.3-29.1,3.4-40,8.9c-11,5.6-20,12.4-27.9,19.1c-7.9,6.8-14.7,13.6-20.7,20.1
		c-3.1,3.4-6,6.7-8.7,9.9l21.4-130.9c2-12.5-6.3-24.4-18.8-26.7c-12.7-2.3-24.8,6.1-27.1,18.7l0,0.2l-45.1,245.5
		c-0.1,0.2-0.2,0.4-0.3,0.6c0,0-1.5,3.1-4.4,8.2c-2.9,5.1-7.4,12.2-13.8,19.4c-6.3,7-15,14.3-24,17.2c-4.4,1.5-8.5,1.7-11.3,0.8
		c-2.9-0.9-4.7-2.2-7.1-5.7c-0.3-0.3-1-2-1.5-2.9c-0.6-1.1-0.8-2.1-1.3-3.2c-0.7-2.1-1.1-4.2-1.3-6.3c-0.4-4.4,0.2-9.8,1.4-15.6
		c1.2-5.8,2.9-11.8,4.8-17.6c1.8-5.8,3.8-11.5,5.6-16.7c7.6-21.3,12.6-35.5,12.6-35.5c0.3-0.9,0.6-1.8,0.8-2.7
		c2.9-12.6-4.6-25.1-16.8-28.8c-6.8-23.9-20.8-42.6-40-50.4c-20.6-8.4-41.7-7.7-61.1,2c-29.6,14.9-52.8,50.3-65.3,99.7
		c-12.8,50.3-8.8,93.3,10.8,117.9c11.4,14.4,27.3,21.9,46,21.9c0.5,0,1,0,1.5,0c25.5-0.6,50.2-17.1,70.3-44.5c1,1.5,1.9,3,3.4,5
		c6.3,8.8,17.5,16.8,29.2,19c11.7,2.5,22.6,0.3,31.4-3c8.9-3.4,16.1-8.1,22.2-13c0.2-0.1,0.3-0.3,0.4-0.4
		c3.3,8.3,10.7,14.8,20.1,16.3c14.3,2.3,27.8-7.4,30.2-21.7l0-0.2l11.1-68.2c1.6,3.1,3.2,6.2,5.1,9.6c7,11.9,16.1,25.4,28.6,38.6
		c6.2,6.6,13.6,12.8,21.9,18.5c8.3,5.6,17.8,10.4,28.1,13.5c10.3,3.2,21.3,4.6,31.9,4l1,0l1.4-0.1l0.4,0l1.5-0.2l3.1-0.4
		c0.9-0.1,2.3-0.3,3.7-0.6l4.2-0.8c2.9-0.5,5.1-1.3,7.5-1.9c2.4-0.6,4.6-1.4,6.9-2.3c17.8-6.7,31.9-16.4,42.7-26.5
		c0.1-0.1,0.2-0.2,0.3-0.3c0.8,1.8,1.8,3.6,2.8,5.5c4.7,8.1,12.3,15.5,20.3,19.7c4,2.3,8,3.7,11.8,5c2,0.6,4.2,1.1,6.3,1.7l4.9,0.9
		c17.1,2.8,32.6-1.8,44.4-7.9c3.1-1.6,6-3.3,8.8-5.1c-7.7,27.8-13.9,54.8-17.3,77.4c-1.4,7.9-2,15.6-2.8,22.3
		c-0.6,6.8-0.7,13.1-0.9,18.1c0,5.2,0.4,9.7,0.5,12.6c0.2,2.9,0.3,4.5,0.3,4.5c0,0.1,0,0.3,0,0.3c1,14.5,13.6,25.3,28.1,24.3
		c14.5-1,25.3-13.6,24.3-28.1l-0.2-3.2c0,0-0.1-1-0.2-2.8c-0.1-1.9-0.5-4.4-0.6-8c0.1-3.9-0.1-8.4,0.3-14c0.5-5.7,0.7-11.9,1.8-19.1
		c3.3-28.4,11.6-67.3,22.4-105.6c10.6-38.4,23.6-76.2,34.4-104c2.7-7,5.2-13.3,7.5-18.7c2.3-5.5,4.2-10.2,6.1-14.3
		c3.7-8.1,5.8-12.7,5.8-12.7C983.5,145.7,979.2,133.6,969.1,128.6z M362.5,321.9c-5.1,0-8.4-1.3-11.2-4.9
		c-8.4-10.6-12.5-39.1-2.4-78.8c9-35.5,24.7-61.8,41.9-70.5c4-2,8-3,12.1-3c3.7,0,7.5,0.8,11.6,2.5c7.3,3,17.2,20.2,16.7,45.5
		c-0.4,1.1-0.7,2.2-1,3.4C417.1,280.8,384.9,321.5,362.5,321.9z M627.5,168.3c5.7-5.5,12.1-11.2,19.1-16.5
		c7-5.3,14.7-10.3,22.6-13.7c7.9-3.5,15.9-5.2,22.4-4.1c3.3,0.5,6.2,1.6,9.1,3.4l0.3,0.2l0.1,0l0.4,0.3c0.5,0.3,1.4,0.9,1.2,0.9
		c-0.1,0,0.4,0.4,0.7,0.8c0.6,0.7,1.1,1.5,1.6,2.5c1.9,3.7,1.8,11.2-0.8,18.6c-2.5,7.4-7.1,14.6-12.6,20.6
		c-11,12.1-25.3,18.7-37.9,20.9c-12.7,2.3-23.9,0.8-31.7-0.8c-3.9-0.8-6.9-1.7-9-2.4c-2.1-0.7-3.2-1-3.2-1l-0.6-0.2
		c-0.3-0.1-0.7-0.2-1-0.3c-2.1-0.6-4.1-0.7-6.2-0.7C607.7,189.3,616.3,179.2,627.5,168.3z"/>
	<path d="M690.3,430.7c0,0-5.8-0.3-16-0.8c-5.1-0.3-11.3-0.6-18.4-0.8c-7.1-0.2-15.1-0.6-23.8-0.6c-8.7,0-18.2-0.3-28.2,0
		c-10,0.1-20.6,0.3-31.5,0.7c-21.9,0.7-45.2,2.1-68.4,4.3c-46.5,4-92.8,11.3-127.3,18.1c-8.6,1.8-16.5,3.3-23.6,4.9
		c-7,1.6-13.1,3-18.1,4.1c-9.8,2.4-15.3,3.7-15.3,3.7c-0.4,0.1-0.9,0.2-1.2,0.3c-13.9,4.1-21.9,18.7-17.8,32.6
		c4.1,13.9,18.7,21.9,32.6,17.8c0,0,5.5-1.6,15.1-4.4c4.9-1.5,10.4-2.9,17-4.7c6.5-1.8,14-3.6,22.2-5.8
		c32.7-8.1,76.8-17.3,121.5-23.4c22.3-3.2,44.7-5.6,65.8-7.4c10.5-0.9,20.7-1.6,30.4-2.2c9.7-0.7,18.9-0.9,27.3-1.3
		c8.5-0.4,16.2-0.4,23.1-0.6c6.9-0.2,12.9-0.2,17.8-0.1c9.9,0,15.5,0,15.5,0l0.4,0c9.1,0,16.8-7.2,17.3-16.4
		C707.1,439.3,699.8,431.2,690.3,430.7z"/>
</g>
<g>
	<path d="M173.8,57.8c-0.4,0-0.8,0-1.2,0c-81.9,0-153.1,81.5-169.7,194.3c-8.4,57.5,1.8,107.4,28.9,140.6
		c21,25.7,50.8,40.4,86.1,42.3c1.6,0.1,3.3,0.1,4.9,0.1c74,0,148.5-92.3,157.9-197.5C286.1,177,272,123.2,242,90.1
		C223.1,69.2,199.5,58.1,173.8,57.8z M228.3,233.1c-7.3,81.9-66.3,151.7-107.5,149.6c-20.5-1.2-36.7-8.9-48.3-23.1
		c-17.6-21.6-23.9-57-17.7-99.7c12.5-85.4,63-149.4,117.7-149.4c0.2,0,0.5,0,0.7,0c10.9,0.1,20.9,5.1,29.8,15
		C222.9,147.3,232.4,187.6,228.3,233.1z"/>
	<path d="M969.1,128.6c-10.4-5.1-22.9-0.8-28,9.5c0,0-2.2,4.6-6.2,12.5c-2,3.9-4.3,9.1-7,15c-2.8,5.9-5.6,12.5-8.7,19.7
		c-6.1,14.2-12.8,30.9-19.5,48.9c-4.1,8.1-10.7,19-19.9,30.5c-4.7,5.8-10.2,11.8-16.5,17.1c-6.2,5.3-13.2,10-20.3,12.9
		c-7,3-13.7,3.7-18.5,2.6l-0.4-0.1l-1-0.3l-2-0.5l-1.7-0.7c-1.4-0.6-2.6-1.2-3.4-1.9c-1.7-1.3-2.3-2.2-3.1-3.9
		c-1.7-3.2-2.6-11.4-2.1-20.2c0.7-8.9,2.3-18.6,4.2-28.1c4-19.1,9.9-37.2,14.7-52.8c5-15.6,9.1-28.8,12-38.1
		c2.8-9.3,4.2-14.7,4.2-14.7l0-0.2c2.3-8.8-1.6-18.4-10-22.9c-9.8-5.3-22-1.6-27.3,8.2c0,0-2.7,5-7.1,14.1c-2,4.6-4.5,10.1-7.4,16.5
		c-2.8,6.4-5.5,13.8-8.6,21.9c-3.1,8.1-6,17.1-8.9,26.7c-2.9,9.7-5.8,20-8.3,31.1c-2.1,9.2-3.8,19.1-4.5,29.7
		c-0.2,0.4-0.4,0.6-0.6,1c-0.9,1.1-1.8,2.3-2.8,3.7c-1.2,1.3-2.5,2.7-3.8,4.2c-3,2.8-6.4,6.2-10.7,9.3c-4.2,3.2-9.1,6.4-14.5,9.2
		c-5.3,3-11.3,5.5-17.3,7.4c-1.5,0.5-3,1-4.6,1.3c-1.5,0.3-3.2,0.9-4.3,1l-1.8,0.3c-0.6,0.1-1.2,0.3-2.4,0.3l-3.1,0.3l-1.2,0.1
		l-0.1,0l-0.6,0c-6,0.2-12-0.6-17.8-2.5c-5.8-1.9-11.6-4.8-17-8.6c-5.5-3.7-10.4-8.3-15.3-13.1c-9.1-9.1-16.5-19.5-22.5-28.9
		c10.6,1,24,0.9,39-2.7c20-4.6,42.4-16.6,58.7-36.5c8.1-9.9,14.9-21.6,18.8-35.3c1.9-6.8,3.1-14.2,2.9-22
		c-0.2-7.8-1.9-16.3-6.3-24.3c-2.2-4-5-7.7-8.3-10.9c-1.7-1.6-3.3-3-5.7-4.6c-1.3-1-1.6-1-2.3-1.5l-1.6-0.9l-1.3-0.7
		c-6.8-3.6-14.7-6-22.4-6.6c-15.6-1.3-29.1,3.4-40,8.9c-11,5.6-20,12.4-27.9,19.1c-7.9,6.8-14.7,13.6-20.7,20.1
		c-3.1,3.4-6,6.7-8.7,9.9l21.4-130.9c2-12.5-6.3-24.4-18.8-26.7c-12.7-2.3-24.8,6.1-27.1,18.7l0,0.2l-45.1,245.5
		c-0.1,0.2-0.2,0.4-0.3,0.6c0,0-1.5,3.1-4.4,8.2c-2.9,5.1-7.4,12.2-13.8,19.4c-6.3,7-15,14.3-24,17.2c-4.4,1.5-8.5,1.7-11.3,0.8
		c-2.9-0.9-4.7-2.2-7.1-5.7c-0.3-0.3-1-2-1.5-2.9c-0.6-1.1-0.8-2.1-1.3-3.2c-0.7-2.1-1.1-4.2-1.3-6.3c-0.4-4.4,0.2-9.8,1.4-15.6
		c1.2-5.8,2.9-11.8,4.8-17.6c1.8-5.8,3.8-11.5,5.6-16.7c7.6-21.3,12.6-35.5,12.6-35.5c0.3-0.9,0.6-1.8,0.8-2.7
		c2.9-12.6-4.6-25.1-16.8-28.8c-6.8-23.9-20.8-42.6-40-50.4c-20.6-8.4-41.7-7.7-61.1,2c-29.6,14.9-52.8,50.3-65.3,99.7
		c-12.8,50.3-8.8,93.3,10.8,117.9c11.4,14.4,27.3,21.9,46,21.9c0.5,0,1,0,1.5,0c25.5-0.6,50.2-17.1,70.3-44.5c1,1.5,1.9,3,3.4,5
		c6.3,8.8,17.5,16.8,29.2,19c11.7,2.5,22.6,0.3,31.4-3c8.9-3.4,16.1-8.1,22.2-13c0.2-0.1,0.3-0.3,0.4-0.4
		c3.3,8.3,10.7,14.8,20.1,16.3c14.3,2.3,27.8-7.4,30.2-21.7l0-0.2l11.1-68.2c1.6,3.1,3.2,6.2,5.1,9.6c7,11.9,16.1,25.4,28.6,38.6
		c6.2,6.6,13.6,12.8,21.9,18.5c8.3,5.6,17.8,10.4,28.1,13.5c10.3,3.2,21.3,4.6,31.9,4l1,0l1.4-0.1l0.4,0l1.5-0.2l3.1-0.4
		c0.9-0.1,2.3-0.3,3.7-0.6l4.2-0.8c2.9-0.5,5.1-1.3,7.5-1.9c2.4-0.6,4.6-1.4,6.9-2.3c17.8-6.7,31.9-16.4,42.7-26.5
		c0.1-0.1,0.2-0.2,0.3-0.3c0.8,1.8,1.8,3.6,2.8,5.5c4.7,8.1,12.3,15.5,20.3,19.7c4,2.3,8,3.7,11.8,5c2,0.6,4.2,1.1,6.3,1.7l4.9,0.9
		c17.1,2.8,32.6-1.8,44.4-7.9c3.1-1.6,6-3.3,8.8-5.1c-7.7,27.8-13.9,54.8-17.3,77.4c-1.4,7.9-2,15.6-2.8,22.3
		c-0.6,6.8-0.7,13.1-0.9,18.1c0,5.2,0.4,9.7,0.5,12.6c0.2,2.9,0.3,4.5,0.3,4.5c0,0.1,0,0.3,0,0.3c1,14.5,13.6,25.3,28.1,24.3
		c14.5-1,25.3-13.6,24.3-28.1l-0.2-3.2c0,0-0.1-1-0.2-2.8c-0.1-1.9-0.5-4.4-0.6-8c0.1-3.9-0.1-8.4,0.3-14c0.5-5.7,0.7-11.9,1.8-19.1
		c3.3-28.4,11.6-67.3,22.4-105.6c10.6-38.4,23.6-76.2,34.4-104c2.7-7,5.2-13.3,7.5-18.7c2.3-5.5,4.2-10.2,6.1-14.3
		c3.7-8.1,5.8-12.7,5.8-12.7C983.5,145.7,979.2,133.6,969.1,128.6z M362.5,321.9c-5.1,0-8.4-1.3-11.2-4.9
		c-8.4-10.6-12.5-39.1-2.4-78.8c9-35.5,24.7-61.8,41.9-70.5c4-2,8-3,12.1-3c3.7,0,7.5,0.8,11.6,2.5c7.3,3,17.2,20.2,16.7,45.5
		c-0.4,1.1-0.7,2.2-1,3.4C417.1,280.8,384.9,321.5,362.5,321.9z M627.5,168.3c5.7-5.5,12.1-11.2,19.1-16.5
		c7-5.3,14.7-10.3,22.6-13.7c7.9-3.5,15.9-5.2,22.4-4.1c3.3,0.5,6.2,1.6,9.1,3.4l0.3,0.2l0.1,0l0.4,0.3c0.5,0.3,1.4,0.9,1.2,0.9
		c-0.1,0,0.4,0.4,0.7,0.8c0.6,0.7,1.1,1.5,1.6,2.5c1.9,3.7,1.8,11.2-0.8,18.6c-2.5,7.4-7.1,14.6-12.6,20.6
		c-11,12.1-25.3,18.7-37.9,20.9c-12.7,2.3-23.9,0.8-31.7-0.8c-3.9-0.8-6.9-1.7-9-2.4c-2.1-0.7-3.2-1-3.2-1l-0.6-0.2
		c-0.3-0.1-0.7-0.2-1-0.3c-2.1-0.6-4.1-0.7-6.2-0.7C607.7,189.3,616.3,179.2,627.5,168.3z"/>
	<path d="M690.3,430.7c0,0-5.8-0.3-16-0.8c-5.1-0.3-11.3-0.6-18.4-0.8c-7.1-0.2-15.1-0.6-23.8-0.6c-8.7,0-18.2-0.3-28.2,0
		c-10,0.1-20.6,0.3-31.5,0.7c-21.9,0.7-45.2,2.1-68.4,4.3c-46.5,4-92.8,11.3-127.3,18.1c-8.6,1.8-16.5,3.3-23.6,4.9
		c-7,1.6-13.1,3-18.1,4.1c-9.8,2.4-15.3,3.7-15.3,3.7c-0.4,0.1-0.9,0.2-1.2,0.3c-13.9,4.1-21.9,18.7-17.8,32.6
		c4.1,13.9,18.7,21.9,32.6,17.8c0,0,5.5-1.6,15.1-4.4c4.9-1.5,10.4-2.9,17-4.7c6.5-1.8,14-3.6,22.2-5.8
		c32.7-8.1,76.8-17.3,121.5-23.4c22.3-3.2,44.7-5.6,65.8-7.4c10.5-0.9,20.7-1.6,30.4-2.2c9.7-0.7,18.9-0.9,27.3-1.3
		c8.5-0.4,16.2-0.4,23.1-0.6c6.9-0.2,12.9-0.2,17.8-0.1c9.9,0,15.5,0,15.5,0l0.4,0c9.1,0,16.8-7.2,17.3-16.4
		C707.1,439.3,699.8,431.2,690.3,430.7z"/>
</g>
</svg>
