<?xml version="1.0" encoding="utf-8"?>
<!-- Generator: Adobe Illustrator 27.2.0, SVG Export Plug-In . SVG Version: 6.00 Build 0)  -->
<svg version="1.1" id="Laag_1" xmlns="http://www.w3.org/2000/svg" xmlns:xlink="http://www.w3.org/1999/xlink" x="0px" y="0px"
	 viewBox="0 0 643.8 401.7" style="enable-background:new 0 0 643.8 401.7;" xml:space="preserve">
<style type="text/css">
	.st0{fill:#EA4C5F;}
</style>
<g id="RecruitNow_koraal_rood_border_CMYK_00000096054440825747202630000013232941767149474183_">
	<g id="outline_00000169548388492291060250000001041977701158364550_">
		<path class="st0" d="M624.2,10.6c4.5,0,8.2,3.6,8.9,8.5v217.7c0,5.3-2.4,10.7-6.3,14.3l-0.2,0.2l-0.2,0.2L493.7,384.2
			c-6,5.5-8.6,6.8-13.7,6.8H19.6c-4.9,0-8.9-4-8.9-8.9V163.8c0-5.7,3.6-10.5,6.7-13.6L150.2,17.3c4.5-4.5,9.2-6.7,14.6-6.7H624.2
			 M624.2,0H164.8c-9.3,0-16.5,4.1-22.1,9.8L9.8,142.7C4.1,148.3,0,155.5,0,163.8v218.4c0,10.8,8.8,19.6,19.6,19.6H480
			c9.3,0,14.4-3.6,21.1-9.8L634,259c6.2-5.7,9.8-13.9,9.8-22.1V18.5C642.7,8.2,634.5,0,624.2,0L624.2,0z"/>
	</g>
	<path id="recruitnow_00000139281859180874835930000011500484008466848909_" class="st0" d="M71.3,309.1c0.2,0,0.5,0.1,1.1,0.1v13.7
		c-0.8-0.1-1.6-0.1-2.2-0.2c-0.7-0.1-1.2-0.1-1.6-0.1c-5.4,0-8.9,1.8-10.8,5.2c-1,2-1.6,5-1.6,9.1v24.3H42.8v-50.9h12.7v8.9
		c2.1-3.4,3.9-5.7,5.4-7c2.5-2.1,5.7-3.1,9.7-3.1C70.9,309.1,71.1,309.1,71.3,309.1z M110.9,311.3c3.6,1.6,6.7,4.2,8.8,7.5
		c2.2,3.1,3.5,6.7,4,10.5c0.4,3.3,0.5,6.7,0.5,10.1H87.1c0.2,5.1,2,8.7,5.4,10.7c2.2,1.3,4.8,2,7.3,1.9c3,0,5.5-0.8,7.4-2.4
		c1.1-1,2.1-2.2,2.7-3.5h13.6c-0.3,3-2,6.1-5,9.2c-4.6,5-11,7.4-19.1,7.4c-6.5,0.1-12.9-2.2-17.9-6.3c-5.2-4.2-7.8-11-7.8-20.4
		c0-8.8,2.4-15.5,7-20.2c4.7-4.7,10.7-7.1,18.2-7.1C103,308.9,107.1,309.7,110.9,311.3L110.9,311.3z M91,322.8
		c-1.9,2-3.1,4.6-3.5,7.9h22.9c-0.3-3.5-1.4-6.2-3.5-8c-2.2-1.8-5-2.8-7.9-2.7C95.5,320,92.9,320.9,91,322.8z M161.3,328.5
		c-0.2-1.8-0.9-3.6-1.9-5.2c-1.5-2-3.9-3.1-7-3.1c-4.5,0-7.6,2.2-9.2,6.7c-0.8,2.4-1.3,5.5-1.3,9.4c0,3.7,0.5,6.7,1.3,9
		c1.6,4.2,4.6,6.3,9,6.3c3.1,0,5.4-0.8,6.7-2.5c1.4-1.9,2.2-4.2,2.4-6.5h13.6c-0.3,4.2-1.9,8.2-4.4,11.5c-4.2,5.8-10.4,8.8-18.5,8.8
		s-14.2-2.4-18.1-7.3c-3.9-4.8-5.8-11.2-5.8-18.9c0-8.8,2.2-15.5,6.4-20.4c4.2-4.8,10.1-7.3,17.6-7.3c6.4,0,11.6,1.4,15.7,4.3
		c4,2.9,6.5,7.9,7.3,15.2H161.3L161.3,328.5z M207.4,309.1c0.2,0,0.5,0.1,1.2,0.1v13.7c-0.8-0.1-1.6-0.1-2.2-0.2s-1.2-0.1-1.6-0.1
		c-5.4,0-8.9,1.8-10.8,5.2c-1,2-1.6,5-1.6,9.1v24.3H179v-50.9h12.7v8.9c2-3.4,3.9-5.7,5.4-7c2.5-2.1,5.7-3.1,9.7-3.1
		C207,309.1,207.2,309.1,207.4,309.1L207.4,309.1z M227.2,310.3V341c0,2.9,0.3,5.1,1,6.5c1.2,2.6,3.6,3.9,7.1,3.9
		c4.5,0,7.6-1.8,9.3-5.5c0.8-2,1.3-4.6,1.3-7.9v-27.7h13.5v50.9h-12.9V354c-0.1,0.1-0.5,0.7-0.9,1.4c-0.5,0.8-1.1,1.4-1.8,2
		c-1.8,1.6-3.8,2.9-6,3.9c-2.2,0.7-4.5,1-6.8,1c-7.5,0-12.5-2.7-15.2-8.1c-1.4-3-2.2-7.4-2.2-13.2v-30.7H227.2z M279.1,304.2h-13.5
		v-12.3h13.5V304.2z M265.6,310.3h13.5v50.9h-13.5L265.6,310.3L265.6,310.3z M283.7,320.2v-9.5h7.1v-14.2h13.2v14.2h8.3v9.5h-8.3
		v26.9c0,2.1,0.3,3.4,0.8,3.9s2.2,0.8,4.8,0.8c0.4,0,0.8,0,1.3,0c0.5,0,0.9-0.1,1.3-0.1v9.9l-6.3,0.3c-6.3,0.2-10.6-0.8-12.9-3.3
		c-1.5-1.5-2.2-3.9-2.2-7.1v-31.4L283.7,320.2L283.7,320.2z M327.4,361.2h-5.7v-49.5h5.7v6.9c2.1-2.3,4.5-4.2,7.1-5.9
		c2.7-1.6,5.7-2.4,8.8-2.3c2.9,0,5.8,0.5,8.5,1.6c2.7,1.1,5,3.1,6.6,5.5c1.2,1.6,1.9,3.5,2.2,5.5c0.2,2,0.3,3.9,0.3,5.9v32.5h-5.7
		v-32.3c0-4.4-1-7.8-2.9-10.1s-5.3-3.3-9.9-3.3c-1.6,0-3.3,0.3-4.9,0.8c-1.4,0.5-2.7,1.2-4,2.2c-1.2,0.8-2.2,1.9-3,3.1
		c-0.8,1.1-1.4,2.4-1.9,3.7c-0.5,1.5-0.9,3-1,4.6c-0.1,1.4-0.2,3.1-0.2,4.8L327.4,361.2L327.4,361.2z M388.7,362.5
		c-3.1-0.1-6.1-0.7-8.9-1.7c-2.7-1-5.2-2.7-7.3-4.9c-2.2-2.4-3.9-5.1-4.9-8.1c-1.3-3.7-1.9-7.5-1.8-11.4c0-3.5,0.5-6.9,1.4-10.2
		c0.9-3,2.4-5.8,4.3-8.3c2-2.4,4.4-4.3,7.2-5.6c3.1-1.4,6.6-2.2,10.1-2c3.5-0.1,6.9,0.6,10.1,2c2.7,1.3,5.2,3.2,7.2,5.6
		c2,2.4,3.4,5.2,4.2,8.3c0.9,3.3,1.4,6.8,1.4,10.3c0.1,3.7-0.5,7.3-1.6,10.7c-1,3-2.5,5.8-4.6,8.2c-2,2.3-4.5,4.1-7.3,5.3
		C395.2,361.9,392,362.5,388.7,362.5L388.7,362.5z M405.5,336.4c0-2.7-0.3-5.6-1-8.2c-0.6-2.4-1.6-4.6-2.9-6.7
		c-1.3-1.9-3.1-3.4-5.2-4.4c-2.4-1.2-5.1-1.7-7.7-1.6c-2.7-0.1-5.3,0.5-7.7,1.8c-2.1,1.1-3.9,2.7-5.2,4.7c-1.4,2-2.4,4.3-2.9,6.7
		c-0.7,2.5-1,5.2-1,7.8c0,2.9,0.3,5.7,1.1,8.5c0.7,2.4,1.7,4.6,3.2,6.7c1.4,1.8,3.2,3.3,5.3,4.3c2.3,1,4.8,1.6,7.3,1.5
		c2.7,0.1,5.3-0.5,7.7-1.8c2.1-1.1,3.9-2.7,5.2-4.7c1.4-2,2.4-4.3,2.9-6.7C405.2,341.6,405.5,339,405.5,336.4z M457.9,353.5l13-41.9
		h5.8l-16.1,49.5h-6.1l-10.8-41.6h-0.2l-11,41.6h-6.9l-15.1-49.5h5.7l12.8,42.3l11.5-42.3h6.4L457.9,353.5z"/>
</g>
</svg>
