<?xml version="1.0" encoding="utf-8"?>
<!-- Generator: Adobe Illustrator 27.2.0, SVG Export Plug-In . SVG Version: 6.00 Build 0)  -->
<svg version="1.1" id="Laag_1" xmlns="http://www.w3.org/2000/svg" xmlns:xlink="http://www.w3.org/1999/xlink" x="0px" y="0px"
	 viewBox="0 0 596.6 218.5" style="enable-background:new 0 0 596.6 218.5;" xml:space="preserve">
<style type="text/css">
	.st0{fill:#010101;}
</style>
<g>
	<path class="st0" d="M188.2,88.8c-1.2,0.3-26.5,7.1-27,7.2c-1.4,0.4-2.4,0.8-2.4-1.9c0-11.2,1.8-25.5,11-28.2
		c13-3.9,19.1,8.3,19.5,21.1C189.4,87.5,189.4,88.6,188.2,88.8z M163.9,116.8c2.3-0.6,51.3-14.1,51.3-14.1c4.8-1.4,7.6-1.4,7.6-13.8
		c0-12.9-9.1-50.6-45.7-50.6c-24.6,0-53.6,18-53.8,65.7c-0.2,35.8,15,68.4,55.9,68.4c24.4,0,37.8-16.6,43.1-25
		c3.1-4.8,5-11.8-1.2-16.2c-5.8-4.1-12.4,0.4-17.5,5.7c-6.5,6.8-12.7,9.7-20.7,9.7c-7.9,0-18.6-4.1-20.7-27.3
		C162,117.6,162.5,117.3,163.9,116.8z"/>
	<path class="st0" d="M558,110.4l0.1,25.2c-0.1,6.4-0.3,13.4-7.7,13.3c-7.2-0.1-14.3-8.6-14.3-17.1c0-19,16.4-22.2,21.2-22.2
		C558,109.5,558,110.4,558,110.4z M596.5,91.2c0-7.4,1-29.7-4.7-38.7c-7.4-11.7-20.1-13.3-34.4-13.3c-5.2,0-23,0.1-34.5,6.2
		c-9.4,5-14.6,9.7-18.9,17.6c-3.1,5.9-2.6,12.9,3.1,16.3c4,2.4,13.4,4.5,20.8-5.9c2.2-3,11.3-14.4,22.9-10.3
		c6.1,2.2,5.3,7.5,5.6,23.1c0,0,0.4,2.6-1,3c-1.1,0.4-11.9,1.5-20.6,4.3c-20.1,6.3-38.1,17.7-38.1,42.4c0,32.8,32.2,36.8,52.9,36.8
		c20.6,0,41.7-3.1,44.9-5.6c1.5-1.1,1.9-1.9,2-4.7V91.2z"/>
	<path class="st0" d="M243.9,68.9c0-9.9,0.2-13.3,6.4-17.9c11.6-8.2,34.1-10.9,43.7-10.9c23.2,0,32.6,8.7,37.6,13.1
		c3.8-3.4,13.8-13.1,42.6-13.1c39.5,0,40.4,29.6,40.7,41v82.2c0,3.9-0.7,5.8-4.7,5.8h-27.4c-4.3,0-5.4-1.7-5.4-5.6V77
		c0-3.5-2.1-14.1-14.5-14.1c-12.7,0-14.6,10.7-14.6,14.1v86.5c0,4.1-0.9,5.6-5.4,5.6h-25.8c-4.3,0-6.4-0.7-6.4-5.8V77
		c0-3.5-2-14.8-14.5-14.8c-12.5,0-14.6,11.3-14.6,14.8v86c0,4.4-0.9,6.1-5.9,6.1h-26c-4,0-5.7-1-5.7-5.6V68.9z"/>
	<path class="st0" d="M475.7,163.1c0,5.9-2.8,6-5.9,6h-27.9c-1.6,0-4.8-0.1-4.8-5.6V48.4c0-2,0.3-5.4,5-5.4h28.2
		c4.8,0,5.4,2.8,5.4,5.4V163.1z M456.4,0c-13,0-23.5,7.4-23.5,16.5c0,9,10.5,16.4,23.5,16.4c13,0,23.5-7.3,23.5-16.4
		C479.9,7.4,469.4,0,456.4,0z"/>
	<path class="st0" d="M181.6,193.7c-3.9,1-8.9,2.8-19.7,2.7c-30.2-0.2-56.3-49.1-77.4-91.5c0,0-3.3-6.1-3-7.3c0.3-0.8,2-2,3.7-3
		c14.1-8.1,27.8-21.8,27.8-45C113,0.7,61,0.7,46,0.7C32.3,0.7,11.1,2.1,4.7,4C1.4,5.1,0.3,6.5,0,11.5V164c0.3,4.5,1.9,5.2,5.7,5.2
		h28.2c5,0,6.2-0.7,6.4-5.2v-51.2c0-1.4-0.2-5.1,1.8-5.1c2.3,0,3.8,2.8,5.7,6.4c31.3,57.9,64.7,104.4,105,104.4
		c15.6,0,24.5-6.8,29.5-10.7C193.4,199.2,194,190.4,181.6,193.7z M46.7,85c-5.6,0.6-6.1,0.1-6.1-5.5c0-4.5,0-45.9,0-51
		c0-5.1,1.8-5.5,5.7-5.4c10.5,0.4,26.4,1.4,26.4,30.5C72.7,78.4,57.1,83.9,46.7,85z"/>
</g>
</svg>
