<?xml version="1.0" encoding="utf-8"?>
<!-- Generator: Adobe Illustrator 27.2.0, SVG Export Plug-In . SVG Version: 6.00 Build 0)  -->
<svg version="1.1" id="Laag_1" xmlns="http://www.w3.org/2000/svg" xmlns:xlink="http://www.w3.org/1999/xlink" x="0px" y="0px"
	 viewBox="0 0 761.4 172.2" style="enable-background:new 0 0 761.4 172.2;" xml:space="preserve">
<style type="text/css">
	.st0{fill:#EC681C;}
</style>
<path class="st0" d="M183.4,131v-3.1c14.8-4,27.2-14.9,27.2-43v-47c0-12.6,1.2-24.2,4.9-35c-3.9-1.3-8.8-2.8-18-2.8
	c-17.3,0-30.5,8.8-30.8,30v141.2h125.2V131H183.4z"/>
<path class="st0" d="M128.7,0c-9.2,0-13.6,1.5-17.6,2.8c3.7,10.8,4.4,22.4,4.4,32.2v46.4c0,16.6,4.2,26.8,10,35.2l-3.4,2.3L47.8,2.5
	H0v168.8h43.3v-70.9c0-13.3-1.8-26.1-5-34c1.6-1,3-1.8,3-1.8c4.4,8.2,8,14.5,12.2,20.9l55.9,85.8h49.9l0-140.6
	C159.2,9.2,146.2,0,128.7,0"/>
<polygon class="st0" points="332.2,120 343.1,120 365.3,159.5 365.3,120 374,120 374,171.3 363.1,171.3 340.9,131.9 340.9,171.3 
	332.2,171.3 "/>
<path class="st0" d="M419.9,158c-1.6,11.2-11.1,14.2-18.2,14.2c-9.6,0-18.8-5.4-18.8-21.1c0-15.9,9.7-21,18.6-21
	c8.6,0,18.7,4.7,18.7,21v1.4h-28.5c0.2,8.5,3.7,13,10.4,13c5.3,0,8.5-2.8,9.4-7.4H419.9z M411.3,147.1c-0.6-6.8-4-10.4-9.7-10.4
	c-5.8,0-9.2,3.6-9.8,10.4H411.3z"/>
<path class="st0" d="M429.7,137.7h-6.2l0-6.7h3.6c3.1,0,4.2-1.3,4.2-4.3l0-8.2h7.2l0,12.5h11.9v6.7h-11.9l0,20.7
	c0,4.3,1.2,6.6,5.8,6.6c2.1,0,4.4-0.5,5.6-1v7c-1.2,0.6-4.1,1.3-7.4,1.3c-9.7,0-12.8-5.3-12.8-12.9V137.7z"/>
<path class="st0" d="M457.7,110.5h8.8v24.8c1.8-2.5,5.2-5.2,12.1-5.2c6.6,0,13.7,2.8,13.7,16.4v24.9h-8.8v-23.2
	c0-6.8-1.6-10.5-8-10.5c-4.5,0-7.4,1.8-9,3.6l0,30.1h-8.8L457.7,110.5z"/>
<path class="st0" d="M537.6,158c-1.6,11.2-11.1,14.2-18.2,14.2c-9.7,0-18.8-5.4-18.8-21.1c0-15.9,9.7-21,18.6-21
	c8.6,0,18.7,4.7,18.7,21v1.4h-28.5c0.2,8.5,3.7,13,10.4,13c5.3,0,8.5-2.8,9.4-7.4H537.6z M529,147.1c-0.6-6.8-4-10.4-9.7-10.4
	c-5.8,0-9.2,3.6-9.8,10.4H529z"/>
<path class="st0" d="M546.5,131h7.5v5.3c1.9-3.7,5.1-6.2,10.8-6.2c2.8,0,4.2,0.6,4.8,0.8v7.7c-1.4-0.6-3.4-1.1-5.9-1.1
	c-4.5,0-7.2,1.8-8.5,3.8l0,30.1h-8.8L546.5,131z"/>
<rect x="575.6" y="110.5" class="st0" width="8.8" height="60.8"/>
<path class="st0" d="M619.6,166c-2.1,2.8-7,6.2-14.1,6.2c-8.1,0-12.9-4.5-12.9-11.4c0-9.7,9.6-11.8,16.1-12.3l9.4-0.8v-1.1
	c0-6.2-1-9.7-7.5-9.7c-5.9,0-7.9,2.8-7.9,7.9h-8.5c0.2-12.1,9.5-14.7,17.3-14.7c11.7,0,15.3,5.8,15.3,15.6v17.3
	c0,1.6,0.6,2.4,2.3,2.4c1.1,0,2.4-0.4,3.3-0.8v6.2c-1.3,0.7-3.7,1.5-6.3,1.5c-5.4,0-6.5-3-6.5-5.7V166z M618.2,152.9l-7.6,0.8
	c-5.7,0.6-9.1,2.6-9.1,6.7c0,3.3,2.2,5.3,6.7,5.3c4,0,7.3-1.6,10-3.9V152.9z"/>
<path class="st0" d="M638.6,131h7.5v5.2c2.2-3.4,6.3-6.2,13.3-6.2c6.7,0,13.8,2.8,13.8,16.4v24.9h-8.8l0-23.2c0-6.8-1.6-10.5-8-10.5
	c-4.5,0-7.4,1.8-9,3.6l0,30.1h-8.8L638.6,131z"/>
<path class="st0" d="M710.9,166.3c-1.7,2.7-5.6,5.9-12.2,5.9c-8.6,0-17.1-5.7-17.1-21c0-15.3,8.4-21.2,17.1-21.2c6.1,0,9.7,3,11,4.9
	v-24.4h8.8l0,60.8h-7.6V166.3z M709.7,140.9c-2-2.1-5.1-3.4-8.6-3.4c-7,0-10.6,4.9-10.6,13.6c0,8.7,3.6,13.7,10.6,13.7
	c3.6,0,6.6-1.3,8.6-3.4L709.7,140.9z"/>
<path class="st0" d="M735.4,158.3c0.3,4.6,4,7.6,9.6,7.6c4.5,0,7.7-1.9,7.7-5.5c0-4.4-4.8-5-12.1-7.1c-5.8-1.7-12.1-4-12.1-11.7
	c0-8.5,7.8-11.6,15.5-11.6c8.9,0,15.5,4.1,16.1,12.7h-8.6c-0.2-3.8-3-6.4-7.7-6.4c-3.7,0-6.6,1.7-6.6,4.8c0,4.2,5.2,4.7,12.4,6.7
	c5.9,1.7,11.9,4.2,11.9,12c0,9.3-8.5,12.4-16.6,12.4c-9.9,0-17.3-4.6-18-14H735.4z"/>
</svg>
