<?xml version="1.0" encoding="utf-8"?>
<!-- Generator: Adobe Illustrator 27.2.0, SVG Export Plug-In . SVG Version: 6.00 Build 0)  -->
<svg version="1.1" id="Laag_1" xmlns="http://www.w3.org/2000/svg" xmlns:xlink="http://www.w3.org/1999/xlink" x="0px" y="0px"
	 viewBox="0 0 1290.5 303.3" style="enable-background:new 0 0 1290.5 303.3;" xml:space="preserve">
<style type="text/css">
	.st0{fill:#121111;}
	.st1{fill:#010100;}
	.st2{fill:#FFFFFF;}
</style>
<g>
	<polygon class="st0" points="45.9,42 0,42 81,183.2 162.1,42 116.2,42 81,108.4 	"/>
	<rect x="172.7" y="42" class="st0" width="39.2" height="139.8"/>
	<path class="st0" d="M459.5,37.7c-19.5,0-37.4,7.9-50.6,22.2c-12.5,13.5-19.6,31.9-19.6,50.5c0,18.4,7.1,36.7,19.6,50.2
		c13.4,14.5,31.8,22.5,51.9,22.5c45.8,0,61.3-34.9,64.6-44.1h-40.4c-4.4,7.1-13.2,11.1-24.2,11.1c-12.9,0-28-7.4-32-28.3l-0.3-1.6
		H529c0.5-4.3,0.7-7.7,0.7-10.8C529.7,69.9,498.2,37.7,459.5,37.7z M429,97l0.4-1.7c2.4-11.9,11.8-25.8,30.1-25.8
		c18.1,0,27.5,13.9,30.1,25.8l0.4,1.7H429z"/>
	<path class="st0" d="M615.7,37.7c-40.1,0-72.7,32.6-72.7,72.7c0,40.1,32.6,72.7,72.7,72.7s72.7-32.6,72.7-72.7
		C688.4,70.3,655.8,37.7,615.7,37.7z M615.7,146.3c-19.1,0-33.5-15.4-33.5-35.9c0-20.5,14.4-35.9,33.5-35.9s33.5,15.5,33.5,35.9
		C649.2,130.9,634.8,146.3,615.7,146.3z"/>
	<path class="st0" d="M1268.6,139.2h-2.3c-12,0-21.8,9.8-21.8,21.8c0,12,9.8,21.8,21.8,21.8h2.3c12,0,21.8-9.8,21.8-21.8
		C1290.5,149,1280.7,139.2,1268.6,139.2z"/>
	<path class="st0" d="M1152.3,37.7c-39.3,0-68.9,31.2-68.9,72.7c0,27,11.8,43.9,21.7,53.4c12.8,12.2,30.1,19.2,47.6,19.2
		c19.1,0,31.2-6.8,37.7-11.3l3.6,10h34.6V0h-39.2v54C1181,44,1167,37.7,1152.3,37.7z M1156.1,146.3c-8.9,0-17.1-3.3-23.1-9.3
		c-6.8-6.7-10.3-16.4-10.3-28.1c0-16.9,12.5-34.5,33.4-34.5c10.1,0,18.7,3.9,24.9,11.2c5.6,6.6,8.6,15.4,8.6,24.7
		C1189.5,130.9,1175.2,146.3,1156.1,146.3z"/>
	<path class="st0" d="M827,37.7c-39.3,0-68.9,31.2-68.9,72.7c0,27,11.8,43.9,21.7,53.4c12.8,12.2,30.1,19.2,47.6,19.2
		c19.1,0,31.2-6.8,37.7-11.3l3.6,10h34.7V42h-37.8l-1.4,12C855.7,44,841.6,37.7,827,37.7z M830.7,146.3c-8.9,0-17.1-3.3-23.1-9.3
		c-6.8-6.7-10.4-16.4-10.4-28.1c0-16.9,12.5-34.5,33.5-34.5c10.1,0,18.7,3.9,24.9,11.2c5.6,6.6,8.6,15.4,8.6,24.7
		C864.2,130.9,849.8,146.3,830.7,146.3z"/>
	<path class="st0" d="M298.1,37.7c-39.3,0-68.9,31.2-68.9,72.7c0,27,11.8,43.9,21.7,53.4c12.8,12.2,30.1,19.2,47.6,19.2
		c19.1,0,31.2-6.8,37.7-11.3l3.6,10h34.7V0h-39.1v54C326.8,44,312.8,37.7,298.1,37.7z M301.9,146.3c-8.9,0-17.1-3.3-23.1-9.3
		c-6.8-6.7-10.4-16.4-10.4-28.1c0-16.9,12.5-34.5,33.5-34.5c10.1,0,18.7,3.9,24.8,11.2c5.6,6.6,8.6,15.4,8.6,24.7
		C335.3,130.9,321,146.3,301.9,146.3z"/>
	<rect x="703.6" class="st0" width="39.2" height="181.8"/>
	<path class="st0" d="M961.7,115.3c0-25.7,12.1-40.8,33.5-40.8c20.9,0,32.9,11.7,32.9,34.5l0.1,72.8h39.8v-78.7
		c0-44.9-21.5-65.5-62.1-65.5c-16.4,0-35.6,7.7-44.1,17.7L960.3,42h-37.8v139.8h39.2V115.3z"/>
	<rect x="543.4" y="243.4" class="st1" width="203.8" height="60"/>
	<path class="st2" d="M567.9,257.8h14.4c3.6,0,6.3,0.9,8.1,2.7c1.4,1.4,2.1,3.2,2.1,5.3v0.1c0,0.9-0.1,1.7-0.3,2.3
		c-0.2,0.7-0.5,1.3-0.9,1.8c-0.4,0.5-0.8,1-1.3,1.4c-0.5,0.4-1,0.8-1.6,1.1c1.8,0.7,3.2,1.6,4.2,2.8c1,1.2,1.6,2.8,1.6,4.9v0.1
		c0,1.4-0.3,2.7-0.8,3.7c-0.5,1.1-1.3,2-2.3,2.7c-1,0.7-2.3,1.2-3.7,1.6c-1.4,0.4-3,0.5-4.7,0.5h-14.7V257.8z M580.8,270.3
		c1.5,0,2.7-0.3,3.6-0.8c0.9-0.5,1.3-1.4,1.3-2.5V267c0-1-0.4-1.8-1.2-2.4c-0.8-0.5-1.9-0.8-3.3-0.8h-6.8v6.6H580.8z M582.6,282.8
		c1.5,0,2.7-0.3,3.5-0.8c0.9-0.5,1.3-1.4,1.3-2.5v-0.1c0-1-0.4-1.9-1.2-2.5c-0.8-0.6-2.1-0.9-3.8-0.9h-7.9v6.8H582.6z"/>
	<polygon class="st2" points="608.6,276.6 596.7,257.8 604.7,257.8 612,270.3 619.6,257.8 627.3,257.8 615.4,276.5 615.4,288.8 
		608.6,288.8 	"/>
	<path class="st2" d="M644.9,257.8H659c4,0,7,1,9.1,3.1c1.8,1.8,2.6,4.1,2.6,7.1v0.1c0,2.5-0.6,4.6-1.9,6.1
		c-1.2,1.6-2.8,2.7-4.8,3.5l7.6,11.1h-8l-6.6-9.9h-5.4v9.9h-6.8V257.8z M658.6,272.9c1.7,0,3-0.4,3.9-1.2c0.9-0.8,1.4-1.9,1.4-3.2
		v-0.1c0-1.5-0.5-2.6-1.4-3.3c-0.9-0.7-2.3-1.1-4-1.1h-6.8v8.9H658.6z"/>
	<polygon class="st2" points="684.1,264.1 674.7,264.1 674.7,257.8 700.4,257.8 700.4,264.1 691,264.1 691,288.8 684.1,288.8 	"/>
	<polygon class="st2" points="705.6,257.8 712.4,257.8 712.4,282.7 727,282.7 727,288.8 705.6,288.8 	"/>
</g>
</svg>
