<?xml version="1.0" encoding="utf-8"?>
<!-- Generator: Adobe Illustrator 27.2.0, SVG Export Plug-In . SVG Version: 6.00 Build 0)  -->
<svg version="1.1" id="Laag_1" xmlns="http://www.w3.org/2000/svg" xmlns:xlink="http://www.w3.org/1999/xlink" x="0px" y="0px"
	 viewBox="0 0 533.9 99.2" style="enable-background:new 0 0 533.9 99.2;" xml:space="preserve">
<path d="M504.9,0h-17.5l-27.4,98.6h22.3l12-47.1c1.1-4.4,1.6-8.7,2.3-13c0.8,4.3,1.5,8.5,2.8,12.6l11.8,47.4h22.8L504.9,0z M252.1,0
	h-22.3l-12,47.1c-1.1,4.4-1.6,8.7-2.3,13c-0.8-4.3-1.5-8.5-2.8-12.6L201,0h-22.6l28.5,98.6h17.9L252.1,0z M286.3,0H265v98.6h21.3V0z
	 M440.1,0h-27.9L405,53.3L396.3,0h-27.6l-8.7,98.6h22.8l2.5-61.7l2.1,14.4l9.5,47.2h16.9l8.4-46.7l2.1-16.7l4.3,63.5h21.8L440.1,0z
	 M332,40.7c-4.8-8.4-10.3-17.7-5.2-30c1.8-4.3,4.3-8.4,7.7-10.7h-25.3c0,0-1.6,3.1-2.5,5.1c-8.2,19.7-0.5,34,6.9,47.9
	c6.2,11.5,12.5,23.5,7,36.4c-1.6,3.8-4.4,7.2-7.2,9.3h25.4c0,0,1.3-2.5,1.8-3.9c7.9-19,3.6-32.3-6.9-50.3
	C333.5,43.3,332.8,42,332,40.7"/>
<path d="M54.7,0.2l49.9,76.8L12.2,8.7C-4,20-4.5,40.3,13.4,60.8c23.3,26.7,69.2,43.3,102.3,37.1c33.3-6.2,41.3-33,17.9-59.7
	C115.5,17.4,83.6,2.8,54.7,0.2"/>
<path d="M504.9,0h-17.5l-27.4,98.6h22.3l12-47.1c1.1-4.4,1.6-8.7,2.3-13c0.8,4.3,1.5,8.5,2.8,12.6l11.8,47.4h22.8L504.9,0z M252.1,0
	h-22.3l-12,47.1c-1.1,4.4-1.6,8.7-2.3,13c-0.8-4.3-1.5-8.5-2.8-12.6L201,0h-22.6l28.5,98.6h17.9L252.1,0z M286.3,0H265v98.6h21.3V0z
	 M440.1,0h-27.9L405,53.3L396.3,0h-27.6l-8.7,98.6h22.8l2.5-61.7l2.1,14.4l9.5,47.2h16.9l8.4-46.7l2.1-16.7l4.3,63.5h21.8L440.1,0z
	 M332,40.7c-4.8-8.4-10.3-17.7-5.2-30c1.8-4.3,4.3-8.4,7.7-10.7h-25.3c0,0-1.6,3.1-2.5,5.1c-8.2,19.7-0.5,34,6.9,47.9
	c6.2,11.5,12.5,23.5,7,36.4c-1.6,3.8-4.4,7.2-7.2,9.3h25.4c0,0,1.3-2.5,1.8-3.9c7.9-19,3.6-32.3-6.9-50.3
	C333.5,43.3,332.8,42,332,40.7"/>
<path d="M54.7,0.2l49.9,76.8L12.2,8.7C-4,20-4.5,40.3,13.4,60.8c23.3,26.7,69.2,43.3,102.3,37.1c33.3-6.2,41.3-33,17.9-59.7
	C115.5,17.4,83.6,2.8,54.7,0.2"/>
</svg>
